G04 #@! TF.GenerationSoftware,KiCad,Pcbnew,(5.1.5)-3*
G04 #@! TF.CreationDate,2020-02-20T12:19:50+01:00*
G04 #@! TF.ProjectId,carecasetester,63617265-6361-4736-9574-65737465722e,rev?*
G04 #@! TF.SameCoordinates,Original*
G04 #@! TF.FileFunction,Legend,Top*
G04 #@! TF.FilePolarity,Positive*
%FSLAX46Y46*%
G04 Gerber Fmt 4.6, Leading zero omitted, Abs format (unit mm)*
G04 Created by KiCad (PCBNEW (5.1.5)-3) date 2020-02-20 12:19:50*
%MOMM*%
%LPD*%
G04 APERTURE LIST*
%ADD10C,0.200000*%
%ADD11C,0.100000*%
%ADD12C,0.120000*%
%ADD13C,0.150000*%
G04 APERTURE END LIST*
D10*
X77000000Y-20080000D02*
X77000000Y-10080000D01*
X235330000Y-10030000D02*
X235330000Y-20030000D01*
X83040924Y-14450000D02*
G75*
G03X83040924Y-14450000I-1352821J0D01*
G01*
X162982821Y-14600000D02*
G75*
G03X162982821Y-14600000I-1352821J0D01*
G01*
X161040924Y-50710000D02*
G75*
G03X161040924Y-50710000I-1352821J0D01*
G01*
X85040924Y-50710000D02*
G75*
G03X85040924Y-50710000I-1352821J0D01*
G01*
X77000000Y-20080000D02*
X77150000Y-170400000D01*
X235330000Y-10030000D02*
X77000000Y-10080000D01*
X235290000Y-170410000D02*
X235330000Y-20030000D01*
X77150000Y-170400000D02*
X235290000Y-170410000D01*
X152660000Y-78311679D02*
G75*
G03X152660000Y-78311679I-1550000J0D01*
G01*
X87240094Y-71860256D02*
G75*
G02X94160000Y-65020000I6850364J-9762D01*
G01*
X104671152Y-147109678D02*
G75*
G02X102010000Y-144490000I-41152J2619677D01*
G01*
X102010000Y-137780000D02*
X102010000Y-144490000D01*
X102010018Y-137781153D02*
G75*
G02X104629695Y-135120000I2619677J41153D01*
G01*
X100610000Y-141520000D02*
G75*
G03X100610000Y-141520000I-3400000J0D01*
G01*
X210410000Y-144460000D02*
X210410000Y-137740000D01*
X210409982Y-144458847D02*
G75*
G02X207790305Y-147120000I-2619677J-41153D01*
G01*
X207748843Y-135120018D02*
G75*
G02X210409996Y-137739695I41153J-2619677D01*
G01*
X218610000Y-141520000D02*
G75*
G03X218610000Y-141520000I-3400000J0D01*
G01*
X104630000Y-135120000D02*
X207750000Y-135120000D01*
D11*
X198160000Y-125820000D02*
X198810000Y-125820000D01*
X198160000Y-124270000D02*
X198160000Y-125820000D01*
X184710000Y-124270000D02*
X198160000Y-124270000D01*
X184710000Y-133220000D02*
X184710000Y-124270000D01*
X198160000Y-133220000D02*
X184710000Y-133220000D01*
X198160000Y-131720000D02*
X198160000Y-133220000D01*
X198810000Y-131720000D02*
X198160000Y-131720000D01*
X198810000Y-125820000D02*
X198810000Y-131720000D01*
D10*
X224399641Y-92710631D02*
G75*
G02X225140000Y-94599045I-1859641J-1818415D01*
G01*
X224400000Y-92710000D02*
X197510000Y-65800000D01*
X195670000Y-65019946D02*
G75*
G02X197511695Y-65795663I-10923J-2600052D01*
G01*
X218410000Y-97450000D02*
G75*
G03X218410000Y-97450000I-3200000J0D01*
G01*
X100410000Y-97450000D02*
G75*
G03X100410000Y-97450000I-3200000J0D01*
G01*
X104670000Y-147110000D02*
X207790000Y-147120000D01*
X87240000Y-150020000D02*
X87240000Y-71860000D01*
X94160000Y-65020000D02*
X195670000Y-65020000D01*
X225130000Y-150020000D02*
X225140000Y-94600000D01*
X97240000Y-160020000D02*
X215130000Y-160020000D01*
X225130000Y-150020000D02*
G75*
G02X215130000Y-160020000I-10000000J0D01*
G01*
X97240000Y-160020000D02*
G75*
G02X87240000Y-150020000I0J10000000D01*
G01*
D12*
X222260000Y-43050000D02*
X224940000Y-43050000D01*
X224940000Y-49290000D02*
X222260000Y-49290000D01*
X220480000Y-49140000D02*
X220480000Y-43200000D01*
X226720000Y-49140000D02*
X226720000Y-43200000D01*
X225014214Y-46170000D02*
G75*
G03X225014214Y-46170000I-1414214J0D01*
G01*
X187814000Y-30180000D02*
X221088000Y-30180000D01*
X187814000Y-12400000D02*
X187814000Y-30180000D01*
X221088000Y-12400000D02*
X187814000Y-12400000D01*
X221088000Y-30180000D02*
X221088000Y-12400000D01*
X170740000Y-26620000D02*
X170740000Y-29160000D01*
X168200000Y-26620000D02*
X168200000Y-29160000D01*
X165660000Y-26620000D02*
X165660000Y-29160000D01*
X173320000Y-10730000D02*
X173320000Y-26620000D01*
X163080000Y-10730000D02*
X163080000Y-26620000D01*
X163080000Y-10730000D02*
X173320000Y-10730000D01*
X163080000Y-26620000D02*
X173320000Y-26620000D01*
X88950000Y-22100000D02*
X88950000Y-20830000D01*
X90220000Y-22100000D02*
X88950000Y-22100000D01*
X128700000Y-19787071D02*
X128700000Y-19390000D01*
X127940000Y-19787071D02*
X127940000Y-19390000D01*
X128700000Y-10730000D02*
X128700000Y-16730000D01*
X127940000Y-10730000D02*
X128700000Y-10730000D01*
X127940000Y-16730000D02*
X127940000Y-10730000D01*
X127050000Y-19390000D02*
X127050000Y-16730000D01*
X126160000Y-19787071D02*
X126160000Y-19390000D01*
X125400000Y-19787071D02*
X125400000Y-19390000D01*
X126160000Y-10730000D02*
X126160000Y-16730000D01*
X125400000Y-10730000D02*
X126160000Y-10730000D01*
X125400000Y-16730000D02*
X125400000Y-10730000D01*
X124510000Y-19390000D02*
X124510000Y-16730000D01*
X123620000Y-19787071D02*
X123620000Y-19390000D01*
X122860000Y-19787071D02*
X122860000Y-19390000D01*
X123620000Y-10730000D02*
X123620000Y-16730000D01*
X122860000Y-10730000D02*
X123620000Y-10730000D01*
X122860000Y-16730000D02*
X122860000Y-10730000D01*
X121970000Y-19390000D02*
X121970000Y-16730000D01*
X121080000Y-19787071D02*
X121080000Y-19390000D01*
X120320000Y-19787071D02*
X120320000Y-19390000D01*
X121080000Y-10730000D02*
X121080000Y-16730000D01*
X120320000Y-10730000D02*
X121080000Y-10730000D01*
X120320000Y-16730000D02*
X120320000Y-10730000D01*
X119430000Y-19390000D02*
X119430000Y-16730000D01*
X118540000Y-19787071D02*
X118540000Y-19390000D01*
X117780000Y-19787071D02*
X117780000Y-19390000D01*
X118540000Y-10730000D02*
X118540000Y-16730000D01*
X117780000Y-10730000D02*
X118540000Y-10730000D01*
X117780000Y-16730000D02*
X117780000Y-10730000D01*
X116890000Y-19390000D02*
X116890000Y-16730000D01*
X116000000Y-19787071D02*
X116000000Y-19390000D01*
X115240000Y-19787071D02*
X115240000Y-19390000D01*
X116000000Y-10730000D02*
X116000000Y-16730000D01*
X115240000Y-10730000D02*
X116000000Y-10730000D01*
X115240000Y-16730000D02*
X115240000Y-10730000D01*
X114350000Y-19390000D02*
X114350000Y-16730000D01*
X113460000Y-19787071D02*
X113460000Y-19390000D01*
X112700000Y-19787071D02*
X112700000Y-19390000D01*
X113460000Y-10730000D02*
X113460000Y-16730000D01*
X112700000Y-10730000D02*
X113460000Y-10730000D01*
X112700000Y-16730000D02*
X112700000Y-10730000D01*
X111810000Y-19390000D02*
X111810000Y-16730000D01*
X110920000Y-19787071D02*
X110920000Y-19390000D01*
X110160000Y-19787071D02*
X110160000Y-19390000D01*
X110920000Y-10730000D02*
X110920000Y-16730000D01*
X110160000Y-10730000D02*
X110920000Y-10730000D01*
X110160000Y-16730000D02*
X110160000Y-10730000D01*
X109270000Y-19390000D02*
X109270000Y-16730000D01*
X108380000Y-19787071D02*
X108380000Y-19390000D01*
X107620000Y-19787071D02*
X107620000Y-19390000D01*
X108380000Y-10730000D02*
X108380000Y-16730000D01*
X107620000Y-10730000D02*
X108380000Y-10730000D01*
X107620000Y-16730000D02*
X107620000Y-10730000D01*
X106730000Y-19390000D02*
X106730000Y-16730000D01*
X105840000Y-19787071D02*
X105840000Y-19390000D01*
X105080000Y-19787071D02*
X105080000Y-19390000D01*
X105840000Y-10730000D02*
X105840000Y-16730000D01*
X105080000Y-10730000D02*
X105840000Y-10730000D01*
X105080000Y-16730000D02*
X105080000Y-10730000D01*
X104190000Y-19390000D02*
X104190000Y-16730000D01*
X103300000Y-19787071D02*
X103300000Y-19390000D01*
X102540000Y-19787071D02*
X102540000Y-19390000D01*
X103300000Y-10730000D02*
X103300000Y-16730000D01*
X102540000Y-10730000D02*
X103300000Y-10730000D01*
X102540000Y-16730000D02*
X102540000Y-10730000D01*
X101650000Y-19390000D02*
X101650000Y-16730000D01*
X100760000Y-19787071D02*
X100760000Y-19390000D01*
X100000000Y-19787071D02*
X100000000Y-19390000D01*
X100760000Y-10730000D02*
X100760000Y-16730000D01*
X100000000Y-10730000D02*
X100760000Y-10730000D01*
X100000000Y-16730000D02*
X100000000Y-10730000D01*
X99110000Y-19390000D02*
X99110000Y-16730000D01*
X98220000Y-19787071D02*
X98220000Y-19390000D01*
X97460000Y-19787071D02*
X97460000Y-19390000D01*
X98220000Y-10730000D02*
X98220000Y-16730000D01*
X97460000Y-10730000D02*
X98220000Y-10730000D01*
X97460000Y-16730000D02*
X97460000Y-10730000D01*
X96570000Y-19390000D02*
X96570000Y-16730000D01*
X95680000Y-19787071D02*
X95680000Y-19390000D01*
X94920000Y-19787071D02*
X94920000Y-19390000D01*
X95680000Y-10730000D02*
X95680000Y-16730000D01*
X94920000Y-10730000D02*
X95680000Y-10730000D01*
X94920000Y-16730000D02*
X94920000Y-10730000D01*
X94030000Y-19390000D02*
X94030000Y-16730000D01*
X93140000Y-19787071D02*
X93140000Y-19390000D01*
X92380000Y-19787071D02*
X92380000Y-19390000D01*
X93140000Y-10730000D02*
X93140000Y-16730000D01*
X92380000Y-10730000D02*
X93140000Y-10730000D01*
X92380000Y-16730000D02*
X92380000Y-10730000D01*
X91490000Y-19390000D02*
X91490000Y-16730000D01*
X90600000Y-19720000D02*
X90600000Y-19390000D01*
X89840000Y-19720000D02*
X89840000Y-19390000D01*
X90500000Y-16730000D02*
X90500000Y-10730000D01*
X90380000Y-16730000D02*
X90380000Y-10730000D01*
X90260000Y-16730000D02*
X90260000Y-10730000D01*
X90140000Y-16730000D02*
X90140000Y-10730000D01*
X90020000Y-16730000D02*
X90020000Y-10730000D01*
X89900000Y-16730000D02*
X89900000Y-10730000D01*
X90600000Y-10730000D02*
X90600000Y-16730000D01*
X89840000Y-10730000D02*
X90600000Y-10730000D01*
X89840000Y-16730000D02*
X89840000Y-10730000D01*
X88890000Y-16730000D02*
X88890000Y-19390000D01*
X129650000Y-16730000D02*
X88890000Y-16730000D01*
X129650000Y-19390000D02*
X129650000Y-16730000D01*
X88890000Y-19390000D02*
X129650000Y-19390000D01*
X146880000Y-38945000D02*
X148695000Y-38945000D01*
X146880000Y-39210000D02*
X146880000Y-38945000D01*
X143020000Y-39210000D02*
X146880000Y-39210000D01*
X139160000Y-39210000D02*
X139160000Y-38945000D01*
X143020000Y-39210000D02*
X139160000Y-39210000D01*
X146880000Y-23590000D02*
X146880000Y-23855000D01*
X143020000Y-23590000D02*
X146880000Y-23590000D01*
X139160000Y-23590000D02*
X139160000Y-23855000D01*
X143020000Y-23590000D02*
X139160000Y-23590000D01*
X229480000Y-32300000D02*
X229480000Y-30060000D01*
X229240000Y-32300000D02*
X229240000Y-30060000D01*
X229360000Y-32300000D02*
X229360000Y-30060000D01*
X223920000Y-31180000D02*
X225840000Y-31180000D01*
X232000000Y-31180000D02*
X230080000Y-31180000D01*
X225840000Y-32300000D02*
X230080000Y-32300000D01*
X225840000Y-30060000D02*
X225840000Y-32300000D01*
X230080000Y-30060000D02*
X225840000Y-30060000D01*
X230080000Y-32300000D02*
X230080000Y-30060000D01*
X213701267Y-35110000D02*
X213358733Y-35110000D01*
X213701267Y-36130000D02*
X213358733Y-36130000D01*
X182588733Y-27420000D02*
X182931267Y-27420000D01*
X182588733Y-26400000D02*
X182931267Y-26400000D01*
X132810000Y-49176267D02*
X132810000Y-48833733D01*
X131790000Y-49176267D02*
X131790000Y-48833733D01*
X135540000Y-49216267D02*
X135540000Y-48873733D01*
X134520000Y-49216267D02*
X134520000Y-48873733D01*
X138210000Y-49241267D02*
X138210000Y-48898733D01*
X137190000Y-49241267D02*
X137190000Y-48898733D01*
X141070000Y-49306267D02*
X141070000Y-48963733D01*
X140050000Y-49306267D02*
X140050000Y-48963733D01*
X143800000Y-49336267D02*
X143800000Y-48993733D01*
X142780000Y-49336267D02*
X142780000Y-48993733D01*
X146590000Y-49426267D02*
X146590000Y-49083733D01*
X145570000Y-49426267D02*
X145570000Y-49083733D01*
X149460000Y-49416267D02*
X149460000Y-49073733D01*
X148440000Y-49416267D02*
X148440000Y-49073733D01*
X152250000Y-49366267D02*
X152250000Y-49023733D01*
X151230000Y-49366267D02*
X151230000Y-49023733D01*
X155030000Y-49351267D02*
X155030000Y-49008733D01*
X154010000Y-49351267D02*
X154010000Y-49008733D01*
X157710000Y-49341267D02*
X157710000Y-48998733D01*
X156690000Y-49341267D02*
X156690000Y-48998733D01*
X160620000Y-47191267D02*
X160620000Y-46848733D01*
X159600000Y-47191267D02*
X159600000Y-46848733D01*
X163350000Y-49306267D02*
X163350000Y-48963733D01*
X162330000Y-49306267D02*
X162330000Y-48963733D01*
X132870000Y-42421267D02*
X132870000Y-42078733D01*
X131850000Y-42421267D02*
X131850000Y-42078733D01*
X135600000Y-42401267D02*
X135600000Y-42058733D01*
X134580000Y-42401267D02*
X134580000Y-42058733D01*
X138370000Y-42381267D02*
X138370000Y-42038733D01*
X137350000Y-42381267D02*
X137350000Y-42038733D01*
X141160000Y-42361267D02*
X141160000Y-42018733D01*
X140140000Y-42361267D02*
X140140000Y-42018733D01*
X143890000Y-42361267D02*
X143890000Y-42018733D01*
X142870000Y-42361267D02*
X142870000Y-42018733D01*
X146620000Y-42331267D02*
X146620000Y-41988733D01*
X145600000Y-42331267D02*
X145600000Y-41988733D01*
X149530000Y-42291267D02*
X149530000Y-41948733D01*
X148510000Y-42291267D02*
X148510000Y-41948733D01*
X152400000Y-42371267D02*
X152400000Y-42028733D01*
X151380000Y-42371267D02*
X151380000Y-42028733D01*
X155130000Y-42371267D02*
X155130000Y-42028733D01*
X154110000Y-42371267D02*
X154110000Y-42028733D01*
X157770000Y-42401267D02*
X157770000Y-42058733D01*
X156750000Y-42401267D02*
X156750000Y-42058733D01*
X160610000Y-42311267D02*
X160610000Y-41968733D01*
X159590000Y-42311267D02*
X159590000Y-41968733D01*
X163400000Y-42361267D02*
X163400000Y-42018733D01*
X162380000Y-42361267D02*
X162380000Y-42018733D01*
X89700000Y-48238733D02*
X89700000Y-48581267D01*
X90720000Y-48238733D02*
X90720000Y-48581267D01*
X218950000Y-38290000D02*
X217490000Y-38290000D01*
X218950000Y-35130000D02*
X216790000Y-35130000D01*
X218950000Y-35130000D02*
X218950000Y-36060000D01*
X218950000Y-38290000D02*
X218950000Y-37360000D01*
D13*
X223210000Y-12010000D02*
X233910000Y-12010000D01*
X223210000Y-27810000D02*
X223210000Y-12010000D01*
X233910000Y-27810000D02*
X223210000Y-27810000D01*
X233910000Y-12010000D02*
X233910000Y-27810000D01*
X182360000Y-20190000D02*
X178060000Y-20190000D01*
X184210000Y-12190000D02*
X176210000Y-12190000D01*
X176210000Y-20190000D02*
X178060000Y-20190000D01*
X184210000Y-20190000D02*
X182360000Y-20190000D01*
X176210000Y-8690000D02*
X176210000Y-10690000D01*
X184210000Y-8690000D02*
X176210000Y-8690000D01*
X184210000Y-10690000D02*
X184210000Y-8690000D01*
X186110000Y-12190000D02*
X186110000Y-10690000D01*
X184210000Y-12190000D02*
X186110000Y-12190000D01*
X184210000Y-20190000D02*
X184210000Y-12190000D01*
X174310000Y-10690000D02*
X186110000Y-10690000D01*
X174310000Y-12190000D02*
X174310000Y-10690000D01*
X176210000Y-12190000D02*
X174310000Y-12190000D01*
X176210000Y-20190000D02*
X176210000Y-12190000D01*
D12*
X178890000Y-46120000D02*
X178890000Y-43180000D01*
X178650000Y-46120000D02*
X178650000Y-43180000D01*
X178770000Y-46120000D02*
X178770000Y-43180000D01*
X173210000Y-44650000D02*
X174230000Y-44650000D01*
X180690000Y-44650000D02*
X179670000Y-44650000D01*
X174230000Y-46120000D02*
X179670000Y-46120000D01*
X174230000Y-43180000D02*
X174230000Y-46120000D01*
X179670000Y-43180000D02*
X174230000Y-43180000D01*
X179670000Y-46120000D02*
X179670000Y-43180000D01*
X175100000Y-39128733D02*
X175100000Y-39471267D01*
X176120000Y-39128733D02*
X176120000Y-39471267D01*
X177050000Y-39128733D02*
X177050000Y-39471267D01*
X178070000Y-39128733D02*
X178070000Y-39471267D01*
X173100000Y-39108733D02*
X173100000Y-39451267D01*
X174120000Y-39108733D02*
X174120000Y-39451267D01*
X133190000Y-22110000D02*
X133190000Y-20840000D01*
X134460000Y-22110000D02*
X133190000Y-22110000D01*
X137380000Y-19797071D02*
X137380000Y-19400000D01*
X136620000Y-19797071D02*
X136620000Y-19400000D01*
X137380000Y-10740000D02*
X137380000Y-16740000D01*
X136620000Y-10740000D02*
X137380000Y-10740000D01*
X136620000Y-16740000D02*
X136620000Y-10740000D01*
X135730000Y-19400000D02*
X135730000Y-16740000D01*
X134840000Y-19730000D02*
X134840000Y-19400000D01*
X134080000Y-19730000D02*
X134080000Y-19400000D01*
X134740000Y-16740000D02*
X134740000Y-10740000D01*
X134620000Y-16740000D02*
X134620000Y-10740000D01*
X134500000Y-16740000D02*
X134500000Y-10740000D01*
X134380000Y-16740000D02*
X134380000Y-10740000D01*
X134260000Y-16740000D02*
X134260000Y-10740000D01*
X134140000Y-16740000D02*
X134140000Y-10740000D01*
X134840000Y-10740000D02*
X134840000Y-16740000D01*
X134080000Y-10740000D02*
X134840000Y-10740000D01*
X134080000Y-16740000D02*
X134080000Y-10740000D01*
X133130000Y-16740000D02*
X133130000Y-19400000D01*
X138330000Y-16740000D02*
X133130000Y-16740000D01*
X138330000Y-19400000D02*
X138330000Y-16740000D01*
X133130000Y-19400000D02*
X138330000Y-19400000D01*
X142880000Y-22150000D02*
X142880000Y-20880000D01*
X144150000Y-22150000D02*
X142880000Y-22150000D01*
X157230000Y-19837071D02*
X157230000Y-19440000D01*
X156470000Y-19837071D02*
X156470000Y-19440000D01*
X157230000Y-10780000D02*
X157230000Y-16780000D01*
X156470000Y-10780000D02*
X157230000Y-10780000D01*
X156470000Y-16780000D02*
X156470000Y-10780000D01*
X155580000Y-19440000D02*
X155580000Y-16780000D01*
X154690000Y-19837071D02*
X154690000Y-19440000D01*
X153930000Y-19837071D02*
X153930000Y-19440000D01*
X154690000Y-10780000D02*
X154690000Y-16780000D01*
X153930000Y-10780000D02*
X154690000Y-10780000D01*
X153930000Y-16780000D02*
X153930000Y-10780000D01*
X153040000Y-19440000D02*
X153040000Y-16780000D01*
X152150000Y-19837071D02*
X152150000Y-19440000D01*
X151390000Y-19837071D02*
X151390000Y-19440000D01*
X152150000Y-10780000D02*
X152150000Y-16780000D01*
X151390000Y-10780000D02*
X152150000Y-10780000D01*
X151390000Y-16780000D02*
X151390000Y-10780000D01*
X150500000Y-19440000D02*
X150500000Y-16780000D01*
X149610000Y-19837071D02*
X149610000Y-19440000D01*
X148850000Y-19837071D02*
X148850000Y-19440000D01*
X149610000Y-10780000D02*
X149610000Y-16780000D01*
X148850000Y-10780000D02*
X149610000Y-10780000D01*
X148850000Y-16780000D02*
X148850000Y-10780000D01*
X147960000Y-19440000D02*
X147960000Y-16780000D01*
X147070000Y-19837071D02*
X147070000Y-19440000D01*
X146310000Y-19837071D02*
X146310000Y-19440000D01*
X147070000Y-10780000D02*
X147070000Y-16780000D01*
X146310000Y-10780000D02*
X147070000Y-10780000D01*
X146310000Y-16780000D02*
X146310000Y-10780000D01*
X145420000Y-19440000D02*
X145420000Y-16780000D01*
X144530000Y-19770000D02*
X144530000Y-19440000D01*
X143770000Y-19770000D02*
X143770000Y-19440000D01*
X144430000Y-16780000D02*
X144430000Y-10780000D01*
X144310000Y-16780000D02*
X144310000Y-10780000D01*
X144190000Y-16780000D02*
X144190000Y-10780000D01*
X144070000Y-16780000D02*
X144070000Y-10780000D01*
X143950000Y-16780000D02*
X143950000Y-10780000D01*
X143830000Y-16780000D02*
X143830000Y-10780000D01*
X144530000Y-10780000D02*
X144530000Y-16780000D01*
X143770000Y-10780000D02*
X144530000Y-10780000D01*
X143770000Y-16780000D02*
X143770000Y-10780000D01*
X142820000Y-16780000D02*
X142820000Y-19440000D01*
X158180000Y-16780000D02*
X142820000Y-16780000D01*
X158180000Y-19440000D02*
X158180000Y-16780000D01*
X142820000Y-19440000D02*
X158180000Y-19440000D01*
X167320000Y-38240000D02*
X168650000Y-38240000D01*
X168650000Y-38240000D02*
X168650000Y-39570000D01*
X168650000Y-40840000D02*
X168650000Y-48520000D01*
X165990000Y-48520000D02*
X168650000Y-48520000D01*
X165990000Y-40840000D02*
X165990000Y-48520000D01*
X165990000Y-40840000D02*
X168650000Y-40840000D01*
X206760000Y-52290000D02*
X206760000Y-53620000D01*
X206760000Y-53620000D02*
X205430000Y-53620000D01*
X204160000Y-53620000D02*
X166000000Y-53620000D01*
X166000000Y-50960000D02*
X166000000Y-53620000D01*
X204160000Y-50960000D02*
X166000000Y-50960000D01*
X204160000Y-50960000D02*
X204160000Y-53620000D01*
X88880000Y-52330000D02*
X88880000Y-51000000D01*
X88880000Y-51000000D02*
X90210000Y-51000000D01*
X91480000Y-51000000D02*
X129640000Y-51000000D01*
X129640000Y-53660000D02*
X129640000Y-51000000D01*
X91480000Y-53660000D02*
X129640000Y-53660000D01*
X91480000Y-53660000D02*
X91480000Y-51000000D01*
D13*
X219704761Y-47503333D02*
X219752380Y-47360476D01*
X219752380Y-47122380D01*
X219704761Y-47027142D01*
X219657142Y-46979523D01*
X219561904Y-46931904D01*
X219466666Y-46931904D01*
X219371428Y-46979523D01*
X219323809Y-47027142D01*
X219276190Y-47122380D01*
X219228571Y-47312857D01*
X219180952Y-47408095D01*
X219133333Y-47455714D01*
X219038095Y-47503333D01*
X218942857Y-47503333D01*
X218847619Y-47455714D01*
X218800000Y-47408095D01*
X218752380Y-47312857D01*
X218752380Y-47074761D01*
X218800000Y-46931904D01*
X218752380Y-46598571D02*
X219752380Y-46360476D01*
X219038095Y-46170000D01*
X219752380Y-45979523D01*
X218752380Y-45741428D01*
X219752380Y-44836666D02*
X219752380Y-45408095D01*
X219752380Y-45122380D02*
X218752380Y-45122380D01*
X218895238Y-45217619D01*
X218990476Y-45312857D01*
X219038095Y-45408095D01*
X191536666Y-32926285D02*
X191536666Y-32450095D01*
X191822380Y-33021523D02*
X190822380Y-32688190D01*
X191822380Y-32354857D01*
X191822380Y-31497714D02*
X191822380Y-32069142D01*
X191822380Y-31783428D02*
X190822380Y-31783428D01*
X190965238Y-31878666D01*
X191060476Y-31973904D01*
X191108095Y-32069142D01*
X185328095Y-16770000D02*
X185232857Y-16722380D01*
X185090000Y-16722380D01*
X184947142Y-16770000D01*
X184851904Y-16865238D01*
X184804285Y-16960476D01*
X184756666Y-17150952D01*
X184756666Y-17293809D01*
X184804285Y-17484285D01*
X184851904Y-17579523D01*
X184947142Y-17674761D01*
X185090000Y-17722380D01*
X185185238Y-17722380D01*
X185328095Y-17674761D01*
X185375714Y-17627142D01*
X185375714Y-17293809D01*
X185185238Y-17293809D01*
X185804285Y-17722380D02*
X185804285Y-16722380D01*
X186375714Y-17722380D01*
X186375714Y-16722380D01*
X186851904Y-17722380D02*
X186851904Y-16722380D01*
X187090000Y-16722380D01*
X187232857Y-16770000D01*
X187328095Y-16865238D01*
X187375714Y-16960476D01*
X187423333Y-17150952D01*
X187423333Y-17293809D01*
X187375714Y-17484285D01*
X187328095Y-17579523D01*
X187232857Y-17674761D01*
X187090000Y-17722380D01*
X186851904Y-17722380D01*
X185544000Y-28092380D02*
X185544000Y-27092380D01*
X185782095Y-27092380D01*
X185924952Y-27140000D01*
X186020190Y-27235238D01*
X186067809Y-27330476D01*
X186115428Y-27520952D01*
X186115428Y-27663809D01*
X186067809Y-27854285D01*
X186020190Y-27949523D01*
X185924952Y-28044761D01*
X185782095Y-28092380D01*
X185544000Y-28092380D01*
X186544000Y-28092380D02*
X186544000Y-27092380D01*
X187591619Y-28092380D02*
X187258285Y-27616190D01*
X187020190Y-28092380D02*
X187020190Y-27092380D01*
X187401142Y-27092380D01*
X187496380Y-27140000D01*
X187544000Y-27187619D01*
X187591619Y-27282857D01*
X187591619Y-27425714D01*
X187544000Y-27520952D01*
X187496380Y-27568571D01*
X187401142Y-27616190D01*
X187020190Y-27616190D01*
X186036095Y-24552380D02*
X186607523Y-24552380D01*
X186321809Y-25552380D02*
X186321809Y-24552380D01*
X186845619Y-24552380D02*
X187512285Y-25552380D01*
X187512285Y-24552380D02*
X186845619Y-25552380D01*
X186631333Y-23012380D02*
X186298000Y-22536190D01*
X186059904Y-23012380D02*
X186059904Y-22012380D01*
X186440857Y-22012380D01*
X186536095Y-22060000D01*
X186583714Y-22107619D01*
X186631333Y-22202857D01*
X186631333Y-22345714D01*
X186583714Y-22440952D01*
X186536095Y-22488571D01*
X186440857Y-22536190D01*
X186059904Y-22536190D01*
X186964666Y-22012380D02*
X187631333Y-23012380D01*
X187631333Y-22012380D02*
X186964666Y-23012380D01*
X185388095Y-14090000D02*
X185292857Y-14042380D01*
X185150000Y-14042380D01*
X185007142Y-14090000D01*
X184911904Y-14185238D01*
X184864285Y-14280476D01*
X184816666Y-14470952D01*
X184816666Y-14613809D01*
X184864285Y-14804285D01*
X184911904Y-14899523D01*
X185007142Y-14994761D01*
X185150000Y-15042380D01*
X185245238Y-15042380D01*
X185388095Y-14994761D01*
X185435714Y-14947142D01*
X185435714Y-14613809D01*
X185245238Y-14613809D01*
X185864285Y-15042380D02*
X185864285Y-14042380D01*
X186435714Y-15042380D01*
X186435714Y-14042380D01*
X186911904Y-15042380D02*
X186911904Y-14042380D01*
X187150000Y-14042380D01*
X187292857Y-14090000D01*
X187388095Y-14185238D01*
X187435714Y-14280476D01*
X187483333Y-14470952D01*
X187483333Y-14613809D01*
X187435714Y-14804285D01*
X187388095Y-14899523D01*
X187292857Y-14994761D01*
X187150000Y-15042380D01*
X186911904Y-15042380D01*
X186607523Y-19472380D02*
X186131333Y-19472380D01*
X186083714Y-19948571D01*
X186131333Y-19900952D01*
X186226571Y-19853333D01*
X186464666Y-19853333D01*
X186559904Y-19900952D01*
X186607523Y-19948571D01*
X186655142Y-20043809D01*
X186655142Y-20281904D01*
X186607523Y-20377142D01*
X186559904Y-20424761D01*
X186464666Y-20472380D01*
X186226571Y-20472380D01*
X186131333Y-20424761D01*
X186083714Y-20377142D01*
X186940857Y-19472380D02*
X187274190Y-20472380D01*
X187607523Y-19472380D01*
X167438095Y-25492380D02*
X167438095Y-26301904D01*
X167485714Y-26397142D01*
X167533333Y-26444761D01*
X167628571Y-26492380D01*
X167819047Y-26492380D01*
X167914285Y-26444761D01*
X167961904Y-26397142D01*
X168009523Y-26301904D01*
X168009523Y-25492380D01*
X168438095Y-25587619D02*
X168485714Y-25540000D01*
X168580952Y-25492380D01*
X168819047Y-25492380D01*
X168914285Y-25540000D01*
X168961904Y-25587619D01*
X169009523Y-25682857D01*
X169009523Y-25778095D01*
X168961904Y-25920952D01*
X168390476Y-26492380D01*
X169009523Y-26492380D01*
X87152380Y-17669523D02*
X87866666Y-17669523D01*
X88009523Y-17717142D01*
X88104761Y-17812380D01*
X88152380Y-17955238D01*
X88152380Y-18050476D01*
X88152380Y-16669523D02*
X88152380Y-17240952D01*
X88152380Y-16955238D02*
X87152380Y-16955238D01*
X87295238Y-17050476D01*
X87390476Y-17145714D01*
X87438095Y-17240952D01*
X87152380Y-15764761D02*
X87152380Y-16240952D01*
X87628571Y-16288571D01*
X87580952Y-16240952D01*
X87533333Y-16145714D01*
X87533333Y-15907619D01*
X87580952Y-15812380D01*
X87628571Y-15764761D01*
X87723809Y-15717142D01*
X87961904Y-15717142D01*
X88057142Y-15764761D01*
X88104761Y-15812380D01*
X88152380Y-15907619D01*
X88152380Y-16145714D01*
X88104761Y-16240952D01*
X88057142Y-16288571D01*
X142258095Y-39502380D02*
X142258095Y-40311904D01*
X142305714Y-40407142D01*
X142353333Y-40454761D01*
X142448571Y-40502380D01*
X142639047Y-40502380D01*
X142734285Y-40454761D01*
X142781904Y-40407142D01*
X142829523Y-40311904D01*
X142829523Y-39502380D01*
X143829523Y-40502380D02*
X143258095Y-40502380D01*
X143543809Y-40502380D02*
X143543809Y-39502380D01*
X143448571Y-39645238D01*
X143353333Y-39740476D01*
X143258095Y-39788095D01*
X227221904Y-33752380D02*
X227221904Y-32752380D01*
X227460000Y-32752380D01*
X227602857Y-32800000D01*
X227698095Y-32895238D01*
X227745714Y-32990476D01*
X227793333Y-33180952D01*
X227793333Y-33323809D01*
X227745714Y-33514285D01*
X227698095Y-33609523D01*
X227602857Y-33704761D01*
X227460000Y-33752380D01*
X227221904Y-33752380D01*
X228174285Y-32847619D02*
X228221904Y-32800000D01*
X228317142Y-32752380D01*
X228555238Y-32752380D01*
X228650476Y-32800000D01*
X228698095Y-32847619D01*
X228745714Y-32942857D01*
X228745714Y-33038095D01*
X228698095Y-33180952D01*
X228126666Y-33752380D01*
X228745714Y-33752380D01*
X232778095Y-33432380D02*
X232778095Y-32432380D01*
X233349523Y-33432380D02*
X232920952Y-32860952D01*
X233349523Y-32432380D02*
X232778095Y-33003809D01*
X212887142Y-37502380D02*
X212553809Y-37026190D01*
X212315714Y-37502380D02*
X212315714Y-36502380D01*
X212696666Y-36502380D01*
X212791904Y-36550000D01*
X212839523Y-36597619D01*
X212887142Y-36692857D01*
X212887142Y-36835714D01*
X212839523Y-36930952D01*
X212791904Y-36978571D01*
X212696666Y-37026190D01*
X212315714Y-37026190D01*
X213268095Y-36597619D02*
X213315714Y-36550000D01*
X213410952Y-36502380D01*
X213649047Y-36502380D01*
X213744285Y-36550000D01*
X213791904Y-36597619D01*
X213839523Y-36692857D01*
X213839523Y-36788095D01*
X213791904Y-36930952D01*
X213220476Y-37502380D01*
X213839523Y-37502380D01*
X214172857Y-36502380D02*
X214839523Y-36502380D01*
X214410952Y-37502380D01*
X182117142Y-25932380D02*
X181783809Y-25456190D01*
X181545714Y-25932380D02*
X181545714Y-24932380D01*
X181926666Y-24932380D01*
X182021904Y-24980000D01*
X182069523Y-25027619D01*
X182117142Y-25122857D01*
X182117142Y-25265714D01*
X182069523Y-25360952D01*
X182021904Y-25408571D01*
X181926666Y-25456190D01*
X181545714Y-25456190D01*
X182498095Y-25027619D02*
X182545714Y-24980000D01*
X182640952Y-24932380D01*
X182879047Y-24932380D01*
X182974285Y-24980000D01*
X183021904Y-25027619D01*
X183069523Y-25122857D01*
X183069523Y-25218095D01*
X183021904Y-25360952D01*
X182450476Y-25932380D01*
X183069523Y-25932380D01*
X183926666Y-24932380D02*
X183736190Y-24932380D01*
X183640952Y-24980000D01*
X183593333Y-25027619D01*
X183498095Y-25170476D01*
X183450476Y-25360952D01*
X183450476Y-25741904D01*
X183498095Y-25837142D01*
X183545714Y-25884761D01*
X183640952Y-25932380D01*
X183831428Y-25932380D01*
X183926666Y-25884761D01*
X183974285Y-25837142D01*
X184021904Y-25741904D01*
X184021904Y-25503809D01*
X183974285Y-25408571D01*
X183926666Y-25360952D01*
X183831428Y-25313333D01*
X183640952Y-25313333D01*
X183545714Y-25360952D01*
X183498095Y-25408571D01*
X183450476Y-25503809D01*
X131322380Y-49647857D02*
X130846190Y-49981190D01*
X131322380Y-50219285D02*
X130322380Y-50219285D01*
X130322380Y-49838333D01*
X130370000Y-49743095D01*
X130417619Y-49695476D01*
X130512857Y-49647857D01*
X130655714Y-49647857D01*
X130750952Y-49695476D01*
X130798571Y-49743095D01*
X130846190Y-49838333D01*
X130846190Y-50219285D01*
X130417619Y-49266904D02*
X130370000Y-49219285D01*
X130322380Y-49124047D01*
X130322380Y-48885952D01*
X130370000Y-48790714D01*
X130417619Y-48743095D01*
X130512857Y-48695476D01*
X130608095Y-48695476D01*
X130750952Y-48743095D01*
X131322380Y-49314523D01*
X131322380Y-48695476D01*
X130322380Y-47790714D02*
X130322380Y-48266904D01*
X130798571Y-48314523D01*
X130750952Y-48266904D01*
X130703333Y-48171666D01*
X130703333Y-47933571D01*
X130750952Y-47838333D01*
X130798571Y-47790714D01*
X130893809Y-47743095D01*
X131131904Y-47743095D01*
X131227142Y-47790714D01*
X131274761Y-47838333D01*
X131322380Y-47933571D01*
X131322380Y-48171666D01*
X131274761Y-48266904D01*
X131227142Y-48314523D01*
X134052380Y-49687857D02*
X133576190Y-50021190D01*
X134052380Y-50259285D02*
X133052380Y-50259285D01*
X133052380Y-49878333D01*
X133100000Y-49783095D01*
X133147619Y-49735476D01*
X133242857Y-49687857D01*
X133385714Y-49687857D01*
X133480952Y-49735476D01*
X133528571Y-49783095D01*
X133576190Y-49878333D01*
X133576190Y-50259285D01*
X133147619Y-49306904D02*
X133100000Y-49259285D01*
X133052380Y-49164047D01*
X133052380Y-48925952D01*
X133100000Y-48830714D01*
X133147619Y-48783095D01*
X133242857Y-48735476D01*
X133338095Y-48735476D01*
X133480952Y-48783095D01*
X134052380Y-49354523D01*
X134052380Y-48735476D01*
X133385714Y-47878333D02*
X134052380Y-47878333D01*
X133004761Y-48116428D02*
X133719047Y-48354523D01*
X133719047Y-47735476D01*
X136722380Y-49712857D02*
X136246190Y-50046190D01*
X136722380Y-50284285D02*
X135722380Y-50284285D01*
X135722380Y-49903333D01*
X135770000Y-49808095D01*
X135817619Y-49760476D01*
X135912857Y-49712857D01*
X136055714Y-49712857D01*
X136150952Y-49760476D01*
X136198571Y-49808095D01*
X136246190Y-49903333D01*
X136246190Y-50284285D01*
X135817619Y-49331904D02*
X135770000Y-49284285D01*
X135722380Y-49189047D01*
X135722380Y-48950952D01*
X135770000Y-48855714D01*
X135817619Y-48808095D01*
X135912857Y-48760476D01*
X136008095Y-48760476D01*
X136150952Y-48808095D01*
X136722380Y-49379523D01*
X136722380Y-48760476D01*
X135722380Y-48427142D02*
X135722380Y-47808095D01*
X136103333Y-48141428D01*
X136103333Y-47998571D01*
X136150952Y-47903333D01*
X136198571Y-47855714D01*
X136293809Y-47808095D01*
X136531904Y-47808095D01*
X136627142Y-47855714D01*
X136674761Y-47903333D01*
X136722380Y-47998571D01*
X136722380Y-48284285D01*
X136674761Y-48379523D01*
X136627142Y-48427142D01*
X139582380Y-49777857D02*
X139106190Y-50111190D01*
X139582380Y-50349285D02*
X138582380Y-50349285D01*
X138582380Y-49968333D01*
X138630000Y-49873095D01*
X138677619Y-49825476D01*
X138772857Y-49777857D01*
X138915714Y-49777857D01*
X139010952Y-49825476D01*
X139058571Y-49873095D01*
X139106190Y-49968333D01*
X139106190Y-50349285D01*
X138677619Y-49396904D02*
X138630000Y-49349285D01*
X138582380Y-49254047D01*
X138582380Y-49015952D01*
X138630000Y-48920714D01*
X138677619Y-48873095D01*
X138772857Y-48825476D01*
X138868095Y-48825476D01*
X139010952Y-48873095D01*
X139582380Y-49444523D01*
X139582380Y-48825476D01*
X138677619Y-48444523D02*
X138630000Y-48396904D01*
X138582380Y-48301666D01*
X138582380Y-48063571D01*
X138630000Y-47968333D01*
X138677619Y-47920714D01*
X138772857Y-47873095D01*
X138868095Y-47873095D01*
X139010952Y-47920714D01*
X139582380Y-48492142D01*
X139582380Y-47873095D01*
X142312380Y-49807857D02*
X141836190Y-50141190D01*
X142312380Y-50379285D02*
X141312380Y-50379285D01*
X141312380Y-49998333D01*
X141360000Y-49903095D01*
X141407619Y-49855476D01*
X141502857Y-49807857D01*
X141645714Y-49807857D01*
X141740952Y-49855476D01*
X141788571Y-49903095D01*
X141836190Y-49998333D01*
X141836190Y-50379285D01*
X141407619Y-49426904D02*
X141360000Y-49379285D01*
X141312380Y-49284047D01*
X141312380Y-49045952D01*
X141360000Y-48950714D01*
X141407619Y-48903095D01*
X141502857Y-48855476D01*
X141598095Y-48855476D01*
X141740952Y-48903095D01*
X142312380Y-49474523D01*
X142312380Y-48855476D01*
X142312380Y-47903095D02*
X142312380Y-48474523D01*
X142312380Y-48188809D02*
X141312380Y-48188809D01*
X141455238Y-48284047D01*
X141550476Y-48379285D01*
X141598095Y-48474523D01*
X145102380Y-49897857D02*
X144626190Y-50231190D01*
X145102380Y-50469285D02*
X144102380Y-50469285D01*
X144102380Y-50088333D01*
X144150000Y-49993095D01*
X144197619Y-49945476D01*
X144292857Y-49897857D01*
X144435714Y-49897857D01*
X144530952Y-49945476D01*
X144578571Y-49993095D01*
X144626190Y-50088333D01*
X144626190Y-50469285D01*
X144197619Y-49516904D02*
X144150000Y-49469285D01*
X144102380Y-49374047D01*
X144102380Y-49135952D01*
X144150000Y-49040714D01*
X144197619Y-48993095D01*
X144292857Y-48945476D01*
X144388095Y-48945476D01*
X144530952Y-48993095D01*
X145102380Y-49564523D01*
X145102380Y-48945476D01*
X144102380Y-48326428D02*
X144102380Y-48231190D01*
X144150000Y-48135952D01*
X144197619Y-48088333D01*
X144292857Y-48040714D01*
X144483333Y-47993095D01*
X144721428Y-47993095D01*
X144911904Y-48040714D01*
X145007142Y-48088333D01*
X145054761Y-48135952D01*
X145102380Y-48231190D01*
X145102380Y-48326428D01*
X145054761Y-48421666D01*
X145007142Y-48469285D01*
X144911904Y-48516904D01*
X144721428Y-48564523D01*
X144483333Y-48564523D01*
X144292857Y-48516904D01*
X144197619Y-48469285D01*
X144150000Y-48421666D01*
X144102380Y-48326428D01*
X147972380Y-49887857D02*
X147496190Y-50221190D01*
X147972380Y-50459285D02*
X146972380Y-50459285D01*
X146972380Y-50078333D01*
X147020000Y-49983095D01*
X147067619Y-49935476D01*
X147162857Y-49887857D01*
X147305714Y-49887857D01*
X147400952Y-49935476D01*
X147448571Y-49983095D01*
X147496190Y-50078333D01*
X147496190Y-50459285D01*
X147972380Y-48935476D02*
X147972380Y-49506904D01*
X147972380Y-49221190D02*
X146972380Y-49221190D01*
X147115238Y-49316428D01*
X147210476Y-49411666D01*
X147258095Y-49506904D01*
X147972380Y-48459285D02*
X147972380Y-48268809D01*
X147924761Y-48173571D01*
X147877142Y-48125952D01*
X147734285Y-48030714D01*
X147543809Y-47983095D01*
X147162857Y-47983095D01*
X147067619Y-48030714D01*
X147020000Y-48078333D01*
X146972380Y-48173571D01*
X146972380Y-48364047D01*
X147020000Y-48459285D01*
X147067619Y-48506904D01*
X147162857Y-48554523D01*
X147400952Y-48554523D01*
X147496190Y-48506904D01*
X147543809Y-48459285D01*
X147591428Y-48364047D01*
X147591428Y-48173571D01*
X147543809Y-48078333D01*
X147496190Y-48030714D01*
X147400952Y-47983095D01*
X150762380Y-49837857D02*
X150286190Y-50171190D01*
X150762380Y-50409285D02*
X149762380Y-50409285D01*
X149762380Y-50028333D01*
X149810000Y-49933095D01*
X149857619Y-49885476D01*
X149952857Y-49837857D01*
X150095714Y-49837857D01*
X150190952Y-49885476D01*
X150238571Y-49933095D01*
X150286190Y-50028333D01*
X150286190Y-50409285D01*
X150762380Y-48885476D02*
X150762380Y-49456904D01*
X150762380Y-49171190D02*
X149762380Y-49171190D01*
X149905238Y-49266428D01*
X150000476Y-49361666D01*
X150048095Y-49456904D01*
X150190952Y-48314047D02*
X150143333Y-48409285D01*
X150095714Y-48456904D01*
X150000476Y-48504523D01*
X149952857Y-48504523D01*
X149857619Y-48456904D01*
X149810000Y-48409285D01*
X149762380Y-48314047D01*
X149762380Y-48123571D01*
X149810000Y-48028333D01*
X149857619Y-47980714D01*
X149952857Y-47933095D01*
X150000476Y-47933095D01*
X150095714Y-47980714D01*
X150143333Y-48028333D01*
X150190952Y-48123571D01*
X150190952Y-48314047D01*
X150238571Y-48409285D01*
X150286190Y-48456904D01*
X150381428Y-48504523D01*
X150571904Y-48504523D01*
X150667142Y-48456904D01*
X150714761Y-48409285D01*
X150762380Y-48314047D01*
X150762380Y-48123571D01*
X150714761Y-48028333D01*
X150667142Y-47980714D01*
X150571904Y-47933095D01*
X150381428Y-47933095D01*
X150286190Y-47980714D01*
X150238571Y-48028333D01*
X150190952Y-48123571D01*
X153542380Y-49822857D02*
X153066190Y-50156190D01*
X153542380Y-50394285D02*
X152542380Y-50394285D01*
X152542380Y-50013333D01*
X152590000Y-49918095D01*
X152637619Y-49870476D01*
X152732857Y-49822857D01*
X152875714Y-49822857D01*
X152970952Y-49870476D01*
X153018571Y-49918095D01*
X153066190Y-50013333D01*
X153066190Y-50394285D01*
X153542380Y-48870476D02*
X153542380Y-49441904D01*
X153542380Y-49156190D02*
X152542380Y-49156190D01*
X152685238Y-49251428D01*
X152780476Y-49346666D01*
X152828095Y-49441904D01*
X152542380Y-48537142D02*
X152542380Y-47870476D01*
X153542380Y-48299047D01*
X156222380Y-49812857D02*
X155746190Y-50146190D01*
X156222380Y-50384285D02*
X155222380Y-50384285D01*
X155222380Y-50003333D01*
X155270000Y-49908095D01*
X155317619Y-49860476D01*
X155412857Y-49812857D01*
X155555714Y-49812857D01*
X155650952Y-49860476D01*
X155698571Y-49908095D01*
X155746190Y-50003333D01*
X155746190Y-50384285D01*
X156222380Y-48860476D02*
X156222380Y-49431904D01*
X156222380Y-49146190D02*
X155222380Y-49146190D01*
X155365238Y-49241428D01*
X155460476Y-49336666D01*
X155508095Y-49431904D01*
X155222380Y-48003333D02*
X155222380Y-48193809D01*
X155270000Y-48289047D01*
X155317619Y-48336666D01*
X155460476Y-48431904D01*
X155650952Y-48479523D01*
X156031904Y-48479523D01*
X156127142Y-48431904D01*
X156174761Y-48384285D01*
X156222380Y-48289047D01*
X156222380Y-48098571D01*
X156174761Y-48003333D01*
X156127142Y-47955714D01*
X156031904Y-47908095D01*
X155793809Y-47908095D01*
X155698571Y-47955714D01*
X155650952Y-48003333D01*
X155603333Y-48098571D01*
X155603333Y-48289047D01*
X155650952Y-48384285D01*
X155698571Y-48431904D01*
X155793809Y-48479523D01*
X159132380Y-47662857D02*
X158656190Y-47996190D01*
X159132380Y-48234285D02*
X158132380Y-48234285D01*
X158132380Y-47853333D01*
X158180000Y-47758095D01*
X158227619Y-47710476D01*
X158322857Y-47662857D01*
X158465714Y-47662857D01*
X158560952Y-47710476D01*
X158608571Y-47758095D01*
X158656190Y-47853333D01*
X158656190Y-48234285D01*
X159132380Y-46710476D02*
X159132380Y-47281904D01*
X159132380Y-46996190D02*
X158132380Y-46996190D01*
X158275238Y-47091428D01*
X158370476Y-47186666D01*
X158418095Y-47281904D01*
X158132380Y-45805714D02*
X158132380Y-46281904D01*
X158608571Y-46329523D01*
X158560952Y-46281904D01*
X158513333Y-46186666D01*
X158513333Y-45948571D01*
X158560952Y-45853333D01*
X158608571Y-45805714D01*
X158703809Y-45758095D01*
X158941904Y-45758095D01*
X159037142Y-45805714D01*
X159084761Y-45853333D01*
X159132380Y-45948571D01*
X159132380Y-46186666D01*
X159084761Y-46281904D01*
X159037142Y-46329523D01*
X161862380Y-49777857D02*
X161386190Y-50111190D01*
X161862380Y-50349285D02*
X160862380Y-50349285D01*
X160862380Y-49968333D01*
X160910000Y-49873095D01*
X160957619Y-49825476D01*
X161052857Y-49777857D01*
X161195714Y-49777857D01*
X161290952Y-49825476D01*
X161338571Y-49873095D01*
X161386190Y-49968333D01*
X161386190Y-50349285D01*
X161862380Y-48825476D02*
X161862380Y-49396904D01*
X161862380Y-49111190D02*
X160862380Y-49111190D01*
X161005238Y-49206428D01*
X161100476Y-49301666D01*
X161148095Y-49396904D01*
X161195714Y-47968333D02*
X161862380Y-47968333D01*
X160814761Y-48206428D02*
X161529047Y-48444523D01*
X161529047Y-47825476D01*
X131382380Y-42892857D02*
X130906190Y-43226190D01*
X131382380Y-43464285D02*
X130382380Y-43464285D01*
X130382380Y-43083333D01*
X130430000Y-42988095D01*
X130477619Y-42940476D01*
X130572857Y-42892857D01*
X130715714Y-42892857D01*
X130810952Y-42940476D01*
X130858571Y-42988095D01*
X130906190Y-43083333D01*
X130906190Y-43464285D01*
X131382380Y-41940476D02*
X131382380Y-42511904D01*
X131382380Y-42226190D02*
X130382380Y-42226190D01*
X130525238Y-42321428D01*
X130620476Y-42416666D01*
X130668095Y-42511904D01*
X130382380Y-41607142D02*
X130382380Y-40988095D01*
X130763333Y-41321428D01*
X130763333Y-41178571D01*
X130810952Y-41083333D01*
X130858571Y-41035714D01*
X130953809Y-40988095D01*
X131191904Y-40988095D01*
X131287142Y-41035714D01*
X131334761Y-41083333D01*
X131382380Y-41178571D01*
X131382380Y-41464285D01*
X131334761Y-41559523D01*
X131287142Y-41607142D01*
X134112380Y-42872857D02*
X133636190Y-43206190D01*
X134112380Y-43444285D02*
X133112380Y-43444285D01*
X133112380Y-43063333D01*
X133160000Y-42968095D01*
X133207619Y-42920476D01*
X133302857Y-42872857D01*
X133445714Y-42872857D01*
X133540952Y-42920476D01*
X133588571Y-42968095D01*
X133636190Y-43063333D01*
X133636190Y-43444285D01*
X134112380Y-41920476D02*
X134112380Y-42491904D01*
X134112380Y-42206190D02*
X133112380Y-42206190D01*
X133255238Y-42301428D01*
X133350476Y-42396666D01*
X133398095Y-42491904D01*
X133207619Y-41539523D02*
X133160000Y-41491904D01*
X133112380Y-41396666D01*
X133112380Y-41158571D01*
X133160000Y-41063333D01*
X133207619Y-41015714D01*
X133302857Y-40968095D01*
X133398095Y-40968095D01*
X133540952Y-41015714D01*
X134112380Y-41587142D01*
X134112380Y-40968095D01*
X136882380Y-42852857D02*
X136406190Y-43186190D01*
X136882380Y-43424285D02*
X135882380Y-43424285D01*
X135882380Y-43043333D01*
X135930000Y-42948095D01*
X135977619Y-42900476D01*
X136072857Y-42852857D01*
X136215714Y-42852857D01*
X136310952Y-42900476D01*
X136358571Y-42948095D01*
X136406190Y-43043333D01*
X136406190Y-43424285D01*
X136882380Y-41900476D02*
X136882380Y-42471904D01*
X136882380Y-42186190D02*
X135882380Y-42186190D01*
X136025238Y-42281428D01*
X136120476Y-42376666D01*
X136168095Y-42471904D01*
X136882380Y-40948095D02*
X136882380Y-41519523D01*
X136882380Y-41233809D02*
X135882380Y-41233809D01*
X136025238Y-41329047D01*
X136120476Y-41424285D01*
X136168095Y-41519523D01*
X139672380Y-42832857D02*
X139196190Y-43166190D01*
X139672380Y-43404285D02*
X138672380Y-43404285D01*
X138672380Y-43023333D01*
X138720000Y-42928095D01*
X138767619Y-42880476D01*
X138862857Y-42832857D01*
X139005714Y-42832857D01*
X139100952Y-42880476D01*
X139148571Y-42928095D01*
X139196190Y-43023333D01*
X139196190Y-43404285D01*
X139672380Y-41880476D02*
X139672380Y-42451904D01*
X139672380Y-42166190D02*
X138672380Y-42166190D01*
X138815238Y-42261428D01*
X138910476Y-42356666D01*
X138958095Y-42451904D01*
X138672380Y-41261428D02*
X138672380Y-41166190D01*
X138720000Y-41070952D01*
X138767619Y-41023333D01*
X138862857Y-40975714D01*
X139053333Y-40928095D01*
X139291428Y-40928095D01*
X139481904Y-40975714D01*
X139577142Y-41023333D01*
X139624761Y-41070952D01*
X139672380Y-41166190D01*
X139672380Y-41261428D01*
X139624761Y-41356666D01*
X139577142Y-41404285D01*
X139481904Y-41451904D01*
X139291428Y-41499523D01*
X139053333Y-41499523D01*
X138862857Y-41451904D01*
X138767619Y-41404285D01*
X138720000Y-41356666D01*
X138672380Y-41261428D01*
X142402380Y-42356666D02*
X141926190Y-42690000D01*
X142402380Y-42928095D02*
X141402380Y-42928095D01*
X141402380Y-42547142D01*
X141450000Y-42451904D01*
X141497619Y-42404285D01*
X141592857Y-42356666D01*
X141735714Y-42356666D01*
X141830952Y-42404285D01*
X141878571Y-42451904D01*
X141926190Y-42547142D01*
X141926190Y-42928095D01*
X142402380Y-41880476D02*
X142402380Y-41690000D01*
X142354761Y-41594761D01*
X142307142Y-41547142D01*
X142164285Y-41451904D01*
X141973809Y-41404285D01*
X141592857Y-41404285D01*
X141497619Y-41451904D01*
X141450000Y-41499523D01*
X141402380Y-41594761D01*
X141402380Y-41785238D01*
X141450000Y-41880476D01*
X141497619Y-41928095D01*
X141592857Y-41975714D01*
X141830952Y-41975714D01*
X141926190Y-41928095D01*
X141973809Y-41880476D01*
X142021428Y-41785238D01*
X142021428Y-41594761D01*
X141973809Y-41499523D01*
X141926190Y-41451904D01*
X141830952Y-41404285D01*
X145132380Y-42326666D02*
X144656190Y-42660000D01*
X145132380Y-42898095D02*
X144132380Y-42898095D01*
X144132380Y-42517142D01*
X144180000Y-42421904D01*
X144227619Y-42374285D01*
X144322857Y-42326666D01*
X144465714Y-42326666D01*
X144560952Y-42374285D01*
X144608571Y-42421904D01*
X144656190Y-42517142D01*
X144656190Y-42898095D01*
X144560952Y-41755238D02*
X144513333Y-41850476D01*
X144465714Y-41898095D01*
X144370476Y-41945714D01*
X144322857Y-41945714D01*
X144227619Y-41898095D01*
X144180000Y-41850476D01*
X144132380Y-41755238D01*
X144132380Y-41564761D01*
X144180000Y-41469523D01*
X144227619Y-41421904D01*
X144322857Y-41374285D01*
X144370476Y-41374285D01*
X144465714Y-41421904D01*
X144513333Y-41469523D01*
X144560952Y-41564761D01*
X144560952Y-41755238D01*
X144608571Y-41850476D01*
X144656190Y-41898095D01*
X144751428Y-41945714D01*
X144941904Y-41945714D01*
X145037142Y-41898095D01*
X145084761Y-41850476D01*
X145132380Y-41755238D01*
X145132380Y-41564761D01*
X145084761Y-41469523D01*
X145037142Y-41421904D01*
X144941904Y-41374285D01*
X144751428Y-41374285D01*
X144656190Y-41421904D01*
X144608571Y-41469523D01*
X144560952Y-41564761D01*
X148042380Y-42286666D02*
X147566190Y-42620000D01*
X148042380Y-42858095D02*
X147042380Y-42858095D01*
X147042380Y-42477142D01*
X147090000Y-42381904D01*
X147137619Y-42334285D01*
X147232857Y-42286666D01*
X147375714Y-42286666D01*
X147470952Y-42334285D01*
X147518571Y-42381904D01*
X147566190Y-42477142D01*
X147566190Y-42858095D01*
X147042380Y-41953333D02*
X147042380Y-41286666D01*
X148042380Y-41715238D01*
X150912380Y-42366666D02*
X150436190Y-42700000D01*
X150912380Y-42938095D02*
X149912380Y-42938095D01*
X149912380Y-42557142D01*
X149960000Y-42461904D01*
X150007619Y-42414285D01*
X150102857Y-42366666D01*
X150245714Y-42366666D01*
X150340952Y-42414285D01*
X150388571Y-42461904D01*
X150436190Y-42557142D01*
X150436190Y-42938095D01*
X149912380Y-41509523D02*
X149912380Y-41700000D01*
X149960000Y-41795238D01*
X150007619Y-41842857D01*
X150150476Y-41938095D01*
X150340952Y-41985714D01*
X150721904Y-41985714D01*
X150817142Y-41938095D01*
X150864761Y-41890476D01*
X150912380Y-41795238D01*
X150912380Y-41604761D01*
X150864761Y-41509523D01*
X150817142Y-41461904D01*
X150721904Y-41414285D01*
X150483809Y-41414285D01*
X150388571Y-41461904D01*
X150340952Y-41509523D01*
X150293333Y-41604761D01*
X150293333Y-41795238D01*
X150340952Y-41890476D01*
X150388571Y-41938095D01*
X150483809Y-41985714D01*
X153642380Y-42366666D02*
X153166190Y-42700000D01*
X153642380Y-42938095D02*
X152642380Y-42938095D01*
X152642380Y-42557142D01*
X152690000Y-42461904D01*
X152737619Y-42414285D01*
X152832857Y-42366666D01*
X152975714Y-42366666D01*
X153070952Y-42414285D01*
X153118571Y-42461904D01*
X153166190Y-42557142D01*
X153166190Y-42938095D01*
X152642380Y-41461904D02*
X152642380Y-41938095D01*
X153118571Y-41985714D01*
X153070952Y-41938095D01*
X153023333Y-41842857D01*
X153023333Y-41604761D01*
X153070952Y-41509523D01*
X153118571Y-41461904D01*
X153213809Y-41414285D01*
X153451904Y-41414285D01*
X153547142Y-41461904D01*
X153594761Y-41509523D01*
X153642380Y-41604761D01*
X153642380Y-41842857D01*
X153594761Y-41938095D01*
X153547142Y-41985714D01*
X156282380Y-42396666D02*
X155806190Y-42730000D01*
X156282380Y-42968095D02*
X155282380Y-42968095D01*
X155282380Y-42587142D01*
X155330000Y-42491904D01*
X155377619Y-42444285D01*
X155472857Y-42396666D01*
X155615714Y-42396666D01*
X155710952Y-42444285D01*
X155758571Y-42491904D01*
X155806190Y-42587142D01*
X155806190Y-42968095D01*
X155615714Y-41539523D02*
X156282380Y-41539523D01*
X155234761Y-41777619D02*
X155949047Y-42015714D01*
X155949047Y-41396666D01*
X159122380Y-42306666D02*
X158646190Y-42640000D01*
X159122380Y-42878095D02*
X158122380Y-42878095D01*
X158122380Y-42497142D01*
X158170000Y-42401904D01*
X158217619Y-42354285D01*
X158312857Y-42306666D01*
X158455714Y-42306666D01*
X158550952Y-42354285D01*
X158598571Y-42401904D01*
X158646190Y-42497142D01*
X158646190Y-42878095D01*
X158122380Y-41973333D02*
X158122380Y-41354285D01*
X158503333Y-41687619D01*
X158503333Y-41544761D01*
X158550952Y-41449523D01*
X158598571Y-41401904D01*
X158693809Y-41354285D01*
X158931904Y-41354285D01*
X159027142Y-41401904D01*
X159074761Y-41449523D01*
X159122380Y-41544761D01*
X159122380Y-41830476D01*
X159074761Y-41925714D01*
X159027142Y-41973333D01*
X161912380Y-42356666D02*
X161436190Y-42690000D01*
X161912380Y-42928095D02*
X160912380Y-42928095D01*
X160912380Y-42547142D01*
X160960000Y-42451904D01*
X161007619Y-42404285D01*
X161102857Y-42356666D01*
X161245714Y-42356666D01*
X161340952Y-42404285D01*
X161388571Y-42451904D01*
X161436190Y-42547142D01*
X161436190Y-42928095D01*
X161007619Y-41975714D02*
X160960000Y-41928095D01*
X160912380Y-41832857D01*
X160912380Y-41594761D01*
X160960000Y-41499523D01*
X161007619Y-41451904D01*
X161102857Y-41404285D01*
X161198095Y-41404285D01*
X161340952Y-41451904D01*
X161912380Y-42023333D01*
X161912380Y-41404285D01*
X92092380Y-48576666D02*
X91616190Y-48910000D01*
X92092380Y-49148095D02*
X91092380Y-49148095D01*
X91092380Y-48767142D01*
X91140000Y-48671904D01*
X91187619Y-48624285D01*
X91282857Y-48576666D01*
X91425714Y-48576666D01*
X91520952Y-48624285D01*
X91568571Y-48671904D01*
X91616190Y-48767142D01*
X91616190Y-49148095D01*
X92092380Y-47624285D02*
X92092380Y-48195714D01*
X92092380Y-47910000D02*
X91092380Y-47910000D01*
X91235238Y-48005238D01*
X91330476Y-48100476D01*
X91378095Y-48195714D01*
X218094761Y-34757619D02*
X217999523Y-34710000D01*
X217904285Y-34614761D01*
X217761428Y-34471904D01*
X217666190Y-34424285D01*
X217570952Y-34424285D01*
X217618571Y-34662380D02*
X217523333Y-34614761D01*
X217428095Y-34519523D01*
X217380476Y-34329047D01*
X217380476Y-33995714D01*
X217428095Y-33805238D01*
X217523333Y-33710000D01*
X217618571Y-33662380D01*
X217809047Y-33662380D01*
X217904285Y-33710000D01*
X217999523Y-33805238D01*
X218047142Y-33995714D01*
X218047142Y-34329047D01*
X217999523Y-34519523D01*
X217904285Y-34614761D01*
X217809047Y-34662380D01*
X217618571Y-34662380D01*
X218999523Y-34662380D02*
X218428095Y-34662380D01*
X218713809Y-34662380D02*
X218713809Y-33662380D01*
X218618571Y-33805238D01*
X218523333Y-33900476D01*
X218428095Y-33948095D01*
X235812380Y-13998095D02*
X234812380Y-13998095D01*
X235812380Y-13426666D02*
X235240952Y-13855238D01*
X234812380Y-13426666D02*
X235383809Y-13998095D01*
X235812380Y-12474285D02*
X235812380Y-13045714D01*
X235812380Y-12760000D02*
X234812380Y-12760000D01*
X234955238Y-12855238D01*
X235050476Y-12950476D01*
X235098095Y-13045714D01*
X206174285Y-125162380D02*
X206174285Y-125876666D01*
X206126666Y-126019523D01*
X206031428Y-126114761D01*
X205888571Y-126162380D01*
X205793333Y-126162380D01*
X206602857Y-125257619D02*
X206650476Y-125210000D01*
X206745714Y-125162380D01*
X206983809Y-125162380D01*
X207079047Y-125210000D01*
X207126666Y-125257619D01*
X207174285Y-125352857D01*
X207174285Y-125448095D01*
X207126666Y-125590952D01*
X206555238Y-126162380D01*
X207174285Y-126162380D01*
X208031428Y-125162380D02*
X207840952Y-125162380D01*
X207745714Y-125210000D01*
X207698095Y-125257619D01*
X207602857Y-125400476D01*
X207555238Y-125590952D01*
X207555238Y-125971904D01*
X207602857Y-126067142D01*
X207650476Y-126114761D01*
X207745714Y-126162380D01*
X207936190Y-126162380D01*
X208031428Y-126114761D01*
X208079047Y-126067142D01*
X208126666Y-125971904D01*
X208126666Y-125733809D01*
X208079047Y-125638571D01*
X208031428Y-125590952D01*
X207936190Y-125543333D01*
X207745714Y-125543333D01*
X207650476Y-125590952D01*
X207602857Y-125638571D01*
X207555238Y-125733809D01*
X208555238Y-125781428D02*
X209317142Y-125781428D01*
X209650476Y-125162380D02*
X210221904Y-125162380D01*
X209936190Y-126162380D02*
X209936190Y-125162380D01*
X210555238Y-126162380D02*
X210555238Y-125162380D01*
X210936190Y-125162380D01*
X211031428Y-125210000D01*
X211079047Y-125257619D01*
X211126666Y-125352857D01*
X211126666Y-125495714D01*
X211079047Y-125590952D01*
X211031428Y-125638571D01*
X210936190Y-125686190D01*
X210555238Y-125686190D01*
X212031428Y-125162380D02*
X211555238Y-125162380D01*
X211507619Y-125638571D01*
X211555238Y-125590952D01*
X211650476Y-125543333D01*
X211888571Y-125543333D01*
X211983809Y-125590952D01*
X212031428Y-125638571D01*
X212079047Y-125733809D01*
X212079047Y-125971904D01*
X212031428Y-126067142D01*
X211983809Y-126114761D01*
X211888571Y-126162380D01*
X211650476Y-126162380D01*
X211555238Y-126114761D01*
X211507619Y-126067142D01*
X174826666Y-20642380D02*
X174826666Y-21356666D01*
X174779047Y-21499523D01*
X174683809Y-21594761D01*
X174540952Y-21642380D01*
X174445714Y-21642380D01*
X175779047Y-20642380D02*
X175302857Y-20642380D01*
X175255238Y-21118571D01*
X175302857Y-21070952D01*
X175398095Y-21023333D01*
X175636190Y-21023333D01*
X175731428Y-21070952D01*
X175779047Y-21118571D01*
X175826666Y-21213809D01*
X175826666Y-21451904D01*
X175779047Y-21547142D01*
X175731428Y-21594761D01*
X175636190Y-21642380D01*
X175398095Y-21642380D01*
X175302857Y-21594761D01*
X175255238Y-21547142D01*
X176211904Y-47572380D02*
X176211904Y-46572380D01*
X176450000Y-46572380D01*
X176592857Y-46620000D01*
X176688095Y-46715238D01*
X176735714Y-46810476D01*
X176783333Y-47000952D01*
X176783333Y-47143809D01*
X176735714Y-47334285D01*
X176688095Y-47429523D01*
X176592857Y-47524761D01*
X176450000Y-47572380D01*
X176211904Y-47572380D01*
X177735714Y-47572380D02*
X177164285Y-47572380D01*
X177450000Y-47572380D02*
X177450000Y-46572380D01*
X177354761Y-46715238D01*
X177259523Y-46810476D01*
X177164285Y-46858095D01*
X181768095Y-47202380D02*
X181768095Y-46202380D01*
X182339523Y-47202380D02*
X181910952Y-46630952D01*
X182339523Y-46202380D02*
X181768095Y-46773809D01*
X175997142Y-42206666D02*
X176044761Y-42254285D01*
X176092380Y-42397142D01*
X176092380Y-42492380D01*
X176044761Y-42635238D01*
X175949523Y-42730476D01*
X175854285Y-42778095D01*
X175663809Y-42825714D01*
X175520952Y-42825714D01*
X175330476Y-42778095D01*
X175235238Y-42730476D01*
X175140000Y-42635238D01*
X175092380Y-42492380D01*
X175092380Y-42397142D01*
X175140000Y-42254285D01*
X175187619Y-42206666D01*
X175092380Y-41873333D02*
X175092380Y-41254285D01*
X175473333Y-41587619D01*
X175473333Y-41444761D01*
X175520952Y-41349523D01*
X175568571Y-41301904D01*
X175663809Y-41254285D01*
X175901904Y-41254285D01*
X175997142Y-41301904D01*
X176044761Y-41349523D01*
X176092380Y-41444761D01*
X176092380Y-41730476D01*
X176044761Y-41825714D01*
X175997142Y-41873333D01*
X177957142Y-42066666D02*
X178004761Y-42114285D01*
X178052380Y-42257142D01*
X178052380Y-42352380D01*
X178004761Y-42495238D01*
X177909523Y-42590476D01*
X177814285Y-42638095D01*
X177623809Y-42685714D01*
X177480952Y-42685714D01*
X177290476Y-42638095D01*
X177195238Y-42590476D01*
X177100000Y-42495238D01*
X177052380Y-42352380D01*
X177052380Y-42257142D01*
X177100000Y-42114285D01*
X177147619Y-42066666D01*
X177147619Y-41685714D02*
X177100000Y-41638095D01*
X177052380Y-41542857D01*
X177052380Y-41304761D01*
X177100000Y-41209523D01*
X177147619Y-41161904D01*
X177242857Y-41114285D01*
X177338095Y-41114285D01*
X177480952Y-41161904D01*
X178052380Y-41733333D01*
X178052380Y-41114285D01*
X173837142Y-42166666D02*
X173884761Y-42214285D01*
X173932380Y-42357142D01*
X173932380Y-42452380D01*
X173884761Y-42595238D01*
X173789523Y-42690476D01*
X173694285Y-42738095D01*
X173503809Y-42785714D01*
X173360952Y-42785714D01*
X173170476Y-42738095D01*
X173075238Y-42690476D01*
X172980000Y-42595238D01*
X172932380Y-42452380D01*
X172932380Y-42357142D01*
X172980000Y-42214285D01*
X173027619Y-42166666D01*
X173932380Y-41214285D02*
X173932380Y-41785714D01*
X173932380Y-41500000D02*
X172932380Y-41500000D01*
X173075238Y-41595238D01*
X173170476Y-41690476D01*
X173218095Y-41785714D01*
X155974285Y-115922380D02*
X155974285Y-116636666D01*
X155926666Y-116779523D01*
X155831428Y-116874761D01*
X155688571Y-116922380D01*
X155593333Y-116922380D01*
X156498095Y-116922380D02*
X156688571Y-116922380D01*
X156783809Y-116874761D01*
X156831428Y-116827142D01*
X156926666Y-116684285D01*
X156974285Y-116493809D01*
X156974285Y-116112857D01*
X156926666Y-116017619D01*
X156879047Y-115970000D01*
X156783809Y-115922380D01*
X156593333Y-115922380D01*
X156498095Y-115970000D01*
X156450476Y-116017619D01*
X156402857Y-116112857D01*
X156402857Y-116350952D01*
X156450476Y-116446190D01*
X156498095Y-116493809D01*
X156593333Y-116541428D01*
X156783809Y-116541428D01*
X156879047Y-116493809D01*
X156926666Y-116446190D01*
X156974285Y-116350952D01*
X157402857Y-116541428D02*
X158164761Y-116541428D01*
X158498095Y-115922380D02*
X159069523Y-115922380D01*
X158783809Y-116922380D02*
X158783809Y-115922380D01*
X159402857Y-116922380D02*
X159402857Y-115922380D01*
X159783809Y-115922380D01*
X159879047Y-115970000D01*
X159926666Y-116017619D01*
X159974285Y-116112857D01*
X159974285Y-116255714D01*
X159926666Y-116350952D01*
X159879047Y-116398571D01*
X159783809Y-116446190D01*
X159402857Y-116446190D01*
X160926666Y-116922380D02*
X160355238Y-116922380D01*
X160640952Y-116922380D02*
X160640952Y-115922380D01*
X160545714Y-116065238D01*
X160450476Y-116160476D01*
X160355238Y-116208095D01*
X161402857Y-116922380D02*
X161593333Y-116922380D01*
X161688571Y-116874761D01*
X161736190Y-116827142D01*
X161831428Y-116684285D01*
X161879047Y-116493809D01*
X161879047Y-116112857D01*
X161831428Y-116017619D01*
X161783809Y-115970000D01*
X161688571Y-115922380D01*
X161498095Y-115922380D01*
X161402857Y-115970000D01*
X161355238Y-116017619D01*
X161307619Y-116112857D01*
X161307619Y-116350952D01*
X161355238Y-116446190D01*
X161402857Y-116493809D01*
X161498095Y-116541428D01*
X161688571Y-116541428D01*
X161783809Y-116493809D01*
X161831428Y-116446190D01*
X161879047Y-116350952D01*
X139544285Y-102352380D02*
X139544285Y-103066666D01*
X139496666Y-103209523D01*
X139401428Y-103304761D01*
X139258571Y-103352380D01*
X139163333Y-103352380D01*
X140163333Y-102780952D02*
X140068095Y-102733333D01*
X140020476Y-102685714D01*
X139972857Y-102590476D01*
X139972857Y-102542857D01*
X140020476Y-102447619D01*
X140068095Y-102400000D01*
X140163333Y-102352380D01*
X140353809Y-102352380D01*
X140449047Y-102400000D01*
X140496666Y-102447619D01*
X140544285Y-102542857D01*
X140544285Y-102590476D01*
X140496666Y-102685714D01*
X140449047Y-102733333D01*
X140353809Y-102780952D01*
X140163333Y-102780952D01*
X140068095Y-102828571D01*
X140020476Y-102876190D01*
X139972857Y-102971428D01*
X139972857Y-103161904D01*
X140020476Y-103257142D01*
X140068095Y-103304761D01*
X140163333Y-103352380D01*
X140353809Y-103352380D01*
X140449047Y-103304761D01*
X140496666Y-103257142D01*
X140544285Y-103161904D01*
X140544285Y-102971428D01*
X140496666Y-102876190D01*
X140449047Y-102828571D01*
X140353809Y-102780952D01*
X140972857Y-102971428D02*
X141734761Y-102971428D01*
X142068095Y-102352380D02*
X142639523Y-102352380D01*
X142353809Y-103352380D02*
X142353809Y-102352380D01*
X142972857Y-103352380D02*
X142972857Y-102352380D01*
X143353809Y-102352380D01*
X143449047Y-102400000D01*
X143496666Y-102447619D01*
X143544285Y-102542857D01*
X143544285Y-102685714D01*
X143496666Y-102780952D01*
X143449047Y-102828571D01*
X143353809Y-102876190D01*
X142972857Y-102876190D01*
X144496666Y-103352380D02*
X143925238Y-103352380D01*
X144210952Y-103352380D02*
X144210952Y-102352380D01*
X144115714Y-102495238D01*
X144020476Y-102590476D01*
X143925238Y-102638095D01*
X144830000Y-102352380D02*
X145449047Y-102352380D01*
X145115714Y-102733333D01*
X145258571Y-102733333D01*
X145353809Y-102780952D01*
X145401428Y-102828571D01*
X145449047Y-102923809D01*
X145449047Y-103161904D01*
X145401428Y-103257142D01*
X145353809Y-103304761D01*
X145258571Y-103352380D01*
X144972857Y-103352380D01*
X144877619Y-103304761D01*
X144830000Y-103257142D01*
X178534285Y-146942380D02*
X178534285Y-147656666D01*
X178486666Y-147799523D01*
X178391428Y-147894761D01*
X178248571Y-147942380D01*
X178153333Y-147942380D01*
X178915238Y-146942380D02*
X179581904Y-146942380D01*
X179153333Y-147942380D01*
X179962857Y-147561428D02*
X180724761Y-147561428D01*
X181058095Y-146942380D02*
X181629523Y-146942380D01*
X181343809Y-147942380D02*
X181343809Y-146942380D01*
X181962857Y-147942380D02*
X181962857Y-146942380D01*
X182343809Y-146942380D01*
X182439047Y-146990000D01*
X182486666Y-147037619D01*
X182534285Y-147132857D01*
X182534285Y-147275714D01*
X182486666Y-147370952D01*
X182439047Y-147418571D01*
X182343809Y-147466190D01*
X181962857Y-147466190D01*
X182915238Y-147037619D02*
X182962857Y-146990000D01*
X183058095Y-146942380D01*
X183296190Y-146942380D01*
X183391428Y-146990000D01*
X183439047Y-147037619D01*
X183486666Y-147132857D01*
X183486666Y-147228095D01*
X183439047Y-147370952D01*
X182867619Y-147942380D01*
X183486666Y-147942380D01*
X183820000Y-146942380D02*
X184486666Y-146942380D01*
X184058095Y-147942380D01*
X191964285Y-116712380D02*
X191964285Y-117426666D01*
X191916666Y-117569523D01*
X191821428Y-117664761D01*
X191678571Y-117712380D01*
X191583333Y-117712380D01*
X192869047Y-116712380D02*
X192678571Y-116712380D01*
X192583333Y-116760000D01*
X192535714Y-116807619D01*
X192440476Y-116950476D01*
X192392857Y-117140952D01*
X192392857Y-117521904D01*
X192440476Y-117617142D01*
X192488095Y-117664761D01*
X192583333Y-117712380D01*
X192773809Y-117712380D01*
X192869047Y-117664761D01*
X192916666Y-117617142D01*
X192964285Y-117521904D01*
X192964285Y-117283809D01*
X192916666Y-117188571D01*
X192869047Y-117140952D01*
X192773809Y-117093333D01*
X192583333Y-117093333D01*
X192488095Y-117140952D01*
X192440476Y-117188571D01*
X192392857Y-117283809D01*
X193392857Y-117331428D02*
X194154761Y-117331428D01*
X194488095Y-116712380D02*
X195059523Y-116712380D01*
X194773809Y-117712380D02*
X194773809Y-116712380D01*
X195392857Y-117712380D02*
X195392857Y-116712380D01*
X195773809Y-116712380D01*
X195869047Y-116760000D01*
X195916666Y-116807619D01*
X195964285Y-116902857D01*
X195964285Y-117045714D01*
X195916666Y-117140952D01*
X195869047Y-117188571D01*
X195773809Y-117236190D01*
X195392857Y-117236190D01*
X196345238Y-116807619D02*
X196392857Y-116760000D01*
X196488095Y-116712380D01*
X196726190Y-116712380D01*
X196821428Y-116760000D01*
X196869047Y-116807619D01*
X196916666Y-116902857D01*
X196916666Y-116998095D01*
X196869047Y-117140952D01*
X196297619Y-117712380D01*
X196916666Y-117712380D01*
X197869047Y-117712380D02*
X197297619Y-117712380D01*
X197583333Y-117712380D02*
X197583333Y-116712380D01*
X197488095Y-116855238D01*
X197392857Y-116950476D01*
X197297619Y-116998095D01*
X131642380Y-18335952D02*
X132356666Y-18335952D01*
X132499523Y-18383571D01*
X132594761Y-18478809D01*
X132642380Y-18621666D01*
X132642380Y-18716904D01*
X131642380Y-17383571D02*
X131642380Y-17859761D01*
X132118571Y-17907380D01*
X132070952Y-17859761D01*
X132023333Y-17764523D01*
X132023333Y-17526428D01*
X132070952Y-17431190D01*
X132118571Y-17383571D01*
X132213809Y-17335952D01*
X132451904Y-17335952D01*
X132547142Y-17383571D01*
X132594761Y-17431190D01*
X132642380Y-17526428D01*
X132642380Y-17764523D01*
X132594761Y-17859761D01*
X132547142Y-17907380D01*
X132261428Y-16907380D02*
X132261428Y-16145476D01*
X131275000Y-15907380D02*
X131275000Y-15002619D01*
X132118571Y-15669285D02*
X132118571Y-15335952D01*
X132642380Y-15193095D02*
X132642380Y-15669285D01*
X131642380Y-15669285D01*
X131642380Y-15193095D01*
X131275000Y-15002619D02*
X131275000Y-14050238D01*
X132642380Y-14240714D02*
X132642380Y-14812142D01*
X132642380Y-14526428D02*
X131642380Y-14526428D01*
X131785238Y-14621666D01*
X131880476Y-14716904D01*
X131928095Y-14812142D01*
X120780476Y-121182380D02*
X120780476Y-121896666D01*
X120732857Y-122039523D01*
X120637619Y-122134761D01*
X120494761Y-122182380D01*
X120399523Y-122182380D01*
X121732857Y-121182380D02*
X121256666Y-121182380D01*
X121209047Y-121658571D01*
X121256666Y-121610952D01*
X121351904Y-121563333D01*
X121590000Y-121563333D01*
X121685238Y-121610952D01*
X121732857Y-121658571D01*
X121780476Y-121753809D01*
X121780476Y-121991904D01*
X121732857Y-122087142D01*
X121685238Y-122134761D01*
X121590000Y-122182380D01*
X121351904Y-122182380D01*
X121256666Y-122134761D01*
X121209047Y-122087142D01*
X122209047Y-121801428D02*
X122970952Y-121801428D01*
X123304285Y-121182380D02*
X123875714Y-121182380D01*
X123590000Y-122182380D02*
X123590000Y-121182380D01*
X124209047Y-122182380D02*
X124209047Y-121182380D01*
X124590000Y-121182380D01*
X124685238Y-121230000D01*
X124732857Y-121277619D01*
X124780476Y-121372857D01*
X124780476Y-121515714D01*
X124732857Y-121610952D01*
X124685238Y-121658571D01*
X124590000Y-121706190D01*
X124209047Y-121706190D01*
X125351904Y-121610952D02*
X125256666Y-121563333D01*
X125209047Y-121515714D01*
X125161428Y-121420476D01*
X125161428Y-121372857D01*
X125209047Y-121277619D01*
X125256666Y-121230000D01*
X125351904Y-121182380D01*
X125542380Y-121182380D01*
X125637619Y-121230000D01*
X125685238Y-121277619D01*
X125732857Y-121372857D01*
X125732857Y-121420476D01*
X125685238Y-121515714D01*
X125637619Y-121563333D01*
X125542380Y-121610952D01*
X125351904Y-121610952D01*
X125256666Y-121658571D01*
X125209047Y-121706190D01*
X125161428Y-121801428D01*
X125161428Y-121991904D01*
X125209047Y-122087142D01*
X125256666Y-122134761D01*
X125351904Y-122182380D01*
X125542380Y-122182380D01*
X125637619Y-122134761D01*
X125685238Y-122087142D01*
X125732857Y-121991904D01*
X125732857Y-121801428D01*
X125685238Y-121706190D01*
X125637619Y-121658571D01*
X125542380Y-121610952D01*
X137254285Y-76512380D02*
X137254285Y-77226666D01*
X137206666Y-77369523D01*
X137111428Y-77464761D01*
X136968571Y-77512380D01*
X136873333Y-77512380D01*
X138159047Y-76845714D02*
X138159047Y-77512380D01*
X137920952Y-76464761D02*
X137682857Y-77179047D01*
X138301904Y-77179047D01*
X138682857Y-77131428D02*
X139444761Y-77131428D01*
X139778095Y-76512380D02*
X140349523Y-76512380D01*
X140063809Y-77512380D02*
X140063809Y-76512380D01*
X140682857Y-77512380D02*
X140682857Y-76512380D01*
X141063809Y-76512380D01*
X141159047Y-76560000D01*
X141206666Y-76607619D01*
X141254285Y-76702857D01*
X141254285Y-76845714D01*
X141206666Y-76940952D01*
X141159047Y-76988571D01*
X141063809Y-77036190D01*
X140682857Y-77036190D01*
X142206666Y-77512380D02*
X141635238Y-77512380D01*
X141920952Y-77512380D02*
X141920952Y-76512380D01*
X141825714Y-76655238D01*
X141730476Y-76750476D01*
X141635238Y-76798095D01*
X143063809Y-76512380D02*
X142873333Y-76512380D01*
X142778095Y-76560000D01*
X142730476Y-76607619D01*
X142635238Y-76750476D01*
X142587619Y-76940952D01*
X142587619Y-77321904D01*
X142635238Y-77417142D01*
X142682857Y-77464761D01*
X142778095Y-77512380D01*
X142968571Y-77512380D01*
X143063809Y-77464761D01*
X143111428Y-77417142D01*
X143159047Y-77321904D01*
X143159047Y-77083809D01*
X143111428Y-76988571D01*
X143063809Y-76940952D01*
X142968571Y-76893333D01*
X142778095Y-76893333D01*
X142682857Y-76940952D01*
X142635238Y-76988571D01*
X142587619Y-77083809D01*
X204118095Y-99372380D02*
X204118095Y-100086666D01*
X204070476Y-100229523D01*
X203975238Y-100324761D01*
X203832380Y-100372380D01*
X203737142Y-100372380D01*
X204546666Y-99467619D02*
X204594285Y-99420000D01*
X204689523Y-99372380D01*
X204927619Y-99372380D01*
X205022857Y-99420000D01*
X205070476Y-99467619D01*
X205118095Y-99562857D01*
X205118095Y-99658095D01*
X205070476Y-99800952D01*
X204499047Y-100372380D01*
X205118095Y-100372380D01*
X205451428Y-99372380D02*
X206118095Y-99372380D01*
X205689523Y-100372380D01*
X206499047Y-99991428D02*
X207260952Y-99991428D01*
X207594285Y-99372380D02*
X208165714Y-99372380D01*
X207880000Y-100372380D02*
X207880000Y-99372380D01*
X208499047Y-100372380D02*
X208499047Y-99372380D01*
X208880000Y-99372380D01*
X208975238Y-99420000D01*
X209022857Y-99467619D01*
X209070476Y-99562857D01*
X209070476Y-99705714D01*
X209022857Y-99800952D01*
X208975238Y-99848571D01*
X208880000Y-99896190D01*
X208499047Y-99896190D01*
X209451428Y-99467619D02*
X209499047Y-99420000D01*
X209594285Y-99372380D01*
X209832380Y-99372380D01*
X209927619Y-99420000D01*
X209975238Y-99467619D01*
X210022857Y-99562857D01*
X210022857Y-99658095D01*
X209975238Y-99800952D01*
X209403809Y-100372380D01*
X210022857Y-100372380D01*
X210880000Y-99372380D02*
X210689523Y-99372380D01*
X210594285Y-99420000D01*
X210546666Y-99467619D01*
X210451428Y-99610476D01*
X210403809Y-99800952D01*
X210403809Y-100181904D01*
X210451428Y-100277142D01*
X210499047Y-100324761D01*
X210594285Y-100372380D01*
X210784761Y-100372380D01*
X210880000Y-100324761D01*
X210927619Y-100277142D01*
X210975238Y-100181904D01*
X210975238Y-99943809D01*
X210927619Y-99848571D01*
X210880000Y-99800952D01*
X210784761Y-99753333D01*
X210594285Y-99753333D01*
X210499047Y-99800952D01*
X210451428Y-99848571D01*
X210403809Y-99943809D01*
X183568095Y-106562380D02*
X183568095Y-107276666D01*
X183520476Y-107419523D01*
X183425238Y-107514761D01*
X183282380Y-107562380D01*
X183187142Y-107562380D01*
X183996666Y-106657619D02*
X184044285Y-106610000D01*
X184139523Y-106562380D01*
X184377619Y-106562380D01*
X184472857Y-106610000D01*
X184520476Y-106657619D01*
X184568095Y-106752857D01*
X184568095Y-106848095D01*
X184520476Y-106990952D01*
X183949047Y-107562380D01*
X184568095Y-107562380D01*
X185472857Y-106562380D02*
X184996666Y-106562380D01*
X184949047Y-107038571D01*
X184996666Y-106990952D01*
X185091904Y-106943333D01*
X185330000Y-106943333D01*
X185425238Y-106990952D01*
X185472857Y-107038571D01*
X185520476Y-107133809D01*
X185520476Y-107371904D01*
X185472857Y-107467142D01*
X185425238Y-107514761D01*
X185330000Y-107562380D01*
X185091904Y-107562380D01*
X184996666Y-107514761D01*
X184949047Y-107467142D01*
X185949047Y-107181428D02*
X186710952Y-107181428D01*
X187044285Y-106562380D02*
X187615714Y-106562380D01*
X187330000Y-107562380D02*
X187330000Y-106562380D01*
X187949047Y-107562380D02*
X187949047Y-106562380D01*
X188330000Y-106562380D01*
X188425238Y-106610000D01*
X188472857Y-106657619D01*
X188520476Y-106752857D01*
X188520476Y-106895714D01*
X188472857Y-106990952D01*
X188425238Y-107038571D01*
X188330000Y-107086190D01*
X187949047Y-107086190D01*
X189472857Y-107562380D02*
X188901428Y-107562380D01*
X189187142Y-107562380D02*
X189187142Y-106562380D01*
X189091904Y-106705238D01*
X188996666Y-106800476D01*
X188901428Y-106848095D01*
X190044285Y-106990952D02*
X189949047Y-106943333D01*
X189901428Y-106895714D01*
X189853809Y-106800476D01*
X189853809Y-106752857D01*
X189901428Y-106657619D01*
X189949047Y-106610000D01*
X190044285Y-106562380D01*
X190234761Y-106562380D01*
X190330000Y-106610000D01*
X190377619Y-106657619D01*
X190425238Y-106752857D01*
X190425238Y-106800476D01*
X190377619Y-106895714D01*
X190330000Y-106943333D01*
X190234761Y-106990952D01*
X190044285Y-106990952D01*
X189949047Y-107038571D01*
X189901428Y-107086190D01*
X189853809Y-107181428D01*
X189853809Y-107371904D01*
X189901428Y-107467142D01*
X189949047Y-107514761D01*
X190044285Y-107562380D01*
X190234761Y-107562380D01*
X190330000Y-107514761D01*
X190377619Y-107467142D01*
X190425238Y-107371904D01*
X190425238Y-107181428D01*
X190377619Y-107086190D01*
X190330000Y-107038571D01*
X190234761Y-106990952D01*
X139198095Y-91522380D02*
X139198095Y-92236666D01*
X139150476Y-92379523D01*
X139055238Y-92474761D01*
X138912380Y-92522380D01*
X138817142Y-92522380D01*
X139626666Y-91617619D02*
X139674285Y-91570000D01*
X139769523Y-91522380D01*
X140007619Y-91522380D01*
X140102857Y-91570000D01*
X140150476Y-91617619D01*
X140198095Y-91712857D01*
X140198095Y-91808095D01*
X140150476Y-91950952D01*
X139579047Y-92522380D01*
X140198095Y-92522380D01*
X141055238Y-91855714D02*
X141055238Y-92522380D01*
X140817142Y-91474761D02*
X140579047Y-92189047D01*
X141198095Y-92189047D01*
X141579047Y-92141428D02*
X142340952Y-92141428D01*
X142674285Y-91522380D02*
X143245714Y-91522380D01*
X142960000Y-92522380D02*
X142960000Y-91522380D01*
X143579047Y-92522380D02*
X143579047Y-91522380D01*
X143960000Y-91522380D01*
X144055238Y-91570000D01*
X144102857Y-91617619D01*
X144150476Y-91712857D01*
X144150476Y-91855714D01*
X144102857Y-91950952D01*
X144055238Y-91998571D01*
X143960000Y-92046190D01*
X143579047Y-92046190D01*
X145102857Y-92522380D02*
X144531428Y-92522380D01*
X144817142Y-92522380D02*
X144817142Y-91522380D01*
X144721904Y-91665238D01*
X144626666Y-91760476D01*
X144531428Y-91808095D01*
X146007619Y-91522380D02*
X145531428Y-91522380D01*
X145483809Y-91998571D01*
X145531428Y-91950952D01*
X145626666Y-91903333D01*
X145864761Y-91903333D01*
X145960000Y-91950952D01*
X146007619Y-91998571D01*
X146055238Y-92093809D01*
X146055238Y-92331904D01*
X146007619Y-92427142D01*
X145960000Y-92474761D01*
X145864761Y-92522380D01*
X145626666Y-92522380D01*
X145531428Y-92474761D01*
X145483809Y-92427142D01*
X172228095Y-97762380D02*
X172228095Y-98476666D01*
X172180476Y-98619523D01*
X172085238Y-98714761D01*
X171942380Y-98762380D01*
X171847142Y-98762380D01*
X172656666Y-97857619D02*
X172704285Y-97810000D01*
X172799523Y-97762380D01*
X173037619Y-97762380D01*
X173132857Y-97810000D01*
X173180476Y-97857619D01*
X173228095Y-97952857D01*
X173228095Y-98048095D01*
X173180476Y-98190952D01*
X172609047Y-98762380D01*
X173228095Y-98762380D01*
X173561428Y-97762380D02*
X174180476Y-97762380D01*
X173847142Y-98143333D01*
X173990000Y-98143333D01*
X174085238Y-98190952D01*
X174132857Y-98238571D01*
X174180476Y-98333809D01*
X174180476Y-98571904D01*
X174132857Y-98667142D01*
X174085238Y-98714761D01*
X173990000Y-98762380D01*
X173704285Y-98762380D01*
X173609047Y-98714761D01*
X173561428Y-98667142D01*
X174609047Y-98381428D02*
X175370952Y-98381428D01*
X175704285Y-97762380D02*
X176275714Y-97762380D01*
X175990000Y-98762380D02*
X175990000Y-97762380D01*
X176609047Y-98762380D02*
X176609047Y-97762380D01*
X176990000Y-97762380D01*
X177085238Y-97810000D01*
X177132857Y-97857619D01*
X177180476Y-97952857D01*
X177180476Y-98095714D01*
X177132857Y-98190952D01*
X177085238Y-98238571D01*
X176990000Y-98286190D01*
X176609047Y-98286190D01*
X178132857Y-98762380D02*
X177561428Y-98762380D01*
X177847142Y-98762380D02*
X177847142Y-97762380D01*
X177751904Y-97905238D01*
X177656666Y-98000476D01*
X177561428Y-98048095D01*
X178513809Y-97857619D02*
X178561428Y-97810000D01*
X178656666Y-97762380D01*
X178894761Y-97762380D01*
X178990000Y-97810000D01*
X179037619Y-97857619D01*
X179085238Y-97952857D01*
X179085238Y-98048095D01*
X179037619Y-98190952D01*
X178466190Y-98762380D01*
X179085238Y-98762380D01*
X179998095Y-69402380D02*
X179998095Y-70116666D01*
X179950476Y-70259523D01*
X179855238Y-70354761D01*
X179712380Y-70402380D01*
X179617142Y-70402380D01*
X180426666Y-69497619D02*
X180474285Y-69450000D01*
X180569523Y-69402380D01*
X180807619Y-69402380D01*
X180902857Y-69450000D01*
X180950476Y-69497619D01*
X180998095Y-69592857D01*
X180998095Y-69688095D01*
X180950476Y-69830952D01*
X180379047Y-70402380D01*
X180998095Y-70402380D01*
X181379047Y-69497619D02*
X181426666Y-69450000D01*
X181521904Y-69402380D01*
X181760000Y-69402380D01*
X181855238Y-69450000D01*
X181902857Y-69497619D01*
X181950476Y-69592857D01*
X181950476Y-69688095D01*
X181902857Y-69830952D01*
X181331428Y-70402380D01*
X181950476Y-70402380D01*
X182379047Y-70021428D02*
X183140952Y-70021428D01*
X183474285Y-69402380D02*
X184045714Y-69402380D01*
X183760000Y-70402380D02*
X183760000Y-69402380D01*
X184379047Y-70402380D02*
X184379047Y-69402380D01*
X184760000Y-69402380D01*
X184855238Y-69450000D01*
X184902857Y-69497619D01*
X184950476Y-69592857D01*
X184950476Y-69735714D01*
X184902857Y-69830952D01*
X184855238Y-69878571D01*
X184760000Y-69926190D01*
X184379047Y-69926190D01*
X185902857Y-70402380D02*
X185331428Y-70402380D01*
X185617142Y-70402380D02*
X185617142Y-69402380D01*
X185521904Y-69545238D01*
X185426666Y-69640476D01*
X185331428Y-69688095D01*
X186855238Y-70402380D02*
X186283809Y-70402380D01*
X186569523Y-70402380D02*
X186569523Y-69402380D01*
X186474285Y-69545238D01*
X186379047Y-69640476D01*
X186283809Y-69688095D01*
X194458095Y-103122380D02*
X194458095Y-103836666D01*
X194410476Y-103979523D01*
X194315238Y-104074761D01*
X194172380Y-104122380D01*
X194077142Y-104122380D01*
X194886666Y-103217619D02*
X194934285Y-103170000D01*
X195029523Y-103122380D01*
X195267619Y-103122380D01*
X195362857Y-103170000D01*
X195410476Y-103217619D01*
X195458095Y-103312857D01*
X195458095Y-103408095D01*
X195410476Y-103550952D01*
X194839047Y-104122380D01*
X195458095Y-104122380D01*
X196410476Y-104122380D02*
X195839047Y-104122380D01*
X196124761Y-104122380D02*
X196124761Y-103122380D01*
X196029523Y-103265238D01*
X195934285Y-103360476D01*
X195839047Y-103408095D01*
X196839047Y-103741428D02*
X197600952Y-103741428D01*
X197934285Y-103122380D02*
X198505714Y-103122380D01*
X198220000Y-104122380D02*
X198220000Y-103122380D01*
X198839047Y-104122380D02*
X198839047Y-103122380D01*
X199220000Y-103122380D01*
X199315238Y-103170000D01*
X199362857Y-103217619D01*
X199410476Y-103312857D01*
X199410476Y-103455714D01*
X199362857Y-103550952D01*
X199315238Y-103598571D01*
X199220000Y-103646190D01*
X198839047Y-103646190D01*
X200362857Y-104122380D02*
X199791428Y-104122380D01*
X200077142Y-104122380D02*
X200077142Y-103122380D01*
X199981904Y-103265238D01*
X199886666Y-103360476D01*
X199791428Y-103408095D01*
X200981904Y-103122380D02*
X201077142Y-103122380D01*
X201172380Y-103170000D01*
X201220000Y-103217619D01*
X201267619Y-103312857D01*
X201315238Y-103503333D01*
X201315238Y-103741428D01*
X201267619Y-103931904D01*
X201220000Y-104027142D01*
X201172380Y-104074761D01*
X201077142Y-104122380D01*
X200981904Y-104122380D01*
X200886666Y-104074761D01*
X200839047Y-104027142D01*
X200791428Y-103931904D01*
X200743809Y-103741428D01*
X200743809Y-103503333D01*
X200791428Y-103312857D01*
X200839047Y-103217619D01*
X200886666Y-103170000D01*
X200981904Y-103122380D01*
X170354285Y-103932380D02*
X170354285Y-104646666D01*
X170306666Y-104789523D01*
X170211428Y-104884761D01*
X170068571Y-104932380D01*
X169973333Y-104932380D01*
X170782857Y-104027619D02*
X170830476Y-103980000D01*
X170925714Y-103932380D01*
X171163809Y-103932380D01*
X171259047Y-103980000D01*
X171306666Y-104027619D01*
X171354285Y-104122857D01*
X171354285Y-104218095D01*
X171306666Y-104360952D01*
X170735238Y-104932380D01*
X171354285Y-104932380D01*
X171973333Y-103932380D02*
X172068571Y-103932380D01*
X172163809Y-103980000D01*
X172211428Y-104027619D01*
X172259047Y-104122857D01*
X172306666Y-104313333D01*
X172306666Y-104551428D01*
X172259047Y-104741904D01*
X172211428Y-104837142D01*
X172163809Y-104884761D01*
X172068571Y-104932380D01*
X171973333Y-104932380D01*
X171878095Y-104884761D01*
X171830476Y-104837142D01*
X171782857Y-104741904D01*
X171735238Y-104551428D01*
X171735238Y-104313333D01*
X171782857Y-104122857D01*
X171830476Y-104027619D01*
X171878095Y-103980000D01*
X171973333Y-103932380D01*
X172735238Y-104551428D02*
X173497142Y-104551428D01*
X173830476Y-103932380D02*
X174401904Y-103932380D01*
X174116190Y-104932380D02*
X174116190Y-103932380D01*
X174735238Y-104932380D02*
X174735238Y-103932380D01*
X175116190Y-103932380D01*
X175211428Y-103980000D01*
X175259047Y-104027619D01*
X175306666Y-104122857D01*
X175306666Y-104265714D01*
X175259047Y-104360952D01*
X175211428Y-104408571D01*
X175116190Y-104456190D01*
X174735238Y-104456190D01*
X175782857Y-104932380D02*
X175973333Y-104932380D01*
X176068571Y-104884761D01*
X176116190Y-104837142D01*
X176211428Y-104694285D01*
X176259047Y-104503809D01*
X176259047Y-104122857D01*
X176211428Y-104027619D01*
X176163809Y-103980000D01*
X176068571Y-103932380D01*
X175878095Y-103932380D01*
X175782857Y-103980000D01*
X175735238Y-104027619D01*
X175687619Y-104122857D01*
X175687619Y-104360952D01*
X175735238Y-104456190D01*
X175782857Y-104503809D01*
X175878095Y-104551428D01*
X176068571Y-104551428D01*
X176163809Y-104503809D01*
X176211428Y-104456190D01*
X176259047Y-104360952D01*
X123074285Y-114462380D02*
X123074285Y-115176666D01*
X123026666Y-115319523D01*
X122931428Y-115414761D01*
X122788571Y-115462380D01*
X122693333Y-115462380D01*
X124074285Y-115462380D02*
X123502857Y-115462380D01*
X123788571Y-115462380D02*
X123788571Y-114462380D01*
X123693333Y-114605238D01*
X123598095Y-114700476D01*
X123502857Y-114748095D01*
X124550476Y-115462380D02*
X124740952Y-115462380D01*
X124836190Y-115414761D01*
X124883809Y-115367142D01*
X124979047Y-115224285D01*
X125026666Y-115033809D01*
X125026666Y-114652857D01*
X124979047Y-114557619D01*
X124931428Y-114510000D01*
X124836190Y-114462380D01*
X124645714Y-114462380D01*
X124550476Y-114510000D01*
X124502857Y-114557619D01*
X124455238Y-114652857D01*
X124455238Y-114890952D01*
X124502857Y-114986190D01*
X124550476Y-115033809D01*
X124645714Y-115081428D01*
X124836190Y-115081428D01*
X124931428Y-115033809D01*
X124979047Y-114986190D01*
X125026666Y-114890952D01*
X125455238Y-115081428D02*
X126217142Y-115081428D01*
X126550476Y-114462380D02*
X127121904Y-114462380D01*
X126836190Y-115462380D02*
X126836190Y-114462380D01*
X127455238Y-115462380D02*
X127455238Y-114462380D01*
X127836190Y-114462380D01*
X127931428Y-114510000D01*
X127979047Y-114557619D01*
X128026666Y-114652857D01*
X128026666Y-114795714D01*
X127979047Y-114890952D01*
X127931428Y-114938571D01*
X127836190Y-114986190D01*
X127455238Y-114986190D01*
X128883809Y-114462380D02*
X128693333Y-114462380D01*
X128598095Y-114510000D01*
X128550476Y-114557619D01*
X128455238Y-114700476D01*
X128407619Y-114890952D01*
X128407619Y-115271904D01*
X128455238Y-115367142D01*
X128502857Y-115414761D01*
X128598095Y-115462380D01*
X128788571Y-115462380D01*
X128883809Y-115414761D01*
X128931428Y-115367142D01*
X128979047Y-115271904D01*
X128979047Y-115033809D01*
X128931428Y-114938571D01*
X128883809Y-114890952D01*
X128788571Y-114843333D01*
X128598095Y-114843333D01*
X128502857Y-114890952D01*
X128455238Y-114938571D01*
X128407619Y-115033809D01*
X196924285Y-113882380D02*
X196924285Y-114596666D01*
X196876666Y-114739523D01*
X196781428Y-114834761D01*
X196638571Y-114882380D01*
X196543333Y-114882380D01*
X197924285Y-114882380D02*
X197352857Y-114882380D01*
X197638571Y-114882380D02*
X197638571Y-113882380D01*
X197543333Y-114025238D01*
X197448095Y-114120476D01*
X197352857Y-114168095D01*
X198495714Y-114310952D02*
X198400476Y-114263333D01*
X198352857Y-114215714D01*
X198305238Y-114120476D01*
X198305238Y-114072857D01*
X198352857Y-113977619D01*
X198400476Y-113930000D01*
X198495714Y-113882380D01*
X198686190Y-113882380D01*
X198781428Y-113930000D01*
X198829047Y-113977619D01*
X198876666Y-114072857D01*
X198876666Y-114120476D01*
X198829047Y-114215714D01*
X198781428Y-114263333D01*
X198686190Y-114310952D01*
X198495714Y-114310952D01*
X198400476Y-114358571D01*
X198352857Y-114406190D01*
X198305238Y-114501428D01*
X198305238Y-114691904D01*
X198352857Y-114787142D01*
X198400476Y-114834761D01*
X198495714Y-114882380D01*
X198686190Y-114882380D01*
X198781428Y-114834761D01*
X198829047Y-114787142D01*
X198876666Y-114691904D01*
X198876666Y-114501428D01*
X198829047Y-114406190D01*
X198781428Y-114358571D01*
X198686190Y-114310952D01*
X199305238Y-114501428D02*
X200067142Y-114501428D01*
X200400476Y-113882380D02*
X200971904Y-113882380D01*
X200686190Y-114882380D02*
X200686190Y-113882380D01*
X201305238Y-114882380D02*
X201305238Y-113882380D01*
X201686190Y-113882380D01*
X201781428Y-113930000D01*
X201829047Y-113977619D01*
X201876666Y-114072857D01*
X201876666Y-114215714D01*
X201829047Y-114310952D01*
X201781428Y-114358571D01*
X201686190Y-114406190D01*
X201305238Y-114406190D01*
X202733809Y-114215714D02*
X202733809Y-114882380D01*
X202495714Y-113834761D02*
X202257619Y-114549047D01*
X202876666Y-114549047D01*
X190514285Y-100642380D02*
X190514285Y-101356666D01*
X190466666Y-101499523D01*
X190371428Y-101594761D01*
X190228571Y-101642380D01*
X190133333Y-101642380D01*
X191514285Y-101642380D02*
X190942857Y-101642380D01*
X191228571Y-101642380D02*
X191228571Y-100642380D01*
X191133333Y-100785238D01*
X191038095Y-100880476D01*
X190942857Y-100928095D01*
X191847619Y-100642380D02*
X192514285Y-100642380D01*
X192085714Y-101642380D01*
X192895238Y-101261428D02*
X193657142Y-101261428D01*
X193990476Y-100642380D02*
X194561904Y-100642380D01*
X194276190Y-101642380D02*
X194276190Y-100642380D01*
X194895238Y-101642380D02*
X194895238Y-100642380D01*
X195276190Y-100642380D01*
X195371428Y-100690000D01*
X195419047Y-100737619D01*
X195466666Y-100832857D01*
X195466666Y-100975714D01*
X195419047Y-101070952D01*
X195371428Y-101118571D01*
X195276190Y-101166190D01*
X194895238Y-101166190D01*
X195800000Y-100642380D02*
X196419047Y-100642380D01*
X196085714Y-101023333D01*
X196228571Y-101023333D01*
X196323809Y-101070952D01*
X196371428Y-101118571D01*
X196419047Y-101213809D01*
X196419047Y-101451904D01*
X196371428Y-101547142D01*
X196323809Y-101594761D01*
X196228571Y-101642380D01*
X195942857Y-101642380D01*
X195847619Y-101594761D01*
X195800000Y-101547142D01*
X149458095Y-108792380D02*
X149458095Y-109506666D01*
X149410476Y-109649523D01*
X149315238Y-109744761D01*
X149172380Y-109792380D01*
X149077142Y-109792380D01*
X150458095Y-109792380D02*
X149886666Y-109792380D01*
X150172380Y-109792380D02*
X150172380Y-108792380D01*
X150077142Y-108935238D01*
X149981904Y-109030476D01*
X149886666Y-109078095D01*
X151315238Y-108792380D02*
X151124761Y-108792380D01*
X151029523Y-108840000D01*
X150981904Y-108887619D01*
X150886666Y-109030476D01*
X150839047Y-109220952D01*
X150839047Y-109601904D01*
X150886666Y-109697142D01*
X150934285Y-109744761D01*
X151029523Y-109792380D01*
X151220000Y-109792380D01*
X151315238Y-109744761D01*
X151362857Y-109697142D01*
X151410476Y-109601904D01*
X151410476Y-109363809D01*
X151362857Y-109268571D01*
X151315238Y-109220952D01*
X151220000Y-109173333D01*
X151029523Y-109173333D01*
X150934285Y-109220952D01*
X150886666Y-109268571D01*
X150839047Y-109363809D01*
X151839047Y-109411428D02*
X152600952Y-109411428D01*
X152934285Y-108792380D02*
X153505714Y-108792380D01*
X153220000Y-109792380D02*
X153220000Y-108792380D01*
X153839047Y-109792380D02*
X153839047Y-108792380D01*
X154220000Y-108792380D01*
X154315238Y-108840000D01*
X154362857Y-108887619D01*
X154410476Y-108982857D01*
X154410476Y-109125714D01*
X154362857Y-109220952D01*
X154315238Y-109268571D01*
X154220000Y-109316190D01*
X153839047Y-109316190D01*
X154791428Y-108887619D02*
X154839047Y-108840000D01*
X154934285Y-108792380D01*
X155172380Y-108792380D01*
X155267619Y-108840000D01*
X155315238Y-108887619D01*
X155362857Y-108982857D01*
X155362857Y-109078095D01*
X155315238Y-109220952D01*
X154743809Y-109792380D01*
X155362857Y-109792380D01*
X156220000Y-109125714D02*
X156220000Y-109792380D01*
X155981904Y-108744761D02*
X155743809Y-109459047D01*
X156362857Y-109459047D01*
X190894285Y-98212380D02*
X190894285Y-98926666D01*
X190846666Y-99069523D01*
X190751428Y-99164761D01*
X190608571Y-99212380D01*
X190513333Y-99212380D01*
X191894285Y-99212380D02*
X191322857Y-99212380D01*
X191608571Y-99212380D02*
X191608571Y-98212380D01*
X191513333Y-98355238D01*
X191418095Y-98450476D01*
X191322857Y-98498095D01*
X192751428Y-98212380D02*
X192560952Y-98212380D01*
X192465714Y-98260000D01*
X192418095Y-98307619D01*
X192322857Y-98450476D01*
X192275238Y-98640952D01*
X192275238Y-99021904D01*
X192322857Y-99117142D01*
X192370476Y-99164761D01*
X192465714Y-99212380D01*
X192656190Y-99212380D01*
X192751428Y-99164761D01*
X192799047Y-99117142D01*
X192846666Y-99021904D01*
X192846666Y-98783809D01*
X192799047Y-98688571D01*
X192751428Y-98640952D01*
X192656190Y-98593333D01*
X192465714Y-98593333D01*
X192370476Y-98640952D01*
X192322857Y-98688571D01*
X192275238Y-98783809D01*
X193275238Y-98831428D02*
X194037142Y-98831428D01*
X194370476Y-98212380D02*
X194941904Y-98212380D01*
X194656190Y-99212380D02*
X194656190Y-98212380D01*
X195275238Y-99212380D02*
X195275238Y-98212380D01*
X195656190Y-98212380D01*
X195751428Y-98260000D01*
X195799047Y-98307619D01*
X195846666Y-98402857D01*
X195846666Y-98545714D01*
X195799047Y-98640952D01*
X195751428Y-98688571D01*
X195656190Y-98736190D01*
X195275238Y-98736190D01*
X196227619Y-98307619D02*
X196275238Y-98260000D01*
X196370476Y-98212380D01*
X196608571Y-98212380D01*
X196703809Y-98260000D01*
X196751428Y-98307619D01*
X196799047Y-98402857D01*
X196799047Y-98498095D01*
X196751428Y-98640952D01*
X196180000Y-99212380D01*
X196799047Y-99212380D01*
X215898095Y-140172380D02*
X215898095Y-140886666D01*
X215850476Y-141029523D01*
X215755238Y-141124761D01*
X215612380Y-141172380D01*
X215517142Y-141172380D01*
X216898095Y-141172380D02*
X216326666Y-141172380D01*
X216612380Y-141172380D02*
X216612380Y-140172380D01*
X216517142Y-140315238D01*
X216421904Y-140410476D01*
X216326666Y-140458095D01*
X217802857Y-140172380D02*
X217326666Y-140172380D01*
X217279047Y-140648571D01*
X217326666Y-140600952D01*
X217421904Y-140553333D01*
X217660000Y-140553333D01*
X217755238Y-140600952D01*
X217802857Y-140648571D01*
X217850476Y-140743809D01*
X217850476Y-140981904D01*
X217802857Y-141077142D01*
X217755238Y-141124761D01*
X217660000Y-141172380D01*
X217421904Y-141172380D01*
X217326666Y-141124761D01*
X217279047Y-141077142D01*
X218279047Y-140791428D02*
X219040952Y-140791428D01*
X219374285Y-140172380D02*
X219945714Y-140172380D01*
X219660000Y-141172380D02*
X219660000Y-140172380D01*
X220279047Y-141172380D02*
X220279047Y-140172380D01*
X220660000Y-140172380D01*
X220755238Y-140220000D01*
X220802857Y-140267619D01*
X220850476Y-140362857D01*
X220850476Y-140505714D01*
X220802857Y-140600952D01*
X220755238Y-140648571D01*
X220660000Y-140696190D01*
X220279047Y-140696190D01*
X221231428Y-140267619D02*
X221279047Y-140220000D01*
X221374285Y-140172380D01*
X221612380Y-140172380D01*
X221707619Y-140220000D01*
X221755238Y-140267619D01*
X221802857Y-140362857D01*
X221802857Y-140458095D01*
X221755238Y-140600952D01*
X221183809Y-141172380D01*
X221802857Y-141172380D01*
X222421904Y-140172380D02*
X222517142Y-140172380D01*
X222612380Y-140220000D01*
X222660000Y-140267619D01*
X222707619Y-140362857D01*
X222755238Y-140553333D01*
X222755238Y-140791428D01*
X222707619Y-140981904D01*
X222660000Y-141077142D01*
X222612380Y-141124761D01*
X222517142Y-141172380D01*
X222421904Y-141172380D01*
X222326666Y-141124761D01*
X222279047Y-141077142D01*
X222231428Y-140981904D01*
X222183809Y-140791428D01*
X222183809Y-140553333D01*
X222231428Y-140362857D01*
X222279047Y-140267619D01*
X222326666Y-140220000D01*
X222421904Y-140172380D01*
X189934285Y-95672380D02*
X189934285Y-96386666D01*
X189886666Y-96529523D01*
X189791428Y-96624761D01*
X189648571Y-96672380D01*
X189553333Y-96672380D01*
X190934285Y-96672380D02*
X190362857Y-96672380D01*
X190648571Y-96672380D02*
X190648571Y-95672380D01*
X190553333Y-95815238D01*
X190458095Y-95910476D01*
X190362857Y-95958095D01*
X191839047Y-95672380D02*
X191362857Y-95672380D01*
X191315238Y-96148571D01*
X191362857Y-96100952D01*
X191458095Y-96053333D01*
X191696190Y-96053333D01*
X191791428Y-96100952D01*
X191839047Y-96148571D01*
X191886666Y-96243809D01*
X191886666Y-96481904D01*
X191839047Y-96577142D01*
X191791428Y-96624761D01*
X191696190Y-96672380D01*
X191458095Y-96672380D01*
X191362857Y-96624761D01*
X191315238Y-96577142D01*
X192315238Y-96291428D02*
X193077142Y-96291428D01*
X193410476Y-95672380D02*
X193981904Y-95672380D01*
X193696190Y-96672380D02*
X193696190Y-95672380D01*
X194315238Y-96672380D02*
X194315238Y-95672380D01*
X194696190Y-95672380D01*
X194791428Y-95720000D01*
X194839047Y-95767619D01*
X194886666Y-95862857D01*
X194886666Y-96005714D01*
X194839047Y-96100952D01*
X194791428Y-96148571D01*
X194696190Y-96196190D01*
X194315238Y-96196190D01*
X195839047Y-96672380D02*
X195267619Y-96672380D01*
X195553333Y-96672380D02*
X195553333Y-95672380D01*
X195458095Y-95815238D01*
X195362857Y-95910476D01*
X195267619Y-95958095D01*
X91798095Y-114152380D02*
X91798095Y-114866666D01*
X91750476Y-115009523D01*
X91655238Y-115104761D01*
X91512380Y-115152380D01*
X91417142Y-115152380D01*
X92798095Y-115152380D02*
X92226666Y-115152380D01*
X92512380Y-115152380D02*
X92512380Y-114152380D01*
X92417142Y-114295238D01*
X92321904Y-114390476D01*
X92226666Y-114438095D01*
X93655238Y-114485714D02*
X93655238Y-115152380D01*
X93417142Y-114104761D02*
X93179047Y-114819047D01*
X93798095Y-114819047D01*
X94179047Y-114771428D02*
X94940952Y-114771428D01*
X95274285Y-114152380D02*
X95845714Y-114152380D01*
X95560000Y-115152380D02*
X95560000Y-114152380D01*
X96179047Y-115152380D02*
X96179047Y-114152380D01*
X96560000Y-114152380D01*
X96655238Y-114200000D01*
X96702857Y-114247619D01*
X96750476Y-114342857D01*
X96750476Y-114485714D01*
X96702857Y-114580952D01*
X96655238Y-114628571D01*
X96560000Y-114676190D01*
X96179047Y-114676190D01*
X97702857Y-115152380D02*
X97131428Y-115152380D01*
X97417142Y-115152380D02*
X97417142Y-114152380D01*
X97321904Y-114295238D01*
X97226666Y-114390476D01*
X97131428Y-114438095D01*
X98036190Y-114152380D02*
X98702857Y-114152380D01*
X98274285Y-115152380D01*
X152178095Y-74392380D02*
X152178095Y-75106666D01*
X152130476Y-75249523D01*
X152035238Y-75344761D01*
X151892380Y-75392380D01*
X151797142Y-75392380D01*
X153178095Y-75392380D02*
X152606666Y-75392380D01*
X152892380Y-75392380D02*
X152892380Y-74392380D01*
X152797142Y-74535238D01*
X152701904Y-74630476D01*
X152606666Y-74678095D01*
X153511428Y-74392380D02*
X154130476Y-74392380D01*
X153797142Y-74773333D01*
X153940000Y-74773333D01*
X154035238Y-74820952D01*
X154082857Y-74868571D01*
X154130476Y-74963809D01*
X154130476Y-75201904D01*
X154082857Y-75297142D01*
X154035238Y-75344761D01*
X153940000Y-75392380D01*
X153654285Y-75392380D01*
X153559047Y-75344761D01*
X153511428Y-75297142D01*
X154559047Y-75011428D02*
X155320952Y-75011428D01*
X155654285Y-74392380D02*
X156225714Y-74392380D01*
X155940000Y-75392380D02*
X155940000Y-74392380D01*
X156559047Y-75392380D02*
X156559047Y-74392380D01*
X156940000Y-74392380D01*
X157035238Y-74440000D01*
X157082857Y-74487619D01*
X157130476Y-74582857D01*
X157130476Y-74725714D01*
X157082857Y-74820952D01*
X157035238Y-74868571D01*
X156940000Y-74916190D01*
X156559047Y-74916190D01*
X157511428Y-74487619D02*
X157559047Y-74440000D01*
X157654285Y-74392380D01*
X157892380Y-74392380D01*
X157987619Y-74440000D01*
X158035238Y-74487619D01*
X158082857Y-74582857D01*
X158082857Y-74678095D01*
X158035238Y-74820952D01*
X157463809Y-75392380D01*
X158082857Y-75392380D01*
X158416190Y-74392380D02*
X159035238Y-74392380D01*
X158701904Y-74773333D01*
X158844761Y-74773333D01*
X158940000Y-74820952D01*
X158987619Y-74868571D01*
X159035238Y-74963809D01*
X159035238Y-75201904D01*
X158987619Y-75297142D01*
X158940000Y-75344761D01*
X158844761Y-75392380D01*
X158559047Y-75392380D01*
X158463809Y-75344761D01*
X158416190Y-75297142D01*
X165858095Y-111932380D02*
X165858095Y-112646666D01*
X165810476Y-112789523D01*
X165715238Y-112884761D01*
X165572380Y-112932380D01*
X165477142Y-112932380D01*
X166858095Y-112932380D02*
X166286666Y-112932380D01*
X166572380Y-112932380D02*
X166572380Y-111932380D01*
X166477142Y-112075238D01*
X166381904Y-112170476D01*
X166286666Y-112218095D01*
X167239047Y-112027619D02*
X167286666Y-111980000D01*
X167381904Y-111932380D01*
X167620000Y-111932380D01*
X167715238Y-111980000D01*
X167762857Y-112027619D01*
X167810476Y-112122857D01*
X167810476Y-112218095D01*
X167762857Y-112360952D01*
X167191428Y-112932380D01*
X167810476Y-112932380D01*
X168239047Y-112551428D02*
X169000952Y-112551428D01*
X169334285Y-111932380D02*
X169905714Y-111932380D01*
X169620000Y-112932380D02*
X169620000Y-111932380D01*
X170239047Y-112932380D02*
X170239047Y-111932380D01*
X170620000Y-111932380D01*
X170715238Y-111980000D01*
X170762857Y-112027619D01*
X170810476Y-112122857D01*
X170810476Y-112265714D01*
X170762857Y-112360952D01*
X170715238Y-112408571D01*
X170620000Y-112456190D01*
X170239047Y-112456190D01*
X171762857Y-112932380D02*
X171191428Y-112932380D01*
X171477142Y-112932380D02*
X171477142Y-111932380D01*
X171381904Y-112075238D01*
X171286666Y-112170476D01*
X171191428Y-112218095D01*
X172620000Y-112265714D02*
X172620000Y-112932380D01*
X172381904Y-111884761D02*
X172143809Y-112599047D01*
X172762857Y-112599047D01*
X160724285Y-127682380D02*
X160724285Y-128396666D01*
X160676666Y-128539523D01*
X160581428Y-128634761D01*
X160438571Y-128682380D01*
X160343333Y-128682380D01*
X161724285Y-128682380D02*
X161152857Y-128682380D01*
X161438571Y-128682380D02*
X161438571Y-127682380D01*
X161343333Y-127825238D01*
X161248095Y-127920476D01*
X161152857Y-127968095D01*
X162676666Y-128682380D02*
X162105238Y-128682380D01*
X162390952Y-128682380D02*
X162390952Y-127682380D01*
X162295714Y-127825238D01*
X162200476Y-127920476D01*
X162105238Y-127968095D01*
X163105238Y-128301428D02*
X163867142Y-128301428D01*
X164200476Y-127682380D02*
X164771904Y-127682380D01*
X164486190Y-128682380D02*
X164486190Y-127682380D01*
X165105238Y-128682380D02*
X165105238Y-127682380D01*
X165486190Y-127682380D01*
X165581428Y-127730000D01*
X165629047Y-127777619D01*
X165676666Y-127872857D01*
X165676666Y-128015714D01*
X165629047Y-128110952D01*
X165581428Y-128158571D01*
X165486190Y-128206190D01*
X165105238Y-128206190D01*
X166010000Y-127682380D02*
X166676666Y-127682380D01*
X166248095Y-128682380D01*
X175968095Y-104242380D02*
X175968095Y-104956666D01*
X175920476Y-105099523D01*
X175825238Y-105194761D01*
X175682380Y-105242380D01*
X175587142Y-105242380D01*
X176968095Y-105242380D02*
X176396666Y-105242380D01*
X176682380Y-105242380D02*
X176682380Y-104242380D01*
X176587142Y-104385238D01*
X176491904Y-104480476D01*
X176396666Y-104528095D01*
X177587142Y-104242380D02*
X177682380Y-104242380D01*
X177777619Y-104290000D01*
X177825238Y-104337619D01*
X177872857Y-104432857D01*
X177920476Y-104623333D01*
X177920476Y-104861428D01*
X177872857Y-105051904D01*
X177825238Y-105147142D01*
X177777619Y-105194761D01*
X177682380Y-105242380D01*
X177587142Y-105242380D01*
X177491904Y-105194761D01*
X177444285Y-105147142D01*
X177396666Y-105051904D01*
X177349047Y-104861428D01*
X177349047Y-104623333D01*
X177396666Y-104432857D01*
X177444285Y-104337619D01*
X177491904Y-104290000D01*
X177587142Y-104242380D01*
X178349047Y-104861428D02*
X179110952Y-104861428D01*
X179444285Y-104242380D02*
X180015714Y-104242380D01*
X179730000Y-105242380D02*
X179730000Y-104242380D01*
X180349047Y-105242380D02*
X180349047Y-104242380D01*
X180730000Y-104242380D01*
X180825238Y-104290000D01*
X180872857Y-104337619D01*
X180920476Y-104432857D01*
X180920476Y-104575714D01*
X180872857Y-104670952D01*
X180825238Y-104718571D01*
X180730000Y-104766190D01*
X180349047Y-104766190D01*
X181301428Y-104337619D02*
X181349047Y-104290000D01*
X181444285Y-104242380D01*
X181682380Y-104242380D01*
X181777619Y-104290000D01*
X181825238Y-104337619D01*
X181872857Y-104432857D01*
X181872857Y-104528095D01*
X181825238Y-104670952D01*
X181253809Y-105242380D01*
X181872857Y-105242380D01*
X182253809Y-104337619D02*
X182301428Y-104290000D01*
X182396666Y-104242380D01*
X182634761Y-104242380D01*
X182730000Y-104290000D01*
X182777619Y-104337619D01*
X182825238Y-104432857D01*
X182825238Y-104528095D01*
X182777619Y-104670952D01*
X182206190Y-105242380D01*
X182825238Y-105242380D01*
X141332380Y-16828333D02*
X142046666Y-16828333D01*
X142189523Y-16875952D01*
X142284761Y-16971190D01*
X142332380Y-17114047D01*
X142332380Y-17209285D01*
X141665714Y-15923571D02*
X142332380Y-15923571D01*
X141284761Y-16161666D02*
X141999047Y-16399761D01*
X141999047Y-15780714D01*
X166986666Y-36252380D02*
X166986666Y-36966666D01*
X166939047Y-37109523D01*
X166843809Y-37204761D01*
X166700952Y-37252380D01*
X166605714Y-37252380D01*
X167367619Y-36252380D02*
X167986666Y-36252380D01*
X167653333Y-36633333D01*
X167796190Y-36633333D01*
X167891428Y-36680952D01*
X167939047Y-36728571D01*
X167986666Y-36823809D01*
X167986666Y-37061904D01*
X167939047Y-37157142D01*
X167891428Y-37204761D01*
X167796190Y-37252380D01*
X167510476Y-37252380D01*
X167415238Y-37204761D01*
X167367619Y-37157142D01*
X207652380Y-52623333D02*
X208366666Y-52623333D01*
X208509523Y-52670952D01*
X208604761Y-52766190D01*
X208652380Y-52909047D01*
X208652380Y-53004285D01*
X207747619Y-52194761D02*
X207700000Y-52147142D01*
X207652380Y-52051904D01*
X207652380Y-51813809D01*
X207700000Y-51718571D01*
X207747619Y-51670952D01*
X207842857Y-51623333D01*
X207938095Y-51623333D01*
X208080952Y-51670952D01*
X208652380Y-52242380D01*
X208652380Y-51623333D01*
X86892380Y-52663333D02*
X87606666Y-52663333D01*
X87749523Y-52710952D01*
X87844761Y-52806190D01*
X87892380Y-52949047D01*
X87892380Y-53044285D01*
X87892380Y-51663333D02*
X87892380Y-52234761D01*
X87892380Y-51949047D02*
X86892380Y-51949047D01*
X87035238Y-52044285D01*
X87130476Y-52139523D01*
X87178095Y-52234761D01*
M02*
