M48
; DRILL file {KiCad (5.1.5)-3} date 02/20/20 12:17:32
; FORMAT={-:-/ absolute / inch / decimal}
; #@! TF.CreationDate,2020-02-20T12:17:32+01:00
; #@! TF.GenerationSoftware,Kicad,Pcbnew,(5.1.5)-3
; #@! TF.FileFunction,Plated,1,2,PTH
FMAT,2
INCH
T1C0.0157
T2C0.0276
T3C0.0315
T4C0.0354
T5C0.0394
T6C0.0433
T7C0.0472
%
G90
G05
T1
X3.2Y-2.9
X3.2Y-3.3
X3.2Y-3.7
X3.2Y-4.1
X3.2Y-4.5
X3.2Y-4.9
X3.2Y-5.3
X3.2Y-5.7
X3.2Y-6.1
X3.2Y-6.5
X3.6Y-3.65
X3.6Y-6.5
X3.6134Y-1.8732
X3.75Y-3.65
X3.8Y-3.5
X3.9Y-1.35
X3.9Y-1.65
X3.9Y-3.5
X4.0Y-3.5
X4.0Y-6.5
X4.1Y-3.5
X4.2Y-3.5
X4.2Y-4.5
X4.2Y-4.9
X4.2Y-5.3
X4.2Y-5.7
X4.2Y-6.1
X4.3Y-3.5
X4.35Y-1.35
X4.35Y-1.65
X4.4Y-3.5
X4.4Y-6.5
X4.5Y-3.45
X4.6Y-3.35
X4.6111Y-0.9999
X4.65Y-3.5
X4.6606Y-1.8618
X4.7Y-3.25
X4.7Y-3.45
X4.8Y-3.15
X4.8Y-3.35
X4.8Y-6.5
X4.9Y-3.05
X4.9Y-3.3
X4.9189Y-0.9303
X4.9453Y-1.0689
X5.0Y-2.95
X5.0Y-3.25
X5.0675Y-1.5386
X5.0885Y-1.4402
X5.089Y-1.4008
X5.1453Y-2.8476
X5.1478Y-1.5248
X5.1484Y-2.0331
X5.15Y-3.2
X5.1886Y-2.8193
X5.2Y-6.5
X5.2024Y-2.113
X5.2146Y-1.4815
X5.2295Y-2.7827
X5.2634Y-1.3717
X5.2638Y-2.0492
X5.2661Y-1.7898
X5.2705Y-2.7457
X5.2827Y-2.6882
X5.3075Y-1.4846
X5.35Y-2.95
X5.3638Y-1.7858
X5.3673Y-2.0358
X5.3909Y-1.5685
X5.3976Y-2.1126
X5.4Y-3.25
X5.4386Y-0.9209
X5.4791Y-2.037
X5.4811Y-1.7878
X5.5Y-5.3
X5.5Y-5.7
X5.5169Y-1.5394
X5.5346Y-1.0413
X5.55Y-4.5
X5.55Y-4.9
X5.55Y-6.1
X5.5764Y-3.326
X5.5819Y-2.0374
X5.5913Y-3.1898
X5.5969Y-1.7921
X5.5984Y-2.5524
X5.6Y-6.5
X5.6142Y-1.4358
X5.6205Y-1.624
X5.6307Y-3.3205
X5.672Y-3.8504
X5.7114Y-3.3217
X5.7142Y-1.6228
X5.7276Y-3.826
X5.7386Y-1.2642
X5.7588Y-2.5881
X5.7638Y-3.3173
X5.7728Y-1.574
X5.7823Y-3.824
X5.7988Y-2.7531
X5.8083Y-2.0327
X5.8118Y-1.7839
X5.8217Y-2.9071
X5.8356Y-2.5819
X5.8476Y-2.8232
X5.8646Y-3.3268
X5.886Y-2.6157
X5.887Y-2.7252
X5.9059Y-1.015
X5.9142Y-2.7575
X5.9169Y-1.7846
X5.9236Y-3.3256
X5.9327Y-1.0878
X5.95Y-2.6618
X5.9693Y-2.0949
X6.0Y-6.5
X6.0275Y-2.6846
X6.0291Y-2.0429
X6.0327Y-1.7858
X6.0476Y-1.5575
X6.05Y-3.95
X6.061Y-2.652
X6.0831Y-2.5173
X6.0949Y-2.6197
X6.1282Y-2.5988
X6.1386Y-1.7866
X6.1651Y-2.8889
X6.1799Y-1.5602
X6.1846Y-2.563
X6.1886Y-2.0413
X6.2157Y-3.8315
X6.2185Y-4.2244
X6.2346Y-1.5831
X6.2394Y-1.7894
X6.3024Y-1.4303
X6.3406Y-1.563
X6.3425Y-4.2236
X6.35Y-2.25
X6.3502Y-3.1697
X6.3502Y-4.1299
X6.3622Y-1.7547
X6.3879Y-4.2538
X6.3882Y-4.1457
X6.4Y-6.5
X6.4065Y-4.3016
X6.4602Y-3.7898
X6.4657Y-1.7583
X6.472Y-1.2785
X6.4787Y-1.8465
X6.4953Y-3.7583
X6.5311Y-3.7276
X6.574Y-3.6972
X6.5854Y-1.1106
X6.6Y-2.4
X6.6Y-3.1
X6.6Y-4.0
X6.6071Y-3.6687
X6.6386Y-3.6402
X6.65Y-0.85
X6.65Y-2.8
X6.6736Y-3.6055
X6.6969Y-1.0435
X6.7209Y-3.5681
X6.7476Y-3.3602
X6.7661Y-3.5291
X6.7677Y-1.4374
X6.8Y-6.5
X6.8075Y-3.4984
X6.8465Y-3.3913
X6.85Y-3.0
X6.8508Y-3.461
X6.8858Y-3.4264
X6.9Y-4.5
X6.9Y-4.9
X6.9Y-5.35
X6.9Y-5.75
X6.9Y-6.1
X6.95Y-3.0
X6.9654Y-1.1024
X6.9823Y-1.2709
X7.0015Y-1.2365
X7.0306Y-1.208
X7.0409Y-0.8992
X7.05Y-3.0
X7.0762Y-0.9281
X7.0795Y-1.4008
X7.0933Y-1.0551
X7.15Y-0.55
X7.15Y-3.0
X7.1551Y-1.3764
X7.2Y-6.5
X7.2476Y-4.1685
X7.2496Y-4.2709
X7.25Y-3.0
X7.25Y-4.0
X7.3Y-1.45
X7.3114Y-4.2583
X7.35Y-3.0
X7.4047Y-1.4146
X7.45Y-3.0
X7.4925Y-1.0374
X7.5157Y-0.6429
X7.5437Y-3.9122
X7.55Y-3.0
X7.576Y-3.874
X7.5815Y-1.4049
X7.6Y-6.5
X7.6331Y-0.7866
X7.65Y-0.65
X7.65Y-1.45
X7.65Y-3.0
X7.6724Y-1.0685
X7.75Y-3.0
X7.8Y-6.05
X7.85Y-1.95
X7.85Y-2.15
X7.85Y-3.0
X7.8665Y-1.0807
X7.9Y-1.6
X7.9Y-4.5
X7.9Y-4.9
X7.95Y-3.0
X8.0Y-6.5
X8.004Y-0.8088
X8.05Y-2.4
X8.0524Y-0.815
X8.0544Y-0.6776
X8.0887Y-0.7518
X8.1Y-3.0
X8.1181Y-3.4717
X8.1614Y-3.3811
X8.162Y-3.2924
X8.2Y-1.4
X8.2142Y-0.8276
X8.4Y-6.5
X8.4126Y-0.9697
X8.45Y-1.3
X8.4713Y-1.5122
X8.5Y-2.5
X8.5Y-4.45
X8.5Y-5.0
X8.55Y-1.35
X8.55Y-3.0
X8.55Y-5.95
X8.5736Y-1.6327
X8.6Y-1.25
X8.6976Y-1.3634
X8.6988Y-1.0394
X8.7339Y-1.1028
X8.75Y-0.55
X8.7954Y-1.1468
X8.8Y-6.5
X9.1Y-0.8
X9.1Y-1.35
X9.1Y-1.8
X9.1Y-2.2
X9.1Y-2.6
X9.1Y-3.0
X9.1Y-3.4
X9.1Y-3.8
X9.1Y-4.2
X9.1Y-4.6
X9.1Y-5.0
X9.1Y-5.4
X9.1Y-5.8
X9.1Y-6.2
T2
X5.5154Y-3.152
X7.1406Y-5.9248
X7.8071Y-3.8917
X7.8646Y-4.6232
X6.1217Y-3.0685
X5.6055Y-4.1693
X6.2524Y-4.7035
X6.911Y-3.9886
X6.8185Y-4.2315
X4.9571Y-4.6461
X7.3575Y-4.335
X6.0146Y-4.4228
X3.7445Y-4.6339
X8.6303Y-5.6583
X7.0583Y-4.2437
X7.7709Y-3.7886
X4.848Y-4.9106
X5.6106Y-3.7429
X7.2169Y-2.872
X7.9661Y-3.9311
X7.7736Y-4.7138
X8.2287Y-5.0673
X6.6602Y-4.5465
X6.4394Y-5.1665
X7.7937Y-3.9815
X7.7862Y-4.1996
T3
X8.7748Y-1.2276
X9.1748Y-1.2276
T4
X7.4343Y-0.5782
X7.4343Y-0.6782
X7.4343Y-0.7782
X7.4343Y-0.8782
X7.4343Y-0.9782
X7.4343Y-1.0782
X7.5343Y-0.5382
X7.5343Y-1.1382
X7.6343Y-0.5382
X7.6343Y-1.1382
X7.7343Y-0.5382
X7.7343Y-1.1382
X7.8343Y-0.5382
X7.8343Y-1.1382
X7.9343Y-0.5382
X7.9343Y-1.1382
X8.0343Y-0.5382
X8.0343Y-1.1382
X8.1343Y-0.5382
X8.1343Y-1.1382
X8.2343Y-0.5382
X8.2343Y-1.1382
X8.3343Y-0.5382
X8.3343Y-1.1382
X8.4343Y-0.5382
X8.4343Y-1.1382
X8.5343Y-0.5382
X8.5343Y-0.6282
X8.5343Y-0.7282
X8.5343Y-0.8282
X8.5343Y-0.9282
X8.5343Y-1.0282
X8.5343Y-1.1382
X8.6343Y-0.5382
X8.6343Y-0.6282
X8.6343Y-0.7282
X8.6343Y-0.8282
X8.6343Y-0.9282
X8.6343Y-1.0282
X8.6343Y-1.1382
T5
X5.6752Y-0.822
X5.7752Y-0.822
X5.8752Y-0.822
X5.9752Y-0.822
X6.0752Y-0.822
X6.1752Y-0.822
X3.5516Y-2.0602
X3.6516Y-2.0602
X3.7516Y-2.0602
X3.8516Y-2.0602
X3.9516Y-2.0602
X4.0516Y-2.0602
X4.1516Y-2.0602
X4.2516Y-2.0602
X4.3516Y-2.0602
X4.4516Y-2.0602
X4.5516Y-2.0602
X4.6516Y-2.0602
X4.7516Y-2.0602
X4.8516Y-2.0602
X4.9516Y-2.0602
X5.0516Y-2.0602
X8.8484Y-0.5339
X8.8484Y-0.9339
X8.8484Y-1.0339
X9.1484Y-0.5339
X9.1484Y-0.9339
X9.1484Y-1.0339
X3.552Y-0.8201
X3.652Y-0.8201
X3.752Y-0.8201
X3.852Y-0.8201
X3.952Y-0.8201
X4.052Y-0.8201
X4.152Y-0.8201
X4.252Y-0.8201
X4.352Y-0.8201
X4.452Y-0.8201
X4.552Y-0.8201
X4.652Y-0.8201
X4.752Y-0.8201
X4.852Y-0.8201
X4.952Y-0.8201
X5.052Y-0.8201
X6.5874Y-1.5579
X6.5874Y-1.6579
X6.5874Y-1.7579
X6.5874Y-1.8579
X6.5878Y-2.0587
X6.6878Y-2.0587
X6.7878Y-2.0587
X6.8878Y-2.0587
X6.9878Y-2.0587
X7.0878Y-2.0587
X7.1878Y-2.0587
X7.2878Y-2.0587
X7.3878Y-2.0587
X7.4878Y-2.0587
X7.5878Y-2.0587
X7.6878Y-2.0587
X7.7878Y-2.0587
X7.8878Y-2.0587
X7.9878Y-2.0587
X8.0878Y-2.0587
X5.2937Y-0.8205
X5.3937Y-0.8205
X8.7146Y-1.6898
X8.7146Y-1.9457
X8.8917Y-1.6898
X8.8917Y-1.9457
T6
X6.522Y-1.1933
X6.622Y-1.1933
X6.722Y-1.1933
X6.7665Y-1.7579
X7.1665Y-1.7579
T7
X7.0457Y-0.7949
X7.1441Y-0.7949
T0
M30
