G04 #@! TF.GenerationSoftware,KiCad,Pcbnew,(5.1.5)-3*
G04 #@! TF.CreationDate,2020-02-20T12:19:50+01:00*
G04 #@! TF.ProjectId,carecasetester,63617265-6361-4736-9574-65737465722e,rev?*
G04 #@! TF.SameCoordinates,Original*
G04 #@! TF.FileFunction,Legend,Bot*
G04 #@! TF.FilePolarity,Positive*
%FSLAX46Y46*%
G04 Gerber Fmt 4.6, Leading zero omitted, Abs format (unit mm)*
G04 Created by KiCad (PCBNEW (5.1.5)-3) date 2020-02-20 12:19:50*
%MOMM*%
%LPD*%
G04 APERTURE LIST*
%ADD10C,0.300000*%
%ADD11C,0.200000*%
G04 APERTURE END LIST*
D10*
X170832857Y-152843571D02*
X170832857Y-151343571D01*
X170475714Y-151343571D01*
X170261428Y-151415000D01*
X170118571Y-151557857D01*
X170047142Y-151700714D01*
X169975714Y-151986428D01*
X169975714Y-152200714D01*
X170047142Y-152486428D01*
X170118571Y-152629285D01*
X170261428Y-152772142D01*
X170475714Y-152843571D01*
X170832857Y-152843571D01*
X168475714Y-152700714D02*
X168547142Y-152772142D01*
X168761428Y-152843571D01*
X168904285Y-152843571D01*
X169118571Y-152772142D01*
X169261428Y-152629285D01*
X169332857Y-152486428D01*
X169404285Y-152200714D01*
X169404285Y-151986428D01*
X169332857Y-151700714D01*
X169261428Y-151557857D01*
X169118571Y-151415000D01*
X168904285Y-151343571D01*
X168761428Y-151343571D01*
X168547142Y-151415000D01*
X168475714Y-151486428D01*
X168047142Y-151343571D02*
X167190000Y-151343571D01*
X167618571Y-152843571D02*
X167618571Y-151343571D01*
X166690000Y-152843571D02*
X166690000Y-151343571D01*
X166190000Y-152415000D01*
X165690000Y-151343571D01*
X165690000Y-152843571D01*
X164975714Y-152843571D02*
X164975714Y-151343571D01*
X164475714Y-152415000D01*
X163975714Y-151343571D01*
X163975714Y-152843571D01*
X163618571Y-152986428D02*
X162475714Y-152986428D01*
X161261428Y-152700714D02*
X161332857Y-152772142D01*
X161547142Y-152843571D01*
X161690000Y-152843571D01*
X161904285Y-152772142D01*
X162047142Y-152629285D01*
X162118571Y-152486428D01*
X162190000Y-152200714D01*
X162190000Y-151986428D01*
X162118571Y-151700714D01*
X162047142Y-151557857D01*
X161904285Y-151415000D01*
X161690000Y-151343571D01*
X161547142Y-151343571D01*
X161332857Y-151415000D01*
X161261428Y-151486428D01*
X159761428Y-152700714D02*
X159832857Y-152772142D01*
X160047142Y-152843571D01*
X160190000Y-152843571D01*
X160404285Y-152772142D01*
X160547142Y-152629285D01*
X160618571Y-152486428D01*
X160690000Y-152200714D01*
X160690000Y-151986428D01*
X160618571Y-151700714D01*
X160547142Y-151557857D01*
X160404285Y-151415000D01*
X160190000Y-151343571D01*
X160047142Y-151343571D01*
X159832857Y-151415000D01*
X159761428Y-151486428D01*
X159118571Y-152272142D02*
X157975714Y-152272142D01*
X157475714Y-151343571D02*
X156618571Y-151343571D01*
X157047142Y-152843571D02*
X157047142Y-151343571D01*
X156118571Y-152057857D02*
X155618571Y-152057857D01*
X155404285Y-152843571D02*
X156118571Y-152843571D01*
X156118571Y-151343571D01*
X155404285Y-151343571D01*
X154832857Y-152772142D02*
X154618571Y-152843571D01*
X154261428Y-152843571D01*
X154118571Y-152772142D01*
X154047142Y-152700714D01*
X153975714Y-152557857D01*
X153975714Y-152415000D01*
X154047142Y-152272142D01*
X154118571Y-152200714D01*
X154261428Y-152129285D01*
X154547142Y-152057857D01*
X154690000Y-151986428D01*
X154761428Y-151915000D01*
X154832857Y-151772142D01*
X154832857Y-151629285D01*
X154761428Y-151486428D01*
X154690000Y-151415000D01*
X154547142Y-151343571D01*
X154190000Y-151343571D01*
X153975714Y-151415000D01*
X153547142Y-151343571D02*
X152690000Y-151343571D01*
X153118571Y-152843571D02*
X153118571Y-151343571D01*
X152190000Y-152057857D02*
X151690000Y-152057857D01*
X151475714Y-152843571D02*
X152190000Y-152843571D01*
X152190000Y-151343571D01*
X151475714Y-151343571D01*
X149975714Y-152843571D02*
X150475714Y-152129285D01*
X150832857Y-152843571D02*
X150832857Y-151343571D01*
X150261428Y-151343571D01*
X150118571Y-151415000D01*
X150047142Y-151486428D01*
X149975714Y-151629285D01*
X149975714Y-151843571D01*
X150047142Y-151986428D01*
X150118571Y-152057857D01*
X150261428Y-152129285D01*
X150832857Y-152129285D01*
X148404285Y-151343571D02*
X147904285Y-152843571D01*
X147404285Y-151343571D01*
X146618571Y-151343571D02*
X146475714Y-151343571D01*
X146332857Y-151415000D01*
X146261428Y-151486428D01*
X146190000Y-151629285D01*
X146118571Y-151915000D01*
X146118571Y-152272142D01*
X146190000Y-152557857D01*
X146261428Y-152700714D01*
X146332857Y-152772142D01*
X146475714Y-152843571D01*
X146618571Y-152843571D01*
X146761428Y-152772142D01*
X146832857Y-152700714D01*
X146904285Y-152557857D01*
X146975714Y-152272142D01*
X146975714Y-151915000D01*
X146904285Y-151629285D01*
X146832857Y-151486428D01*
X146761428Y-151415000D01*
X146618571Y-151343571D01*
X145475714Y-152700714D02*
X145404285Y-152772142D01*
X145475714Y-152843571D01*
X145547142Y-152772142D01*
X145475714Y-152700714D01*
X145475714Y-152843571D01*
X143975714Y-152843571D02*
X144832857Y-152843571D01*
X144404285Y-152843571D02*
X144404285Y-151343571D01*
X144547142Y-151557857D01*
X144690000Y-151700714D01*
X144832857Y-151772142D01*
X164440000Y-154036428D02*
X164368571Y-153965000D01*
X164225714Y-153893571D01*
X163868571Y-153893571D01*
X163725714Y-153965000D01*
X163654285Y-154036428D01*
X163582857Y-154179285D01*
X163582857Y-154322142D01*
X163654285Y-154536428D01*
X164511428Y-155393571D01*
X163582857Y-155393571D01*
X162654285Y-153893571D02*
X162511428Y-153893571D01*
X162368571Y-153965000D01*
X162297142Y-154036428D01*
X162225714Y-154179285D01*
X162154285Y-154465000D01*
X162154285Y-154822142D01*
X162225714Y-155107857D01*
X162297142Y-155250714D01*
X162368571Y-155322142D01*
X162511428Y-155393571D01*
X162654285Y-155393571D01*
X162797142Y-155322142D01*
X162868571Y-155250714D01*
X162940000Y-155107857D01*
X163011428Y-154822142D01*
X163011428Y-154465000D01*
X162940000Y-154179285D01*
X162868571Y-154036428D01*
X162797142Y-153965000D01*
X162654285Y-153893571D01*
X160440000Y-153822142D02*
X161725714Y-155750714D01*
X159654285Y-153893571D02*
X159511428Y-153893571D01*
X159368571Y-153965000D01*
X159297142Y-154036428D01*
X159225714Y-154179285D01*
X159154285Y-154465000D01*
X159154285Y-154822142D01*
X159225714Y-155107857D01*
X159297142Y-155250714D01*
X159368571Y-155322142D01*
X159511428Y-155393571D01*
X159654285Y-155393571D01*
X159797142Y-155322142D01*
X159868571Y-155250714D01*
X159940000Y-155107857D01*
X160011428Y-154822142D01*
X160011428Y-154465000D01*
X159940000Y-154179285D01*
X159868571Y-154036428D01*
X159797142Y-153965000D01*
X159654285Y-153893571D01*
X158582857Y-154036428D02*
X158511428Y-153965000D01*
X158368571Y-153893571D01*
X158011428Y-153893571D01*
X157868571Y-153965000D01*
X157797142Y-154036428D01*
X157725714Y-154179285D01*
X157725714Y-154322142D01*
X157797142Y-154536428D01*
X158654285Y-155393571D01*
X157725714Y-155393571D01*
X156011428Y-153822142D02*
X157297142Y-155750714D01*
X155582857Y-154036428D02*
X155511428Y-153965000D01*
X155368571Y-153893571D01*
X155011428Y-153893571D01*
X154868571Y-153965000D01*
X154797142Y-154036428D01*
X154725714Y-154179285D01*
X154725714Y-154322142D01*
X154797142Y-154536428D01*
X155654285Y-155393571D01*
X154725714Y-155393571D01*
X153797142Y-153893571D02*
X153654285Y-153893571D01*
X153511428Y-153965000D01*
X153440000Y-154036428D01*
X153368571Y-154179285D01*
X153297142Y-154465000D01*
X153297142Y-154822142D01*
X153368571Y-155107857D01*
X153440000Y-155250714D01*
X153511428Y-155322142D01*
X153654285Y-155393571D01*
X153797142Y-155393571D01*
X153940000Y-155322142D01*
X154011428Y-155250714D01*
X154082857Y-155107857D01*
X154154285Y-154822142D01*
X154154285Y-154465000D01*
X154082857Y-154179285D01*
X154011428Y-154036428D01*
X153940000Y-153965000D01*
X153797142Y-153893571D01*
X152725714Y-154036428D02*
X152654285Y-153965000D01*
X152511428Y-153893571D01*
X152154285Y-153893571D01*
X152011428Y-153965000D01*
X151940000Y-154036428D01*
X151868571Y-154179285D01*
X151868571Y-154322142D01*
X151940000Y-154536428D01*
X152797142Y-155393571D01*
X151868571Y-155393571D01*
X150940000Y-153893571D02*
X150797142Y-153893571D01*
X150654285Y-153965000D01*
X150582857Y-154036428D01*
X150511428Y-154179285D01*
X150440000Y-154465000D01*
X150440000Y-154822142D01*
X150511428Y-155107857D01*
X150582857Y-155250714D01*
X150654285Y-155322142D01*
X150797142Y-155393571D01*
X150940000Y-155393571D01*
X151082857Y-155322142D01*
X151154285Y-155250714D01*
X151225714Y-155107857D01*
X151297142Y-154822142D01*
X151297142Y-154465000D01*
X151225714Y-154179285D01*
X151154285Y-154036428D01*
X151082857Y-153965000D01*
X150940000Y-153893571D01*
D11*
X77000000Y-20080000D02*
X77000000Y-10080000D01*
X235330000Y-10030000D02*
X235330000Y-20030000D01*
X83040924Y-14450000D02*
G75*
G03X83040924Y-14450000I-1352821J0D01*
G01*
X162982821Y-14600000D02*
G75*
G03X162982821Y-14600000I-1352821J0D01*
G01*
X161040924Y-50710000D02*
G75*
G03X161040924Y-50710000I-1352821J0D01*
G01*
X85040924Y-50710000D02*
G75*
G03X85040924Y-50710000I-1352821J0D01*
G01*
X77000000Y-20080000D02*
X77150000Y-170400000D01*
X235330000Y-10030000D02*
X77000000Y-10080000D01*
X235290000Y-170410000D02*
X235330000Y-20030000D01*
X77150000Y-170400000D02*
X235290000Y-170410000D01*
X152660000Y-78311679D02*
G75*
G03X152660000Y-78311679I-1550000J0D01*
G01*
X100610000Y-141520000D02*
G75*
G03X100610000Y-141520000I-3400000J0D01*
G01*
X218610000Y-141520000D02*
G75*
G03X218610000Y-141520000I-3400000J0D01*
G01*
X218410000Y-97450000D02*
G75*
G03X218410000Y-97450000I-3200000J0D01*
G01*
X100410000Y-97450000D02*
G75*
G03X100410000Y-97450000I-3200000J0D01*
G01*
M02*
