M48
; DRILL file {KiCad (5.1.5)-3} date 04/06/20 11:33:53
; FORMAT={-:-/ absolute / inch / decimal}
; #@! TF.CreationDate,2020-04-06T11:33:53+02:00
; #@! TF.GenerationSoftware,Kicad,Pcbnew,(5.1.5)-3
; #@! TF.FileFunction,Plated,1,2,PTH
FMAT,2
INCH
T1C0.0157
T2C0.0276
T3C0.0315
T4C0.0354
T5C0.0394
T6C0.0433
T7C0.0472
T8C0.1260
%
G90
G05
T1
X3.2Y-2.9
X3.2Y-3.3
X3.2Y-3.7
X3.2Y-4.1
X3.2Y-4.5
X3.2Y-4.9
X3.2Y-5.3
X3.2Y-5.7
X3.2Y-6.1
X3.2Y-6.5
X3.6Y-3.65
X3.6Y-6.5
X3.7291Y-2.2004
X3.75Y-3.65
X3.7555Y-2.1484
X3.9Y-1.35
X3.9Y-1.65
X3.9531Y-2.7843
X3.9705Y-3.165
X3.9705Y-3.574
X4.0Y-6.5
X4.2Y-4.5
X4.2Y-4.9
X4.2Y-5.3
X4.2Y-5.7
X4.2Y-6.1
X4.2925Y-3.165
X4.2941Y-2.7728
X4.3Y-3.5909
X4.35Y-1.35
X4.35Y-1.65
X4.4Y-6.5
X4.5606Y-2.8976
X4.6111Y-0.9999
X4.6409Y-3.6079
X4.6465Y-3.1819
X4.7551Y-1.8299
X4.8Y-6.5
X4.8547Y-1.8287
X4.9189Y-0.9303
X4.9453Y-1.0689
X4.9547Y-1.8299
X5.0531Y-1.7823
X5.0675Y-1.5386
X5.0885Y-1.4402
X5.089Y-1.4008
X5.1325Y-2.9885
X5.1327Y-3.0433
X5.1346Y-2.8496
X5.1425Y-2.1102
X5.1642Y-1.5254
X5.1744Y-2.0596
X5.1748Y-2.0177
X5.1783Y-2.4807
X5.2Y-6.5
X5.2082Y-2.9301
X5.2122Y-2.5374
X5.2146Y-1.4815
X5.2634Y-1.3717
X5.2638Y-2.0492
X5.2661Y-1.7898
X5.3075Y-1.4846
X5.3213Y-2.9984
X5.3638Y-1.7858
X5.3673Y-2.0358
X5.3909Y-1.5685
X5.3976Y-2.1126
X5.4Y-3.25
X5.4098Y-2.9345
X5.4386Y-0.9209
X5.4425Y-2.9098
X5.4791Y-2.037
X5.4811Y-1.7878
X5.5Y-5.3
X5.5Y-5.7
X5.5169Y-1.5394
X5.5346Y-1.0413
X5.5354Y-2.4807
X5.55Y-4.5
X5.55Y-4.9
X5.55Y-6.1
X5.5764Y-3.326
X5.5819Y-2.0374
X5.5913Y-3.1898
X5.5969Y-1.7921
X5.6Y-6.5
X5.6142Y-1.4358
X5.6205Y-1.624
X5.6307Y-3.3205
X5.6654Y-2.9134
X5.672Y-3.8504
X5.6724Y-2.4902
X5.7004Y-1.8126
X5.7114Y-3.3217
X5.7142Y-1.6228
X5.7276Y-3.826
X5.7386Y-1.2642
X5.7394Y-2.8339
X5.7638Y-3.3173
X5.7728Y-1.574
X5.7823Y-3.824
X5.8083Y-2.0327
X5.8118Y-1.7839
X5.8374Y-3.0105
X5.8378Y-2.8984
X5.8646Y-3.3268
X5.8692Y-2.7996
X5.87Y-2.9837
X5.8818Y-2.8683
X5.885Y-2.9075
X5.9059Y-1.015
X5.9169Y-1.7846
X5.9236Y-3.3256
X5.9327Y-1.0878
X5.9693Y-2.0949
X5.9758Y-2.8988
X6.0Y-6.5
X6.0291Y-2.0429
X6.0327Y-1.7858
X6.0416Y-2.8837
X6.0476Y-1.5575
X6.05Y-3.95
X6.0846Y-2.4661
X6.0858Y-2.8575
X6.122Y-2.8165
X6.1386Y-1.7866
X6.1799Y-1.5602
X6.1886Y-2.0413
X6.213Y-2.9517
X6.2157Y-3.8315
X6.2185Y-4.2244
X6.2346Y-1.5831
X6.2394Y-1.7894
X6.2429Y-2.127
X6.3024Y-1.4303
X6.3406Y-1.563
X6.3425Y-4.2236
X6.3502Y-3.1697
X6.3502Y-4.1299
X6.3622Y-1.7547
X6.3879Y-4.2538
X6.3882Y-4.1457
X6.4Y-6.5
X6.4065Y-4.3016
X6.4437Y-1.2646
X6.4685Y-1.7201
X6.478Y-1.8098
X6.6Y-3.1
X6.6Y-4.0
X6.6075Y-3.7236
X6.6142Y-3.4303
X6.65Y-0.85
X6.65Y-2.8
X6.6969Y-1.0435
X6.8Y-6.5
X6.878Y-4.7173
X6.9Y-4.5
X6.9Y-4.9
X6.9Y-5.35
X6.9Y-5.75
X6.9Y-6.1
X6.9122Y-3.0933
X6.9146Y-3.4213
X6.9374Y-3.7213
X6.9588Y-1.0415
X7.0055Y-1.1657
X7.0344Y-1.1311
X7.0752Y-4.6671
X7.0762Y-0.9281
X7.0795Y-1.4008
X7.0913Y-1.1415
X7.0933Y-1.0551
X7.15Y-0.55
X7.1551Y-1.3764
X7.2Y-6.5
X7.2307Y-3.0933
X7.2476Y-4.1685
X7.2492Y-3.4051
X7.2496Y-4.2709
X7.25Y-4.0
X7.2504Y-1.85
X7.2563Y-3.7236
X7.3Y-1.45
X7.3067Y-1.4067
X7.3114Y-4.2583
X7.4047Y-1.4146
X7.4925Y-1.0374
X7.5157Y-0.6429
X7.5437Y-3.9122
X7.561Y-3.4051
X7.5705Y-2.5067
X7.5728Y-3.1118
X7.5752Y-2.8024
X7.576Y-3.874
X7.5815Y-1.4049
X7.5819Y-3.7169
X7.6Y-6.5
X7.6331Y-0.7866
X7.65Y-0.65
X7.65Y-1.45
X7.6708Y-1.5105
X7.6724Y-1.0685
X7.8Y-6.05
X7.85Y-1.95
X7.85Y-2.15
X7.8524Y-2.4906
X7.8661Y-2.8024
X7.8665Y-1.0807
X7.887Y-3.1142
X7.8984Y-3.3728
X7.9Y-1.6
X7.9Y-4.5
X7.9Y-4.9
X8.0Y-6.5
X8.004Y-0.8088
X8.05Y-2.4
X8.0524Y-0.815
X8.0887Y-0.7518
X8.1181Y-3.4717
X8.1614Y-3.3811
X8.162Y-3.2924
X8.2Y-1.4
X8.2142Y-0.8276
X8.2583Y-1.637
X8.2929Y-1.2551
X8.2951Y-1.7169
X8.3Y-1.6701
X8.3535Y-1.3031
X8.3547Y-1.3433
X8.4Y-6.5
X8.4118Y-1.5157
X8.4126Y-0.9697
X8.45Y-1.3
X8.5Y-2.5
X8.5Y-4.45
X8.5Y-5.0
X8.5055Y-1.5209
X8.5409Y-1.8169
X8.55Y-1.35
X8.55Y-3.0
X8.55Y-5.95
X8.6Y-1.25
X8.6976Y-1.3634
X8.7087Y-1.1894
X8.7252Y-1.0409
X8.7339Y-1.1028
X8.75Y-0.55
X8.7567Y-1.398
X8.7954Y-1.1468
X8.8Y-6.5
X9.1Y-0.8
X9.1Y-1.35
X9.1Y-1.8
X9.1Y-2.2
X9.1Y-2.6
X9.1Y-3.0
X9.1Y-3.4
X9.1Y-3.8
X9.1Y-4.2
X9.1Y-4.6
X9.1Y-5.0
X9.1Y-5.4
X9.1Y-5.8
X9.1Y-6.2
T2
X6.1217Y-3.0685
X7.8071Y-3.8917
X7.7862Y-4.1996
X6.0146Y-4.4228
X7.2169Y-2.872
X7.9661Y-3.9311
X7.0583Y-4.2437
X6.6602Y-4.5465
X8.6303Y-5.6583
X6.911Y-3.9886
X5.5154Y-3.152
X8.2287Y-5.0673
X3.7445Y-4.6339
X7.7937Y-3.9815
X5.6106Y-3.7429
X7.1406Y-5.9248
X6.4394Y-5.1665
X7.8646Y-4.6232
X7.7736Y-4.7138
X4.9571Y-4.6461
X7.3575Y-4.335
X4.848Y-4.9106
X7.7709Y-3.7886
X6.8185Y-4.2315
X6.2524Y-4.7035
X5.6055Y-4.1693
T3
X8.7732Y-1.2217
X9.1732Y-1.2217
X8.485Y-2.365
X8.885Y-2.365
T4
X7.4343Y-0.5782
X7.4343Y-0.6782
X7.4343Y-0.7782
X7.4343Y-0.8782
X7.4343Y-0.9782
X7.4343Y-1.0782
X7.5343Y-0.5382
X7.5343Y-1.1382
X7.6343Y-0.5382
X7.6343Y-1.1382
X7.7343Y-0.5382
X7.7343Y-1.1382
X7.8343Y-0.5382
X7.8343Y-1.1382
X7.9343Y-0.5382
X7.9343Y-1.1382
X8.0343Y-0.5382
X8.0343Y-1.1382
X8.1343Y-0.5382
X8.1343Y-1.1382
X8.2343Y-0.5382
X8.2343Y-1.1382
X8.3343Y-0.5382
X8.3343Y-1.1382
X8.4343Y-0.5382
X8.4343Y-1.1382
X8.5343Y-0.5382
X8.5343Y-0.6282
X8.5343Y-0.7282
X8.5343Y-0.8282
X8.5343Y-0.9282
X8.5343Y-1.0282
X8.5343Y-1.1382
X8.6343Y-0.5382
X8.6343Y-0.6282
X8.6343Y-0.7282
X8.6343Y-0.8282
X8.6343Y-0.9282
X8.6343Y-1.0282
X8.6343Y-1.1382
T5
X6.587Y-2.0591
X6.687Y-2.0591
X6.787Y-2.0591
X6.887Y-2.0591
X6.987Y-2.0591
X7.087Y-2.0591
X7.187Y-2.0591
X7.287Y-2.0591
X7.387Y-2.0591
X7.487Y-2.0591
X7.587Y-2.0591
X7.687Y-2.0591
X7.787Y-2.0591
X7.887Y-2.0591
X7.987Y-2.0591
X8.087Y-2.0591
X5.6965Y-0.8197
X5.7965Y-0.8197
X5.8965Y-0.8197
X5.9965Y-0.8197
X6.0965Y-0.8197
X6.1965Y-0.8197
X3.552Y-0.8201
X3.652Y-0.8201
X3.752Y-0.8201
X3.852Y-0.8201
X3.952Y-0.8201
X4.052Y-0.8201
X4.152Y-0.8201
X4.252Y-0.8201
X4.352Y-0.8201
X4.452Y-0.8201
X4.552Y-0.8201
X4.652Y-0.8201
X4.752Y-0.8201
X4.852Y-0.8201
X4.952Y-0.8201
X5.052Y-0.8201
X5.4492Y-0.8197
X5.5492Y-0.8197
X5.2008Y-0.8197
X5.3008Y-0.8197
X8.5331Y-1.7169
X8.5331Y-2.1169
X8.5331Y-2.2169
X8.8331Y-1.7169
X8.8331Y-2.1169
X8.8331Y-2.2169
X8.9705Y-1.6984
X8.9705Y-1.9543
X9.1476Y-1.6984
X9.1476Y-1.9543
X3.5528Y-2.0594
X3.6528Y-2.0594
X3.7528Y-2.0594
X3.8528Y-2.0594
X3.9528Y-2.0594
X4.0528Y-2.0594
X4.1528Y-2.0594
X4.2528Y-2.0594
X4.3528Y-2.0594
X4.4528Y-2.0594
X4.5528Y-2.0594
X4.6528Y-2.0594
X4.7528Y-2.0594
X4.8528Y-2.0594
X4.9528Y-2.0594
X5.0528Y-2.0594
X8.848Y-0.5331
X8.848Y-0.9331
X8.848Y-1.0331
X9.148Y-0.5331
X9.148Y-0.9331
X9.148Y-1.0331
X6.5874Y-1.5579
X6.5874Y-1.6579
X6.5874Y-1.7579
X6.5874Y-1.8579
T6
X8.3484Y-1.8622
X8.3484Y-2.2622
X6.522Y-1.1933
X6.622Y-1.1933
X6.722Y-1.1933
T7
X7.0457Y-0.7949
X7.1441Y-0.7949
T8
X8.9055Y-6.3504
X3.3858Y-6.3504
X7.6496Y-4.4055
X3.3819Y-1.4724
X4.5472Y-4.4055
X8.9094Y-1.4724
T0
M30
