G04 #@! TF.GenerationSoftware,KiCad,Pcbnew,(5.1.5)-3*
G04 #@! TF.CreationDate,2020-04-06T11:34:40+02:00*
G04 #@! TF.ProjectId,carecasetester,63617265-6361-4736-9574-65737465722e,rev?*
G04 #@! TF.SameCoordinates,Original*
G04 #@! TF.FileFunction,Legend,Bot*
G04 #@! TF.FilePolarity,Positive*
%FSLAX46Y46*%
G04 Gerber Fmt 4.6, Leading zero omitted, Abs format (unit mm)*
G04 Created by KiCad (PCBNEW (5.1.5)-3) date 2020-04-06 11:34:40*
%MOMM*%
%LPD*%
G04 APERTURE LIST*
%ADD10C,0.300000*%
%ADD11C,0.150000*%
%ADD12C,0.250000*%
%ADD13C,0.187500*%
%ADD14C,0.200000*%
%ADD15C,0.120000*%
G04 APERTURE END LIST*
D10*
X137533571Y-14084285D02*
X137533571Y-13370000D01*
X138247857Y-13298571D01*
X138176428Y-13370000D01*
X138105000Y-13512857D01*
X138105000Y-13870000D01*
X138176428Y-14012857D01*
X138247857Y-14084285D01*
X138390714Y-14155714D01*
X138747857Y-14155714D01*
X138890714Y-14084285D01*
X138962142Y-14012857D01*
X139033571Y-13870000D01*
X139033571Y-13512857D01*
X138962142Y-13370000D01*
X138890714Y-13298571D01*
X137533571Y-14584285D02*
X139033571Y-15084285D01*
X137533571Y-15584285D01*
X140083571Y-10762857D02*
X141155000Y-10762857D01*
X141369285Y-10691428D01*
X141512142Y-10548571D01*
X141583571Y-10334285D01*
X141583571Y-10191428D01*
X140083571Y-11477142D02*
X141297857Y-11477142D01*
X141440714Y-11548571D01*
X141512142Y-11620000D01*
X141583571Y-11762857D01*
X141583571Y-12048571D01*
X141512142Y-12191428D01*
X141440714Y-12262857D01*
X141297857Y-12334285D01*
X140083571Y-12334285D01*
X141583571Y-13048571D02*
X140083571Y-13048571D01*
X141155000Y-13548571D01*
X140083571Y-14048571D01*
X141583571Y-14048571D01*
X141583571Y-14762857D02*
X140083571Y-14762857D01*
X140083571Y-15334285D01*
X140155000Y-15477142D01*
X140226428Y-15548571D01*
X140369285Y-15620000D01*
X140583571Y-15620000D01*
X140726428Y-15548571D01*
X140797857Y-15477142D01*
X140869285Y-15334285D01*
X140869285Y-14762857D01*
X140797857Y-16262857D02*
X140797857Y-16762857D01*
X141583571Y-16977142D02*
X141583571Y-16262857D01*
X140083571Y-16262857D01*
X140083571Y-16977142D01*
X141583571Y-18477142D02*
X140869285Y-17977142D01*
X141583571Y-17620000D02*
X140083571Y-17620000D01*
X140083571Y-18191428D01*
X140155000Y-18334285D01*
X140226428Y-18405714D01*
X140369285Y-18477142D01*
X140583571Y-18477142D01*
X140726428Y-18405714D01*
X140797857Y-18334285D01*
X140869285Y-18191428D01*
X140869285Y-17620000D01*
D11*
X187131071Y-14250000D02*
X187202500Y-14214285D01*
X187309642Y-14214285D01*
X187416785Y-14250000D01*
X187488214Y-14321428D01*
X187523928Y-14392857D01*
X187559642Y-14535714D01*
X187559642Y-14642857D01*
X187523928Y-14785714D01*
X187488214Y-14857142D01*
X187416785Y-14928571D01*
X187309642Y-14964285D01*
X187238214Y-14964285D01*
X187131071Y-14928571D01*
X187095357Y-14892857D01*
X187095357Y-14642857D01*
X187238214Y-14642857D01*
X186773928Y-14964285D02*
X186773928Y-14214285D01*
X186345357Y-14964285D01*
X186345357Y-14214285D01*
X185988214Y-14964285D02*
X185988214Y-14214285D01*
X185809642Y-14214285D01*
X185702500Y-14250000D01*
X185631071Y-14321428D01*
X185595357Y-14392857D01*
X185559642Y-14535714D01*
X185559642Y-14642857D01*
X185595357Y-14785714D01*
X185631071Y-14857142D01*
X185702500Y-14928571D01*
X185809642Y-14964285D01*
X185988214Y-14964285D01*
X187131071Y-16800000D02*
X187202500Y-16764285D01*
X187309642Y-16764285D01*
X187416785Y-16800000D01*
X187488214Y-16871428D01*
X187523928Y-16942857D01*
X187559642Y-17085714D01*
X187559642Y-17192857D01*
X187523928Y-17335714D01*
X187488214Y-17407142D01*
X187416785Y-17478571D01*
X187309642Y-17514285D01*
X187238214Y-17514285D01*
X187131071Y-17478571D01*
X187095357Y-17442857D01*
X187095357Y-17192857D01*
X187238214Y-17192857D01*
X186773928Y-17514285D02*
X186773928Y-16764285D01*
X186345357Y-17514285D01*
X186345357Y-16764285D01*
X185988214Y-17514285D02*
X185988214Y-16764285D01*
X185809642Y-16764285D01*
X185702500Y-16800000D01*
X185631071Y-16871428D01*
X185595357Y-16942857D01*
X185559642Y-17085714D01*
X185559642Y-17192857D01*
X185595357Y-17335714D01*
X185631071Y-17407142D01*
X185702500Y-17478571D01*
X185809642Y-17514285D01*
X185988214Y-17514285D01*
X187166785Y-19314285D02*
X187523928Y-19314285D01*
X187559642Y-19671428D01*
X187523928Y-19635714D01*
X187452500Y-19600000D01*
X187273928Y-19600000D01*
X187202500Y-19635714D01*
X187166785Y-19671428D01*
X187131071Y-19742857D01*
X187131071Y-19921428D01*
X187166785Y-19992857D01*
X187202500Y-20028571D01*
X187273928Y-20064285D01*
X187452500Y-20064285D01*
X187523928Y-20028571D01*
X187559642Y-19992857D01*
X186916785Y-19314285D02*
X186666785Y-20064285D01*
X186416785Y-19314285D01*
X187095357Y-22614285D02*
X187345357Y-22257142D01*
X187523928Y-22614285D02*
X187523928Y-21864285D01*
X187238214Y-21864285D01*
X187166785Y-21900000D01*
X187131071Y-21935714D01*
X187095357Y-22007142D01*
X187095357Y-22114285D01*
X187131071Y-22185714D01*
X187166785Y-22221428D01*
X187238214Y-22257142D01*
X187523928Y-22257142D01*
X186845357Y-21864285D02*
X186345357Y-22614285D01*
X186345357Y-21864285D02*
X186845357Y-22614285D01*
X187631071Y-24414285D02*
X187202500Y-24414285D01*
X187416785Y-25164285D02*
X187416785Y-24414285D01*
X187023928Y-24414285D02*
X186523928Y-25164285D01*
X186523928Y-24414285D02*
X187023928Y-25164285D01*
X187523928Y-27714285D02*
X187523928Y-26964285D01*
X187345357Y-26964285D01*
X187238214Y-27000000D01*
X187166785Y-27071428D01*
X187131071Y-27142857D01*
X187095357Y-27285714D01*
X187095357Y-27392857D01*
X187131071Y-27535714D01*
X187166785Y-27607142D01*
X187238214Y-27678571D01*
X187345357Y-27714285D01*
X187523928Y-27714285D01*
X186773928Y-27714285D02*
X186773928Y-26964285D01*
X185988214Y-27714285D02*
X186238214Y-27357142D01*
X186416785Y-27714285D02*
X186416785Y-26964285D01*
X186131071Y-26964285D01*
X186059642Y-27000000D01*
X186023928Y-27035714D01*
X185988214Y-27107142D01*
X185988214Y-27214285D01*
X186023928Y-27285714D01*
X186059642Y-27321428D01*
X186131071Y-27357142D01*
X186416785Y-27357142D01*
X190864285Y-30168928D02*
X190864285Y-30597500D01*
X191614285Y-30383214D02*
X190864285Y-30383214D01*
X190864285Y-30776071D02*
X191614285Y-31276071D01*
X190864285Y-31276071D02*
X191614285Y-30776071D01*
X191614285Y-31561785D02*
X190864285Y-31561785D01*
X190864285Y-31740357D01*
X190900000Y-31847500D01*
X190971428Y-31918928D01*
X191042857Y-31954642D01*
X191185714Y-31990357D01*
X191292857Y-31990357D01*
X191435714Y-31954642D01*
X191507142Y-31918928D01*
X191578571Y-31847500D01*
X191614285Y-31740357D01*
X191614285Y-31561785D01*
X194164285Y-30704642D02*
X193807142Y-30454642D01*
X194164285Y-30276071D02*
X193414285Y-30276071D01*
X193414285Y-30561785D01*
X193450000Y-30633214D01*
X193485714Y-30668928D01*
X193557142Y-30704642D01*
X193664285Y-30704642D01*
X193735714Y-30668928D01*
X193771428Y-30633214D01*
X193807142Y-30561785D01*
X193807142Y-30276071D01*
X193414285Y-30954642D02*
X194164285Y-31454642D01*
X193414285Y-31454642D02*
X194164285Y-30954642D01*
X194164285Y-31740357D02*
X193414285Y-31740357D01*
X193414285Y-31918928D01*
X193450000Y-32026071D01*
X193521428Y-32097500D01*
X193592857Y-32133214D01*
X193735714Y-32168928D01*
X193842857Y-32168928D01*
X193985714Y-32133214D01*
X194057142Y-32097500D01*
X194128571Y-32026071D01*
X194164285Y-31918928D01*
X194164285Y-31740357D01*
X196714285Y-30704642D02*
X196357142Y-30454642D01*
X196714285Y-30276071D02*
X195964285Y-30276071D01*
X195964285Y-30561785D01*
X196000000Y-30633214D01*
X196035714Y-30668928D01*
X196107142Y-30704642D01*
X196214285Y-30704642D01*
X196285714Y-30668928D01*
X196321428Y-30633214D01*
X196357142Y-30561785D01*
X196357142Y-30276071D01*
X196321428Y-31026071D02*
X196321428Y-31276071D01*
X196714285Y-31383214D02*
X196714285Y-31026071D01*
X195964285Y-31026071D01*
X195964285Y-31383214D01*
X196678571Y-31668928D02*
X196714285Y-31776071D01*
X196714285Y-31954642D01*
X196678571Y-32026071D01*
X196642857Y-32061785D01*
X196571428Y-32097500D01*
X196500000Y-32097500D01*
X196428571Y-32061785D01*
X196392857Y-32026071D01*
X196357142Y-31954642D01*
X196321428Y-31811785D01*
X196285714Y-31740357D01*
X196250000Y-31704642D01*
X196178571Y-31668928D01*
X196107142Y-31668928D01*
X196035714Y-31704642D01*
X196000000Y-31740357D01*
X195964285Y-31811785D01*
X195964285Y-31990357D01*
X196000000Y-32097500D01*
X196321428Y-32418928D02*
X196321428Y-32668928D01*
X196714285Y-32776071D02*
X196714285Y-32418928D01*
X195964285Y-32418928D01*
X195964285Y-32776071D01*
X195964285Y-32990357D02*
X195964285Y-33418928D01*
X196714285Y-33204642D02*
X195964285Y-33204642D01*
X198550000Y-30668928D02*
X198514285Y-30597500D01*
X198514285Y-30490357D01*
X198550000Y-30383214D01*
X198621428Y-30311785D01*
X198692857Y-30276071D01*
X198835714Y-30240357D01*
X198942857Y-30240357D01*
X199085714Y-30276071D01*
X199157142Y-30311785D01*
X199228571Y-30383214D01*
X199264285Y-30490357D01*
X199264285Y-30561785D01*
X199228571Y-30668928D01*
X199192857Y-30704642D01*
X198942857Y-30704642D01*
X198942857Y-30561785D01*
X199264285Y-31026071D02*
X198514285Y-31026071D01*
X199264285Y-31454642D01*
X198514285Y-31454642D01*
X199264285Y-31811785D02*
X198514285Y-31811785D01*
X198514285Y-31990357D01*
X198550000Y-32097500D01*
X198621428Y-32168928D01*
X198692857Y-32204642D01*
X198835714Y-32240357D01*
X198942857Y-32240357D01*
X199085714Y-32204642D01*
X199157142Y-32168928D01*
X199228571Y-32097500D01*
X199264285Y-31990357D01*
X199264285Y-31811785D01*
X201135714Y-30240357D02*
X201100000Y-30276071D01*
X201064285Y-30347500D01*
X201064285Y-30526071D01*
X201100000Y-30597500D01*
X201135714Y-30633214D01*
X201207142Y-30668928D01*
X201278571Y-30668928D01*
X201385714Y-30633214D01*
X201814285Y-30204642D01*
X201814285Y-30668928D01*
X203614285Y-30204642D02*
X203614285Y-30668928D01*
X203900000Y-30418928D01*
X203900000Y-30526071D01*
X203935714Y-30597500D01*
X203971428Y-30633214D01*
X204042857Y-30668928D01*
X204221428Y-30668928D01*
X204292857Y-30633214D01*
X204328571Y-30597500D01*
X204364285Y-30526071D01*
X204364285Y-30311785D01*
X204328571Y-30240357D01*
X204292857Y-30204642D01*
X206414285Y-30597500D02*
X206914285Y-30597500D01*
X206128571Y-30418928D02*
X206664285Y-30240357D01*
X206664285Y-30704642D01*
X208714285Y-30633214D02*
X208714285Y-30276071D01*
X209071428Y-30240357D01*
X209035714Y-30276071D01*
X209000000Y-30347500D01*
X209000000Y-30526071D01*
X209035714Y-30597500D01*
X209071428Y-30633214D01*
X209142857Y-30668928D01*
X209321428Y-30668928D01*
X209392857Y-30633214D01*
X209428571Y-30597500D01*
X209464285Y-30526071D01*
X209464285Y-30347500D01*
X209428571Y-30276071D01*
X209392857Y-30240357D01*
X211264285Y-30597500D02*
X211264285Y-30454642D01*
X211300000Y-30383214D01*
X211335714Y-30347500D01*
X211442857Y-30276071D01*
X211585714Y-30240357D01*
X211871428Y-30240357D01*
X211942857Y-30276071D01*
X211978571Y-30311785D01*
X212014285Y-30383214D01*
X212014285Y-30526071D01*
X211978571Y-30597500D01*
X211942857Y-30633214D01*
X211871428Y-30668928D01*
X211692857Y-30668928D01*
X211621428Y-30633214D01*
X211585714Y-30597500D01*
X211550000Y-30526071D01*
X211550000Y-30383214D01*
X211585714Y-30311785D01*
X211621428Y-30276071D01*
X211692857Y-30240357D01*
X213814285Y-30204642D02*
X213814285Y-30704642D01*
X214564285Y-30383214D01*
X216685714Y-30383214D02*
X216650000Y-30311785D01*
X216614285Y-30276071D01*
X216542857Y-30240357D01*
X216507142Y-30240357D01*
X216435714Y-30276071D01*
X216400000Y-30311785D01*
X216364285Y-30383214D01*
X216364285Y-30526071D01*
X216400000Y-30597500D01*
X216435714Y-30633214D01*
X216507142Y-30668928D01*
X216542857Y-30668928D01*
X216614285Y-30633214D01*
X216650000Y-30597500D01*
X216685714Y-30526071D01*
X216685714Y-30383214D01*
X216721428Y-30311785D01*
X216757142Y-30276071D01*
X216828571Y-30240357D01*
X216971428Y-30240357D01*
X217042857Y-30276071D01*
X217078571Y-30311785D01*
X217114285Y-30383214D01*
X217114285Y-30526071D01*
X217078571Y-30597500D01*
X217042857Y-30633214D01*
X216971428Y-30668928D01*
X216828571Y-30668928D01*
X216757142Y-30633214D01*
X216721428Y-30597500D01*
X216685714Y-30526071D01*
X219664285Y-30311785D02*
X219664285Y-30454642D01*
X219628571Y-30526071D01*
X219592857Y-30561785D01*
X219485714Y-30633214D01*
X219342857Y-30668928D01*
X219057142Y-30668928D01*
X218985714Y-30633214D01*
X218950000Y-30597500D01*
X218914285Y-30526071D01*
X218914285Y-30383214D01*
X218950000Y-30311785D01*
X218985714Y-30276071D01*
X219057142Y-30240357D01*
X219235714Y-30240357D01*
X219307142Y-30276071D01*
X219342857Y-30311785D01*
X219378571Y-30383214D01*
X219378571Y-30526071D01*
X219342857Y-30597500D01*
X219307142Y-30633214D01*
X219235714Y-30668928D01*
X191714285Y-10759642D02*
X191357142Y-10509642D01*
X191714285Y-10331071D02*
X190964285Y-10331071D01*
X190964285Y-10616785D01*
X191000000Y-10688214D01*
X191035714Y-10723928D01*
X191107142Y-10759642D01*
X191214285Y-10759642D01*
X191285714Y-10723928D01*
X191321428Y-10688214D01*
X191357142Y-10616785D01*
X191357142Y-10331071D01*
X191500000Y-11045357D02*
X191500000Y-11402500D01*
X191714285Y-10973928D02*
X190964285Y-11223928D01*
X191714285Y-11473928D01*
X190964285Y-11652500D02*
X191714285Y-11831071D01*
X191178571Y-11973928D01*
X191714285Y-12116785D01*
X190964285Y-12295357D01*
X193550000Y-10688214D02*
X193514285Y-10616785D01*
X193514285Y-10509642D01*
X193550000Y-10402500D01*
X193621428Y-10331071D01*
X193692857Y-10295357D01*
X193835714Y-10259642D01*
X193942857Y-10259642D01*
X194085714Y-10295357D01*
X194157142Y-10331071D01*
X194228571Y-10402500D01*
X194264285Y-10509642D01*
X194264285Y-10581071D01*
X194228571Y-10688214D01*
X194192857Y-10723928D01*
X193942857Y-10723928D01*
X193942857Y-10581071D01*
X194264285Y-11045357D02*
X193514285Y-11045357D01*
X194264285Y-11473928D01*
X193514285Y-11473928D01*
X194264285Y-11831071D02*
X193514285Y-11831071D01*
X193514285Y-12009642D01*
X193550000Y-12116785D01*
X193621428Y-12188214D01*
X193692857Y-12223928D01*
X193835714Y-12259642D01*
X193942857Y-12259642D01*
X194085714Y-12223928D01*
X194157142Y-12188214D01*
X194228571Y-12116785D01*
X194264285Y-12009642D01*
X194264285Y-11831071D01*
X196814285Y-9616785D02*
X196457142Y-9366785D01*
X196814285Y-9188214D02*
X196064285Y-9188214D01*
X196064285Y-9473928D01*
X196100000Y-9545357D01*
X196135714Y-9581071D01*
X196207142Y-9616785D01*
X196314285Y-9616785D01*
X196385714Y-9581071D01*
X196421428Y-9545357D01*
X196457142Y-9473928D01*
X196457142Y-9188214D01*
X196421428Y-9938214D02*
X196421428Y-10188214D01*
X196814285Y-10295357D02*
X196814285Y-9938214D01*
X196064285Y-9938214D01*
X196064285Y-10295357D01*
X196778571Y-10581071D02*
X196814285Y-10688214D01*
X196814285Y-10866785D01*
X196778571Y-10938214D01*
X196742857Y-10973928D01*
X196671428Y-11009642D01*
X196600000Y-11009642D01*
X196528571Y-10973928D01*
X196492857Y-10938214D01*
X196457142Y-10866785D01*
X196421428Y-10723928D01*
X196385714Y-10652500D01*
X196350000Y-10616785D01*
X196278571Y-10581071D01*
X196207142Y-10581071D01*
X196135714Y-10616785D01*
X196100000Y-10652500D01*
X196064285Y-10723928D01*
X196064285Y-10902500D01*
X196100000Y-11009642D01*
X196421428Y-11331071D02*
X196421428Y-11581071D01*
X196814285Y-11688214D02*
X196814285Y-11331071D01*
X196064285Y-11331071D01*
X196064285Y-11688214D01*
X196064285Y-11902500D02*
X196064285Y-12331071D01*
X196814285Y-12116785D02*
X196064285Y-12116785D01*
X198614285Y-10331071D02*
X199364285Y-10581071D01*
X198614285Y-10831071D01*
X199292857Y-11509642D02*
X199328571Y-11473928D01*
X199364285Y-11366785D01*
X199364285Y-11295357D01*
X199328571Y-11188214D01*
X199257142Y-11116785D01*
X199185714Y-11081071D01*
X199042857Y-11045357D01*
X198935714Y-11045357D01*
X198792857Y-11081071D01*
X198721428Y-11116785D01*
X198650000Y-11188214D01*
X198614285Y-11295357D01*
X198614285Y-11366785D01*
X198650000Y-11473928D01*
X198685714Y-11509642D01*
X199292857Y-12259642D02*
X199328571Y-12223928D01*
X199364285Y-12116785D01*
X199364285Y-12045357D01*
X199328571Y-11938214D01*
X199257142Y-11866785D01*
X199185714Y-11831071D01*
X199042857Y-11795357D01*
X198935714Y-11795357D01*
X198792857Y-11831071D01*
X198721428Y-11866785D01*
X198650000Y-11938214D01*
X198614285Y-12045357D01*
X198614285Y-12116785D01*
X198650000Y-12223928D01*
X198685714Y-12259642D01*
X201700000Y-11188214D02*
X201700000Y-11545357D01*
X201914285Y-11116785D02*
X201164285Y-11366785D01*
X201914285Y-11616785D01*
X201164285Y-11795357D02*
X201164285Y-12259642D01*
X201450000Y-12009642D01*
X201450000Y-12116785D01*
X201485714Y-12188214D01*
X201521428Y-12223928D01*
X201592857Y-12259642D01*
X201771428Y-12259642D01*
X201842857Y-12223928D01*
X201878571Y-12188214D01*
X201914285Y-12116785D01*
X201914285Y-11902500D01*
X201878571Y-11831071D01*
X201842857Y-11795357D01*
X204250000Y-11188214D02*
X204250000Y-11545357D01*
X204464285Y-11116785D02*
X203714285Y-11366785D01*
X204464285Y-11616785D01*
X203785714Y-11831071D02*
X203750000Y-11866785D01*
X203714285Y-11938214D01*
X203714285Y-12116785D01*
X203750000Y-12188214D01*
X203785714Y-12223928D01*
X203857142Y-12259642D01*
X203928571Y-12259642D01*
X204035714Y-12223928D01*
X204464285Y-11795357D01*
X204464285Y-12259642D01*
X206800000Y-11188214D02*
X206800000Y-11545357D01*
X207014285Y-11116785D02*
X206264285Y-11366785D01*
X207014285Y-11616785D01*
X207014285Y-12259642D02*
X207014285Y-11831071D01*
X207014285Y-12045357D02*
X206264285Y-12045357D01*
X206371428Y-11973928D01*
X206442857Y-11902500D01*
X206478571Y-11831071D01*
X209350000Y-11188214D02*
X209350000Y-11545357D01*
X209564285Y-11116785D02*
X208814285Y-11366785D01*
X209564285Y-11616785D01*
X208814285Y-12009642D02*
X208814285Y-12081071D01*
X208850000Y-12152500D01*
X208885714Y-12188214D01*
X208957142Y-12223928D01*
X209100000Y-12259642D01*
X209278571Y-12259642D01*
X209421428Y-12223928D01*
X209492857Y-12188214D01*
X209528571Y-12152500D01*
X209564285Y-12081071D01*
X209564285Y-12009642D01*
X209528571Y-11938214D01*
X209492857Y-11902500D01*
X209421428Y-11866785D01*
X209278571Y-11831071D01*
X209100000Y-11831071D01*
X208957142Y-11866785D01*
X208885714Y-11902500D01*
X208850000Y-11938214D01*
X208814285Y-12009642D01*
X212114285Y-11545357D02*
X212114285Y-11116785D01*
X212114285Y-11331071D02*
X211364285Y-11331071D01*
X211471428Y-11259642D01*
X211542857Y-11188214D01*
X211578571Y-11116785D01*
X211364285Y-11795357D02*
X211364285Y-12259642D01*
X211650000Y-12009642D01*
X211650000Y-12116785D01*
X211685714Y-12188214D01*
X211721428Y-12223928D01*
X211792857Y-12259642D01*
X211971428Y-12259642D01*
X212042857Y-12223928D01*
X212078571Y-12188214D01*
X212114285Y-12116785D01*
X212114285Y-11902500D01*
X212078571Y-11831071D01*
X212042857Y-11795357D01*
X214664285Y-11545357D02*
X214664285Y-11116785D01*
X214664285Y-11331071D02*
X213914285Y-11331071D01*
X214021428Y-11259642D01*
X214092857Y-11188214D01*
X214128571Y-11116785D01*
X213985714Y-11831071D02*
X213950000Y-11866785D01*
X213914285Y-11938214D01*
X213914285Y-12116785D01*
X213950000Y-12188214D01*
X213985714Y-12223928D01*
X214057142Y-12259642D01*
X214128571Y-12259642D01*
X214235714Y-12223928D01*
X214664285Y-11795357D01*
X214664285Y-12259642D01*
X217214285Y-11545357D02*
X217214285Y-11116785D01*
X217214285Y-11331071D02*
X216464285Y-11331071D01*
X216571428Y-11259642D01*
X216642857Y-11188214D01*
X216678571Y-11116785D01*
X217214285Y-12259642D02*
X217214285Y-11831071D01*
X217214285Y-12045357D02*
X216464285Y-12045357D01*
X216571428Y-11973928D01*
X216642857Y-11902500D01*
X216678571Y-11831071D01*
X219764285Y-11545357D02*
X219764285Y-11116785D01*
X219764285Y-11331071D02*
X219014285Y-11331071D01*
X219121428Y-11259642D01*
X219192857Y-11188214D01*
X219228571Y-11116785D01*
X219014285Y-12009642D02*
X219014285Y-12081071D01*
X219050000Y-12152500D01*
X219085714Y-12188214D01*
X219157142Y-12223928D01*
X219300000Y-12259642D01*
X219478571Y-12259642D01*
X219621428Y-12223928D01*
X219692857Y-12188214D01*
X219728571Y-12152500D01*
X219764285Y-12081071D01*
X219764285Y-12009642D01*
X219728571Y-11938214D01*
X219692857Y-11902500D01*
X219621428Y-11866785D01*
X219478571Y-11831071D01*
X219300000Y-11831071D01*
X219157142Y-11866785D01*
X219085714Y-11902500D01*
X219050000Y-11938214D01*
X219014285Y-12009642D01*
D12*
X90046666Y-54177619D02*
X89475238Y-54177619D01*
X89760952Y-54177619D02*
X89760952Y-55177619D01*
X89665714Y-55034761D01*
X89570476Y-54939523D01*
X89475238Y-54891904D01*
X90903809Y-54844285D02*
X90903809Y-54177619D01*
X90665714Y-55225238D02*
X90427619Y-54510952D01*
X91046666Y-54510952D01*
X92713333Y-54177619D02*
X92141904Y-54177619D01*
X92427619Y-54177619D02*
X92427619Y-55177619D01*
X92332380Y-55034761D01*
X92237142Y-54939523D01*
X92141904Y-54891904D01*
X93046666Y-55177619D02*
X93665714Y-55177619D01*
X93332380Y-54796666D01*
X93475238Y-54796666D01*
X93570476Y-54749047D01*
X93618095Y-54701428D01*
X93665714Y-54606190D01*
X93665714Y-54368095D01*
X93618095Y-54272857D01*
X93570476Y-54225238D01*
X93475238Y-54177619D01*
X93189523Y-54177619D01*
X93094285Y-54225238D01*
X93046666Y-54272857D01*
X95380000Y-54177619D02*
X94808571Y-54177619D01*
X95094285Y-54177619D02*
X95094285Y-55177619D01*
X94999047Y-55034761D01*
X94903809Y-54939523D01*
X94808571Y-54891904D01*
X95760952Y-55082380D02*
X95808571Y-55130000D01*
X95903809Y-55177619D01*
X96141904Y-55177619D01*
X96237142Y-55130000D01*
X96284761Y-55082380D01*
X96332380Y-54987142D01*
X96332380Y-54891904D01*
X96284761Y-54749047D01*
X95713333Y-54177619D01*
X96332380Y-54177619D01*
X98046666Y-54177619D02*
X97475238Y-54177619D01*
X97760952Y-54177619D02*
X97760952Y-55177619D01*
X97665714Y-55034761D01*
X97570476Y-54939523D01*
X97475238Y-54891904D01*
X98999047Y-54177619D02*
X98427619Y-54177619D01*
X98713333Y-54177619D02*
X98713333Y-55177619D01*
X98618095Y-55034761D01*
X98522857Y-54939523D01*
X98427619Y-54891904D01*
X100713333Y-54177619D02*
X100141904Y-54177619D01*
X100427619Y-54177619D02*
X100427619Y-55177619D01*
X100332380Y-55034761D01*
X100237142Y-54939523D01*
X100141904Y-54891904D01*
X101332380Y-55177619D02*
X101427619Y-55177619D01*
X101522857Y-55130000D01*
X101570476Y-55082380D01*
X101618095Y-54987142D01*
X101665714Y-54796666D01*
X101665714Y-54558571D01*
X101618095Y-54368095D01*
X101570476Y-54272857D01*
X101522857Y-54225238D01*
X101427619Y-54177619D01*
X101332380Y-54177619D01*
X101237142Y-54225238D01*
X101189523Y-54272857D01*
X101141904Y-54368095D01*
X101094285Y-54558571D01*
X101094285Y-54796666D01*
X101141904Y-54987142D01*
X101189523Y-55082380D01*
X101237142Y-55130000D01*
X101332380Y-55177619D01*
X102903809Y-54177619D02*
X103094285Y-54177619D01*
X103189523Y-54225238D01*
X103237142Y-54272857D01*
X103332380Y-54415714D01*
X103380000Y-54606190D01*
X103380000Y-54987142D01*
X103332380Y-55082380D01*
X103284761Y-55130000D01*
X103189523Y-55177619D01*
X102999047Y-55177619D01*
X102903809Y-55130000D01*
X102856190Y-55082380D01*
X102808571Y-54987142D01*
X102808571Y-54749047D01*
X102856190Y-54653809D01*
X102903809Y-54606190D01*
X102999047Y-54558571D01*
X103189523Y-54558571D01*
X103284761Y-54606190D01*
X103332380Y-54653809D01*
X103380000Y-54749047D01*
X105475238Y-54749047D02*
X105380000Y-54796666D01*
X105332380Y-54844285D01*
X105284761Y-54939523D01*
X105284761Y-54987142D01*
X105332380Y-55082380D01*
X105380000Y-55130000D01*
X105475238Y-55177619D01*
X105665714Y-55177619D01*
X105760952Y-55130000D01*
X105808571Y-55082380D01*
X105856190Y-54987142D01*
X105856190Y-54939523D01*
X105808571Y-54844285D01*
X105760952Y-54796666D01*
X105665714Y-54749047D01*
X105475238Y-54749047D01*
X105380000Y-54701428D01*
X105332380Y-54653809D01*
X105284761Y-54558571D01*
X105284761Y-54368095D01*
X105332380Y-54272857D01*
X105380000Y-54225238D01*
X105475238Y-54177619D01*
X105665714Y-54177619D01*
X105760952Y-54225238D01*
X105808571Y-54272857D01*
X105856190Y-54368095D01*
X105856190Y-54558571D01*
X105808571Y-54653809D01*
X105760952Y-54701428D01*
X105665714Y-54749047D01*
X107713333Y-55177619D02*
X108380000Y-55177619D01*
X107951428Y-54177619D01*
X110713333Y-55177619D02*
X110522857Y-55177619D01*
X110427619Y-55130000D01*
X110380000Y-55082380D01*
X110284761Y-54939523D01*
X110237142Y-54749047D01*
X110237142Y-54368095D01*
X110284761Y-54272857D01*
X110332380Y-54225238D01*
X110427619Y-54177619D01*
X110618095Y-54177619D01*
X110713333Y-54225238D01*
X110760952Y-54272857D01*
X110808571Y-54368095D01*
X110808571Y-54606190D01*
X110760952Y-54701428D01*
X110713333Y-54749047D01*
X110618095Y-54796666D01*
X110427619Y-54796666D01*
X110332380Y-54749047D01*
X110284761Y-54701428D01*
X110237142Y-54606190D01*
X113237142Y-55177619D02*
X112760952Y-55177619D01*
X112713333Y-54701428D01*
X112760952Y-54749047D01*
X112856190Y-54796666D01*
X113094285Y-54796666D01*
X113189523Y-54749047D01*
X113237142Y-54701428D01*
X113284761Y-54606190D01*
X113284761Y-54368095D01*
X113237142Y-54272857D01*
X113189523Y-54225238D01*
X113094285Y-54177619D01*
X112856190Y-54177619D01*
X112760952Y-54225238D01*
X112713333Y-54272857D01*
X115665714Y-54844285D02*
X115665714Y-54177619D01*
X115427619Y-55225238D02*
X115189523Y-54510952D01*
X115808571Y-54510952D01*
X117618095Y-55177619D02*
X118237142Y-55177619D01*
X117903809Y-54796666D01*
X118046666Y-54796666D01*
X118141904Y-54749047D01*
X118189523Y-54701428D01*
X118237142Y-54606190D01*
X118237142Y-54368095D01*
X118189523Y-54272857D01*
X118141904Y-54225238D01*
X118046666Y-54177619D01*
X117760952Y-54177619D01*
X117665714Y-54225238D01*
X117618095Y-54272857D01*
X120141904Y-55082380D02*
X120189523Y-55130000D01*
X120284761Y-55177619D01*
X120522857Y-55177619D01*
X120618095Y-55130000D01*
X120665714Y-55082380D01*
X120713333Y-54987142D01*
X120713333Y-54891904D01*
X120665714Y-54749047D01*
X120094285Y-54177619D01*
X120713333Y-54177619D01*
X123189523Y-54177619D02*
X122618095Y-54177619D01*
X122903809Y-54177619D02*
X122903809Y-55177619D01*
X122808571Y-55034761D01*
X122713333Y-54939523D01*
X122618095Y-54891904D01*
X125665714Y-54177619D02*
X125094285Y-54177619D01*
X125380000Y-54177619D02*
X125380000Y-55177619D01*
X125284761Y-55034761D01*
X125189523Y-54939523D01*
X125094285Y-54891904D01*
X126570476Y-55177619D02*
X126094285Y-55177619D01*
X126046666Y-54701428D01*
X126094285Y-54749047D01*
X126189523Y-54796666D01*
X126427619Y-54796666D01*
X126522857Y-54749047D01*
X126570476Y-54701428D01*
X126618095Y-54606190D01*
X126618095Y-54368095D01*
X126570476Y-54272857D01*
X126522857Y-54225238D01*
X126427619Y-54177619D01*
X126189523Y-54177619D01*
X126094285Y-54225238D01*
X126046666Y-54272857D01*
X128332380Y-54177619D02*
X127760952Y-54177619D01*
X128046666Y-54177619D02*
X128046666Y-55177619D01*
X127951428Y-55034761D01*
X127856190Y-54939523D01*
X127760952Y-54891904D01*
X129189523Y-55177619D02*
X128999047Y-55177619D01*
X128903809Y-55130000D01*
X128856190Y-55082380D01*
X128760952Y-54939523D01*
X128713333Y-54749047D01*
X128713333Y-54368095D01*
X128760952Y-54272857D01*
X128808571Y-54225238D01*
X128903809Y-54177619D01*
X129094285Y-54177619D01*
X129189523Y-54225238D01*
X129237142Y-54272857D01*
X129284761Y-54368095D01*
X129284761Y-54606190D01*
X129237142Y-54701428D01*
X129189523Y-54749047D01*
X129094285Y-54796666D01*
X128903809Y-54796666D01*
X128808571Y-54749047D01*
X128760952Y-54701428D01*
X128713333Y-54606190D01*
X167737619Y-54017619D02*
X167166190Y-54017619D01*
X167451904Y-54017619D02*
X167451904Y-55017619D01*
X167356666Y-54874761D01*
X167261428Y-54779523D01*
X167166190Y-54731904D01*
X169642380Y-54922380D02*
X169690000Y-54970000D01*
X169785238Y-55017619D01*
X170023333Y-55017619D01*
X170118571Y-54970000D01*
X170166190Y-54922380D01*
X170213809Y-54827142D01*
X170213809Y-54731904D01*
X170166190Y-54589047D01*
X169594761Y-54017619D01*
X170213809Y-54017619D01*
X172070952Y-55017619D02*
X172690000Y-55017619D01*
X172356666Y-54636666D01*
X172499523Y-54636666D01*
X172594761Y-54589047D01*
X172642380Y-54541428D01*
X172690000Y-54446190D01*
X172690000Y-54208095D01*
X172642380Y-54112857D01*
X172594761Y-54065238D01*
X172499523Y-54017619D01*
X172213809Y-54017619D01*
X172118571Y-54065238D01*
X172070952Y-54112857D01*
X175070952Y-54684285D02*
X175070952Y-54017619D01*
X174832857Y-55065238D02*
X174594761Y-54350952D01*
X175213809Y-54350952D01*
X177594761Y-55017619D02*
X177118571Y-55017619D01*
X177070952Y-54541428D01*
X177118571Y-54589047D01*
X177213809Y-54636666D01*
X177451904Y-54636666D01*
X177547142Y-54589047D01*
X177594761Y-54541428D01*
X177642380Y-54446190D01*
X177642380Y-54208095D01*
X177594761Y-54112857D01*
X177547142Y-54065238D01*
X177451904Y-54017619D01*
X177213809Y-54017619D01*
X177118571Y-54065238D01*
X177070952Y-54112857D01*
X180023333Y-55017619D02*
X179832857Y-55017619D01*
X179737619Y-54970000D01*
X179690000Y-54922380D01*
X179594761Y-54779523D01*
X179547142Y-54589047D01*
X179547142Y-54208095D01*
X179594761Y-54112857D01*
X179642380Y-54065238D01*
X179737619Y-54017619D01*
X179928095Y-54017619D01*
X180023333Y-54065238D01*
X180070952Y-54112857D01*
X180118571Y-54208095D01*
X180118571Y-54446190D01*
X180070952Y-54541428D01*
X180023333Y-54589047D01*
X179928095Y-54636666D01*
X179737619Y-54636666D01*
X179642380Y-54589047D01*
X179594761Y-54541428D01*
X179547142Y-54446190D01*
X181975714Y-55017619D02*
X182642380Y-55017619D01*
X182213809Y-54017619D01*
X184690000Y-54589047D02*
X184594761Y-54636666D01*
X184547142Y-54684285D01*
X184499523Y-54779523D01*
X184499523Y-54827142D01*
X184547142Y-54922380D01*
X184594761Y-54970000D01*
X184690000Y-55017619D01*
X184880476Y-55017619D01*
X184975714Y-54970000D01*
X185023333Y-54922380D01*
X185070952Y-54827142D01*
X185070952Y-54779523D01*
X185023333Y-54684285D01*
X184975714Y-54636666D01*
X184880476Y-54589047D01*
X184690000Y-54589047D01*
X184594761Y-54541428D01*
X184547142Y-54493809D01*
X184499523Y-54398571D01*
X184499523Y-54208095D01*
X184547142Y-54112857D01*
X184594761Y-54065238D01*
X184690000Y-54017619D01*
X184880476Y-54017619D01*
X184975714Y-54065238D01*
X185023333Y-54112857D01*
X185070952Y-54208095D01*
X185070952Y-54398571D01*
X185023333Y-54493809D01*
X184975714Y-54541428D01*
X184880476Y-54589047D01*
X187070952Y-54017619D02*
X187261428Y-54017619D01*
X187356666Y-54065238D01*
X187404285Y-54112857D01*
X187499523Y-54255714D01*
X187547142Y-54446190D01*
X187547142Y-54827142D01*
X187499523Y-54922380D01*
X187451904Y-54970000D01*
X187356666Y-55017619D01*
X187166190Y-55017619D01*
X187070952Y-54970000D01*
X187023333Y-54922380D01*
X186975714Y-54827142D01*
X186975714Y-54589047D01*
X187023333Y-54493809D01*
X187070952Y-54446190D01*
X187166190Y-54398571D01*
X187356666Y-54398571D01*
X187451904Y-54446190D01*
X187499523Y-54493809D01*
X187547142Y-54589047D01*
X189261428Y-54017619D02*
X188690000Y-54017619D01*
X188975714Y-54017619D02*
X188975714Y-55017619D01*
X188880476Y-54874761D01*
X188785238Y-54779523D01*
X188690000Y-54731904D01*
X189880476Y-55017619D02*
X189975714Y-55017619D01*
X190070952Y-54970000D01*
X190118571Y-54922380D01*
X190166190Y-54827142D01*
X190213809Y-54636666D01*
X190213809Y-54398571D01*
X190166190Y-54208095D01*
X190118571Y-54112857D01*
X190070952Y-54065238D01*
X189975714Y-54017619D01*
X189880476Y-54017619D01*
X189785238Y-54065238D01*
X189737619Y-54112857D01*
X189690000Y-54208095D01*
X189642380Y-54398571D01*
X189642380Y-54636666D01*
X189690000Y-54827142D01*
X189737619Y-54922380D01*
X189785238Y-54970000D01*
X189880476Y-55017619D01*
X191928095Y-54017619D02*
X191356666Y-54017619D01*
X191642380Y-54017619D02*
X191642380Y-55017619D01*
X191547142Y-54874761D01*
X191451904Y-54779523D01*
X191356666Y-54731904D01*
X192880476Y-54017619D02*
X192309047Y-54017619D01*
X192594761Y-54017619D02*
X192594761Y-55017619D01*
X192499523Y-54874761D01*
X192404285Y-54779523D01*
X192309047Y-54731904D01*
X194594761Y-54017619D02*
X194023333Y-54017619D01*
X194309047Y-54017619D02*
X194309047Y-55017619D01*
X194213809Y-54874761D01*
X194118571Y-54779523D01*
X194023333Y-54731904D01*
X194975714Y-54922380D02*
X195023333Y-54970000D01*
X195118571Y-55017619D01*
X195356666Y-55017619D01*
X195451904Y-54970000D01*
X195499523Y-54922380D01*
X195547142Y-54827142D01*
X195547142Y-54731904D01*
X195499523Y-54589047D01*
X194928095Y-54017619D01*
X195547142Y-54017619D01*
X197261428Y-54017619D02*
X196689999Y-54017619D01*
X196975714Y-54017619D02*
X196975714Y-55017619D01*
X196880476Y-54874761D01*
X196785238Y-54779523D01*
X196689999Y-54731904D01*
X197594761Y-55017619D02*
X198213809Y-55017619D01*
X197880476Y-54636666D01*
X198023333Y-54636666D01*
X198118571Y-54589047D01*
X198166190Y-54541428D01*
X198213809Y-54446190D01*
X198213809Y-54208095D01*
X198166190Y-54112857D01*
X198118571Y-54065238D01*
X198023333Y-54017619D01*
X197737619Y-54017619D01*
X197642380Y-54065238D01*
X197594761Y-54112857D01*
X199928095Y-54017619D02*
X199356666Y-54017619D01*
X199642380Y-54017619D02*
X199642380Y-55017619D01*
X199547142Y-54874761D01*
X199451904Y-54779523D01*
X199356666Y-54731904D01*
X200785238Y-54684285D02*
X200785238Y-54017619D01*
X200547142Y-55065238D02*
X200309047Y-54350952D01*
X200928095Y-54350952D01*
X202594761Y-54017619D02*
X202023333Y-54017619D01*
X202309047Y-54017619D02*
X202309047Y-55017619D01*
X202213809Y-54874761D01*
X202118571Y-54779523D01*
X202023333Y-54731904D01*
X203499523Y-55017619D02*
X203023333Y-55017619D01*
X202975714Y-54541428D01*
X203023333Y-54589047D01*
X203118571Y-54636666D01*
X203356666Y-54636666D01*
X203451904Y-54589047D01*
X203499523Y-54541428D01*
X203547142Y-54446190D01*
X203547142Y-54208095D01*
X203499523Y-54112857D01*
X203451904Y-54065238D01*
X203356666Y-54017619D01*
X203118571Y-54017619D01*
X203023333Y-54065238D01*
X202975714Y-54112857D01*
X205261428Y-54017619D02*
X204689999Y-54017619D01*
X204975714Y-54017619D02*
X204975714Y-55017619D01*
X204880476Y-54874761D01*
X204785238Y-54779523D01*
X204689999Y-54731904D01*
X206118571Y-55017619D02*
X205928095Y-55017619D01*
X205832857Y-54970000D01*
X205785238Y-54922380D01*
X205689999Y-54779523D01*
X205642380Y-54589047D01*
X205642380Y-54208095D01*
X205689999Y-54112857D01*
X205737619Y-54065238D01*
X205832857Y-54017619D01*
X206023333Y-54017619D01*
X206118571Y-54065238D01*
X206166190Y-54112857D01*
X206213809Y-54208095D01*
X206213809Y-54446190D01*
X206166190Y-54541428D01*
X206118571Y-54589047D01*
X206023333Y-54636666D01*
X205832857Y-54636666D01*
X205737619Y-54589047D01*
X205689999Y-54541428D01*
X205642380Y-54446190D01*
D13*
X165762857Y-39796071D02*
X165655714Y-39831785D01*
X165477142Y-39831785D01*
X165405714Y-39796071D01*
X165370000Y-39760357D01*
X165334285Y-39688928D01*
X165334285Y-39617500D01*
X165370000Y-39546071D01*
X165405714Y-39510357D01*
X165477142Y-39474642D01*
X165620000Y-39438928D01*
X165691428Y-39403214D01*
X165727142Y-39367500D01*
X165762857Y-39296071D01*
X165762857Y-39224642D01*
X165727142Y-39153214D01*
X165691428Y-39117500D01*
X165620000Y-39081785D01*
X165441428Y-39081785D01*
X165334285Y-39117500D01*
X164584285Y-39760357D02*
X164620000Y-39796071D01*
X164727142Y-39831785D01*
X164798571Y-39831785D01*
X164905714Y-39796071D01*
X164977142Y-39724642D01*
X165012857Y-39653214D01*
X165048571Y-39510357D01*
X165048571Y-39403214D01*
X165012857Y-39260357D01*
X164977142Y-39188928D01*
X164905714Y-39117500D01*
X164798571Y-39081785D01*
X164727142Y-39081785D01*
X164620000Y-39117500D01*
X164584285Y-39153214D01*
X163905714Y-39831785D02*
X164262857Y-39831785D01*
X164262857Y-39081785D01*
X165780714Y-42421071D02*
X165673571Y-42456785D01*
X165495000Y-42456785D01*
X165423571Y-42421071D01*
X165387857Y-42385357D01*
X165352142Y-42313928D01*
X165352142Y-42242500D01*
X165387857Y-42171071D01*
X165423571Y-42135357D01*
X165495000Y-42099642D01*
X165637857Y-42063928D01*
X165709285Y-42028214D01*
X165745000Y-41992500D01*
X165780714Y-41921071D01*
X165780714Y-41849642D01*
X165745000Y-41778214D01*
X165709285Y-41742500D01*
X165637857Y-41706785D01*
X165459285Y-41706785D01*
X165352142Y-41742500D01*
X165030714Y-42456785D02*
X165030714Y-41706785D01*
X164852142Y-41706785D01*
X164745000Y-41742500D01*
X164673571Y-41813928D01*
X164637857Y-41885357D01*
X164602142Y-42028214D01*
X164602142Y-42135357D01*
X164637857Y-42278214D01*
X164673571Y-42349642D01*
X164745000Y-42421071D01*
X164852142Y-42456785D01*
X165030714Y-42456785D01*
X164316428Y-42242500D02*
X163959285Y-42242500D01*
X164387857Y-42456785D02*
X164137857Y-41706785D01*
X163887857Y-42456785D01*
X165834285Y-44796071D02*
X165262857Y-44796071D01*
X165548571Y-45081785D02*
X165548571Y-44510357D01*
X164548571Y-44331785D02*
X164905714Y-44331785D01*
X164941428Y-44688928D01*
X164905714Y-44653214D01*
X164834285Y-44617500D01*
X164655714Y-44617500D01*
X164584285Y-44653214D01*
X164548571Y-44688928D01*
X164512857Y-44760357D01*
X164512857Y-44938928D01*
X164548571Y-45010357D01*
X164584285Y-45046071D01*
X164655714Y-45081785D01*
X164834285Y-45081785D01*
X164905714Y-45046071D01*
X164941428Y-45010357D01*
X164298571Y-44331785D02*
X164048571Y-45081785D01*
X163798571Y-44331785D01*
X165441428Y-46992500D02*
X165512857Y-46956785D01*
X165620000Y-46956785D01*
X165727142Y-46992500D01*
X165798571Y-47063928D01*
X165834285Y-47135357D01*
X165870000Y-47278214D01*
X165870000Y-47385357D01*
X165834285Y-47528214D01*
X165798571Y-47599642D01*
X165727142Y-47671071D01*
X165620000Y-47706785D01*
X165548571Y-47706785D01*
X165441428Y-47671071D01*
X165405714Y-47635357D01*
X165405714Y-47385357D01*
X165548571Y-47385357D01*
X165084285Y-47706785D02*
X165084285Y-46956785D01*
X164655714Y-47706785D01*
X164655714Y-46956785D01*
X164298571Y-47706785D02*
X164298571Y-46956785D01*
X164120000Y-46956785D01*
X164012857Y-46992500D01*
X163941428Y-47063928D01*
X163905714Y-47135357D01*
X163870000Y-47278214D01*
X163870000Y-47385357D01*
X163905714Y-47528214D01*
X163941428Y-47599642D01*
X164012857Y-47671071D01*
X164120000Y-47706785D01*
X164298571Y-47706785D01*
D11*
X132110000Y-14450000D02*
X132120000Y-19660000D01*
X134670000Y-15760000D02*
X134670000Y-19710000D01*
D12*
X130865000Y-12140000D02*
X130865000Y-13497142D01*
X132162857Y-12497142D02*
X132162857Y-12997142D01*
X132948571Y-13211428D02*
X132948571Y-12497142D01*
X131448571Y-12497142D01*
X131448571Y-13211428D01*
X130865000Y-13497142D02*
X130865000Y-14640000D01*
X131448571Y-13640000D02*
X131448571Y-14497142D01*
X132948571Y-14068571D02*
X131448571Y-14068571D01*
X134020000Y-12247142D02*
X133948571Y-12104285D01*
X133948571Y-11890000D01*
X134020000Y-11675714D01*
X134162857Y-11532857D01*
X134305714Y-11461428D01*
X134591428Y-11390000D01*
X134805714Y-11390000D01*
X135091428Y-11461428D01*
X135234285Y-11532857D01*
X135377142Y-11675714D01*
X135448571Y-11890000D01*
X135448571Y-12032857D01*
X135377142Y-12247142D01*
X135305714Y-12318571D01*
X134805714Y-12318571D01*
X134805714Y-12032857D01*
X135448571Y-12961428D02*
X133948571Y-12961428D01*
X135448571Y-13818571D01*
X133948571Y-13818571D01*
X135448571Y-14532857D02*
X133948571Y-14532857D01*
X133948571Y-14890000D01*
X134020000Y-15104285D01*
X134162857Y-15247142D01*
X134305714Y-15318571D01*
X134591428Y-15390000D01*
X134805714Y-15390000D01*
X135091428Y-15318571D01*
X135234285Y-15247142D01*
X135377142Y-15104285D01*
X135448571Y-14890000D01*
X135448571Y-14532857D01*
D11*
X157390000Y-16260000D02*
X157390000Y-19630000D01*
X147230000Y-16220000D02*
X147230000Y-19590000D01*
X149760000Y-15690000D02*
X149760000Y-19640000D01*
X154850000Y-15650000D02*
X154850000Y-19600000D01*
X152310000Y-15650000D02*
X152310000Y-19600000D01*
X144700000Y-15710000D02*
X144700000Y-19660000D01*
D12*
X144040000Y-12137142D02*
X143968571Y-11994285D01*
X143968571Y-11780000D01*
X144040000Y-11565714D01*
X144182857Y-11422857D01*
X144325714Y-11351428D01*
X144611428Y-11280000D01*
X144825714Y-11280000D01*
X145111428Y-11351428D01*
X145254285Y-11422857D01*
X145397142Y-11565714D01*
X145468571Y-11780000D01*
X145468571Y-11922857D01*
X145397142Y-12137142D01*
X145325714Y-12208571D01*
X144825714Y-12208571D01*
X144825714Y-11922857D01*
X145468571Y-12851428D02*
X143968571Y-12851428D01*
X145468571Y-13708571D01*
X143968571Y-13708571D01*
X145468571Y-14422857D02*
X143968571Y-14422857D01*
X143968571Y-14780000D01*
X144040000Y-14994285D01*
X144182857Y-15137142D01*
X144325714Y-15208571D01*
X144611428Y-15280000D01*
X144825714Y-15280000D01*
X145111428Y-15208571D01*
X145254285Y-15137142D01*
X145397142Y-14994285D01*
X145468571Y-14780000D01*
X145468571Y-14422857D01*
X147825714Y-11708571D02*
X147897142Y-11637142D01*
X147968571Y-11422857D01*
X147968571Y-11280000D01*
X147897142Y-11065714D01*
X147754285Y-10922857D01*
X147611428Y-10851428D01*
X147325714Y-10780000D01*
X147111428Y-10780000D01*
X146825714Y-10851428D01*
X146682857Y-10922857D01*
X146540000Y-11065714D01*
X146468571Y-11280000D01*
X146468571Y-11422857D01*
X146540000Y-11637142D01*
X146611428Y-11708571D01*
X146468571Y-12137142D02*
X146468571Y-12994285D01*
X147968571Y-12565714D02*
X146468571Y-12565714D01*
X147897142Y-13422857D02*
X147968571Y-13637142D01*
X147968571Y-13994285D01*
X147897142Y-14137142D01*
X147825714Y-14208571D01*
X147682857Y-14280000D01*
X147540000Y-14280000D01*
X147397142Y-14208571D01*
X147325714Y-14137142D01*
X147254285Y-13994285D01*
X147182857Y-13708571D01*
X147111428Y-13565714D01*
X147040000Y-13494285D01*
X146897142Y-13422857D01*
X146754285Y-13422857D01*
X146611428Y-13494285D01*
X146540000Y-13565714D01*
X146468571Y-13708571D01*
X146468571Y-14065714D01*
X146540000Y-14280000D01*
X146968571Y-14851428D02*
X146968571Y-15922857D01*
X146325714Y-15280000D02*
X148254285Y-14851428D01*
X147611428Y-15780000D02*
X147611428Y-14708571D01*
X148254285Y-15351428D02*
X146325714Y-15780000D01*
X149897142Y-11351428D02*
X149897142Y-12494285D01*
X150468571Y-11922857D02*
X149325714Y-11922857D01*
X148968571Y-13922857D02*
X148968571Y-13208571D01*
X149682857Y-13137142D01*
X149611428Y-13208571D01*
X149540000Y-13351428D01*
X149540000Y-13708571D01*
X149611428Y-13851428D01*
X149682857Y-13922857D01*
X149825714Y-13994285D01*
X150182857Y-13994285D01*
X150325714Y-13922857D01*
X150397142Y-13851428D01*
X150468571Y-13708571D01*
X150468571Y-13351428D01*
X150397142Y-13208571D01*
X150325714Y-13137142D01*
X148968571Y-14422857D02*
X150468571Y-14922857D01*
X148968571Y-15422857D01*
X151468571Y-11387142D02*
X151468571Y-12244285D01*
X152968571Y-11815714D02*
X151468571Y-11815714D01*
X151468571Y-12601428D02*
X152968571Y-13601428D01*
X151468571Y-13601428D02*
X152968571Y-12601428D01*
X152968571Y-14172857D02*
X151468571Y-14172857D01*
X151468571Y-14530000D01*
X151540000Y-14744285D01*
X151682857Y-14887142D01*
X151825714Y-14958571D01*
X152111428Y-15030000D01*
X152325714Y-15030000D01*
X152611428Y-14958571D01*
X152754285Y-14887142D01*
X152897142Y-14744285D01*
X152968571Y-14530000D01*
X152968571Y-14172857D01*
X155468571Y-12280000D02*
X154754285Y-11780000D01*
X155468571Y-11422857D02*
X153968571Y-11422857D01*
X153968571Y-11994285D01*
X154040000Y-12137142D01*
X154111428Y-12208571D01*
X154254285Y-12280000D01*
X154468571Y-12280000D01*
X154611428Y-12208571D01*
X154682857Y-12137142D01*
X154754285Y-11994285D01*
X154754285Y-11422857D01*
X153968571Y-12780000D02*
X155468571Y-13780000D01*
X153968571Y-13780000D02*
X155468571Y-12780000D01*
X155468571Y-14351428D02*
X153968571Y-14351428D01*
X153968571Y-14708571D01*
X154040000Y-14922857D01*
X154182857Y-15065714D01*
X154325714Y-15137142D01*
X154611428Y-15208571D01*
X154825714Y-15208571D01*
X155111428Y-15137142D01*
X155254285Y-15065714D01*
X155397142Y-14922857D01*
X155468571Y-14708571D01*
X155468571Y-14351428D01*
X157968571Y-11708571D02*
X157254285Y-11208571D01*
X157968571Y-10851428D02*
X156468571Y-10851428D01*
X156468571Y-11422857D01*
X156540000Y-11565714D01*
X156611428Y-11637142D01*
X156754285Y-11708571D01*
X156968571Y-11708571D01*
X157111428Y-11637142D01*
X157182857Y-11565714D01*
X157254285Y-11422857D01*
X157254285Y-10851428D01*
X156468571Y-12137142D02*
X156468571Y-12994285D01*
X157968571Y-12565714D02*
X156468571Y-12565714D01*
X157897142Y-13422857D02*
X157968571Y-13637142D01*
X157968571Y-13994285D01*
X157897142Y-14137142D01*
X157825714Y-14208571D01*
X157682857Y-14280000D01*
X157540000Y-14280000D01*
X157397142Y-14208571D01*
X157325714Y-14137142D01*
X157254285Y-13994285D01*
X157182857Y-13708571D01*
X157111428Y-13565714D01*
X157040000Y-13494285D01*
X156897142Y-13422857D01*
X156754285Y-13422857D01*
X156611428Y-13494285D01*
X156540000Y-13565714D01*
X156468571Y-13708571D01*
X156468571Y-14065714D01*
X156540000Y-14280000D01*
X156968571Y-14851428D02*
X156968571Y-15922857D01*
X156325714Y-15280000D02*
X158254285Y-14851428D01*
X157611428Y-15780000D02*
X157611428Y-14708571D01*
X158254285Y-15351428D02*
X156325714Y-15780000D01*
D11*
X123250000Y-16280000D02*
X123250000Y-19650000D01*
X118170000Y-16240000D02*
X118170000Y-19610000D01*
X115630000Y-16260000D02*
X115630000Y-19630000D01*
X113070000Y-16260000D02*
X113070000Y-19630000D01*
X110540000Y-16260000D02*
X110540000Y-19630000D01*
X128300000Y-15690000D02*
X128300000Y-19640000D01*
X125780000Y-15720000D02*
X125780000Y-19670000D01*
X120700000Y-15670000D02*
X120700000Y-19620000D01*
X108010000Y-16250000D02*
X108010000Y-19620000D01*
X105460000Y-15720000D02*
X105460000Y-19670000D01*
X102920000Y-15700000D02*
X102920000Y-19650000D01*
X100390000Y-15730000D02*
X100390000Y-19680000D01*
X97860000Y-15730000D02*
X97860000Y-19680000D01*
X95300000Y-15720000D02*
X95300000Y-19670000D01*
X92750000Y-15690000D02*
X92750000Y-19640000D01*
X90200000Y-15690000D02*
X90200000Y-19640000D01*
D10*
X89475000Y-12107142D02*
X89403571Y-11964285D01*
X89403571Y-11750000D01*
X89475000Y-11535714D01*
X89617857Y-11392857D01*
X89760714Y-11321428D01*
X90046428Y-11250000D01*
X90260714Y-11250000D01*
X90546428Y-11321428D01*
X90689285Y-11392857D01*
X90832142Y-11535714D01*
X90903571Y-11750000D01*
X90903571Y-11892857D01*
X90832142Y-12107142D01*
X90760714Y-12178571D01*
X90260714Y-12178571D01*
X90260714Y-11892857D01*
X90903571Y-12821428D02*
X89403571Y-12821428D01*
X90903571Y-13678571D01*
X89403571Y-13678571D01*
X90903571Y-14392857D02*
X89403571Y-14392857D01*
X89403571Y-14750000D01*
X89475000Y-14964285D01*
X89617857Y-15107142D01*
X89760714Y-15178571D01*
X90046428Y-15250000D01*
X90260714Y-15250000D01*
X90546428Y-15178571D01*
X90689285Y-15107142D01*
X90832142Y-14964285D01*
X90903571Y-14750000D01*
X90903571Y-14392857D01*
X91953571Y-11357142D02*
X91953571Y-12214285D01*
X93453571Y-11785714D02*
X91953571Y-11785714D01*
X93453571Y-12714285D02*
X91953571Y-12714285D01*
X91953571Y-13285714D01*
X92025000Y-13428571D01*
X92096428Y-13500000D01*
X92239285Y-13571428D01*
X92453571Y-13571428D01*
X92596428Y-13500000D01*
X92667857Y-13428571D01*
X92739285Y-13285714D01*
X92739285Y-12714285D01*
X93453571Y-15000000D02*
X93453571Y-14142857D01*
X93453571Y-14571428D02*
X91953571Y-14571428D01*
X92167857Y-14428571D01*
X92310714Y-14285714D01*
X92382142Y-14142857D01*
X94503571Y-11357142D02*
X94503571Y-12214285D01*
X96003571Y-11785714D02*
X94503571Y-11785714D01*
X96003571Y-12714285D02*
X94503571Y-12714285D01*
X94503571Y-13285714D01*
X94575000Y-13428571D01*
X94646428Y-13500000D01*
X94789285Y-13571428D01*
X95003571Y-13571428D01*
X95146428Y-13500000D01*
X95217857Y-13428571D01*
X95289285Y-13285714D01*
X95289285Y-12714285D01*
X94646428Y-14142857D02*
X94575000Y-14214285D01*
X94503571Y-14357142D01*
X94503571Y-14714285D01*
X94575000Y-14857142D01*
X94646428Y-14928571D01*
X94789285Y-15000000D01*
X94932142Y-15000000D01*
X95146428Y-14928571D01*
X96003571Y-14071428D01*
X96003571Y-15000000D01*
X97053571Y-11357142D02*
X97053571Y-12214285D01*
X98553571Y-11785714D02*
X97053571Y-11785714D01*
X98553571Y-12714285D02*
X97053571Y-12714285D01*
X97053571Y-13285714D01*
X97125000Y-13428571D01*
X97196428Y-13500000D01*
X97339285Y-13571428D01*
X97553571Y-13571428D01*
X97696428Y-13500000D01*
X97767857Y-13428571D01*
X97839285Y-13285714D01*
X97839285Y-12714285D01*
X97053571Y-14071428D02*
X97053571Y-15000000D01*
X97625000Y-14500000D01*
X97625000Y-14714285D01*
X97696428Y-14857142D01*
X97767857Y-14928571D01*
X97910714Y-15000000D01*
X98267857Y-15000000D01*
X98410714Y-14928571D01*
X98482142Y-14857142D01*
X98553571Y-14714285D01*
X98553571Y-14285714D01*
X98482142Y-14142857D01*
X98410714Y-14071428D01*
X99603571Y-11357142D02*
X99603571Y-12214285D01*
X101103571Y-11785714D02*
X99603571Y-11785714D01*
X101103571Y-12714285D02*
X99603571Y-12714285D01*
X99603571Y-13285714D01*
X99675000Y-13428571D01*
X99746428Y-13500000D01*
X99889285Y-13571428D01*
X100103571Y-13571428D01*
X100246428Y-13500000D01*
X100317857Y-13428571D01*
X100389285Y-13285714D01*
X100389285Y-12714285D01*
X100103571Y-14857142D02*
X101103571Y-14857142D01*
X99532142Y-14500000D02*
X100603571Y-14142857D01*
X100603571Y-15071428D01*
X102153571Y-11357142D02*
X102153571Y-12214285D01*
X103653571Y-11785714D02*
X102153571Y-11785714D01*
X103653571Y-12714285D02*
X102153571Y-12714285D01*
X102153571Y-13285714D01*
X102225000Y-13428571D01*
X102296428Y-13500000D01*
X102439285Y-13571428D01*
X102653571Y-13571428D01*
X102796428Y-13500000D01*
X102867857Y-13428571D01*
X102939285Y-13285714D01*
X102939285Y-12714285D01*
X102153571Y-14857142D02*
X102153571Y-14571428D01*
X102225000Y-14428571D01*
X102296428Y-14357142D01*
X102510714Y-14214285D01*
X102796428Y-14142857D01*
X103367857Y-14142857D01*
X103510714Y-14214285D01*
X103582142Y-14285714D01*
X103653571Y-14428571D01*
X103653571Y-14714285D01*
X103582142Y-14857142D01*
X103510714Y-14928571D01*
X103367857Y-15000000D01*
X103010714Y-15000000D01*
X102867857Y-14928571D01*
X102796428Y-14857142D01*
X102725000Y-14714285D01*
X102725000Y-14428571D01*
X102796428Y-14285714D01*
X102867857Y-14214285D01*
X103010714Y-14142857D01*
X104703571Y-11357142D02*
X104703571Y-12214285D01*
X106203571Y-11785714D02*
X104703571Y-11785714D01*
X106203571Y-12714285D02*
X104703571Y-12714285D01*
X104703571Y-13285714D01*
X104775000Y-13428571D01*
X104846428Y-13500000D01*
X104989285Y-13571428D01*
X105203571Y-13571428D01*
X105346428Y-13500000D01*
X105417857Y-13428571D01*
X105489285Y-13285714D01*
X105489285Y-12714285D01*
X106203571Y-14285714D02*
X106203571Y-14571428D01*
X106132142Y-14714285D01*
X106060714Y-14785714D01*
X105846428Y-14928571D01*
X105560714Y-15000000D01*
X104989285Y-15000000D01*
X104846428Y-14928571D01*
X104775000Y-14857142D01*
X104703571Y-14714285D01*
X104703571Y-14428571D01*
X104775000Y-14285714D01*
X104846428Y-14214285D01*
X104989285Y-14142857D01*
X105346428Y-14142857D01*
X105489285Y-14214285D01*
X105560714Y-14285714D01*
X105632142Y-14428571D01*
X105632142Y-14714285D01*
X105560714Y-14857142D01*
X105489285Y-14928571D01*
X105346428Y-15000000D01*
X107253571Y-10642857D02*
X107253571Y-11500000D01*
X108753571Y-11071428D02*
X107253571Y-11071428D01*
X108753571Y-12000000D02*
X107253571Y-12000000D01*
X107253571Y-12571428D01*
X107325000Y-12714285D01*
X107396428Y-12785714D01*
X107539285Y-12857142D01*
X107753571Y-12857142D01*
X107896428Y-12785714D01*
X107967857Y-12714285D01*
X108039285Y-12571428D01*
X108039285Y-12000000D01*
X108753571Y-14285714D02*
X108753571Y-13428571D01*
X108753571Y-13857142D02*
X107253571Y-13857142D01*
X107467857Y-13714285D01*
X107610714Y-13571428D01*
X107682142Y-13428571D01*
X107253571Y-15214285D02*
X107253571Y-15357142D01*
X107325000Y-15500000D01*
X107396428Y-15571428D01*
X107539285Y-15642857D01*
X107825000Y-15714285D01*
X108182142Y-15714285D01*
X108467857Y-15642857D01*
X108610714Y-15571428D01*
X108682142Y-15500000D01*
X108753571Y-15357142D01*
X108753571Y-15214285D01*
X108682142Y-15071428D01*
X108610714Y-15000000D01*
X108467857Y-14928571D01*
X108182142Y-14857142D01*
X107825000Y-14857142D01*
X107539285Y-14928571D01*
X107396428Y-15000000D01*
X107325000Y-15071428D01*
X107253571Y-15214285D01*
X109803571Y-10642857D02*
X109803571Y-11500000D01*
X111303571Y-11071428D02*
X109803571Y-11071428D01*
X111303571Y-12000000D02*
X109803571Y-12000000D01*
X109803571Y-12571428D01*
X109875000Y-12714285D01*
X109946428Y-12785714D01*
X110089285Y-12857142D01*
X110303571Y-12857142D01*
X110446428Y-12785714D01*
X110517857Y-12714285D01*
X110589285Y-12571428D01*
X110589285Y-12000000D01*
X111303571Y-14285714D02*
X111303571Y-13428571D01*
X111303571Y-13857142D02*
X109803571Y-13857142D01*
X110017857Y-13714285D01*
X110160714Y-13571428D01*
X110232142Y-13428571D01*
X111303571Y-15714285D02*
X111303571Y-14857142D01*
X111303571Y-15285714D02*
X109803571Y-15285714D01*
X110017857Y-15142857D01*
X110160714Y-15000000D01*
X110232142Y-14857142D01*
X112353571Y-10642857D02*
X112353571Y-11500000D01*
X113853571Y-11071428D02*
X112353571Y-11071428D01*
X113853571Y-12000000D02*
X112353571Y-12000000D01*
X112353571Y-12571428D01*
X112425000Y-12714285D01*
X112496428Y-12785714D01*
X112639285Y-12857142D01*
X112853571Y-12857142D01*
X112996428Y-12785714D01*
X113067857Y-12714285D01*
X113139285Y-12571428D01*
X113139285Y-12000000D01*
X113853571Y-14285714D02*
X113853571Y-13428571D01*
X113853571Y-13857142D02*
X112353571Y-13857142D01*
X112567857Y-13714285D01*
X112710714Y-13571428D01*
X112782142Y-13428571D01*
X112496428Y-14857142D02*
X112425000Y-14928571D01*
X112353571Y-15071428D01*
X112353571Y-15428571D01*
X112425000Y-15571428D01*
X112496428Y-15642857D01*
X112639285Y-15714285D01*
X112782142Y-15714285D01*
X112996428Y-15642857D01*
X113853571Y-14785714D01*
X113853571Y-15714285D01*
X114903571Y-10642857D02*
X114903571Y-11500000D01*
X116403571Y-11071428D02*
X114903571Y-11071428D01*
X116403571Y-12000000D02*
X114903571Y-12000000D01*
X114903571Y-12571428D01*
X114975000Y-12714285D01*
X115046428Y-12785714D01*
X115189285Y-12857142D01*
X115403571Y-12857142D01*
X115546428Y-12785714D01*
X115617857Y-12714285D01*
X115689285Y-12571428D01*
X115689285Y-12000000D01*
X116403571Y-14285714D02*
X116403571Y-13428571D01*
X116403571Y-13857142D02*
X114903571Y-13857142D01*
X115117857Y-13714285D01*
X115260714Y-13571428D01*
X115332142Y-13428571D01*
X114903571Y-15642857D02*
X114903571Y-14928571D01*
X115617857Y-14857142D01*
X115546428Y-14928571D01*
X115475000Y-15071428D01*
X115475000Y-15428571D01*
X115546428Y-15571428D01*
X115617857Y-15642857D01*
X115760714Y-15714285D01*
X116117857Y-15714285D01*
X116260714Y-15642857D01*
X116332142Y-15571428D01*
X116403571Y-15428571D01*
X116403571Y-15071428D01*
X116332142Y-14928571D01*
X116260714Y-14857142D01*
X117453571Y-10642857D02*
X117453571Y-11500000D01*
X118953571Y-11071428D02*
X117453571Y-11071428D01*
X118953571Y-12000000D02*
X117453571Y-12000000D01*
X117453571Y-12571428D01*
X117525000Y-12714285D01*
X117596428Y-12785714D01*
X117739285Y-12857142D01*
X117953571Y-12857142D01*
X118096428Y-12785714D01*
X118167857Y-12714285D01*
X118239285Y-12571428D01*
X118239285Y-12000000D01*
X118953571Y-14285714D02*
X118953571Y-13428571D01*
X118953571Y-13857142D02*
X117453571Y-13857142D01*
X117667857Y-13714285D01*
X117810714Y-13571428D01*
X117882142Y-13428571D01*
X118096428Y-15142857D02*
X118025000Y-15000000D01*
X117953571Y-14928571D01*
X117810714Y-14857142D01*
X117739285Y-14857142D01*
X117596428Y-14928571D01*
X117525000Y-15000000D01*
X117453571Y-15142857D01*
X117453571Y-15428571D01*
X117525000Y-15571428D01*
X117596428Y-15642857D01*
X117739285Y-15714285D01*
X117810714Y-15714285D01*
X117953571Y-15642857D01*
X118025000Y-15571428D01*
X118096428Y-15428571D01*
X118096428Y-15142857D01*
X118167857Y-15000000D01*
X118239285Y-14928571D01*
X118382142Y-14857142D01*
X118667857Y-14857142D01*
X118810714Y-14928571D01*
X118882142Y-15000000D01*
X118953571Y-15142857D01*
X118953571Y-15428571D01*
X118882142Y-15571428D01*
X118810714Y-15642857D01*
X118667857Y-15714285D01*
X118382142Y-15714285D01*
X118239285Y-15642857D01*
X118167857Y-15571428D01*
X118096428Y-15428571D01*
X120003571Y-11357142D02*
X120003571Y-12214285D01*
X121503571Y-11785714D02*
X120003571Y-11785714D01*
X121503571Y-12714285D02*
X120003571Y-12714285D01*
X120003571Y-13285714D01*
X120075000Y-13428571D01*
X120146428Y-13500000D01*
X120289285Y-13571428D01*
X120503571Y-13571428D01*
X120646428Y-13500000D01*
X120717857Y-13428571D01*
X120789285Y-13285714D01*
X120789285Y-12714285D01*
X120003571Y-14928571D02*
X120003571Y-14214285D01*
X120717857Y-14142857D01*
X120646428Y-14214285D01*
X120575000Y-14357142D01*
X120575000Y-14714285D01*
X120646428Y-14857142D01*
X120717857Y-14928571D01*
X120860714Y-15000000D01*
X121217857Y-15000000D01*
X121360714Y-14928571D01*
X121432142Y-14857142D01*
X121503571Y-14714285D01*
X121503571Y-14357142D01*
X121432142Y-14214285D01*
X121360714Y-14142857D01*
X122553571Y-10642857D02*
X122553571Y-11500000D01*
X124053571Y-11071428D02*
X122553571Y-11071428D01*
X124053571Y-12000000D02*
X122553571Y-12000000D01*
X122553571Y-12571428D01*
X122625000Y-12714285D01*
X122696428Y-12785714D01*
X122839285Y-12857142D01*
X123053571Y-12857142D01*
X123196428Y-12785714D01*
X123267857Y-12714285D01*
X123339285Y-12571428D01*
X123339285Y-12000000D01*
X122696428Y-13428571D02*
X122625000Y-13500000D01*
X122553571Y-13642857D01*
X122553571Y-14000000D01*
X122625000Y-14142857D01*
X122696428Y-14214285D01*
X122839285Y-14285714D01*
X122982142Y-14285714D01*
X123196428Y-14214285D01*
X124053571Y-13357142D01*
X124053571Y-14285714D01*
X122553571Y-15571428D02*
X122553571Y-15285714D01*
X122625000Y-15142857D01*
X122696428Y-15071428D01*
X122910714Y-14928571D01*
X123196428Y-14857142D01*
X123767857Y-14857142D01*
X123910714Y-14928571D01*
X123982142Y-15000000D01*
X124053571Y-15142857D01*
X124053571Y-15428571D01*
X123982142Y-15571428D01*
X123910714Y-15642857D01*
X123767857Y-15714285D01*
X123410714Y-15714285D01*
X123267857Y-15642857D01*
X123196428Y-15571428D01*
X123125000Y-15428571D01*
X123125000Y-15142857D01*
X123196428Y-15000000D01*
X123267857Y-14928571D01*
X123410714Y-14857142D01*
X125175000Y-12107142D02*
X125103571Y-11964285D01*
X125103571Y-11750000D01*
X125175000Y-11535714D01*
X125317857Y-11392857D01*
X125460714Y-11321428D01*
X125746428Y-11250000D01*
X125960714Y-11250000D01*
X126246428Y-11321428D01*
X126389285Y-11392857D01*
X126532142Y-11535714D01*
X126603571Y-11750000D01*
X126603571Y-11892857D01*
X126532142Y-12107142D01*
X126460714Y-12178571D01*
X125960714Y-12178571D01*
X125960714Y-11892857D01*
X126603571Y-12821428D02*
X125103571Y-12821428D01*
X126603571Y-13678571D01*
X125103571Y-13678571D01*
X126603571Y-14392857D02*
X125103571Y-14392857D01*
X125103571Y-14750000D01*
X125175000Y-14964285D01*
X125317857Y-15107142D01*
X125460714Y-15178571D01*
X125746428Y-15250000D01*
X125960714Y-15250000D01*
X126246428Y-15178571D01*
X126389285Y-15107142D01*
X126532142Y-14964285D01*
X126603571Y-14750000D01*
X126603571Y-14392857D01*
X127725000Y-12107142D02*
X127653571Y-11964285D01*
X127653571Y-11750000D01*
X127725000Y-11535714D01*
X127867857Y-11392857D01*
X128010714Y-11321428D01*
X128296428Y-11250000D01*
X128510714Y-11250000D01*
X128796428Y-11321428D01*
X128939285Y-11392857D01*
X129082142Y-11535714D01*
X129153571Y-11750000D01*
X129153571Y-11892857D01*
X129082142Y-12107142D01*
X129010714Y-12178571D01*
X128510714Y-12178571D01*
X128510714Y-11892857D01*
X129153571Y-12821428D02*
X127653571Y-12821428D01*
X129153571Y-13678571D01*
X127653571Y-13678571D01*
X129153571Y-14392857D02*
X127653571Y-14392857D01*
X127653571Y-14750000D01*
X127725000Y-14964285D01*
X127867857Y-15107142D01*
X128010714Y-15178571D01*
X128296428Y-15250000D01*
X128510714Y-15250000D01*
X128796428Y-15178571D01*
X128939285Y-15107142D01*
X129082142Y-14964285D01*
X129153571Y-14750000D01*
X129153571Y-14392857D01*
X171547142Y-152843571D02*
X171547142Y-151343571D01*
X171190000Y-151343571D01*
X170975714Y-151415000D01*
X170832857Y-151557857D01*
X170761428Y-151700714D01*
X170690000Y-151986428D01*
X170690000Y-152200714D01*
X170761428Y-152486428D01*
X170832857Y-152629285D01*
X170975714Y-152772142D01*
X171190000Y-152843571D01*
X171547142Y-152843571D01*
X169190000Y-152700714D02*
X169261428Y-152772142D01*
X169475714Y-152843571D01*
X169618571Y-152843571D01*
X169832857Y-152772142D01*
X169975714Y-152629285D01*
X170047142Y-152486428D01*
X170118571Y-152200714D01*
X170118571Y-151986428D01*
X170047142Y-151700714D01*
X169975714Y-151557857D01*
X169832857Y-151415000D01*
X169618571Y-151343571D01*
X169475714Y-151343571D01*
X169261428Y-151415000D01*
X169190000Y-151486428D01*
X168761428Y-151343571D02*
X167904285Y-151343571D01*
X168332857Y-152843571D02*
X168332857Y-151343571D01*
X167404285Y-152843571D02*
X167404285Y-151343571D01*
X166904285Y-152415000D01*
X166404285Y-151343571D01*
X166404285Y-152843571D01*
X165690000Y-152843571D02*
X165690000Y-151343571D01*
X165190000Y-152415000D01*
X164690000Y-151343571D01*
X164690000Y-152843571D01*
X164332857Y-152986428D02*
X163190000Y-152986428D01*
X161975714Y-152700714D02*
X162047142Y-152772142D01*
X162261428Y-152843571D01*
X162404285Y-152843571D01*
X162618571Y-152772142D01*
X162761428Y-152629285D01*
X162832857Y-152486428D01*
X162904285Y-152200714D01*
X162904285Y-151986428D01*
X162832857Y-151700714D01*
X162761428Y-151557857D01*
X162618571Y-151415000D01*
X162404285Y-151343571D01*
X162261428Y-151343571D01*
X162047142Y-151415000D01*
X161975714Y-151486428D01*
X160475714Y-152700714D02*
X160547142Y-152772142D01*
X160761428Y-152843571D01*
X160904285Y-152843571D01*
X161118571Y-152772142D01*
X161261428Y-152629285D01*
X161332857Y-152486428D01*
X161404285Y-152200714D01*
X161404285Y-151986428D01*
X161332857Y-151700714D01*
X161261428Y-151557857D01*
X161118571Y-151415000D01*
X160904285Y-151343571D01*
X160761428Y-151343571D01*
X160547142Y-151415000D01*
X160475714Y-151486428D01*
X159832857Y-152272142D02*
X158690000Y-152272142D01*
X158190000Y-151343571D02*
X157332857Y-151343571D01*
X157761428Y-152843571D02*
X157761428Y-151343571D01*
X156832857Y-152057857D02*
X156332857Y-152057857D01*
X156118571Y-152843571D02*
X156832857Y-152843571D01*
X156832857Y-151343571D01*
X156118571Y-151343571D01*
X155547142Y-152772142D02*
X155332857Y-152843571D01*
X154975714Y-152843571D01*
X154832857Y-152772142D01*
X154761428Y-152700714D01*
X154690000Y-152557857D01*
X154690000Y-152415000D01*
X154761428Y-152272142D01*
X154832857Y-152200714D01*
X154975714Y-152129285D01*
X155261428Y-152057857D01*
X155404285Y-151986428D01*
X155475714Y-151915000D01*
X155547142Y-151772142D01*
X155547142Y-151629285D01*
X155475714Y-151486428D01*
X155404285Y-151415000D01*
X155261428Y-151343571D01*
X154904285Y-151343571D01*
X154690000Y-151415000D01*
X154261428Y-151343571D02*
X153404285Y-151343571D01*
X153832857Y-152843571D02*
X153832857Y-151343571D01*
X152904285Y-152057857D02*
X152404285Y-152057857D01*
X152190000Y-152843571D02*
X152904285Y-152843571D01*
X152904285Y-151343571D01*
X152190000Y-151343571D01*
X150690000Y-152843571D02*
X151190000Y-152129285D01*
X151547142Y-152843571D02*
X151547142Y-151343571D01*
X150975714Y-151343571D01*
X150832857Y-151415000D01*
X150761428Y-151486428D01*
X150690000Y-151629285D01*
X150690000Y-151843571D01*
X150761428Y-151986428D01*
X150832857Y-152057857D01*
X150975714Y-152129285D01*
X151547142Y-152129285D01*
X149118571Y-151343571D02*
X148618571Y-152843571D01*
X148118571Y-151343571D01*
X147332857Y-151343571D02*
X147190000Y-151343571D01*
X147047142Y-151415000D01*
X146975714Y-151486428D01*
X146904285Y-151629285D01*
X146832857Y-151915000D01*
X146832857Y-152272142D01*
X146904285Y-152557857D01*
X146975714Y-152700714D01*
X147047142Y-152772142D01*
X147190000Y-152843571D01*
X147332857Y-152843571D01*
X147475714Y-152772142D01*
X147547142Y-152700714D01*
X147618571Y-152557857D01*
X147690000Y-152272142D01*
X147690000Y-151915000D01*
X147618571Y-151629285D01*
X147547142Y-151486428D01*
X147475714Y-151415000D01*
X147332857Y-151343571D01*
X146190000Y-152700714D02*
X146118571Y-152772142D01*
X146190000Y-152843571D01*
X146261428Y-152772142D01*
X146190000Y-152700714D01*
X146190000Y-152843571D01*
X145547142Y-151486428D02*
X145475714Y-151415000D01*
X145332857Y-151343571D01*
X144975714Y-151343571D01*
X144832857Y-151415000D01*
X144761428Y-151486428D01*
X144690000Y-151629285D01*
X144690000Y-151772142D01*
X144761428Y-151986428D01*
X145618571Y-152843571D01*
X144690000Y-152843571D01*
X143261428Y-152843571D02*
X144118571Y-152843571D01*
X143690000Y-152843571D02*
X143690000Y-151343571D01*
X143832857Y-151557857D01*
X143975714Y-151700714D01*
X144118571Y-151772142D01*
X164082857Y-153893571D02*
X163940000Y-153893571D01*
X163797142Y-153965000D01*
X163725714Y-154036428D01*
X163654285Y-154179285D01*
X163582857Y-154465000D01*
X163582857Y-154822142D01*
X163654285Y-155107857D01*
X163725714Y-155250714D01*
X163797142Y-155322142D01*
X163940000Y-155393571D01*
X164082857Y-155393571D01*
X164225714Y-155322142D01*
X164297142Y-155250714D01*
X164368571Y-155107857D01*
X164440000Y-154822142D01*
X164440000Y-154465000D01*
X164368571Y-154179285D01*
X164297142Y-154036428D01*
X164225714Y-153965000D01*
X164082857Y-153893571D01*
X162297142Y-153893571D02*
X162582857Y-153893571D01*
X162725714Y-153965000D01*
X162797142Y-154036428D01*
X162940000Y-154250714D01*
X163011428Y-154536428D01*
X163011428Y-155107857D01*
X162940000Y-155250714D01*
X162868571Y-155322142D01*
X162725714Y-155393571D01*
X162440000Y-155393571D01*
X162297142Y-155322142D01*
X162225714Y-155250714D01*
X162154285Y-155107857D01*
X162154285Y-154750714D01*
X162225714Y-154607857D01*
X162297142Y-154536428D01*
X162440000Y-154465000D01*
X162725714Y-154465000D01*
X162868571Y-154536428D01*
X162940000Y-154607857D01*
X163011428Y-154750714D01*
X160440000Y-153822142D02*
X161725714Y-155750714D01*
X159654285Y-153893571D02*
X159511428Y-153893571D01*
X159368571Y-153965000D01*
X159297142Y-154036428D01*
X159225714Y-154179285D01*
X159154285Y-154465000D01*
X159154285Y-154822142D01*
X159225714Y-155107857D01*
X159297142Y-155250714D01*
X159368571Y-155322142D01*
X159511428Y-155393571D01*
X159654285Y-155393571D01*
X159797142Y-155322142D01*
X159868571Y-155250714D01*
X159940000Y-155107857D01*
X160011428Y-154822142D01*
X160011428Y-154465000D01*
X159940000Y-154179285D01*
X159868571Y-154036428D01*
X159797142Y-153965000D01*
X159654285Y-153893571D01*
X157868571Y-154393571D02*
X157868571Y-155393571D01*
X158225714Y-153822142D02*
X158582857Y-154893571D01*
X157654285Y-154893571D01*
X156011428Y-153822142D02*
X157297142Y-155750714D01*
X155582857Y-154036428D02*
X155511428Y-153965000D01*
X155368571Y-153893571D01*
X155011428Y-153893571D01*
X154868571Y-153965000D01*
X154797142Y-154036428D01*
X154725714Y-154179285D01*
X154725714Y-154322142D01*
X154797142Y-154536428D01*
X155654285Y-155393571D01*
X154725714Y-155393571D01*
X153797142Y-153893571D02*
X153654285Y-153893571D01*
X153511428Y-153965000D01*
X153440000Y-154036428D01*
X153368571Y-154179285D01*
X153297142Y-154465000D01*
X153297142Y-154822142D01*
X153368571Y-155107857D01*
X153440000Y-155250714D01*
X153511428Y-155322142D01*
X153654285Y-155393571D01*
X153797142Y-155393571D01*
X153940000Y-155322142D01*
X154011428Y-155250714D01*
X154082857Y-155107857D01*
X154154285Y-154822142D01*
X154154285Y-154465000D01*
X154082857Y-154179285D01*
X154011428Y-154036428D01*
X153940000Y-153965000D01*
X153797142Y-153893571D01*
X152725714Y-154036428D02*
X152654285Y-153965000D01*
X152511428Y-153893571D01*
X152154285Y-153893571D01*
X152011428Y-153965000D01*
X151940000Y-154036428D01*
X151868571Y-154179285D01*
X151868571Y-154322142D01*
X151940000Y-154536428D01*
X152797142Y-155393571D01*
X151868571Y-155393571D01*
X150940000Y-153893571D02*
X150797142Y-153893571D01*
X150654285Y-153965000D01*
X150582857Y-154036428D01*
X150511428Y-154179285D01*
X150440000Y-154465000D01*
X150440000Y-154822142D01*
X150511428Y-155107857D01*
X150582857Y-155250714D01*
X150654285Y-155322142D01*
X150797142Y-155393571D01*
X150940000Y-155393571D01*
X151082857Y-155322142D01*
X151154285Y-155250714D01*
X151225714Y-155107857D01*
X151297142Y-154822142D01*
X151297142Y-154465000D01*
X151225714Y-154179285D01*
X151154285Y-154036428D01*
X151082857Y-153965000D01*
X150940000Y-153893571D01*
D14*
X77000000Y-20080000D02*
X77000000Y-9350000D01*
X235330000Y-9300000D02*
X235330000Y-20030000D01*
X83280000Y-14450000D02*
G75*
G03X83280000Y-14450000I-1591897J0D01*
G01*
X163220000Y-14600000D02*
G75*
G03X163220000Y-14600000I-1590000J0D01*
G01*
X161280283Y-50710000D02*
G75*
G03X161280283Y-50710000I-1592180J0D01*
G01*
X85310123Y-50710000D02*
G75*
G03X85310123Y-50710000I-1622020J0D01*
G01*
X77000000Y-20080000D02*
X77150000Y-170400000D01*
X235330000Y-9300000D02*
X77000000Y-9350000D01*
X235290000Y-170410000D02*
X235330000Y-20030000D01*
X77150000Y-170400000D02*
X235290000Y-170410000D01*
X152660000Y-78311679D02*
G75*
G03X152660000Y-78311679I-1550000J0D01*
G01*
X100610000Y-141520000D02*
G75*
G03X100610000Y-141520000I-3400000J0D01*
G01*
X218610000Y-141520000D02*
G75*
G03X218610000Y-141520000I-3400000J0D01*
G01*
X218410000Y-97450000D02*
G75*
G03X218410000Y-97450000I-3200000J0D01*
G01*
X100410000Y-97450000D02*
G75*
G03X100410000Y-97450000I-3200000J0D01*
G01*
D15*
X212780000Y-27950000D02*
X215520000Y-27950000D01*
X215540000Y-27940000D02*
X215540000Y-14640000D01*
X215540000Y-14640000D02*
X212770000Y-14640000D01*
X212750000Y-14640000D02*
X212760000Y-27950000D01*
X212780000Y-27950000D02*
X212810000Y-27950000D01*
X214160000Y-27950000D02*
X214160000Y-14640000D01*
X212760000Y-24870000D02*
X215520000Y-24870000D01*
X212770000Y-21730000D02*
X215540000Y-21730000D01*
X212770000Y-18660000D02*
X215510000Y-18660000D01*
X212770000Y-16620000D02*
X215530000Y-16620000D01*
D11*
X213666666Y-14925714D02*
X213666666Y-15401904D01*
X213952380Y-14830476D02*
X212952380Y-15163809D01*
X213952380Y-15497142D01*
X212952380Y-15735238D02*
X212952380Y-16401904D01*
X213952380Y-15973333D01*
X215096666Y-14945714D02*
X215096666Y-15421904D01*
X215382380Y-14850476D02*
X214382380Y-15183809D01*
X215382380Y-15517142D01*
X214382380Y-16326666D02*
X214382380Y-15850476D01*
X214858571Y-15802857D01*
X214810952Y-15850476D01*
X214763333Y-15945714D01*
X214763333Y-16183809D01*
X214810952Y-16279047D01*
X214858571Y-16326666D01*
X214953809Y-16374285D01*
X215191904Y-16374285D01*
X215287142Y-16326666D01*
X215334761Y-16279047D01*
X215382380Y-16183809D01*
X215382380Y-15945714D01*
X215334761Y-15850476D01*
X215287142Y-15802857D01*
X213666666Y-16985714D02*
X213666666Y-17461904D01*
X213952380Y-16890476D02*
X212952380Y-17223809D01*
X213952380Y-17557142D01*
X212952380Y-18319047D02*
X212952380Y-18128571D01*
X213000000Y-18033333D01*
X213047619Y-17985714D01*
X213190476Y-17890476D01*
X213380952Y-17842857D01*
X213761904Y-17842857D01*
X213857142Y-17890476D01*
X213904761Y-17938095D01*
X213952380Y-18033333D01*
X213952380Y-18223809D01*
X213904761Y-18319047D01*
X213857142Y-18366666D01*
X213761904Y-18414285D01*
X213523809Y-18414285D01*
X213428571Y-18366666D01*
X213380952Y-18319047D01*
X213333333Y-18223809D01*
X213333333Y-18033333D01*
X213380952Y-17938095D01*
X213428571Y-17890476D01*
X213523809Y-17842857D01*
X215056666Y-17005714D02*
X215056666Y-17481904D01*
X215342380Y-16910476D02*
X214342380Y-17243809D01*
X215342380Y-17577142D01*
X214675714Y-18339047D02*
X215342380Y-18339047D01*
X214294761Y-18100952D02*
X215009047Y-17862857D01*
X215009047Y-18481904D01*
X213942380Y-25710952D02*
X213466190Y-25377619D01*
X213942380Y-25139523D02*
X212942380Y-25139523D01*
X212942380Y-25520476D01*
X212990000Y-25615714D01*
X213037619Y-25663333D01*
X213132857Y-25710952D01*
X213275714Y-25710952D01*
X213370952Y-25663333D01*
X213418571Y-25615714D01*
X213466190Y-25520476D01*
X213466190Y-25139523D01*
X213418571Y-26139523D02*
X213418571Y-26472857D01*
X213942380Y-26615714D02*
X213942380Y-26139523D01*
X212942380Y-26139523D01*
X212942380Y-26615714D01*
X213894761Y-26996666D02*
X213942380Y-27139523D01*
X213942380Y-27377619D01*
X213894761Y-27472857D01*
X213847142Y-27520476D01*
X213751904Y-27568095D01*
X213656666Y-27568095D01*
X213561428Y-27520476D01*
X213513809Y-27472857D01*
X213466190Y-27377619D01*
X213418571Y-27187142D01*
X213370952Y-27091904D01*
X213323333Y-27044285D01*
X213228095Y-26996666D01*
X213132857Y-26996666D01*
X213037619Y-27044285D01*
X212990000Y-27091904D01*
X212942380Y-27187142D01*
X212942380Y-27425238D01*
X212990000Y-27568095D01*
X214400000Y-25658095D02*
X214352380Y-25562857D01*
X214352380Y-25420000D01*
X214400000Y-25277142D01*
X214495238Y-25181904D01*
X214590476Y-25134285D01*
X214780952Y-25086666D01*
X214923809Y-25086666D01*
X215114285Y-25134285D01*
X215209523Y-25181904D01*
X215304761Y-25277142D01*
X215352380Y-25420000D01*
X215352380Y-25515238D01*
X215304761Y-25658095D01*
X215257142Y-25705714D01*
X214923809Y-25705714D01*
X214923809Y-25515238D01*
X215352380Y-26134285D02*
X214352380Y-26134285D01*
X215352380Y-26705714D01*
X214352380Y-26705714D01*
X215352380Y-27181904D02*
X214352380Y-27181904D01*
X214352380Y-27420000D01*
X214400000Y-27562857D01*
X214495238Y-27658095D01*
X214590476Y-27705714D01*
X214780952Y-27753333D01*
X214923809Y-27753333D01*
X215114285Y-27705714D01*
X215209523Y-27658095D01*
X215304761Y-27562857D01*
X215352380Y-27420000D01*
X215352380Y-27181904D01*
X213894761Y-21934285D02*
X213942380Y-22077142D01*
X213942380Y-22315238D01*
X213894761Y-22410476D01*
X213847142Y-22458095D01*
X213751904Y-22505714D01*
X213656666Y-22505714D01*
X213561428Y-22458095D01*
X213513809Y-22410476D01*
X213466190Y-22315238D01*
X213418571Y-22124761D01*
X213370952Y-22029523D01*
X213323333Y-21981904D01*
X213228095Y-21934285D01*
X213132857Y-21934285D01*
X213037619Y-21981904D01*
X212990000Y-22029523D01*
X212942380Y-22124761D01*
X212942380Y-22362857D01*
X212990000Y-22505714D01*
X213847142Y-23505714D02*
X213894761Y-23458095D01*
X213942380Y-23315238D01*
X213942380Y-23220000D01*
X213894761Y-23077142D01*
X213799523Y-22981904D01*
X213704285Y-22934285D01*
X213513809Y-22886666D01*
X213370952Y-22886666D01*
X213180476Y-22934285D01*
X213085238Y-22981904D01*
X212990000Y-23077142D01*
X212942380Y-23220000D01*
X212942380Y-23315238D01*
X212990000Y-23458095D01*
X213037619Y-23505714D01*
X213942380Y-23934285D02*
X212942380Y-23934285D01*
X213942380Y-24505714D02*
X213370952Y-24077142D01*
X212942380Y-24505714D02*
X213513809Y-23934285D01*
X215352380Y-21936666D02*
X214352380Y-21936666D01*
X215066666Y-22270000D01*
X214352380Y-22603333D01*
X215352380Y-22603333D01*
X214352380Y-23270000D02*
X214352380Y-23460476D01*
X214400000Y-23555714D01*
X214495238Y-23650952D01*
X214685714Y-23698571D01*
X215019047Y-23698571D01*
X215209523Y-23650952D01*
X215304761Y-23555714D01*
X215352380Y-23460476D01*
X215352380Y-23270000D01*
X215304761Y-23174761D01*
X215209523Y-23079523D01*
X215019047Y-23031904D01*
X214685714Y-23031904D01*
X214495238Y-23079523D01*
X214400000Y-23174761D01*
X214352380Y-23270000D01*
X215304761Y-24079523D02*
X215352380Y-24222380D01*
X215352380Y-24460476D01*
X215304761Y-24555714D01*
X215257142Y-24603333D01*
X215161904Y-24650952D01*
X215066666Y-24650952D01*
X214971428Y-24603333D01*
X214923809Y-24555714D01*
X214876190Y-24460476D01*
X214828571Y-24270000D01*
X214780952Y-24174761D01*
X214733333Y-24127142D01*
X214638095Y-24079523D01*
X214542857Y-24079523D01*
X214447619Y-24127142D01*
X214400000Y-24174761D01*
X214352380Y-24270000D01*
X214352380Y-24508095D01*
X214400000Y-24650952D01*
X213942380Y-19142380D02*
X212942380Y-19142380D01*
X213656666Y-19475714D01*
X212942380Y-19809047D01*
X213942380Y-19809047D01*
X213942380Y-20285238D02*
X212942380Y-20285238D01*
X213894761Y-20713809D02*
X213942380Y-20856666D01*
X213942380Y-21094761D01*
X213894761Y-21190000D01*
X213847142Y-21237619D01*
X213751904Y-21285238D01*
X213656666Y-21285238D01*
X213561428Y-21237619D01*
X213513809Y-21190000D01*
X213466190Y-21094761D01*
X213418571Y-20904285D01*
X213370952Y-20809047D01*
X213323333Y-20761428D01*
X213228095Y-20713809D01*
X213132857Y-20713809D01*
X213037619Y-20761428D01*
X212990000Y-20809047D01*
X212942380Y-20904285D01*
X212942380Y-21142380D01*
X212990000Y-21285238D01*
X214362380Y-18896666D02*
X215362380Y-19230000D01*
X214362380Y-19563333D01*
X215267142Y-20468095D02*
X215314761Y-20420476D01*
X215362380Y-20277619D01*
X215362380Y-20182380D01*
X215314761Y-20039523D01*
X215219523Y-19944285D01*
X215124285Y-19896666D01*
X214933809Y-19849047D01*
X214790952Y-19849047D01*
X214600476Y-19896666D01*
X214505238Y-19944285D01*
X214410000Y-20039523D01*
X214362380Y-20182380D01*
X214362380Y-20277619D01*
X214410000Y-20420476D01*
X214457619Y-20468095D01*
X215267142Y-21468095D02*
X215314761Y-21420476D01*
X215362380Y-21277619D01*
X215362380Y-21182380D01*
X215314761Y-21039523D01*
X215219523Y-20944285D01*
X215124285Y-20896666D01*
X214933809Y-20849047D01*
X214790952Y-20849047D01*
X214600476Y-20896666D01*
X214505238Y-20944285D01*
X214410000Y-21039523D01*
X214362380Y-21182380D01*
X214362380Y-21277619D01*
X214410000Y-21420476D01*
X214457619Y-21468095D01*
M02*
