G04 #@! TF.GenerationSoftware,KiCad,Pcbnew,(5.1.5)-3*
G04 #@! TF.CreationDate,2020-08-17T08:43:25+02:00*
G04 #@! TF.ProjectId,carecasetester,63617265-6361-4736-9574-65737465722e,rev?*
G04 #@! TF.SameCoordinates,Original*
G04 #@! TF.FileFunction,Legend,Top*
G04 #@! TF.FilePolarity,Positive*
%FSLAX46Y46*%
G04 Gerber Fmt 4.6, Leading zero omitted, Abs format (unit mm)*
G04 Created by KiCad (PCBNEW (5.1.5)-3) date 2020-08-17 08:43:25*
%MOMM*%
%LPD*%
G04 APERTURE LIST*
%ADD10C,0.300000*%
%ADD11C,0.500000*%
%ADD12C,0.150000*%
G04 #@! TA.AperFunction,Profile*
%ADD13C,0.200000*%
G04 #@! TD*
%ADD14C,0.250000*%
%ADD15C,0.187500*%
%ADD16C,0.200000*%
%ADD17C,0.100000*%
%ADD18C,0.120000*%
G04 APERTURE END LIST*
D10*
X90743571Y-62780714D02*
X89243571Y-62780714D01*
X89243571Y-62423571D01*
X89315000Y-62209285D01*
X89457857Y-62066428D01*
X89600714Y-61994999D01*
X89886428Y-61923571D01*
X90100714Y-61923571D01*
X90386428Y-61994999D01*
X90529285Y-62066428D01*
X90672142Y-62209285D01*
X90743571Y-62423571D01*
X90743571Y-62780714D01*
X89957857Y-60780714D02*
X90029285Y-60566428D01*
X90100714Y-60494999D01*
X90243571Y-60423571D01*
X90457857Y-60423571D01*
X90600714Y-60494999D01*
X90672142Y-60566428D01*
X90743571Y-60709285D01*
X90743571Y-61280714D01*
X89243571Y-61280714D01*
X89243571Y-60780714D01*
X89315000Y-60637857D01*
X89386428Y-60566428D01*
X89529285Y-60494999D01*
X89672142Y-60494999D01*
X89815000Y-60566428D01*
X89886428Y-60637857D01*
X89957857Y-60780714D01*
X89957857Y-61280714D01*
X89243571Y-59923571D02*
X89243571Y-58923571D01*
X90743571Y-59566428D01*
X90172142Y-58352142D02*
X90172142Y-57209285D01*
X90743571Y-55709285D02*
X90743571Y-56566428D01*
X90743571Y-56137857D02*
X89243571Y-56137857D01*
X89457857Y-56280714D01*
X89600714Y-56423571D01*
X89672142Y-56566428D01*
X89743571Y-54423571D02*
X90743571Y-54423571D01*
X89172142Y-54780714D02*
X90243571Y-55137857D01*
X90243571Y-54209285D01*
X93293571Y-62780714D02*
X91793571Y-62780714D01*
X91793571Y-62423571D01*
X91865000Y-62209285D01*
X92007857Y-62066428D01*
X92150714Y-61994999D01*
X92436428Y-61923571D01*
X92650714Y-61923571D01*
X92936428Y-61994999D01*
X93079285Y-62066428D01*
X93222142Y-62209285D01*
X93293571Y-62423571D01*
X93293571Y-62780714D01*
X92507857Y-60780714D02*
X92579285Y-60566428D01*
X92650714Y-60494999D01*
X92793571Y-60423571D01*
X93007857Y-60423571D01*
X93150714Y-60494999D01*
X93222142Y-60566428D01*
X93293571Y-60709285D01*
X93293571Y-61280714D01*
X91793571Y-61280714D01*
X91793571Y-60780714D01*
X91865000Y-60637857D01*
X91936428Y-60566428D01*
X92079285Y-60494999D01*
X92222142Y-60494999D01*
X92365000Y-60566428D01*
X92436428Y-60637857D01*
X92507857Y-60780714D01*
X92507857Y-61280714D01*
X91793571Y-59137857D02*
X91793571Y-59423571D01*
X91865000Y-59566428D01*
X91936428Y-59637857D01*
X92150714Y-59780714D01*
X92436428Y-59852142D01*
X93007857Y-59852142D01*
X93150714Y-59780714D01*
X93222142Y-59709285D01*
X93293571Y-59566428D01*
X93293571Y-59280714D01*
X93222142Y-59137857D01*
X93150714Y-59066428D01*
X93007857Y-58994999D01*
X92650714Y-58994999D01*
X92507857Y-59066428D01*
X92436428Y-59137857D01*
X92365000Y-59280714D01*
X92365000Y-59566428D01*
X92436428Y-59709285D01*
X92507857Y-59780714D01*
X92650714Y-59852142D01*
X92722142Y-58352142D02*
X92722142Y-57209285D01*
X93293571Y-55709285D02*
X93293571Y-56566428D01*
X93293571Y-56137857D02*
X91793571Y-56137857D01*
X92007857Y-56280714D01*
X92150714Y-56423571D01*
X92222142Y-56566428D01*
X91793571Y-55209285D02*
X91793571Y-54280714D01*
X92365000Y-54780714D01*
X92365000Y-54566428D01*
X92436428Y-54423571D01*
X92507857Y-54352142D01*
X92650714Y-54280714D01*
X93007857Y-54280714D01*
X93150714Y-54352142D01*
X93222142Y-54423571D01*
X93293571Y-54566428D01*
X93293571Y-54995000D01*
X93222142Y-55137857D01*
X93150714Y-55209285D01*
X95843571Y-62780714D02*
X94343571Y-62780714D01*
X94343571Y-62423571D01*
X94415000Y-62209285D01*
X94557857Y-62066428D01*
X94700714Y-61994999D01*
X94986428Y-61923571D01*
X95200714Y-61923571D01*
X95486428Y-61994999D01*
X95629285Y-62066428D01*
X95772142Y-62209285D01*
X95843571Y-62423571D01*
X95843571Y-62780714D01*
X95057857Y-60780714D02*
X95129285Y-60566428D01*
X95200714Y-60494999D01*
X95343571Y-60423571D01*
X95557857Y-60423571D01*
X95700714Y-60494999D01*
X95772142Y-60566428D01*
X95843571Y-60709285D01*
X95843571Y-61280714D01*
X94343571Y-61280714D01*
X94343571Y-60780714D01*
X94415000Y-60637857D01*
X94486428Y-60566428D01*
X94629285Y-60494999D01*
X94772142Y-60494999D01*
X94915000Y-60566428D01*
X94986428Y-60637857D01*
X95057857Y-60780714D01*
X95057857Y-61280714D01*
X94343571Y-59066428D02*
X94343571Y-59780714D01*
X95057857Y-59852142D01*
X94986428Y-59780714D01*
X94915000Y-59637857D01*
X94915000Y-59280714D01*
X94986428Y-59137857D01*
X95057857Y-59066428D01*
X95200714Y-58994999D01*
X95557857Y-58994999D01*
X95700714Y-59066428D01*
X95772142Y-59137857D01*
X95843571Y-59280714D01*
X95843571Y-59637857D01*
X95772142Y-59780714D01*
X95700714Y-59852142D01*
X95272142Y-58352142D02*
X95272142Y-57209285D01*
X95843571Y-55709285D02*
X95843571Y-56566428D01*
X95843571Y-56137857D02*
X94343571Y-56137857D01*
X94557857Y-56280714D01*
X94700714Y-56423571D01*
X94772142Y-56566428D01*
X94486428Y-55137857D02*
X94415000Y-55066428D01*
X94343571Y-54923571D01*
X94343571Y-54566428D01*
X94415000Y-54423571D01*
X94486428Y-54352142D01*
X94629285Y-54280714D01*
X94772142Y-54280714D01*
X94986428Y-54352142D01*
X95843571Y-55209285D01*
X95843571Y-54280714D01*
X98393571Y-62780714D02*
X96893571Y-62780714D01*
X96893571Y-62423571D01*
X96965000Y-62209285D01*
X97107857Y-62066428D01*
X97250714Y-61994999D01*
X97536428Y-61923571D01*
X97750714Y-61923571D01*
X98036428Y-61994999D01*
X98179285Y-62066428D01*
X98322142Y-62209285D01*
X98393571Y-62423571D01*
X98393571Y-62780714D01*
X97607857Y-60780714D02*
X97679285Y-60566428D01*
X97750714Y-60494999D01*
X97893571Y-60423571D01*
X98107857Y-60423571D01*
X98250714Y-60494999D01*
X98322142Y-60566428D01*
X98393571Y-60709285D01*
X98393571Y-61280714D01*
X96893571Y-61280714D01*
X96893571Y-60780714D01*
X96965000Y-60637857D01*
X97036428Y-60566428D01*
X97179285Y-60494999D01*
X97322142Y-60494999D01*
X97465000Y-60566428D01*
X97536428Y-60637857D01*
X97607857Y-60780714D01*
X97607857Y-61280714D01*
X97393571Y-59137857D02*
X98393571Y-59137857D01*
X96822142Y-59494999D02*
X97893571Y-59852142D01*
X97893571Y-58923571D01*
X97822142Y-58352142D02*
X97822142Y-57209285D01*
X98393571Y-55709285D02*
X98393571Y-56566428D01*
X98393571Y-56137857D02*
X96893571Y-56137857D01*
X97107857Y-56280714D01*
X97250714Y-56423571D01*
X97322142Y-56566428D01*
X98393571Y-54280714D02*
X98393571Y-55137857D01*
X98393571Y-54709285D02*
X96893571Y-54709285D01*
X97107857Y-54852142D01*
X97250714Y-54995000D01*
X97322142Y-55137857D01*
X100943571Y-62780714D02*
X99443571Y-62780714D01*
X99443571Y-62423571D01*
X99515000Y-62209285D01*
X99657857Y-62066428D01*
X99800714Y-61994999D01*
X100086428Y-61923571D01*
X100300714Y-61923571D01*
X100586428Y-61994999D01*
X100729285Y-62066428D01*
X100872142Y-62209285D01*
X100943571Y-62423571D01*
X100943571Y-62780714D01*
X100157857Y-60780714D02*
X100229285Y-60566428D01*
X100300714Y-60494999D01*
X100443571Y-60423571D01*
X100657857Y-60423571D01*
X100800714Y-60494999D01*
X100872142Y-60566428D01*
X100943571Y-60709285D01*
X100943571Y-61280714D01*
X99443571Y-61280714D01*
X99443571Y-60780714D01*
X99515000Y-60637857D01*
X99586428Y-60566428D01*
X99729285Y-60494999D01*
X99872142Y-60494999D01*
X100015000Y-60566428D01*
X100086428Y-60637857D01*
X100157857Y-60780714D01*
X100157857Y-61280714D01*
X99443571Y-59923571D02*
X99443571Y-58994999D01*
X100015000Y-59494999D01*
X100015000Y-59280714D01*
X100086428Y-59137857D01*
X100157857Y-59066428D01*
X100300714Y-58994999D01*
X100657857Y-58994999D01*
X100800714Y-59066428D01*
X100872142Y-59137857D01*
X100943571Y-59280714D01*
X100943571Y-59709285D01*
X100872142Y-59852142D01*
X100800714Y-59923571D01*
X100372142Y-58352142D02*
X100372142Y-57209285D01*
X100943571Y-55709285D02*
X100943571Y-56566428D01*
X100943571Y-56137857D02*
X99443571Y-56137857D01*
X99657857Y-56280714D01*
X99800714Y-56423571D01*
X99872142Y-56566428D01*
X99443571Y-54780714D02*
X99443571Y-54637857D01*
X99515000Y-54495000D01*
X99586428Y-54423571D01*
X99729285Y-54352142D01*
X100015000Y-54280714D01*
X100372142Y-54280714D01*
X100657857Y-54352142D01*
X100800714Y-54423571D01*
X100872142Y-54495000D01*
X100943571Y-54637857D01*
X100943571Y-54780714D01*
X100872142Y-54923571D01*
X100800714Y-54995000D01*
X100657857Y-55066428D01*
X100372142Y-55137857D01*
X100015000Y-55137857D01*
X99729285Y-55066428D01*
X99586428Y-54995000D01*
X99515000Y-54923571D01*
X99443571Y-54780714D01*
X103493571Y-61352142D02*
X101993571Y-61352142D01*
X101993571Y-60995000D01*
X102065000Y-60780714D01*
X102207857Y-60637857D01*
X102350714Y-60566428D01*
X102636428Y-60495000D01*
X102850714Y-60495000D01*
X103136428Y-60566428D01*
X103279285Y-60637857D01*
X103422142Y-60780714D01*
X103493571Y-60995000D01*
X103493571Y-61352142D01*
X102707857Y-59352142D02*
X102779285Y-59137857D01*
X102850714Y-59066428D01*
X102993571Y-58995000D01*
X103207857Y-58995000D01*
X103350714Y-59066428D01*
X103422142Y-59137857D01*
X103493571Y-59280714D01*
X103493571Y-59852142D01*
X101993571Y-59852142D01*
X101993571Y-59352142D01*
X102065000Y-59209285D01*
X102136428Y-59137857D01*
X102279285Y-59066428D01*
X102422142Y-59066428D01*
X102565000Y-59137857D01*
X102636428Y-59209285D01*
X102707857Y-59352142D01*
X102707857Y-59852142D01*
X102136428Y-58423571D02*
X102065000Y-58352142D01*
X101993571Y-58209285D01*
X101993571Y-57852142D01*
X102065000Y-57709285D01*
X102136428Y-57637857D01*
X102279285Y-57566428D01*
X102422142Y-57566428D01*
X102636428Y-57637857D01*
X103493571Y-58495000D01*
X103493571Y-57566428D01*
X102922142Y-56923571D02*
X102922142Y-55780714D01*
X103493571Y-54995000D02*
X103493571Y-54709285D01*
X103422142Y-54566428D01*
X103350714Y-54495000D01*
X103136428Y-54352142D01*
X102850714Y-54280714D01*
X102279285Y-54280714D01*
X102136428Y-54352142D01*
X102065000Y-54423571D01*
X101993571Y-54566428D01*
X101993571Y-54852142D01*
X102065000Y-54995000D01*
X102136428Y-55066428D01*
X102279285Y-55137857D01*
X102636428Y-55137857D01*
X102779285Y-55066428D01*
X102850714Y-54995000D01*
X102922142Y-54852142D01*
X102922142Y-54566428D01*
X102850714Y-54423571D01*
X102779285Y-54352142D01*
X102636428Y-54280714D01*
X106043571Y-61352142D02*
X104543571Y-61352142D01*
X104543571Y-60995000D01*
X104615000Y-60780714D01*
X104757857Y-60637857D01*
X104900714Y-60566428D01*
X105186428Y-60495000D01*
X105400714Y-60495000D01*
X105686428Y-60566428D01*
X105829285Y-60637857D01*
X105972142Y-60780714D01*
X106043571Y-60995000D01*
X106043571Y-61352142D01*
X105257857Y-59352142D02*
X105329285Y-59137857D01*
X105400714Y-59066428D01*
X105543571Y-58995000D01*
X105757857Y-58995000D01*
X105900714Y-59066428D01*
X105972142Y-59137857D01*
X106043571Y-59280714D01*
X106043571Y-59852142D01*
X104543571Y-59852142D01*
X104543571Y-59352142D01*
X104615000Y-59209285D01*
X104686428Y-59137857D01*
X104829285Y-59066428D01*
X104972142Y-59066428D01*
X105115000Y-59137857D01*
X105186428Y-59209285D01*
X105257857Y-59352142D01*
X105257857Y-59852142D01*
X106043571Y-57566428D02*
X106043571Y-58423571D01*
X106043571Y-57995000D02*
X104543571Y-57995000D01*
X104757857Y-58137857D01*
X104900714Y-58280714D01*
X104972142Y-58423571D01*
X105472142Y-56923571D02*
X105472142Y-55780714D01*
X105186428Y-54852142D02*
X105115000Y-54995000D01*
X105043571Y-55066428D01*
X104900714Y-55137857D01*
X104829285Y-55137857D01*
X104686428Y-55066428D01*
X104615000Y-54995000D01*
X104543571Y-54852142D01*
X104543571Y-54566428D01*
X104615000Y-54423571D01*
X104686428Y-54352142D01*
X104829285Y-54280714D01*
X104900714Y-54280714D01*
X105043571Y-54352142D01*
X105115000Y-54423571D01*
X105186428Y-54566428D01*
X105186428Y-54852142D01*
X105257857Y-54995000D01*
X105329285Y-55066428D01*
X105472142Y-55137857D01*
X105757857Y-55137857D01*
X105900714Y-55066428D01*
X105972142Y-54995000D01*
X106043571Y-54852142D01*
X106043571Y-54566428D01*
X105972142Y-54423571D01*
X105900714Y-54352142D01*
X105757857Y-54280714D01*
X105472142Y-54280714D01*
X105329285Y-54352142D01*
X105257857Y-54423571D01*
X105186428Y-54566428D01*
X108593571Y-61352142D02*
X107093571Y-61352142D01*
X107093571Y-60995000D01*
X107165000Y-60780714D01*
X107307857Y-60637857D01*
X107450714Y-60566428D01*
X107736428Y-60495000D01*
X107950714Y-60495000D01*
X108236428Y-60566428D01*
X108379285Y-60637857D01*
X108522142Y-60780714D01*
X108593571Y-60995000D01*
X108593571Y-61352142D01*
X107807857Y-59352142D02*
X107879285Y-59137857D01*
X107950714Y-59066428D01*
X108093571Y-58995000D01*
X108307857Y-58995000D01*
X108450714Y-59066428D01*
X108522142Y-59137857D01*
X108593571Y-59280714D01*
X108593571Y-59852142D01*
X107093571Y-59852142D01*
X107093571Y-59352142D01*
X107165000Y-59209285D01*
X107236428Y-59137857D01*
X107379285Y-59066428D01*
X107522142Y-59066428D01*
X107665000Y-59137857D01*
X107736428Y-59209285D01*
X107807857Y-59352142D01*
X107807857Y-59852142D01*
X107093571Y-58066428D02*
X107093571Y-57923571D01*
X107165000Y-57780714D01*
X107236428Y-57709285D01*
X107379285Y-57637857D01*
X107665000Y-57566428D01*
X108022142Y-57566428D01*
X108307857Y-57637857D01*
X108450714Y-57709285D01*
X108522142Y-57780714D01*
X108593571Y-57923571D01*
X108593571Y-58066428D01*
X108522142Y-58209285D01*
X108450714Y-58280714D01*
X108307857Y-58352142D01*
X108022142Y-58423571D01*
X107665000Y-58423571D01*
X107379285Y-58352142D01*
X107236428Y-58280714D01*
X107165000Y-58209285D01*
X107093571Y-58066428D01*
X108022142Y-56923571D02*
X108022142Y-55780714D01*
X107093571Y-55209285D02*
X107093571Y-54209285D01*
X108593571Y-54852142D01*
X110357857Y-58280714D02*
X110357857Y-57780714D01*
X111143571Y-57566428D02*
X111143571Y-58280714D01*
X109643571Y-58280714D01*
X109643571Y-57566428D01*
X110572142Y-56923571D02*
X110572142Y-55780714D01*
X109643571Y-54423571D02*
X109643571Y-54709285D01*
X109715000Y-54852142D01*
X109786428Y-54923571D01*
X110000714Y-55066428D01*
X110286428Y-55137857D01*
X110857857Y-55137857D01*
X111000714Y-55066428D01*
X111072142Y-54995000D01*
X111143571Y-54852142D01*
X111143571Y-54566428D01*
X111072142Y-54423571D01*
X111000714Y-54352142D01*
X110857857Y-54280714D01*
X110500714Y-54280714D01*
X110357857Y-54352142D01*
X110286428Y-54423571D01*
X110215000Y-54566428D01*
X110215000Y-54852142D01*
X110286428Y-54995000D01*
X110357857Y-55066428D01*
X110500714Y-55137857D01*
X113693571Y-60852142D02*
X112979285Y-61352142D01*
X113693571Y-61709285D02*
X112193571Y-61709285D01*
X112193571Y-61137857D01*
X112265000Y-60995000D01*
X112336428Y-60923571D01*
X112479285Y-60852142D01*
X112693571Y-60852142D01*
X112836428Y-60923571D01*
X112907857Y-60995000D01*
X112979285Y-61137857D01*
X112979285Y-61709285D01*
X112122142Y-59137857D02*
X114050714Y-60423571D01*
X111545000Y-58995000D02*
X111545000Y-57280714D01*
X112193571Y-58780714D02*
X113693571Y-58423571D01*
X112622142Y-58137857D01*
X113693571Y-57852142D01*
X112193571Y-57495000D01*
X113122142Y-56923571D02*
X113122142Y-55780714D01*
X112193571Y-54352142D02*
X112193571Y-55066428D01*
X112907857Y-55137857D01*
X112836428Y-55066428D01*
X112765000Y-54923571D01*
X112765000Y-54566428D01*
X112836428Y-54423571D01*
X112907857Y-54352142D01*
X113050714Y-54280714D01*
X113407857Y-54280714D01*
X113550714Y-54352142D01*
X113622142Y-54423571D01*
X113693571Y-54566428D01*
X113693571Y-54923571D01*
X113622142Y-55066428D01*
X113550714Y-55137857D01*
X116243571Y-58995000D02*
X115529285Y-59495000D01*
X116243571Y-59852142D02*
X114743571Y-59852142D01*
X114743571Y-59280714D01*
X114815000Y-59137857D01*
X114886428Y-59066428D01*
X115029285Y-58995000D01*
X115243571Y-58995000D01*
X115386428Y-59066428D01*
X115457857Y-59137857D01*
X115529285Y-59280714D01*
X115529285Y-59852142D01*
X116172142Y-58423571D02*
X116243571Y-58209285D01*
X116243571Y-57852142D01*
X116172142Y-57709285D01*
X116100714Y-57637857D01*
X115957857Y-57566428D01*
X115815000Y-57566428D01*
X115672142Y-57637857D01*
X115600714Y-57709285D01*
X115529285Y-57852142D01*
X115457857Y-58137857D01*
X115386428Y-58280714D01*
X115315000Y-58352142D01*
X115172142Y-58423571D01*
X115029285Y-58423571D01*
X114886428Y-58352142D01*
X114815000Y-58280714D01*
X114743571Y-58137857D01*
X114743571Y-57780714D01*
X114815000Y-57566428D01*
X115672142Y-56923571D02*
X115672142Y-55780714D01*
X115243571Y-54423571D02*
X116243571Y-54423571D01*
X114672142Y-54780714D02*
X115743571Y-55137857D01*
X115743571Y-54209285D01*
X117293571Y-59780714D02*
X118793571Y-59280714D01*
X117293571Y-58780714D01*
X118793571Y-58066428D02*
X118722142Y-58209285D01*
X118650714Y-58280714D01*
X118507857Y-58352142D01*
X118079285Y-58352142D01*
X117936428Y-58280714D01*
X117865000Y-58209285D01*
X117793571Y-58066428D01*
X117793571Y-57852142D01*
X117865000Y-57709285D01*
X117936428Y-57637857D01*
X118079285Y-57566428D01*
X118507857Y-57566428D01*
X118650714Y-57637857D01*
X118722142Y-57709285D01*
X118793571Y-57852142D01*
X118793571Y-58066428D01*
X118222142Y-56923571D02*
X118222142Y-55780714D01*
X117293571Y-55209285D02*
X117293571Y-54280714D01*
X117865000Y-54780714D01*
X117865000Y-54566428D01*
X117936428Y-54423571D01*
X118007857Y-54352142D01*
X118150714Y-54280714D01*
X118507857Y-54280714D01*
X118650714Y-54352142D01*
X118722142Y-54423571D01*
X118793571Y-54566428D01*
X118793571Y-54995000D01*
X118722142Y-55137857D01*
X118650714Y-55209285D01*
X119843571Y-61423571D02*
X121343571Y-60923571D01*
X119843571Y-60423571D01*
X121343571Y-59923571D02*
X119843571Y-59923571D01*
X119843571Y-59566428D01*
X119915000Y-59352142D01*
X120057857Y-59209285D01*
X120200714Y-59137857D01*
X120486428Y-59066428D01*
X120700714Y-59066428D01*
X120986428Y-59137857D01*
X121129285Y-59209285D01*
X121272142Y-59352142D01*
X121343571Y-59566428D01*
X121343571Y-59923571D01*
X121343571Y-58423571D02*
X119843571Y-58423571D01*
X119843571Y-58066428D01*
X119915000Y-57852142D01*
X120057857Y-57709285D01*
X120200714Y-57637857D01*
X120486428Y-57566428D01*
X120700714Y-57566428D01*
X120986428Y-57637857D01*
X121129285Y-57709285D01*
X121272142Y-57852142D01*
X121343571Y-58066428D01*
X121343571Y-58423571D01*
X120772142Y-56923571D02*
X120772142Y-55780714D01*
X119986428Y-55137857D02*
X119915000Y-55066428D01*
X119843571Y-54923571D01*
X119843571Y-54566428D01*
X119915000Y-54423571D01*
X119986428Y-54352142D01*
X120129285Y-54280714D01*
X120272142Y-54280714D01*
X120486428Y-54352142D01*
X121343571Y-55209285D01*
X121343571Y-54280714D01*
X122393571Y-61280714D02*
X123893571Y-60780714D01*
X122393571Y-60280714D01*
X123822142Y-59852142D02*
X123893571Y-59637857D01*
X123893571Y-59280714D01*
X123822142Y-59137857D01*
X123750714Y-59066428D01*
X123607857Y-58995000D01*
X123465000Y-58995000D01*
X123322142Y-59066428D01*
X123250714Y-59137857D01*
X123179285Y-59280714D01*
X123107857Y-59566428D01*
X123036428Y-59709285D01*
X122965000Y-59780714D01*
X122822142Y-59852142D01*
X122679285Y-59852142D01*
X122536428Y-59780714D01*
X122465000Y-59709285D01*
X122393571Y-59566428D01*
X122393571Y-59209285D01*
X122465000Y-58995000D01*
X123822142Y-58423571D02*
X123893571Y-58209285D01*
X123893571Y-57852142D01*
X123822142Y-57709285D01*
X123750714Y-57637857D01*
X123607857Y-57566428D01*
X123465000Y-57566428D01*
X123322142Y-57637857D01*
X123250714Y-57709285D01*
X123179285Y-57852142D01*
X123107857Y-58137857D01*
X123036428Y-58280714D01*
X122965000Y-58352142D01*
X122822142Y-58423571D01*
X122679285Y-58423571D01*
X122536428Y-58352142D01*
X122465000Y-58280714D01*
X122393571Y-58137857D01*
X122393571Y-57780714D01*
X122465000Y-57566428D01*
X123322142Y-56923571D02*
X123322142Y-55780714D01*
X123893571Y-54280714D02*
X123893571Y-55137857D01*
X123893571Y-54709285D02*
X122393571Y-54709285D01*
X122607857Y-54852142D01*
X122750714Y-54995000D01*
X122822142Y-55137857D01*
X126015000Y-60852142D02*
X126015000Y-60137857D01*
X126443571Y-60995000D02*
X124943571Y-60495000D01*
X126443571Y-59995000D01*
X125872142Y-58352142D02*
X125872142Y-57209285D01*
X126443571Y-55709285D02*
X126443571Y-56566428D01*
X126443571Y-56137857D02*
X124943571Y-56137857D01*
X125157857Y-56280714D01*
X125300714Y-56423571D01*
X125372142Y-56566428D01*
X124943571Y-54423571D02*
X124943571Y-54709285D01*
X125015000Y-54852142D01*
X125086428Y-54923571D01*
X125300714Y-55066428D01*
X125586428Y-55137857D01*
X126157857Y-55137857D01*
X126300714Y-55066428D01*
X126372142Y-54995000D01*
X126443571Y-54852142D01*
X126443571Y-54566428D01*
X126372142Y-54423571D01*
X126300714Y-54352142D01*
X126157857Y-54280714D01*
X125800714Y-54280714D01*
X125657857Y-54352142D01*
X125586428Y-54423571D01*
X125515000Y-54566428D01*
X125515000Y-54852142D01*
X125586428Y-54995000D01*
X125657857Y-55066428D01*
X125800714Y-55137857D01*
X128993571Y-60995000D02*
X127493571Y-60995000D01*
X128993571Y-60137857D02*
X128136428Y-60780714D01*
X127493571Y-60137857D02*
X128350714Y-60995000D01*
X128422142Y-58352142D02*
X128422142Y-57209285D01*
X128993571Y-55709285D02*
X128993571Y-56566428D01*
X128993571Y-56137857D02*
X127493571Y-56137857D01*
X127707857Y-56280714D01*
X127850714Y-56423571D01*
X127922142Y-56566428D01*
X127493571Y-54352142D02*
X127493571Y-55066428D01*
X128207857Y-55137857D01*
X128136428Y-55066428D01*
X128065000Y-54923571D01*
X128065000Y-54566428D01*
X128136428Y-54423571D01*
X128207857Y-54352142D01*
X128350714Y-54280714D01*
X128707857Y-54280714D01*
X128850714Y-54352142D01*
X128922142Y-54423571D01*
X128993571Y-54566428D01*
X128993571Y-54923571D01*
X128922142Y-55066428D01*
X128850714Y-55137857D01*
D11*
X96570000Y-46300952D02*
X95141428Y-46300952D01*
X95855714Y-46300952D02*
X95855714Y-43800952D01*
X95617619Y-44158095D01*
X95379523Y-44396190D01*
X95141428Y-44515238D01*
X98712857Y-43800952D02*
X98236666Y-43800952D01*
X97998571Y-43920000D01*
X97879523Y-44039047D01*
X97641428Y-44396190D01*
X97522380Y-44872380D01*
X97522380Y-45824761D01*
X97641428Y-46062857D01*
X97760476Y-46181904D01*
X97998571Y-46300952D01*
X98474761Y-46300952D01*
X98712857Y-46181904D01*
X98831904Y-46062857D01*
X98950952Y-45824761D01*
X98950952Y-45229523D01*
X98831904Y-44991428D01*
X98712857Y-44872380D01*
X98474761Y-44753333D01*
X97998571Y-44753333D01*
X97760476Y-44872380D01*
X97641428Y-44991428D01*
X97522380Y-45229523D01*
X100498571Y-43800952D02*
X100736666Y-43800952D01*
X100974761Y-43920000D01*
X101093809Y-44039047D01*
X101212857Y-44277142D01*
X101331904Y-44753333D01*
X101331904Y-45348571D01*
X101212857Y-45824761D01*
X101093809Y-46062857D01*
X100974761Y-46181904D01*
X100736666Y-46300952D01*
X100498571Y-46300952D01*
X100260476Y-46181904D01*
X100141428Y-46062857D01*
X100022380Y-45824761D01*
X99903333Y-45348571D01*
X99903333Y-44753333D01*
X100022380Y-44277142D01*
X100141428Y-44039047D01*
X100260476Y-43920000D01*
X100498571Y-43800952D01*
X102284285Y-44039047D02*
X102403333Y-43920000D01*
X102641428Y-43800952D01*
X103236666Y-43800952D01*
X103474761Y-43920000D01*
X103593809Y-44039047D01*
X103712857Y-44277142D01*
X103712857Y-44515238D01*
X103593809Y-44872380D01*
X102165238Y-46300952D01*
X103712857Y-46300952D01*
X106689047Y-46300952D02*
X106689047Y-43800952D01*
X107284285Y-43800952D01*
X107641428Y-43920000D01*
X107879523Y-44158095D01*
X107998571Y-44396190D01*
X108117619Y-44872380D01*
X108117619Y-45229523D01*
X107998571Y-45705714D01*
X107879523Y-45943809D01*
X107641428Y-46181904D01*
X107284285Y-46300952D01*
X106689047Y-46300952D01*
X109189047Y-46300952D02*
X109189047Y-43800952D01*
X110260476Y-46181904D02*
X110617619Y-46300952D01*
X111212857Y-46300952D01*
X111450952Y-46181904D01*
X111570000Y-46062857D01*
X111689047Y-45824761D01*
X111689047Y-45586666D01*
X111570000Y-45348571D01*
X111450952Y-45229523D01*
X111212857Y-45110476D01*
X110736666Y-44991428D01*
X110498571Y-44872380D01*
X110379523Y-44753333D01*
X110260476Y-44515238D01*
X110260476Y-44277142D01*
X110379523Y-44039047D01*
X110498571Y-43920000D01*
X110736666Y-43800952D01*
X111331904Y-43800952D01*
X111689047Y-43920000D01*
X112760476Y-46300952D02*
X112760476Y-43800952D01*
X113712857Y-43800952D01*
X113950952Y-43920000D01*
X114070000Y-44039047D01*
X114189047Y-44277142D01*
X114189047Y-44634285D01*
X114070000Y-44872380D01*
X113950952Y-44991428D01*
X113712857Y-45110476D01*
X112760476Y-45110476D01*
X116450952Y-46300952D02*
X115260476Y-46300952D01*
X115260476Y-43800952D01*
X117165238Y-45586666D02*
X118355714Y-45586666D01*
X116927142Y-46300952D02*
X117760476Y-43800952D01*
X118593809Y-46300952D01*
X119903333Y-45110476D02*
X119903333Y-46300952D01*
X119070000Y-43800952D02*
X119903333Y-45110476D01*
X120736666Y-43800952D01*
X170776666Y-46540952D02*
X170776666Y-44040952D01*
X171729047Y-44040952D01*
X171967142Y-44160000D01*
X172086190Y-44279047D01*
X172205238Y-44517142D01*
X172205238Y-44874285D01*
X172086190Y-45112380D01*
X171967142Y-45231428D01*
X171729047Y-45350476D01*
X170776666Y-45350476D01*
X174705238Y-46302857D02*
X174586190Y-46421904D01*
X174229047Y-46540952D01*
X173990952Y-46540952D01*
X173633809Y-46421904D01*
X173395714Y-46183809D01*
X173276666Y-45945714D01*
X173157619Y-45469523D01*
X173157619Y-45112380D01*
X173276666Y-44636190D01*
X173395714Y-44398095D01*
X173633809Y-44160000D01*
X173990952Y-44040952D01*
X174229047Y-44040952D01*
X174586190Y-44160000D01*
X174705238Y-44279047D01*
X176610000Y-45231428D02*
X175776666Y-45231428D01*
X175776666Y-46540952D02*
X175776666Y-44040952D01*
X176967142Y-44040952D01*
X178276666Y-45112380D02*
X178038571Y-44993333D01*
X177919523Y-44874285D01*
X177800476Y-44636190D01*
X177800476Y-44517142D01*
X177919523Y-44279047D01*
X178038571Y-44160000D01*
X178276666Y-44040952D01*
X178752857Y-44040952D01*
X178990952Y-44160000D01*
X179110000Y-44279047D01*
X179229047Y-44517142D01*
X179229047Y-44636190D01*
X179110000Y-44874285D01*
X178990952Y-44993333D01*
X178752857Y-45112380D01*
X178276666Y-45112380D01*
X178038571Y-45231428D01*
X177919523Y-45350476D01*
X177800476Y-45588571D01*
X177800476Y-46064761D01*
X177919523Y-46302857D01*
X178038571Y-46421904D01*
X178276666Y-46540952D01*
X178752857Y-46540952D01*
X178990952Y-46421904D01*
X179110000Y-46302857D01*
X179229047Y-46064761D01*
X179229047Y-45588571D01*
X179110000Y-45350476D01*
X178990952Y-45231428D01*
X178752857Y-45112380D01*
X181490952Y-44040952D02*
X180300476Y-44040952D01*
X180181428Y-45231428D01*
X180300476Y-45112380D01*
X180538571Y-44993333D01*
X181133809Y-44993333D01*
X181371904Y-45112380D01*
X181490952Y-45231428D01*
X181610000Y-45469523D01*
X181610000Y-46064761D01*
X181490952Y-46302857D01*
X181371904Y-46421904D01*
X181133809Y-46540952D01*
X180538571Y-46540952D01*
X180300476Y-46421904D01*
X180181428Y-46302857D01*
X182443333Y-44040952D02*
X184110000Y-44040952D01*
X183038571Y-46540952D01*
X186133809Y-44874285D02*
X186133809Y-46540952D01*
X185538571Y-43921904D02*
X184943333Y-45707619D01*
X186490952Y-45707619D01*
X187324285Y-45826666D02*
X188514761Y-45826666D01*
X187086190Y-46540952D02*
X187919523Y-44040952D01*
X188752857Y-46540952D01*
X190895714Y-46540952D02*
X189467142Y-46540952D01*
X190181428Y-46540952D02*
X190181428Y-44040952D01*
X189943333Y-44398095D01*
X189705238Y-44636190D01*
X189467142Y-44755238D01*
X194705238Y-45231428D02*
X195062380Y-45350476D01*
X195181428Y-45469523D01*
X195300476Y-45707619D01*
X195300476Y-46064761D01*
X195181428Y-46302857D01*
X195062380Y-46421904D01*
X194824285Y-46540952D01*
X193871904Y-46540952D01*
X193871904Y-44040952D01*
X194705238Y-44040952D01*
X194943333Y-44160000D01*
X195062380Y-44279047D01*
X195181428Y-44517142D01*
X195181428Y-44755238D01*
X195062380Y-44993333D01*
X194943333Y-45112380D01*
X194705238Y-45231428D01*
X193871904Y-45231428D01*
X196848095Y-44040952D02*
X197324285Y-44040952D01*
X197562380Y-44160000D01*
X197800476Y-44398095D01*
X197919523Y-44874285D01*
X197919523Y-45707619D01*
X197800476Y-46183809D01*
X197562380Y-46421904D01*
X197324285Y-46540952D01*
X196848095Y-46540952D01*
X196610000Y-46421904D01*
X196371904Y-46183809D01*
X196252857Y-45707619D01*
X196252857Y-44874285D01*
X196371904Y-44398095D01*
X196610000Y-44160000D01*
X196848095Y-44040952D01*
X198871904Y-45826666D02*
X200062380Y-45826666D01*
X198633809Y-46540952D02*
X199467142Y-44040952D01*
X200300476Y-46540952D01*
X202562380Y-46540952D02*
X201729047Y-45350476D01*
X201133809Y-46540952D02*
X201133809Y-44040952D01*
X202086190Y-44040952D01*
X202324285Y-44160000D01*
X202443333Y-44279047D01*
X202562380Y-44517142D01*
X202562380Y-44874285D01*
X202443333Y-45112380D01*
X202324285Y-45231428D01*
X202086190Y-45350476D01*
X201133809Y-45350476D01*
X203633809Y-46540952D02*
X203633809Y-44040952D01*
X204229047Y-44040952D01*
X204586190Y-44160000D01*
X204824285Y-44398095D01*
X204943333Y-44636190D01*
X205062380Y-45112380D01*
X205062380Y-45469523D01*
X204943333Y-45945714D01*
X204824285Y-46183809D01*
X204586190Y-46421904D01*
X204229047Y-46540952D01*
X203633809Y-46540952D01*
D12*
X206830000Y-53680000D02*
X166060000Y-53670000D01*
X166040000Y-37820000D02*
X166050000Y-53670000D01*
X206850000Y-37850000D02*
X206830000Y-53680000D01*
X166040000Y-37820000D02*
X206850000Y-37850000D01*
D13*
X234040000Y-9300000D02*
X160610000Y-9330000D01*
X235330000Y-10590000D02*
X235290000Y-169120000D01*
X78440000Y-170400000D02*
X234000000Y-170410000D01*
X77000000Y-10640000D02*
X77150000Y-169110000D01*
X78290000Y-9350000D02*
X87000000Y-9350000D01*
X77000000Y-10640000D02*
G75*
G02X78290000Y-9350000I1290000J0D01*
G01*
X78440000Y-170400000D02*
G75*
G02X77150000Y-169110000I0J1290000D01*
G01*
X235290000Y-169120000D02*
G75*
G02X234000000Y-170410000I-1290000J0D01*
G01*
X234040000Y-9300000D02*
G75*
G02X235330000Y-10590000I0J-1290000D01*
G01*
X137890000Y-9330000D02*
X141450000Y-9330000D01*
X136600000Y-10620000D02*
X88290000Y-10640000D01*
X136600000Y-10620000D02*
G75*
G02X137890000Y-9330000I1290000J0D01*
G01*
X87000000Y-9350000D02*
G75*
G02X88290000Y-10640000I0J-1290000D01*
G01*
X142740000Y-10620000D02*
X159320000Y-10620000D01*
X159320000Y-10620000D02*
G75*
G02X160610000Y-9330000I1290000J0D01*
G01*
X141450000Y-9330000D02*
G75*
G02X142740000Y-10620000I0J-1290000D01*
G01*
D12*
X214490476Y-147222380D02*
X214490476Y-146222380D01*
X215061904Y-147222380D01*
X215061904Y-146222380D01*
X215538095Y-146698571D02*
X215871428Y-146698571D01*
X216014285Y-147222380D02*
X215538095Y-147222380D01*
X215538095Y-146222380D01*
X216014285Y-146222380D01*
X216347619Y-146222380D02*
X216585714Y-147222380D01*
X216776190Y-146508095D01*
X216966666Y-147222380D01*
X217204761Y-146222380D01*
X130230476Y-117012380D02*
X130230476Y-116012380D01*
X130801904Y-117012380D01*
X130801904Y-116012380D01*
X131278095Y-116488571D02*
X131611428Y-116488571D01*
X131754285Y-117012380D02*
X131278095Y-117012380D01*
X131278095Y-116012380D01*
X131754285Y-116012380D01*
X132087619Y-116012380D02*
X132325714Y-117012380D01*
X132516190Y-116298095D01*
X132706666Y-117012380D01*
X132944761Y-116012380D01*
X193110476Y-79982380D02*
X193110476Y-78982380D01*
X193681904Y-79982380D01*
X193681904Y-78982380D01*
X194158095Y-79458571D02*
X194491428Y-79458571D01*
X194634285Y-79982380D02*
X194158095Y-79982380D01*
X194158095Y-78982380D01*
X194634285Y-78982380D01*
X194967619Y-78982380D02*
X195205714Y-79982380D01*
X195396190Y-79268095D01*
X195586666Y-79982380D01*
X195824761Y-78982380D01*
D10*
X137583571Y-14795714D02*
X137583571Y-15510000D01*
X138297857Y-15581428D01*
X138226428Y-15510000D01*
X138155000Y-15367142D01*
X138155000Y-15010000D01*
X138226428Y-14867142D01*
X138297857Y-14795714D01*
X138440714Y-14724285D01*
X138797857Y-14724285D01*
X138940714Y-14795714D01*
X139012142Y-14867142D01*
X139083571Y-15010000D01*
X139083571Y-15367142D01*
X139012142Y-15510000D01*
X138940714Y-15581428D01*
X137583571Y-14295714D02*
X139083571Y-13795714D01*
X137583571Y-13295714D01*
X140133571Y-18117142D02*
X141205000Y-18117142D01*
X141419285Y-18188571D01*
X141562142Y-18331428D01*
X141633571Y-18545714D01*
X141633571Y-18688571D01*
X140133571Y-17402857D02*
X141347857Y-17402857D01*
X141490714Y-17331428D01*
X141562142Y-17260000D01*
X141633571Y-17117142D01*
X141633571Y-16831428D01*
X141562142Y-16688571D01*
X141490714Y-16617142D01*
X141347857Y-16545714D01*
X140133571Y-16545714D01*
X141633571Y-15831428D02*
X140133571Y-15831428D01*
X141205000Y-15331428D01*
X140133571Y-14831428D01*
X141633571Y-14831428D01*
X141633571Y-14117142D02*
X140133571Y-14117142D01*
X140133571Y-13545714D01*
X140205000Y-13402857D01*
X140276428Y-13331428D01*
X140419285Y-13260000D01*
X140633571Y-13260000D01*
X140776428Y-13331428D01*
X140847857Y-13402857D01*
X140919285Y-13545714D01*
X140919285Y-14117142D01*
X140847857Y-12617142D02*
X140847857Y-12117142D01*
X141633571Y-11902857D02*
X141633571Y-12617142D01*
X140133571Y-12617142D01*
X140133571Y-11902857D01*
X141633571Y-10402857D02*
X140919285Y-10902857D01*
X141633571Y-11260000D02*
X140133571Y-11260000D01*
X140133571Y-10688571D01*
X140205000Y-10545714D01*
X140276428Y-10474285D01*
X140419285Y-10402857D01*
X140633571Y-10402857D01*
X140776428Y-10474285D01*
X140847857Y-10545714D01*
X140919285Y-10688571D01*
X140919285Y-11260000D01*
D14*
X129515000Y-15760000D02*
X129515000Y-14402857D01*
X130812857Y-15402857D02*
X130812857Y-14902857D01*
X131598571Y-14688571D02*
X131598571Y-15402857D01*
X130098571Y-15402857D01*
X130098571Y-14688571D01*
X129515000Y-14402857D02*
X129515000Y-13260000D01*
X130098571Y-14260000D02*
X130098571Y-13402857D01*
X131598571Y-13831428D02*
X130098571Y-13831428D01*
X132670000Y-15652857D02*
X132598571Y-15795714D01*
X132598571Y-16010000D01*
X132670000Y-16224285D01*
X132812857Y-16367142D01*
X132955714Y-16438571D01*
X133241428Y-16510000D01*
X133455714Y-16510000D01*
X133741428Y-16438571D01*
X133884285Y-16367142D01*
X134027142Y-16224285D01*
X134098571Y-16010000D01*
X134098571Y-15867142D01*
X134027142Y-15652857D01*
X133955714Y-15581428D01*
X133455714Y-15581428D01*
X133455714Y-15867142D01*
X134098571Y-14938571D02*
X132598571Y-14938571D01*
X134098571Y-14081428D01*
X132598571Y-14081428D01*
X134098571Y-13367142D02*
X132598571Y-13367142D01*
X132598571Y-13010000D01*
X132670000Y-12795714D01*
X132812857Y-12652857D01*
X132955714Y-12581428D01*
X133241428Y-12510000D01*
X133455714Y-12510000D01*
X133741428Y-12581428D01*
X133884285Y-12652857D01*
X134027142Y-12795714D01*
X134098571Y-13010000D01*
X134098571Y-13367142D01*
X142850000Y-15684642D02*
X142778571Y-15827500D01*
X142778571Y-16041785D01*
X142850000Y-16256071D01*
X142992857Y-16398928D01*
X143135714Y-16470357D01*
X143421428Y-16541785D01*
X143635714Y-16541785D01*
X143921428Y-16470357D01*
X144064285Y-16398928D01*
X144207142Y-16256071D01*
X144278571Y-16041785D01*
X144278571Y-15898928D01*
X144207142Y-15684642D01*
X144135714Y-15613214D01*
X143635714Y-15613214D01*
X143635714Y-15898928D01*
X144278571Y-14970357D02*
X142778571Y-14970357D01*
X144278571Y-14113214D01*
X142778571Y-14113214D01*
X144278571Y-13398928D02*
X142778571Y-13398928D01*
X142778571Y-13041785D01*
X142850000Y-12827500D01*
X142992857Y-12684642D01*
X143135714Y-12613214D01*
X143421428Y-12541785D01*
X143635714Y-12541785D01*
X143921428Y-12613214D01*
X144064285Y-12684642D01*
X144207142Y-12827500D01*
X144278571Y-13041785D01*
X144278571Y-13398928D01*
X146635714Y-15613214D02*
X146707142Y-15684642D01*
X146778571Y-15898928D01*
X146778571Y-16041785D01*
X146707142Y-16256071D01*
X146564285Y-16398928D01*
X146421428Y-16470357D01*
X146135714Y-16541785D01*
X145921428Y-16541785D01*
X145635714Y-16470357D01*
X145492857Y-16398928D01*
X145350000Y-16256071D01*
X145278571Y-16041785D01*
X145278571Y-15898928D01*
X145350000Y-15684642D01*
X145421428Y-15613214D01*
X145278571Y-15184642D02*
X145278571Y-14327500D01*
X146778571Y-14756071D02*
X145278571Y-14756071D01*
X146707142Y-13898928D02*
X146778571Y-13684642D01*
X146778571Y-13327500D01*
X146707142Y-13184642D01*
X146635714Y-13113214D01*
X146492857Y-13041785D01*
X146350000Y-13041785D01*
X146207142Y-13113214D01*
X146135714Y-13184642D01*
X146064285Y-13327500D01*
X145992857Y-13613214D01*
X145921428Y-13756071D01*
X145850000Y-13827500D01*
X145707142Y-13898928D01*
X145564285Y-13898928D01*
X145421428Y-13827500D01*
X145350000Y-13756071D01*
X145278571Y-13613214D01*
X145278571Y-13256071D01*
X145350000Y-13041785D01*
X145778571Y-12470357D02*
X145778571Y-11398928D01*
X145135714Y-12041785D02*
X147064285Y-12470357D01*
X146421428Y-11541785D02*
X146421428Y-12613214D01*
X147064285Y-11970357D02*
X145135714Y-11541785D01*
X148707142Y-16470357D02*
X148707142Y-15327500D01*
X149278571Y-15898928D02*
X148135714Y-15898928D01*
X147778571Y-13898928D02*
X147778571Y-14613214D01*
X148492857Y-14684642D01*
X148421428Y-14613214D01*
X148350000Y-14470357D01*
X148350000Y-14113214D01*
X148421428Y-13970357D01*
X148492857Y-13898928D01*
X148635714Y-13827500D01*
X148992857Y-13827500D01*
X149135714Y-13898928D01*
X149207142Y-13970357D01*
X149278571Y-14113214D01*
X149278571Y-14470357D01*
X149207142Y-14613214D01*
X149135714Y-14684642D01*
X147778571Y-13398928D02*
X149278571Y-12898928D01*
X147778571Y-12398928D01*
X150278571Y-16684642D02*
X150278571Y-15827500D01*
X151778571Y-16256071D02*
X150278571Y-16256071D01*
X150278571Y-15470357D02*
X151778571Y-14470357D01*
X150278571Y-14470357D02*
X151778571Y-15470357D01*
X151778571Y-13898928D02*
X150278571Y-13898928D01*
X150278571Y-13541785D01*
X150350000Y-13327500D01*
X150492857Y-13184642D01*
X150635714Y-13113214D01*
X150921428Y-13041785D01*
X151135714Y-13041785D01*
X151421428Y-13113214D01*
X151564285Y-13184642D01*
X151707142Y-13327500D01*
X151778571Y-13541785D01*
X151778571Y-13898928D01*
X154278571Y-15613214D02*
X153564285Y-16113214D01*
X154278571Y-16470357D02*
X152778571Y-16470357D01*
X152778571Y-15898928D01*
X152850000Y-15756071D01*
X152921428Y-15684642D01*
X153064285Y-15613214D01*
X153278571Y-15613214D01*
X153421428Y-15684642D01*
X153492857Y-15756071D01*
X153564285Y-15898928D01*
X153564285Y-16470357D01*
X152778571Y-15113214D02*
X154278571Y-14113214D01*
X152778571Y-14113214D02*
X154278571Y-15113214D01*
X154278571Y-13541785D02*
X152778571Y-13541785D01*
X152778571Y-13184642D01*
X152850000Y-12970357D01*
X152992857Y-12827500D01*
X153135714Y-12756071D01*
X153421428Y-12684642D01*
X153635714Y-12684642D01*
X153921428Y-12756071D01*
X154064285Y-12827500D01*
X154207142Y-12970357D01*
X154278571Y-13184642D01*
X154278571Y-13541785D01*
X156778571Y-15613214D02*
X156064285Y-16113214D01*
X156778571Y-16470357D02*
X155278571Y-16470357D01*
X155278571Y-15898928D01*
X155350000Y-15756071D01*
X155421428Y-15684642D01*
X155564285Y-15613214D01*
X155778571Y-15613214D01*
X155921428Y-15684642D01*
X155992857Y-15756071D01*
X156064285Y-15898928D01*
X156064285Y-16470357D01*
X155278571Y-15184642D02*
X155278571Y-14327500D01*
X156778571Y-14756071D02*
X155278571Y-14756071D01*
X156707142Y-13898928D02*
X156778571Y-13684642D01*
X156778571Y-13327500D01*
X156707142Y-13184642D01*
X156635714Y-13113214D01*
X156492857Y-13041785D01*
X156350000Y-13041785D01*
X156207142Y-13113214D01*
X156135714Y-13184642D01*
X156064285Y-13327500D01*
X155992857Y-13613214D01*
X155921428Y-13756071D01*
X155850000Y-13827500D01*
X155707142Y-13898928D01*
X155564285Y-13898928D01*
X155421428Y-13827500D01*
X155350000Y-13756071D01*
X155278571Y-13613214D01*
X155278571Y-13256071D01*
X155350000Y-13041785D01*
X155778571Y-12470357D02*
X155778571Y-11398928D01*
X155135714Y-12041785D02*
X157064285Y-12470357D01*
X156421428Y-11541785D02*
X156421428Y-12613214D01*
X157064285Y-11970357D02*
X155135714Y-11541785D01*
D10*
X88125000Y-15672142D02*
X88053571Y-15815000D01*
X88053571Y-16029285D01*
X88125000Y-16243571D01*
X88267857Y-16386428D01*
X88410714Y-16457857D01*
X88696428Y-16529285D01*
X88910714Y-16529285D01*
X89196428Y-16457857D01*
X89339285Y-16386428D01*
X89482142Y-16243571D01*
X89553571Y-16029285D01*
X89553571Y-15886428D01*
X89482142Y-15672142D01*
X89410714Y-15600714D01*
X88910714Y-15600714D01*
X88910714Y-15886428D01*
X89553571Y-14957857D02*
X88053571Y-14957857D01*
X89553571Y-14100714D01*
X88053571Y-14100714D01*
X89553571Y-13386428D02*
X88053571Y-13386428D01*
X88053571Y-13029285D01*
X88125000Y-12815000D01*
X88267857Y-12672142D01*
X88410714Y-12600714D01*
X88696428Y-12529285D01*
X88910714Y-12529285D01*
X89196428Y-12600714D01*
X89339285Y-12672142D01*
X89482142Y-12815000D01*
X89553571Y-13029285D01*
X89553571Y-13386428D01*
X90603571Y-16672142D02*
X90603571Y-15815000D01*
X92103571Y-16243571D02*
X90603571Y-16243571D01*
X92103571Y-15315000D02*
X90603571Y-15315000D01*
X90603571Y-14743571D01*
X90675000Y-14600714D01*
X90746428Y-14529285D01*
X90889285Y-14457857D01*
X91103571Y-14457857D01*
X91246428Y-14529285D01*
X91317857Y-14600714D01*
X91389285Y-14743571D01*
X91389285Y-15315000D01*
X92103571Y-13029285D02*
X92103571Y-13886428D01*
X92103571Y-13457857D02*
X90603571Y-13457857D01*
X90817857Y-13600714D01*
X90960714Y-13743571D01*
X91032142Y-13886428D01*
X93153571Y-16672142D02*
X93153571Y-15815000D01*
X94653571Y-16243571D02*
X93153571Y-16243571D01*
X94653571Y-15315000D02*
X93153571Y-15315000D01*
X93153571Y-14743571D01*
X93225000Y-14600714D01*
X93296428Y-14529285D01*
X93439285Y-14457857D01*
X93653571Y-14457857D01*
X93796428Y-14529285D01*
X93867857Y-14600714D01*
X93939285Y-14743571D01*
X93939285Y-15315000D01*
X93296428Y-13886428D02*
X93225000Y-13815000D01*
X93153571Y-13672142D01*
X93153571Y-13315000D01*
X93225000Y-13172142D01*
X93296428Y-13100714D01*
X93439285Y-13029285D01*
X93582142Y-13029285D01*
X93796428Y-13100714D01*
X94653571Y-13957857D01*
X94653571Y-13029285D01*
X95703571Y-16672142D02*
X95703571Y-15815000D01*
X97203571Y-16243571D02*
X95703571Y-16243571D01*
X97203571Y-15315000D02*
X95703571Y-15315000D01*
X95703571Y-14743571D01*
X95775000Y-14600714D01*
X95846428Y-14529285D01*
X95989285Y-14457857D01*
X96203571Y-14457857D01*
X96346428Y-14529285D01*
X96417857Y-14600714D01*
X96489285Y-14743571D01*
X96489285Y-15315000D01*
X95703571Y-13957857D02*
X95703571Y-13029285D01*
X96275000Y-13529285D01*
X96275000Y-13315000D01*
X96346428Y-13172142D01*
X96417857Y-13100714D01*
X96560714Y-13029285D01*
X96917857Y-13029285D01*
X97060714Y-13100714D01*
X97132142Y-13172142D01*
X97203571Y-13315000D01*
X97203571Y-13743571D01*
X97132142Y-13886428D01*
X97060714Y-13957857D01*
X98253571Y-16672142D02*
X98253571Y-15815000D01*
X99753571Y-16243571D02*
X98253571Y-16243571D01*
X99753571Y-15315000D02*
X98253571Y-15315000D01*
X98253571Y-14743571D01*
X98325000Y-14600714D01*
X98396428Y-14529285D01*
X98539285Y-14457857D01*
X98753571Y-14457857D01*
X98896428Y-14529285D01*
X98967857Y-14600714D01*
X99039285Y-14743571D01*
X99039285Y-15315000D01*
X98753571Y-13172142D02*
X99753571Y-13172142D01*
X98182142Y-13529285D02*
X99253571Y-13886428D01*
X99253571Y-12957857D01*
X100803571Y-16672142D02*
X100803571Y-15815000D01*
X102303571Y-16243571D02*
X100803571Y-16243571D01*
X102303571Y-15315000D02*
X100803571Y-15315000D01*
X100803571Y-14743571D01*
X100875000Y-14600714D01*
X100946428Y-14529285D01*
X101089285Y-14457857D01*
X101303571Y-14457857D01*
X101446428Y-14529285D01*
X101517857Y-14600714D01*
X101589285Y-14743571D01*
X101589285Y-15315000D01*
X100803571Y-13172142D02*
X100803571Y-13457857D01*
X100875000Y-13600714D01*
X100946428Y-13672142D01*
X101160714Y-13815000D01*
X101446428Y-13886428D01*
X102017857Y-13886428D01*
X102160714Y-13815000D01*
X102232142Y-13743571D01*
X102303571Y-13600714D01*
X102303571Y-13315000D01*
X102232142Y-13172142D01*
X102160714Y-13100714D01*
X102017857Y-13029285D01*
X101660714Y-13029285D01*
X101517857Y-13100714D01*
X101446428Y-13172142D01*
X101375000Y-13315000D01*
X101375000Y-13600714D01*
X101446428Y-13743571D01*
X101517857Y-13815000D01*
X101660714Y-13886428D01*
X103353571Y-16672142D02*
X103353571Y-15815000D01*
X104853571Y-16243571D02*
X103353571Y-16243571D01*
X104853571Y-15315000D02*
X103353571Y-15315000D01*
X103353571Y-14743571D01*
X103425000Y-14600714D01*
X103496428Y-14529285D01*
X103639285Y-14457857D01*
X103853571Y-14457857D01*
X103996428Y-14529285D01*
X104067857Y-14600714D01*
X104139285Y-14743571D01*
X104139285Y-15315000D01*
X104853571Y-13743571D02*
X104853571Y-13457857D01*
X104782142Y-13315000D01*
X104710714Y-13243571D01*
X104496428Y-13100714D01*
X104210714Y-13029285D01*
X103639285Y-13029285D01*
X103496428Y-13100714D01*
X103425000Y-13172142D01*
X103353571Y-13315000D01*
X103353571Y-13600714D01*
X103425000Y-13743571D01*
X103496428Y-13815000D01*
X103639285Y-13886428D01*
X103996428Y-13886428D01*
X104139285Y-13815000D01*
X104210714Y-13743571D01*
X104282142Y-13600714D01*
X104282142Y-13315000D01*
X104210714Y-13172142D01*
X104139285Y-13100714D01*
X103996428Y-13029285D01*
X105903571Y-16672142D02*
X105903571Y-15815000D01*
X107403571Y-16243571D02*
X105903571Y-16243571D01*
X107403571Y-15315000D02*
X105903571Y-15315000D01*
X105903571Y-14743571D01*
X105975000Y-14600714D01*
X106046428Y-14529285D01*
X106189285Y-14457857D01*
X106403571Y-14457857D01*
X106546428Y-14529285D01*
X106617857Y-14600714D01*
X106689285Y-14743571D01*
X106689285Y-15315000D01*
X107403571Y-13029285D02*
X107403571Y-13886428D01*
X107403571Y-13457857D02*
X105903571Y-13457857D01*
X106117857Y-13600714D01*
X106260714Y-13743571D01*
X106332142Y-13886428D01*
X105903571Y-12100714D02*
X105903571Y-11957857D01*
X105975000Y-11815000D01*
X106046428Y-11743571D01*
X106189285Y-11672142D01*
X106475000Y-11600714D01*
X106832142Y-11600714D01*
X107117857Y-11672142D01*
X107260714Y-11743571D01*
X107332142Y-11815000D01*
X107403571Y-11957857D01*
X107403571Y-12100714D01*
X107332142Y-12243571D01*
X107260714Y-12315000D01*
X107117857Y-12386428D01*
X106832142Y-12457857D01*
X106475000Y-12457857D01*
X106189285Y-12386428D01*
X106046428Y-12315000D01*
X105975000Y-12243571D01*
X105903571Y-12100714D01*
X108453571Y-16672142D02*
X108453571Y-15815000D01*
X109953571Y-16243571D02*
X108453571Y-16243571D01*
X109953571Y-15315000D02*
X108453571Y-15315000D01*
X108453571Y-14743571D01*
X108525000Y-14600714D01*
X108596428Y-14529285D01*
X108739285Y-14457857D01*
X108953571Y-14457857D01*
X109096428Y-14529285D01*
X109167857Y-14600714D01*
X109239285Y-14743571D01*
X109239285Y-15315000D01*
X109953571Y-13029285D02*
X109953571Y-13886428D01*
X109953571Y-13457857D02*
X108453571Y-13457857D01*
X108667857Y-13600714D01*
X108810714Y-13743571D01*
X108882142Y-13886428D01*
X109953571Y-11600714D02*
X109953571Y-12457857D01*
X109953571Y-12029285D02*
X108453571Y-12029285D01*
X108667857Y-12172142D01*
X108810714Y-12315000D01*
X108882142Y-12457857D01*
X111003571Y-16672142D02*
X111003571Y-15815000D01*
X112503571Y-16243571D02*
X111003571Y-16243571D01*
X112503571Y-15315000D02*
X111003571Y-15315000D01*
X111003571Y-14743571D01*
X111075000Y-14600714D01*
X111146428Y-14529285D01*
X111289285Y-14457857D01*
X111503571Y-14457857D01*
X111646428Y-14529285D01*
X111717857Y-14600714D01*
X111789285Y-14743571D01*
X111789285Y-15315000D01*
X112503571Y-13029285D02*
X112503571Y-13886428D01*
X112503571Y-13457857D02*
X111003571Y-13457857D01*
X111217857Y-13600714D01*
X111360714Y-13743571D01*
X111432142Y-13886428D01*
X111146428Y-12457857D02*
X111075000Y-12386428D01*
X111003571Y-12243571D01*
X111003571Y-11886428D01*
X111075000Y-11743571D01*
X111146428Y-11672142D01*
X111289285Y-11600714D01*
X111432142Y-11600714D01*
X111646428Y-11672142D01*
X112503571Y-12529285D01*
X112503571Y-11600714D01*
X113553571Y-16672142D02*
X113553571Y-15815000D01*
X115053571Y-16243571D02*
X113553571Y-16243571D01*
X115053571Y-15315000D02*
X113553571Y-15315000D01*
X113553571Y-14743571D01*
X113625000Y-14600714D01*
X113696428Y-14529285D01*
X113839285Y-14457857D01*
X114053571Y-14457857D01*
X114196428Y-14529285D01*
X114267857Y-14600714D01*
X114339285Y-14743571D01*
X114339285Y-15315000D01*
X115053571Y-13029285D02*
X115053571Y-13886428D01*
X115053571Y-13457857D02*
X113553571Y-13457857D01*
X113767857Y-13600714D01*
X113910714Y-13743571D01*
X113982142Y-13886428D01*
X113553571Y-11672142D02*
X113553571Y-12386428D01*
X114267857Y-12457857D01*
X114196428Y-12386428D01*
X114125000Y-12243571D01*
X114125000Y-11886428D01*
X114196428Y-11743571D01*
X114267857Y-11672142D01*
X114410714Y-11600714D01*
X114767857Y-11600714D01*
X114910714Y-11672142D01*
X114982142Y-11743571D01*
X115053571Y-11886428D01*
X115053571Y-12243571D01*
X114982142Y-12386428D01*
X114910714Y-12457857D01*
X116103571Y-16672142D02*
X116103571Y-15815000D01*
X117603571Y-16243571D02*
X116103571Y-16243571D01*
X117603571Y-15315000D02*
X116103571Y-15315000D01*
X116103571Y-14743571D01*
X116175000Y-14600714D01*
X116246428Y-14529285D01*
X116389285Y-14457857D01*
X116603571Y-14457857D01*
X116746428Y-14529285D01*
X116817857Y-14600714D01*
X116889285Y-14743571D01*
X116889285Y-15315000D01*
X117603571Y-13029285D02*
X117603571Y-13886428D01*
X117603571Y-13457857D02*
X116103571Y-13457857D01*
X116317857Y-13600714D01*
X116460714Y-13743571D01*
X116532142Y-13886428D01*
X116746428Y-12172142D02*
X116675000Y-12315000D01*
X116603571Y-12386428D01*
X116460714Y-12457857D01*
X116389285Y-12457857D01*
X116246428Y-12386428D01*
X116175000Y-12315000D01*
X116103571Y-12172142D01*
X116103571Y-11886428D01*
X116175000Y-11743571D01*
X116246428Y-11672142D01*
X116389285Y-11600714D01*
X116460714Y-11600714D01*
X116603571Y-11672142D01*
X116675000Y-11743571D01*
X116746428Y-11886428D01*
X116746428Y-12172142D01*
X116817857Y-12315000D01*
X116889285Y-12386428D01*
X117032142Y-12457857D01*
X117317857Y-12457857D01*
X117460714Y-12386428D01*
X117532142Y-12315000D01*
X117603571Y-12172142D01*
X117603571Y-11886428D01*
X117532142Y-11743571D01*
X117460714Y-11672142D01*
X117317857Y-11600714D01*
X117032142Y-11600714D01*
X116889285Y-11672142D01*
X116817857Y-11743571D01*
X116746428Y-11886428D01*
X118653571Y-16672142D02*
X118653571Y-15815000D01*
X120153571Y-16243571D02*
X118653571Y-16243571D01*
X120153571Y-15315000D02*
X118653571Y-15315000D01*
X118653571Y-14743571D01*
X118725000Y-14600714D01*
X118796428Y-14529285D01*
X118939285Y-14457857D01*
X119153571Y-14457857D01*
X119296428Y-14529285D01*
X119367857Y-14600714D01*
X119439285Y-14743571D01*
X119439285Y-15315000D01*
X118653571Y-13100714D02*
X118653571Y-13815000D01*
X119367857Y-13886428D01*
X119296428Y-13815000D01*
X119225000Y-13672142D01*
X119225000Y-13315000D01*
X119296428Y-13172142D01*
X119367857Y-13100714D01*
X119510714Y-13029285D01*
X119867857Y-13029285D01*
X120010714Y-13100714D01*
X120082142Y-13172142D01*
X120153571Y-13315000D01*
X120153571Y-13672142D01*
X120082142Y-13815000D01*
X120010714Y-13886428D01*
X121203571Y-16672142D02*
X121203571Y-15815000D01*
X122703571Y-16243571D02*
X121203571Y-16243571D01*
X122703571Y-15315000D02*
X121203571Y-15315000D01*
X121203571Y-14743571D01*
X121275000Y-14600714D01*
X121346428Y-14529285D01*
X121489285Y-14457857D01*
X121703571Y-14457857D01*
X121846428Y-14529285D01*
X121917857Y-14600714D01*
X121989285Y-14743571D01*
X121989285Y-15315000D01*
X121346428Y-13886428D02*
X121275000Y-13815000D01*
X121203571Y-13672142D01*
X121203571Y-13315000D01*
X121275000Y-13172142D01*
X121346428Y-13100714D01*
X121489285Y-13029285D01*
X121632142Y-13029285D01*
X121846428Y-13100714D01*
X122703571Y-13957857D01*
X122703571Y-13029285D01*
X121203571Y-11743571D02*
X121203571Y-12029285D01*
X121275000Y-12172142D01*
X121346428Y-12243571D01*
X121560714Y-12386428D01*
X121846428Y-12457857D01*
X122417857Y-12457857D01*
X122560714Y-12386428D01*
X122632142Y-12315000D01*
X122703571Y-12172142D01*
X122703571Y-11886428D01*
X122632142Y-11743571D01*
X122560714Y-11672142D01*
X122417857Y-11600714D01*
X122060714Y-11600714D01*
X121917857Y-11672142D01*
X121846428Y-11743571D01*
X121775000Y-11886428D01*
X121775000Y-12172142D01*
X121846428Y-12315000D01*
X121917857Y-12386428D01*
X122060714Y-12457857D01*
X123753571Y-16672142D02*
X123753571Y-15815000D01*
X125253571Y-16243571D02*
X123753571Y-16243571D01*
X125253571Y-15315000D02*
X123753571Y-15315000D01*
X123753571Y-14743571D01*
X123825000Y-14600714D01*
X123896428Y-14529285D01*
X124039285Y-14457857D01*
X124253571Y-14457857D01*
X124396428Y-14529285D01*
X124467857Y-14600714D01*
X124539285Y-14743571D01*
X124539285Y-15315000D01*
X123896428Y-13886428D02*
X123825000Y-13815000D01*
X123753571Y-13672142D01*
X123753571Y-13315000D01*
X123825000Y-13172142D01*
X123896428Y-13100714D01*
X124039285Y-13029285D01*
X124182142Y-13029285D01*
X124396428Y-13100714D01*
X125253571Y-13957857D01*
X125253571Y-13029285D01*
X123753571Y-11672142D02*
X123753571Y-12386428D01*
X124467857Y-12457857D01*
X124396428Y-12386428D01*
X124325000Y-12243571D01*
X124325000Y-11886428D01*
X124396428Y-11743571D01*
X124467857Y-11672142D01*
X124610714Y-11600714D01*
X124967857Y-11600714D01*
X125110714Y-11672142D01*
X125182142Y-11743571D01*
X125253571Y-11886428D01*
X125253571Y-12243571D01*
X125182142Y-12386428D01*
X125110714Y-12457857D01*
X126375000Y-15672142D02*
X126303571Y-15815000D01*
X126303571Y-16029285D01*
X126375000Y-16243571D01*
X126517857Y-16386428D01*
X126660714Y-16457857D01*
X126946428Y-16529285D01*
X127160714Y-16529285D01*
X127446428Y-16457857D01*
X127589285Y-16386428D01*
X127732142Y-16243571D01*
X127803571Y-16029285D01*
X127803571Y-15886428D01*
X127732142Y-15672142D01*
X127660714Y-15600714D01*
X127160714Y-15600714D01*
X127160714Y-15886428D01*
X127803571Y-14957857D02*
X126303571Y-14957857D01*
X127803571Y-14100714D01*
X126303571Y-14100714D01*
X127803571Y-13386428D02*
X126303571Y-13386428D01*
X126303571Y-13029285D01*
X126375000Y-12815000D01*
X126517857Y-12672142D01*
X126660714Y-12600714D01*
X126946428Y-12529285D01*
X127160714Y-12529285D01*
X127446428Y-12600714D01*
X127589285Y-12672142D01*
X127732142Y-12815000D01*
X127803571Y-13029285D01*
X127803571Y-13386428D01*
D15*
X163997142Y-39816071D02*
X164104285Y-39851785D01*
X164282857Y-39851785D01*
X164354285Y-39816071D01*
X164390000Y-39780357D01*
X164425714Y-39708928D01*
X164425714Y-39637500D01*
X164390000Y-39566071D01*
X164354285Y-39530357D01*
X164282857Y-39494642D01*
X164140000Y-39458928D01*
X164068571Y-39423214D01*
X164032857Y-39387500D01*
X163997142Y-39316071D01*
X163997142Y-39244642D01*
X164032857Y-39173214D01*
X164068571Y-39137500D01*
X164140000Y-39101785D01*
X164318571Y-39101785D01*
X164425714Y-39137500D01*
X165175714Y-39780357D02*
X165140000Y-39816071D01*
X165032857Y-39851785D01*
X164961428Y-39851785D01*
X164854285Y-39816071D01*
X164782857Y-39744642D01*
X164747142Y-39673214D01*
X164711428Y-39530357D01*
X164711428Y-39423214D01*
X164747142Y-39280357D01*
X164782857Y-39208928D01*
X164854285Y-39137500D01*
X164961428Y-39101785D01*
X165032857Y-39101785D01*
X165140000Y-39137500D01*
X165175714Y-39173214D01*
X165854285Y-39851785D02*
X165497142Y-39851785D01*
X165497142Y-39101785D01*
X163979285Y-42441071D02*
X164086428Y-42476785D01*
X164265000Y-42476785D01*
X164336428Y-42441071D01*
X164372142Y-42405357D01*
X164407857Y-42333928D01*
X164407857Y-42262500D01*
X164372142Y-42191071D01*
X164336428Y-42155357D01*
X164265000Y-42119642D01*
X164122142Y-42083928D01*
X164050714Y-42048214D01*
X164015000Y-42012500D01*
X163979285Y-41941071D01*
X163979285Y-41869642D01*
X164015000Y-41798214D01*
X164050714Y-41762500D01*
X164122142Y-41726785D01*
X164300714Y-41726785D01*
X164407857Y-41762500D01*
X164729285Y-42476785D02*
X164729285Y-41726785D01*
X164907857Y-41726785D01*
X165015000Y-41762500D01*
X165086428Y-41833928D01*
X165122142Y-41905357D01*
X165157857Y-42048214D01*
X165157857Y-42155357D01*
X165122142Y-42298214D01*
X165086428Y-42369642D01*
X165015000Y-42441071D01*
X164907857Y-42476785D01*
X164729285Y-42476785D01*
X165443571Y-42262500D02*
X165800714Y-42262500D01*
X165372142Y-42476785D02*
X165622142Y-41726785D01*
X165872142Y-42476785D01*
X163925714Y-44816071D02*
X164497142Y-44816071D01*
X164211428Y-45101785D02*
X164211428Y-44530357D01*
X165211428Y-44351785D02*
X164854285Y-44351785D01*
X164818571Y-44708928D01*
X164854285Y-44673214D01*
X164925714Y-44637500D01*
X165104285Y-44637500D01*
X165175714Y-44673214D01*
X165211428Y-44708928D01*
X165247142Y-44780357D01*
X165247142Y-44958928D01*
X165211428Y-45030357D01*
X165175714Y-45066071D01*
X165104285Y-45101785D01*
X164925714Y-45101785D01*
X164854285Y-45066071D01*
X164818571Y-45030357D01*
X165461428Y-44351785D02*
X165711428Y-45101785D01*
X165961428Y-44351785D01*
X164318571Y-47012500D02*
X164247142Y-46976785D01*
X164140000Y-46976785D01*
X164032857Y-47012500D01*
X163961428Y-47083928D01*
X163925714Y-47155357D01*
X163890000Y-47298214D01*
X163890000Y-47405357D01*
X163925714Y-47548214D01*
X163961428Y-47619642D01*
X164032857Y-47691071D01*
X164140000Y-47726785D01*
X164211428Y-47726785D01*
X164318571Y-47691071D01*
X164354285Y-47655357D01*
X164354285Y-47405357D01*
X164211428Y-47405357D01*
X164675714Y-47726785D02*
X164675714Y-46976785D01*
X165104285Y-47726785D01*
X165104285Y-46976785D01*
X165461428Y-47726785D02*
X165461428Y-46976785D01*
X165640000Y-46976785D01*
X165747142Y-47012500D01*
X165818571Y-47083928D01*
X165854285Y-47155357D01*
X165890000Y-47298214D01*
X165890000Y-47405357D01*
X165854285Y-47548214D01*
X165818571Y-47619642D01*
X165747142Y-47691071D01*
X165640000Y-47726785D01*
X165461428Y-47726785D01*
D14*
X167647619Y-54982380D02*
X167076190Y-54982380D01*
X167361904Y-54982380D02*
X167361904Y-53982380D01*
X167266666Y-54125238D01*
X167171428Y-54220476D01*
X167076190Y-54268095D01*
X169552380Y-54077619D02*
X169600000Y-54030000D01*
X169695238Y-53982380D01*
X169933333Y-53982380D01*
X170028571Y-54030000D01*
X170076190Y-54077619D01*
X170123809Y-54172857D01*
X170123809Y-54268095D01*
X170076190Y-54410952D01*
X169504761Y-54982380D01*
X170123809Y-54982380D01*
X171980952Y-53982380D02*
X172600000Y-53982380D01*
X172266666Y-54363333D01*
X172409523Y-54363333D01*
X172504761Y-54410952D01*
X172552380Y-54458571D01*
X172600000Y-54553809D01*
X172600000Y-54791904D01*
X172552380Y-54887142D01*
X172504761Y-54934761D01*
X172409523Y-54982380D01*
X172123809Y-54982380D01*
X172028571Y-54934761D01*
X171980952Y-54887142D01*
X174980952Y-54315714D02*
X174980952Y-54982380D01*
X174742857Y-53934761D02*
X174504761Y-54649047D01*
X175123809Y-54649047D01*
X177504761Y-53982380D02*
X177028571Y-53982380D01*
X176980952Y-54458571D01*
X177028571Y-54410952D01*
X177123809Y-54363333D01*
X177361904Y-54363333D01*
X177457142Y-54410952D01*
X177504761Y-54458571D01*
X177552380Y-54553809D01*
X177552380Y-54791904D01*
X177504761Y-54887142D01*
X177457142Y-54934761D01*
X177361904Y-54982380D01*
X177123809Y-54982380D01*
X177028571Y-54934761D01*
X176980952Y-54887142D01*
X179933333Y-53982380D02*
X179742857Y-53982380D01*
X179647619Y-54030000D01*
X179600000Y-54077619D01*
X179504761Y-54220476D01*
X179457142Y-54410952D01*
X179457142Y-54791904D01*
X179504761Y-54887142D01*
X179552380Y-54934761D01*
X179647619Y-54982380D01*
X179838095Y-54982380D01*
X179933333Y-54934761D01*
X179980952Y-54887142D01*
X180028571Y-54791904D01*
X180028571Y-54553809D01*
X179980952Y-54458571D01*
X179933333Y-54410952D01*
X179838095Y-54363333D01*
X179647619Y-54363333D01*
X179552380Y-54410952D01*
X179504761Y-54458571D01*
X179457142Y-54553809D01*
X181885714Y-53982380D02*
X182552380Y-53982380D01*
X182123809Y-54982380D01*
X184600000Y-54410952D02*
X184504761Y-54363333D01*
X184457142Y-54315714D01*
X184409523Y-54220476D01*
X184409523Y-54172857D01*
X184457142Y-54077619D01*
X184504761Y-54030000D01*
X184600000Y-53982380D01*
X184790476Y-53982380D01*
X184885714Y-54030000D01*
X184933333Y-54077619D01*
X184980952Y-54172857D01*
X184980952Y-54220476D01*
X184933333Y-54315714D01*
X184885714Y-54363333D01*
X184790476Y-54410952D01*
X184600000Y-54410952D01*
X184504761Y-54458571D01*
X184457142Y-54506190D01*
X184409523Y-54601428D01*
X184409523Y-54791904D01*
X184457142Y-54887142D01*
X184504761Y-54934761D01*
X184600000Y-54982380D01*
X184790476Y-54982380D01*
X184885714Y-54934761D01*
X184933333Y-54887142D01*
X184980952Y-54791904D01*
X184980952Y-54601428D01*
X184933333Y-54506190D01*
X184885714Y-54458571D01*
X184790476Y-54410952D01*
X186980952Y-54982380D02*
X187171428Y-54982380D01*
X187266666Y-54934761D01*
X187314285Y-54887142D01*
X187409523Y-54744285D01*
X187457142Y-54553809D01*
X187457142Y-54172857D01*
X187409523Y-54077619D01*
X187361904Y-54030000D01*
X187266666Y-53982380D01*
X187076190Y-53982380D01*
X186980952Y-54030000D01*
X186933333Y-54077619D01*
X186885714Y-54172857D01*
X186885714Y-54410952D01*
X186933333Y-54506190D01*
X186980952Y-54553809D01*
X187076190Y-54601428D01*
X187266666Y-54601428D01*
X187361904Y-54553809D01*
X187409523Y-54506190D01*
X187457142Y-54410952D01*
X189171428Y-54982380D02*
X188600000Y-54982380D01*
X188885714Y-54982380D02*
X188885714Y-53982380D01*
X188790476Y-54125238D01*
X188695238Y-54220476D01*
X188600000Y-54268095D01*
X189790476Y-53982380D02*
X189885714Y-53982380D01*
X189980952Y-54030000D01*
X190028571Y-54077619D01*
X190076190Y-54172857D01*
X190123809Y-54363333D01*
X190123809Y-54601428D01*
X190076190Y-54791904D01*
X190028571Y-54887142D01*
X189980952Y-54934761D01*
X189885714Y-54982380D01*
X189790476Y-54982380D01*
X189695238Y-54934761D01*
X189647619Y-54887142D01*
X189600000Y-54791904D01*
X189552380Y-54601428D01*
X189552380Y-54363333D01*
X189600000Y-54172857D01*
X189647619Y-54077619D01*
X189695238Y-54030000D01*
X189790476Y-53982380D01*
X191838095Y-54982380D02*
X191266666Y-54982380D01*
X191552380Y-54982380D02*
X191552380Y-53982380D01*
X191457142Y-54125238D01*
X191361904Y-54220476D01*
X191266666Y-54268095D01*
X192790476Y-54982380D02*
X192219047Y-54982380D01*
X192504761Y-54982380D02*
X192504761Y-53982380D01*
X192409523Y-54125238D01*
X192314285Y-54220476D01*
X192219047Y-54268095D01*
X194504761Y-54982380D02*
X193933333Y-54982380D01*
X194219047Y-54982380D02*
X194219047Y-53982380D01*
X194123809Y-54125238D01*
X194028571Y-54220476D01*
X193933333Y-54268095D01*
X194885714Y-54077619D02*
X194933333Y-54030000D01*
X195028571Y-53982380D01*
X195266666Y-53982380D01*
X195361904Y-54030000D01*
X195409523Y-54077619D01*
X195457142Y-54172857D01*
X195457142Y-54268095D01*
X195409523Y-54410952D01*
X194838095Y-54982380D01*
X195457142Y-54982380D01*
X197171428Y-54982380D02*
X196600000Y-54982380D01*
X196885714Y-54982380D02*
X196885714Y-53982380D01*
X196790476Y-54125238D01*
X196695238Y-54220476D01*
X196600000Y-54268095D01*
X197504761Y-53982380D02*
X198123809Y-53982380D01*
X197790476Y-54363333D01*
X197933333Y-54363333D01*
X198028571Y-54410952D01*
X198076190Y-54458571D01*
X198123809Y-54553809D01*
X198123809Y-54791904D01*
X198076190Y-54887142D01*
X198028571Y-54934761D01*
X197933333Y-54982380D01*
X197647619Y-54982380D01*
X197552380Y-54934761D01*
X197504761Y-54887142D01*
X199838095Y-54982380D02*
X199266666Y-54982380D01*
X199552380Y-54982380D02*
X199552380Y-53982380D01*
X199457142Y-54125238D01*
X199361904Y-54220476D01*
X199266666Y-54268095D01*
X200695238Y-54315714D02*
X200695238Y-54982380D01*
X200457142Y-53934761D02*
X200219047Y-54649047D01*
X200838095Y-54649047D01*
X202504761Y-54982380D02*
X201933333Y-54982380D01*
X202219047Y-54982380D02*
X202219047Y-53982380D01*
X202123809Y-54125238D01*
X202028571Y-54220476D01*
X201933333Y-54268095D01*
X203409523Y-53982380D02*
X202933333Y-53982380D01*
X202885714Y-54458571D01*
X202933333Y-54410952D01*
X203028571Y-54363333D01*
X203266666Y-54363333D01*
X203361904Y-54410952D01*
X203409523Y-54458571D01*
X203457142Y-54553809D01*
X203457142Y-54791904D01*
X203409523Y-54887142D01*
X203361904Y-54934761D01*
X203266666Y-54982380D01*
X203028571Y-54982380D01*
X202933333Y-54934761D01*
X202885714Y-54887142D01*
X205171428Y-54982380D02*
X204600000Y-54982380D01*
X204885714Y-54982380D02*
X204885714Y-53982380D01*
X204790476Y-54125238D01*
X204695238Y-54220476D01*
X204600000Y-54268095D01*
X206028571Y-53982380D02*
X205838095Y-53982380D01*
X205742857Y-54030000D01*
X205695238Y-54077619D01*
X205600000Y-54220476D01*
X205552380Y-54410952D01*
X205552380Y-54791904D01*
X205600000Y-54887142D01*
X205647619Y-54934761D01*
X205742857Y-54982380D01*
X205933333Y-54982380D01*
X206028571Y-54934761D01*
X206076190Y-54887142D01*
X206123809Y-54791904D01*
X206123809Y-54553809D01*
X206076190Y-54458571D01*
X206028571Y-54410952D01*
X205933333Y-54363333D01*
X205742857Y-54363333D01*
X205647619Y-54410952D01*
X205600000Y-54458571D01*
X205552380Y-54553809D01*
D16*
X195640000Y-65020000D02*
X94180000Y-65020000D01*
D13*
X83280000Y-14450000D02*
G75*
G03X83280000Y-14450000I-1591897J0D01*
G01*
X163220000Y-14600000D02*
G75*
G03X163220000Y-14600000I-1590000J0D01*
G01*
X161280283Y-50710000D02*
G75*
G03X161280283Y-50710000I-1592180J0D01*
G01*
X85310123Y-50710000D02*
G75*
G03X85310123Y-50710000I-1622020J0D01*
G01*
X152660000Y-78311679D02*
G75*
G03X152660000Y-78311679I-1550000J0D01*
G01*
D16*
X87240094Y-71860256D02*
G75*
G02X94160000Y-65020000I6850364J-9762D01*
G01*
X104671152Y-147109678D02*
G75*
G02X102010000Y-144490000I-41152J2619677D01*
G01*
X102010000Y-137780000D02*
X102010000Y-144490000D01*
X102010018Y-137781153D02*
G75*
G02X104629695Y-135120000I2619677J41153D01*
G01*
D13*
X100610000Y-141520000D02*
G75*
G03X100610000Y-141520000I-3400000J0D01*
G01*
D16*
X210410000Y-144460000D02*
X210410000Y-137740000D01*
X210409982Y-144458847D02*
G75*
G02X207790305Y-147120000I-2619677J-41153D01*
G01*
X207748843Y-135120018D02*
G75*
G02X210409996Y-137739695I41153J-2619677D01*
G01*
D13*
X218610000Y-141520000D02*
G75*
G03X218610000Y-141520000I-3400000J0D01*
G01*
D16*
X104630000Y-135120000D02*
X207750000Y-135120000D01*
D17*
X198160000Y-125820000D02*
X198810000Y-125820000D01*
X198160000Y-124270000D02*
X198160000Y-125820000D01*
X184710000Y-124270000D02*
X198160000Y-124270000D01*
X184710000Y-133220000D02*
X184710000Y-124270000D01*
X198160000Y-133220000D02*
X184710000Y-133220000D01*
X198160000Y-131720000D02*
X198160000Y-133220000D01*
X198810000Y-131720000D02*
X198160000Y-131720000D01*
X198810000Y-125820000D02*
X198810000Y-131720000D01*
D16*
X224399641Y-92710631D02*
G75*
G02X225140000Y-94599045I-1859641J-1818415D01*
G01*
X224400000Y-92710000D02*
X197510000Y-65800000D01*
X195670000Y-65019946D02*
G75*
G02X197511695Y-65795663I-10923J-2600052D01*
G01*
D13*
X218410000Y-97450000D02*
G75*
G03X218410000Y-97450000I-3200000J0D01*
G01*
X100410000Y-97450000D02*
G75*
G03X100410000Y-97450000I-3200000J0D01*
G01*
D16*
X104670000Y-147110000D02*
X207790000Y-147120000D01*
X87240000Y-150020000D02*
X87240000Y-71860000D01*
X225130000Y-150020000D02*
X225140000Y-94600000D01*
X97240000Y-160020000D02*
X215130000Y-160020000D01*
X225130000Y-150020000D02*
G75*
G02X215130000Y-160020000I-10000000J0D01*
G01*
X97240000Y-160020000D02*
G75*
G02X87240000Y-150020000I0J10000000D01*
G01*
D18*
G04 #@! TO.C,A1*
X221088000Y-30180000D02*
X221088000Y-12400000D01*
X221088000Y-12400000D02*
X187814000Y-12400000D01*
X187814000Y-12400000D02*
X187814000Y-30180000D01*
X187814000Y-30180000D02*
X221088000Y-30180000D01*
G04 #@! TO.C,D1*
X210580000Y-54320000D02*
X213520000Y-54320000D01*
X210580000Y-54080000D02*
X213520000Y-54080000D01*
X210580000Y-54200000D02*
X213520000Y-54200000D01*
X212050000Y-48640000D02*
X212050000Y-49660000D01*
X212050000Y-56120000D02*
X212050000Y-55100000D01*
X210580000Y-49660000D02*
X210580000Y-55100000D01*
X213520000Y-49660000D02*
X210580000Y-49660000D01*
X213520000Y-55100000D02*
X213520000Y-49660000D01*
X210580000Y-55100000D02*
X213520000Y-55100000D01*
D12*
G04 #@! TO.C,K2*
X215200000Y-42060000D02*
X225900000Y-42060000D01*
X215200000Y-57860000D02*
X215200000Y-42060000D01*
X225900000Y-57860000D02*
X215200000Y-57860000D01*
X225900000Y-42060000D02*
X225900000Y-57860000D01*
D18*
G04 #@! TO.C,R29*
X218133733Y-40080000D02*
X218476267Y-40080000D01*
X218133733Y-39060000D02*
X218476267Y-39060000D01*
G04 #@! TO.C,Q2*
X212850000Y-37050000D02*
X214310000Y-37050000D01*
X212850000Y-40210000D02*
X215010000Y-40210000D01*
X212850000Y-40210000D02*
X212850000Y-39280000D01*
X212850000Y-37050000D02*
X212850000Y-37980000D01*
G04 #@! TO.C,D3*
X222120000Y-61190000D02*
X222120000Y-58950000D01*
X221880000Y-61190000D02*
X221880000Y-58950000D01*
X222000000Y-61190000D02*
X222000000Y-58950000D01*
X216560000Y-60070000D02*
X218480000Y-60070000D01*
X224640000Y-60070000D02*
X222720000Y-60070000D01*
X218480000Y-61190000D02*
X222720000Y-61190000D01*
X218480000Y-58950000D02*
X218480000Y-61190000D01*
X222720000Y-58950000D02*
X218480000Y-58950000D01*
X222720000Y-61190000D02*
X222720000Y-58950000D01*
G04 #@! TO.C,SW1*
X228760000Y-43270000D02*
X231440000Y-43270000D01*
X231440000Y-49510000D02*
X228760000Y-49510000D01*
X226980000Y-49360000D02*
X226980000Y-43420000D01*
X233220000Y-49360000D02*
X233220000Y-43420000D01*
X231514214Y-46390000D02*
G75*
G03X231514214Y-46390000I-1414214J0D01*
G01*
G04 #@! TO.C,JP1*
X137090000Y-19610000D02*
G75*
G02X142189735Y-19573225I2549735J36775D01*
G01*
X142200000Y-19560000D02*
X142200000Y-20820000D01*
X137070000Y-19570000D02*
X137070000Y-20820000D01*
X142209200Y-20810000D02*
G75*
G03X142209200Y-20810000I-1249200J0D01*
G01*
X139610001Y-20780000D02*
G75*
G03X139610001Y-20780000I-1238588J0D01*
G01*
X138410000Y-22150000D02*
X137080000Y-22150000D01*
X137080000Y-22150000D02*
X137080000Y-20820000D01*
G04 #@! TO.C,U2*
X171550000Y-26620000D02*
X171550000Y-29160000D01*
X169010000Y-26620000D02*
X169010000Y-29160000D01*
X166470000Y-26620000D02*
X166470000Y-29160000D01*
X174130000Y-10730000D02*
X174130000Y-26620000D01*
X163890000Y-10730000D02*
X163890000Y-26620000D01*
X163890000Y-10730000D02*
X174130000Y-10730000D01*
X163890000Y-26620000D02*
X174130000Y-26620000D01*
G04 #@! TO.C,Q1*
X219030000Y-38310000D02*
X217570000Y-38310000D01*
X219030000Y-35150000D02*
X216870000Y-35150000D01*
X219030000Y-35150000D02*
X219030000Y-36080000D01*
X219030000Y-38310000D02*
X219030000Y-37380000D01*
G04 #@! TO.C,R28*
X208601267Y-31290000D02*
X208258733Y-31290000D01*
X208601267Y-32310000D02*
X208258733Y-32310000D01*
G04 #@! TO.C,R27*
X213751267Y-35170000D02*
X213408733Y-35170000D01*
X213751267Y-36190000D02*
X213408733Y-36190000D01*
D12*
G04 #@! TO.C,K1*
X223200000Y-11990000D02*
X233900000Y-11990000D01*
X223200000Y-27790000D02*
X223200000Y-11990000D01*
X233900000Y-27790000D02*
X223200000Y-27790000D01*
X233900000Y-11990000D02*
X233900000Y-27790000D01*
D18*
G04 #@! TO.C,D2*
X229440000Y-32150000D02*
X229440000Y-29910000D01*
X229200000Y-32150000D02*
X229200000Y-29910000D01*
X229320000Y-32150000D02*
X229320000Y-29910000D01*
X223880000Y-31030000D02*
X225800000Y-31030000D01*
X231960000Y-31030000D02*
X230040000Y-31030000D01*
X225800000Y-32150000D02*
X230040000Y-32150000D01*
X225800000Y-29910000D02*
X225800000Y-32150000D01*
X230040000Y-29910000D02*
X225800000Y-29910000D01*
X230040000Y-32150000D02*
X230040000Y-29910000D01*
G04 #@! TO.C,C3*
X177136250Y-29428750D02*
X177136250Y-30216250D01*
X176742500Y-29822500D02*
X177530000Y-29822500D01*
X177770000Y-34015563D02*
X178834437Y-35080000D01*
X177770000Y-29324437D02*
X178834437Y-28260000D01*
X177770000Y-29324437D02*
X177770000Y-30610000D01*
X177770000Y-34015563D02*
X177770000Y-32730000D01*
X178834437Y-35080000D02*
X184590000Y-35080000D01*
X178834437Y-28260000D02*
X184590000Y-28260000D01*
X184590000Y-28260000D02*
X184590000Y-30610000D01*
X184590000Y-35080000D02*
X184590000Y-32730000D01*
G04 #@! TO.C,C1*
X160823750Y-32001250D02*
X160823750Y-31213750D01*
X161217500Y-31607500D02*
X160430000Y-31607500D01*
X160190000Y-27414437D02*
X159125563Y-26350000D01*
X160190000Y-32105563D02*
X159125563Y-33170000D01*
X160190000Y-32105563D02*
X160190000Y-30820000D01*
X160190000Y-27414437D02*
X160190000Y-28700000D01*
X159125563Y-26350000D02*
X153370000Y-26350000D01*
X159125563Y-33170000D02*
X153370000Y-33170000D01*
X153370000Y-33170000D02*
X153370000Y-30820000D01*
X153370000Y-26350000D02*
X153370000Y-28700000D01*
G04 #@! TO.C,J15*
X88950000Y-22100000D02*
X88950000Y-20830000D01*
X90220000Y-22100000D02*
X88950000Y-22100000D01*
X128700000Y-19787071D02*
X128700000Y-19390000D01*
X127940000Y-19787071D02*
X127940000Y-19390000D01*
X128700000Y-10730000D02*
X128700000Y-16730000D01*
X127940000Y-10730000D02*
X128700000Y-10730000D01*
X127940000Y-16730000D02*
X127940000Y-10730000D01*
X127050000Y-19390000D02*
X127050000Y-16730000D01*
X126160000Y-19787071D02*
X126160000Y-19390000D01*
X125400000Y-19787071D02*
X125400000Y-19390000D01*
X126160000Y-10730000D02*
X126160000Y-16730000D01*
X125400000Y-10730000D02*
X126160000Y-10730000D01*
X125400000Y-16730000D02*
X125400000Y-10730000D01*
X124510000Y-19390000D02*
X124510000Y-16730000D01*
X123620000Y-19787071D02*
X123620000Y-19390000D01*
X122860000Y-19787071D02*
X122860000Y-19390000D01*
X123620000Y-10730000D02*
X123620000Y-16730000D01*
X122860000Y-10730000D02*
X123620000Y-10730000D01*
X122860000Y-16730000D02*
X122860000Y-10730000D01*
X121970000Y-19390000D02*
X121970000Y-16730000D01*
X121080000Y-19787071D02*
X121080000Y-19390000D01*
X120320000Y-19787071D02*
X120320000Y-19390000D01*
X121080000Y-10730000D02*
X121080000Y-16730000D01*
X120320000Y-10730000D02*
X121080000Y-10730000D01*
X120320000Y-16730000D02*
X120320000Y-10730000D01*
X119430000Y-19390000D02*
X119430000Y-16730000D01*
X118540000Y-19787071D02*
X118540000Y-19390000D01*
X117780000Y-19787071D02*
X117780000Y-19390000D01*
X118540000Y-10730000D02*
X118540000Y-16730000D01*
X117780000Y-10730000D02*
X118540000Y-10730000D01*
X117780000Y-16730000D02*
X117780000Y-10730000D01*
X116890000Y-19390000D02*
X116890000Y-16730000D01*
X116000000Y-19787071D02*
X116000000Y-19390000D01*
X115240000Y-19787071D02*
X115240000Y-19390000D01*
X116000000Y-10730000D02*
X116000000Y-16730000D01*
X115240000Y-10730000D02*
X116000000Y-10730000D01*
X115240000Y-16730000D02*
X115240000Y-10730000D01*
X114350000Y-19390000D02*
X114350000Y-16730000D01*
X113460000Y-19787071D02*
X113460000Y-19390000D01*
X112700000Y-19787071D02*
X112700000Y-19390000D01*
X113460000Y-10730000D02*
X113460000Y-16730000D01*
X112700000Y-10730000D02*
X113460000Y-10730000D01*
X112700000Y-16730000D02*
X112700000Y-10730000D01*
X111810000Y-19390000D02*
X111810000Y-16730000D01*
X110920000Y-19787071D02*
X110920000Y-19390000D01*
X110160000Y-19787071D02*
X110160000Y-19390000D01*
X110920000Y-10730000D02*
X110920000Y-16730000D01*
X110160000Y-10730000D02*
X110920000Y-10730000D01*
X110160000Y-16730000D02*
X110160000Y-10730000D01*
X109270000Y-19390000D02*
X109270000Y-16730000D01*
X108380000Y-19787071D02*
X108380000Y-19390000D01*
X107620000Y-19787071D02*
X107620000Y-19390000D01*
X108380000Y-10730000D02*
X108380000Y-16730000D01*
X107620000Y-10730000D02*
X108380000Y-10730000D01*
X107620000Y-16730000D02*
X107620000Y-10730000D01*
X106730000Y-19390000D02*
X106730000Y-16730000D01*
X105840000Y-19787071D02*
X105840000Y-19390000D01*
X105080000Y-19787071D02*
X105080000Y-19390000D01*
X105840000Y-10730000D02*
X105840000Y-16730000D01*
X105080000Y-10730000D02*
X105840000Y-10730000D01*
X105080000Y-16730000D02*
X105080000Y-10730000D01*
X104190000Y-19390000D02*
X104190000Y-16730000D01*
X103300000Y-19787071D02*
X103300000Y-19390000D01*
X102540000Y-19787071D02*
X102540000Y-19390000D01*
X103300000Y-10730000D02*
X103300000Y-16730000D01*
X102540000Y-10730000D02*
X103300000Y-10730000D01*
X102540000Y-16730000D02*
X102540000Y-10730000D01*
X101650000Y-19390000D02*
X101650000Y-16730000D01*
X100760000Y-19787071D02*
X100760000Y-19390000D01*
X100000000Y-19787071D02*
X100000000Y-19390000D01*
X100760000Y-10730000D02*
X100760000Y-16730000D01*
X100000000Y-10730000D02*
X100760000Y-10730000D01*
X100000000Y-16730000D02*
X100000000Y-10730000D01*
X99110000Y-19390000D02*
X99110000Y-16730000D01*
X98220000Y-19787071D02*
X98220000Y-19390000D01*
X97460000Y-19787071D02*
X97460000Y-19390000D01*
X98220000Y-10730000D02*
X98220000Y-16730000D01*
X97460000Y-10730000D02*
X98220000Y-10730000D01*
X97460000Y-16730000D02*
X97460000Y-10730000D01*
X96570000Y-19390000D02*
X96570000Y-16730000D01*
X95680000Y-19787071D02*
X95680000Y-19390000D01*
X94920000Y-19787071D02*
X94920000Y-19390000D01*
X95680000Y-10730000D02*
X95680000Y-16730000D01*
X94920000Y-10730000D02*
X95680000Y-10730000D01*
X94920000Y-16730000D02*
X94920000Y-10730000D01*
X94030000Y-19390000D02*
X94030000Y-16730000D01*
X93140000Y-19787071D02*
X93140000Y-19390000D01*
X92380000Y-19787071D02*
X92380000Y-19390000D01*
X93140000Y-10730000D02*
X93140000Y-16730000D01*
X92380000Y-10730000D02*
X93140000Y-10730000D01*
X92380000Y-16730000D02*
X92380000Y-10730000D01*
X91490000Y-19390000D02*
X91490000Y-16730000D01*
X90600000Y-19720000D02*
X90600000Y-19390000D01*
X89840000Y-19720000D02*
X89840000Y-19390000D01*
X90500000Y-16730000D02*
X90500000Y-10730000D01*
X90380000Y-16730000D02*
X90380000Y-10730000D01*
X90260000Y-16730000D02*
X90260000Y-10730000D01*
X90140000Y-16730000D02*
X90140000Y-10730000D01*
X90020000Y-16730000D02*
X90020000Y-10730000D01*
X89900000Y-16730000D02*
X89900000Y-10730000D01*
X90600000Y-10730000D02*
X90600000Y-16730000D01*
X89840000Y-10730000D02*
X90600000Y-10730000D01*
X89840000Y-16730000D02*
X89840000Y-10730000D01*
X88890000Y-16730000D02*
X88890000Y-19390000D01*
X129650000Y-16730000D02*
X88890000Y-16730000D01*
X129650000Y-19390000D02*
X129650000Y-16730000D01*
X88890000Y-19390000D02*
X129650000Y-19390000D01*
G04 #@! TO.C,U1*
X146880000Y-38945000D02*
X148695000Y-38945000D01*
X146880000Y-39210000D02*
X146880000Y-38945000D01*
X143020000Y-39210000D02*
X146880000Y-39210000D01*
X139160000Y-39210000D02*
X139160000Y-38945000D01*
X143020000Y-39210000D02*
X139160000Y-39210000D01*
X146880000Y-23590000D02*
X146880000Y-23855000D01*
X143020000Y-23590000D02*
X146880000Y-23590000D01*
X139160000Y-23590000D02*
X139160000Y-23855000D01*
X143020000Y-23590000D02*
X139160000Y-23590000D01*
G04 #@! TO.C,R26*
X182588733Y-27420000D02*
X182931267Y-27420000D01*
X182588733Y-26400000D02*
X182931267Y-26400000D01*
G04 #@! TO.C,R25*
X132810000Y-49176267D02*
X132810000Y-48833733D01*
X131790000Y-49176267D02*
X131790000Y-48833733D01*
G04 #@! TO.C,R24*
X135540000Y-49216267D02*
X135540000Y-48873733D01*
X134520000Y-49216267D02*
X134520000Y-48873733D01*
G04 #@! TO.C,R23*
X138210000Y-49241267D02*
X138210000Y-48898733D01*
X137190000Y-49241267D02*
X137190000Y-48898733D01*
G04 #@! TO.C,R22*
X141070000Y-49306267D02*
X141070000Y-48963733D01*
X140050000Y-49306267D02*
X140050000Y-48963733D01*
G04 #@! TO.C,R21*
X143800000Y-49336267D02*
X143800000Y-48993733D01*
X142780000Y-49336267D02*
X142780000Y-48993733D01*
G04 #@! TO.C,R20*
X146590000Y-49426267D02*
X146590000Y-49083733D01*
X145570000Y-49426267D02*
X145570000Y-49083733D01*
G04 #@! TO.C,R19*
X149460000Y-49416267D02*
X149460000Y-49073733D01*
X148440000Y-49416267D02*
X148440000Y-49073733D01*
G04 #@! TO.C,R18*
X152250000Y-49366267D02*
X152250000Y-49023733D01*
X151230000Y-49366267D02*
X151230000Y-49023733D01*
G04 #@! TO.C,R17*
X155030000Y-49351267D02*
X155030000Y-49008733D01*
X154010000Y-49351267D02*
X154010000Y-49008733D01*
G04 #@! TO.C,R16*
X157710000Y-49341267D02*
X157710000Y-48998733D01*
X156690000Y-49341267D02*
X156690000Y-48998733D01*
G04 #@! TO.C,R15*
X160620000Y-47191267D02*
X160620000Y-46848733D01*
X159600000Y-47191267D02*
X159600000Y-46848733D01*
G04 #@! TO.C,R14*
X163350000Y-49306267D02*
X163350000Y-48963733D01*
X162330000Y-49306267D02*
X162330000Y-48963733D01*
G04 #@! TO.C,R13*
X132870000Y-42421267D02*
X132870000Y-42078733D01*
X131850000Y-42421267D02*
X131850000Y-42078733D01*
G04 #@! TO.C,R12*
X135600000Y-42401267D02*
X135600000Y-42058733D01*
X134580000Y-42401267D02*
X134580000Y-42058733D01*
G04 #@! TO.C,R11*
X138370000Y-42381267D02*
X138370000Y-42038733D01*
X137350000Y-42381267D02*
X137350000Y-42038733D01*
G04 #@! TO.C,R10*
X141160000Y-42361267D02*
X141160000Y-42018733D01*
X140140000Y-42361267D02*
X140140000Y-42018733D01*
G04 #@! TO.C,R9*
X143890000Y-42361267D02*
X143890000Y-42018733D01*
X142870000Y-42361267D02*
X142870000Y-42018733D01*
G04 #@! TO.C,R8*
X146620000Y-42331267D02*
X146620000Y-41988733D01*
X145600000Y-42331267D02*
X145600000Y-41988733D01*
G04 #@! TO.C,R7*
X149530000Y-42291267D02*
X149530000Y-41948733D01*
X148510000Y-42291267D02*
X148510000Y-41948733D01*
G04 #@! TO.C,R6*
X152400000Y-42371267D02*
X152400000Y-42028733D01*
X151380000Y-42371267D02*
X151380000Y-42028733D01*
G04 #@! TO.C,R5*
X155130000Y-42371267D02*
X155130000Y-42028733D01*
X154110000Y-42371267D02*
X154110000Y-42028733D01*
G04 #@! TO.C,R4*
X157770000Y-42401267D02*
X157770000Y-42058733D01*
X156750000Y-42401267D02*
X156750000Y-42058733D01*
G04 #@! TO.C,R3*
X160610000Y-42311267D02*
X160610000Y-41968733D01*
X159590000Y-42311267D02*
X159590000Y-41968733D01*
G04 #@! TO.C,R2*
X163400000Y-42361267D02*
X163400000Y-42018733D01*
X162380000Y-42361267D02*
X162380000Y-42018733D01*
G04 #@! TO.C,R1*
X127830000Y-47188733D02*
X127830000Y-47531267D01*
X128850000Y-47188733D02*
X128850000Y-47531267D01*
D12*
G04 #@! TO.C,J5*
X182360000Y-20190000D02*
X178060000Y-20190000D01*
X184210000Y-12190000D02*
X176210000Y-12190000D01*
X176210000Y-20190000D02*
X178060000Y-20190000D01*
X184210000Y-20190000D02*
X182360000Y-20190000D01*
X176210000Y-8690000D02*
X176210000Y-10690000D01*
X184210000Y-8690000D02*
X176210000Y-8690000D01*
X184210000Y-10690000D02*
X184210000Y-8690000D01*
X186110000Y-12190000D02*
X186110000Y-10690000D01*
X184210000Y-12190000D02*
X186110000Y-12190000D01*
X184210000Y-20190000D02*
X184210000Y-12190000D01*
X174310000Y-10690000D02*
X186110000Y-10690000D01*
X174310000Y-12190000D02*
X174310000Y-10690000D01*
X176210000Y-12190000D02*
X174310000Y-12190000D01*
X176210000Y-20190000D02*
X176210000Y-12190000D01*
D18*
G04 #@! TO.C,C2*
X169221267Y-32520000D02*
X168878733Y-32520000D01*
X169221267Y-33540000D02*
X168878733Y-33540000D01*
G04 #@! TO.C,J5-~E1*
X130830000Y-22090000D02*
X130830000Y-20820000D01*
X132100000Y-22090000D02*
X130830000Y-22090000D01*
X135020000Y-19777071D02*
X135020000Y-19380000D01*
X134260000Y-19777071D02*
X134260000Y-19380000D01*
X135020000Y-10720000D02*
X135020000Y-16720000D01*
X134260000Y-10720000D02*
X135020000Y-10720000D01*
X134260000Y-16720000D02*
X134260000Y-10720000D01*
X133370000Y-19380000D02*
X133370000Y-16720000D01*
X132480000Y-19710000D02*
X132480000Y-19380000D01*
X131720000Y-19710000D02*
X131720000Y-19380000D01*
X132380000Y-16720000D02*
X132380000Y-10720000D01*
X132260000Y-16720000D02*
X132260000Y-10720000D01*
X132140000Y-16720000D02*
X132140000Y-10720000D01*
X132020000Y-16720000D02*
X132020000Y-10720000D01*
X131900000Y-16720000D02*
X131900000Y-10720000D01*
X131780000Y-16720000D02*
X131780000Y-10720000D01*
X132480000Y-10720000D02*
X132480000Y-16720000D01*
X131720000Y-10720000D02*
X132480000Y-10720000D01*
X131720000Y-16720000D02*
X131720000Y-10720000D01*
X130770000Y-16720000D02*
X130770000Y-19380000D01*
X135970000Y-16720000D02*
X130770000Y-16720000D01*
X135970000Y-19380000D02*
X135970000Y-16720000D01*
X130770000Y-19380000D02*
X135970000Y-19380000D01*
G04 #@! TO.C,J4*
X143420000Y-22090000D02*
X143420000Y-20820000D01*
X144690000Y-22090000D02*
X143420000Y-22090000D01*
X157770000Y-19777071D02*
X157770000Y-19380000D01*
X157010000Y-19777071D02*
X157010000Y-19380000D01*
X157770000Y-10720000D02*
X157770000Y-16720000D01*
X157010000Y-10720000D02*
X157770000Y-10720000D01*
X157010000Y-16720000D02*
X157010000Y-10720000D01*
X156120000Y-19380000D02*
X156120000Y-16720000D01*
X155230000Y-19777071D02*
X155230000Y-19380000D01*
X154470000Y-19777071D02*
X154470000Y-19380000D01*
X155230000Y-10720000D02*
X155230000Y-16720000D01*
X154470000Y-10720000D02*
X155230000Y-10720000D01*
X154470000Y-16720000D02*
X154470000Y-10720000D01*
X153580000Y-19380000D02*
X153580000Y-16720000D01*
X152690000Y-19777071D02*
X152690000Y-19380000D01*
X151930000Y-19777071D02*
X151930000Y-19380000D01*
X152690000Y-10720000D02*
X152690000Y-16720000D01*
X151930000Y-10720000D02*
X152690000Y-10720000D01*
X151930000Y-16720000D02*
X151930000Y-10720000D01*
X151040000Y-19380000D02*
X151040000Y-16720000D01*
X150150000Y-19777071D02*
X150150000Y-19380000D01*
X149390000Y-19777071D02*
X149390000Y-19380000D01*
X150150000Y-10720000D02*
X150150000Y-16720000D01*
X149390000Y-10720000D02*
X150150000Y-10720000D01*
X149390000Y-16720000D02*
X149390000Y-10720000D01*
X148500000Y-19380000D02*
X148500000Y-16720000D01*
X147610000Y-19777071D02*
X147610000Y-19380000D01*
X146850000Y-19777071D02*
X146850000Y-19380000D01*
X147610000Y-10720000D02*
X147610000Y-16720000D01*
X146850000Y-10720000D02*
X147610000Y-10720000D01*
X146850000Y-16720000D02*
X146850000Y-10720000D01*
X145960000Y-19380000D02*
X145960000Y-16720000D01*
X145070000Y-19710000D02*
X145070000Y-19380000D01*
X144310000Y-19710000D02*
X144310000Y-19380000D01*
X144970000Y-16720000D02*
X144970000Y-10720000D01*
X144850000Y-16720000D02*
X144850000Y-10720000D01*
X144730000Y-16720000D02*
X144730000Y-10720000D01*
X144610000Y-16720000D02*
X144610000Y-10720000D01*
X144490000Y-16720000D02*
X144490000Y-10720000D01*
X144370000Y-16720000D02*
X144370000Y-10720000D01*
X145070000Y-10720000D02*
X145070000Y-16720000D01*
X144310000Y-10720000D02*
X145070000Y-10720000D01*
X144310000Y-16720000D02*
X144310000Y-10720000D01*
X143360000Y-16720000D02*
X143360000Y-19380000D01*
X158720000Y-16720000D02*
X143360000Y-16720000D01*
X158720000Y-19380000D02*
X158720000Y-16720000D01*
X143360000Y-19380000D02*
X158720000Y-19380000D01*
G04 #@! TO.C,J3*
X167320000Y-38240000D02*
X168650000Y-38240000D01*
X168650000Y-38240000D02*
X168650000Y-39570000D01*
X168650000Y-40840000D02*
X168650000Y-48520000D01*
X165990000Y-48520000D02*
X168650000Y-48520000D01*
X165990000Y-40840000D02*
X165990000Y-48520000D01*
X165990000Y-40840000D02*
X168650000Y-40840000D01*
G04 #@! TO.C,J2*
X165980000Y-52300000D02*
X165980000Y-50970000D01*
X165980000Y-50970000D02*
X167310000Y-50970000D01*
X168580000Y-50970000D02*
X206740000Y-50970000D01*
X206740000Y-53630000D02*
X206740000Y-50970000D01*
X168580000Y-53630000D02*
X206740000Y-53630000D01*
X168580000Y-53630000D02*
X168580000Y-50970000D01*
G04 #@! TO.C,J1*
X129670000Y-52310000D02*
X129670000Y-53640000D01*
X129670000Y-53640000D02*
X128340000Y-53640000D01*
X127070000Y-53640000D02*
X88910000Y-53640000D01*
X88910000Y-50980000D02*
X88910000Y-53640000D01*
X127070000Y-50980000D02*
X88910000Y-50980000D01*
X127070000Y-50980000D02*
X127070000Y-53640000D01*
G04 #@! TD*
G04 #@! TO.C,REF\002A\002A*
D12*
X78996666Y-16342380D02*
X78663333Y-15866190D01*
X78425238Y-16342380D02*
X78425238Y-15342380D01*
X78806190Y-15342380D01*
X78901428Y-15390000D01*
X78949047Y-15437619D01*
X78996666Y-15532857D01*
X78996666Y-15675714D01*
X78949047Y-15770952D01*
X78901428Y-15818571D01*
X78806190Y-15866190D01*
X78425238Y-15866190D01*
X79425238Y-15818571D02*
X79758571Y-15818571D01*
X79901428Y-16342380D02*
X79425238Y-16342380D01*
X79425238Y-15342380D01*
X79901428Y-15342380D01*
X80663333Y-15818571D02*
X80330000Y-15818571D01*
X80330000Y-16342380D02*
X80330000Y-15342380D01*
X80806190Y-15342380D01*
X81330000Y-15342380D02*
X81330000Y-15580476D01*
X81091904Y-15485238D02*
X81330000Y-15580476D01*
X81568095Y-15485238D01*
X81187142Y-15770952D02*
X81330000Y-15580476D01*
X81472857Y-15770952D01*
X82091904Y-15342380D02*
X82091904Y-15580476D01*
X81853809Y-15485238D02*
X82091904Y-15580476D01*
X82330000Y-15485238D01*
X81949047Y-15770952D02*
X82091904Y-15580476D01*
X82234761Y-15770952D01*
G04 #@! TO.C,J28-TP25*
X191188095Y-80312380D02*
X191188095Y-81026666D01*
X191140476Y-81169523D01*
X191045238Y-81264761D01*
X190902380Y-81312380D01*
X190807142Y-81312380D01*
X191616666Y-80407619D02*
X191664285Y-80360000D01*
X191759523Y-80312380D01*
X191997619Y-80312380D01*
X192092857Y-80360000D01*
X192140476Y-80407619D01*
X192188095Y-80502857D01*
X192188095Y-80598095D01*
X192140476Y-80740952D01*
X191569047Y-81312380D01*
X192188095Y-81312380D01*
X192759523Y-80740952D02*
X192664285Y-80693333D01*
X192616666Y-80645714D01*
X192569047Y-80550476D01*
X192569047Y-80502857D01*
X192616666Y-80407619D01*
X192664285Y-80360000D01*
X192759523Y-80312380D01*
X192950000Y-80312380D01*
X193045238Y-80360000D01*
X193092857Y-80407619D01*
X193140476Y-80502857D01*
X193140476Y-80550476D01*
X193092857Y-80645714D01*
X193045238Y-80693333D01*
X192950000Y-80740952D01*
X192759523Y-80740952D01*
X192664285Y-80788571D01*
X192616666Y-80836190D01*
X192569047Y-80931428D01*
X192569047Y-81121904D01*
X192616666Y-81217142D01*
X192664285Y-81264761D01*
X192759523Y-81312380D01*
X192950000Y-81312380D01*
X193045238Y-81264761D01*
X193092857Y-81217142D01*
X193140476Y-81121904D01*
X193140476Y-80931428D01*
X193092857Y-80836190D01*
X193045238Y-80788571D01*
X192950000Y-80740952D01*
X193569047Y-80931428D02*
X194330952Y-80931428D01*
X194664285Y-80312380D02*
X195235714Y-80312380D01*
X194950000Y-81312380D02*
X194950000Y-80312380D01*
X195569047Y-81312380D02*
X195569047Y-80312380D01*
X195950000Y-80312380D01*
X196045238Y-80360000D01*
X196092857Y-80407619D01*
X196140476Y-80502857D01*
X196140476Y-80645714D01*
X196092857Y-80740952D01*
X196045238Y-80788571D01*
X195950000Y-80836190D01*
X195569047Y-80836190D01*
X196521428Y-80407619D02*
X196569047Y-80360000D01*
X196664285Y-80312380D01*
X196902380Y-80312380D01*
X196997619Y-80360000D01*
X197045238Y-80407619D01*
X197092857Y-80502857D01*
X197092857Y-80598095D01*
X197045238Y-80740952D01*
X196473809Y-81312380D01*
X197092857Y-81312380D01*
X197997619Y-80312380D02*
X197521428Y-80312380D01*
X197473809Y-80788571D01*
X197521428Y-80740952D01*
X197616666Y-80693333D01*
X197854761Y-80693333D01*
X197950000Y-80740952D01*
X197997619Y-80788571D01*
X198045238Y-80883809D01*
X198045238Y-81121904D01*
X197997619Y-81217142D01*
X197950000Y-81264761D01*
X197854761Y-81312380D01*
X197616666Y-81312380D01*
X197521428Y-81264761D01*
X197473809Y-81217142D01*
G04 #@! TO.C,A1*
X185736666Y-33354285D02*
X185736666Y-32878095D01*
X186022380Y-33449523D02*
X185022380Y-33116190D01*
X186022380Y-32782857D01*
X186022380Y-31925714D02*
X186022380Y-32497142D01*
X186022380Y-32211428D02*
X185022380Y-32211428D01*
X185165238Y-32306666D01*
X185260476Y-32401904D01*
X185308095Y-32497142D01*
X186607523Y-19218380D02*
X186131333Y-19218380D01*
X186083714Y-19694571D01*
X186131333Y-19646952D01*
X186226571Y-19599333D01*
X186464666Y-19599333D01*
X186559904Y-19646952D01*
X186607523Y-19694571D01*
X186655142Y-19789809D01*
X186655142Y-20027904D01*
X186607523Y-20123142D01*
X186559904Y-20170761D01*
X186464666Y-20218380D01*
X186226571Y-20218380D01*
X186131333Y-20170761D01*
X186083714Y-20123142D01*
X186940857Y-19218380D02*
X187274190Y-20218380D01*
X187607523Y-19218380D01*
X185528095Y-14186000D02*
X185432857Y-14138380D01*
X185290000Y-14138380D01*
X185147142Y-14186000D01*
X185051904Y-14281238D01*
X185004285Y-14376476D01*
X184956666Y-14566952D01*
X184956666Y-14709809D01*
X185004285Y-14900285D01*
X185051904Y-14995523D01*
X185147142Y-15090761D01*
X185290000Y-15138380D01*
X185385238Y-15138380D01*
X185528095Y-15090761D01*
X185575714Y-15043142D01*
X185575714Y-14709809D01*
X185385238Y-14709809D01*
X186004285Y-15138380D02*
X186004285Y-14138380D01*
X186575714Y-15138380D01*
X186575714Y-14138380D01*
X187051904Y-15138380D02*
X187051904Y-14138380D01*
X187290000Y-14138380D01*
X187432857Y-14186000D01*
X187528095Y-14281238D01*
X187575714Y-14376476D01*
X187623333Y-14566952D01*
X187623333Y-14709809D01*
X187575714Y-14900285D01*
X187528095Y-14995523D01*
X187432857Y-15090761D01*
X187290000Y-15138380D01*
X187051904Y-15138380D01*
X186631333Y-22758380D02*
X186298000Y-22282190D01*
X186059904Y-22758380D02*
X186059904Y-21758380D01*
X186440857Y-21758380D01*
X186536095Y-21806000D01*
X186583714Y-21853619D01*
X186631333Y-21948857D01*
X186631333Y-22091714D01*
X186583714Y-22186952D01*
X186536095Y-22234571D01*
X186440857Y-22282190D01*
X186059904Y-22282190D01*
X186964666Y-21758380D02*
X187631333Y-22758380D01*
X187631333Y-21758380D02*
X186964666Y-22758380D01*
X186036095Y-24298380D02*
X186607523Y-24298380D01*
X186321809Y-25298380D02*
X186321809Y-24298380D01*
X186845619Y-24298380D02*
X187512285Y-25298380D01*
X187512285Y-24298380D02*
X186845619Y-25298380D01*
X185544000Y-27838380D02*
X185544000Y-26838380D01*
X185782095Y-26838380D01*
X185924952Y-26886000D01*
X186020190Y-26981238D01*
X186067809Y-27076476D01*
X186115428Y-27266952D01*
X186115428Y-27409809D01*
X186067809Y-27600285D01*
X186020190Y-27695523D01*
X185924952Y-27790761D01*
X185782095Y-27838380D01*
X185544000Y-27838380D01*
X186544000Y-27838380D02*
X186544000Y-26838380D01*
X187591619Y-27838380D02*
X187258285Y-27362190D01*
X187020190Y-27838380D02*
X187020190Y-26838380D01*
X187401142Y-26838380D01*
X187496380Y-26886000D01*
X187544000Y-26933619D01*
X187591619Y-27028857D01*
X187591619Y-27171714D01*
X187544000Y-27266952D01*
X187496380Y-27314571D01*
X187401142Y-27362190D01*
X187020190Y-27362190D01*
X185528095Y-16726000D02*
X185432857Y-16678380D01*
X185290000Y-16678380D01*
X185147142Y-16726000D01*
X185051904Y-16821238D01*
X185004285Y-16916476D01*
X184956666Y-17106952D01*
X184956666Y-17249809D01*
X185004285Y-17440285D01*
X185051904Y-17535523D01*
X185147142Y-17630761D01*
X185290000Y-17678380D01*
X185385238Y-17678380D01*
X185528095Y-17630761D01*
X185575714Y-17583142D01*
X185575714Y-17249809D01*
X185385238Y-17249809D01*
X186004285Y-17678380D02*
X186004285Y-16678380D01*
X186575714Y-17678380D01*
X186575714Y-16678380D01*
X187051904Y-17678380D02*
X187051904Y-16678380D01*
X187290000Y-16678380D01*
X187432857Y-16726000D01*
X187528095Y-16821238D01*
X187575714Y-16916476D01*
X187623333Y-17106952D01*
X187623333Y-17249809D01*
X187575714Y-17440285D01*
X187528095Y-17535523D01*
X187432857Y-17630761D01*
X187290000Y-17678380D01*
X187051904Y-17678380D01*
X194392380Y-32246666D02*
X193916190Y-32580000D01*
X194392380Y-32818095D02*
X193392380Y-32818095D01*
X193392380Y-32437142D01*
X193440000Y-32341904D01*
X193487619Y-32294285D01*
X193582857Y-32246666D01*
X193725714Y-32246666D01*
X193820952Y-32294285D01*
X193868571Y-32341904D01*
X193916190Y-32437142D01*
X193916190Y-32818095D01*
X193392380Y-31913333D02*
X194392380Y-31246666D01*
X193392380Y-31246666D02*
X194392380Y-31913333D01*
X194392380Y-30865714D02*
X193392380Y-30865714D01*
X193392380Y-30627619D01*
X193440000Y-30484761D01*
X193535238Y-30389523D01*
X193630476Y-30341904D01*
X193820952Y-30294285D01*
X193963809Y-30294285D01*
X194154285Y-30341904D01*
X194249523Y-30389523D01*
X194344761Y-30484761D01*
X194392380Y-30627619D01*
X194392380Y-30865714D01*
X196942380Y-32149047D02*
X196466190Y-32482380D01*
X196942380Y-32720476D02*
X195942380Y-32720476D01*
X195942380Y-32339523D01*
X195990000Y-32244285D01*
X196037619Y-32196666D01*
X196132857Y-32149047D01*
X196275714Y-32149047D01*
X196370952Y-32196666D01*
X196418571Y-32244285D01*
X196466190Y-32339523D01*
X196466190Y-32720476D01*
X196418571Y-31720476D02*
X196418571Y-31387142D01*
X196942380Y-31244285D02*
X196942380Y-31720476D01*
X195942380Y-31720476D01*
X195942380Y-31244285D01*
X196894761Y-30863333D02*
X196942380Y-30720476D01*
X196942380Y-30482380D01*
X196894761Y-30387142D01*
X196847142Y-30339523D01*
X196751904Y-30291904D01*
X196656666Y-30291904D01*
X196561428Y-30339523D01*
X196513809Y-30387142D01*
X196466190Y-30482380D01*
X196418571Y-30672857D01*
X196370952Y-30768095D01*
X196323333Y-30815714D01*
X196228095Y-30863333D01*
X196132857Y-30863333D01*
X196037619Y-30815714D01*
X195990000Y-30768095D01*
X195942380Y-30672857D01*
X195942380Y-30434761D01*
X195990000Y-30291904D01*
X198500000Y-32371904D02*
X198452380Y-32467142D01*
X198452380Y-32610000D01*
X198500000Y-32752857D01*
X198595238Y-32848095D01*
X198690476Y-32895714D01*
X198880952Y-32943333D01*
X199023809Y-32943333D01*
X199214285Y-32895714D01*
X199309523Y-32848095D01*
X199404761Y-32752857D01*
X199452380Y-32610000D01*
X199452380Y-32514761D01*
X199404761Y-32371904D01*
X199357142Y-32324285D01*
X199023809Y-32324285D01*
X199023809Y-32514761D01*
X199452380Y-31895714D02*
X198452380Y-31895714D01*
X199452380Y-31324285D01*
X198452380Y-31324285D01*
X199452380Y-30848095D02*
X198452380Y-30848095D01*
X198452380Y-30610000D01*
X198500000Y-30467142D01*
X198595238Y-30371904D01*
X198690476Y-30324285D01*
X198880952Y-30276666D01*
X199023809Y-30276666D01*
X199214285Y-30324285D01*
X199309523Y-30371904D01*
X199404761Y-30467142D01*
X199452380Y-30610000D01*
X199452380Y-30848095D01*
X201047619Y-30895714D02*
X201000000Y-30848095D01*
X200952380Y-30752857D01*
X200952380Y-30514761D01*
X201000000Y-30419523D01*
X201047619Y-30371904D01*
X201142857Y-30324285D01*
X201238095Y-30324285D01*
X201380952Y-30371904D01*
X201952380Y-30943333D01*
X201952380Y-30324285D01*
X203562380Y-30963333D02*
X203562380Y-30344285D01*
X203943333Y-30677619D01*
X203943333Y-30534761D01*
X203990952Y-30439523D01*
X204038571Y-30391904D01*
X204133809Y-30344285D01*
X204371904Y-30344285D01*
X204467142Y-30391904D01*
X204514761Y-30439523D01*
X204562380Y-30534761D01*
X204562380Y-30820476D01*
X204514761Y-30915714D01*
X204467142Y-30963333D01*
X206435714Y-30449523D02*
X207102380Y-30449523D01*
X206054761Y-30687619D02*
X206769047Y-30925714D01*
X206769047Y-30306666D01*
X208672380Y-30351904D02*
X208672380Y-30828095D01*
X209148571Y-30875714D01*
X209100952Y-30828095D01*
X209053333Y-30732857D01*
X209053333Y-30494761D01*
X209100952Y-30399523D01*
X209148571Y-30351904D01*
X209243809Y-30304285D01*
X209481904Y-30304285D01*
X209577142Y-30351904D01*
X209624761Y-30399523D01*
X209672380Y-30494761D01*
X209672380Y-30732857D01*
X209624761Y-30828095D01*
X209577142Y-30875714D01*
X211202380Y-30419523D02*
X211202380Y-30610000D01*
X211250000Y-30705238D01*
X211297619Y-30752857D01*
X211440476Y-30848095D01*
X211630952Y-30895714D01*
X212011904Y-30895714D01*
X212107142Y-30848095D01*
X212154761Y-30800476D01*
X212202380Y-30705238D01*
X212202380Y-30514761D01*
X212154761Y-30419523D01*
X212107142Y-30371904D01*
X212011904Y-30324285D01*
X211773809Y-30324285D01*
X211678571Y-30371904D01*
X211630952Y-30419523D01*
X211583333Y-30514761D01*
X211583333Y-30705238D01*
X211630952Y-30800476D01*
X211678571Y-30848095D01*
X211773809Y-30895714D01*
X213752380Y-30943333D02*
X213752380Y-30276666D01*
X214752380Y-30705238D01*
X216680952Y-30685238D02*
X216633333Y-30780476D01*
X216585714Y-30828095D01*
X216490476Y-30875714D01*
X216442857Y-30875714D01*
X216347619Y-30828095D01*
X216300000Y-30780476D01*
X216252380Y-30685238D01*
X216252380Y-30494761D01*
X216300000Y-30399523D01*
X216347619Y-30351904D01*
X216442857Y-30304285D01*
X216490476Y-30304285D01*
X216585714Y-30351904D01*
X216633333Y-30399523D01*
X216680952Y-30494761D01*
X216680952Y-30685238D01*
X216728571Y-30780476D01*
X216776190Y-30828095D01*
X216871428Y-30875714D01*
X217061904Y-30875714D01*
X217157142Y-30828095D01*
X217204761Y-30780476D01*
X217252380Y-30685238D01*
X217252380Y-30494761D01*
X217204761Y-30399523D01*
X217157142Y-30351904D01*
X217061904Y-30304285D01*
X216871428Y-30304285D01*
X216776190Y-30351904D01*
X216728571Y-30399523D01*
X216680952Y-30494761D01*
X219852380Y-30780476D02*
X219852380Y-30590000D01*
X219804761Y-30494761D01*
X219757142Y-30447142D01*
X219614285Y-30351904D01*
X219423809Y-30304285D01*
X219042857Y-30304285D01*
X218947619Y-30351904D01*
X218900000Y-30399523D01*
X218852380Y-30494761D01*
X218852380Y-30685238D01*
X218900000Y-30780476D01*
X218947619Y-30828095D01*
X219042857Y-30875714D01*
X219280952Y-30875714D01*
X219376190Y-30828095D01*
X219423809Y-30780476D01*
X219471428Y-30685238D01*
X219471428Y-30494761D01*
X219423809Y-30399523D01*
X219376190Y-30351904D01*
X219280952Y-30304285D01*
X219742380Y-11720476D02*
X219742380Y-12291904D01*
X219742380Y-12006190D02*
X218742380Y-12006190D01*
X218885238Y-12101428D01*
X218980476Y-12196666D01*
X219028095Y-12291904D01*
X218742380Y-11101428D02*
X218742380Y-11006190D01*
X218790000Y-10910952D01*
X218837619Y-10863333D01*
X218932857Y-10815714D01*
X219123333Y-10768095D01*
X219361428Y-10768095D01*
X219551904Y-10815714D01*
X219647142Y-10863333D01*
X219694761Y-10910952D01*
X219742380Y-11006190D01*
X219742380Y-11101428D01*
X219694761Y-11196666D01*
X219647142Y-11244285D01*
X219551904Y-11291904D01*
X219361428Y-11339523D01*
X219123333Y-11339523D01*
X218932857Y-11291904D01*
X218837619Y-11244285D01*
X218790000Y-11196666D01*
X218742380Y-11101428D01*
X217252380Y-11730476D02*
X217252380Y-12301904D01*
X217252380Y-12016190D02*
X216252380Y-12016190D01*
X216395238Y-12111428D01*
X216490476Y-12206666D01*
X216538095Y-12301904D01*
X217252380Y-10778095D02*
X217252380Y-11349523D01*
X217252380Y-11063809D02*
X216252380Y-11063809D01*
X216395238Y-11159047D01*
X216490476Y-11254285D01*
X216538095Y-11349523D01*
X214652380Y-11700476D02*
X214652380Y-12271904D01*
X214652380Y-11986190D02*
X213652380Y-11986190D01*
X213795238Y-12081428D01*
X213890476Y-12176666D01*
X213938095Y-12271904D01*
X213747619Y-11319523D02*
X213700000Y-11271904D01*
X213652380Y-11176666D01*
X213652380Y-10938571D01*
X213700000Y-10843333D01*
X213747619Y-10795714D01*
X213842857Y-10748095D01*
X213938095Y-10748095D01*
X214080952Y-10795714D01*
X214652380Y-11367142D01*
X214652380Y-10748095D01*
X212122380Y-11710476D02*
X212122380Y-12281904D01*
X212122380Y-11996190D02*
X211122380Y-11996190D01*
X211265238Y-12091428D01*
X211360476Y-12186666D01*
X211408095Y-12281904D01*
X211122380Y-11377142D02*
X211122380Y-10758095D01*
X211503333Y-11091428D01*
X211503333Y-10948571D01*
X211550952Y-10853333D01*
X211598571Y-10805714D01*
X211693809Y-10758095D01*
X211931904Y-10758095D01*
X212027142Y-10805714D01*
X212074761Y-10853333D01*
X212122380Y-10948571D01*
X212122380Y-11234285D01*
X212074761Y-11329523D01*
X212027142Y-11377142D01*
X209396666Y-12184285D02*
X209396666Y-11708095D01*
X209682380Y-12279523D02*
X208682380Y-11946190D01*
X209682380Y-11612857D01*
X208682380Y-11089047D02*
X208682380Y-10993809D01*
X208730000Y-10898571D01*
X208777619Y-10850952D01*
X208872857Y-10803333D01*
X209063333Y-10755714D01*
X209301428Y-10755714D01*
X209491904Y-10803333D01*
X209587142Y-10850952D01*
X209634761Y-10898571D01*
X209682380Y-10993809D01*
X209682380Y-11089047D01*
X209634761Y-11184285D01*
X209587142Y-11231904D01*
X209491904Y-11279523D01*
X209301428Y-11327142D01*
X209063333Y-11327142D01*
X208872857Y-11279523D01*
X208777619Y-11231904D01*
X208730000Y-11184285D01*
X208682380Y-11089047D01*
X206826666Y-12174285D02*
X206826666Y-11698095D01*
X207112380Y-12269523D02*
X206112380Y-11936190D01*
X207112380Y-11602857D01*
X207112380Y-10745714D02*
X207112380Y-11317142D01*
X207112380Y-11031428D02*
X206112380Y-11031428D01*
X206255238Y-11126666D01*
X206350476Y-11221904D01*
X206398095Y-11317142D01*
X204406666Y-12204285D02*
X204406666Y-11728095D01*
X204692380Y-12299523D02*
X203692380Y-11966190D01*
X204692380Y-11632857D01*
X203787619Y-11347142D02*
X203740000Y-11299523D01*
X203692380Y-11204285D01*
X203692380Y-10966190D01*
X203740000Y-10870952D01*
X203787619Y-10823333D01*
X203882857Y-10775714D01*
X203978095Y-10775714D01*
X204120952Y-10823333D01*
X204692380Y-11394761D01*
X204692380Y-10775714D01*
X201786666Y-12194285D02*
X201786666Y-11718095D01*
X202072380Y-12289523D02*
X201072380Y-11956190D01*
X202072380Y-11622857D01*
X201072380Y-11384761D02*
X201072380Y-10765714D01*
X201453333Y-11099047D01*
X201453333Y-10956190D01*
X201500952Y-10860952D01*
X201548571Y-10813333D01*
X201643809Y-10765714D01*
X201881904Y-10765714D01*
X201977142Y-10813333D01*
X202024761Y-10860952D01*
X202072380Y-10956190D01*
X202072380Y-11241904D01*
X202024761Y-11337142D01*
X201977142Y-11384761D01*
X198502380Y-12303333D02*
X199502380Y-11970000D01*
X198502380Y-11636666D01*
X199407142Y-10731904D02*
X199454761Y-10779523D01*
X199502380Y-10922380D01*
X199502380Y-11017619D01*
X199454761Y-11160476D01*
X199359523Y-11255714D01*
X199264285Y-11303333D01*
X199073809Y-11350952D01*
X198930952Y-11350952D01*
X198740476Y-11303333D01*
X198645238Y-11255714D01*
X198550000Y-11160476D01*
X198502380Y-11017619D01*
X198502380Y-10922380D01*
X198550000Y-10779523D01*
X198597619Y-10731904D01*
X199407142Y-9731904D02*
X199454761Y-9779523D01*
X199502380Y-9922380D01*
X199502380Y-10017619D01*
X199454761Y-10160476D01*
X199359523Y-10255714D01*
X199264285Y-10303333D01*
X199073809Y-10350952D01*
X198930952Y-10350952D01*
X198740476Y-10303333D01*
X198645238Y-10255714D01*
X198550000Y-10160476D01*
X198502380Y-10017619D01*
X198502380Y-9922380D01*
X198550000Y-9779523D01*
X198597619Y-9731904D01*
X196992380Y-11679047D02*
X196516190Y-12012380D01*
X196992380Y-12250476D02*
X195992380Y-12250476D01*
X195992380Y-11869523D01*
X196040000Y-11774285D01*
X196087619Y-11726666D01*
X196182857Y-11679047D01*
X196325714Y-11679047D01*
X196420952Y-11726666D01*
X196468571Y-11774285D01*
X196516190Y-11869523D01*
X196516190Y-12250476D01*
X196468571Y-11250476D02*
X196468571Y-10917142D01*
X196992380Y-10774285D02*
X196992380Y-11250476D01*
X195992380Y-11250476D01*
X195992380Y-10774285D01*
X196944761Y-10393333D02*
X196992380Y-10250476D01*
X196992380Y-10012380D01*
X196944761Y-9917142D01*
X196897142Y-9869523D01*
X196801904Y-9821904D01*
X196706666Y-9821904D01*
X196611428Y-9869523D01*
X196563809Y-9917142D01*
X196516190Y-10012380D01*
X196468571Y-10202857D01*
X196420952Y-10298095D01*
X196373333Y-10345714D01*
X196278095Y-10393333D01*
X196182857Y-10393333D01*
X196087619Y-10345714D01*
X196040000Y-10298095D01*
X195992380Y-10202857D01*
X195992380Y-9964761D01*
X196040000Y-9821904D01*
X193370000Y-11721904D02*
X193322380Y-11817142D01*
X193322380Y-11960000D01*
X193370000Y-12102857D01*
X193465238Y-12198095D01*
X193560476Y-12245714D01*
X193750952Y-12293333D01*
X193893809Y-12293333D01*
X194084285Y-12245714D01*
X194179523Y-12198095D01*
X194274761Y-12102857D01*
X194322380Y-11960000D01*
X194322380Y-11864761D01*
X194274761Y-11721904D01*
X194227142Y-11674285D01*
X193893809Y-11674285D01*
X193893809Y-11864761D01*
X194322380Y-11245714D02*
X193322380Y-11245714D01*
X194322380Y-10674285D01*
X193322380Y-10674285D01*
X194322380Y-10198095D02*
X193322380Y-10198095D01*
X193322380Y-9960000D01*
X193370000Y-9817142D01*
X193465238Y-9721904D01*
X193560476Y-9674285D01*
X193750952Y-9626666D01*
X193893809Y-9626666D01*
X194084285Y-9674285D01*
X194179523Y-9721904D01*
X194274761Y-9817142D01*
X194322380Y-9960000D01*
X194322380Y-10198095D01*
X191912380Y-11700476D02*
X191436190Y-12033809D01*
X191912380Y-12271904D02*
X190912380Y-12271904D01*
X190912380Y-11890952D01*
X190960000Y-11795714D01*
X191007619Y-11748095D01*
X191102857Y-11700476D01*
X191245714Y-11700476D01*
X191340952Y-11748095D01*
X191388571Y-11795714D01*
X191436190Y-11890952D01*
X191436190Y-12271904D01*
X191626666Y-11319523D02*
X191626666Y-10843333D01*
X191912380Y-11414761D02*
X190912380Y-11081428D01*
X191912380Y-10748095D01*
X190912380Y-10510000D02*
X191912380Y-10271904D01*
X191198095Y-10081428D01*
X191912380Y-9890952D01*
X190912380Y-9652857D01*
X190862380Y-32701904D02*
X190862380Y-32130476D01*
X191862380Y-32416190D02*
X190862380Y-32416190D01*
X190862380Y-31892380D02*
X191862380Y-31225714D01*
X190862380Y-31225714D02*
X191862380Y-31892380D01*
X191862380Y-30844761D02*
X190862380Y-30844761D01*
X190862380Y-30606666D01*
X190910000Y-30463809D01*
X191005238Y-30368571D01*
X191100476Y-30320952D01*
X191290952Y-30273333D01*
X191433809Y-30273333D01*
X191624285Y-30320952D01*
X191719523Y-30368571D01*
X191814761Y-30463809D01*
X191862380Y-30606666D01*
X191862380Y-30844761D01*
G04 #@! TO.C,D1*
X210032380Y-53118095D02*
X209032380Y-53118095D01*
X209032380Y-52880000D01*
X209080000Y-52737142D01*
X209175238Y-52641904D01*
X209270476Y-52594285D01*
X209460952Y-52546666D01*
X209603809Y-52546666D01*
X209794285Y-52594285D01*
X209889523Y-52641904D01*
X209984761Y-52737142D01*
X210032380Y-52880000D01*
X210032380Y-53118095D01*
X210032380Y-51594285D02*
X210032380Y-52165714D01*
X210032380Y-51880000D02*
X209032380Y-51880000D01*
X209175238Y-51975238D01*
X209270476Y-52070476D01*
X209318095Y-52165714D01*
X210402380Y-57721904D02*
X209402380Y-57721904D01*
X210402380Y-57150476D02*
X209830952Y-57579047D01*
X209402380Y-57150476D02*
X209973809Y-57721904D01*
G04 #@! TO.C,K2*
X227802380Y-44048095D02*
X226802380Y-44048095D01*
X227802380Y-43476666D02*
X227230952Y-43905238D01*
X226802380Y-43476666D02*
X227373809Y-44048095D01*
X226897619Y-43095714D02*
X226850000Y-43048095D01*
X226802380Y-42952857D01*
X226802380Y-42714761D01*
X226850000Y-42619523D01*
X226897619Y-42571904D01*
X226992857Y-42524285D01*
X227088095Y-42524285D01*
X227230952Y-42571904D01*
X227802380Y-43143333D01*
X227802380Y-42524285D01*
G04 #@! TO.C,R29*
X217697142Y-41472380D02*
X217363809Y-40996190D01*
X217125714Y-41472380D02*
X217125714Y-40472380D01*
X217506666Y-40472380D01*
X217601904Y-40520000D01*
X217649523Y-40567619D01*
X217697142Y-40662857D01*
X217697142Y-40805714D01*
X217649523Y-40900952D01*
X217601904Y-40948571D01*
X217506666Y-40996190D01*
X217125714Y-40996190D01*
X218078095Y-40567619D02*
X218125714Y-40520000D01*
X218220952Y-40472380D01*
X218459047Y-40472380D01*
X218554285Y-40520000D01*
X218601904Y-40567619D01*
X218649523Y-40662857D01*
X218649523Y-40758095D01*
X218601904Y-40900952D01*
X218030476Y-41472380D01*
X218649523Y-41472380D01*
X219125714Y-41472380D02*
X219316190Y-41472380D01*
X219411428Y-41424761D01*
X219459047Y-41377142D01*
X219554285Y-41234285D01*
X219601904Y-41043809D01*
X219601904Y-40662857D01*
X219554285Y-40567619D01*
X219506666Y-40520000D01*
X219411428Y-40472380D01*
X219220952Y-40472380D01*
X219125714Y-40520000D01*
X219078095Y-40567619D01*
X219030476Y-40662857D01*
X219030476Y-40900952D01*
X219078095Y-40996190D01*
X219125714Y-41043809D01*
X219220952Y-41091428D01*
X219411428Y-41091428D01*
X219506666Y-41043809D01*
X219554285Y-40996190D01*
X219601904Y-40900952D01*
G04 #@! TO.C,Q2*
X213514761Y-41677619D02*
X213419523Y-41630000D01*
X213324285Y-41534761D01*
X213181428Y-41391904D01*
X213086190Y-41344285D01*
X212990952Y-41344285D01*
X213038571Y-41582380D02*
X212943333Y-41534761D01*
X212848095Y-41439523D01*
X212800476Y-41249047D01*
X212800476Y-40915714D01*
X212848095Y-40725238D01*
X212943333Y-40630000D01*
X213038571Y-40582380D01*
X213229047Y-40582380D01*
X213324285Y-40630000D01*
X213419523Y-40725238D01*
X213467142Y-40915714D01*
X213467142Y-41249047D01*
X213419523Y-41439523D01*
X213324285Y-41534761D01*
X213229047Y-41582380D01*
X213038571Y-41582380D01*
X213848095Y-40677619D02*
X213895714Y-40630000D01*
X213990952Y-40582380D01*
X214229047Y-40582380D01*
X214324285Y-40630000D01*
X214371904Y-40677619D01*
X214419523Y-40772857D01*
X214419523Y-40868095D01*
X214371904Y-41010952D01*
X213800476Y-41582380D01*
X214419523Y-41582380D01*
G04 #@! TO.C,D3*
X219861904Y-62642380D02*
X219861904Y-61642380D01*
X220100000Y-61642380D01*
X220242857Y-61690000D01*
X220338095Y-61785238D01*
X220385714Y-61880476D01*
X220433333Y-62070952D01*
X220433333Y-62213809D01*
X220385714Y-62404285D01*
X220338095Y-62499523D01*
X220242857Y-62594761D01*
X220100000Y-62642380D01*
X219861904Y-62642380D01*
X220766666Y-61642380D02*
X221385714Y-61642380D01*
X221052380Y-62023333D01*
X221195238Y-62023333D01*
X221290476Y-62070952D01*
X221338095Y-62118571D01*
X221385714Y-62213809D01*
X221385714Y-62451904D01*
X221338095Y-62547142D01*
X221290476Y-62594761D01*
X221195238Y-62642380D01*
X220909523Y-62642380D01*
X220814285Y-62594761D01*
X220766666Y-62547142D01*
X225418095Y-62322380D02*
X225418095Y-61322380D01*
X225989523Y-62322380D02*
X225560952Y-61750952D01*
X225989523Y-61322380D02*
X225418095Y-61893809D01*
G04 #@! TO.C,SW1*
X226204761Y-47723333D02*
X226252380Y-47580476D01*
X226252380Y-47342380D01*
X226204761Y-47247142D01*
X226157142Y-47199523D01*
X226061904Y-47151904D01*
X225966666Y-47151904D01*
X225871428Y-47199523D01*
X225823809Y-47247142D01*
X225776190Y-47342380D01*
X225728571Y-47532857D01*
X225680952Y-47628095D01*
X225633333Y-47675714D01*
X225538095Y-47723333D01*
X225442857Y-47723333D01*
X225347619Y-47675714D01*
X225300000Y-47628095D01*
X225252380Y-47532857D01*
X225252380Y-47294761D01*
X225300000Y-47151904D01*
X225252380Y-46818571D02*
X226252380Y-46580476D01*
X225538095Y-46390000D01*
X226252380Y-46199523D01*
X225252380Y-45961428D01*
X226252380Y-45056666D02*
X226252380Y-45628095D01*
X226252380Y-45342380D02*
X225252380Y-45342380D01*
X225395238Y-45437619D01*
X225490476Y-45532857D01*
X225538095Y-45628095D01*
G04 #@! TO.C,JP1*
X135532380Y-21653333D02*
X136246666Y-21653333D01*
X136389523Y-21700952D01*
X136484761Y-21796190D01*
X136532380Y-21939047D01*
X136532380Y-22034285D01*
X136532380Y-21177142D02*
X135532380Y-21177142D01*
X135532380Y-20796190D01*
X135580000Y-20700952D01*
X135627619Y-20653333D01*
X135722857Y-20605714D01*
X135865714Y-20605714D01*
X135960952Y-20653333D01*
X136008571Y-20700952D01*
X136056190Y-20796190D01*
X136056190Y-21177142D01*
X136532380Y-19653333D02*
X136532380Y-20224761D01*
X136532380Y-19939047D02*
X135532380Y-19939047D01*
X135675238Y-20034285D01*
X135770476Y-20129523D01*
X135818095Y-20224761D01*
G04 #@! TO.C,H6*
X114738095Y-108602380D02*
X114738095Y-107602380D01*
X114738095Y-108078571D02*
X115309523Y-108078571D01*
X115309523Y-108602380D02*
X115309523Y-107602380D01*
X116214285Y-107602380D02*
X116023809Y-107602380D01*
X115928571Y-107650000D01*
X115880952Y-107697619D01*
X115785714Y-107840476D01*
X115738095Y-108030952D01*
X115738095Y-108411904D01*
X115785714Y-108507142D01*
X115833333Y-108554761D01*
X115928571Y-108602380D01*
X116119047Y-108602380D01*
X116214285Y-108554761D01*
X116261904Y-108507142D01*
X116309523Y-108411904D01*
X116309523Y-108173809D01*
X116261904Y-108078571D01*
X116214285Y-108030952D01*
X116119047Y-107983333D01*
X115928571Y-107983333D01*
X115833333Y-108030952D01*
X115785714Y-108078571D01*
X115738095Y-108173809D01*
G04 #@! TO.C,H5*
X193538095Y-108602380D02*
X193538095Y-107602380D01*
X193538095Y-108078571D02*
X194109523Y-108078571D01*
X194109523Y-108602380D02*
X194109523Y-107602380D01*
X195061904Y-107602380D02*
X194585714Y-107602380D01*
X194538095Y-108078571D01*
X194585714Y-108030952D01*
X194680952Y-107983333D01*
X194919047Y-107983333D01*
X195014285Y-108030952D01*
X195061904Y-108078571D01*
X195109523Y-108173809D01*
X195109523Y-108411904D01*
X195061904Y-108507142D01*
X195014285Y-108554761D01*
X194919047Y-108602380D01*
X194680952Y-108602380D01*
X194585714Y-108554761D01*
X194538095Y-108507142D01*
G04 #@! TO.C,H4*
X85238095Y-158002380D02*
X85238095Y-157002380D01*
X85238095Y-157478571D02*
X85809523Y-157478571D01*
X85809523Y-158002380D02*
X85809523Y-157002380D01*
X86714285Y-157335714D02*
X86714285Y-158002380D01*
X86476190Y-156954761D02*
X86238095Y-157669047D01*
X86857142Y-157669047D01*
G04 #@! TO.C,H3*
X225438095Y-158002380D02*
X225438095Y-157002380D01*
X225438095Y-157478571D02*
X226009523Y-157478571D01*
X226009523Y-158002380D02*
X226009523Y-157002380D01*
X226390476Y-157002380D02*
X227009523Y-157002380D01*
X226676190Y-157383333D01*
X226819047Y-157383333D01*
X226914285Y-157430952D01*
X226961904Y-157478571D01*
X227009523Y-157573809D01*
X227009523Y-157811904D01*
X226961904Y-157907142D01*
X226914285Y-157954761D01*
X226819047Y-158002380D01*
X226533333Y-158002380D01*
X226438095Y-157954761D01*
X226390476Y-157907142D01*
G04 #@! TO.C,H2*
X223848095Y-34082380D02*
X223848095Y-33082380D01*
X223848095Y-33558571D02*
X224419523Y-33558571D01*
X224419523Y-34082380D02*
X224419523Y-33082380D01*
X224848095Y-33177619D02*
X224895714Y-33130000D01*
X224990952Y-33082380D01*
X225229047Y-33082380D01*
X225324285Y-33130000D01*
X225371904Y-33177619D01*
X225419523Y-33272857D01*
X225419523Y-33368095D01*
X225371904Y-33510952D01*
X224800476Y-34082380D01*
X225419523Y-34082380D01*
G04 #@! TO.C,H1*
X85138095Y-34102380D02*
X85138095Y-33102380D01*
X85138095Y-33578571D02*
X85709523Y-33578571D01*
X85709523Y-34102380D02*
X85709523Y-33102380D01*
X86709523Y-34102380D02*
X86138095Y-34102380D01*
X86423809Y-34102380D02*
X86423809Y-33102380D01*
X86328571Y-33245238D01*
X86233333Y-33340476D01*
X86138095Y-33388095D01*
G04 #@! TO.C,U2*
X164318095Y-27132380D02*
X164318095Y-27941904D01*
X164365714Y-28037142D01*
X164413333Y-28084761D01*
X164508571Y-28132380D01*
X164699047Y-28132380D01*
X164794285Y-28084761D01*
X164841904Y-28037142D01*
X164889523Y-27941904D01*
X164889523Y-27132380D01*
X165318095Y-27227619D02*
X165365714Y-27180000D01*
X165460952Y-27132380D01*
X165699047Y-27132380D01*
X165794285Y-27180000D01*
X165841904Y-27227619D01*
X165889523Y-27322857D01*
X165889523Y-27418095D01*
X165841904Y-27560952D01*
X165270476Y-28132380D01*
X165889523Y-28132380D01*
G04 #@! TO.C,Q1*
X218464761Y-34717619D02*
X218369523Y-34670000D01*
X218274285Y-34574761D01*
X218131428Y-34431904D01*
X218036190Y-34384285D01*
X217940952Y-34384285D01*
X217988571Y-34622380D02*
X217893333Y-34574761D01*
X217798095Y-34479523D01*
X217750476Y-34289047D01*
X217750476Y-33955714D01*
X217798095Y-33765238D01*
X217893333Y-33670000D01*
X217988571Y-33622380D01*
X218179047Y-33622380D01*
X218274285Y-33670000D01*
X218369523Y-33765238D01*
X218417142Y-33955714D01*
X218417142Y-34289047D01*
X218369523Y-34479523D01*
X218274285Y-34574761D01*
X218179047Y-34622380D01*
X217988571Y-34622380D01*
X219369523Y-34622380D02*
X218798095Y-34622380D01*
X219083809Y-34622380D02*
X219083809Y-33622380D01*
X218988571Y-33765238D01*
X218893333Y-33860476D01*
X218798095Y-33908095D01*
G04 #@! TO.C,R28*
X207777142Y-33662380D02*
X207443809Y-33186190D01*
X207205714Y-33662380D02*
X207205714Y-32662380D01*
X207586666Y-32662380D01*
X207681904Y-32710000D01*
X207729523Y-32757619D01*
X207777142Y-32852857D01*
X207777142Y-32995714D01*
X207729523Y-33090952D01*
X207681904Y-33138571D01*
X207586666Y-33186190D01*
X207205714Y-33186190D01*
X208158095Y-32757619D02*
X208205714Y-32710000D01*
X208300952Y-32662380D01*
X208539047Y-32662380D01*
X208634285Y-32710000D01*
X208681904Y-32757619D01*
X208729523Y-32852857D01*
X208729523Y-32948095D01*
X208681904Y-33090952D01*
X208110476Y-33662380D01*
X208729523Y-33662380D01*
X209300952Y-33090952D02*
X209205714Y-33043333D01*
X209158095Y-32995714D01*
X209110476Y-32900476D01*
X209110476Y-32852857D01*
X209158095Y-32757619D01*
X209205714Y-32710000D01*
X209300952Y-32662380D01*
X209491428Y-32662380D01*
X209586666Y-32710000D01*
X209634285Y-32757619D01*
X209681904Y-32852857D01*
X209681904Y-32900476D01*
X209634285Y-32995714D01*
X209586666Y-33043333D01*
X209491428Y-33090952D01*
X209300952Y-33090952D01*
X209205714Y-33138571D01*
X209158095Y-33186190D01*
X209110476Y-33281428D01*
X209110476Y-33471904D01*
X209158095Y-33567142D01*
X209205714Y-33614761D01*
X209300952Y-33662380D01*
X209491428Y-33662380D01*
X209586666Y-33614761D01*
X209634285Y-33567142D01*
X209681904Y-33471904D01*
X209681904Y-33281428D01*
X209634285Y-33186190D01*
X209586666Y-33138571D01*
X209491428Y-33090952D01*
G04 #@! TO.C,R27*
X213367142Y-34652380D02*
X213033809Y-34176190D01*
X212795714Y-34652380D02*
X212795714Y-33652380D01*
X213176666Y-33652380D01*
X213271904Y-33700000D01*
X213319523Y-33747619D01*
X213367142Y-33842857D01*
X213367142Y-33985714D01*
X213319523Y-34080952D01*
X213271904Y-34128571D01*
X213176666Y-34176190D01*
X212795714Y-34176190D01*
X213748095Y-33747619D02*
X213795714Y-33700000D01*
X213890952Y-33652380D01*
X214129047Y-33652380D01*
X214224285Y-33700000D01*
X214271904Y-33747619D01*
X214319523Y-33842857D01*
X214319523Y-33938095D01*
X214271904Y-34080952D01*
X213700476Y-34652380D01*
X214319523Y-34652380D01*
X214652857Y-33652380D02*
X215319523Y-33652380D01*
X214890952Y-34652380D01*
G04 #@! TO.C,K1*
X234892380Y-13908095D02*
X233892380Y-13908095D01*
X234892380Y-13336666D02*
X234320952Y-13765238D01*
X233892380Y-13336666D02*
X234463809Y-13908095D01*
X234892380Y-12384285D02*
X234892380Y-12955714D01*
X234892380Y-12670000D02*
X233892380Y-12670000D01*
X234035238Y-12765238D01*
X234130476Y-12860476D01*
X234178095Y-12955714D01*
G04 #@! TO.C,D2*
X227181904Y-33602380D02*
X227181904Y-32602380D01*
X227420000Y-32602380D01*
X227562857Y-32650000D01*
X227658095Y-32745238D01*
X227705714Y-32840476D01*
X227753333Y-33030952D01*
X227753333Y-33173809D01*
X227705714Y-33364285D01*
X227658095Y-33459523D01*
X227562857Y-33554761D01*
X227420000Y-33602380D01*
X227181904Y-33602380D01*
X228134285Y-32697619D02*
X228181904Y-32650000D01*
X228277142Y-32602380D01*
X228515238Y-32602380D01*
X228610476Y-32650000D01*
X228658095Y-32697619D01*
X228705714Y-32792857D01*
X228705714Y-32888095D01*
X228658095Y-33030952D01*
X228086666Y-33602380D01*
X228705714Y-33602380D01*
X232738095Y-33282380D02*
X232738095Y-32282380D01*
X233309523Y-33282380D02*
X232880952Y-32710952D01*
X233309523Y-32282380D02*
X232738095Y-32853809D01*
G04 #@! TO.C,C3*
X181013333Y-27677142D02*
X180965714Y-27724761D01*
X180822857Y-27772380D01*
X180727619Y-27772380D01*
X180584761Y-27724761D01*
X180489523Y-27629523D01*
X180441904Y-27534285D01*
X180394285Y-27343809D01*
X180394285Y-27200952D01*
X180441904Y-27010476D01*
X180489523Y-26915238D01*
X180584761Y-26820000D01*
X180727619Y-26772380D01*
X180822857Y-26772380D01*
X180965714Y-26820000D01*
X181013333Y-26867619D01*
X181346666Y-26772380D02*
X181965714Y-26772380D01*
X181632380Y-27153333D01*
X181775238Y-27153333D01*
X181870476Y-27200952D01*
X181918095Y-27248571D01*
X181965714Y-27343809D01*
X181965714Y-27581904D01*
X181918095Y-27677142D01*
X181870476Y-27724761D01*
X181775238Y-27772380D01*
X181489523Y-27772380D01*
X181394285Y-27724761D01*
X181346666Y-27677142D01*
G04 #@! TO.C,C1*
X156613333Y-34467142D02*
X156565714Y-34514761D01*
X156422857Y-34562380D01*
X156327619Y-34562380D01*
X156184761Y-34514761D01*
X156089523Y-34419523D01*
X156041904Y-34324285D01*
X155994285Y-34133809D01*
X155994285Y-33990952D01*
X156041904Y-33800476D01*
X156089523Y-33705238D01*
X156184761Y-33610000D01*
X156327619Y-33562380D01*
X156422857Y-33562380D01*
X156565714Y-33610000D01*
X156613333Y-33657619D01*
X157565714Y-34562380D02*
X156994285Y-34562380D01*
X157280000Y-34562380D02*
X157280000Y-33562380D01*
X157184761Y-33705238D01*
X157089523Y-33800476D01*
X156994285Y-33848095D01*
G04 #@! TO.C,J15*
X86310476Y-20462380D02*
X86310476Y-21176666D01*
X86262857Y-21319523D01*
X86167619Y-21414761D01*
X86024761Y-21462380D01*
X85929523Y-21462380D01*
X87310476Y-21462380D02*
X86739047Y-21462380D01*
X87024761Y-21462380D02*
X87024761Y-20462380D01*
X86929523Y-20605238D01*
X86834285Y-20700476D01*
X86739047Y-20748095D01*
X88215238Y-20462380D02*
X87739047Y-20462380D01*
X87691428Y-20938571D01*
X87739047Y-20890952D01*
X87834285Y-20843333D01*
X88072380Y-20843333D01*
X88167619Y-20890952D01*
X88215238Y-20938571D01*
X88262857Y-21033809D01*
X88262857Y-21271904D01*
X88215238Y-21367142D01*
X88167619Y-21414761D01*
X88072380Y-21462380D01*
X87834285Y-21462380D01*
X87739047Y-21414761D01*
X87691428Y-21367142D01*
G04 #@! TO.C,U1*
X142258095Y-39502380D02*
X142258095Y-40311904D01*
X142305714Y-40407142D01*
X142353333Y-40454761D01*
X142448571Y-40502380D01*
X142639047Y-40502380D01*
X142734285Y-40454761D01*
X142781904Y-40407142D01*
X142829523Y-40311904D01*
X142829523Y-39502380D01*
X143829523Y-40502380D02*
X143258095Y-40502380D01*
X143543809Y-40502380D02*
X143543809Y-39502380D01*
X143448571Y-39645238D01*
X143353333Y-39740476D01*
X143258095Y-39788095D01*
G04 #@! TO.C,R26*
X182117142Y-25932380D02*
X181783809Y-25456190D01*
X181545714Y-25932380D02*
X181545714Y-24932380D01*
X181926666Y-24932380D01*
X182021904Y-24980000D01*
X182069523Y-25027619D01*
X182117142Y-25122857D01*
X182117142Y-25265714D01*
X182069523Y-25360952D01*
X182021904Y-25408571D01*
X181926666Y-25456190D01*
X181545714Y-25456190D01*
X182498095Y-25027619D02*
X182545714Y-24980000D01*
X182640952Y-24932380D01*
X182879047Y-24932380D01*
X182974285Y-24980000D01*
X183021904Y-25027619D01*
X183069523Y-25122857D01*
X183069523Y-25218095D01*
X183021904Y-25360952D01*
X182450476Y-25932380D01*
X183069523Y-25932380D01*
X183926666Y-24932380D02*
X183736190Y-24932380D01*
X183640952Y-24980000D01*
X183593333Y-25027619D01*
X183498095Y-25170476D01*
X183450476Y-25360952D01*
X183450476Y-25741904D01*
X183498095Y-25837142D01*
X183545714Y-25884761D01*
X183640952Y-25932380D01*
X183831428Y-25932380D01*
X183926666Y-25884761D01*
X183974285Y-25837142D01*
X184021904Y-25741904D01*
X184021904Y-25503809D01*
X183974285Y-25408571D01*
X183926666Y-25360952D01*
X183831428Y-25313333D01*
X183640952Y-25313333D01*
X183545714Y-25360952D01*
X183498095Y-25408571D01*
X183450476Y-25503809D01*
G04 #@! TO.C,R25*
X131322380Y-49647857D02*
X130846190Y-49981190D01*
X131322380Y-50219285D02*
X130322380Y-50219285D01*
X130322380Y-49838333D01*
X130370000Y-49743095D01*
X130417619Y-49695476D01*
X130512857Y-49647857D01*
X130655714Y-49647857D01*
X130750952Y-49695476D01*
X130798571Y-49743095D01*
X130846190Y-49838333D01*
X130846190Y-50219285D01*
X130417619Y-49266904D02*
X130370000Y-49219285D01*
X130322380Y-49124047D01*
X130322380Y-48885952D01*
X130370000Y-48790714D01*
X130417619Y-48743095D01*
X130512857Y-48695476D01*
X130608095Y-48695476D01*
X130750952Y-48743095D01*
X131322380Y-49314523D01*
X131322380Y-48695476D01*
X130322380Y-47790714D02*
X130322380Y-48266904D01*
X130798571Y-48314523D01*
X130750952Y-48266904D01*
X130703333Y-48171666D01*
X130703333Y-47933571D01*
X130750952Y-47838333D01*
X130798571Y-47790714D01*
X130893809Y-47743095D01*
X131131904Y-47743095D01*
X131227142Y-47790714D01*
X131274761Y-47838333D01*
X131322380Y-47933571D01*
X131322380Y-48171666D01*
X131274761Y-48266904D01*
X131227142Y-48314523D01*
G04 #@! TO.C,R24*
X134052380Y-49687857D02*
X133576190Y-50021190D01*
X134052380Y-50259285D02*
X133052380Y-50259285D01*
X133052380Y-49878333D01*
X133100000Y-49783095D01*
X133147619Y-49735476D01*
X133242857Y-49687857D01*
X133385714Y-49687857D01*
X133480952Y-49735476D01*
X133528571Y-49783095D01*
X133576190Y-49878333D01*
X133576190Y-50259285D01*
X133147619Y-49306904D02*
X133100000Y-49259285D01*
X133052380Y-49164047D01*
X133052380Y-48925952D01*
X133100000Y-48830714D01*
X133147619Y-48783095D01*
X133242857Y-48735476D01*
X133338095Y-48735476D01*
X133480952Y-48783095D01*
X134052380Y-49354523D01*
X134052380Y-48735476D01*
X133385714Y-47878333D02*
X134052380Y-47878333D01*
X133004761Y-48116428D02*
X133719047Y-48354523D01*
X133719047Y-47735476D01*
G04 #@! TO.C,R23*
X136722380Y-49712857D02*
X136246190Y-50046190D01*
X136722380Y-50284285D02*
X135722380Y-50284285D01*
X135722380Y-49903333D01*
X135770000Y-49808095D01*
X135817619Y-49760476D01*
X135912857Y-49712857D01*
X136055714Y-49712857D01*
X136150952Y-49760476D01*
X136198571Y-49808095D01*
X136246190Y-49903333D01*
X136246190Y-50284285D01*
X135817619Y-49331904D02*
X135770000Y-49284285D01*
X135722380Y-49189047D01*
X135722380Y-48950952D01*
X135770000Y-48855714D01*
X135817619Y-48808095D01*
X135912857Y-48760476D01*
X136008095Y-48760476D01*
X136150952Y-48808095D01*
X136722380Y-49379523D01*
X136722380Y-48760476D01*
X135722380Y-48427142D02*
X135722380Y-47808095D01*
X136103333Y-48141428D01*
X136103333Y-47998571D01*
X136150952Y-47903333D01*
X136198571Y-47855714D01*
X136293809Y-47808095D01*
X136531904Y-47808095D01*
X136627142Y-47855714D01*
X136674761Y-47903333D01*
X136722380Y-47998571D01*
X136722380Y-48284285D01*
X136674761Y-48379523D01*
X136627142Y-48427142D01*
G04 #@! TO.C,R22*
X139582380Y-49777857D02*
X139106190Y-50111190D01*
X139582380Y-50349285D02*
X138582380Y-50349285D01*
X138582380Y-49968333D01*
X138630000Y-49873095D01*
X138677619Y-49825476D01*
X138772857Y-49777857D01*
X138915714Y-49777857D01*
X139010952Y-49825476D01*
X139058571Y-49873095D01*
X139106190Y-49968333D01*
X139106190Y-50349285D01*
X138677619Y-49396904D02*
X138630000Y-49349285D01*
X138582380Y-49254047D01*
X138582380Y-49015952D01*
X138630000Y-48920714D01*
X138677619Y-48873095D01*
X138772857Y-48825476D01*
X138868095Y-48825476D01*
X139010952Y-48873095D01*
X139582380Y-49444523D01*
X139582380Y-48825476D01*
X138677619Y-48444523D02*
X138630000Y-48396904D01*
X138582380Y-48301666D01*
X138582380Y-48063571D01*
X138630000Y-47968333D01*
X138677619Y-47920714D01*
X138772857Y-47873095D01*
X138868095Y-47873095D01*
X139010952Y-47920714D01*
X139582380Y-48492142D01*
X139582380Y-47873095D01*
G04 #@! TO.C,R21*
X142312380Y-49807857D02*
X141836190Y-50141190D01*
X142312380Y-50379285D02*
X141312380Y-50379285D01*
X141312380Y-49998333D01*
X141360000Y-49903095D01*
X141407619Y-49855476D01*
X141502857Y-49807857D01*
X141645714Y-49807857D01*
X141740952Y-49855476D01*
X141788571Y-49903095D01*
X141836190Y-49998333D01*
X141836190Y-50379285D01*
X141407619Y-49426904D02*
X141360000Y-49379285D01*
X141312380Y-49284047D01*
X141312380Y-49045952D01*
X141360000Y-48950714D01*
X141407619Y-48903095D01*
X141502857Y-48855476D01*
X141598095Y-48855476D01*
X141740952Y-48903095D01*
X142312380Y-49474523D01*
X142312380Y-48855476D01*
X142312380Y-47903095D02*
X142312380Y-48474523D01*
X142312380Y-48188809D02*
X141312380Y-48188809D01*
X141455238Y-48284047D01*
X141550476Y-48379285D01*
X141598095Y-48474523D01*
G04 #@! TO.C,R20*
X145102380Y-49897857D02*
X144626190Y-50231190D01*
X145102380Y-50469285D02*
X144102380Y-50469285D01*
X144102380Y-50088333D01*
X144150000Y-49993095D01*
X144197619Y-49945476D01*
X144292857Y-49897857D01*
X144435714Y-49897857D01*
X144530952Y-49945476D01*
X144578571Y-49993095D01*
X144626190Y-50088333D01*
X144626190Y-50469285D01*
X144197619Y-49516904D02*
X144150000Y-49469285D01*
X144102380Y-49374047D01*
X144102380Y-49135952D01*
X144150000Y-49040714D01*
X144197619Y-48993095D01*
X144292857Y-48945476D01*
X144388095Y-48945476D01*
X144530952Y-48993095D01*
X145102380Y-49564523D01*
X145102380Y-48945476D01*
X144102380Y-48326428D02*
X144102380Y-48231190D01*
X144150000Y-48135952D01*
X144197619Y-48088333D01*
X144292857Y-48040714D01*
X144483333Y-47993095D01*
X144721428Y-47993095D01*
X144911904Y-48040714D01*
X145007142Y-48088333D01*
X145054761Y-48135952D01*
X145102380Y-48231190D01*
X145102380Y-48326428D01*
X145054761Y-48421666D01*
X145007142Y-48469285D01*
X144911904Y-48516904D01*
X144721428Y-48564523D01*
X144483333Y-48564523D01*
X144292857Y-48516904D01*
X144197619Y-48469285D01*
X144150000Y-48421666D01*
X144102380Y-48326428D01*
G04 #@! TO.C,R19*
X147972380Y-49887857D02*
X147496190Y-50221190D01*
X147972380Y-50459285D02*
X146972380Y-50459285D01*
X146972380Y-50078333D01*
X147020000Y-49983095D01*
X147067619Y-49935476D01*
X147162857Y-49887857D01*
X147305714Y-49887857D01*
X147400952Y-49935476D01*
X147448571Y-49983095D01*
X147496190Y-50078333D01*
X147496190Y-50459285D01*
X147972380Y-48935476D02*
X147972380Y-49506904D01*
X147972380Y-49221190D02*
X146972380Y-49221190D01*
X147115238Y-49316428D01*
X147210476Y-49411666D01*
X147258095Y-49506904D01*
X147972380Y-48459285D02*
X147972380Y-48268809D01*
X147924761Y-48173571D01*
X147877142Y-48125952D01*
X147734285Y-48030714D01*
X147543809Y-47983095D01*
X147162857Y-47983095D01*
X147067619Y-48030714D01*
X147020000Y-48078333D01*
X146972380Y-48173571D01*
X146972380Y-48364047D01*
X147020000Y-48459285D01*
X147067619Y-48506904D01*
X147162857Y-48554523D01*
X147400952Y-48554523D01*
X147496190Y-48506904D01*
X147543809Y-48459285D01*
X147591428Y-48364047D01*
X147591428Y-48173571D01*
X147543809Y-48078333D01*
X147496190Y-48030714D01*
X147400952Y-47983095D01*
G04 #@! TO.C,R18*
X150762380Y-49837857D02*
X150286190Y-50171190D01*
X150762380Y-50409285D02*
X149762380Y-50409285D01*
X149762380Y-50028333D01*
X149810000Y-49933095D01*
X149857619Y-49885476D01*
X149952857Y-49837857D01*
X150095714Y-49837857D01*
X150190952Y-49885476D01*
X150238571Y-49933095D01*
X150286190Y-50028333D01*
X150286190Y-50409285D01*
X150762380Y-48885476D02*
X150762380Y-49456904D01*
X150762380Y-49171190D02*
X149762380Y-49171190D01*
X149905238Y-49266428D01*
X150000476Y-49361666D01*
X150048095Y-49456904D01*
X150190952Y-48314047D02*
X150143333Y-48409285D01*
X150095714Y-48456904D01*
X150000476Y-48504523D01*
X149952857Y-48504523D01*
X149857619Y-48456904D01*
X149810000Y-48409285D01*
X149762380Y-48314047D01*
X149762380Y-48123571D01*
X149810000Y-48028333D01*
X149857619Y-47980714D01*
X149952857Y-47933095D01*
X150000476Y-47933095D01*
X150095714Y-47980714D01*
X150143333Y-48028333D01*
X150190952Y-48123571D01*
X150190952Y-48314047D01*
X150238571Y-48409285D01*
X150286190Y-48456904D01*
X150381428Y-48504523D01*
X150571904Y-48504523D01*
X150667142Y-48456904D01*
X150714761Y-48409285D01*
X150762380Y-48314047D01*
X150762380Y-48123571D01*
X150714761Y-48028333D01*
X150667142Y-47980714D01*
X150571904Y-47933095D01*
X150381428Y-47933095D01*
X150286190Y-47980714D01*
X150238571Y-48028333D01*
X150190952Y-48123571D01*
G04 #@! TO.C,R17*
X153542380Y-49822857D02*
X153066190Y-50156190D01*
X153542380Y-50394285D02*
X152542380Y-50394285D01*
X152542380Y-50013333D01*
X152590000Y-49918095D01*
X152637619Y-49870476D01*
X152732857Y-49822857D01*
X152875714Y-49822857D01*
X152970952Y-49870476D01*
X153018571Y-49918095D01*
X153066190Y-50013333D01*
X153066190Y-50394285D01*
X153542380Y-48870476D02*
X153542380Y-49441904D01*
X153542380Y-49156190D02*
X152542380Y-49156190D01*
X152685238Y-49251428D01*
X152780476Y-49346666D01*
X152828095Y-49441904D01*
X152542380Y-48537142D02*
X152542380Y-47870476D01*
X153542380Y-48299047D01*
G04 #@! TO.C,R16*
X156222380Y-49812857D02*
X155746190Y-50146190D01*
X156222380Y-50384285D02*
X155222380Y-50384285D01*
X155222380Y-50003333D01*
X155270000Y-49908095D01*
X155317619Y-49860476D01*
X155412857Y-49812857D01*
X155555714Y-49812857D01*
X155650952Y-49860476D01*
X155698571Y-49908095D01*
X155746190Y-50003333D01*
X155746190Y-50384285D01*
X156222380Y-48860476D02*
X156222380Y-49431904D01*
X156222380Y-49146190D02*
X155222380Y-49146190D01*
X155365238Y-49241428D01*
X155460476Y-49336666D01*
X155508095Y-49431904D01*
X155222380Y-48003333D02*
X155222380Y-48193809D01*
X155270000Y-48289047D01*
X155317619Y-48336666D01*
X155460476Y-48431904D01*
X155650952Y-48479523D01*
X156031904Y-48479523D01*
X156127142Y-48431904D01*
X156174761Y-48384285D01*
X156222380Y-48289047D01*
X156222380Y-48098571D01*
X156174761Y-48003333D01*
X156127142Y-47955714D01*
X156031904Y-47908095D01*
X155793809Y-47908095D01*
X155698571Y-47955714D01*
X155650952Y-48003333D01*
X155603333Y-48098571D01*
X155603333Y-48289047D01*
X155650952Y-48384285D01*
X155698571Y-48431904D01*
X155793809Y-48479523D01*
G04 #@! TO.C,R15*
X159132380Y-47662857D02*
X158656190Y-47996190D01*
X159132380Y-48234285D02*
X158132380Y-48234285D01*
X158132380Y-47853333D01*
X158180000Y-47758095D01*
X158227619Y-47710476D01*
X158322857Y-47662857D01*
X158465714Y-47662857D01*
X158560952Y-47710476D01*
X158608571Y-47758095D01*
X158656190Y-47853333D01*
X158656190Y-48234285D01*
X159132380Y-46710476D02*
X159132380Y-47281904D01*
X159132380Y-46996190D02*
X158132380Y-46996190D01*
X158275238Y-47091428D01*
X158370476Y-47186666D01*
X158418095Y-47281904D01*
X158132380Y-45805714D02*
X158132380Y-46281904D01*
X158608571Y-46329523D01*
X158560952Y-46281904D01*
X158513333Y-46186666D01*
X158513333Y-45948571D01*
X158560952Y-45853333D01*
X158608571Y-45805714D01*
X158703809Y-45758095D01*
X158941904Y-45758095D01*
X159037142Y-45805714D01*
X159084761Y-45853333D01*
X159132380Y-45948571D01*
X159132380Y-46186666D01*
X159084761Y-46281904D01*
X159037142Y-46329523D01*
G04 #@! TO.C,R14*
X162002380Y-48762857D02*
X161526190Y-49096190D01*
X162002380Y-49334285D02*
X161002380Y-49334285D01*
X161002380Y-48953333D01*
X161050000Y-48858095D01*
X161097619Y-48810476D01*
X161192857Y-48762857D01*
X161335714Y-48762857D01*
X161430952Y-48810476D01*
X161478571Y-48858095D01*
X161526190Y-48953333D01*
X161526190Y-49334285D01*
X162002380Y-47810476D02*
X162002380Y-48381904D01*
X162002380Y-48096190D02*
X161002380Y-48096190D01*
X161145238Y-48191428D01*
X161240476Y-48286666D01*
X161288095Y-48381904D01*
X161335714Y-46953333D02*
X162002380Y-46953333D01*
X160954761Y-47191428D02*
X161669047Y-47429523D01*
X161669047Y-46810476D01*
G04 #@! TO.C,R13*
X131382380Y-42892857D02*
X130906190Y-43226190D01*
X131382380Y-43464285D02*
X130382380Y-43464285D01*
X130382380Y-43083333D01*
X130430000Y-42988095D01*
X130477619Y-42940476D01*
X130572857Y-42892857D01*
X130715714Y-42892857D01*
X130810952Y-42940476D01*
X130858571Y-42988095D01*
X130906190Y-43083333D01*
X130906190Y-43464285D01*
X131382380Y-41940476D02*
X131382380Y-42511904D01*
X131382380Y-42226190D02*
X130382380Y-42226190D01*
X130525238Y-42321428D01*
X130620476Y-42416666D01*
X130668095Y-42511904D01*
X130382380Y-41607142D02*
X130382380Y-40988095D01*
X130763333Y-41321428D01*
X130763333Y-41178571D01*
X130810952Y-41083333D01*
X130858571Y-41035714D01*
X130953809Y-40988095D01*
X131191904Y-40988095D01*
X131287142Y-41035714D01*
X131334761Y-41083333D01*
X131382380Y-41178571D01*
X131382380Y-41464285D01*
X131334761Y-41559523D01*
X131287142Y-41607142D01*
G04 #@! TO.C,R12*
X134112380Y-42872857D02*
X133636190Y-43206190D01*
X134112380Y-43444285D02*
X133112380Y-43444285D01*
X133112380Y-43063333D01*
X133160000Y-42968095D01*
X133207619Y-42920476D01*
X133302857Y-42872857D01*
X133445714Y-42872857D01*
X133540952Y-42920476D01*
X133588571Y-42968095D01*
X133636190Y-43063333D01*
X133636190Y-43444285D01*
X134112380Y-41920476D02*
X134112380Y-42491904D01*
X134112380Y-42206190D02*
X133112380Y-42206190D01*
X133255238Y-42301428D01*
X133350476Y-42396666D01*
X133398095Y-42491904D01*
X133207619Y-41539523D02*
X133160000Y-41491904D01*
X133112380Y-41396666D01*
X133112380Y-41158571D01*
X133160000Y-41063333D01*
X133207619Y-41015714D01*
X133302857Y-40968095D01*
X133398095Y-40968095D01*
X133540952Y-41015714D01*
X134112380Y-41587142D01*
X134112380Y-40968095D01*
G04 #@! TO.C,R11*
X136882380Y-42852857D02*
X136406190Y-43186190D01*
X136882380Y-43424285D02*
X135882380Y-43424285D01*
X135882380Y-43043333D01*
X135930000Y-42948095D01*
X135977619Y-42900476D01*
X136072857Y-42852857D01*
X136215714Y-42852857D01*
X136310952Y-42900476D01*
X136358571Y-42948095D01*
X136406190Y-43043333D01*
X136406190Y-43424285D01*
X136882380Y-41900476D02*
X136882380Y-42471904D01*
X136882380Y-42186190D02*
X135882380Y-42186190D01*
X136025238Y-42281428D01*
X136120476Y-42376666D01*
X136168095Y-42471904D01*
X136882380Y-40948095D02*
X136882380Y-41519523D01*
X136882380Y-41233809D02*
X135882380Y-41233809D01*
X136025238Y-41329047D01*
X136120476Y-41424285D01*
X136168095Y-41519523D01*
G04 #@! TO.C,R10*
X139672380Y-42832857D02*
X139196190Y-43166190D01*
X139672380Y-43404285D02*
X138672380Y-43404285D01*
X138672380Y-43023333D01*
X138720000Y-42928095D01*
X138767619Y-42880476D01*
X138862857Y-42832857D01*
X139005714Y-42832857D01*
X139100952Y-42880476D01*
X139148571Y-42928095D01*
X139196190Y-43023333D01*
X139196190Y-43404285D01*
X139672380Y-41880476D02*
X139672380Y-42451904D01*
X139672380Y-42166190D02*
X138672380Y-42166190D01*
X138815238Y-42261428D01*
X138910476Y-42356666D01*
X138958095Y-42451904D01*
X138672380Y-41261428D02*
X138672380Y-41166190D01*
X138720000Y-41070952D01*
X138767619Y-41023333D01*
X138862857Y-40975714D01*
X139053333Y-40928095D01*
X139291428Y-40928095D01*
X139481904Y-40975714D01*
X139577142Y-41023333D01*
X139624761Y-41070952D01*
X139672380Y-41166190D01*
X139672380Y-41261428D01*
X139624761Y-41356666D01*
X139577142Y-41404285D01*
X139481904Y-41451904D01*
X139291428Y-41499523D01*
X139053333Y-41499523D01*
X138862857Y-41451904D01*
X138767619Y-41404285D01*
X138720000Y-41356666D01*
X138672380Y-41261428D01*
G04 #@! TO.C,R9*
X142402380Y-42356666D02*
X141926190Y-42690000D01*
X142402380Y-42928095D02*
X141402380Y-42928095D01*
X141402380Y-42547142D01*
X141450000Y-42451904D01*
X141497619Y-42404285D01*
X141592857Y-42356666D01*
X141735714Y-42356666D01*
X141830952Y-42404285D01*
X141878571Y-42451904D01*
X141926190Y-42547142D01*
X141926190Y-42928095D01*
X142402380Y-41880476D02*
X142402380Y-41690000D01*
X142354761Y-41594761D01*
X142307142Y-41547142D01*
X142164285Y-41451904D01*
X141973809Y-41404285D01*
X141592857Y-41404285D01*
X141497619Y-41451904D01*
X141450000Y-41499523D01*
X141402380Y-41594761D01*
X141402380Y-41785238D01*
X141450000Y-41880476D01*
X141497619Y-41928095D01*
X141592857Y-41975714D01*
X141830952Y-41975714D01*
X141926190Y-41928095D01*
X141973809Y-41880476D01*
X142021428Y-41785238D01*
X142021428Y-41594761D01*
X141973809Y-41499523D01*
X141926190Y-41451904D01*
X141830952Y-41404285D01*
G04 #@! TO.C,R8*
X145132380Y-42326666D02*
X144656190Y-42660000D01*
X145132380Y-42898095D02*
X144132380Y-42898095D01*
X144132380Y-42517142D01*
X144180000Y-42421904D01*
X144227619Y-42374285D01*
X144322857Y-42326666D01*
X144465714Y-42326666D01*
X144560952Y-42374285D01*
X144608571Y-42421904D01*
X144656190Y-42517142D01*
X144656190Y-42898095D01*
X144560952Y-41755238D02*
X144513333Y-41850476D01*
X144465714Y-41898095D01*
X144370476Y-41945714D01*
X144322857Y-41945714D01*
X144227619Y-41898095D01*
X144180000Y-41850476D01*
X144132380Y-41755238D01*
X144132380Y-41564761D01*
X144180000Y-41469523D01*
X144227619Y-41421904D01*
X144322857Y-41374285D01*
X144370476Y-41374285D01*
X144465714Y-41421904D01*
X144513333Y-41469523D01*
X144560952Y-41564761D01*
X144560952Y-41755238D01*
X144608571Y-41850476D01*
X144656190Y-41898095D01*
X144751428Y-41945714D01*
X144941904Y-41945714D01*
X145037142Y-41898095D01*
X145084761Y-41850476D01*
X145132380Y-41755238D01*
X145132380Y-41564761D01*
X145084761Y-41469523D01*
X145037142Y-41421904D01*
X144941904Y-41374285D01*
X144751428Y-41374285D01*
X144656190Y-41421904D01*
X144608571Y-41469523D01*
X144560952Y-41564761D01*
G04 #@! TO.C,R7*
X148042380Y-42286666D02*
X147566190Y-42620000D01*
X148042380Y-42858095D02*
X147042380Y-42858095D01*
X147042380Y-42477142D01*
X147090000Y-42381904D01*
X147137619Y-42334285D01*
X147232857Y-42286666D01*
X147375714Y-42286666D01*
X147470952Y-42334285D01*
X147518571Y-42381904D01*
X147566190Y-42477142D01*
X147566190Y-42858095D01*
X147042380Y-41953333D02*
X147042380Y-41286666D01*
X148042380Y-41715238D01*
G04 #@! TO.C,R6*
X150912380Y-42366666D02*
X150436190Y-42700000D01*
X150912380Y-42938095D02*
X149912380Y-42938095D01*
X149912380Y-42557142D01*
X149960000Y-42461904D01*
X150007619Y-42414285D01*
X150102857Y-42366666D01*
X150245714Y-42366666D01*
X150340952Y-42414285D01*
X150388571Y-42461904D01*
X150436190Y-42557142D01*
X150436190Y-42938095D01*
X149912380Y-41509523D02*
X149912380Y-41700000D01*
X149960000Y-41795238D01*
X150007619Y-41842857D01*
X150150476Y-41938095D01*
X150340952Y-41985714D01*
X150721904Y-41985714D01*
X150817142Y-41938095D01*
X150864761Y-41890476D01*
X150912380Y-41795238D01*
X150912380Y-41604761D01*
X150864761Y-41509523D01*
X150817142Y-41461904D01*
X150721904Y-41414285D01*
X150483809Y-41414285D01*
X150388571Y-41461904D01*
X150340952Y-41509523D01*
X150293333Y-41604761D01*
X150293333Y-41795238D01*
X150340952Y-41890476D01*
X150388571Y-41938095D01*
X150483809Y-41985714D01*
G04 #@! TO.C,R5*
X153642380Y-42366666D02*
X153166190Y-42700000D01*
X153642380Y-42938095D02*
X152642380Y-42938095D01*
X152642380Y-42557142D01*
X152690000Y-42461904D01*
X152737619Y-42414285D01*
X152832857Y-42366666D01*
X152975714Y-42366666D01*
X153070952Y-42414285D01*
X153118571Y-42461904D01*
X153166190Y-42557142D01*
X153166190Y-42938095D01*
X152642380Y-41461904D02*
X152642380Y-41938095D01*
X153118571Y-41985714D01*
X153070952Y-41938095D01*
X153023333Y-41842857D01*
X153023333Y-41604761D01*
X153070952Y-41509523D01*
X153118571Y-41461904D01*
X153213809Y-41414285D01*
X153451904Y-41414285D01*
X153547142Y-41461904D01*
X153594761Y-41509523D01*
X153642380Y-41604761D01*
X153642380Y-41842857D01*
X153594761Y-41938095D01*
X153547142Y-41985714D01*
G04 #@! TO.C,R4*
X156282380Y-42396666D02*
X155806190Y-42730000D01*
X156282380Y-42968095D02*
X155282380Y-42968095D01*
X155282380Y-42587142D01*
X155330000Y-42491904D01*
X155377619Y-42444285D01*
X155472857Y-42396666D01*
X155615714Y-42396666D01*
X155710952Y-42444285D01*
X155758571Y-42491904D01*
X155806190Y-42587142D01*
X155806190Y-42968095D01*
X155615714Y-41539523D02*
X156282380Y-41539523D01*
X155234761Y-41777619D02*
X155949047Y-42015714D01*
X155949047Y-41396666D01*
G04 #@! TO.C,R3*
X159122380Y-42306666D02*
X158646190Y-42640000D01*
X159122380Y-42878095D02*
X158122380Y-42878095D01*
X158122380Y-42497142D01*
X158170000Y-42401904D01*
X158217619Y-42354285D01*
X158312857Y-42306666D01*
X158455714Y-42306666D01*
X158550952Y-42354285D01*
X158598571Y-42401904D01*
X158646190Y-42497142D01*
X158646190Y-42878095D01*
X158122380Y-41973333D02*
X158122380Y-41354285D01*
X158503333Y-41687619D01*
X158503333Y-41544761D01*
X158550952Y-41449523D01*
X158598571Y-41401904D01*
X158693809Y-41354285D01*
X158931904Y-41354285D01*
X159027142Y-41401904D01*
X159074761Y-41449523D01*
X159122380Y-41544761D01*
X159122380Y-41830476D01*
X159074761Y-41925714D01*
X159027142Y-41973333D01*
G04 #@! TO.C,R2*
X161912380Y-42356666D02*
X161436190Y-42690000D01*
X161912380Y-42928095D02*
X160912380Y-42928095D01*
X160912380Y-42547142D01*
X160960000Y-42451904D01*
X161007619Y-42404285D01*
X161102857Y-42356666D01*
X161245714Y-42356666D01*
X161340952Y-42404285D01*
X161388571Y-42451904D01*
X161436190Y-42547142D01*
X161436190Y-42928095D01*
X161007619Y-41975714D02*
X160960000Y-41928095D01*
X160912380Y-41832857D01*
X160912380Y-41594761D01*
X160960000Y-41499523D01*
X161007619Y-41451904D01*
X161102857Y-41404285D01*
X161198095Y-41404285D01*
X161340952Y-41451904D01*
X161912380Y-42023333D01*
X161912380Y-41404285D01*
G04 #@! TO.C,R1*
X127482380Y-47306666D02*
X127006190Y-47640000D01*
X127482380Y-47878095D02*
X126482380Y-47878095D01*
X126482380Y-47497142D01*
X126530000Y-47401904D01*
X126577619Y-47354285D01*
X126672857Y-47306666D01*
X126815714Y-47306666D01*
X126910952Y-47354285D01*
X126958571Y-47401904D01*
X127006190Y-47497142D01*
X127006190Y-47878095D01*
X127482380Y-46354285D02*
X127482380Y-46925714D01*
X127482380Y-46640000D02*
X126482380Y-46640000D01*
X126625238Y-46735238D01*
X126720476Y-46830476D01*
X126768095Y-46925714D01*
G04 #@! TO.C,J26-TP5*
X206174285Y-125162380D02*
X206174285Y-125876666D01*
X206126666Y-126019523D01*
X206031428Y-126114761D01*
X205888571Y-126162380D01*
X205793333Y-126162380D01*
X206602857Y-125257619D02*
X206650476Y-125210000D01*
X206745714Y-125162380D01*
X206983809Y-125162380D01*
X207079047Y-125210000D01*
X207126666Y-125257619D01*
X207174285Y-125352857D01*
X207174285Y-125448095D01*
X207126666Y-125590952D01*
X206555238Y-126162380D01*
X207174285Y-126162380D01*
X208031428Y-125162380D02*
X207840952Y-125162380D01*
X207745714Y-125210000D01*
X207698095Y-125257619D01*
X207602857Y-125400476D01*
X207555238Y-125590952D01*
X207555238Y-125971904D01*
X207602857Y-126067142D01*
X207650476Y-126114761D01*
X207745714Y-126162380D01*
X207936190Y-126162380D01*
X208031428Y-126114761D01*
X208079047Y-126067142D01*
X208126666Y-125971904D01*
X208126666Y-125733809D01*
X208079047Y-125638571D01*
X208031428Y-125590952D01*
X207936190Y-125543333D01*
X207745714Y-125543333D01*
X207650476Y-125590952D01*
X207602857Y-125638571D01*
X207555238Y-125733809D01*
X208555238Y-125781428D02*
X209317142Y-125781428D01*
X209650476Y-125162380D02*
X210221904Y-125162380D01*
X209936190Y-126162380D02*
X209936190Y-125162380D01*
X210555238Y-126162380D02*
X210555238Y-125162380D01*
X210936190Y-125162380D01*
X211031428Y-125210000D01*
X211079047Y-125257619D01*
X211126666Y-125352857D01*
X211126666Y-125495714D01*
X211079047Y-125590952D01*
X211031428Y-125638571D01*
X210936190Y-125686190D01*
X210555238Y-125686190D01*
X212031428Y-125162380D02*
X211555238Y-125162380D01*
X211507619Y-125638571D01*
X211555238Y-125590952D01*
X211650476Y-125543333D01*
X211888571Y-125543333D01*
X211983809Y-125590952D01*
X212031428Y-125638571D01*
X212079047Y-125733809D01*
X212079047Y-125971904D01*
X212031428Y-126067142D01*
X211983809Y-126114761D01*
X211888571Y-126162380D01*
X211650476Y-126162380D01*
X211555238Y-126114761D01*
X211507619Y-126067142D01*
G04 #@! TO.C,J5*
X174866666Y-13202380D02*
X174866666Y-13916666D01*
X174819047Y-14059523D01*
X174723809Y-14154761D01*
X174580952Y-14202380D01*
X174485714Y-14202380D01*
X175819047Y-13202380D02*
X175342857Y-13202380D01*
X175295238Y-13678571D01*
X175342857Y-13630952D01*
X175438095Y-13583333D01*
X175676190Y-13583333D01*
X175771428Y-13630952D01*
X175819047Y-13678571D01*
X175866666Y-13773809D01*
X175866666Y-14011904D01*
X175819047Y-14107142D01*
X175771428Y-14154761D01*
X175676190Y-14202380D01*
X175438095Y-14202380D01*
X175342857Y-14154761D01*
X175295238Y-14107142D01*
G04 #@! TO.C,C2*
X166283333Y-33427142D02*
X166235714Y-33474761D01*
X166092857Y-33522380D01*
X165997619Y-33522380D01*
X165854761Y-33474761D01*
X165759523Y-33379523D01*
X165711904Y-33284285D01*
X165664285Y-33093809D01*
X165664285Y-32950952D01*
X165711904Y-32760476D01*
X165759523Y-32665238D01*
X165854761Y-32570000D01*
X165997619Y-32522380D01*
X166092857Y-32522380D01*
X166235714Y-32570000D01*
X166283333Y-32617619D01*
X166664285Y-32617619D02*
X166711904Y-32570000D01*
X166807142Y-32522380D01*
X167045238Y-32522380D01*
X167140476Y-32570000D01*
X167188095Y-32617619D01*
X167235714Y-32712857D01*
X167235714Y-32808095D01*
X167188095Y-32950952D01*
X166616666Y-33522380D01*
X167235714Y-33522380D01*
G04 #@! TO.C,J9-TP19*
X155974285Y-115922380D02*
X155974285Y-116636666D01*
X155926666Y-116779523D01*
X155831428Y-116874761D01*
X155688571Y-116922380D01*
X155593333Y-116922380D01*
X156498095Y-116922380D02*
X156688571Y-116922380D01*
X156783809Y-116874761D01*
X156831428Y-116827142D01*
X156926666Y-116684285D01*
X156974285Y-116493809D01*
X156974285Y-116112857D01*
X156926666Y-116017619D01*
X156879047Y-115970000D01*
X156783809Y-115922380D01*
X156593333Y-115922380D01*
X156498095Y-115970000D01*
X156450476Y-116017619D01*
X156402857Y-116112857D01*
X156402857Y-116350952D01*
X156450476Y-116446190D01*
X156498095Y-116493809D01*
X156593333Y-116541428D01*
X156783809Y-116541428D01*
X156879047Y-116493809D01*
X156926666Y-116446190D01*
X156974285Y-116350952D01*
X157402857Y-116541428D02*
X158164761Y-116541428D01*
X158498095Y-115922380D02*
X159069523Y-115922380D01*
X158783809Y-116922380D02*
X158783809Y-115922380D01*
X159402857Y-116922380D02*
X159402857Y-115922380D01*
X159783809Y-115922380D01*
X159879047Y-115970000D01*
X159926666Y-116017619D01*
X159974285Y-116112857D01*
X159974285Y-116255714D01*
X159926666Y-116350952D01*
X159879047Y-116398571D01*
X159783809Y-116446190D01*
X159402857Y-116446190D01*
X160926666Y-116922380D02*
X160355238Y-116922380D01*
X160640952Y-116922380D02*
X160640952Y-115922380D01*
X160545714Y-116065238D01*
X160450476Y-116160476D01*
X160355238Y-116208095D01*
X161402857Y-116922380D02*
X161593333Y-116922380D01*
X161688571Y-116874761D01*
X161736190Y-116827142D01*
X161831428Y-116684285D01*
X161879047Y-116493809D01*
X161879047Y-116112857D01*
X161831428Y-116017619D01*
X161783809Y-115970000D01*
X161688571Y-115922380D01*
X161498095Y-115922380D01*
X161402857Y-115970000D01*
X161355238Y-116017619D01*
X161307619Y-116112857D01*
X161307619Y-116350952D01*
X161355238Y-116446190D01*
X161402857Y-116493809D01*
X161498095Y-116541428D01*
X161688571Y-116541428D01*
X161783809Y-116493809D01*
X161831428Y-116446190D01*
X161879047Y-116350952D01*
G04 #@! TO.C,J8-TP13*
X139544285Y-102352380D02*
X139544285Y-103066666D01*
X139496666Y-103209523D01*
X139401428Y-103304761D01*
X139258571Y-103352380D01*
X139163333Y-103352380D01*
X140163333Y-102780952D02*
X140068095Y-102733333D01*
X140020476Y-102685714D01*
X139972857Y-102590476D01*
X139972857Y-102542857D01*
X140020476Y-102447619D01*
X140068095Y-102400000D01*
X140163333Y-102352380D01*
X140353809Y-102352380D01*
X140449047Y-102400000D01*
X140496666Y-102447619D01*
X140544285Y-102542857D01*
X140544285Y-102590476D01*
X140496666Y-102685714D01*
X140449047Y-102733333D01*
X140353809Y-102780952D01*
X140163333Y-102780952D01*
X140068095Y-102828571D01*
X140020476Y-102876190D01*
X139972857Y-102971428D01*
X139972857Y-103161904D01*
X140020476Y-103257142D01*
X140068095Y-103304761D01*
X140163333Y-103352380D01*
X140353809Y-103352380D01*
X140449047Y-103304761D01*
X140496666Y-103257142D01*
X140544285Y-103161904D01*
X140544285Y-102971428D01*
X140496666Y-102876190D01*
X140449047Y-102828571D01*
X140353809Y-102780952D01*
X140972857Y-102971428D02*
X141734761Y-102971428D01*
X142068095Y-102352380D02*
X142639523Y-102352380D01*
X142353809Y-103352380D02*
X142353809Y-102352380D01*
X142972857Y-103352380D02*
X142972857Y-102352380D01*
X143353809Y-102352380D01*
X143449047Y-102400000D01*
X143496666Y-102447619D01*
X143544285Y-102542857D01*
X143544285Y-102685714D01*
X143496666Y-102780952D01*
X143449047Y-102828571D01*
X143353809Y-102876190D01*
X142972857Y-102876190D01*
X144496666Y-103352380D02*
X143925238Y-103352380D01*
X144210952Y-103352380D02*
X144210952Y-102352380D01*
X144115714Y-102495238D01*
X144020476Y-102590476D01*
X143925238Y-102638095D01*
X144830000Y-102352380D02*
X145449047Y-102352380D01*
X145115714Y-102733333D01*
X145258571Y-102733333D01*
X145353809Y-102780952D01*
X145401428Y-102828571D01*
X145449047Y-102923809D01*
X145449047Y-103161904D01*
X145401428Y-103257142D01*
X145353809Y-103304761D01*
X145258571Y-103352380D01*
X144972857Y-103352380D01*
X144877619Y-103304761D01*
X144830000Y-103257142D01*
G04 #@! TO.C,J7-TP27*
X178534285Y-146942380D02*
X178534285Y-147656666D01*
X178486666Y-147799523D01*
X178391428Y-147894761D01*
X178248571Y-147942380D01*
X178153333Y-147942380D01*
X178915238Y-146942380D02*
X179581904Y-146942380D01*
X179153333Y-147942380D01*
X179962857Y-147561428D02*
X180724761Y-147561428D01*
X181058095Y-146942380D02*
X181629523Y-146942380D01*
X181343809Y-147942380D02*
X181343809Y-146942380D01*
X181962857Y-147942380D02*
X181962857Y-146942380D01*
X182343809Y-146942380D01*
X182439047Y-146990000D01*
X182486666Y-147037619D01*
X182534285Y-147132857D01*
X182534285Y-147275714D01*
X182486666Y-147370952D01*
X182439047Y-147418571D01*
X182343809Y-147466190D01*
X181962857Y-147466190D01*
X182915238Y-147037619D02*
X182962857Y-146990000D01*
X183058095Y-146942380D01*
X183296190Y-146942380D01*
X183391428Y-146990000D01*
X183439047Y-147037619D01*
X183486666Y-147132857D01*
X183486666Y-147228095D01*
X183439047Y-147370952D01*
X182867619Y-147942380D01*
X183486666Y-147942380D01*
X183820000Y-146942380D02*
X184486666Y-146942380D01*
X184058095Y-147942380D01*
G04 #@! TO.C,J6-TP21*
X191964285Y-116712380D02*
X191964285Y-117426666D01*
X191916666Y-117569523D01*
X191821428Y-117664761D01*
X191678571Y-117712380D01*
X191583333Y-117712380D01*
X192869047Y-116712380D02*
X192678571Y-116712380D01*
X192583333Y-116760000D01*
X192535714Y-116807619D01*
X192440476Y-116950476D01*
X192392857Y-117140952D01*
X192392857Y-117521904D01*
X192440476Y-117617142D01*
X192488095Y-117664761D01*
X192583333Y-117712380D01*
X192773809Y-117712380D01*
X192869047Y-117664761D01*
X192916666Y-117617142D01*
X192964285Y-117521904D01*
X192964285Y-117283809D01*
X192916666Y-117188571D01*
X192869047Y-117140952D01*
X192773809Y-117093333D01*
X192583333Y-117093333D01*
X192488095Y-117140952D01*
X192440476Y-117188571D01*
X192392857Y-117283809D01*
X193392857Y-117331428D02*
X194154761Y-117331428D01*
X194488095Y-116712380D02*
X195059523Y-116712380D01*
X194773809Y-117712380D02*
X194773809Y-116712380D01*
X195392857Y-117712380D02*
X195392857Y-116712380D01*
X195773809Y-116712380D01*
X195869047Y-116760000D01*
X195916666Y-116807619D01*
X195964285Y-116902857D01*
X195964285Y-117045714D01*
X195916666Y-117140952D01*
X195869047Y-117188571D01*
X195773809Y-117236190D01*
X195392857Y-117236190D01*
X196345238Y-116807619D02*
X196392857Y-116760000D01*
X196488095Y-116712380D01*
X196726190Y-116712380D01*
X196821428Y-116760000D01*
X196869047Y-116807619D01*
X196916666Y-116902857D01*
X196916666Y-116998095D01*
X196869047Y-117140952D01*
X196297619Y-117712380D01*
X196916666Y-117712380D01*
X197869047Y-117712380D02*
X197297619Y-117712380D01*
X197583333Y-117712380D02*
X197583333Y-116712380D01*
X197488095Y-116855238D01*
X197392857Y-116950476D01*
X197297619Y-116998095D01*
G04 #@! TO.C,J5-~E1*
X128729047Y-20482380D02*
X128729047Y-21196666D01*
X128681428Y-21339523D01*
X128586190Y-21434761D01*
X128443333Y-21482380D01*
X128348095Y-21482380D01*
X129681428Y-20482380D02*
X129205238Y-20482380D01*
X129157619Y-20958571D01*
X129205238Y-20910952D01*
X129300476Y-20863333D01*
X129538571Y-20863333D01*
X129633809Y-20910952D01*
X129681428Y-20958571D01*
X129729047Y-21053809D01*
X129729047Y-21291904D01*
X129681428Y-21387142D01*
X129633809Y-21434761D01*
X129538571Y-21482380D01*
X129300476Y-21482380D01*
X129205238Y-21434761D01*
X129157619Y-21387142D01*
X130157619Y-21101428D02*
X130919523Y-21101428D01*
X131157619Y-20115000D02*
X132062380Y-20115000D01*
X131395714Y-20958571D02*
X131729047Y-20958571D01*
X131871904Y-21482380D02*
X131395714Y-21482380D01*
X131395714Y-20482380D01*
X131871904Y-20482380D01*
X132062380Y-20115000D02*
X133014761Y-20115000D01*
X132824285Y-21482380D02*
X132252857Y-21482380D01*
X132538571Y-21482380D02*
X132538571Y-20482380D01*
X132443333Y-20625238D01*
X132348095Y-20720476D01*
X132252857Y-20768095D01*
G04 #@! TO.C,J5-TP8*
X129010476Y-117282380D02*
X129010476Y-117996666D01*
X128962857Y-118139523D01*
X128867619Y-118234761D01*
X128724761Y-118282380D01*
X128629523Y-118282380D01*
X129962857Y-117282380D02*
X129486666Y-117282380D01*
X129439047Y-117758571D01*
X129486666Y-117710952D01*
X129581904Y-117663333D01*
X129820000Y-117663333D01*
X129915238Y-117710952D01*
X129962857Y-117758571D01*
X130010476Y-117853809D01*
X130010476Y-118091904D01*
X129962857Y-118187142D01*
X129915238Y-118234761D01*
X129820000Y-118282380D01*
X129581904Y-118282380D01*
X129486666Y-118234761D01*
X129439047Y-118187142D01*
X130439047Y-117901428D02*
X131200952Y-117901428D01*
X131534285Y-117282380D02*
X132105714Y-117282380D01*
X131820000Y-118282380D02*
X131820000Y-117282380D01*
X132439047Y-118282380D02*
X132439047Y-117282380D01*
X132820000Y-117282380D01*
X132915238Y-117330000D01*
X132962857Y-117377619D01*
X133010476Y-117472857D01*
X133010476Y-117615714D01*
X132962857Y-117710952D01*
X132915238Y-117758571D01*
X132820000Y-117806190D01*
X132439047Y-117806190D01*
X133581904Y-117710952D02*
X133486666Y-117663333D01*
X133439047Y-117615714D01*
X133391428Y-117520476D01*
X133391428Y-117472857D01*
X133439047Y-117377619D01*
X133486666Y-117330000D01*
X133581904Y-117282380D01*
X133772380Y-117282380D01*
X133867619Y-117330000D01*
X133915238Y-117377619D01*
X133962857Y-117472857D01*
X133962857Y-117520476D01*
X133915238Y-117615714D01*
X133867619Y-117663333D01*
X133772380Y-117710952D01*
X133581904Y-117710952D01*
X133486666Y-117758571D01*
X133439047Y-117806190D01*
X133391428Y-117901428D01*
X133391428Y-118091904D01*
X133439047Y-118187142D01*
X133486666Y-118234761D01*
X133581904Y-118282380D01*
X133772380Y-118282380D01*
X133867619Y-118234761D01*
X133915238Y-118187142D01*
X133962857Y-118091904D01*
X133962857Y-117901428D01*
X133915238Y-117806190D01*
X133867619Y-117758571D01*
X133772380Y-117710952D01*
G04 #@! TO.C,J4-TP16*
X137254285Y-76512380D02*
X137254285Y-77226666D01*
X137206666Y-77369523D01*
X137111428Y-77464761D01*
X136968571Y-77512380D01*
X136873333Y-77512380D01*
X138159047Y-76845714D02*
X138159047Y-77512380D01*
X137920952Y-76464761D02*
X137682857Y-77179047D01*
X138301904Y-77179047D01*
X138682857Y-77131428D02*
X139444761Y-77131428D01*
X139778095Y-76512380D02*
X140349523Y-76512380D01*
X140063809Y-77512380D02*
X140063809Y-76512380D01*
X140682857Y-77512380D02*
X140682857Y-76512380D01*
X141063809Y-76512380D01*
X141159047Y-76560000D01*
X141206666Y-76607619D01*
X141254285Y-76702857D01*
X141254285Y-76845714D01*
X141206666Y-76940952D01*
X141159047Y-76988571D01*
X141063809Y-77036190D01*
X140682857Y-77036190D01*
X142206666Y-77512380D02*
X141635238Y-77512380D01*
X141920952Y-77512380D02*
X141920952Y-76512380D01*
X141825714Y-76655238D01*
X141730476Y-76750476D01*
X141635238Y-76798095D01*
X143063809Y-76512380D02*
X142873333Y-76512380D01*
X142778095Y-76560000D01*
X142730476Y-76607619D01*
X142635238Y-76750476D01*
X142587619Y-76940952D01*
X142587619Y-77321904D01*
X142635238Y-77417142D01*
X142682857Y-77464761D01*
X142778095Y-77512380D01*
X142968571Y-77512380D01*
X143063809Y-77464761D01*
X143111428Y-77417142D01*
X143159047Y-77321904D01*
X143159047Y-77083809D01*
X143111428Y-76988571D01*
X143063809Y-76940952D01*
X142968571Y-76893333D01*
X142778095Y-76893333D01*
X142682857Y-76940952D01*
X142635238Y-76988571D01*
X142587619Y-77083809D01*
G04 #@! TO.C,J27-TP26*
X204118095Y-99372380D02*
X204118095Y-100086666D01*
X204070476Y-100229523D01*
X203975238Y-100324761D01*
X203832380Y-100372380D01*
X203737142Y-100372380D01*
X204546666Y-99467619D02*
X204594285Y-99420000D01*
X204689523Y-99372380D01*
X204927619Y-99372380D01*
X205022857Y-99420000D01*
X205070476Y-99467619D01*
X205118095Y-99562857D01*
X205118095Y-99658095D01*
X205070476Y-99800952D01*
X204499047Y-100372380D01*
X205118095Y-100372380D01*
X205451428Y-99372380D02*
X206118095Y-99372380D01*
X205689523Y-100372380D01*
X206499047Y-99991428D02*
X207260952Y-99991428D01*
X207594285Y-99372380D02*
X208165714Y-99372380D01*
X207880000Y-100372380D02*
X207880000Y-99372380D01*
X208499047Y-100372380D02*
X208499047Y-99372380D01*
X208880000Y-99372380D01*
X208975238Y-99420000D01*
X209022857Y-99467619D01*
X209070476Y-99562857D01*
X209070476Y-99705714D01*
X209022857Y-99800952D01*
X208975238Y-99848571D01*
X208880000Y-99896190D01*
X208499047Y-99896190D01*
X209451428Y-99467619D02*
X209499047Y-99420000D01*
X209594285Y-99372380D01*
X209832380Y-99372380D01*
X209927619Y-99420000D01*
X209975238Y-99467619D01*
X210022857Y-99562857D01*
X210022857Y-99658095D01*
X209975238Y-99800952D01*
X209403809Y-100372380D01*
X210022857Y-100372380D01*
X210880000Y-99372380D02*
X210689523Y-99372380D01*
X210594285Y-99420000D01*
X210546666Y-99467619D01*
X210451428Y-99610476D01*
X210403809Y-99800952D01*
X210403809Y-100181904D01*
X210451428Y-100277142D01*
X210499047Y-100324761D01*
X210594285Y-100372380D01*
X210784761Y-100372380D01*
X210880000Y-100324761D01*
X210927619Y-100277142D01*
X210975238Y-100181904D01*
X210975238Y-99943809D01*
X210927619Y-99848571D01*
X210880000Y-99800952D01*
X210784761Y-99753333D01*
X210594285Y-99753333D01*
X210499047Y-99800952D01*
X210451428Y-99848571D01*
X210403809Y-99943809D01*
G04 #@! TO.C,J25-TP18*
X183568095Y-106562380D02*
X183568095Y-107276666D01*
X183520476Y-107419523D01*
X183425238Y-107514761D01*
X183282380Y-107562380D01*
X183187142Y-107562380D01*
X183996666Y-106657619D02*
X184044285Y-106610000D01*
X184139523Y-106562380D01*
X184377619Y-106562380D01*
X184472857Y-106610000D01*
X184520476Y-106657619D01*
X184568095Y-106752857D01*
X184568095Y-106848095D01*
X184520476Y-106990952D01*
X183949047Y-107562380D01*
X184568095Y-107562380D01*
X185472857Y-106562380D02*
X184996666Y-106562380D01*
X184949047Y-107038571D01*
X184996666Y-106990952D01*
X185091904Y-106943333D01*
X185330000Y-106943333D01*
X185425238Y-106990952D01*
X185472857Y-107038571D01*
X185520476Y-107133809D01*
X185520476Y-107371904D01*
X185472857Y-107467142D01*
X185425238Y-107514761D01*
X185330000Y-107562380D01*
X185091904Y-107562380D01*
X184996666Y-107514761D01*
X184949047Y-107467142D01*
X185949047Y-107181428D02*
X186710952Y-107181428D01*
X187044285Y-106562380D02*
X187615714Y-106562380D01*
X187330000Y-107562380D02*
X187330000Y-106562380D01*
X187949047Y-107562380D02*
X187949047Y-106562380D01*
X188330000Y-106562380D01*
X188425238Y-106610000D01*
X188472857Y-106657619D01*
X188520476Y-106752857D01*
X188520476Y-106895714D01*
X188472857Y-106990952D01*
X188425238Y-107038571D01*
X188330000Y-107086190D01*
X187949047Y-107086190D01*
X189472857Y-107562380D02*
X188901428Y-107562380D01*
X189187142Y-107562380D02*
X189187142Y-106562380D01*
X189091904Y-106705238D01*
X188996666Y-106800476D01*
X188901428Y-106848095D01*
X190044285Y-106990952D02*
X189949047Y-106943333D01*
X189901428Y-106895714D01*
X189853809Y-106800476D01*
X189853809Y-106752857D01*
X189901428Y-106657619D01*
X189949047Y-106610000D01*
X190044285Y-106562380D01*
X190234761Y-106562380D01*
X190330000Y-106610000D01*
X190377619Y-106657619D01*
X190425238Y-106752857D01*
X190425238Y-106800476D01*
X190377619Y-106895714D01*
X190330000Y-106943333D01*
X190234761Y-106990952D01*
X190044285Y-106990952D01*
X189949047Y-107038571D01*
X189901428Y-107086190D01*
X189853809Y-107181428D01*
X189853809Y-107371904D01*
X189901428Y-107467142D01*
X189949047Y-107514761D01*
X190044285Y-107562380D01*
X190234761Y-107562380D01*
X190330000Y-107514761D01*
X190377619Y-107467142D01*
X190425238Y-107371904D01*
X190425238Y-107181428D01*
X190377619Y-107086190D01*
X190330000Y-107038571D01*
X190234761Y-106990952D01*
G04 #@! TO.C,J24-TP15*
X139198095Y-91522380D02*
X139198095Y-92236666D01*
X139150476Y-92379523D01*
X139055238Y-92474761D01*
X138912380Y-92522380D01*
X138817142Y-92522380D01*
X139626666Y-91617619D02*
X139674285Y-91570000D01*
X139769523Y-91522380D01*
X140007619Y-91522380D01*
X140102857Y-91570000D01*
X140150476Y-91617619D01*
X140198095Y-91712857D01*
X140198095Y-91808095D01*
X140150476Y-91950952D01*
X139579047Y-92522380D01*
X140198095Y-92522380D01*
X141055238Y-91855714D02*
X141055238Y-92522380D01*
X140817142Y-91474761D02*
X140579047Y-92189047D01*
X141198095Y-92189047D01*
X141579047Y-92141428D02*
X142340952Y-92141428D01*
X142674285Y-91522380D02*
X143245714Y-91522380D01*
X142960000Y-92522380D02*
X142960000Y-91522380D01*
X143579047Y-92522380D02*
X143579047Y-91522380D01*
X143960000Y-91522380D01*
X144055238Y-91570000D01*
X144102857Y-91617619D01*
X144150476Y-91712857D01*
X144150476Y-91855714D01*
X144102857Y-91950952D01*
X144055238Y-91998571D01*
X143960000Y-92046190D01*
X143579047Y-92046190D01*
X145102857Y-92522380D02*
X144531428Y-92522380D01*
X144817142Y-92522380D02*
X144817142Y-91522380D01*
X144721904Y-91665238D01*
X144626666Y-91760476D01*
X144531428Y-91808095D01*
X146007619Y-91522380D02*
X145531428Y-91522380D01*
X145483809Y-91998571D01*
X145531428Y-91950952D01*
X145626666Y-91903333D01*
X145864761Y-91903333D01*
X145960000Y-91950952D01*
X146007619Y-91998571D01*
X146055238Y-92093809D01*
X146055238Y-92331904D01*
X146007619Y-92427142D01*
X145960000Y-92474761D01*
X145864761Y-92522380D01*
X145626666Y-92522380D01*
X145531428Y-92474761D01*
X145483809Y-92427142D01*
G04 #@! TO.C,J23-TP12*
X172228095Y-97762380D02*
X172228095Y-98476666D01*
X172180476Y-98619523D01*
X172085238Y-98714761D01*
X171942380Y-98762380D01*
X171847142Y-98762380D01*
X172656666Y-97857619D02*
X172704285Y-97810000D01*
X172799523Y-97762380D01*
X173037619Y-97762380D01*
X173132857Y-97810000D01*
X173180476Y-97857619D01*
X173228095Y-97952857D01*
X173228095Y-98048095D01*
X173180476Y-98190952D01*
X172609047Y-98762380D01*
X173228095Y-98762380D01*
X173561428Y-97762380D02*
X174180476Y-97762380D01*
X173847142Y-98143333D01*
X173990000Y-98143333D01*
X174085238Y-98190952D01*
X174132857Y-98238571D01*
X174180476Y-98333809D01*
X174180476Y-98571904D01*
X174132857Y-98667142D01*
X174085238Y-98714761D01*
X173990000Y-98762380D01*
X173704285Y-98762380D01*
X173609047Y-98714761D01*
X173561428Y-98667142D01*
X174609047Y-98381428D02*
X175370952Y-98381428D01*
X175704285Y-97762380D02*
X176275714Y-97762380D01*
X175990000Y-98762380D02*
X175990000Y-97762380D01*
X176609047Y-98762380D02*
X176609047Y-97762380D01*
X176990000Y-97762380D01*
X177085238Y-97810000D01*
X177132857Y-97857619D01*
X177180476Y-97952857D01*
X177180476Y-98095714D01*
X177132857Y-98190952D01*
X177085238Y-98238571D01*
X176990000Y-98286190D01*
X176609047Y-98286190D01*
X178132857Y-98762380D02*
X177561428Y-98762380D01*
X177847142Y-98762380D02*
X177847142Y-97762380D01*
X177751904Y-97905238D01*
X177656666Y-98000476D01*
X177561428Y-98048095D01*
X178513809Y-97857619D02*
X178561428Y-97810000D01*
X178656666Y-97762380D01*
X178894761Y-97762380D01*
X178990000Y-97810000D01*
X179037619Y-97857619D01*
X179085238Y-97952857D01*
X179085238Y-98048095D01*
X179037619Y-98190952D01*
X178466190Y-98762380D01*
X179085238Y-98762380D01*
G04 #@! TO.C,J22-TP11*
X179998095Y-69402380D02*
X179998095Y-70116666D01*
X179950476Y-70259523D01*
X179855238Y-70354761D01*
X179712380Y-70402380D01*
X179617142Y-70402380D01*
X180426666Y-69497619D02*
X180474285Y-69450000D01*
X180569523Y-69402380D01*
X180807619Y-69402380D01*
X180902857Y-69450000D01*
X180950476Y-69497619D01*
X180998095Y-69592857D01*
X180998095Y-69688095D01*
X180950476Y-69830952D01*
X180379047Y-70402380D01*
X180998095Y-70402380D01*
X181379047Y-69497619D02*
X181426666Y-69450000D01*
X181521904Y-69402380D01*
X181760000Y-69402380D01*
X181855238Y-69450000D01*
X181902857Y-69497619D01*
X181950476Y-69592857D01*
X181950476Y-69688095D01*
X181902857Y-69830952D01*
X181331428Y-70402380D01*
X181950476Y-70402380D01*
X182379047Y-70021428D02*
X183140952Y-70021428D01*
X183474285Y-69402380D02*
X184045714Y-69402380D01*
X183760000Y-70402380D02*
X183760000Y-69402380D01*
X184379047Y-70402380D02*
X184379047Y-69402380D01*
X184760000Y-69402380D01*
X184855238Y-69450000D01*
X184902857Y-69497619D01*
X184950476Y-69592857D01*
X184950476Y-69735714D01*
X184902857Y-69830952D01*
X184855238Y-69878571D01*
X184760000Y-69926190D01*
X184379047Y-69926190D01*
X185902857Y-70402380D02*
X185331428Y-70402380D01*
X185617142Y-70402380D02*
X185617142Y-69402380D01*
X185521904Y-69545238D01*
X185426666Y-69640476D01*
X185331428Y-69688095D01*
X186855238Y-70402380D02*
X186283809Y-70402380D01*
X186569523Y-70402380D02*
X186569523Y-69402380D01*
X186474285Y-69545238D01*
X186379047Y-69640476D01*
X186283809Y-69688095D01*
G04 #@! TO.C,J21-TP10*
X194458095Y-103122380D02*
X194458095Y-103836666D01*
X194410476Y-103979523D01*
X194315238Y-104074761D01*
X194172380Y-104122380D01*
X194077142Y-104122380D01*
X194886666Y-103217619D02*
X194934285Y-103170000D01*
X195029523Y-103122380D01*
X195267619Y-103122380D01*
X195362857Y-103170000D01*
X195410476Y-103217619D01*
X195458095Y-103312857D01*
X195458095Y-103408095D01*
X195410476Y-103550952D01*
X194839047Y-104122380D01*
X195458095Y-104122380D01*
X196410476Y-104122380D02*
X195839047Y-104122380D01*
X196124761Y-104122380D02*
X196124761Y-103122380D01*
X196029523Y-103265238D01*
X195934285Y-103360476D01*
X195839047Y-103408095D01*
X196839047Y-103741428D02*
X197600952Y-103741428D01*
X197934285Y-103122380D02*
X198505714Y-103122380D01*
X198220000Y-104122380D02*
X198220000Y-103122380D01*
X198839047Y-104122380D02*
X198839047Y-103122380D01*
X199220000Y-103122380D01*
X199315238Y-103170000D01*
X199362857Y-103217619D01*
X199410476Y-103312857D01*
X199410476Y-103455714D01*
X199362857Y-103550952D01*
X199315238Y-103598571D01*
X199220000Y-103646190D01*
X198839047Y-103646190D01*
X200362857Y-104122380D02*
X199791428Y-104122380D01*
X200077142Y-104122380D02*
X200077142Y-103122380D01*
X199981904Y-103265238D01*
X199886666Y-103360476D01*
X199791428Y-103408095D01*
X200981904Y-103122380D02*
X201077142Y-103122380D01*
X201172380Y-103170000D01*
X201220000Y-103217619D01*
X201267619Y-103312857D01*
X201315238Y-103503333D01*
X201315238Y-103741428D01*
X201267619Y-103931904D01*
X201220000Y-104027142D01*
X201172380Y-104074761D01*
X201077142Y-104122380D01*
X200981904Y-104122380D01*
X200886666Y-104074761D01*
X200839047Y-104027142D01*
X200791428Y-103931904D01*
X200743809Y-103741428D01*
X200743809Y-103503333D01*
X200791428Y-103312857D01*
X200839047Y-103217619D01*
X200886666Y-103170000D01*
X200981904Y-103122380D01*
G04 #@! TO.C,J20-TP9*
X170354285Y-103932380D02*
X170354285Y-104646666D01*
X170306666Y-104789523D01*
X170211428Y-104884761D01*
X170068571Y-104932380D01*
X169973333Y-104932380D01*
X170782857Y-104027619D02*
X170830476Y-103980000D01*
X170925714Y-103932380D01*
X171163809Y-103932380D01*
X171259047Y-103980000D01*
X171306666Y-104027619D01*
X171354285Y-104122857D01*
X171354285Y-104218095D01*
X171306666Y-104360952D01*
X170735238Y-104932380D01*
X171354285Y-104932380D01*
X171973333Y-103932380D02*
X172068571Y-103932380D01*
X172163809Y-103980000D01*
X172211428Y-104027619D01*
X172259047Y-104122857D01*
X172306666Y-104313333D01*
X172306666Y-104551428D01*
X172259047Y-104741904D01*
X172211428Y-104837142D01*
X172163809Y-104884761D01*
X172068571Y-104932380D01*
X171973333Y-104932380D01*
X171878095Y-104884761D01*
X171830476Y-104837142D01*
X171782857Y-104741904D01*
X171735238Y-104551428D01*
X171735238Y-104313333D01*
X171782857Y-104122857D01*
X171830476Y-104027619D01*
X171878095Y-103980000D01*
X171973333Y-103932380D01*
X172735238Y-104551428D02*
X173497142Y-104551428D01*
X173830476Y-103932380D02*
X174401904Y-103932380D01*
X174116190Y-104932380D02*
X174116190Y-103932380D01*
X174735238Y-104932380D02*
X174735238Y-103932380D01*
X175116190Y-103932380D01*
X175211428Y-103980000D01*
X175259047Y-104027619D01*
X175306666Y-104122857D01*
X175306666Y-104265714D01*
X175259047Y-104360952D01*
X175211428Y-104408571D01*
X175116190Y-104456190D01*
X174735238Y-104456190D01*
X175782857Y-104932380D02*
X175973333Y-104932380D01*
X176068571Y-104884761D01*
X176116190Y-104837142D01*
X176211428Y-104694285D01*
X176259047Y-104503809D01*
X176259047Y-104122857D01*
X176211428Y-104027619D01*
X176163809Y-103980000D01*
X176068571Y-103932380D01*
X175878095Y-103932380D01*
X175782857Y-103980000D01*
X175735238Y-104027619D01*
X175687619Y-104122857D01*
X175687619Y-104360952D01*
X175735238Y-104456190D01*
X175782857Y-104503809D01*
X175878095Y-104551428D01*
X176068571Y-104551428D01*
X176163809Y-104503809D01*
X176211428Y-104456190D01*
X176259047Y-104360952D01*
G04 #@! TO.C,J19-TP6*
X123074285Y-114462380D02*
X123074285Y-115176666D01*
X123026666Y-115319523D01*
X122931428Y-115414761D01*
X122788571Y-115462380D01*
X122693333Y-115462380D01*
X124074285Y-115462380D02*
X123502857Y-115462380D01*
X123788571Y-115462380D02*
X123788571Y-114462380D01*
X123693333Y-114605238D01*
X123598095Y-114700476D01*
X123502857Y-114748095D01*
X124550476Y-115462380D02*
X124740952Y-115462380D01*
X124836190Y-115414761D01*
X124883809Y-115367142D01*
X124979047Y-115224285D01*
X125026666Y-115033809D01*
X125026666Y-114652857D01*
X124979047Y-114557619D01*
X124931428Y-114510000D01*
X124836190Y-114462380D01*
X124645714Y-114462380D01*
X124550476Y-114510000D01*
X124502857Y-114557619D01*
X124455238Y-114652857D01*
X124455238Y-114890952D01*
X124502857Y-114986190D01*
X124550476Y-115033809D01*
X124645714Y-115081428D01*
X124836190Y-115081428D01*
X124931428Y-115033809D01*
X124979047Y-114986190D01*
X125026666Y-114890952D01*
X125455238Y-115081428D02*
X126217142Y-115081428D01*
X126550476Y-114462380D02*
X127121904Y-114462380D01*
X126836190Y-115462380D02*
X126836190Y-114462380D01*
X127455238Y-115462380D02*
X127455238Y-114462380D01*
X127836190Y-114462380D01*
X127931428Y-114510000D01*
X127979047Y-114557619D01*
X128026666Y-114652857D01*
X128026666Y-114795714D01*
X127979047Y-114890952D01*
X127931428Y-114938571D01*
X127836190Y-114986190D01*
X127455238Y-114986190D01*
X128883809Y-114462380D02*
X128693333Y-114462380D01*
X128598095Y-114510000D01*
X128550476Y-114557619D01*
X128455238Y-114700476D01*
X128407619Y-114890952D01*
X128407619Y-115271904D01*
X128455238Y-115367142D01*
X128502857Y-115414761D01*
X128598095Y-115462380D01*
X128788571Y-115462380D01*
X128883809Y-115414761D01*
X128931428Y-115367142D01*
X128979047Y-115271904D01*
X128979047Y-115033809D01*
X128931428Y-114938571D01*
X128883809Y-114890952D01*
X128788571Y-114843333D01*
X128598095Y-114843333D01*
X128502857Y-114890952D01*
X128455238Y-114938571D01*
X128407619Y-115033809D01*
G04 #@! TO.C,J18-TP4*
X196924285Y-113882380D02*
X196924285Y-114596666D01*
X196876666Y-114739523D01*
X196781428Y-114834761D01*
X196638571Y-114882380D01*
X196543333Y-114882380D01*
X197924285Y-114882380D02*
X197352857Y-114882380D01*
X197638571Y-114882380D02*
X197638571Y-113882380D01*
X197543333Y-114025238D01*
X197448095Y-114120476D01*
X197352857Y-114168095D01*
X198495714Y-114310952D02*
X198400476Y-114263333D01*
X198352857Y-114215714D01*
X198305238Y-114120476D01*
X198305238Y-114072857D01*
X198352857Y-113977619D01*
X198400476Y-113930000D01*
X198495714Y-113882380D01*
X198686190Y-113882380D01*
X198781428Y-113930000D01*
X198829047Y-113977619D01*
X198876666Y-114072857D01*
X198876666Y-114120476D01*
X198829047Y-114215714D01*
X198781428Y-114263333D01*
X198686190Y-114310952D01*
X198495714Y-114310952D01*
X198400476Y-114358571D01*
X198352857Y-114406190D01*
X198305238Y-114501428D01*
X198305238Y-114691904D01*
X198352857Y-114787142D01*
X198400476Y-114834761D01*
X198495714Y-114882380D01*
X198686190Y-114882380D01*
X198781428Y-114834761D01*
X198829047Y-114787142D01*
X198876666Y-114691904D01*
X198876666Y-114501428D01*
X198829047Y-114406190D01*
X198781428Y-114358571D01*
X198686190Y-114310952D01*
X199305238Y-114501428D02*
X200067142Y-114501428D01*
X200400476Y-113882380D02*
X200971904Y-113882380D01*
X200686190Y-114882380D02*
X200686190Y-113882380D01*
X201305238Y-114882380D02*
X201305238Y-113882380D01*
X201686190Y-113882380D01*
X201781428Y-113930000D01*
X201829047Y-113977619D01*
X201876666Y-114072857D01*
X201876666Y-114215714D01*
X201829047Y-114310952D01*
X201781428Y-114358571D01*
X201686190Y-114406190D01*
X201305238Y-114406190D01*
X202733809Y-114215714D02*
X202733809Y-114882380D01*
X202495714Y-113834761D02*
X202257619Y-114549047D01*
X202876666Y-114549047D01*
G04 #@! TO.C,J17-TP3*
X190514285Y-100642380D02*
X190514285Y-101356666D01*
X190466666Y-101499523D01*
X190371428Y-101594761D01*
X190228571Y-101642380D01*
X190133333Y-101642380D01*
X191514285Y-101642380D02*
X190942857Y-101642380D01*
X191228571Y-101642380D02*
X191228571Y-100642380D01*
X191133333Y-100785238D01*
X191038095Y-100880476D01*
X190942857Y-100928095D01*
X191847619Y-100642380D02*
X192514285Y-100642380D01*
X192085714Y-101642380D01*
X192895238Y-101261428D02*
X193657142Y-101261428D01*
X193990476Y-100642380D02*
X194561904Y-100642380D01*
X194276190Y-101642380D02*
X194276190Y-100642380D01*
X194895238Y-101642380D02*
X194895238Y-100642380D01*
X195276190Y-100642380D01*
X195371428Y-100690000D01*
X195419047Y-100737619D01*
X195466666Y-100832857D01*
X195466666Y-100975714D01*
X195419047Y-101070952D01*
X195371428Y-101118571D01*
X195276190Y-101166190D01*
X194895238Y-101166190D01*
X195800000Y-100642380D02*
X196419047Y-100642380D01*
X196085714Y-101023333D01*
X196228571Y-101023333D01*
X196323809Y-101070952D01*
X196371428Y-101118571D01*
X196419047Y-101213809D01*
X196419047Y-101451904D01*
X196371428Y-101547142D01*
X196323809Y-101594761D01*
X196228571Y-101642380D01*
X195942857Y-101642380D01*
X195847619Y-101594761D01*
X195800000Y-101547142D01*
G04 #@! TO.C,J16-TP24*
X149458095Y-108792380D02*
X149458095Y-109506666D01*
X149410476Y-109649523D01*
X149315238Y-109744761D01*
X149172380Y-109792380D01*
X149077142Y-109792380D01*
X150458095Y-109792380D02*
X149886666Y-109792380D01*
X150172380Y-109792380D02*
X150172380Y-108792380D01*
X150077142Y-108935238D01*
X149981904Y-109030476D01*
X149886666Y-109078095D01*
X151315238Y-108792380D02*
X151124761Y-108792380D01*
X151029523Y-108840000D01*
X150981904Y-108887619D01*
X150886666Y-109030476D01*
X150839047Y-109220952D01*
X150839047Y-109601904D01*
X150886666Y-109697142D01*
X150934285Y-109744761D01*
X151029523Y-109792380D01*
X151220000Y-109792380D01*
X151315238Y-109744761D01*
X151362857Y-109697142D01*
X151410476Y-109601904D01*
X151410476Y-109363809D01*
X151362857Y-109268571D01*
X151315238Y-109220952D01*
X151220000Y-109173333D01*
X151029523Y-109173333D01*
X150934285Y-109220952D01*
X150886666Y-109268571D01*
X150839047Y-109363809D01*
X151839047Y-109411428D02*
X152600952Y-109411428D01*
X152934285Y-108792380D02*
X153505714Y-108792380D01*
X153220000Y-109792380D02*
X153220000Y-108792380D01*
X153839047Y-109792380D02*
X153839047Y-108792380D01*
X154220000Y-108792380D01*
X154315238Y-108840000D01*
X154362857Y-108887619D01*
X154410476Y-108982857D01*
X154410476Y-109125714D01*
X154362857Y-109220952D01*
X154315238Y-109268571D01*
X154220000Y-109316190D01*
X153839047Y-109316190D01*
X154791428Y-108887619D02*
X154839047Y-108840000D01*
X154934285Y-108792380D01*
X155172380Y-108792380D01*
X155267619Y-108840000D01*
X155315238Y-108887619D01*
X155362857Y-108982857D01*
X155362857Y-109078095D01*
X155315238Y-109220952D01*
X154743809Y-109792380D01*
X155362857Y-109792380D01*
X156220000Y-109125714D02*
X156220000Y-109792380D01*
X155981904Y-108744761D02*
X155743809Y-109459047D01*
X156362857Y-109459047D01*
G04 #@! TO.C,J16-TP2*
X190894285Y-98212380D02*
X190894285Y-98926666D01*
X190846666Y-99069523D01*
X190751428Y-99164761D01*
X190608571Y-99212380D01*
X190513333Y-99212380D01*
X191894285Y-99212380D02*
X191322857Y-99212380D01*
X191608571Y-99212380D02*
X191608571Y-98212380D01*
X191513333Y-98355238D01*
X191418095Y-98450476D01*
X191322857Y-98498095D01*
X192751428Y-98212380D02*
X192560952Y-98212380D01*
X192465714Y-98260000D01*
X192418095Y-98307619D01*
X192322857Y-98450476D01*
X192275238Y-98640952D01*
X192275238Y-99021904D01*
X192322857Y-99117142D01*
X192370476Y-99164761D01*
X192465714Y-99212380D01*
X192656190Y-99212380D01*
X192751428Y-99164761D01*
X192799047Y-99117142D01*
X192846666Y-99021904D01*
X192846666Y-98783809D01*
X192799047Y-98688571D01*
X192751428Y-98640952D01*
X192656190Y-98593333D01*
X192465714Y-98593333D01*
X192370476Y-98640952D01*
X192322857Y-98688571D01*
X192275238Y-98783809D01*
X193275238Y-98831428D02*
X194037142Y-98831428D01*
X194370476Y-98212380D02*
X194941904Y-98212380D01*
X194656190Y-99212380D02*
X194656190Y-98212380D01*
X195275238Y-99212380D02*
X195275238Y-98212380D01*
X195656190Y-98212380D01*
X195751428Y-98260000D01*
X195799047Y-98307619D01*
X195846666Y-98402857D01*
X195846666Y-98545714D01*
X195799047Y-98640952D01*
X195751428Y-98688571D01*
X195656190Y-98736190D01*
X195275238Y-98736190D01*
X196227619Y-98307619D02*
X196275238Y-98260000D01*
X196370476Y-98212380D01*
X196608571Y-98212380D01*
X196703809Y-98260000D01*
X196751428Y-98307619D01*
X196799047Y-98402857D01*
X196799047Y-98498095D01*
X196751428Y-98640952D01*
X196180000Y-99212380D01*
X196799047Y-99212380D01*
G04 #@! TO.C,J15-TP20*
X215068095Y-147912380D02*
X215068095Y-148626666D01*
X215020476Y-148769523D01*
X214925238Y-148864761D01*
X214782380Y-148912380D01*
X214687142Y-148912380D01*
X216068095Y-148912380D02*
X215496666Y-148912380D01*
X215782380Y-148912380D02*
X215782380Y-147912380D01*
X215687142Y-148055238D01*
X215591904Y-148150476D01*
X215496666Y-148198095D01*
X216972857Y-147912380D02*
X216496666Y-147912380D01*
X216449047Y-148388571D01*
X216496666Y-148340952D01*
X216591904Y-148293333D01*
X216830000Y-148293333D01*
X216925238Y-148340952D01*
X216972857Y-148388571D01*
X217020476Y-148483809D01*
X217020476Y-148721904D01*
X216972857Y-148817142D01*
X216925238Y-148864761D01*
X216830000Y-148912380D01*
X216591904Y-148912380D01*
X216496666Y-148864761D01*
X216449047Y-148817142D01*
X217449047Y-148531428D02*
X218210952Y-148531428D01*
X218544285Y-147912380D02*
X219115714Y-147912380D01*
X218830000Y-148912380D02*
X218830000Y-147912380D01*
X219449047Y-148912380D02*
X219449047Y-147912380D01*
X219830000Y-147912380D01*
X219925238Y-147960000D01*
X219972857Y-148007619D01*
X220020476Y-148102857D01*
X220020476Y-148245714D01*
X219972857Y-148340952D01*
X219925238Y-148388571D01*
X219830000Y-148436190D01*
X219449047Y-148436190D01*
X220401428Y-148007619D02*
X220449047Y-147960000D01*
X220544285Y-147912380D01*
X220782380Y-147912380D01*
X220877619Y-147960000D01*
X220925238Y-148007619D01*
X220972857Y-148102857D01*
X220972857Y-148198095D01*
X220925238Y-148340952D01*
X220353809Y-148912380D01*
X220972857Y-148912380D01*
X221591904Y-147912380D02*
X221687142Y-147912380D01*
X221782380Y-147960000D01*
X221830000Y-148007619D01*
X221877619Y-148102857D01*
X221925238Y-148293333D01*
X221925238Y-148531428D01*
X221877619Y-148721904D01*
X221830000Y-148817142D01*
X221782380Y-148864761D01*
X221687142Y-148912380D01*
X221591904Y-148912380D01*
X221496666Y-148864761D01*
X221449047Y-148817142D01*
X221401428Y-148721904D01*
X221353809Y-148531428D01*
X221353809Y-148293333D01*
X221401428Y-148102857D01*
X221449047Y-148007619D01*
X221496666Y-147960000D01*
X221591904Y-147912380D01*
G04 #@! TO.C,J15-TP1*
X189934285Y-95672380D02*
X189934285Y-96386666D01*
X189886666Y-96529523D01*
X189791428Y-96624761D01*
X189648571Y-96672380D01*
X189553333Y-96672380D01*
X190934285Y-96672380D02*
X190362857Y-96672380D01*
X190648571Y-96672380D02*
X190648571Y-95672380D01*
X190553333Y-95815238D01*
X190458095Y-95910476D01*
X190362857Y-95958095D01*
X191839047Y-95672380D02*
X191362857Y-95672380D01*
X191315238Y-96148571D01*
X191362857Y-96100952D01*
X191458095Y-96053333D01*
X191696190Y-96053333D01*
X191791428Y-96100952D01*
X191839047Y-96148571D01*
X191886666Y-96243809D01*
X191886666Y-96481904D01*
X191839047Y-96577142D01*
X191791428Y-96624761D01*
X191696190Y-96672380D01*
X191458095Y-96672380D01*
X191362857Y-96624761D01*
X191315238Y-96577142D01*
X192315238Y-96291428D02*
X193077142Y-96291428D01*
X193410476Y-95672380D02*
X193981904Y-95672380D01*
X193696190Y-96672380D02*
X193696190Y-95672380D01*
X194315238Y-96672380D02*
X194315238Y-95672380D01*
X194696190Y-95672380D01*
X194791428Y-95720000D01*
X194839047Y-95767619D01*
X194886666Y-95862857D01*
X194886666Y-96005714D01*
X194839047Y-96100952D01*
X194791428Y-96148571D01*
X194696190Y-96196190D01*
X194315238Y-96196190D01*
X195839047Y-96672380D02*
X195267619Y-96672380D01*
X195553333Y-96672380D02*
X195553333Y-95672380D01*
X195458095Y-95815238D01*
X195362857Y-95910476D01*
X195267619Y-95958095D01*
G04 #@! TO.C,J14-TP17*
X91798095Y-114152380D02*
X91798095Y-114866666D01*
X91750476Y-115009523D01*
X91655238Y-115104761D01*
X91512380Y-115152380D01*
X91417142Y-115152380D01*
X92798095Y-115152380D02*
X92226666Y-115152380D01*
X92512380Y-115152380D02*
X92512380Y-114152380D01*
X92417142Y-114295238D01*
X92321904Y-114390476D01*
X92226666Y-114438095D01*
X93655238Y-114485714D02*
X93655238Y-115152380D01*
X93417142Y-114104761D02*
X93179047Y-114819047D01*
X93798095Y-114819047D01*
X94179047Y-114771428D02*
X94940952Y-114771428D01*
X95274285Y-114152380D02*
X95845714Y-114152380D01*
X95560000Y-115152380D02*
X95560000Y-114152380D01*
X96179047Y-115152380D02*
X96179047Y-114152380D01*
X96560000Y-114152380D01*
X96655238Y-114200000D01*
X96702857Y-114247619D01*
X96750476Y-114342857D01*
X96750476Y-114485714D01*
X96702857Y-114580952D01*
X96655238Y-114628571D01*
X96560000Y-114676190D01*
X96179047Y-114676190D01*
X97702857Y-115152380D02*
X97131428Y-115152380D01*
X97417142Y-115152380D02*
X97417142Y-114152380D01*
X97321904Y-114295238D01*
X97226666Y-114390476D01*
X97131428Y-114438095D01*
X98036190Y-114152380D02*
X98702857Y-114152380D01*
X98274285Y-115152380D01*
G04 #@! TO.C,J13-TP23*
X152178095Y-74392380D02*
X152178095Y-75106666D01*
X152130476Y-75249523D01*
X152035238Y-75344761D01*
X151892380Y-75392380D01*
X151797142Y-75392380D01*
X153178095Y-75392380D02*
X152606666Y-75392380D01*
X152892380Y-75392380D02*
X152892380Y-74392380D01*
X152797142Y-74535238D01*
X152701904Y-74630476D01*
X152606666Y-74678095D01*
X153511428Y-74392380D02*
X154130476Y-74392380D01*
X153797142Y-74773333D01*
X153940000Y-74773333D01*
X154035238Y-74820952D01*
X154082857Y-74868571D01*
X154130476Y-74963809D01*
X154130476Y-75201904D01*
X154082857Y-75297142D01*
X154035238Y-75344761D01*
X153940000Y-75392380D01*
X153654285Y-75392380D01*
X153559047Y-75344761D01*
X153511428Y-75297142D01*
X154559047Y-75011428D02*
X155320952Y-75011428D01*
X155654285Y-74392380D02*
X156225714Y-74392380D01*
X155940000Y-75392380D02*
X155940000Y-74392380D01*
X156559047Y-75392380D02*
X156559047Y-74392380D01*
X156940000Y-74392380D01*
X157035238Y-74440000D01*
X157082857Y-74487619D01*
X157130476Y-74582857D01*
X157130476Y-74725714D01*
X157082857Y-74820952D01*
X157035238Y-74868571D01*
X156940000Y-74916190D01*
X156559047Y-74916190D01*
X157511428Y-74487619D02*
X157559047Y-74440000D01*
X157654285Y-74392380D01*
X157892380Y-74392380D01*
X157987619Y-74440000D01*
X158035238Y-74487619D01*
X158082857Y-74582857D01*
X158082857Y-74678095D01*
X158035238Y-74820952D01*
X157463809Y-75392380D01*
X158082857Y-75392380D01*
X158416190Y-74392380D02*
X159035238Y-74392380D01*
X158701904Y-74773333D01*
X158844761Y-74773333D01*
X158940000Y-74820952D01*
X158987619Y-74868571D01*
X159035238Y-74963809D01*
X159035238Y-75201904D01*
X158987619Y-75297142D01*
X158940000Y-75344761D01*
X158844761Y-75392380D01*
X158559047Y-75392380D01*
X158463809Y-75344761D01*
X158416190Y-75297142D01*
G04 #@! TO.C,J12-TP14*
X165858095Y-111932380D02*
X165858095Y-112646666D01*
X165810476Y-112789523D01*
X165715238Y-112884761D01*
X165572380Y-112932380D01*
X165477142Y-112932380D01*
X166858095Y-112932380D02*
X166286666Y-112932380D01*
X166572380Y-112932380D02*
X166572380Y-111932380D01*
X166477142Y-112075238D01*
X166381904Y-112170476D01*
X166286666Y-112218095D01*
X167239047Y-112027619D02*
X167286666Y-111980000D01*
X167381904Y-111932380D01*
X167620000Y-111932380D01*
X167715238Y-111980000D01*
X167762857Y-112027619D01*
X167810476Y-112122857D01*
X167810476Y-112218095D01*
X167762857Y-112360952D01*
X167191428Y-112932380D01*
X167810476Y-112932380D01*
X168239047Y-112551428D02*
X169000952Y-112551428D01*
X169334285Y-111932380D02*
X169905714Y-111932380D01*
X169620000Y-112932380D02*
X169620000Y-111932380D01*
X170239047Y-112932380D02*
X170239047Y-111932380D01*
X170620000Y-111932380D01*
X170715238Y-111980000D01*
X170762857Y-112027619D01*
X170810476Y-112122857D01*
X170810476Y-112265714D01*
X170762857Y-112360952D01*
X170715238Y-112408571D01*
X170620000Y-112456190D01*
X170239047Y-112456190D01*
X171762857Y-112932380D02*
X171191428Y-112932380D01*
X171477142Y-112932380D02*
X171477142Y-111932380D01*
X171381904Y-112075238D01*
X171286666Y-112170476D01*
X171191428Y-112218095D01*
X172620000Y-112265714D02*
X172620000Y-112932380D01*
X172381904Y-111884761D02*
X172143809Y-112599047D01*
X172762857Y-112599047D01*
G04 #@! TO.C,J11-TP7*
X160724285Y-127682380D02*
X160724285Y-128396666D01*
X160676666Y-128539523D01*
X160581428Y-128634761D01*
X160438571Y-128682380D01*
X160343333Y-128682380D01*
X161724285Y-128682380D02*
X161152857Y-128682380D01*
X161438571Y-128682380D02*
X161438571Y-127682380D01*
X161343333Y-127825238D01*
X161248095Y-127920476D01*
X161152857Y-127968095D01*
X162676666Y-128682380D02*
X162105238Y-128682380D01*
X162390952Y-128682380D02*
X162390952Y-127682380D01*
X162295714Y-127825238D01*
X162200476Y-127920476D01*
X162105238Y-127968095D01*
X163105238Y-128301428D02*
X163867142Y-128301428D01*
X164200476Y-127682380D02*
X164771904Y-127682380D01*
X164486190Y-128682380D02*
X164486190Y-127682380D01*
X165105238Y-128682380D02*
X165105238Y-127682380D01*
X165486190Y-127682380D01*
X165581428Y-127730000D01*
X165629047Y-127777619D01*
X165676666Y-127872857D01*
X165676666Y-128015714D01*
X165629047Y-128110952D01*
X165581428Y-128158571D01*
X165486190Y-128206190D01*
X165105238Y-128206190D01*
X166010000Y-127682380D02*
X166676666Y-127682380D01*
X166248095Y-128682380D01*
G04 #@! TO.C,J10-TP22*
X175968095Y-104242380D02*
X175968095Y-104956666D01*
X175920476Y-105099523D01*
X175825238Y-105194761D01*
X175682380Y-105242380D01*
X175587142Y-105242380D01*
X176968095Y-105242380D02*
X176396666Y-105242380D01*
X176682380Y-105242380D02*
X176682380Y-104242380D01*
X176587142Y-104385238D01*
X176491904Y-104480476D01*
X176396666Y-104528095D01*
X177587142Y-104242380D02*
X177682380Y-104242380D01*
X177777619Y-104290000D01*
X177825238Y-104337619D01*
X177872857Y-104432857D01*
X177920476Y-104623333D01*
X177920476Y-104861428D01*
X177872857Y-105051904D01*
X177825238Y-105147142D01*
X177777619Y-105194761D01*
X177682380Y-105242380D01*
X177587142Y-105242380D01*
X177491904Y-105194761D01*
X177444285Y-105147142D01*
X177396666Y-105051904D01*
X177349047Y-104861428D01*
X177349047Y-104623333D01*
X177396666Y-104432857D01*
X177444285Y-104337619D01*
X177491904Y-104290000D01*
X177587142Y-104242380D01*
X178349047Y-104861428D02*
X179110952Y-104861428D01*
X179444285Y-104242380D02*
X180015714Y-104242380D01*
X179730000Y-105242380D02*
X179730000Y-104242380D01*
X180349047Y-105242380D02*
X180349047Y-104242380D01*
X180730000Y-104242380D01*
X180825238Y-104290000D01*
X180872857Y-104337619D01*
X180920476Y-104432857D01*
X180920476Y-104575714D01*
X180872857Y-104670952D01*
X180825238Y-104718571D01*
X180730000Y-104766190D01*
X180349047Y-104766190D01*
X181301428Y-104337619D02*
X181349047Y-104290000D01*
X181444285Y-104242380D01*
X181682380Y-104242380D01*
X181777619Y-104290000D01*
X181825238Y-104337619D01*
X181872857Y-104432857D01*
X181872857Y-104528095D01*
X181825238Y-104670952D01*
X181253809Y-105242380D01*
X181872857Y-105242380D01*
X182253809Y-104337619D02*
X182301428Y-104290000D01*
X182396666Y-104242380D01*
X182634761Y-104242380D01*
X182730000Y-104290000D01*
X182777619Y-104337619D01*
X182825238Y-104432857D01*
X182825238Y-104528095D01*
X182777619Y-104670952D01*
X182206190Y-105242380D01*
X182825238Y-105242380D01*
G04 #@! TO.C,J4*
X141896666Y-20442380D02*
X141896666Y-21156666D01*
X141849047Y-21299523D01*
X141753809Y-21394761D01*
X141610952Y-21442380D01*
X141515714Y-21442380D01*
X142801428Y-20775714D02*
X142801428Y-21442380D01*
X142563333Y-20394761D02*
X142325238Y-21109047D01*
X142944285Y-21109047D01*
G04 #@! TO.C,J3*
X166986666Y-36252380D02*
X166986666Y-36966666D01*
X166939047Y-37109523D01*
X166843809Y-37204761D01*
X166700952Y-37252380D01*
X166605714Y-37252380D01*
X167367619Y-36252380D02*
X167986666Y-36252380D01*
X167653333Y-36633333D01*
X167796190Y-36633333D01*
X167891428Y-36680952D01*
X167939047Y-36728571D01*
X167986666Y-36823809D01*
X167986666Y-37061904D01*
X167939047Y-37157142D01*
X167891428Y-37204761D01*
X167796190Y-37252380D01*
X167510476Y-37252380D01*
X167415238Y-37204761D01*
X167367619Y-37157142D01*
G04 #@! TO.C,J2*
X164206666Y-51752380D02*
X164206666Y-52466666D01*
X164159047Y-52609523D01*
X164063809Y-52704761D01*
X163920952Y-52752380D01*
X163825714Y-52752380D01*
X164635238Y-51847619D02*
X164682857Y-51800000D01*
X164778095Y-51752380D01*
X165016190Y-51752380D01*
X165111428Y-51800000D01*
X165159047Y-51847619D01*
X165206666Y-51942857D01*
X165206666Y-52038095D01*
X165159047Y-52180952D01*
X164587619Y-52752380D01*
X165206666Y-52752380D01*
G04 #@! TO.C,J1*
X87416666Y-51832380D02*
X87416666Y-52546666D01*
X87369047Y-52689523D01*
X87273809Y-52784761D01*
X87130952Y-52832380D01*
X87035714Y-52832380D01*
X88416666Y-52832380D02*
X87845238Y-52832380D01*
X88130952Y-52832380D02*
X88130952Y-51832380D01*
X88035714Y-51975238D01*
X87940476Y-52070476D01*
X87845238Y-52118095D01*
G04 #@! TD*
M02*
