G04 #@! TF.GenerationSoftware,KiCad,Pcbnew,(5.1.5)-3*
G04 #@! TF.CreationDate,2020-08-17T08:43:26+02:00*
G04 #@! TF.ProjectId,carecasetester,63617265-6361-4736-9574-65737465722e,rev?*
G04 #@! TF.SameCoordinates,Original*
G04 #@! TF.FileFunction,Legend,Bot*
G04 #@! TF.FilePolarity,Positive*
%FSLAX46Y46*%
G04 Gerber Fmt 4.6, Leading zero omitted, Abs format (unit mm)*
G04 Created by KiCad (PCBNEW (5.1.5)-3) date 2020-08-17 08:43:26*
%MOMM*%
%LPD*%
G04 APERTURE LIST*
%ADD10C,0.300000*%
%ADD11C,0.500000*%
%ADD12C,0.150000*%
G04 #@! TA.AperFunction,Profile*
%ADD13C,0.200000*%
G04 #@! TD*
%ADD14C,0.100000*%
%ADD15C,0.200000*%
%ADD16C,0.250000*%
%ADD17C,0.187500*%
%ADD18C,0.120000*%
G04 APERTURE END LIST*
D10*
X90973571Y-54032142D02*
X89473571Y-54032142D01*
X89473571Y-54389285D01*
X89545000Y-54603571D01*
X89687857Y-54746428D01*
X89830714Y-54817857D01*
X90116428Y-54889285D01*
X90330714Y-54889285D01*
X90616428Y-54817857D01*
X90759285Y-54746428D01*
X90902142Y-54603571D01*
X90973571Y-54389285D01*
X90973571Y-54032142D01*
X90187857Y-56032142D02*
X90259285Y-56246428D01*
X90330714Y-56317857D01*
X90473571Y-56389285D01*
X90687857Y-56389285D01*
X90830714Y-56317857D01*
X90902142Y-56246428D01*
X90973571Y-56103571D01*
X90973571Y-55532142D01*
X89473571Y-55532142D01*
X89473571Y-56032142D01*
X89545000Y-56175000D01*
X89616428Y-56246428D01*
X89759285Y-56317857D01*
X89902142Y-56317857D01*
X90045000Y-56246428D01*
X90116428Y-56175000D01*
X90187857Y-56032142D01*
X90187857Y-55532142D01*
X89473571Y-56889285D02*
X89473571Y-57889285D01*
X90973571Y-57246428D01*
X90402142Y-58460714D02*
X90402142Y-59603571D01*
X90973571Y-61103571D02*
X90973571Y-60246428D01*
X90973571Y-60674999D02*
X89473571Y-60674999D01*
X89687857Y-60532142D01*
X89830714Y-60389285D01*
X89902142Y-60246428D01*
X89973571Y-62389285D02*
X90973571Y-62389285D01*
X89402142Y-62032142D02*
X90473571Y-61674999D01*
X90473571Y-62603571D01*
X93523571Y-54032142D02*
X92023571Y-54032142D01*
X92023571Y-54389285D01*
X92095000Y-54603571D01*
X92237857Y-54746428D01*
X92380714Y-54817857D01*
X92666428Y-54889285D01*
X92880714Y-54889285D01*
X93166428Y-54817857D01*
X93309285Y-54746428D01*
X93452142Y-54603571D01*
X93523571Y-54389285D01*
X93523571Y-54032142D01*
X92737857Y-56032142D02*
X92809285Y-56246428D01*
X92880714Y-56317857D01*
X93023571Y-56389285D01*
X93237857Y-56389285D01*
X93380714Y-56317857D01*
X93452142Y-56246428D01*
X93523571Y-56103571D01*
X93523571Y-55532142D01*
X92023571Y-55532142D01*
X92023571Y-56032142D01*
X92095000Y-56175000D01*
X92166428Y-56246428D01*
X92309285Y-56317857D01*
X92452142Y-56317857D01*
X92595000Y-56246428D01*
X92666428Y-56175000D01*
X92737857Y-56032142D01*
X92737857Y-55532142D01*
X92023571Y-57675000D02*
X92023571Y-57389285D01*
X92095000Y-57246428D01*
X92166428Y-57175000D01*
X92380714Y-57032142D01*
X92666428Y-56960714D01*
X93237857Y-56960714D01*
X93380714Y-57032142D01*
X93452142Y-57103571D01*
X93523571Y-57246428D01*
X93523571Y-57532142D01*
X93452142Y-57675000D01*
X93380714Y-57746428D01*
X93237857Y-57817857D01*
X92880714Y-57817857D01*
X92737857Y-57746428D01*
X92666428Y-57675000D01*
X92595000Y-57532142D01*
X92595000Y-57246428D01*
X92666428Y-57103571D01*
X92737857Y-57032142D01*
X92880714Y-56960714D01*
X92952142Y-58460714D02*
X92952142Y-59603571D01*
X93523571Y-61103571D02*
X93523571Y-60246428D01*
X93523571Y-60674999D02*
X92023571Y-60674999D01*
X92237857Y-60532142D01*
X92380714Y-60389285D01*
X92452142Y-60246428D01*
X92023571Y-61603571D02*
X92023571Y-62532142D01*
X92595000Y-62032142D01*
X92595000Y-62246428D01*
X92666428Y-62389285D01*
X92737857Y-62460714D01*
X92880714Y-62532142D01*
X93237857Y-62532142D01*
X93380714Y-62460714D01*
X93452142Y-62389285D01*
X93523571Y-62246428D01*
X93523571Y-61817857D01*
X93452142Y-61674999D01*
X93380714Y-61603571D01*
X96073571Y-54032142D02*
X94573571Y-54032142D01*
X94573571Y-54389285D01*
X94645000Y-54603571D01*
X94787857Y-54746428D01*
X94930714Y-54817857D01*
X95216428Y-54889285D01*
X95430714Y-54889285D01*
X95716428Y-54817857D01*
X95859285Y-54746428D01*
X96002142Y-54603571D01*
X96073571Y-54389285D01*
X96073571Y-54032142D01*
X95287857Y-56032142D02*
X95359285Y-56246428D01*
X95430714Y-56317857D01*
X95573571Y-56389285D01*
X95787857Y-56389285D01*
X95930714Y-56317857D01*
X96002142Y-56246428D01*
X96073571Y-56103571D01*
X96073571Y-55532142D01*
X94573571Y-55532142D01*
X94573571Y-56032142D01*
X94645000Y-56175000D01*
X94716428Y-56246428D01*
X94859285Y-56317857D01*
X95002142Y-56317857D01*
X95145000Y-56246428D01*
X95216428Y-56175000D01*
X95287857Y-56032142D01*
X95287857Y-55532142D01*
X94573571Y-57746428D02*
X94573571Y-57032142D01*
X95287857Y-56960714D01*
X95216428Y-57032142D01*
X95145000Y-57175000D01*
X95145000Y-57532142D01*
X95216428Y-57675000D01*
X95287857Y-57746428D01*
X95430714Y-57817857D01*
X95787857Y-57817857D01*
X95930714Y-57746428D01*
X96002142Y-57675000D01*
X96073571Y-57532142D01*
X96073571Y-57175000D01*
X96002142Y-57032142D01*
X95930714Y-56960714D01*
X95502142Y-58460714D02*
X95502142Y-59603571D01*
X96073571Y-61103571D02*
X96073571Y-60246428D01*
X96073571Y-60674999D02*
X94573571Y-60674999D01*
X94787857Y-60532142D01*
X94930714Y-60389285D01*
X95002142Y-60246428D01*
X94716428Y-61674999D02*
X94645000Y-61746428D01*
X94573571Y-61889285D01*
X94573571Y-62246428D01*
X94645000Y-62389285D01*
X94716428Y-62460714D01*
X94859285Y-62532142D01*
X95002142Y-62532142D01*
X95216428Y-62460714D01*
X96073571Y-61603571D01*
X96073571Y-62532142D01*
X98623571Y-54032142D02*
X97123571Y-54032142D01*
X97123571Y-54389285D01*
X97195000Y-54603571D01*
X97337857Y-54746428D01*
X97480714Y-54817857D01*
X97766428Y-54889285D01*
X97980714Y-54889285D01*
X98266428Y-54817857D01*
X98409285Y-54746428D01*
X98552142Y-54603571D01*
X98623571Y-54389285D01*
X98623571Y-54032142D01*
X97837857Y-56032142D02*
X97909285Y-56246428D01*
X97980714Y-56317857D01*
X98123571Y-56389285D01*
X98337857Y-56389285D01*
X98480714Y-56317857D01*
X98552142Y-56246428D01*
X98623571Y-56103571D01*
X98623571Y-55532142D01*
X97123571Y-55532142D01*
X97123571Y-56032142D01*
X97195000Y-56175000D01*
X97266428Y-56246428D01*
X97409285Y-56317857D01*
X97552142Y-56317857D01*
X97695000Y-56246428D01*
X97766428Y-56175000D01*
X97837857Y-56032142D01*
X97837857Y-55532142D01*
X97623571Y-57675000D02*
X98623571Y-57675000D01*
X97052142Y-57317857D02*
X98123571Y-56960714D01*
X98123571Y-57889285D01*
X98052142Y-58460714D02*
X98052142Y-59603571D01*
X98623571Y-61103571D02*
X98623571Y-60246428D01*
X98623571Y-60674999D02*
X97123571Y-60674999D01*
X97337857Y-60532142D01*
X97480714Y-60389285D01*
X97552142Y-60246428D01*
X98623571Y-62532142D02*
X98623571Y-61674999D01*
X98623571Y-62103571D02*
X97123571Y-62103571D01*
X97337857Y-61960714D01*
X97480714Y-61817857D01*
X97552142Y-61674999D01*
X101173571Y-54032142D02*
X99673571Y-54032142D01*
X99673571Y-54389285D01*
X99745000Y-54603571D01*
X99887857Y-54746428D01*
X100030714Y-54817857D01*
X100316428Y-54889285D01*
X100530714Y-54889285D01*
X100816428Y-54817857D01*
X100959285Y-54746428D01*
X101102142Y-54603571D01*
X101173571Y-54389285D01*
X101173571Y-54032142D01*
X100387857Y-56032142D02*
X100459285Y-56246428D01*
X100530714Y-56317857D01*
X100673571Y-56389285D01*
X100887857Y-56389285D01*
X101030714Y-56317857D01*
X101102142Y-56246428D01*
X101173571Y-56103571D01*
X101173571Y-55532142D01*
X99673571Y-55532142D01*
X99673571Y-56032142D01*
X99745000Y-56175000D01*
X99816428Y-56246428D01*
X99959285Y-56317857D01*
X100102142Y-56317857D01*
X100245000Y-56246428D01*
X100316428Y-56175000D01*
X100387857Y-56032142D01*
X100387857Y-55532142D01*
X99673571Y-56889285D02*
X99673571Y-57817857D01*
X100245000Y-57317857D01*
X100245000Y-57532142D01*
X100316428Y-57675000D01*
X100387857Y-57746428D01*
X100530714Y-57817857D01*
X100887857Y-57817857D01*
X101030714Y-57746428D01*
X101102142Y-57675000D01*
X101173571Y-57532142D01*
X101173571Y-57103571D01*
X101102142Y-56960714D01*
X101030714Y-56889285D01*
X100602142Y-58460714D02*
X100602142Y-59603571D01*
X101173571Y-61103571D02*
X101173571Y-60246428D01*
X101173571Y-60674999D02*
X99673571Y-60674999D01*
X99887857Y-60532142D01*
X100030714Y-60389285D01*
X100102142Y-60246428D01*
X99673571Y-62032142D02*
X99673571Y-62174999D01*
X99745000Y-62317857D01*
X99816428Y-62389285D01*
X99959285Y-62460714D01*
X100245000Y-62532142D01*
X100602142Y-62532142D01*
X100887857Y-62460714D01*
X101030714Y-62389285D01*
X101102142Y-62317857D01*
X101173571Y-62174999D01*
X101173571Y-62032142D01*
X101102142Y-61889285D01*
X101030714Y-61817857D01*
X100887857Y-61746428D01*
X100602142Y-61674999D01*
X100245000Y-61674999D01*
X99959285Y-61746428D01*
X99816428Y-61817857D01*
X99745000Y-61889285D01*
X99673571Y-62032142D01*
X103723571Y-54032142D02*
X102223571Y-54032142D01*
X102223571Y-54389285D01*
X102295000Y-54603571D01*
X102437857Y-54746428D01*
X102580714Y-54817857D01*
X102866428Y-54889285D01*
X103080714Y-54889285D01*
X103366428Y-54817857D01*
X103509285Y-54746428D01*
X103652142Y-54603571D01*
X103723571Y-54389285D01*
X103723571Y-54032142D01*
X102937857Y-56032142D02*
X103009285Y-56246428D01*
X103080714Y-56317857D01*
X103223571Y-56389285D01*
X103437857Y-56389285D01*
X103580714Y-56317857D01*
X103652142Y-56246428D01*
X103723571Y-56103571D01*
X103723571Y-55532142D01*
X102223571Y-55532142D01*
X102223571Y-56032142D01*
X102295000Y-56175000D01*
X102366428Y-56246428D01*
X102509285Y-56317857D01*
X102652142Y-56317857D01*
X102795000Y-56246428D01*
X102866428Y-56175000D01*
X102937857Y-56032142D01*
X102937857Y-55532142D01*
X102366428Y-56960714D02*
X102295000Y-57032142D01*
X102223571Y-57175000D01*
X102223571Y-57532142D01*
X102295000Y-57675000D01*
X102366428Y-57746428D01*
X102509285Y-57817857D01*
X102652142Y-57817857D01*
X102866428Y-57746428D01*
X103723571Y-56889285D01*
X103723571Y-57817857D01*
X103152142Y-58460714D02*
X103152142Y-59603571D01*
X103723571Y-60389285D02*
X103723571Y-60675000D01*
X103652142Y-60817857D01*
X103580714Y-60889285D01*
X103366428Y-61032142D01*
X103080714Y-61103571D01*
X102509285Y-61103571D01*
X102366428Y-61032142D01*
X102295000Y-60960714D01*
X102223571Y-60817857D01*
X102223571Y-60532142D01*
X102295000Y-60389285D01*
X102366428Y-60317857D01*
X102509285Y-60246428D01*
X102866428Y-60246428D01*
X103009285Y-60317857D01*
X103080714Y-60389285D01*
X103152142Y-60532142D01*
X103152142Y-60817857D01*
X103080714Y-60960714D01*
X103009285Y-61032142D01*
X102866428Y-61103571D01*
X106273571Y-54032142D02*
X104773571Y-54032142D01*
X104773571Y-54389285D01*
X104845000Y-54603571D01*
X104987857Y-54746428D01*
X105130714Y-54817857D01*
X105416428Y-54889285D01*
X105630714Y-54889285D01*
X105916428Y-54817857D01*
X106059285Y-54746428D01*
X106202142Y-54603571D01*
X106273571Y-54389285D01*
X106273571Y-54032142D01*
X105487857Y-56032142D02*
X105559285Y-56246428D01*
X105630714Y-56317857D01*
X105773571Y-56389285D01*
X105987857Y-56389285D01*
X106130714Y-56317857D01*
X106202142Y-56246428D01*
X106273571Y-56103571D01*
X106273571Y-55532142D01*
X104773571Y-55532142D01*
X104773571Y-56032142D01*
X104845000Y-56175000D01*
X104916428Y-56246428D01*
X105059285Y-56317857D01*
X105202142Y-56317857D01*
X105345000Y-56246428D01*
X105416428Y-56175000D01*
X105487857Y-56032142D01*
X105487857Y-55532142D01*
X106273571Y-57817857D02*
X106273571Y-56960714D01*
X106273571Y-57389285D02*
X104773571Y-57389285D01*
X104987857Y-57246428D01*
X105130714Y-57103571D01*
X105202142Y-56960714D01*
X105702142Y-58460714D02*
X105702142Y-59603571D01*
X105416428Y-60532142D02*
X105345000Y-60389285D01*
X105273571Y-60317857D01*
X105130714Y-60246428D01*
X105059285Y-60246428D01*
X104916428Y-60317857D01*
X104845000Y-60389285D01*
X104773571Y-60532142D01*
X104773571Y-60817857D01*
X104845000Y-60960714D01*
X104916428Y-61032142D01*
X105059285Y-61103571D01*
X105130714Y-61103571D01*
X105273571Y-61032142D01*
X105345000Y-60960714D01*
X105416428Y-60817857D01*
X105416428Y-60532142D01*
X105487857Y-60389285D01*
X105559285Y-60317857D01*
X105702142Y-60246428D01*
X105987857Y-60246428D01*
X106130714Y-60317857D01*
X106202142Y-60389285D01*
X106273571Y-60532142D01*
X106273571Y-60817857D01*
X106202142Y-60960714D01*
X106130714Y-61032142D01*
X105987857Y-61103571D01*
X105702142Y-61103571D01*
X105559285Y-61032142D01*
X105487857Y-60960714D01*
X105416428Y-60817857D01*
X108823571Y-54032142D02*
X107323571Y-54032142D01*
X107323571Y-54389285D01*
X107395000Y-54603571D01*
X107537857Y-54746428D01*
X107680714Y-54817857D01*
X107966428Y-54889285D01*
X108180714Y-54889285D01*
X108466428Y-54817857D01*
X108609285Y-54746428D01*
X108752142Y-54603571D01*
X108823571Y-54389285D01*
X108823571Y-54032142D01*
X108037857Y-56032142D02*
X108109285Y-56246428D01*
X108180714Y-56317857D01*
X108323571Y-56389285D01*
X108537857Y-56389285D01*
X108680714Y-56317857D01*
X108752142Y-56246428D01*
X108823571Y-56103571D01*
X108823571Y-55532142D01*
X107323571Y-55532142D01*
X107323571Y-56032142D01*
X107395000Y-56175000D01*
X107466428Y-56246428D01*
X107609285Y-56317857D01*
X107752142Y-56317857D01*
X107895000Y-56246428D01*
X107966428Y-56175000D01*
X108037857Y-56032142D01*
X108037857Y-55532142D01*
X107323571Y-57317857D02*
X107323571Y-57460714D01*
X107395000Y-57603571D01*
X107466428Y-57675000D01*
X107609285Y-57746428D01*
X107895000Y-57817857D01*
X108252142Y-57817857D01*
X108537857Y-57746428D01*
X108680714Y-57675000D01*
X108752142Y-57603571D01*
X108823571Y-57460714D01*
X108823571Y-57317857D01*
X108752142Y-57175000D01*
X108680714Y-57103571D01*
X108537857Y-57032142D01*
X108252142Y-56960714D01*
X107895000Y-56960714D01*
X107609285Y-57032142D01*
X107466428Y-57103571D01*
X107395000Y-57175000D01*
X107323571Y-57317857D01*
X108252142Y-58460714D02*
X108252142Y-59603571D01*
X107323571Y-60175000D02*
X107323571Y-61175000D01*
X108823571Y-60532142D01*
X110587857Y-54032142D02*
X110587857Y-54532142D01*
X111373571Y-54746428D02*
X111373571Y-54032142D01*
X109873571Y-54032142D01*
X109873571Y-54746428D01*
X110802142Y-55389285D02*
X110802142Y-56532142D01*
X109873571Y-57889285D02*
X109873571Y-57603571D01*
X109945000Y-57460714D01*
X110016428Y-57389285D01*
X110230714Y-57246428D01*
X110516428Y-57175000D01*
X111087857Y-57175000D01*
X111230714Y-57246428D01*
X111302142Y-57317857D01*
X111373571Y-57460714D01*
X111373571Y-57746428D01*
X111302142Y-57889285D01*
X111230714Y-57960714D01*
X111087857Y-58032142D01*
X110730714Y-58032142D01*
X110587857Y-57960714D01*
X110516428Y-57889285D01*
X110445000Y-57746428D01*
X110445000Y-57460714D01*
X110516428Y-57317857D01*
X110587857Y-57246428D01*
X110730714Y-57175000D01*
X113923571Y-54889285D02*
X113209285Y-54389285D01*
X113923571Y-54032142D02*
X112423571Y-54032142D01*
X112423571Y-54603571D01*
X112495000Y-54746428D01*
X112566428Y-54817857D01*
X112709285Y-54889285D01*
X112923571Y-54889285D01*
X113066428Y-54817857D01*
X113137857Y-54746428D01*
X113209285Y-54603571D01*
X113209285Y-54032142D01*
X112352142Y-56603571D02*
X114280714Y-55317857D01*
X111775000Y-56746428D02*
X111775000Y-58460714D01*
X112423571Y-56960714D02*
X113923571Y-57317857D01*
X112852142Y-57603571D01*
X113923571Y-57889285D01*
X112423571Y-58246428D01*
X113352142Y-58817857D02*
X113352142Y-59960714D01*
X112423571Y-61389285D02*
X112423571Y-60675000D01*
X113137857Y-60603571D01*
X113066428Y-60675000D01*
X112995000Y-60817857D01*
X112995000Y-61175000D01*
X113066428Y-61317857D01*
X113137857Y-61389285D01*
X113280714Y-61460714D01*
X113637857Y-61460714D01*
X113780714Y-61389285D01*
X113852142Y-61317857D01*
X113923571Y-61175000D01*
X113923571Y-60817857D01*
X113852142Y-60675000D01*
X113780714Y-60603571D01*
X116473571Y-54889285D02*
X115759285Y-54389285D01*
X116473571Y-54032142D02*
X114973571Y-54032142D01*
X114973571Y-54603571D01*
X115045000Y-54746428D01*
X115116428Y-54817857D01*
X115259285Y-54889285D01*
X115473571Y-54889285D01*
X115616428Y-54817857D01*
X115687857Y-54746428D01*
X115759285Y-54603571D01*
X115759285Y-54032142D01*
X116402142Y-55460714D02*
X116473571Y-55675000D01*
X116473571Y-56032142D01*
X116402142Y-56175000D01*
X116330714Y-56246428D01*
X116187857Y-56317857D01*
X116045000Y-56317857D01*
X115902142Y-56246428D01*
X115830714Y-56175000D01*
X115759285Y-56032142D01*
X115687857Y-55746428D01*
X115616428Y-55603571D01*
X115545000Y-55532142D01*
X115402142Y-55460714D01*
X115259285Y-55460714D01*
X115116428Y-55532142D01*
X115045000Y-55603571D01*
X114973571Y-55746428D01*
X114973571Y-56103571D01*
X115045000Y-56317857D01*
X115902142Y-56960714D02*
X115902142Y-58103571D01*
X115473571Y-59460714D02*
X116473571Y-59460714D01*
X114902142Y-59103571D02*
X115973571Y-58746428D01*
X115973571Y-59675000D01*
X117523571Y-53817857D02*
X119023571Y-54317857D01*
X117523571Y-54817857D01*
X119023571Y-55532142D02*
X118952142Y-55389285D01*
X118880714Y-55317857D01*
X118737857Y-55246428D01*
X118309285Y-55246428D01*
X118166428Y-55317857D01*
X118095000Y-55389285D01*
X118023571Y-55532142D01*
X118023571Y-55746428D01*
X118095000Y-55889285D01*
X118166428Y-55960714D01*
X118309285Y-56032142D01*
X118737857Y-56032142D01*
X118880714Y-55960714D01*
X118952142Y-55889285D01*
X119023571Y-55746428D01*
X119023571Y-55532142D01*
X118452142Y-56675000D02*
X118452142Y-57817857D01*
X117523571Y-58389285D02*
X117523571Y-59317857D01*
X118095000Y-58817857D01*
X118095000Y-59032142D01*
X118166428Y-59175000D01*
X118237857Y-59246428D01*
X118380714Y-59317857D01*
X118737857Y-59317857D01*
X118880714Y-59246428D01*
X118952142Y-59175000D01*
X119023571Y-59032142D01*
X119023571Y-58603571D01*
X118952142Y-58460714D01*
X118880714Y-58389285D01*
X120073571Y-53817857D02*
X121573571Y-54317857D01*
X120073571Y-54817857D01*
X121573571Y-55317857D02*
X120073571Y-55317857D01*
X120073571Y-55675000D01*
X120145000Y-55889285D01*
X120287857Y-56032142D01*
X120430714Y-56103571D01*
X120716428Y-56175000D01*
X120930714Y-56175000D01*
X121216428Y-56103571D01*
X121359285Y-56032142D01*
X121502142Y-55889285D01*
X121573571Y-55675000D01*
X121573571Y-55317857D01*
X121573571Y-56817857D02*
X120073571Y-56817857D01*
X120073571Y-57175000D01*
X120145000Y-57389285D01*
X120287857Y-57532142D01*
X120430714Y-57603571D01*
X120716428Y-57675000D01*
X120930714Y-57675000D01*
X121216428Y-57603571D01*
X121359285Y-57532142D01*
X121502142Y-57389285D01*
X121573571Y-57175000D01*
X121573571Y-56817857D01*
X121002142Y-58317857D02*
X121002142Y-59460714D01*
X120216428Y-60103571D02*
X120145000Y-60175000D01*
X120073571Y-60317857D01*
X120073571Y-60675000D01*
X120145000Y-60817857D01*
X120216428Y-60889285D01*
X120359285Y-60960714D01*
X120502142Y-60960714D01*
X120716428Y-60889285D01*
X121573571Y-60032142D01*
X121573571Y-60960714D01*
X122623571Y-53817857D02*
X124123571Y-54317857D01*
X122623571Y-54817857D01*
X124052142Y-55246428D02*
X124123571Y-55460714D01*
X124123571Y-55817857D01*
X124052142Y-55960714D01*
X123980714Y-56032142D01*
X123837857Y-56103571D01*
X123695000Y-56103571D01*
X123552142Y-56032142D01*
X123480714Y-55960714D01*
X123409285Y-55817857D01*
X123337857Y-55532142D01*
X123266428Y-55389285D01*
X123195000Y-55317857D01*
X123052142Y-55246428D01*
X122909285Y-55246428D01*
X122766428Y-55317857D01*
X122695000Y-55389285D01*
X122623571Y-55532142D01*
X122623571Y-55889285D01*
X122695000Y-56103571D01*
X124052142Y-56675000D02*
X124123571Y-56889285D01*
X124123571Y-57246428D01*
X124052142Y-57389285D01*
X123980714Y-57460714D01*
X123837857Y-57532142D01*
X123695000Y-57532142D01*
X123552142Y-57460714D01*
X123480714Y-57389285D01*
X123409285Y-57246428D01*
X123337857Y-56960714D01*
X123266428Y-56817857D01*
X123195000Y-56746428D01*
X123052142Y-56675000D01*
X122909285Y-56675000D01*
X122766428Y-56746428D01*
X122695000Y-56817857D01*
X122623571Y-56960714D01*
X122623571Y-57317857D01*
X122695000Y-57532142D01*
X123552142Y-58175000D02*
X123552142Y-59317857D01*
X124123571Y-60817857D02*
X124123571Y-59960714D01*
X124123571Y-60389285D02*
X122623571Y-60389285D01*
X122837857Y-60246428D01*
X122980714Y-60103571D01*
X123052142Y-59960714D01*
X126245000Y-53960714D02*
X126245000Y-54675000D01*
X126673571Y-53817857D02*
X125173571Y-54317857D01*
X126673571Y-54817857D01*
X126102142Y-56460714D02*
X126102142Y-57603571D01*
X126673571Y-59103571D02*
X126673571Y-58246428D01*
X126673571Y-58675000D02*
X125173571Y-58675000D01*
X125387857Y-58532142D01*
X125530714Y-58389285D01*
X125602142Y-58246428D01*
X125173571Y-60389285D02*
X125173571Y-60103571D01*
X125245000Y-59960714D01*
X125316428Y-59889285D01*
X125530714Y-59746428D01*
X125816428Y-59675000D01*
X126387857Y-59675000D01*
X126530714Y-59746428D01*
X126602142Y-59817857D01*
X126673571Y-59960714D01*
X126673571Y-60246428D01*
X126602142Y-60389285D01*
X126530714Y-60460714D01*
X126387857Y-60532142D01*
X126030714Y-60532142D01*
X125887857Y-60460714D01*
X125816428Y-60389285D01*
X125745000Y-60246428D01*
X125745000Y-59960714D01*
X125816428Y-59817857D01*
X125887857Y-59746428D01*
X126030714Y-59675000D01*
X129223571Y-54032142D02*
X127723571Y-54032142D01*
X129223571Y-54889285D02*
X128366428Y-54246428D01*
X127723571Y-54889285D02*
X128580714Y-54032142D01*
X128652142Y-56675000D02*
X128652142Y-57817857D01*
X129223571Y-59317857D02*
X129223571Y-58460714D01*
X129223571Y-58889285D02*
X127723571Y-58889285D01*
X127937857Y-58746428D01*
X128080714Y-58603571D01*
X128152142Y-58460714D01*
X127723571Y-60675000D02*
X127723571Y-59960714D01*
X128437857Y-59889285D01*
X128366428Y-59960714D01*
X128295000Y-60103571D01*
X128295000Y-60460714D01*
X128366428Y-60603571D01*
X128437857Y-60675000D01*
X128580714Y-60746428D01*
X128937857Y-60746428D01*
X129080714Y-60675000D01*
X129152142Y-60603571D01*
X129223571Y-60460714D01*
X129223571Y-60103571D01*
X129152142Y-59960714D01*
X129080714Y-59889285D01*
D11*
X119130000Y-46410952D02*
X120558571Y-46410952D01*
X119844285Y-46410952D02*
X119844285Y-43910952D01*
X120082380Y-44268095D01*
X120320476Y-44506190D01*
X120558571Y-44625238D01*
X116987142Y-43910952D02*
X117463333Y-43910952D01*
X117701428Y-44030000D01*
X117820476Y-44149047D01*
X118058571Y-44506190D01*
X118177619Y-44982380D01*
X118177619Y-45934761D01*
X118058571Y-46172857D01*
X117939523Y-46291904D01*
X117701428Y-46410952D01*
X117225238Y-46410952D01*
X116987142Y-46291904D01*
X116868095Y-46172857D01*
X116749047Y-45934761D01*
X116749047Y-45339523D01*
X116868095Y-45101428D01*
X116987142Y-44982380D01*
X117225238Y-44863333D01*
X117701428Y-44863333D01*
X117939523Y-44982380D01*
X118058571Y-45101428D01*
X118177619Y-45339523D01*
X115201428Y-43910952D02*
X114963333Y-43910952D01*
X114725238Y-44030000D01*
X114606190Y-44149047D01*
X114487142Y-44387142D01*
X114368095Y-44863333D01*
X114368095Y-45458571D01*
X114487142Y-45934761D01*
X114606190Y-46172857D01*
X114725238Y-46291904D01*
X114963333Y-46410952D01*
X115201428Y-46410952D01*
X115439523Y-46291904D01*
X115558571Y-46172857D01*
X115677619Y-45934761D01*
X115796666Y-45458571D01*
X115796666Y-44863333D01*
X115677619Y-44387142D01*
X115558571Y-44149047D01*
X115439523Y-44030000D01*
X115201428Y-43910952D01*
X113415714Y-44149047D02*
X113296666Y-44030000D01*
X113058571Y-43910952D01*
X112463333Y-43910952D01*
X112225238Y-44030000D01*
X112106190Y-44149047D01*
X111987142Y-44387142D01*
X111987142Y-44625238D01*
X112106190Y-44982380D01*
X113534761Y-46410952D01*
X111987142Y-46410952D01*
X109010952Y-46410952D02*
X109010952Y-43910952D01*
X108415714Y-43910952D01*
X108058571Y-44030000D01*
X107820476Y-44268095D01*
X107701428Y-44506190D01*
X107582380Y-44982380D01*
X107582380Y-45339523D01*
X107701428Y-45815714D01*
X107820476Y-46053809D01*
X108058571Y-46291904D01*
X108415714Y-46410952D01*
X109010952Y-46410952D01*
X106510952Y-46410952D02*
X106510952Y-43910952D01*
X105439523Y-46291904D02*
X105082380Y-46410952D01*
X104487142Y-46410952D01*
X104249047Y-46291904D01*
X104130000Y-46172857D01*
X104010952Y-45934761D01*
X104010952Y-45696666D01*
X104130000Y-45458571D01*
X104249047Y-45339523D01*
X104487142Y-45220476D01*
X104963333Y-45101428D01*
X105201428Y-44982380D01*
X105320476Y-44863333D01*
X105439523Y-44625238D01*
X105439523Y-44387142D01*
X105320476Y-44149047D01*
X105201428Y-44030000D01*
X104963333Y-43910952D01*
X104368095Y-43910952D01*
X104010952Y-44030000D01*
X102939523Y-46410952D02*
X102939523Y-43910952D01*
X101987142Y-43910952D01*
X101749047Y-44030000D01*
X101630000Y-44149047D01*
X101510952Y-44387142D01*
X101510952Y-44744285D01*
X101630000Y-44982380D01*
X101749047Y-45101428D01*
X101987142Y-45220476D01*
X102939523Y-45220476D01*
X99249047Y-46410952D02*
X100439523Y-46410952D01*
X100439523Y-43910952D01*
X98534761Y-45696666D02*
X97344285Y-45696666D01*
X98772857Y-46410952D02*
X97939523Y-43910952D01*
X97106190Y-46410952D01*
X95796666Y-45220476D02*
X95796666Y-46410952D01*
X96630000Y-43910952D02*
X95796666Y-45220476D01*
X94963333Y-43910952D01*
X204943333Y-46440952D02*
X204943333Y-43940952D01*
X203990952Y-43940952D01*
X203752857Y-44060000D01*
X203633809Y-44179047D01*
X203514761Y-44417142D01*
X203514761Y-44774285D01*
X203633809Y-45012380D01*
X203752857Y-45131428D01*
X203990952Y-45250476D01*
X204943333Y-45250476D01*
X201014761Y-46202857D02*
X201133809Y-46321904D01*
X201490952Y-46440952D01*
X201729047Y-46440952D01*
X202086190Y-46321904D01*
X202324285Y-46083809D01*
X202443333Y-45845714D01*
X202562380Y-45369523D01*
X202562380Y-45012380D01*
X202443333Y-44536190D01*
X202324285Y-44298095D01*
X202086190Y-44060000D01*
X201729047Y-43940952D01*
X201490952Y-43940952D01*
X201133809Y-44060000D01*
X201014761Y-44179047D01*
X199110000Y-45131428D02*
X199943333Y-45131428D01*
X199943333Y-46440952D02*
X199943333Y-43940952D01*
X198752857Y-43940952D01*
X197443333Y-45012380D02*
X197681428Y-44893333D01*
X197800476Y-44774285D01*
X197919523Y-44536190D01*
X197919523Y-44417142D01*
X197800476Y-44179047D01*
X197681428Y-44060000D01*
X197443333Y-43940952D01*
X196967142Y-43940952D01*
X196729047Y-44060000D01*
X196610000Y-44179047D01*
X196490952Y-44417142D01*
X196490952Y-44536190D01*
X196610000Y-44774285D01*
X196729047Y-44893333D01*
X196967142Y-45012380D01*
X197443333Y-45012380D01*
X197681428Y-45131428D01*
X197800476Y-45250476D01*
X197919523Y-45488571D01*
X197919523Y-45964761D01*
X197800476Y-46202857D01*
X197681428Y-46321904D01*
X197443333Y-46440952D01*
X196967142Y-46440952D01*
X196729047Y-46321904D01*
X196610000Y-46202857D01*
X196490952Y-45964761D01*
X196490952Y-45488571D01*
X196610000Y-45250476D01*
X196729047Y-45131428D01*
X196967142Y-45012380D01*
X194229047Y-43940952D02*
X195419523Y-43940952D01*
X195538571Y-45131428D01*
X195419523Y-45012380D01*
X195181428Y-44893333D01*
X194586190Y-44893333D01*
X194348095Y-45012380D01*
X194229047Y-45131428D01*
X194110000Y-45369523D01*
X194110000Y-45964761D01*
X194229047Y-46202857D01*
X194348095Y-46321904D01*
X194586190Y-46440952D01*
X195181428Y-46440952D01*
X195419523Y-46321904D01*
X195538571Y-46202857D01*
X193276666Y-43940952D02*
X191610000Y-43940952D01*
X192681428Y-46440952D01*
X189586190Y-44774285D02*
X189586190Y-46440952D01*
X190181428Y-43821904D02*
X190776666Y-45607619D01*
X189229047Y-45607619D01*
X188395714Y-45726666D02*
X187205238Y-45726666D01*
X188633809Y-46440952D02*
X187800476Y-43940952D01*
X186967142Y-46440952D01*
X184824285Y-46440952D02*
X186252857Y-46440952D01*
X185538571Y-46440952D02*
X185538571Y-43940952D01*
X185776666Y-44298095D01*
X186014761Y-44536190D01*
X186252857Y-44655238D01*
X181014761Y-45131428D02*
X180657619Y-45250476D01*
X180538571Y-45369523D01*
X180419523Y-45607619D01*
X180419523Y-45964761D01*
X180538571Y-46202857D01*
X180657619Y-46321904D01*
X180895714Y-46440952D01*
X181848095Y-46440952D01*
X181848095Y-43940952D01*
X181014761Y-43940952D01*
X180776666Y-44060000D01*
X180657619Y-44179047D01*
X180538571Y-44417142D01*
X180538571Y-44655238D01*
X180657619Y-44893333D01*
X180776666Y-45012380D01*
X181014761Y-45131428D01*
X181848095Y-45131428D01*
X178871904Y-43940952D02*
X178395714Y-43940952D01*
X178157619Y-44060000D01*
X177919523Y-44298095D01*
X177800476Y-44774285D01*
X177800476Y-45607619D01*
X177919523Y-46083809D01*
X178157619Y-46321904D01*
X178395714Y-46440952D01*
X178871904Y-46440952D01*
X179110000Y-46321904D01*
X179348095Y-46083809D01*
X179467142Y-45607619D01*
X179467142Y-44774285D01*
X179348095Y-44298095D01*
X179110000Y-44060000D01*
X178871904Y-43940952D01*
X176848095Y-45726666D02*
X175657619Y-45726666D01*
X177086190Y-46440952D02*
X176252857Y-43940952D01*
X175419523Y-46440952D01*
X173157619Y-46440952D02*
X173990952Y-45250476D01*
X174586190Y-46440952D02*
X174586190Y-43940952D01*
X173633809Y-43940952D01*
X173395714Y-44060000D01*
X173276666Y-44179047D01*
X173157619Y-44417142D01*
X173157619Y-44774285D01*
X173276666Y-45012380D01*
X173395714Y-45131428D01*
X173633809Y-45250476D01*
X174586190Y-45250476D01*
X172086190Y-46440952D02*
X172086190Y-43940952D01*
X171490952Y-43940952D01*
X171133809Y-44060000D01*
X170895714Y-44298095D01*
X170776666Y-44536190D01*
X170657619Y-45012380D01*
X170657619Y-45369523D01*
X170776666Y-45845714D01*
X170895714Y-46083809D01*
X171133809Y-46321904D01*
X171490952Y-46440952D01*
X172086190Y-46440952D01*
D12*
X166050000Y-53720000D02*
X166060000Y-37870000D01*
X166070000Y-37870000D02*
X166060000Y-37870000D01*
X206840000Y-37860000D02*
X166070000Y-37870000D01*
X206860000Y-53690000D02*
X206840000Y-37860000D01*
X166050000Y-53720000D02*
X206860000Y-53690000D01*
X142850000Y-10620000D02*
X142840000Y-22700000D01*
X159720000Y-22710000D02*
X159700000Y-9770000D01*
X159400000Y-22700000D02*
X159720000Y-22710000D01*
X159360000Y-22700000D02*
X159400000Y-22700000D01*
X136530000Y-22700000D02*
X159360000Y-22700000D01*
X136530000Y-22700000D02*
X136550000Y-10620000D01*
X87110000Y-22680000D02*
X136530000Y-22700000D01*
X87110000Y-9320000D02*
X87110000Y-22680000D01*
D13*
X234040000Y-9300000D02*
X160610000Y-9330000D01*
X235330000Y-10590000D02*
X235290000Y-169120000D01*
X78440000Y-170400000D02*
X234000000Y-170410000D01*
X77000000Y-10640000D02*
X77150000Y-169110000D01*
X78290000Y-9350000D02*
X87000000Y-9350000D01*
X77000000Y-10640000D02*
G75*
G02X78290000Y-9350000I1290000J0D01*
G01*
X78440000Y-170400000D02*
G75*
G02X77150000Y-169110000I0J1290000D01*
G01*
X235290000Y-169120000D02*
G75*
G02X234000000Y-170410000I-1290000J0D01*
G01*
X234040000Y-9300000D02*
G75*
G02X235330000Y-10590000I0J-1290000D01*
G01*
X137890000Y-9330000D02*
X141450000Y-9330000D01*
X136600000Y-10620000D02*
X88290000Y-10640000D01*
X136600000Y-10620000D02*
G75*
G02X137890000Y-9330000I1290000J0D01*
G01*
X87000000Y-9350000D02*
G75*
G02X88290000Y-10640000I0J-1290000D01*
G01*
X142740000Y-10620000D02*
X159320000Y-10620000D01*
X159320000Y-10620000D02*
G75*
G02X160610000Y-9330000I1290000J0D01*
G01*
X141450000Y-9330000D02*
G75*
G02X142740000Y-10620000I0J-1290000D01*
G01*
D12*
X131999682Y-120830000D02*
G75*
G03X131999682Y-120830000I-629682J0D01*
G01*
X195118013Y-83860000D02*
G75*
G03X195118013Y-83860000I-628013J0D01*
G01*
X219669365Y-146290000D02*
G75*
G03X219669365Y-146290000I-629365J0D01*
G01*
D14*
X184660000Y-124260000D02*
X198110000Y-124260000D01*
X198110000Y-124260000D02*
X198110000Y-125810000D01*
X198110000Y-125810000D02*
X198760000Y-125810000D01*
X198760000Y-125810000D02*
X198760000Y-131710000D01*
X184660000Y-133210000D02*
X184660000Y-124260000D01*
X198110000Y-131710000D02*
X198110000Y-133210000D01*
X198110000Y-133210000D02*
X184660000Y-133210000D01*
D15*
X152630000Y-78321679D02*
G75*
G03X152630000Y-78321679I-1550000J0D01*
G01*
X97190000Y-160020000D02*
G75*
G02X87190000Y-150020000I0J10000000D01*
G01*
X94110000Y-65020000D02*
X195620000Y-65020000D01*
X104620000Y-147110000D02*
X207740000Y-147120000D01*
X104621152Y-147109678D02*
G75*
G02X101960000Y-144490000I-41152J2619677D01*
G01*
X210359982Y-144458847D02*
G75*
G02X207740305Y-147120000I-2619677J-41153D01*
G01*
X218560000Y-141520000D02*
G75*
G03X218560000Y-141520000I-3400000J0D01*
G01*
X101960018Y-137781153D02*
G75*
G02X104579695Y-135120000I2619677J41153D01*
G01*
X218360000Y-97450000D02*
G75*
G03X218360000Y-97450000I-3200000J0D01*
G01*
X225080000Y-150020000D02*
X225090000Y-94600000D01*
X100360000Y-97450000D02*
G75*
G03X100360000Y-97450000I-3200000J0D01*
G01*
X210360000Y-144460000D02*
X210360000Y-137740000D01*
X224350000Y-92710000D02*
X197461695Y-65795663D01*
X101960000Y-137780000D02*
X101960000Y-144490000D01*
X100560000Y-141520000D02*
G75*
G03X100560000Y-141520000I-3400000J0D01*
G01*
X87190000Y-150020000D02*
X87190000Y-71860000D01*
D14*
X198760000Y-131710000D02*
X198110000Y-131710000D01*
D15*
X97190000Y-160020000D02*
X215080000Y-160020000D01*
X207698843Y-135120018D02*
G75*
G02X210359996Y-137739695I41153J-2619677D01*
G01*
X87190094Y-71860256D02*
G75*
G02X94110000Y-65020000I6850364J-9762D01*
G01*
X224349641Y-92710631D02*
G75*
G02X225090000Y-94599045I-1859641J-1818415D01*
G01*
X104580000Y-135120000D02*
X207700000Y-135120000D01*
X195620000Y-65019946D02*
G75*
G02X197461695Y-65795663I-10923J-2600052D01*
G01*
X225080000Y-150020000D02*
G75*
G02X215080000Y-160020000I-10000000J0D01*
G01*
D10*
X137533571Y-14084285D02*
X137533571Y-13370000D01*
X138247857Y-13298571D01*
X138176428Y-13370000D01*
X138105000Y-13512857D01*
X138105000Y-13870000D01*
X138176428Y-14012857D01*
X138247857Y-14084285D01*
X138390714Y-14155714D01*
X138747857Y-14155714D01*
X138890714Y-14084285D01*
X138962142Y-14012857D01*
X139033571Y-13870000D01*
X139033571Y-13512857D01*
X138962142Y-13370000D01*
X138890714Y-13298571D01*
X137533571Y-14584285D02*
X139033571Y-15084285D01*
X137533571Y-15584285D01*
X140083571Y-10762857D02*
X141155000Y-10762857D01*
X141369285Y-10691428D01*
X141512142Y-10548571D01*
X141583571Y-10334285D01*
X141583571Y-10191428D01*
X140083571Y-11477142D02*
X141297857Y-11477142D01*
X141440714Y-11548571D01*
X141512142Y-11620000D01*
X141583571Y-11762857D01*
X141583571Y-12048571D01*
X141512142Y-12191428D01*
X141440714Y-12262857D01*
X141297857Y-12334285D01*
X140083571Y-12334285D01*
X141583571Y-13048571D02*
X140083571Y-13048571D01*
X141155000Y-13548571D01*
X140083571Y-14048571D01*
X141583571Y-14048571D01*
X141583571Y-14762857D02*
X140083571Y-14762857D01*
X140083571Y-15334285D01*
X140155000Y-15477142D01*
X140226428Y-15548571D01*
X140369285Y-15620000D01*
X140583571Y-15620000D01*
X140726428Y-15548571D01*
X140797857Y-15477142D01*
X140869285Y-15334285D01*
X140869285Y-14762857D01*
X140797857Y-16262857D02*
X140797857Y-16762857D01*
X141583571Y-16977142D02*
X141583571Y-16262857D01*
X140083571Y-16262857D01*
X140083571Y-16977142D01*
X141583571Y-18477142D02*
X140869285Y-17977142D01*
X141583571Y-17620000D02*
X140083571Y-17620000D01*
X140083571Y-18191428D01*
X140155000Y-18334285D01*
X140226428Y-18405714D01*
X140369285Y-18477142D01*
X140583571Y-18477142D01*
X140726428Y-18405714D01*
X140797857Y-18334285D01*
X140869285Y-18191428D01*
X140869285Y-17620000D01*
D12*
X187131071Y-14250000D02*
X187202500Y-14214285D01*
X187309642Y-14214285D01*
X187416785Y-14250000D01*
X187488214Y-14321428D01*
X187523928Y-14392857D01*
X187559642Y-14535714D01*
X187559642Y-14642857D01*
X187523928Y-14785714D01*
X187488214Y-14857142D01*
X187416785Y-14928571D01*
X187309642Y-14964285D01*
X187238214Y-14964285D01*
X187131071Y-14928571D01*
X187095357Y-14892857D01*
X187095357Y-14642857D01*
X187238214Y-14642857D01*
X186773928Y-14964285D02*
X186773928Y-14214285D01*
X186345357Y-14964285D01*
X186345357Y-14214285D01*
X185988214Y-14964285D02*
X185988214Y-14214285D01*
X185809642Y-14214285D01*
X185702500Y-14250000D01*
X185631071Y-14321428D01*
X185595357Y-14392857D01*
X185559642Y-14535714D01*
X185559642Y-14642857D01*
X185595357Y-14785714D01*
X185631071Y-14857142D01*
X185702500Y-14928571D01*
X185809642Y-14964285D01*
X185988214Y-14964285D01*
X187131071Y-16800000D02*
X187202500Y-16764285D01*
X187309642Y-16764285D01*
X187416785Y-16800000D01*
X187488214Y-16871428D01*
X187523928Y-16942857D01*
X187559642Y-17085714D01*
X187559642Y-17192857D01*
X187523928Y-17335714D01*
X187488214Y-17407142D01*
X187416785Y-17478571D01*
X187309642Y-17514285D01*
X187238214Y-17514285D01*
X187131071Y-17478571D01*
X187095357Y-17442857D01*
X187095357Y-17192857D01*
X187238214Y-17192857D01*
X186773928Y-17514285D02*
X186773928Y-16764285D01*
X186345357Y-17514285D01*
X186345357Y-16764285D01*
X185988214Y-17514285D02*
X185988214Y-16764285D01*
X185809642Y-16764285D01*
X185702500Y-16800000D01*
X185631071Y-16871428D01*
X185595357Y-16942857D01*
X185559642Y-17085714D01*
X185559642Y-17192857D01*
X185595357Y-17335714D01*
X185631071Y-17407142D01*
X185702500Y-17478571D01*
X185809642Y-17514285D01*
X185988214Y-17514285D01*
X187166785Y-19314285D02*
X187523928Y-19314285D01*
X187559642Y-19671428D01*
X187523928Y-19635714D01*
X187452500Y-19600000D01*
X187273928Y-19600000D01*
X187202500Y-19635714D01*
X187166785Y-19671428D01*
X187131071Y-19742857D01*
X187131071Y-19921428D01*
X187166785Y-19992857D01*
X187202500Y-20028571D01*
X187273928Y-20064285D01*
X187452500Y-20064285D01*
X187523928Y-20028571D01*
X187559642Y-19992857D01*
X186916785Y-19314285D02*
X186666785Y-20064285D01*
X186416785Y-19314285D01*
X187095357Y-22614285D02*
X187345357Y-22257142D01*
X187523928Y-22614285D02*
X187523928Y-21864285D01*
X187238214Y-21864285D01*
X187166785Y-21900000D01*
X187131071Y-21935714D01*
X187095357Y-22007142D01*
X187095357Y-22114285D01*
X187131071Y-22185714D01*
X187166785Y-22221428D01*
X187238214Y-22257142D01*
X187523928Y-22257142D01*
X186845357Y-21864285D02*
X186345357Y-22614285D01*
X186345357Y-21864285D02*
X186845357Y-22614285D01*
X187631071Y-24414285D02*
X187202500Y-24414285D01*
X187416785Y-25164285D02*
X187416785Y-24414285D01*
X187023928Y-24414285D02*
X186523928Y-25164285D01*
X186523928Y-24414285D02*
X187023928Y-25164285D01*
X187523928Y-27714285D02*
X187523928Y-26964285D01*
X187345357Y-26964285D01*
X187238214Y-27000000D01*
X187166785Y-27071428D01*
X187131071Y-27142857D01*
X187095357Y-27285714D01*
X187095357Y-27392857D01*
X187131071Y-27535714D01*
X187166785Y-27607142D01*
X187238214Y-27678571D01*
X187345357Y-27714285D01*
X187523928Y-27714285D01*
X186773928Y-27714285D02*
X186773928Y-26964285D01*
X185988214Y-27714285D02*
X186238214Y-27357142D01*
X186416785Y-27714285D02*
X186416785Y-26964285D01*
X186131071Y-26964285D01*
X186059642Y-27000000D01*
X186023928Y-27035714D01*
X185988214Y-27107142D01*
X185988214Y-27214285D01*
X186023928Y-27285714D01*
X186059642Y-27321428D01*
X186131071Y-27357142D01*
X186416785Y-27357142D01*
X190864285Y-30168928D02*
X190864285Y-30597500D01*
X191614285Y-30383214D02*
X190864285Y-30383214D01*
X190864285Y-30776071D02*
X191614285Y-31276071D01*
X190864285Y-31276071D02*
X191614285Y-30776071D01*
X191614285Y-31561785D02*
X190864285Y-31561785D01*
X190864285Y-31740357D01*
X190900000Y-31847500D01*
X190971428Y-31918928D01*
X191042857Y-31954642D01*
X191185714Y-31990357D01*
X191292857Y-31990357D01*
X191435714Y-31954642D01*
X191507142Y-31918928D01*
X191578571Y-31847500D01*
X191614285Y-31740357D01*
X191614285Y-31561785D01*
X194164285Y-30704642D02*
X193807142Y-30454642D01*
X194164285Y-30276071D02*
X193414285Y-30276071D01*
X193414285Y-30561785D01*
X193450000Y-30633214D01*
X193485714Y-30668928D01*
X193557142Y-30704642D01*
X193664285Y-30704642D01*
X193735714Y-30668928D01*
X193771428Y-30633214D01*
X193807142Y-30561785D01*
X193807142Y-30276071D01*
X193414285Y-30954642D02*
X194164285Y-31454642D01*
X193414285Y-31454642D02*
X194164285Y-30954642D01*
X194164285Y-31740357D02*
X193414285Y-31740357D01*
X193414285Y-31918928D01*
X193450000Y-32026071D01*
X193521428Y-32097500D01*
X193592857Y-32133214D01*
X193735714Y-32168928D01*
X193842857Y-32168928D01*
X193985714Y-32133214D01*
X194057142Y-32097500D01*
X194128571Y-32026071D01*
X194164285Y-31918928D01*
X194164285Y-31740357D01*
X196714285Y-30704642D02*
X196357142Y-30454642D01*
X196714285Y-30276071D02*
X195964285Y-30276071D01*
X195964285Y-30561785D01*
X196000000Y-30633214D01*
X196035714Y-30668928D01*
X196107142Y-30704642D01*
X196214285Y-30704642D01*
X196285714Y-30668928D01*
X196321428Y-30633214D01*
X196357142Y-30561785D01*
X196357142Y-30276071D01*
X196321428Y-31026071D02*
X196321428Y-31276071D01*
X196714285Y-31383214D02*
X196714285Y-31026071D01*
X195964285Y-31026071D01*
X195964285Y-31383214D01*
X196678571Y-31668928D02*
X196714285Y-31776071D01*
X196714285Y-31954642D01*
X196678571Y-32026071D01*
X196642857Y-32061785D01*
X196571428Y-32097500D01*
X196500000Y-32097500D01*
X196428571Y-32061785D01*
X196392857Y-32026071D01*
X196357142Y-31954642D01*
X196321428Y-31811785D01*
X196285714Y-31740357D01*
X196250000Y-31704642D01*
X196178571Y-31668928D01*
X196107142Y-31668928D01*
X196035714Y-31704642D01*
X196000000Y-31740357D01*
X195964285Y-31811785D01*
X195964285Y-31990357D01*
X196000000Y-32097500D01*
X196321428Y-32418928D02*
X196321428Y-32668928D01*
X196714285Y-32776071D02*
X196714285Y-32418928D01*
X195964285Y-32418928D01*
X195964285Y-32776071D01*
X195964285Y-32990357D02*
X195964285Y-33418928D01*
X196714285Y-33204642D02*
X195964285Y-33204642D01*
X198550000Y-30668928D02*
X198514285Y-30597500D01*
X198514285Y-30490357D01*
X198550000Y-30383214D01*
X198621428Y-30311785D01*
X198692857Y-30276071D01*
X198835714Y-30240357D01*
X198942857Y-30240357D01*
X199085714Y-30276071D01*
X199157142Y-30311785D01*
X199228571Y-30383214D01*
X199264285Y-30490357D01*
X199264285Y-30561785D01*
X199228571Y-30668928D01*
X199192857Y-30704642D01*
X198942857Y-30704642D01*
X198942857Y-30561785D01*
X199264285Y-31026071D02*
X198514285Y-31026071D01*
X199264285Y-31454642D01*
X198514285Y-31454642D01*
X199264285Y-31811785D02*
X198514285Y-31811785D01*
X198514285Y-31990357D01*
X198550000Y-32097500D01*
X198621428Y-32168928D01*
X198692857Y-32204642D01*
X198835714Y-32240357D01*
X198942857Y-32240357D01*
X199085714Y-32204642D01*
X199157142Y-32168928D01*
X199228571Y-32097500D01*
X199264285Y-31990357D01*
X199264285Y-31811785D01*
X201135714Y-30240357D02*
X201100000Y-30276071D01*
X201064285Y-30347500D01*
X201064285Y-30526071D01*
X201100000Y-30597500D01*
X201135714Y-30633214D01*
X201207142Y-30668928D01*
X201278571Y-30668928D01*
X201385714Y-30633214D01*
X201814285Y-30204642D01*
X201814285Y-30668928D01*
X203614285Y-30204642D02*
X203614285Y-30668928D01*
X203900000Y-30418928D01*
X203900000Y-30526071D01*
X203935714Y-30597500D01*
X203971428Y-30633214D01*
X204042857Y-30668928D01*
X204221428Y-30668928D01*
X204292857Y-30633214D01*
X204328571Y-30597500D01*
X204364285Y-30526071D01*
X204364285Y-30311785D01*
X204328571Y-30240357D01*
X204292857Y-30204642D01*
X206414285Y-30597500D02*
X206914285Y-30597500D01*
X206128571Y-30418928D02*
X206664285Y-30240357D01*
X206664285Y-30704642D01*
X208714285Y-30633214D02*
X208714285Y-30276071D01*
X209071428Y-30240357D01*
X209035714Y-30276071D01*
X209000000Y-30347500D01*
X209000000Y-30526071D01*
X209035714Y-30597500D01*
X209071428Y-30633214D01*
X209142857Y-30668928D01*
X209321428Y-30668928D01*
X209392857Y-30633214D01*
X209428571Y-30597500D01*
X209464285Y-30526071D01*
X209464285Y-30347500D01*
X209428571Y-30276071D01*
X209392857Y-30240357D01*
X211264285Y-30597500D02*
X211264285Y-30454642D01*
X211300000Y-30383214D01*
X211335714Y-30347500D01*
X211442857Y-30276071D01*
X211585714Y-30240357D01*
X211871428Y-30240357D01*
X211942857Y-30276071D01*
X211978571Y-30311785D01*
X212014285Y-30383214D01*
X212014285Y-30526071D01*
X211978571Y-30597500D01*
X211942857Y-30633214D01*
X211871428Y-30668928D01*
X211692857Y-30668928D01*
X211621428Y-30633214D01*
X211585714Y-30597500D01*
X211550000Y-30526071D01*
X211550000Y-30383214D01*
X211585714Y-30311785D01*
X211621428Y-30276071D01*
X211692857Y-30240357D01*
X213814285Y-30204642D02*
X213814285Y-30704642D01*
X214564285Y-30383214D01*
X216685714Y-30383214D02*
X216650000Y-30311785D01*
X216614285Y-30276071D01*
X216542857Y-30240357D01*
X216507142Y-30240357D01*
X216435714Y-30276071D01*
X216400000Y-30311785D01*
X216364285Y-30383214D01*
X216364285Y-30526071D01*
X216400000Y-30597500D01*
X216435714Y-30633214D01*
X216507142Y-30668928D01*
X216542857Y-30668928D01*
X216614285Y-30633214D01*
X216650000Y-30597500D01*
X216685714Y-30526071D01*
X216685714Y-30383214D01*
X216721428Y-30311785D01*
X216757142Y-30276071D01*
X216828571Y-30240357D01*
X216971428Y-30240357D01*
X217042857Y-30276071D01*
X217078571Y-30311785D01*
X217114285Y-30383214D01*
X217114285Y-30526071D01*
X217078571Y-30597500D01*
X217042857Y-30633214D01*
X216971428Y-30668928D01*
X216828571Y-30668928D01*
X216757142Y-30633214D01*
X216721428Y-30597500D01*
X216685714Y-30526071D01*
X219664285Y-30311785D02*
X219664285Y-30454642D01*
X219628571Y-30526071D01*
X219592857Y-30561785D01*
X219485714Y-30633214D01*
X219342857Y-30668928D01*
X219057142Y-30668928D01*
X218985714Y-30633214D01*
X218950000Y-30597500D01*
X218914285Y-30526071D01*
X218914285Y-30383214D01*
X218950000Y-30311785D01*
X218985714Y-30276071D01*
X219057142Y-30240357D01*
X219235714Y-30240357D01*
X219307142Y-30276071D01*
X219342857Y-30311785D01*
X219378571Y-30383214D01*
X219378571Y-30526071D01*
X219342857Y-30597500D01*
X219307142Y-30633214D01*
X219235714Y-30668928D01*
X191714285Y-10759642D02*
X191357142Y-10509642D01*
X191714285Y-10331071D02*
X190964285Y-10331071D01*
X190964285Y-10616785D01*
X191000000Y-10688214D01*
X191035714Y-10723928D01*
X191107142Y-10759642D01*
X191214285Y-10759642D01*
X191285714Y-10723928D01*
X191321428Y-10688214D01*
X191357142Y-10616785D01*
X191357142Y-10331071D01*
X191500000Y-11045357D02*
X191500000Y-11402500D01*
X191714285Y-10973928D02*
X190964285Y-11223928D01*
X191714285Y-11473928D01*
X190964285Y-11652500D02*
X191714285Y-11831071D01*
X191178571Y-11973928D01*
X191714285Y-12116785D01*
X190964285Y-12295357D01*
X193550000Y-10688214D02*
X193514285Y-10616785D01*
X193514285Y-10509642D01*
X193550000Y-10402500D01*
X193621428Y-10331071D01*
X193692857Y-10295357D01*
X193835714Y-10259642D01*
X193942857Y-10259642D01*
X194085714Y-10295357D01*
X194157142Y-10331071D01*
X194228571Y-10402500D01*
X194264285Y-10509642D01*
X194264285Y-10581071D01*
X194228571Y-10688214D01*
X194192857Y-10723928D01*
X193942857Y-10723928D01*
X193942857Y-10581071D01*
X194264285Y-11045357D02*
X193514285Y-11045357D01*
X194264285Y-11473928D01*
X193514285Y-11473928D01*
X194264285Y-11831071D02*
X193514285Y-11831071D01*
X193514285Y-12009642D01*
X193550000Y-12116785D01*
X193621428Y-12188214D01*
X193692857Y-12223928D01*
X193835714Y-12259642D01*
X193942857Y-12259642D01*
X194085714Y-12223928D01*
X194157142Y-12188214D01*
X194228571Y-12116785D01*
X194264285Y-12009642D01*
X194264285Y-11831071D01*
X196814285Y-9616785D02*
X196457142Y-9366785D01*
X196814285Y-9188214D02*
X196064285Y-9188214D01*
X196064285Y-9473928D01*
X196100000Y-9545357D01*
X196135714Y-9581071D01*
X196207142Y-9616785D01*
X196314285Y-9616785D01*
X196385714Y-9581071D01*
X196421428Y-9545357D01*
X196457142Y-9473928D01*
X196457142Y-9188214D01*
X196421428Y-9938214D02*
X196421428Y-10188214D01*
X196814285Y-10295357D02*
X196814285Y-9938214D01*
X196064285Y-9938214D01*
X196064285Y-10295357D01*
X196778571Y-10581071D02*
X196814285Y-10688214D01*
X196814285Y-10866785D01*
X196778571Y-10938214D01*
X196742857Y-10973928D01*
X196671428Y-11009642D01*
X196600000Y-11009642D01*
X196528571Y-10973928D01*
X196492857Y-10938214D01*
X196457142Y-10866785D01*
X196421428Y-10723928D01*
X196385714Y-10652500D01*
X196350000Y-10616785D01*
X196278571Y-10581071D01*
X196207142Y-10581071D01*
X196135714Y-10616785D01*
X196100000Y-10652500D01*
X196064285Y-10723928D01*
X196064285Y-10902500D01*
X196100000Y-11009642D01*
X196421428Y-11331071D02*
X196421428Y-11581071D01*
X196814285Y-11688214D02*
X196814285Y-11331071D01*
X196064285Y-11331071D01*
X196064285Y-11688214D01*
X196064285Y-11902500D02*
X196064285Y-12331071D01*
X196814285Y-12116785D02*
X196064285Y-12116785D01*
X198614285Y-10331071D02*
X199364285Y-10581071D01*
X198614285Y-10831071D01*
X199292857Y-11509642D02*
X199328571Y-11473928D01*
X199364285Y-11366785D01*
X199364285Y-11295357D01*
X199328571Y-11188214D01*
X199257142Y-11116785D01*
X199185714Y-11081071D01*
X199042857Y-11045357D01*
X198935714Y-11045357D01*
X198792857Y-11081071D01*
X198721428Y-11116785D01*
X198650000Y-11188214D01*
X198614285Y-11295357D01*
X198614285Y-11366785D01*
X198650000Y-11473928D01*
X198685714Y-11509642D01*
X199292857Y-12259642D02*
X199328571Y-12223928D01*
X199364285Y-12116785D01*
X199364285Y-12045357D01*
X199328571Y-11938214D01*
X199257142Y-11866785D01*
X199185714Y-11831071D01*
X199042857Y-11795357D01*
X198935714Y-11795357D01*
X198792857Y-11831071D01*
X198721428Y-11866785D01*
X198650000Y-11938214D01*
X198614285Y-12045357D01*
X198614285Y-12116785D01*
X198650000Y-12223928D01*
X198685714Y-12259642D01*
X201700000Y-11188214D02*
X201700000Y-11545357D01*
X201914285Y-11116785D02*
X201164285Y-11366785D01*
X201914285Y-11616785D01*
X201164285Y-11795357D02*
X201164285Y-12259642D01*
X201450000Y-12009642D01*
X201450000Y-12116785D01*
X201485714Y-12188214D01*
X201521428Y-12223928D01*
X201592857Y-12259642D01*
X201771428Y-12259642D01*
X201842857Y-12223928D01*
X201878571Y-12188214D01*
X201914285Y-12116785D01*
X201914285Y-11902500D01*
X201878571Y-11831071D01*
X201842857Y-11795357D01*
X204250000Y-11188214D02*
X204250000Y-11545357D01*
X204464285Y-11116785D02*
X203714285Y-11366785D01*
X204464285Y-11616785D01*
X203785714Y-11831071D02*
X203750000Y-11866785D01*
X203714285Y-11938214D01*
X203714285Y-12116785D01*
X203750000Y-12188214D01*
X203785714Y-12223928D01*
X203857142Y-12259642D01*
X203928571Y-12259642D01*
X204035714Y-12223928D01*
X204464285Y-11795357D01*
X204464285Y-12259642D01*
X206800000Y-11188214D02*
X206800000Y-11545357D01*
X207014285Y-11116785D02*
X206264285Y-11366785D01*
X207014285Y-11616785D01*
X207014285Y-12259642D02*
X207014285Y-11831071D01*
X207014285Y-12045357D02*
X206264285Y-12045357D01*
X206371428Y-11973928D01*
X206442857Y-11902500D01*
X206478571Y-11831071D01*
X209350000Y-11188214D02*
X209350000Y-11545357D01*
X209564285Y-11116785D02*
X208814285Y-11366785D01*
X209564285Y-11616785D01*
X208814285Y-12009642D02*
X208814285Y-12081071D01*
X208850000Y-12152500D01*
X208885714Y-12188214D01*
X208957142Y-12223928D01*
X209100000Y-12259642D01*
X209278571Y-12259642D01*
X209421428Y-12223928D01*
X209492857Y-12188214D01*
X209528571Y-12152500D01*
X209564285Y-12081071D01*
X209564285Y-12009642D01*
X209528571Y-11938214D01*
X209492857Y-11902500D01*
X209421428Y-11866785D01*
X209278571Y-11831071D01*
X209100000Y-11831071D01*
X208957142Y-11866785D01*
X208885714Y-11902500D01*
X208850000Y-11938214D01*
X208814285Y-12009642D01*
X212114285Y-11545357D02*
X212114285Y-11116785D01*
X212114285Y-11331071D02*
X211364285Y-11331071D01*
X211471428Y-11259642D01*
X211542857Y-11188214D01*
X211578571Y-11116785D01*
X211364285Y-11795357D02*
X211364285Y-12259642D01*
X211650000Y-12009642D01*
X211650000Y-12116785D01*
X211685714Y-12188214D01*
X211721428Y-12223928D01*
X211792857Y-12259642D01*
X211971428Y-12259642D01*
X212042857Y-12223928D01*
X212078571Y-12188214D01*
X212114285Y-12116785D01*
X212114285Y-11902500D01*
X212078571Y-11831071D01*
X212042857Y-11795357D01*
X214664285Y-11545357D02*
X214664285Y-11116785D01*
X214664285Y-11331071D02*
X213914285Y-11331071D01*
X214021428Y-11259642D01*
X214092857Y-11188214D01*
X214128571Y-11116785D01*
X213985714Y-11831071D02*
X213950000Y-11866785D01*
X213914285Y-11938214D01*
X213914285Y-12116785D01*
X213950000Y-12188214D01*
X213985714Y-12223928D01*
X214057142Y-12259642D01*
X214128571Y-12259642D01*
X214235714Y-12223928D01*
X214664285Y-11795357D01*
X214664285Y-12259642D01*
X217214285Y-11545357D02*
X217214285Y-11116785D01*
X217214285Y-11331071D02*
X216464285Y-11331071D01*
X216571428Y-11259642D01*
X216642857Y-11188214D01*
X216678571Y-11116785D01*
X217214285Y-12259642D02*
X217214285Y-11831071D01*
X217214285Y-12045357D02*
X216464285Y-12045357D01*
X216571428Y-11973928D01*
X216642857Y-11902500D01*
X216678571Y-11831071D01*
X219764285Y-11545357D02*
X219764285Y-11116785D01*
X219764285Y-11331071D02*
X219014285Y-11331071D01*
X219121428Y-11259642D01*
X219192857Y-11188214D01*
X219228571Y-11116785D01*
X219014285Y-12009642D02*
X219014285Y-12081071D01*
X219050000Y-12152500D01*
X219085714Y-12188214D01*
X219157142Y-12223928D01*
X219300000Y-12259642D01*
X219478571Y-12259642D01*
X219621428Y-12223928D01*
X219692857Y-12188214D01*
X219728571Y-12152500D01*
X219764285Y-12081071D01*
X219764285Y-12009642D01*
X219728571Y-11938214D01*
X219692857Y-11902500D01*
X219621428Y-11866785D01*
X219478571Y-11831071D01*
X219300000Y-11831071D01*
X219157142Y-11866785D01*
X219085714Y-11902500D01*
X219050000Y-11938214D01*
X219014285Y-12009642D01*
D16*
X167737619Y-54017619D02*
X167166190Y-54017619D01*
X167451904Y-54017619D02*
X167451904Y-55017619D01*
X167356666Y-54874761D01*
X167261428Y-54779523D01*
X167166190Y-54731904D01*
X169642380Y-54922380D02*
X169690000Y-54970000D01*
X169785238Y-55017619D01*
X170023333Y-55017619D01*
X170118571Y-54970000D01*
X170166190Y-54922380D01*
X170213809Y-54827142D01*
X170213809Y-54731904D01*
X170166190Y-54589047D01*
X169594761Y-54017619D01*
X170213809Y-54017619D01*
X172070952Y-55017619D02*
X172690000Y-55017619D01*
X172356666Y-54636666D01*
X172499523Y-54636666D01*
X172594761Y-54589047D01*
X172642380Y-54541428D01*
X172690000Y-54446190D01*
X172690000Y-54208095D01*
X172642380Y-54112857D01*
X172594761Y-54065238D01*
X172499523Y-54017619D01*
X172213809Y-54017619D01*
X172118571Y-54065238D01*
X172070952Y-54112857D01*
X175070952Y-54684285D02*
X175070952Y-54017619D01*
X174832857Y-55065238D02*
X174594761Y-54350952D01*
X175213809Y-54350952D01*
X177594761Y-55017619D02*
X177118571Y-55017619D01*
X177070952Y-54541428D01*
X177118571Y-54589047D01*
X177213809Y-54636666D01*
X177451904Y-54636666D01*
X177547142Y-54589047D01*
X177594761Y-54541428D01*
X177642380Y-54446190D01*
X177642380Y-54208095D01*
X177594761Y-54112857D01*
X177547142Y-54065238D01*
X177451904Y-54017619D01*
X177213809Y-54017619D01*
X177118571Y-54065238D01*
X177070952Y-54112857D01*
X180023333Y-55017619D02*
X179832857Y-55017619D01*
X179737619Y-54970000D01*
X179690000Y-54922380D01*
X179594761Y-54779523D01*
X179547142Y-54589047D01*
X179547142Y-54208095D01*
X179594761Y-54112857D01*
X179642380Y-54065238D01*
X179737619Y-54017619D01*
X179928095Y-54017619D01*
X180023333Y-54065238D01*
X180070952Y-54112857D01*
X180118571Y-54208095D01*
X180118571Y-54446190D01*
X180070952Y-54541428D01*
X180023333Y-54589047D01*
X179928095Y-54636666D01*
X179737619Y-54636666D01*
X179642380Y-54589047D01*
X179594761Y-54541428D01*
X179547142Y-54446190D01*
X181975714Y-55017619D02*
X182642380Y-55017619D01*
X182213809Y-54017619D01*
X184690000Y-54589047D02*
X184594761Y-54636666D01*
X184547142Y-54684285D01*
X184499523Y-54779523D01*
X184499523Y-54827142D01*
X184547142Y-54922380D01*
X184594761Y-54970000D01*
X184690000Y-55017619D01*
X184880476Y-55017619D01*
X184975714Y-54970000D01*
X185023333Y-54922380D01*
X185070952Y-54827142D01*
X185070952Y-54779523D01*
X185023333Y-54684285D01*
X184975714Y-54636666D01*
X184880476Y-54589047D01*
X184690000Y-54589047D01*
X184594761Y-54541428D01*
X184547142Y-54493809D01*
X184499523Y-54398571D01*
X184499523Y-54208095D01*
X184547142Y-54112857D01*
X184594761Y-54065238D01*
X184690000Y-54017619D01*
X184880476Y-54017619D01*
X184975714Y-54065238D01*
X185023333Y-54112857D01*
X185070952Y-54208095D01*
X185070952Y-54398571D01*
X185023333Y-54493809D01*
X184975714Y-54541428D01*
X184880476Y-54589047D01*
X187070952Y-54017619D02*
X187261428Y-54017619D01*
X187356666Y-54065238D01*
X187404285Y-54112857D01*
X187499523Y-54255714D01*
X187547142Y-54446190D01*
X187547142Y-54827142D01*
X187499523Y-54922380D01*
X187451904Y-54970000D01*
X187356666Y-55017619D01*
X187166190Y-55017619D01*
X187070952Y-54970000D01*
X187023333Y-54922380D01*
X186975714Y-54827142D01*
X186975714Y-54589047D01*
X187023333Y-54493809D01*
X187070952Y-54446190D01*
X187166190Y-54398571D01*
X187356666Y-54398571D01*
X187451904Y-54446190D01*
X187499523Y-54493809D01*
X187547142Y-54589047D01*
X189261428Y-54017619D02*
X188690000Y-54017619D01*
X188975714Y-54017619D02*
X188975714Y-55017619D01*
X188880476Y-54874761D01*
X188785238Y-54779523D01*
X188690000Y-54731904D01*
X189880476Y-55017619D02*
X189975714Y-55017619D01*
X190070952Y-54970000D01*
X190118571Y-54922380D01*
X190166190Y-54827142D01*
X190213809Y-54636666D01*
X190213809Y-54398571D01*
X190166190Y-54208095D01*
X190118571Y-54112857D01*
X190070952Y-54065238D01*
X189975714Y-54017619D01*
X189880476Y-54017619D01*
X189785238Y-54065238D01*
X189737619Y-54112857D01*
X189690000Y-54208095D01*
X189642380Y-54398571D01*
X189642380Y-54636666D01*
X189690000Y-54827142D01*
X189737619Y-54922380D01*
X189785238Y-54970000D01*
X189880476Y-55017619D01*
X191928095Y-54017619D02*
X191356666Y-54017619D01*
X191642380Y-54017619D02*
X191642380Y-55017619D01*
X191547142Y-54874761D01*
X191451904Y-54779523D01*
X191356666Y-54731904D01*
X192880476Y-54017619D02*
X192309047Y-54017619D01*
X192594761Y-54017619D02*
X192594761Y-55017619D01*
X192499523Y-54874761D01*
X192404285Y-54779523D01*
X192309047Y-54731904D01*
X194594761Y-54017619D02*
X194023333Y-54017619D01*
X194309047Y-54017619D02*
X194309047Y-55017619D01*
X194213809Y-54874761D01*
X194118571Y-54779523D01*
X194023333Y-54731904D01*
X194975714Y-54922380D02*
X195023333Y-54970000D01*
X195118571Y-55017619D01*
X195356666Y-55017619D01*
X195451904Y-54970000D01*
X195499523Y-54922380D01*
X195547142Y-54827142D01*
X195547142Y-54731904D01*
X195499523Y-54589047D01*
X194928095Y-54017619D01*
X195547142Y-54017619D01*
X197261428Y-54017619D02*
X196689999Y-54017619D01*
X196975714Y-54017619D02*
X196975714Y-55017619D01*
X196880476Y-54874761D01*
X196785238Y-54779523D01*
X196689999Y-54731904D01*
X197594761Y-55017619D02*
X198213809Y-55017619D01*
X197880476Y-54636666D01*
X198023333Y-54636666D01*
X198118571Y-54589047D01*
X198166190Y-54541428D01*
X198213809Y-54446190D01*
X198213809Y-54208095D01*
X198166190Y-54112857D01*
X198118571Y-54065238D01*
X198023333Y-54017619D01*
X197737619Y-54017619D01*
X197642380Y-54065238D01*
X197594761Y-54112857D01*
X199928095Y-54017619D02*
X199356666Y-54017619D01*
X199642380Y-54017619D02*
X199642380Y-55017619D01*
X199547142Y-54874761D01*
X199451904Y-54779523D01*
X199356666Y-54731904D01*
X200785238Y-54684285D02*
X200785238Y-54017619D01*
X200547142Y-55065238D02*
X200309047Y-54350952D01*
X200928095Y-54350952D01*
X202594761Y-54017619D02*
X202023333Y-54017619D01*
X202309047Y-54017619D02*
X202309047Y-55017619D01*
X202213809Y-54874761D01*
X202118571Y-54779523D01*
X202023333Y-54731904D01*
X203499523Y-55017619D02*
X203023333Y-55017619D01*
X202975714Y-54541428D01*
X203023333Y-54589047D01*
X203118571Y-54636666D01*
X203356666Y-54636666D01*
X203451904Y-54589047D01*
X203499523Y-54541428D01*
X203547142Y-54446190D01*
X203547142Y-54208095D01*
X203499523Y-54112857D01*
X203451904Y-54065238D01*
X203356666Y-54017619D01*
X203118571Y-54017619D01*
X203023333Y-54065238D01*
X202975714Y-54112857D01*
X205261428Y-54017619D02*
X204689999Y-54017619D01*
X204975714Y-54017619D02*
X204975714Y-55017619D01*
X204880476Y-54874761D01*
X204785238Y-54779523D01*
X204689999Y-54731904D01*
X206118571Y-55017619D02*
X205928095Y-55017619D01*
X205832857Y-54970000D01*
X205785238Y-54922380D01*
X205689999Y-54779523D01*
X205642380Y-54589047D01*
X205642380Y-54208095D01*
X205689999Y-54112857D01*
X205737619Y-54065238D01*
X205832857Y-54017619D01*
X206023333Y-54017619D01*
X206118571Y-54065238D01*
X206166190Y-54112857D01*
X206213809Y-54208095D01*
X206213809Y-54446190D01*
X206166190Y-54541428D01*
X206118571Y-54589047D01*
X206023333Y-54636666D01*
X205832857Y-54636666D01*
X205737619Y-54589047D01*
X205689999Y-54541428D01*
X205642380Y-54446190D01*
D17*
X165762857Y-39796071D02*
X165655714Y-39831785D01*
X165477142Y-39831785D01*
X165405714Y-39796071D01*
X165370000Y-39760357D01*
X165334285Y-39688928D01*
X165334285Y-39617500D01*
X165370000Y-39546071D01*
X165405714Y-39510357D01*
X165477142Y-39474642D01*
X165620000Y-39438928D01*
X165691428Y-39403214D01*
X165727142Y-39367500D01*
X165762857Y-39296071D01*
X165762857Y-39224642D01*
X165727142Y-39153214D01*
X165691428Y-39117500D01*
X165620000Y-39081785D01*
X165441428Y-39081785D01*
X165334285Y-39117500D01*
X164584285Y-39760357D02*
X164620000Y-39796071D01*
X164727142Y-39831785D01*
X164798571Y-39831785D01*
X164905714Y-39796071D01*
X164977142Y-39724642D01*
X165012857Y-39653214D01*
X165048571Y-39510357D01*
X165048571Y-39403214D01*
X165012857Y-39260357D01*
X164977142Y-39188928D01*
X164905714Y-39117500D01*
X164798571Y-39081785D01*
X164727142Y-39081785D01*
X164620000Y-39117500D01*
X164584285Y-39153214D01*
X163905714Y-39831785D02*
X164262857Y-39831785D01*
X164262857Y-39081785D01*
X165780714Y-42421071D02*
X165673571Y-42456785D01*
X165495000Y-42456785D01*
X165423571Y-42421071D01*
X165387857Y-42385357D01*
X165352142Y-42313928D01*
X165352142Y-42242500D01*
X165387857Y-42171071D01*
X165423571Y-42135357D01*
X165495000Y-42099642D01*
X165637857Y-42063928D01*
X165709285Y-42028214D01*
X165745000Y-41992500D01*
X165780714Y-41921071D01*
X165780714Y-41849642D01*
X165745000Y-41778214D01*
X165709285Y-41742500D01*
X165637857Y-41706785D01*
X165459285Y-41706785D01*
X165352142Y-41742500D01*
X165030714Y-42456785D02*
X165030714Y-41706785D01*
X164852142Y-41706785D01*
X164745000Y-41742500D01*
X164673571Y-41813928D01*
X164637857Y-41885357D01*
X164602142Y-42028214D01*
X164602142Y-42135357D01*
X164637857Y-42278214D01*
X164673571Y-42349642D01*
X164745000Y-42421071D01*
X164852142Y-42456785D01*
X165030714Y-42456785D01*
X164316428Y-42242500D02*
X163959285Y-42242500D01*
X164387857Y-42456785D02*
X164137857Y-41706785D01*
X163887857Y-42456785D01*
X165834285Y-44796071D02*
X165262857Y-44796071D01*
X165548571Y-45081785D02*
X165548571Y-44510357D01*
X164548571Y-44331785D02*
X164905714Y-44331785D01*
X164941428Y-44688928D01*
X164905714Y-44653214D01*
X164834285Y-44617500D01*
X164655714Y-44617500D01*
X164584285Y-44653214D01*
X164548571Y-44688928D01*
X164512857Y-44760357D01*
X164512857Y-44938928D01*
X164548571Y-45010357D01*
X164584285Y-45046071D01*
X164655714Y-45081785D01*
X164834285Y-45081785D01*
X164905714Y-45046071D01*
X164941428Y-45010357D01*
X164298571Y-44331785D02*
X164048571Y-45081785D01*
X163798571Y-44331785D01*
X165441428Y-46992500D02*
X165512857Y-46956785D01*
X165620000Y-46956785D01*
X165727142Y-46992500D01*
X165798571Y-47063928D01*
X165834285Y-47135357D01*
X165870000Y-47278214D01*
X165870000Y-47385357D01*
X165834285Y-47528214D01*
X165798571Y-47599642D01*
X165727142Y-47671071D01*
X165620000Y-47706785D01*
X165548571Y-47706785D01*
X165441428Y-47671071D01*
X165405714Y-47635357D01*
X165405714Y-47385357D01*
X165548571Y-47385357D01*
X165084285Y-47706785D02*
X165084285Y-46956785D01*
X164655714Y-47706785D01*
X164655714Y-46956785D01*
X164298571Y-47706785D02*
X164298571Y-46956785D01*
X164120000Y-46956785D01*
X164012857Y-46992500D01*
X163941428Y-47063928D01*
X163905714Y-47135357D01*
X163870000Y-47278214D01*
X163870000Y-47385357D01*
X163905714Y-47528214D01*
X163941428Y-47599642D01*
X164012857Y-47671071D01*
X164120000Y-47706785D01*
X164298571Y-47706785D01*
D12*
X132110000Y-14450000D02*
X132120000Y-19660000D01*
X134670000Y-15760000D02*
X134670000Y-19710000D01*
D16*
X129635000Y-14660000D02*
X129635000Y-16017142D01*
X130932857Y-15017142D02*
X130932857Y-15517142D01*
X131718571Y-15731428D02*
X131718571Y-15017142D01*
X130218571Y-15017142D01*
X130218571Y-15731428D01*
X129635000Y-16017142D02*
X129635000Y-17160000D01*
X130218571Y-16160000D02*
X130218571Y-17017142D01*
X131718571Y-16588571D02*
X130218571Y-16588571D01*
X132790000Y-14767142D02*
X132718571Y-14624285D01*
X132718571Y-14410000D01*
X132790000Y-14195714D01*
X132932857Y-14052857D01*
X133075714Y-13981428D01*
X133361428Y-13910000D01*
X133575714Y-13910000D01*
X133861428Y-13981428D01*
X134004285Y-14052857D01*
X134147142Y-14195714D01*
X134218571Y-14410000D01*
X134218571Y-14552857D01*
X134147142Y-14767142D01*
X134075714Y-14838571D01*
X133575714Y-14838571D01*
X133575714Y-14552857D01*
X134218571Y-15481428D02*
X132718571Y-15481428D01*
X134218571Y-16338571D01*
X132718571Y-16338571D01*
X134218571Y-17052857D02*
X132718571Y-17052857D01*
X132718571Y-17410000D01*
X132790000Y-17624285D01*
X132932857Y-17767142D01*
X133075714Y-17838571D01*
X133361428Y-17910000D01*
X133575714Y-17910000D01*
X133861428Y-17838571D01*
X134004285Y-17767142D01*
X134147142Y-17624285D01*
X134218571Y-17410000D01*
X134218571Y-17052857D01*
D12*
X157390000Y-16750000D02*
X157390000Y-19630000D01*
X147230000Y-16850000D02*
X147230000Y-19590000D01*
X149760000Y-16810000D02*
X149760000Y-19640000D01*
X154860000Y-16830000D02*
X154850000Y-19600000D01*
X152310000Y-16800000D02*
X152310000Y-19600000D01*
X144700000Y-16860000D02*
X144700000Y-19660000D01*
D16*
X144130000Y-13378928D02*
X144058571Y-13236071D01*
X144058571Y-13021785D01*
X144130000Y-12807500D01*
X144272857Y-12664642D01*
X144415714Y-12593214D01*
X144701428Y-12521785D01*
X144915714Y-12521785D01*
X145201428Y-12593214D01*
X145344285Y-12664642D01*
X145487142Y-12807500D01*
X145558571Y-13021785D01*
X145558571Y-13164642D01*
X145487142Y-13378928D01*
X145415714Y-13450357D01*
X144915714Y-13450357D01*
X144915714Y-13164642D01*
X145558571Y-14093214D02*
X144058571Y-14093214D01*
X145558571Y-14950357D01*
X144058571Y-14950357D01*
X145558571Y-15664642D02*
X144058571Y-15664642D01*
X144058571Y-16021785D01*
X144130000Y-16236071D01*
X144272857Y-16378928D01*
X144415714Y-16450357D01*
X144701428Y-16521785D01*
X144915714Y-16521785D01*
X145201428Y-16450357D01*
X145344285Y-16378928D01*
X145487142Y-16236071D01*
X145558571Y-16021785D01*
X145558571Y-15664642D01*
X147915714Y-12450357D02*
X147987142Y-12378928D01*
X148058571Y-12164642D01*
X148058571Y-12021785D01*
X147987142Y-11807500D01*
X147844285Y-11664642D01*
X147701428Y-11593214D01*
X147415714Y-11521785D01*
X147201428Y-11521785D01*
X146915714Y-11593214D01*
X146772857Y-11664642D01*
X146630000Y-11807500D01*
X146558571Y-12021785D01*
X146558571Y-12164642D01*
X146630000Y-12378928D01*
X146701428Y-12450357D01*
X146558571Y-12878928D02*
X146558571Y-13736071D01*
X148058571Y-13307500D02*
X146558571Y-13307500D01*
X147987142Y-14164642D02*
X148058571Y-14378928D01*
X148058571Y-14736071D01*
X147987142Y-14878928D01*
X147915714Y-14950357D01*
X147772857Y-15021785D01*
X147630000Y-15021785D01*
X147487142Y-14950357D01*
X147415714Y-14878928D01*
X147344285Y-14736071D01*
X147272857Y-14450357D01*
X147201428Y-14307500D01*
X147130000Y-14236071D01*
X146987142Y-14164642D01*
X146844285Y-14164642D01*
X146701428Y-14236071D01*
X146630000Y-14307500D01*
X146558571Y-14450357D01*
X146558571Y-14807500D01*
X146630000Y-15021785D01*
X147058571Y-15593214D02*
X147058571Y-16664642D01*
X146415714Y-16021785D02*
X148344285Y-15593214D01*
X147701428Y-16521785D02*
X147701428Y-15450357D01*
X148344285Y-16093214D02*
X146415714Y-16521785D01*
X149987142Y-12593214D02*
X149987142Y-13736071D01*
X150558571Y-13164642D02*
X149415714Y-13164642D01*
X149058571Y-15164642D02*
X149058571Y-14450357D01*
X149772857Y-14378928D01*
X149701428Y-14450357D01*
X149630000Y-14593214D01*
X149630000Y-14950357D01*
X149701428Y-15093214D01*
X149772857Y-15164642D01*
X149915714Y-15236071D01*
X150272857Y-15236071D01*
X150415714Y-15164642D01*
X150487142Y-15093214D01*
X150558571Y-14950357D01*
X150558571Y-14593214D01*
X150487142Y-14450357D01*
X150415714Y-14378928D01*
X149058571Y-15664642D02*
X150558571Y-16164642D01*
X149058571Y-16664642D01*
X151558571Y-12878928D02*
X151558571Y-13736071D01*
X153058571Y-13307500D02*
X151558571Y-13307500D01*
X151558571Y-14093214D02*
X153058571Y-15093214D01*
X151558571Y-15093214D02*
X153058571Y-14093214D01*
X153058571Y-15664642D02*
X151558571Y-15664642D01*
X151558571Y-16021785D01*
X151630000Y-16236071D01*
X151772857Y-16378928D01*
X151915714Y-16450357D01*
X152201428Y-16521785D01*
X152415714Y-16521785D01*
X152701428Y-16450357D01*
X152844285Y-16378928D01*
X152987142Y-16236071D01*
X153058571Y-16021785D01*
X153058571Y-15664642D01*
X155558571Y-13593214D02*
X154844285Y-13093214D01*
X155558571Y-12736071D02*
X154058571Y-12736071D01*
X154058571Y-13307500D01*
X154130000Y-13450357D01*
X154201428Y-13521785D01*
X154344285Y-13593214D01*
X154558571Y-13593214D01*
X154701428Y-13521785D01*
X154772857Y-13450357D01*
X154844285Y-13307500D01*
X154844285Y-12736071D01*
X154058571Y-14093214D02*
X155558571Y-15093214D01*
X154058571Y-15093214D02*
X155558571Y-14093214D01*
X155558571Y-15664642D02*
X154058571Y-15664642D01*
X154058571Y-16021785D01*
X154130000Y-16236071D01*
X154272857Y-16378928D01*
X154415714Y-16450357D01*
X154701428Y-16521785D01*
X154915714Y-16521785D01*
X155201428Y-16450357D01*
X155344285Y-16378928D01*
X155487142Y-16236071D01*
X155558571Y-16021785D01*
X155558571Y-15664642D01*
X158058571Y-12450357D02*
X157344285Y-11950357D01*
X158058571Y-11593214D02*
X156558571Y-11593214D01*
X156558571Y-12164642D01*
X156630000Y-12307500D01*
X156701428Y-12378928D01*
X156844285Y-12450357D01*
X157058571Y-12450357D01*
X157201428Y-12378928D01*
X157272857Y-12307500D01*
X157344285Y-12164642D01*
X157344285Y-11593214D01*
X156558571Y-12878928D02*
X156558571Y-13736071D01*
X158058571Y-13307500D02*
X156558571Y-13307500D01*
X157987142Y-14164642D02*
X158058571Y-14378928D01*
X158058571Y-14736071D01*
X157987142Y-14878928D01*
X157915714Y-14950357D01*
X157772857Y-15021785D01*
X157630000Y-15021785D01*
X157487142Y-14950357D01*
X157415714Y-14878928D01*
X157344285Y-14736071D01*
X157272857Y-14450357D01*
X157201428Y-14307500D01*
X157130000Y-14236071D01*
X156987142Y-14164642D01*
X156844285Y-14164642D01*
X156701428Y-14236071D01*
X156630000Y-14307500D01*
X156558571Y-14450357D01*
X156558571Y-14807500D01*
X156630000Y-15021785D01*
X157058571Y-15593214D02*
X157058571Y-16664642D01*
X156415714Y-16021785D02*
X158344285Y-15593214D01*
X157701428Y-16521785D02*
X157701428Y-15450357D01*
X158344285Y-16093214D02*
X156415714Y-16521785D01*
D12*
X123250000Y-16280000D02*
X123250000Y-19650000D01*
X118170000Y-16240000D02*
X118170000Y-19610000D01*
X115630000Y-16260000D02*
X115630000Y-19630000D01*
X113070000Y-16260000D02*
X113070000Y-19630000D01*
X110540000Y-16260000D02*
X110540000Y-19630000D01*
X128300000Y-15690000D02*
X128300000Y-19640000D01*
X125780000Y-15720000D02*
X125780000Y-19670000D01*
X120700000Y-15670000D02*
X120700000Y-19620000D01*
X108010000Y-16250000D02*
X108010000Y-19620000D01*
X105460000Y-15720000D02*
X105460000Y-19670000D01*
X102920000Y-15700000D02*
X102920000Y-19650000D01*
X100390000Y-15730000D02*
X100390000Y-19680000D01*
X97860000Y-15730000D02*
X97860000Y-19680000D01*
X95300000Y-15720000D02*
X95300000Y-19670000D01*
X92750000Y-15690000D02*
X92750000Y-19640000D01*
X90200000Y-15690000D02*
X90200000Y-19640000D01*
D10*
X88275000Y-14716428D02*
X88203571Y-14573571D01*
X88203571Y-14359285D01*
X88275000Y-14145000D01*
X88417857Y-14002142D01*
X88560714Y-13930714D01*
X88846428Y-13859285D01*
X89060714Y-13859285D01*
X89346428Y-13930714D01*
X89489285Y-14002142D01*
X89632142Y-14145000D01*
X89703571Y-14359285D01*
X89703571Y-14502142D01*
X89632142Y-14716428D01*
X89560714Y-14787857D01*
X89060714Y-14787857D01*
X89060714Y-14502142D01*
X89703571Y-15430714D02*
X88203571Y-15430714D01*
X89703571Y-16287857D01*
X88203571Y-16287857D01*
X89703571Y-17002142D02*
X88203571Y-17002142D01*
X88203571Y-17359285D01*
X88275000Y-17573571D01*
X88417857Y-17716428D01*
X88560714Y-17787857D01*
X88846428Y-17859285D01*
X89060714Y-17859285D01*
X89346428Y-17787857D01*
X89489285Y-17716428D01*
X89632142Y-17573571D01*
X89703571Y-17359285D01*
X89703571Y-17002142D01*
X90753571Y-14216428D02*
X90753571Y-15073571D01*
X92253571Y-14645000D02*
X90753571Y-14645000D01*
X92253571Y-15573571D02*
X90753571Y-15573571D01*
X90753571Y-16145000D01*
X90825000Y-16287857D01*
X90896428Y-16359285D01*
X91039285Y-16430714D01*
X91253571Y-16430714D01*
X91396428Y-16359285D01*
X91467857Y-16287857D01*
X91539285Y-16145000D01*
X91539285Y-15573571D01*
X92253571Y-17859285D02*
X92253571Y-17002142D01*
X92253571Y-17430714D02*
X90753571Y-17430714D01*
X90967857Y-17287857D01*
X91110714Y-17145000D01*
X91182142Y-17002142D01*
X93303571Y-14216428D02*
X93303571Y-15073571D01*
X94803571Y-14645000D02*
X93303571Y-14645000D01*
X94803571Y-15573571D02*
X93303571Y-15573571D01*
X93303571Y-16145000D01*
X93375000Y-16287857D01*
X93446428Y-16359285D01*
X93589285Y-16430714D01*
X93803571Y-16430714D01*
X93946428Y-16359285D01*
X94017857Y-16287857D01*
X94089285Y-16145000D01*
X94089285Y-15573571D01*
X93446428Y-17002142D02*
X93375000Y-17073571D01*
X93303571Y-17216428D01*
X93303571Y-17573571D01*
X93375000Y-17716428D01*
X93446428Y-17787857D01*
X93589285Y-17859285D01*
X93732142Y-17859285D01*
X93946428Y-17787857D01*
X94803571Y-16930714D01*
X94803571Y-17859285D01*
X95853571Y-14216428D02*
X95853571Y-15073571D01*
X97353571Y-14645000D02*
X95853571Y-14645000D01*
X97353571Y-15573571D02*
X95853571Y-15573571D01*
X95853571Y-16145000D01*
X95925000Y-16287857D01*
X95996428Y-16359285D01*
X96139285Y-16430714D01*
X96353571Y-16430714D01*
X96496428Y-16359285D01*
X96567857Y-16287857D01*
X96639285Y-16145000D01*
X96639285Y-15573571D01*
X95853571Y-16930714D02*
X95853571Y-17859285D01*
X96425000Y-17359285D01*
X96425000Y-17573571D01*
X96496428Y-17716428D01*
X96567857Y-17787857D01*
X96710714Y-17859285D01*
X97067857Y-17859285D01*
X97210714Y-17787857D01*
X97282142Y-17716428D01*
X97353571Y-17573571D01*
X97353571Y-17145000D01*
X97282142Y-17002142D01*
X97210714Y-16930714D01*
X98403571Y-14216428D02*
X98403571Y-15073571D01*
X99903571Y-14645000D02*
X98403571Y-14645000D01*
X99903571Y-15573571D02*
X98403571Y-15573571D01*
X98403571Y-16145000D01*
X98475000Y-16287857D01*
X98546428Y-16359285D01*
X98689285Y-16430714D01*
X98903571Y-16430714D01*
X99046428Y-16359285D01*
X99117857Y-16287857D01*
X99189285Y-16145000D01*
X99189285Y-15573571D01*
X98903571Y-17716428D02*
X99903571Y-17716428D01*
X98332142Y-17359285D02*
X99403571Y-17002142D01*
X99403571Y-17930714D01*
X100953571Y-14216428D02*
X100953571Y-15073571D01*
X102453571Y-14645000D02*
X100953571Y-14645000D01*
X102453571Y-15573571D02*
X100953571Y-15573571D01*
X100953571Y-16145000D01*
X101025000Y-16287857D01*
X101096428Y-16359285D01*
X101239285Y-16430714D01*
X101453571Y-16430714D01*
X101596428Y-16359285D01*
X101667857Y-16287857D01*
X101739285Y-16145000D01*
X101739285Y-15573571D01*
X100953571Y-17716428D02*
X100953571Y-17430714D01*
X101025000Y-17287857D01*
X101096428Y-17216428D01*
X101310714Y-17073571D01*
X101596428Y-17002142D01*
X102167857Y-17002142D01*
X102310714Y-17073571D01*
X102382142Y-17145000D01*
X102453571Y-17287857D01*
X102453571Y-17573571D01*
X102382142Y-17716428D01*
X102310714Y-17787857D01*
X102167857Y-17859285D01*
X101810714Y-17859285D01*
X101667857Y-17787857D01*
X101596428Y-17716428D01*
X101525000Y-17573571D01*
X101525000Y-17287857D01*
X101596428Y-17145000D01*
X101667857Y-17073571D01*
X101810714Y-17002142D01*
X103503571Y-14216428D02*
X103503571Y-15073571D01*
X105003571Y-14645000D02*
X103503571Y-14645000D01*
X105003571Y-15573571D02*
X103503571Y-15573571D01*
X103503571Y-16145000D01*
X103575000Y-16287857D01*
X103646428Y-16359285D01*
X103789285Y-16430714D01*
X104003571Y-16430714D01*
X104146428Y-16359285D01*
X104217857Y-16287857D01*
X104289285Y-16145000D01*
X104289285Y-15573571D01*
X105003571Y-17145000D02*
X105003571Y-17430714D01*
X104932142Y-17573571D01*
X104860714Y-17645000D01*
X104646428Y-17787857D01*
X104360714Y-17859285D01*
X103789285Y-17859285D01*
X103646428Y-17787857D01*
X103575000Y-17716428D01*
X103503571Y-17573571D01*
X103503571Y-17287857D01*
X103575000Y-17145000D01*
X103646428Y-17073571D01*
X103789285Y-17002142D01*
X104146428Y-17002142D01*
X104289285Y-17073571D01*
X104360714Y-17145000D01*
X104432142Y-17287857D01*
X104432142Y-17573571D01*
X104360714Y-17716428D01*
X104289285Y-17787857D01*
X104146428Y-17859285D01*
X106053571Y-12787857D02*
X106053571Y-13645000D01*
X107553571Y-13216428D02*
X106053571Y-13216428D01*
X107553571Y-14145000D02*
X106053571Y-14145000D01*
X106053571Y-14716428D01*
X106125000Y-14859285D01*
X106196428Y-14930714D01*
X106339285Y-15002142D01*
X106553571Y-15002142D01*
X106696428Y-14930714D01*
X106767857Y-14859285D01*
X106839285Y-14716428D01*
X106839285Y-14145000D01*
X107553571Y-16430714D02*
X107553571Y-15573571D01*
X107553571Y-16002142D02*
X106053571Y-16002142D01*
X106267857Y-15859285D01*
X106410714Y-15716428D01*
X106482142Y-15573571D01*
X106053571Y-17359285D02*
X106053571Y-17502142D01*
X106125000Y-17645000D01*
X106196428Y-17716428D01*
X106339285Y-17787857D01*
X106625000Y-17859285D01*
X106982142Y-17859285D01*
X107267857Y-17787857D01*
X107410714Y-17716428D01*
X107482142Y-17645000D01*
X107553571Y-17502142D01*
X107553571Y-17359285D01*
X107482142Y-17216428D01*
X107410714Y-17145000D01*
X107267857Y-17073571D01*
X106982142Y-17002142D01*
X106625000Y-17002142D01*
X106339285Y-17073571D01*
X106196428Y-17145000D01*
X106125000Y-17216428D01*
X106053571Y-17359285D01*
X108603571Y-12787857D02*
X108603571Y-13645000D01*
X110103571Y-13216428D02*
X108603571Y-13216428D01*
X110103571Y-14145000D02*
X108603571Y-14145000D01*
X108603571Y-14716428D01*
X108675000Y-14859285D01*
X108746428Y-14930714D01*
X108889285Y-15002142D01*
X109103571Y-15002142D01*
X109246428Y-14930714D01*
X109317857Y-14859285D01*
X109389285Y-14716428D01*
X109389285Y-14145000D01*
X110103571Y-16430714D02*
X110103571Y-15573571D01*
X110103571Y-16002142D02*
X108603571Y-16002142D01*
X108817857Y-15859285D01*
X108960714Y-15716428D01*
X109032142Y-15573571D01*
X110103571Y-17859285D02*
X110103571Y-17002142D01*
X110103571Y-17430714D02*
X108603571Y-17430714D01*
X108817857Y-17287857D01*
X108960714Y-17145000D01*
X109032142Y-17002142D01*
X111153571Y-12787857D02*
X111153571Y-13645000D01*
X112653571Y-13216428D02*
X111153571Y-13216428D01*
X112653571Y-14145000D02*
X111153571Y-14145000D01*
X111153571Y-14716428D01*
X111225000Y-14859285D01*
X111296428Y-14930714D01*
X111439285Y-15002142D01*
X111653571Y-15002142D01*
X111796428Y-14930714D01*
X111867857Y-14859285D01*
X111939285Y-14716428D01*
X111939285Y-14145000D01*
X112653571Y-16430714D02*
X112653571Y-15573571D01*
X112653571Y-16002142D02*
X111153571Y-16002142D01*
X111367857Y-15859285D01*
X111510714Y-15716428D01*
X111582142Y-15573571D01*
X111296428Y-17002142D02*
X111225000Y-17073571D01*
X111153571Y-17216428D01*
X111153571Y-17573571D01*
X111225000Y-17716428D01*
X111296428Y-17787857D01*
X111439285Y-17859285D01*
X111582142Y-17859285D01*
X111796428Y-17787857D01*
X112653571Y-16930714D01*
X112653571Y-17859285D01*
X113703571Y-12787857D02*
X113703571Y-13645000D01*
X115203571Y-13216428D02*
X113703571Y-13216428D01*
X115203571Y-14145000D02*
X113703571Y-14145000D01*
X113703571Y-14716428D01*
X113775000Y-14859285D01*
X113846428Y-14930714D01*
X113989285Y-15002142D01*
X114203571Y-15002142D01*
X114346428Y-14930714D01*
X114417857Y-14859285D01*
X114489285Y-14716428D01*
X114489285Y-14145000D01*
X115203571Y-16430714D02*
X115203571Y-15573571D01*
X115203571Y-16002142D02*
X113703571Y-16002142D01*
X113917857Y-15859285D01*
X114060714Y-15716428D01*
X114132142Y-15573571D01*
X113703571Y-17787857D02*
X113703571Y-17073571D01*
X114417857Y-17002142D01*
X114346428Y-17073571D01*
X114275000Y-17216428D01*
X114275000Y-17573571D01*
X114346428Y-17716428D01*
X114417857Y-17787857D01*
X114560714Y-17859285D01*
X114917857Y-17859285D01*
X115060714Y-17787857D01*
X115132142Y-17716428D01*
X115203571Y-17573571D01*
X115203571Y-17216428D01*
X115132142Y-17073571D01*
X115060714Y-17002142D01*
X116253571Y-12787857D02*
X116253571Y-13645000D01*
X117753571Y-13216428D02*
X116253571Y-13216428D01*
X117753571Y-14145000D02*
X116253571Y-14145000D01*
X116253571Y-14716428D01*
X116325000Y-14859285D01*
X116396428Y-14930714D01*
X116539285Y-15002142D01*
X116753571Y-15002142D01*
X116896428Y-14930714D01*
X116967857Y-14859285D01*
X117039285Y-14716428D01*
X117039285Y-14145000D01*
X117753571Y-16430714D02*
X117753571Y-15573571D01*
X117753571Y-16002142D02*
X116253571Y-16002142D01*
X116467857Y-15859285D01*
X116610714Y-15716428D01*
X116682142Y-15573571D01*
X116896428Y-17287857D02*
X116825000Y-17145000D01*
X116753571Y-17073571D01*
X116610714Y-17002142D01*
X116539285Y-17002142D01*
X116396428Y-17073571D01*
X116325000Y-17145000D01*
X116253571Y-17287857D01*
X116253571Y-17573571D01*
X116325000Y-17716428D01*
X116396428Y-17787857D01*
X116539285Y-17859285D01*
X116610714Y-17859285D01*
X116753571Y-17787857D01*
X116825000Y-17716428D01*
X116896428Y-17573571D01*
X116896428Y-17287857D01*
X116967857Y-17145000D01*
X117039285Y-17073571D01*
X117182142Y-17002142D01*
X117467857Y-17002142D01*
X117610714Y-17073571D01*
X117682142Y-17145000D01*
X117753571Y-17287857D01*
X117753571Y-17573571D01*
X117682142Y-17716428D01*
X117610714Y-17787857D01*
X117467857Y-17859285D01*
X117182142Y-17859285D01*
X117039285Y-17787857D01*
X116967857Y-17716428D01*
X116896428Y-17573571D01*
X118803571Y-14216428D02*
X118803571Y-15073571D01*
X120303571Y-14645000D02*
X118803571Y-14645000D01*
X120303571Y-15573571D02*
X118803571Y-15573571D01*
X118803571Y-16145000D01*
X118875000Y-16287857D01*
X118946428Y-16359285D01*
X119089285Y-16430714D01*
X119303571Y-16430714D01*
X119446428Y-16359285D01*
X119517857Y-16287857D01*
X119589285Y-16145000D01*
X119589285Y-15573571D01*
X118803571Y-17787857D02*
X118803571Y-17073571D01*
X119517857Y-17002142D01*
X119446428Y-17073571D01*
X119375000Y-17216428D01*
X119375000Y-17573571D01*
X119446428Y-17716428D01*
X119517857Y-17787857D01*
X119660714Y-17859285D01*
X120017857Y-17859285D01*
X120160714Y-17787857D01*
X120232142Y-17716428D01*
X120303571Y-17573571D01*
X120303571Y-17216428D01*
X120232142Y-17073571D01*
X120160714Y-17002142D01*
X121353571Y-12787857D02*
X121353571Y-13645000D01*
X122853571Y-13216428D02*
X121353571Y-13216428D01*
X122853571Y-14145000D02*
X121353571Y-14145000D01*
X121353571Y-14716428D01*
X121425000Y-14859285D01*
X121496428Y-14930714D01*
X121639285Y-15002142D01*
X121853571Y-15002142D01*
X121996428Y-14930714D01*
X122067857Y-14859285D01*
X122139285Y-14716428D01*
X122139285Y-14145000D01*
X121496428Y-15573571D02*
X121425000Y-15645000D01*
X121353571Y-15787857D01*
X121353571Y-16145000D01*
X121425000Y-16287857D01*
X121496428Y-16359285D01*
X121639285Y-16430714D01*
X121782142Y-16430714D01*
X121996428Y-16359285D01*
X122853571Y-15502142D01*
X122853571Y-16430714D01*
X121353571Y-17716428D02*
X121353571Y-17430714D01*
X121425000Y-17287857D01*
X121496428Y-17216428D01*
X121710714Y-17073571D01*
X121996428Y-17002142D01*
X122567857Y-17002142D01*
X122710714Y-17073571D01*
X122782142Y-17145000D01*
X122853571Y-17287857D01*
X122853571Y-17573571D01*
X122782142Y-17716428D01*
X122710714Y-17787857D01*
X122567857Y-17859285D01*
X122210714Y-17859285D01*
X122067857Y-17787857D01*
X121996428Y-17716428D01*
X121925000Y-17573571D01*
X121925000Y-17287857D01*
X121996428Y-17145000D01*
X122067857Y-17073571D01*
X122210714Y-17002142D01*
X123903571Y-12787857D02*
X123903571Y-13645000D01*
X125403571Y-13216428D02*
X123903571Y-13216428D01*
X125403571Y-14145000D02*
X123903571Y-14145000D01*
X123903571Y-14716428D01*
X123975000Y-14859285D01*
X124046428Y-14930714D01*
X124189285Y-15002142D01*
X124403571Y-15002142D01*
X124546428Y-14930714D01*
X124617857Y-14859285D01*
X124689285Y-14716428D01*
X124689285Y-14145000D01*
X124046428Y-15573571D02*
X123975000Y-15645000D01*
X123903571Y-15787857D01*
X123903571Y-16145000D01*
X123975000Y-16287857D01*
X124046428Y-16359285D01*
X124189285Y-16430714D01*
X124332142Y-16430714D01*
X124546428Y-16359285D01*
X125403571Y-15502142D01*
X125403571Y-16430714D01*
X123903571Y-17787857D02*
X123903571Y-17073571D01*
X124617857Y-17002142D01*
X124546428Y-17073571D01*
X124475000Y-17216428D01*
X124475000Y-17573571D01*
X124546428Y-17716428D01*
X124617857Y-17787857D01*
X124760714Y-17859285D01*
X125117857Y-17859285D01*
X125260714Y-17787857D01*
X125332142Y-17716428D01*
X125403571Y-17573571D01*
X125403571Y-17216428D01*
X125332142Y-17073571D01*
X125260714Y-17002142D01*
X126525000Y-14716428D02*
X126453571Y-14573571D01*
X126453571Y-14359285D01*
X126525000Y-14145000D01*
X126667857Y-14002142D01*
X126810714Y-13930714D01*
X127096428Y-13859285D01*
X127310714Y-13859285D01*
X127596428Y-13930714D01*
X127739285Y-14002142D01*
X127882142Y-14145000D01*
X127953571Y-14359285D01*
X127953571Y-14502142D01*
X127882142Y-14716428D01*
X127810714Y-14787857D01*
X127310714Y-14787857D01*
X127310714Y-14502142D01*
X127953571Y-15430714D02*
X126453571Y-15430714D01*
X127953571Y-16287857D01*
X126453571Y-16287857D01*
X127953571Y-17002142D02*
X126453571Y-17002142D01*
X126453571Y-17359285D01*
X126525000Y-17573571D01*
X126667857Y-17716428D01*
X126810714Y-17787857D01*
X127096428Y-17859285D01*
X127310714Y-17859285D01*
X127596428Y-17787857D01*
X127739285Y-17716428D01*
X127882142Y-17573571D01*
X127953571Y-17359285D01*
X127953571Y-17002142D01*
X171547142Y-152843571D02*
X171547142Y-151343571D01*
X171190000Y-151343571D01*
X170975714Y-151415000D01*
X170832857Y-151557857D01*
X170761428Y-151700714D01*
X170690000Y-151986428D01*
X170690000Y-152200714D01*
X170761428Y-152486428D01*
X170832857Y-152629285D01*
X170975714Y-152772142D01*
X171190000Y-152843571D01*
X171547142Y-152843571D01*
X169190000Y-152700714D02*
X169261428Y-152772142D01*
X169475714Y-152843571D01*
X169618571Y-152843571D01*
X169832857Y-152772142D01*
X169975714Y-152629285D01*
X170047142Y-152486428D01*
X170118571Y-152200714D01*
X170118571Y-151986428D01*
X170047142Y-151700714D01*
X169975714Y-151557857D01*
X169832857Y-151415000D01*
X169618571Y-151343571D01*
X169475714Y-151343571D01*
X169261428Y-151415000D01*
X169190000Y-151486428D01*
X168761428Y-151343571D02*
X167904285Y-151343571D01*
X168332857Y-152843571D02*
X168332857Y-151343571D01*
X167404285Y-152843571D02*
X167404285Y-151343571D01*
X166904285Y-152415000D01*
X166404285Y-151343571D01*
X166404285Y-152843571D01*
X165690000Y-152843571D02*
X165690000Y-151343571D01*
X165190000Y-152415000D01*
X164690000Y-151343571D01*
X164690000Y-152843571D01*
X164332857Y-152986428D02*
X163190000Y-152986428D01*
X161975714Y-152700714D02*
X162047142Y-152772142D01*
X162261428Y-152843571D01*
X162404285Y-152843571D01*
X162618571Y-152772142D01*
X162761428Y-152629285D01*
X162832857Y-152486428D01*
X162904285Y-152200714D01*
X162904285Y-151986428D01*
X162832857Y-151700714D01*
X162761428Y-151557857D01*
X162618571Y-151415000D01*
X162404285Y-151343571D01*
X162261428Y-151343571D01*
X162047142Y-151415000D01*
X161975714Y-151486428D01*
X160475714Y-152700714D02*
X160547142Y-152772142D01*
X160761428Y-152843571D01*
X160904285Y-152843571D01*
X161118571Y-152772142D01*
X161261428Y-152629285D01*
X161332857Y-152486428D01*
X161404285Y-152200714D01*
X161404285Y-151986428D01*
X161332857Y-151700714D01*
X161261428Y-151557857D01*
X161118571Y-151415000D01*
X160904285Y-151343571D01*
X160761428Y-151343571D01*
X160547142Y-151415000D01*
X160475714Y-151486428D01*
X159832857Y-152272142D02*
X158690000Y-152272142D01*
X158190000Y-151343571D02*
X157332857Y-151343571D01*
X157761428Y-152843571D02*
X157761428Y-151343571D01*
X156832857Y-152057857D02*
X156332857Y-152057857D01*
X156118571Y-152843571D02*
X156832857Y-152843571D01*
X156832857Y-151343571D01*
X156118571Y-151343571D01*
X155547142Y-152772142D02*
X155332857Y-152843571D01*
X154975714Y-152843571D01*
X154832857Y-152772142D01*
X154761428Y-152700714D01*
X154690000Y-152557857D01*
X154690000Y-152415000D01*
X154761428Y-152272142D01*
X154832857Y-152200714D01*
X154975714Y-152129285D01*
X155261428Y-152057857D01*
X155404285Y-151986428D01*
X155475714Y-151915000D01*
X155547142Y-151772142D01*
X155547142Y-151629285D01*
X155475714Y-151486428D01*
X155404285Y-151415000D01*
X155261428Y-151343571D01*
X154904285Y-151343571D01*
X154690000Y-151415000D01*
X154261428Y-151343571D02*
X153404285Y-151343571D01*
X153832857Y-152843571D02*
X153832857Y-151343571D01*
X152904285Y-152057857D02*
X152404285Y-152057857D01*
X152190000Y-152843571D02*
X152904285Y-152843571D01*
X152904285Y-151343571D01*
X152190000Y-151343571D01*
X150690000Y-152843571D02*
X151190000Y-152129285D01*
X151547142Y-152843571D02*
X151547142Y-151343571D01*
X150975714Y-151343571D01*
X150832857Y-151415000D01*
X150761428Y-151486428D01*
X150690000Y-151629285D01*
X150690000Y-151843571D01*
X150761428Y-151986428D01*
X150832857Y-152057857D01*
X150975714Y-152129285D01*
X151547142Y-152129285D01*
X149118571Y-151343571D02*
X148618571Y-152843571D01*
X148118571Y-151343571D01*
X147332857Y-151343571D02*
X147190000Y-151343571D01*
X147047142Y-151415000D01*
X146975714Y-151486428D01*
X146904285Y-151629285D01*
X146832857Y-151915000D01*
X146832857Y-152272142D01*
X146904285Y-152557857D01*
X146975714Y-152700714D01*
X147047142Y-152772142D01*
X147190000Y-152843571D01*
X147332857Y-152843571D01*
X147475714Y-152772142D01*
X147547142Y-152700714D01*
X147618571Y-152557857D01*
X147690000Y-152272142D01*
X147690000Y-151915000D01*
X147618571Y-151629285D01*
X147547142Y-151486428D01*
X147475714Y-151415000D01*
X147332857Y-151343571D01*
X146190000Y-152700714D02*
X146118571Y-152772142D01*
X146190000Y-152843571D01*
X146261428Y-152772142D01*
X146190000Y-152700714D01*
X146190000Y-152843571D01*
X145547142Y-151486428D02*
X145475714Y-151415000D01*
X145332857Y-151343571D01*
X144975714Y-151343571D01*
X144832857Y-151415000D01*
X144761428Y-151486428D01*
X144690000Y-151629285D01*
X144690000Y-151772142D01*
X144761428Y-151986428D01*
X145618571Y-152843571D01*
X144690000Y-152843571D01*
X144190000Y-151343571D02*
X143261428Y-151343571D01*
X143761428Y-151915000D01*
X143547142Y-151915000D01*
X143404285Y-151986428D01*
X143332857Y-152057857D01*
X143261428Y-152200714D01*
X143261428Y-152557857D01*
X143332857Y-152700714D01*
X143404285Y-152772142D01*
X143547142Y-152843571D01*
X143975714Y-152843571D01*
X144118571Y-152772142D01*
X144190000Y-152700714D01*
X164082857Y-153893571D02*
X163940000Y-153893571D01*
X163797142Y-153965000D01*
X163725714Y-154036428D01*
X163654285Y-154179285D01*
X163582857Y-154465000D01*
X163582857Y-154822142D01*
X163654285Y-155107857D01*
X163725714Y-155250714D01*
X163797142Y-155322142D01*
X163940000Y-155393571D01*
X164082857Y-155393571D01*
X164225714Y-155322142D01*
X164297142Y-155250714D01*
X164368571Y-155107857D01*
X164440000Y-154822142D01*
X164440000Y-154465000D01*
X164368571Y-154179285D01*
X164297142Y-154036428D01*
X164225714Y-153965000D01*
X164082857Y-153893571D01*
X163082857Y-153893571D02*
X162082857Y-153893571D01*
X162725714Y-155393571D01*
X160440000Y-153822142D02*
X161725714Y-155750714D01*
X159654285Y-153893571D02*
X159511428Y-153893571D01*
X159368571Y-153965000D01*
X159297142Y-154036428D01*
X159225714Y-154179285D01*
X159154285Y-154465000D01*
X159154285Y-154822142D01*
X159225714Y-155107857D01*
X159297142Y-155250714D01*
X159368571Y-155322142D01*
X159511428Y-155393571D01*
X159654285Y-155393571D01*
X159797142Y-155322142D01*
X159868571Y-155250714D01*
X159940000Y-155107857D01*
X160011428Y-154822142D01*
X160011428Y-154465000D01*
X159940000Y-154179285D01*
X159868571Y-154036428D01*
X159797142Y-153965000D01*
X159654285Y-153893571D01*
X158297142Y-154536428D02*
X158440000Y-154465000D01*
X158511428Y-154393571D01*
X158582857Y-154250714D01*
X158582857Y-154179285D01*
X158511428Y-154036428D01*
X158440000Y-153965000D01*
X158297142Y-153893571D01*
X158011428Y-153893571D01*
X157868571Y-153965000D01*
X157797142Y-154036428D01*
X157725714Y-154179285D01*
X157725714Y-154250714D01*
X157797142Y-154393571D01*
X157868571Y-154465000D01*
X158011428Y-154536428D01*
X158297142Y-154536428D01*
X158440000Y-154607857D01*
X158511428Y-154679285D01*
X158582857Y-154822142D01*
X158582857Y-155107857D01*
X158511428Y-155250714D01*
X158440000Y-155322142D01*
X158297142Y-155393571D01*
X158011428Y-155393571D01*
X157868571Y-155322142D01*
X157797142Y-155250714D01*
X157725714Y-155107857D01*
X157725714Y-154822142D01*
X157797142Y-154679285D01*
X157868571Y-154607857D01*
X158011428Y-154536428D01*
X156011428Y-153822142D02*
X157297142Y-155750714D01*
X155582857Y-154036428D02*
X155511428Y-153965000D01*
X155368571Y-153893571D01*
X155011428Y-153893571D01*
X154868571Y-153965000D01*
X154797142Y-154036428D01*
X154725714Y-154179285D01*
X154725714Y-154322142D01*
X154797142Y-154536428D01*
X155654285Y-155393571D01*
X154725714Y-155393571D01*
X153797142Y-153893571D02*
X153654285Y-153893571D01*
X153511428Y-153965000D01*
X153440000Y-154036428D01*
X153368571Y-154179285D01*
X153297142Y-154465000D01*
X153297142Y-154822142D01*
X153368571Y-155107857D01*
X153440000Y-155250714D01*
X153511428Y-155322142D01*
X153654285Y-155393571D01*
X153797142Y-155393571D01*
X153940000Y-155322142D01*
X154011428Y-155250714D01*
X154082857Y-155107857D01*
X154154285Y-154822142D01*
X154154285Y-154465000D01*
X154082857Y-154179285D01*
X154011428Y-154036428D01*
X153940000Y-153965000D01*
X153797142Y-153893571D01*
X152725714Y-154036428D02*
X152654285Y-153965000D01*
X152511428Y-153893571D01*
X152154285Y-153893571D01*
X152011428Y-153965000D01*
X151940000Y-154036428D01*
X151868571Y-154179285D01*
X151868571Y-154322142D01*
X151940000Y-154536428D01*
X152797142Y-155393571D01*
X151868571Y-155393571D01*
X150940000Y-153893571D02*
X150797142Y-153893571D01*
X150654285Y-153965000D01*
X150582857Y-154036428D01*
X150511428Y-154179285D01*
X150440000Y-154465000D01*
X150440000Y-154822142D01*
X150511428Y-155107857D01*
X150582857Y-155250714D01*
X150654285Y-155322142D01*
X150797142Y-155393571D01*
X150940000Y-155393571D01*
X151082857Y-155322142D01*
X151154285Y-155250714D01*
X151225714Y-155107857D01*
X151297142Y-154822142D01*
X151297142Y-154465000D01*
X151225714Y-154179285D01*
X151154285Y-154036428D01*
X151082857Y-153965000D01*
X150940000Y-153893571D01*
D13*
X83280000Y-14450000D02*
G75*
G03X83280000Y-14450000I-1591897J0D01*
G01*
X163220000Y-14600000D02*
G75*
G03X163220000Y-14600000I-1590000J0D01*
G01*
X161280283Y-50710000D02*
G75*
G03X161280283Y-50710000I-1592180J0D01*
G01*
X85310123Y-50710000D02*
G75*
G03X85310123Y-50710000I-1622020J0D01*
G01*
X152660000Y-78311679D02*
G75*
G03X152660000Y-78311679I-1550000J0D01*
G01*
X100610000Y-141520000D02*
G75*
G03X100610000Y-141520000I-3400000J0D01*
G01*
X218610000Y-141520000D02*
G75*
G03X218610000Y-141520000I-3400000J0D01*
G01*
X218410000Y-97450000D02*
G75*
G03X218410000Y-97450000I-3200000J0D01*
G01*
X100410000Y-97450000D02*
G75*
G03X100410000Y-97450000I-3200000J0D01*
G01*
D18*
G04 #@! TO.C,A1*
X212780000Y-27950000D02*
X215520000Y-27950000D01*
X215540000Y-27940000D02*
X215540000Y-14640000D01*
X215540000Y-14640000D02*
X212770000Y-14640000D01*
X212750000Y-14640000D02*
X212760000Y-27950000D01*
X212780000Y-27950000D02*
X212810000Y-27950000D01*
X214160000Y-27950000D02*
X214160000Y-14640000D01*
X212760000Y-24870000D02*
X215520000Y-24870000D01*
X212770000Y-21730000D02*
X215540000Y-21730000D01*
X212770000Y-18660000D02*
X215510000Y-18660000D01*
X212770000Y-16620000D02*
X215530000Y-16620000D01*
G04 #@! TD*
G04 #@! TO.C,REF\002A\002A*
D12*
X81613333Y-16312380D02*
X81946666Y-15836190D01*
X82184761Y-16312380D02*
X82184761Y-15312380D01*
X81803809Y-15312380D01*
X81708571Y-15360000D01*
X81660952Y-15407619D01*
X81613333Y-15502857D01*
X81613333Y-15645714D01*
X81660952Y-15740952D01*
X81708571Y-15788571D01*
X81803809Y-15836190D01*
X82184761Y-15836190D01*
X81184761Y-15788571D02*
X80851428Y-15788571D01*
X80708571Y-16312380D02*
X81184761Y-16312380D01*
X81184761Y-15312380D01*
X80708571Y-15312380D01*
X79946666Y-15788571D02*
X80280000Y-15788571D01*
X80280000Y-16312380D02*
X80280000Y-15312380D01*
X79803809Y-15312380D01*
X79280000Y-15312380D02*
X79280000Y-15550476D01*
X79518095Y-15455238D02*
X79280000Y-15550476D01*
X79041904Y-15455238D01*
X79422857Y-15740952D02*
X79280000Y-15550476D01*
X79137142Y-15740952D01*
X78518095Y-15312380D02*
X78518095Y-15550476D01*
X78756190Y-15455238D02*
X78518095Y-15550476D01*
X78280000Y-15455238D01*
X78660952Y-15740952D02*
X78518095Y-15550476D01*
X78375238Y-15740952D01*
G04 #@! TO.C,A1*
X213666666Y-14925714D02*
X213666666Y-15401904D01*
X213952380Y-14830476D02*
X212952380Y-15163809D01*
X213952380Y-15497142D01*
X212952380Y-15735238D02*
X212952380Y-16401904D01*
X213952380Y-15973333D01*
X215096666Y-14945714D02*
X215096666Y-15421904D01*
X215382380Y-14850476D02*
X214382380Y-15183809D01*
X215382380Y-15517142D01*
X214382380Y-16326666D02*
X214382380Y-15850476D01*
X214858571Y-15802857D01*
X214810952Y-15850476D01*
X214763333Y-15945714D01*
X214763333Y-16183809D01*
X214810952Y-16279047D01*
X214858571Y-16326666D01*
X214953809Y-16374285D01*
X215191904Y-16374285D01*
X215287142Y-16326666D01*
X215334761Y-16279047D01*
X215382380Y-16183809D01*
X215382380Y-15945714D01*
X215334761Y-15850476D01*
X215287142Y-15802857D01*
X213666666Y-16985714D02*
X213666666Y-17461904D01*
X213952380Y-16890476D02*
X212952380Y-17223809D01*
X213952380Y-17557142D01*
X212952380Y-18319047D02*
X212952380Y-18128571D01*
X213000000Y-18033333D01*
X213047619Y-17985714D01*
X213190476Y-17890476D01*
X213380952Y-17842857D01*
X213761904Y-17842857D01*
X213857142Y-17890476D01*
X213904761Y-17938095D01*
X213952380Y-18033333D01*
X213952380Y-18223809D01*
X213904761Y-18319047D01*
X213857142Y-18366666D01*
X213761904Y-18414285D01*
X213523809Y-18414285D01*
X213428571Y-18366666D01*
X213380952Y-18319047D01*
X213333333Y-18223809D01*
X213333333Y-18033333D01*
X213380952Y-17938095D01*
X213428571Y-17890476D01*
X213523809Y-17842857D01*
X215056666Y-17005714D02*
X215056666Y-17481904D01*
X215342380Y-16910476D02*
X214342380Y-17243809D01*
X215342380Y-17577142D01*
X214675714Y-18339047D02*
X215342380Y-18339047D01*
X214294761Y-18100952D02*
X215009047Y-17862857D01*
X215009047Y-18481904D01*
X213942380Y-25710952D02*
X213466190Y-25377619D01*
X213942380Y-25139523D02*
X212942380Y-25139523D01*
X212942380Y-25520476D01*
X212990000Y-25615714D01*
X213037619Y-25663333D01*
X213132857Y-25710952D01*
X213275714Y-25710952D01*
X213370952Y-25663333D01*
X213418571Y-25615714D01*
X213466190Y-25520476D01*
X213466190Y-25139523D01*
X213418571Y-26139523D02*
X213418571Y-26472857D01*
X213942380Y-26615714D02*
X213942380Y-26139523D01*
X212942380Y-26139523D01*
X212942380Y-26615714D01*
X213894761Y-26996666D02*
X213942380Y-27139523D01*
X213942380Y-27377619D01*
X213894761Y-27472857D01*
X213847142Y-27520476D01*
X213751904Y-27568095D01*
X213656666Y-27568095D01*
X213561428Y-27520476D01*
X213513809Y-27472857D01*
X213466190Y-27377619D01*
X213418571Y-27187142D01*
X213370952Y-27091904D01*
X213323333Y-27044285D01*
X213228095Y-26996666D01*
X213132857Y-26996666D01*
X213037619Y-27044285D01*
X212990000Y-27091904D01*
X212942380Y-27187142D01*
X212942380Y-27425238D01*
X212990000Y-27568095D01*
X214400000Y-25658095D02*
X214352380Y-25562857D01*
X214352380Y-25420000D01*
X214400000Y-25277142D01*
X214495238Y-25181904D01*
X214590476Y-25134285D01*
X214780952Y-25086666D01*
X214923809Y-25086666D01*
X215114285Y-25134285D01*
X215209523Y-25181904D01*
X215304761Y-25277142D01*
X215352380Y-25420000D01*
X215352380Y-25515238D01*
X215304761Y-25658095D01*
X215257142Y-25705714D01*
X214923809Y-25705714D01*
X214923809Y-25515238D01*
X215352380Y-26134285D02*
X214352380Y-26134285D01*
X215352380Y-26705714D01*
X214352380Y-26705714D01*
X215352380Y-27181904D02*
X214352380Y-27181904D01*
X214352380Y-27420000D01*
X214400000Y-27562857D01*
X214495238Y-27658095D01*
X214590476Y-27705714D01*
X214780952Y-27753333D01*
X214923809Y-27753333D01*
X215114285Y-27705714D01*
X215209523Y-27658095D01*
X215304761Y-27562857D01*
X215352380Y-27420000D01*
X215352380Y-27181904D01*
X213894761Y-21934285D02*
X213942380Y-22077142D01*
X213942380Y-22315238D01*
X213894761Y-22410476D01*
X213847142Y-22458095D01*
X213751904Y-22505714D01*
X213656666Y-22505714D01*
X213561428Y-22458095D01*
X213513809Y-22410476D01*
X213466190Y-22315238D01*
X213418571Y-22124761D01*
X213370952Y-22029523D01*
X213323333Y-21981904D01*
X213228095Y-21934285D01*
X213132857Y-21934285D01*
X213037619Y-21981904D01*
X212990000Y-22029523D01*
X212942380Y-22124761D01*
X212942380Y-22362857D01*
X212990000Y-22505714D01*
X213847142Y-23505714D02*
X213894761Y-23458095D01*
X213942380Y-23315238D01*
X213942380Y-23220000D01*
X213894761Y-23077142D01*
X213799523Y-22981904D01*
X213704285Y-22934285D01*
X213513809Y-22886666D01*
X213370952Y-22886666D01*
X213180476Y-22934285D01*
X213085238Y-22981904D01*
X212990000Y-23077142D01*
X212942380Y-23220000D01*
X212942380Y-23315238D01*
X212990000Y-23458095D01*
X213037619Y-23505714D01*
X213942380Y-23934285D02*
X212942380Y-23934285D01*
X213942380Y-24505714D02*
X213370952Y-24077142D01*
X212942380Y-24505714D02*
X213513809Y-23934285D01*
X215352380Y-21936666D02*
X214352380Y-21936666D01*
X215066666Y-22270000D01*
X214352380Y-22603333D01*
X215352380Y-22603333D01*
X214352380Y-23270000D02*
X214352380Y-23460476D01*
X214400000Y-23555714D01*
X214495238Y-23650952D01*
X214685714Y-23698571D01*
X215019047Y-23698571D01*
X215209523Y-23650952D01*
X215304761Y-23555714D01*
X215352380Y-23460476D01*
X215352380Y-23270000D01*
X215304761Y-23174761D01*
X215209523Y-23079523D01*
X215019047Y-23031904D01*
X214685714Y-23031904D01*
X214495238Y-23079523D01*
X214400000Y-23174761D01*
X214352380Y-23270000D01*
X215304761Y-24079523D02*
X215352380Y-24222380D01*
X215352380Y-24460476D01*
X215304761Y-24555714D01*
X215257142Y-24603333D01*
X215161904Y-24650952D01*
X215066666Y-24650952D01*
X214971428Y-24603333D01*
X214923809Y-24555714D01*
X214876190Y-24460476D01*
X214828571Y-24270000D01*
X214780952Y-24174761D01*
X214733333Y-24127142D01*
X214638095Y-24079523D01*
X214542857Y-24079523D01*
X214447619Y-24127142D01*
X214400000Y-24174761D01*
X214352380Y-24270000D01*
X214352380Y-24508095D01*
X214400000Y-24650952D01*
X213942380Y-19142380D02*
X212942380Y-19142380D01*
X213656666Y-19475714D01*
X212942380Y-19809047D01*
X213942380Y-19809047D01*
X213942380Y-20285238D02*
X212942380Y-20285238D01*
X213894761Y-20713809D02*
X213942380Y-20856666D01*
X213942380Y-21094761D01*
X213894761Y-21190000D01*
X213847142Y-21237619D01*
X213751904Y-21285238D01*
X213656666Y-21285238D01*
X213561428Y-21237619D01*
X213513809Y-21190000D01*
X213466190Y-21094761D01*
X213418571Y-20904285D01*
X213370952Y-20809047D01*
X213323333Y-20761428D01*
X213228095Y-20713809D01*
X213132857Y-20713809D01*
X213037619Y-20761428D01*
X212990000Y-20809047D01*
X212942380Y-20904285D01*
X212942380Y-21142380D01*
X212990000Y-21285238D01*
X214362380Y-18896666D02*
X215362380Y-19230000D01*
X214362380Y-19563333D01*
X215267142Y-20468095D02*
X215314761Y-20420476D01*
X215362380Y-20277619D01*
X215362380Y-20182380D01*
X215314761Y-20039523D01*
X215219523Y-19944285D01*
X215124285Y-19896666D01*
X214933809Y-19849047D01*
X214790952Y-19849047D01*
X214600476Y-19896666D01*
X214505238Y-19944285D01*
X214410000Y-20039523D01*
X214362380Y-20182380D01*
X214362380Y-20277619D01*
X214410000Y-20420476D01*
X214457619Y-20468095D01*
X215267142Y-21468095D02*
X215314761Y-21420476D01*
X215362380Y-21277619D01*
X215362380Y-21182380D01*
X215314761Y-21039523D01*
X215219523Y-20944285D01*
X215124285Y-20896666D01*
X214933809Y-20849047D01*
X214790952Y-20849047D01*
X214600476Y-20896666D01*
X214505238Y-20944285D01*
X214410000Y-21039523D01*
X214362380Y-21182380D01*
X214362380Y-21277619D01*
X214410000Y-21420476D01*
X214457619Y-21468095D01*
G04 #@! TD*
M02*
