G04 #@! TF.GenerationSoftware,KiCad,Pcbnew,(5.1.5)-3*
G04 #@! TF.CreationDate,2020-08-17T08:43:26+02:00*
G04 #@! TF.ProjectId,carecasetester,63617265-6361-4736-9574-65737465722e,rev?*
G04 #@! TF.SameCoordinates,Original*
G04 #@! TF.FileFunction,Profile,NP*
%FSLAX46Y46*%
G04 Gerber Fmt 4.6, Leading zero omitted, Abs format (unit mm)*
G04 Created by KiCad (PCBNEW (5.1.5)-3) date 2020-08-17 08:43:26*
%MOMM*%
%LPD*%
G04 APERTURE LIST*
G04 #@! TA.AperFunction,Profile*
%ADD10C,0.200000*%
G04 #@! TD*
G04 APERTURE END LIST*
D10*
X234040000Y-9300000D02*
X160610000Y-9330000D01*
X235330000Y-10590000D02*
X235290000Y-169120000D01*
X78440000Y-170400000D02*
X234000000Y-170410000D01*
X77000000Y-10640000D02*
X77150000Y-169110000D01*
X78290000Y-9350000D02*
X87000000Y-9350000D01*
X77000000Y-10640000D02*
G75*
G02X78290000Y-9350000I1290000J0D01*
G01*
X78440000Y-170400000D02*
G75*
G02X77150000Y-169110000I0J1290000D01*
G01*
X235290000Y-169120000D02*
G75*
G02X234000000Y-170410000I-1290000J0D01*
G01*
X234040000Y-9300000D02*
G75*
G02X235330000Y-10590000I0J-1290000D01*
G01*
X137890000Y-9330000D02*
X141450000Y-9330000D01*
X136600000Y-10620000D02*
X88290000Y-10640000D01*
X136600000Y-10620000D02*
G75*
G02X137890000Y-9330000I1290000J0D01*
G01*
X87000000Y-9350000D02*
G75*
G02X88290000Y-10640000I0J-1290000D01*
G01*
X142740000Y-10620000D02*
X159320000Y-10620000D01*
X159320000Y-10620000D02*
G75*
G02X160610000Y-9330000I1290000J0D01*
G01*
X141450000Y-9330000D02*
G75*
G02X142740000Y-10620000I0J-1290000D01*
G01*
X83280000Y-14450000D02*
G75*
G03X83280000Y-14450000I-1591897J0D01*
G01*
X163220000Y-14600000D02*
G75*
G03X163220000Y-14600000I-1590000J0D01*
G01*
X161280283Y-50710000D02*
G75*
G03X161280283Y-50710000I-1592180J0D01*
G01*
X85310123Y-50710000D02*
G75*
G03X85310123Y-50710000I-1622020J0D01*
G01*
X152660000Y-78311679D02*
G75*
G03X152660000Y-78311679I-1550000J0D01*
G01*
X100610000Y-141520000D02*
G75*
G03X100610000Y-141520000I-3400000J0D01*
G01*
X218610000Y-141520000D02*
G75*
G03X218610000Y-141520000I-3400000J0D01*
G01*
X218410000Y-97450000D02*
G75*
G03X218410000Y-97450000I-3200000J0D01*
G01*
X100410000Y-97450000D02*
G75*
G03X100410000Y-97450000I-3200000J0D01*
G01*
M02*
