G04 #@! TF.GenerationSoftware,KiCad,Pcbnew,(5.1.5)-3*
G04 #@! TF.CreationDate,2020-08-17T08:43:25+02:00*
G04 #@! TF.ProjectId,carecasetester,63617265-6361-4736-9574-65737465722e,rev?*
G04 #@! TF.SameCoordinates,Original*
G04 #@! TF.FileFunction,Paste,Bot*
G04 #@! TF.FilePolarity,Positive*
%FSLAX46Y46*%
G04 Gerber Fmt 4.6, Leading zero omitted, Abs format (unit mm)*
G04 Created by KiCad (PCBNEW (5.1.5)-3) date 2020-08-17 08:43:25*
%MOMM*%
%LPD*%
G04 APERTURE LIST*
G04 #@! TA.AperFunction,Profile*
%ADD10C,0.200000*%
G04 #@! TD*
%ADD11C,0.150000*%
G04 APERTURE END LIST*
D10*
X234040000Y-9300000D02*
X160610000Y-9330000D01*
X235330000Y-10590000D02*
X235290000Y-169120000D01*
X78440000Y-170400000D02*
X234000000Y-170410000D01*
X77000000Y-10640000D02*
X77150000Y-169110000D01*
X78290000Y-9350000D02*
X87000000Y-9350000D01*
X77000000Y-10640000D02*
G75*
G02X78290000Y-9350000I1290000J0D01*
G01*
X78440000Y-170400000D02*
G75*
G02X77150000Y-169110000I0J1290000D01*
G01*
X235290000Y-169120000D02*
G75*
G02X234000000Y-170410000I-1290000J0D01*
G01*
X234040000Y-9300000D02*
G75*
G02X235330000Y-10590000I0J-1290000D01*
G01*
X137890000Y-9330000D02*
X141450000Y-9330000D01*
X136600000Y-10620000D02*
X88290000Y-10640000D01*
X136600000Y-10620000D02*
G75*
G02X137890000Y-9330000I1290000J0D01*
G01*
X87000000Y-9350000D02*
G75*
G02X88290000Y-10640000I0J-1290000D01*
G01*
X142740000Y-10620000D02*
X159320000Y-10620000D01*
X159320000Y-10620000D02*
G75*
G02X160610000Y-9330000I1290000J0D01*
G01*
X141450000Y-9330000D02*
G75*
G02X142740000Y-10620000I0J-1290000D01*
G01*
X83280000Y-14450000D02*
G75*
G03X83280000Y-14450000I-1591897J0D01*
G01*
X163220000Y-14600000D02*
G75*
G03X163220000Y-14600000I-1590000J0D01*
G01*
X161280283Y-50710000D02*
G75*
G03X161280283Y-50710000I-1592180J0D01*
G01*
X85310123Y-50710000D02*
G75*
G03X85310123Y-50710000I-1622020J0D01*
G01*
X152660000Y-78311679D02*
G75*
G03X152660000Y-78311679I-1550000J0D01*
G01*
X100610000Y-141520000D02*
G75*
G03X100610000Y-141520000I-3400000J0D01*
G01*
X218610000Y-141520000D02*
G75*
G03X218610000Y-141520000I-3400000J0D01*
G01*
X218410000Y-97450000D02*
G75*
G03X218410000Y-97450000I-3200000J0D01*
G01*
X100410000Y-97450000D02*
G75*
G03X100410000Y-97450000I-3200000J0D01*
G01*
D11*
G04 #@! TO.C,REF\002A\002A*
G36*
X80839901Y-18230241D02*
G01*
X80844755Y-18230961D01*
X80849514Y-18232153D01*
X80854134Y-18233806D01*
X80858570Y-18235904D01*
X80862779Y-18238427D01*
X80866720Y-18241349D01*
X80870355Y-18244645D01*
X80873651Y-18248280D01*
X80876573Y-18252221D01*
X80879096Y-18256430D01*
X80881194Y-18260866D01*
X80882847Y-18265486D01*
X80884039Y-18270245D01*
X80884759Y-18275099D01*
X80885000Y-18280000D01*
X80885000Y-18380000D01*
X80884759Y-18384901D01*
X80884039Y-18389755D01*
X80882847Y-18394514D01*
X80881194Y-18399134D01*
X80879096Y-18403570D01*
X80876573Y-18407779D01*
X80873651Y-18411720D01*
X80870355Y-18415355D01*
X80866720Y-18418651D01*
X80862779Y-18421573D01*
X80858570Y-18424096D01*
X80854134Y-18426194D01*
X80849514Y-18427847D01*
X80844755Y-18429039D01*
X80839901Y-18429759D01*
X80835000Y-18430000D01*
X80185000Y-18430000D01*
X80180099Y-18429759D01*
X80175245Y-18429039D01*
X80170486Y-18427847D01*
X80165866Y-18426194D01*
X80161430Y-18424096D01*
X80157221Y-18421573D01*
X80153280Y-18418651D01*
X80149645Y-18415355D01*
X80146349Y-18411720D01*
X80143427Y-18407779D01*
X80140904Y-18403570D01*
X80138806Y-18399134D01*
X80137153Y-18394514D01*
X80135961Y-18389755D01*
X80135241Y-18384901D01*
X80135000Y-18380000D01*
X80135000Y-18280000D01*
X80135241Y-18275099D01*
X80135961Y-18270245D01*
X80137153Y-18265486D01*
X80138806Y-18260866D01*
X80140904Y-18256430D01*
X80143427Y-18252221D01*
X80146349Y-18248280D01*
X80149645Y-18244645D01*
X80153280Y-18241349D01*
X80157221Y-18238427D01*
X80161430Y-18235904D01*
X80165866Y-18233806D01*
X80170486Y-18232153D01*
X80175245Y-18230961D01*
X80180099Y-18230241D01*
X80185000Y-18230000D01*
X80835000Y-18230000D01*
X80839901Y-18230241D01*
G37*
G36*
X80594103Y-17984842D02*
G01*
X80598964Y-17985509D01*
X80603737Y-17986650D01*
X80608375Y-17988252D01*
X80612833Y-17990302D01*
X80617069Y-17992778D01*
X80621042Y-17995658D01*
X80624713Y-17998913D01*
X80628047Y-18002513D01*
X80885162Y-18308931D01*
X80888128Y-18312840D01*
X80890696Y-18317021D01*
X80892843Y-18321433D01*
X80894546Y-18326035D01*
X80895790Y-18330781D01*
X80896563Y-18335627D01*
X80896857Y-18340525D01*
X80896670Y-18345428D01*
X80896003Y-18350289D01*
X80894862Y-18355061D01*
X80893260Y-18359699D01*
X80891211Y-18364157D01*
X80888734Y-18368393D01*
X80885854Y-18372366D01*
X80882599Y-18376038D01*
X80878999Y-18379373D01*
X80802394Y-18443651D01*
X80798485Y-18446616D01*
X80794304Y-18449185D01*
X80789891Y-18451331D01*
X80785290Y-18453034D01*
X80780543Y-18454278D01*
X80775698Y-18455051D01*
X80770800Y-18455345D01*
X80765897Y-18455158D01*
X80761036Y-18454491D01*
X80756263Y-18453350D01*
X80751625Y-18451748D01*
X80747167Y-18449698D01*
X80742931Y-18447222D01*
X80738958Y-18444342D01*
X80735287Y-18441087D01*
X80731953Y-18437487D01*
X80474838Y-18131069D01*
X80471872Y-18127160D01*
X80469304Y-18122979D01*
X80467157Y-18118567D01*
X80465454Y-18113965D01*
X80464210Y-18109219D01*
X80463437Y-18104373D01*
X80463143Y-18099475D01*
X80463330Y-18094572D01*
X80463997Y-18089711D01*
X80465138Y-18084939D01*
X80466740Y-18080301D01*
X80468789Y-18075843D01*
X80471266Y-18071607D01*
X80474146Y-18067634D01*
X80477401Y-18063962D01*
X80481001Y-18060627D01*
X80557606Y-17996349D01*
X80561515Y-17993384D01*
X80565696Y-17990815D01*
X80570109Y-17988669D01*
X80574710Y-17986966D01*
X80579457Y-17985722D01*
X80584302Y-17984949D01*
X80589200Y-17984655D01*
X80594103Y-17984842D01*
G37*
G36*
X80849901Y-17800241D02*
G01*
X80854755Y-17800961D01*
X80859514Y-17802153D01*
X80864134Y-17803806D01*
X80868570Y-17805904D01*
X80872779Y-17808427D01*
X80876720Y-17811349D01*
X80880355Y-17814645D01*
X80883651Y-17818280D01*
X80886573Y-17822221D01*
X80889096Y-17826430D01*
X80891194Y-17830866D01*
X80892847Y-17835486D01*
X80894039Y-17840245D01*
X80894759Y-17845099D01*
X80895000Y-17850000D01*
X80895000Y-17950000D01*
X80894759Y-17954901D01*
X80894039Y-17959755D01*
X80892847Y-17964514D01*
X80891194Y-17969134D01*
X80889096Y-17973570D01*
X80886573Y-17977779D01*
X80883651Y-17981720D01*
X80880355Y-17985355D01*
X80876720Y-17988651D01*
X80872779Y-17991573D01*
X80868570Y-17994096D01*
X80864134Y-17996194D01*
X80859514Y-17997847D01*
X80854755Y-17999039D01*
X80849901Y-17999759D01*
X80845000Y-18000000D01*
X80195000Y-18000000D01*
X80190099Y-17999759D01*
X80185245Y-17999039D01*
X80180486Y-17997847D01*
X80175866Y-17996194D01*
X80171430Y-17994096D01*
X80167221Y-17991573D01*
X80163280Y-17988651D01*
X80159645Y-17985355D01*
X80156349Y-17981720D01*
X80153427Y-17977779D01*
X80150904Y-17973570D01*
X80148806Y-17969134D01*
X80147153Y-17964514D01*
X80145961Y-17959755D01*
X80145241Y-17954901D01*
X80145000Y-17950000D01*
X80145000Y-17850000D01*
X80145241Y-17845099D01*
X80145961Y-17840245D01*
X80147153Y-17835486D01*
X80148806Y-17830866D01*
X80150904Y-17826430D01*
X80153427Y-17822221D01*
X80156349Y-17818280D01*
X80159645Y-17814645D01*
X80163280Y-17811349D01*
X80167221Y-17808427D01*
X80171430Y-17805904D01*
X80175866Y-17803806D01*
X80180486Y-17802153D01*
X80185245Y-17800961D01*
X80190099Y-17800241D01*
X80195000Y-17800000D01*
X80845000Y-17800000D01*
X80849901Y-17800241D01*
G37*
G36*
X80775698Y-17774949D02*
G01*
X80780544Y-17775722D01*
X80785290Y-17776966D01*
X80789892Y-17778669D01*
X80794304Y-17780816D01*
X80798485Y-17783384D01*
X80802394Y-17786349D01*
X80878999Y-17850627D01*
X80882599Y-17853962D01*
X80885854Y-17857633D01*
X80888734Y-17861606D01*
X80891210Y-17865842D01*
X80893260Y-17870300D01*
X80894862Y-17874938D01*
X80896003Y-17879711D01*
X80896670Y-17884572D01*
X80896857Y-17889475D01*
X80896563Y-17894373D01*
X80895790Y-17899218D01*
X80894546Y-17903965D01*
X80892843Y-17908566D01*
X80890697Y-17912979D01*
X80888128Y-17917160D01*
X80885162Y-17921069D01*
X80628047Y-18227487D01*
X80624713Y-18231087D01*
X80621041Y-18234342D01*
X80617068Y-18237222D01*
X80612832Y-18239699D01*
X80608374Y-18241748D01*
X80603736Y-18243350D01*
X80598964Y-18244491D01*
X80594103Y-18245158D01*
X80589200Y-18245345D01*
X80584302Y-18245051D01*
X80579456Y-18244278D01*
X80574710Y-18243034D01*
X80570108Y-18241331D01*
X80565696Y-18239184D01*
X80561515Y-18236616D01*
X80557606Y-18233651D01*
X80481001Y-18169373D01*
X80477401Y-18166038D01*
X80474146Y-18162367D01*
X80471266Y-18158394D01*
X80468790Y-18154158D01*
X80466740Y-18149700D01*
X80465138Y-18145062D01*
X80463997Y-18140289D01*
X80463330Y-18135428D01*
X80463143Y-18130525D01*
X80463437Y-18125627D01*
X80464210Y-18120782D01*
X80465454Y-18116035D01*
X80467157Y-18111434D01*
X80469303Y-18107021D01*
X80471872Y-18102840D01*
X80474838Y-18098931D01*
X80731953Y-17792513D01*
X80735287Y-17788913D01*
X80738959Y-17785658D01*
X80742932Y-17782778D01*
X80747168Y-17780301D01*
X80751626Y-17778252D01*
X80756264Y-17776650D01*
X80761036Y-17775509D01*
X80765897Y-17774842D01*
X80770800Y-17774655D01*
X80775698Y-17774949D01*
G37*
G36*
X79824373Y-17693437D02*
G01*
X79829218Y-17694210D01*
X79833965Y-17695454D01*
X79838566Y-17697157D01*
X79842979Y-17699303D01*
X79847160Y-17701872D01*
X79851069Y-17704838D01*
X80157487Y-17961953D01*
X80161087Y-17965287D01*
X80164342Y-17968959D01*
X80167222Y-17972932D01*
X80169699Y-17977168D01*
X80171748Y-17981626D01*
X80173350Y-17986264D01*
X80174491Y-17991036D01*
X80175158Y-17995897D01*
X80175345Y-18000800D01*
X80175051Y-18005698D01*
X80174278Y-18010544D01*
X80173034Y-18015290D01*
X80171331Y-18019892D01*
X80169184Y-18024304D01*
X80166616Y-18028485D01*
X80163651Y-18032394D01*
X80099373Y-18108999D01*
X80096038Y-18112599D01*
X80092367Y-18115854D01*
X80088394Y-18118734D01*
X80084158Y-18121210D01*
X80079700Y-18123260D01*
X80075062Y-18124862D01*
X80070289Y-18126003D01*
X80065428Y-18126670D01*
X80060525Y-18126857D01*
X80055627Y-18126563D01*
X80050782Y-18125790D01*
X80046035Y-18124546D01*
X80041434Y-18122843D01*
X80037021Y-18120697D01*
X80032840Y-18118128D01*
X80028931Y-18115162D01*
X79722513Y-17858047D01*
X79718913Y-17854713D01*
X79715658Y-17851041D01*
X79712778Y-17847068D01*
X79710301Y-17842832D01*
X79708252Y-17838374D01*
X79706650Y-17833736D01*
X79705509Y-17828964D01*
X79704842Y-17824103D01*
X79704655Y-17819200D01*
X79704949Y-17814302D01*
X79705722Y-17809456D01*
X79706966Y-17804710D01*
X79708669Y-17800108D01*
X79710816Y-17795696D01*
X79713384Y-17791515D01*
X79716349Y-17787606D01*
X79780627Y-17711001D01*
X79783962Y-17707401D01*
X79787633Y-17704146D01*
X79791606Y-17701266D01*
X79795842Y-17698790D01*
X79800300Y-17696740D01*
X79804938Y-17695138D01*
X79809711Y-17693997D01*
X79814572Y-17693330D01*
X79819475Y-17693143D01*
X79824373Y-17693437D01*
G37*
G36*
X79884901Y-17695241D02*
G01*
X79889755Y-17695961D01*
X79894514Y-17697153D01*
X79899134Y-17698806D01*
X79903570Y-17700904D01*
X79907779Y-17703427D01*
X79911720Y-17706349D01*
X79915355Y-17709645D01*
X79918651Y-17713280D01*
X79921573Y-17717221D01*
X79924096Y-17721430D01*
X79926194Y-17725866D01*
X79927847Y-17730486D01*
X79929039Y-17735245D01*
X79929759Y-17740099D01*
X79930000Y-17745000D01*
X79930000Y-18395000D01*
X79929759Y-18399901D01*
X79929039Y-18404755D01*
X79927847Y-18409514D01*
X79926194Y-18414134D01*
X79924096Y-18418570D01*
X79921573Y-18422779D01*
X79918651Y-18426720D01*
X79915355Y-18430355D01*
X79911720Y-18433651D01*
X79907779Y-18436573D01*
X79903570Y-18439096D01*
X79899134Y-18441194D01*
X79894514Y-18442847D01*
X79889755Y-18444039D01*
X79884901Y-18444759D01*
X79880000Y-18445000D01*
X79780000Y-18445000D01*
X79775099Y-18444759D01*
X79770245Y-18444039D01*
X79765486Y-18442847D01*
X79760866Y-18441194D01*
X79756430Y-18439096D01*
X79752221Y-18436573D01*
X79748280Y-18433651D01*
X79744645Y-18430355D01*
X79741349Y-18426720D01*
X79738427Y-18422779D01*
X79735904Y-18418570D01*
X79733806Y-18414134D01*
X79732153Y-18409514D01*
X79730961Y-18404755D01*
X79730241Y-18399901D01*
X79730000Y-18395000D01*
X79730000Y-17745000D01*
X79730241Y-17740099D01*
X79730961Y-17735245D01*
X79732153Y-17730486D01*
X79733806Y-17725866D01*
X79735904Y-17721430D01*
X79738427Y-17717221D01*
X79741349Y-17713280D01*
X79744645Y-17709645D01*
X79748280Y-17706349D01*
X79752221Y-17703427D01*
X79756430Y-17700904D01*
X79760866Y-17698806D01*
X79765486Y-17697153D01*
X79770245Y-17695961D01*
X79775099Y-17695241D01*
X79780000Y-17695000D01*
X79880000Y-17695000D01*
X79884901Y-17695241D01*
G37*
G36*
X80275428Y-17693330D02*
G01*
X80280289Y-17693997D01*
X80285061Y-17695138D01*
X80289699Y-17696740D01*
X80294157Y-17698789D01*
X80298393Y-17701266D01*
X80302366Y-17704146D01*
X80306038Y-17707401D01*
X80309373Y-17711001D01*
X80373651Y-17787606D01*
X80376616Y-17791515D01*
X80379185Y-17795696D01*
X80381331Y-17800109D01*
X80383034Y-17804710D01*
X80384278Y-17809457D01*
X80385051Y-17814302D01*
X80385345Y-17819200D01*
X80385158Y-17824103D01*
X80384491Y-17828964D01*
X80383350Y-17833737D01*
X80381748Y-17838375D01*
X80379698Y-17842833D01*
X80377222Y-17847069D01*
X80374342Y-17851042D01*
X80371087Y-17854713D01*
X80367487Y-17858047D01*
X80061069Y-18115162D01*
X80057160Y-18118128D01*
X80052979Y-18120696D01*
X80048567Y-18122843D01*
X80043965Y-18124546D01*
X80039219Y-18125790D01*
X80034373Y-18126563D01*
X80029475Y-18126857D01*
X80024572Y-18126670D01*
X80019711Y-18126003D01*
X80014939Y-18124862D01*
X80010301Y-18123260D01*
X80005843Y-18121211D01*
X80001607Y-18118734D01*
X79997634Y-18115854D01*
X79993962Y-18112599D01*
X79990627Y-18108999D01*
X79926349Y-18032394D01*
X79923384Y-18028485D01*
X79920815Y-18024304D01*
X79918669Y-18019891D01*
X79916966Y-18015290D01*
X79915722Y-18010543D01*
X79914949Y-18005698D01*
X79914655Y-18000800D01*
X79914842Y-17995897D01*
X79915509Y-17991036D01*
X79916650Y-17986263D01*
X79918252Y-17981625D01*
X79920302Y-17977167D01*
X79922778Y-17972931D01*
X79925658Y-17968958D01*
X79928913Y-17965287D01*
X79932513Y-17961953D01*
X80238931Y-17704838D01*
X80242840Y-17701872D01*
X80247021Y-17699304D01*
X80251433Y-17697157D01*
X80256035Y-17695454D01*
X80260781Y-17694210D01*
X80265627Y-17693437D01*
X80270525Y-17693143D01*
X80275428Y-17693330D01*
G37*
G36*
X80314901Y-17705241D02*
G01*
X80319755Y-17705961D01*
X80324514Y-17707153D01*
X80329134Y-17708806D01*
X80333570Y-17710904D01*
X80337779Y-17713427D01*
X80341720Y-17716349D01*
X80345355Y-17719645D01*
X80348651Y-17723280D01*
X80351573Y-17727221D01*
X80354096Y-17731430D01*
X80356194Y-17735866D01*
X80357847Y-17740486D01*
X80359039Y-17745245D01*
X80359759Y-17750099D01*
X80360000Y-17755000D01*
X80360000Y-18405000D01*
X80359759Y-18409901D01*
X80359039Y-18414755D01*
X80357847Y-18419514D01*
X80356194Y-18424134D01*
X80354096Y-18428570D01*
X80351573Y-18432779D01*
X80348651Y-18436720D01*
X80345355Y-18440355D01*
X80341720Y-18443651D01*
X80337779Y-18446573D01*
X80333570Y-18449096D01*
X80329134Y-18451194D01*
X80324514Y-18452847D01*
X80319755Y-18454039D01*
X80314901Y-18454759D01*
X80310000Y-18455000D01*
X80210000Y-18455000D01*
X80205099Y-18454759D01*
X80200245Y-18454039D01*
X80195486Y-18452847D01*
X80190866Y-18451194D01*
X80186430Y-18449096D01*
X80182221Y-18446573D01*
X80178280Y-18443651D01*
X80174645Y-18440355D01*
X80171349Y-18436720D01*
X80168427Y-18432779D01*
X80165904Y-18428570D01*
X80163806Y-18424134D01*
X80162153Y-18419514D01*
X80160961Y-18414755D01*
X80160241Y-18409901D01*
X80160000Y-18405000D01*
X80160000Y-17755000D01*
X80160241Y-17750099D01*
X80160961Y-17745245D01*
X80162153Y-17740486D01*
X80163806Y-17735866D01*
X80165904Y-17731430D01*
X80168427Y-17727221D01*
X80171349Y-17723280D01*
X80174645Y-17719645D01*
X80178280Y-17716349D01*
X80182221Y-17713427D01*
X80186430Y-17710904D01*
X80190866Y-17708806D01*
X80195486Y-17707153D01*
X80200245Y-17705961D01*
X80205099Y-17705241D01*
X80210000Y-17705000D01*
X80310000Y-17705000D01*
X80314901Y-17705241D01*
G37*
G04 #@! TD*
M02*
