G04 #@! TF.GenerationSoftware,KiCad,Pcbnew,(5.1.5)-3*
G04 #@! TF.CreationDate,2020-08-17T08:43:25+02:00*
G04 #@! TF.ProjectId,carecasetester,63617265-6361-4736-9574-65737465722e,rev?*
G04 #@! TF.SameCoordinates,Original*
G04 #@! TF.FileFunction,Paste,Top*
G04 #@! TF.FilePolarity,Positive*
%FSLAX46Y46*%
G04 Gerber Fmt 4.6, Leading zero omitted, Abs format (unit mm)*
G04 Created by KiCad (PCBNEW (5.1.5)-3) date 2020-08-17 08:43:25*
%MOMM*%
%LPD*%
G04 APERTURE LIST*
G04 #@! TA.AperFunction,Profile*
%ADD10C,0.200000*%
G04 #@! TD*
%ADD11C,0.150000*%
%ADD12R,0.900000X0.800000*%
G04 APERTURE END LIST*
D10*
X234040000Y-9300000D02*
X160610000Y-9330000D01*
X235330000Y-10590000D02*
X235290000Y-169120000D01*
X78440000Y-170400000D02*
X234000000Y-170410000D01*
X77000000Y-10640000D02*
X77150000Y-169110000D01*
X78290000Y-9350000D02*
X87000000Y-9350000D01*
X77000000Y-10640000D02*
G75*
G02X78290000Y-9350000I1290000J0D01*
G01*
X78440000Y-170400000D02*
G75*
G02X77150000Y-169110000I0J1290000D01*
G01*
X235290000Y-169120000D02*
G75*
G02X234000000Y-170410000I-1290000J0D01*
G01*
X234040000Y-9300000D02*
G75*
G02X235330000Y-10590000I0J-1290000D01*
G01*
X137890000Y-9330000D02*
X141450000Y-9330000D01*
X136600000Y-10620000D02*
X88290000Y-10640000D01*
X136600000Y-10620000D02*
G75*
G02X137890000Y-9330000I1290000J0D01*
G01*
X87000000Y-9350000D02*
G75*
G02X88290000Y-10640000I0J-1290000D01*
G01*
X142740000Y-10620000D02*
X159320000Y-10620000D01*
X159320000Y-10620000D02*
G75*
G02X160610000Y-9330000I1290000J0D01*
G01*
X141450000Y-9330000D02*
G75*
G02X142740000Y-10620000I0J-1290000D01*
G01*
X83280000Y-14450000D02*
G75*
G03X83280000Y-14450000I-1591897J0D01*
G01*
X163220000Y-14600000D02*
G75*
G03X163220000Y-14600000I-1590000J0D01*
G01*
X161280283Y-50710000D02*
G75*
G03X161280283Y-50710000I-1592180J0D01*
G01*
X85310123Y-50710000D02*
G75*
G03X85310123Y-50710000I-1622020J0D01*
G01*
X152660000Y-78311679D02*
G75*
G03X152660000Y-78311679I-1550000J0D01*
G01*
X100610000Y-141520000D02*
G75*
G03X100610000Y-141520000I-3400000J0D01*
G01*
X218610000Y-141520000D02*
G75*
G03X218610000Y-141520000I-3400000J0D01*
G01*
X218410000Y-97450000D02*
G75*
G03X218410000Y-97450000I-3200000J0D01*
G01*
X100410000Y-97450000D02*
G75*
G03X100410000Y-97450000I-3200000J0D01*
G01*
D11*
G04 #@! TO.C,REF\002A\002A*
G36*
X80429901Y-18260241D02*
G01*
X80434755Y-18260961D01*
X80439514Y-18262153D01*
X80444134Y-18263806D01*
X80448570Y-18265904D01*
X80452779Y-18268427D01*
X80456720Y-18271349D01*
X80460355Y-18274645D01*
X80463651Y-18278280D01*
X80466573Y-18282221D01*
X80469096Y-18286430D01*
X80471194Y-18290866D01*
X80472847Y-18295486D01*
X80474039Y-18300245D01*
X80474759Y-18305099D01*
X80475000Y-18310000D01*
X80475000Y-18410000D01*
X80474759Y-18414901D01*
X80474039Y-18419755D01*
X80472847Y-18424514D01*
X80471194Y-18429134D01*
X80469096Y-18433570D01*
X80466573Y-18437779D01*
X80463651Y-18441720D01*
X80460355Y-18445355D01*
X80456720Y-18448651D01*
X80452779Y-18451573D01*
X80448570Y-18454096D01*
X80444134Y-18456194D01*
X80439514Y-18457847D01*
X80434755Y-18459039D01*
X80429901Y-18459759D01*
X80425000Y-18460000D01*
X79775000Y-18460000D01*
X79770099Y-18459759D01*
X79765245Y-18459039D01*
X79760486Y-18457847D01*
X79755866Y-18456194D01*
X79751430Y-18454096D01*
X79747221Y-18451573D01*
X79743280Y-18448651D01*
X79739645Y-18445355D01*
X79736349Y-18441720D01*
X79733427Y-18437779D01*
X79730904Y-18433570D01*
X79728806Y-18429134D01*
X79727153Y-18424514D01*
X79725961Y-18419755D01*
X79725241Y-18414901D01*
X79725000Y-18410000D01*
X79725000Y-18310000D01*
X79725241Y-18305099D01*
X79725961Y-18300245D01*
X79727153Y-18295486D01*
X79728806Y-18290866D01*
X79730904Y-18286430D01*
X79733427Y-18282221D01*
X79736349Y-18278280D01*
X79739645Y-18274645D01*
X79743280Y-18271349D01*
X79747221Y-18268427D01*
X79751430Y-18265904D01*
X79755866Y-18263806D01*
X79760486Y-18262153D01*
X79765245Y-18260961D01*
X79770099Y-18260241D01*
X79775000Y-18260000D01*
X80425000Y-18260000D01*
X80429901Y-18260241D01*
G37*
G36*
X80025698Y-18014949D02*
G01*
X80030544Y-18015722D01*
X80035290Y-18016966D01*
X80039892Y-18018669D01*
X80044304Y-18020816D01*
X80048485Y-18023384D01*
X80052394Y-18026349D01*
X80128999Y-18090627D01*
X80132599Y-18093962D01*
X80135854Y-18097633D01*
X80138734Y-18101606D01*
X80141210Y-18105842D01*
X80143260Y-18110300D01*
X80144862Y-18114938D01*
X80146003Y-18119711D01*
X80146670Y-18124572D01*
X80146857Y-18129475D01*
X80146563Y-18134373D01*
X80145790Y-18139218D01*
X80144546Y-18143965D01*
X80142843Y-18148566D01*
X80140697Y-18152979D01*
X80138128Y-18157160D01*
X80135162Y-18161069D01*
X79878047Y-18467487D01*
X79874713Y-18471087D01*
X79871041Y-18474342D01*
X79867068Y-18477222D01*
X79862832Y-18479699D01*
X79858374Y-18481748D01*
X79853736Y-18483350D01*
X79848964Y-18484491D01*
X79844103Y-18485158D01*
X79839200Y-18485345D01*
X79834302Y-18485051D01*
X79829456Y-18484278D01*
X79824710Y-18483034D01*
X79820108Y-18481331D01*
X79815696Y-18479184D01*
X79811515Y-18476616D01*
X79807606Y-18473651D01*
X79731001Y-18409373D01*
X79727401Y-18406038D01*
X79724146Y-18402367D01*
X79721266Y-18398394D01*
X79718790Y-18394158D01*
X79716740Y-18389700D01*
X79715138Y-18385062D01*
X79713997Y-18380289D01*
X79713330Y-18375428D01*
X79713143Y-18370525D01*
X79713437Y-18365627D01*
X79714210Y-18360782D01*
X79715454Y-18356035D01*
X79717157Y-18351434D01*
X79719303Y-18347021D01*
X79721872Y-18342840D01*
X79724838Y-18338931D01*
X79981953Y-18032513D01*
X79985287Y-18028913D01*
X79988959Y-18025658D01*
X79992932Y-18022778D01*
X79997168Y-18020301D01*
X80001626Y-18018252D01*
X80006264Y-18016650D01*
X80011036Y-18015509D01*
X80015897Y-18014842D01*
X80020800Y-18014655D01*
X80025698Y-18014949D01*
G37*
G36*
X80419901Y-17830241D02*
G01*
X80424755Y-17830961D01*
X80429514Y-17832153D01*
X80434134Y-17833806D01*
X80438570Y-17835904D01*
X80442779Y-17838427D01*
X80446720Y-17841349D01*
X80450355Y-17844645D01*
X80453651Y-17848280D01*
X80456573Y-17852221D01*
X80459096Y-17856430D01*
X80461194Y-17860866D01*
X80462847Y-17865486D01*
X80464039Y-17870245D01*
X80464759Y-17875099D01*
X80465000Y-17880000D01*
X80465000Y-17980000D01*
X80464759Y-17984901D01*
X80464039Y-17989755D01*
X80462847Y-17994514D01*
X80461194Y-17999134D01*
X80459096Y-18003570D01*
X80456573Y-18007779D01*
X80453651Y-18011720D01*
X80450355Y-18015355D01*
X80446720Y-18018651D01*
X80442779Y-18021573D01*
X80438570Y-18024096D01*
X80434134Y-18026194D01*
X80429514Y-18027847D01*
X80424755Y-18029039D01*
X80419901Y-18029759D01*
X80415000Y-18030000D01*
X79765000Y-18030000D01*
X79760099Y-18029759D01*
X79755245Y-18029039D01*
X79750486Y-18027847D01*
X79745866Y-18026194D01*
X79741430Y-18024096D01*
X79737221Y-18021573D01*
X79733280Y-18018651D01*
X79729645Y-18015355D01*
X79726349Y-18011720D01*
X79723427Y-18007779D01*
X79720904Y-18003570D01*
X79718806Y-17999134D01*
X79717153Y-17994514D01*
X79715961Y-17989755D01*
X79715241Y-17984901D01*
X79715000Y-17980000D01*
X79715000Y-17880000D01*
X79715241Y-17875099D01*
X79715961Y-17870245D01*
X79717153Y-17865486D01*
X79718806Y-17860866D01*
X79720904Y-17856430D01*
X79723427Y-17852221D01*
X79726349Y-17848280D01*
X79729645Y-17844645D01*
X79733280Y-17841349D01*
X79737221Y-17838427D01*
X79741430Y-17835904D01*
X79745866Y-17833806D01*
X79750486Y-17832153D01*
X79755245Y-17830961D01*
X79760099Y-17830241D01*
X79765000Y-17830000D01*
X80415000Y-17830000D01*
X80419901Y-17830241D01*
G37*
G36*
X79844103Y-17804842D02*
G01*
X79848964Y-17805509D01*
X79853737Y-17806650D01*
X79858375Y-17808252D01*
X79862833Y-17810302D01*
X79867069Y-17812778D01*
X79871042Y-17815658D01*
X79874713Y-17818913D01*
X79878047Y-17822513D01*
X80135162Y-18128931D01*
X80138128Y-18132840D01*
X80140696Y-18137021D01*
X80142843Y-18141433D01*
X80144546Y-18146035D01*
X80145790Y-18150781D01*
X80146563Y-18155627D01*
X80146857Y-18160525D01*
X80146670Y-18165428D01*
X80146003Y-18170289D01*
X80144862Y-18175061D01*
X80143260Y-18179699D01*
X80141211Y-18184157D01*
X80138734Y-18188393D01*
X80135854Y-18192366D01*
X80132599Y-18196038D01*
X80128999Y-18199373D01*
X80052394Y-18263651D01*
X80048485Y-18266616D01*
X80044304Y-18269185D01*
X80039891Y-18271331D01*
X80035290Y-18273034D01*
X80030543Y-18274278D01*
X80025698Y-18275051D01*
X80020800Y-18275345D01*
X80015897Y-18275158D01*
X80011036Y-18274491D01*
X80006263Y-18273350D01*
X80001625Y-18271748D01*
X79997167Y-18269698D01*
X79992931Y-18267222D01*
X79988958Y-18264342D01*
X79985287Y-18261087D01*
X79981953Y-18257487D01*
X79724838Y-17951069D01*
X79721872Y-17947160D01*
X79719304Y-17942979D01*
X79717157Y-17938567D01*
X79715454Y-17933965D01*
X79714210Y-17929219D01*
X79713437Y-17924373D01*
X79713143Y-17919475D01*
X79713330Y-17914572D01*
X79713997Y-17909711D01*
X79715138Y-17904939D01*
X79716740Y-17900301D01*
X79718789Y-17895843D01*
X79721266Y-17891607D01*
X79724146Y-17887634D01*
X79727401Y-17883962D01*
X79731001Y-17880627D01*
X79807606Y-17816349D01*
X79811515Y-17813384D01*
X79815696Y-17810815D01*
X79820109Y-17808669D01*
X79824710Y-17806966D01*
X79829457Y-17805722D01*
X79834302Y-17804949D01*
X79839200Y-17804655D01*
X79844103Y-17804842D01*
G37*
G36*
X80795428Y-17723330D02*
G01*
X80800289Y-17723997D01*
X80805061Y-17725138D01*
X80809699Y-17726740D01*
X80814157Y-17728789D01*
X80818393Y-17731266D01*
X80822366Y-17734146D01*
X80826038Y-17737401D01*
X80829373Y-17741001D01*
X80893651Y-17817606D01*
X80896616Y-17821515D01*
X80899185Y-17825696D01*
X80901331Y-17830109D01*
X80903034Y-17834710D01*
X80904278Y-17839457D01*
X80905051Y-17844302D01*
X80905345Y-17849200D01*
X80905158Y-17854103D01*
X80904491Y-17858964D01*
X80903350Y-17863737D01*
X80901748Y-17868375D01*
X80899698Y-17872833D01*
X80897222Y-17877069D01*
X80894342Y-17881042D01*
X80891087Y-17884713D01*
X80887487Y-17888047D01*
X80581069Y-18145162D01*
X80577160Y-18148128D01*
X80572979Y-18150696D01*
X80568567Y-18152843D01*
X80563965Y-18154546D01*
X80559219Y-18155790D01*
X80554373Y-18156563D01*
X80549475Y-18156857D01*
X80544572Y-18156670D01*
X80539711Y-18156003D01*
X80534939Y-18154862D01*
X80530301Y-18153260D01*
X80525843Y-18151211D01*
X80521607Y-18148734D01*
X80517634Y-18145854D01*
X80513962Y-18142599D01*
X80510627Y-18138999D01*
X80446349Y-18062394D01*
X80443384Y-18058485D01*
X80440815Y-18054304D01*
X80438669Y-18049891D01*
X80436966Y-18045290D01*
X80435722Y-18040543D01*
X80434949Y-18035698D01*
X80434655Y-18030800D01*
X80434842Y-18025897D01*
X80435509Y-18021036D01*
X80436650Y-18016263D01*
X80438252Y-18011625D01*
X80440302Y-18007167D01*
X80442778Y-18002931D01*
X80445658Y-17998958D01*
X80448913Y-17995287D01*
X80452513Y-17991953D01*
X80758931Y-17734838D01*
X80762840Y-17731872D01*
X80767021Y-17729304D01*
X80771433Y-17727157D01*
X80776035Y-17725454D01*
X80780781Y-17724210D01*
X80785627Y-17723437D01*
X80790525Y-17723143D01*
X80795428Y-17723330D01*
G37*
G36*
X80834901Y-17725241D02*
G01*
X80839755Y-17725961D01*
X80844514Y-17727153D01*
X80849134Y-17728806D01*
X80853570Y-17730904D01*
X80857779Y-17733427D01*
X80861720Y-17736349D01*
X80865355Y-17739645D01*
X80868651Y-17743280D01*
X80871573Y-17747221D01*
X80874096Y-17751430D01*
X80876194Y-17755866D01*
X80877847Y-17760486D01*
X80879039Y-17765245D01*
X80879759Y-17770099D01*
X80880000Y-17775000D01*
X80880000Y-18425000D01*
X80879759Y-18429901D01*
X80879039Y-18434755D01*
X80877847Y-18439514D01*
X80876194Y-18444134D01*
X80874096Y-18448570D01*
X80871573Y-18452779D01*
X80868651Y-18456720D01*
X80865355Y-18460355D01*
X80861720Y-18463651D01*
X80857779Y-18466573D01*
X80853570Y-18469096D01*
X80849134Y-18471194D01*
X80844514Y-18472847D01*
X80839755Y-18474039D01*
X80834901Y-18474759D01*
X80830000Y-18475000D01*
X80730000Y-18475000D01*
X80725099Y-18474759D01*
X80720245Y-18474039D01*
X80715486Y-18472847D01*
X80710866Y-18471194D01*
X80706430Y-18469096D01*
X80702221Y-18466573D01*
X80698280Y-18463651D01*
X80694645Y-18460355D01*
X80691349Y-18456720D01*
X80688427Y-18452779D01*
X80685904Y-18448570D01*
X80683806Y-18444134D01*
X80682153Y-18439514D01*
X80680961Y-18434755D01*
X80680241Y-18429901D01*
X80680000Y-18425000D01*
X80680000Y-17775000D01*
X80680241Y-17770099D01*
X80680961Y-17765245D01*
X80682153Y-17760486D01*
X80683806Y-17755866D01*
X80685904Y-17751430D01*
X80688427Y-17747221D01*
X80691349Y-17743280D01*
X80694645Y-17739645D01*
X80698280Y-17736349D01*
X80702221Y-17733427D01*
X80706430Y-17730904D01*
X80710866Y-17728806D01*
X80715486Y-17727153D01*
X80720245Y-17725961D01*
X80725099Y-17725241D01*
X80730000Y-17725000D01*
X80830000Y-17725000D01*
X80834901Y-17725241D01*
G37*
G36*
X80344373Y-17723437D02*
G01*
X80349218Y-17724210D01*
X80353965Y-17725454D01*
X80358566Y-17727157D01*
X80362979Y-17729303D01*
X80367160Y-17731872D01*
X80371069Y-17734838D01*
X80677487Y-17991953D01*
X80681087Y-17995287D01*
X80684342Y-17998959D01*
X80687222Y-18002932D01*
X80689699Y-18007168D01*
X80691748Y-18011626D01*
X80693350Y-18016264D01*
X80694491Y-18021036D01*
X80695158Y-18025897D01*
X80695345Y-18030800D01*
X80695051Y-18035698D01*
X80694278Y-18040544D01*
X80693034Y-18045290D01*
X80691331Y-18049892D01*
X80689184Y-18054304D01*
X80686616Y-18058485D01*
X80683651Y-18062394D01*
X80619373Y-18138999D01*
X80616038Y-18142599D01*
X80612367Y-18145854D01*
X80608394Y-18148734D01*
X80604158Y-18151210D01*
X80599700Y-18153260D01*
X80595062Y-18154862D01*
X80590289Y-18156003D01*
X80585428Y-18156670D01*
X80580525Y-18156857D01*
X80575627Y-18156563D01*
X80570782Y-18155790D01*
X80566035Y-18154546D01*
X80561434Y-18152843D01*
X80557021Y-18150697D01*
X80552840Y-18148128D01*
X80548931Y-18145162D01*
X80242513Y-17888047D01*
X80238913Y-17884713D01*
X80235658Y-17881041D01*
X80232778Y-17877068D01*
X80230301Y-17872832D01*
X80228252Y-17868374D01*
X80226650Y-17863736D01*
X80225509Y-17858964D01*
X80224842Y-17854103D01*
X80224655Y-17849200D01*
X80224949Y-17844302D01*
X80225722Y-17839456D01*
X80226966Y-17834710D01*
X80228669Y-17830108D01*
X80230816Y-17825696D01*
X80233384Y-17821515D01*
X80236349Y-17817606D01*
X80300627Y-17741001D01*
X80303962Y-17737401D01*
X80307633Y-17734146D01*
X80311606Y-17731266D01*
X80315842Y-17728790D01*
X80320300Y-17726740D01*
X80324938Y-17725138D01*
X80329711Y-17723997D01*
X80334572Y-17723330D01*
X80339475Y-17723143D01*
X80344373Y-17723437D01*
G37*
G36*
X80404901Y-17735241D02*
G01*
X80409755Y-17735961D01*
X80414514Y-17737153D01*
X80419134Y-17738806D01*
X80423570Y-17740904D01*
X80427779Y-17743427D01*
X80431720Y-17746349D01*
X80435355Y-17749645D01*
X80438651Y-17753280D01*
X80441573Y-17757221D01*
X80444096Y-17761430D01*
X80446194Y-17765866D01*
X80447847Y-17770486D01*
X80449039Y-17775245D01*
X80449759Y-17780099D01*
X80450000Y-17785000D01*
X80450000Y-18435000D01*
X80449759Y-18439901D01*
X80449039Y-18444755D01*
X80447847Y-18449514D01*
X80446194Y-18454134D01*
X80444096Y-18458570D01*
X80441573Y-18462779D01*
X80438651Y-18466720D01*
X80435355Y-18470355D01*
X80431720Y-18473651D01*
X80427779Y-18476573D01*
X80423570Y-18479096D01*
X80419134Y-18481194D01*
X80414514Y-18482847D01*
X80409755Y-18484039D01*
X80404901Y-18484759D01*
X80400000Y-18485000D01*
X80300000Y-18485000D01*
X80295099Y-18484759D01*
X80290245Y-18484039D01*
X80285486Y-18482847D01*
X80280866Y-18481194D01*
X80276430Y-18479096D01*
X80272221Y-18476573D01*
X80268280Y-18473651D01*
X80264645Y-18470355D01*
X80261349Y-18466720D01*
X80258427Y-18462779D01*
X80255904Y-18458570D01*
X80253806Y-18454134D01*
X80252153Y-18449514D01*
X80250961Y-18444755D01*
X80250241Y-18439901D01*
X80250000Y-18435000D01*
X80250000Y-17785000D01*
X80250241Y-17780099D01*
X80250961Y-17775245D01*
X80252153Y-17770486D01*
X80253806Y-17765866D01*
X80255904Y-17761430D01*
X80258427Y-17757221D01*
X80261349Y-17753280D01*
X80264645Y-17749645D01*
X80268280Y-17746349D01*
X80272221Y-17743427D01*
X80276430Y-17740904D01*
X80280866Y-17738806D01*
X80285486Y-17737153D01*
X80290245Y-17735961D01*
X80295099Y-17735241D01*
X80300000Y-17735000D01*
X80400000Y-17735000D01*
X80404901Y-17735241D01*
G37*
G04 #@! TD*
G04 #@! TO.C,R29*
G36*
X219490779Y-39096144D02*
G01*
X219513834Y-39099563D01*
X219536443Y-39105227D01*
X219558387Y-39113079D01*
X219579457Y-39123044D01*
X219599448Y-39135026D01*
X219618168Y-39148910D01*
X219635438Y-39164562D01*
X219651090Y-39181832D01*
X219664974Y-39200552D01*
X219676956Y-39220543D01*
X219686921Y-39241613D01*
X219694773Y-39263557D01*
X219700437Y-39286166D01*
X219703856Y-39309221D01*
X219705000Y-39332500D01*
X219705000Y-39807500D01*
X219703856Y-39830779D01*
X219700437Y-39853834D01*
X219694773Y-39876443D01*
X219686921Y-39898387D01*
X219676956Y-39919457D01*
X219664974Y-39939448D01*
X219651090Y-39958168D01*
X219635438Y-39975438D01*
X219618168Y-39991090D01*
X219599448Y-40004974D01*
X219579457Y-40016956D01*
X219558387Y-40026921D01*
X219536443Y-40034773D01*
X219513834Y-40040437D01*
X219490779Y-40043856D01*
X219467500Y-40045000D01*
X218892500Y-40045000D01*
X218869221Y-40043856D01*
X218846166Y-40040437D01*
X218823557Y-40034773D01*
X218801613Y-40026921D01*
X218780543Y-40016956D01*
X218760552Y-40004974D01*
X218741832Y-39991090D01*
X218724562Y-39975438D01*
X218708910Y-39958168D01*
X218695026Y-39939448D01*
X218683044Y-39919457D01*
X218673079Y-39898387D01*
X218665227Y-39876443D01*
X218659563Y-39853834D01*
X218656144Y-39830779D01*
X218655000Y-39807500D01*
X218655000Y-39332500D01*
X218656144Y-39309221D01*
X218659563Y-39286166D01*
X218665227Y-39263557D01*
X218673079Y-39241613D01*
X218683044Y-39220543D01*
X218695026Y-39200552D01*
X218708910Y-39181832D01*
X218724562Y-39164562D01*
X218741832Y-39148910D01*
X218760552Y-39135026D01*
X218780543Y-39123044D01*
X218801613Y-39113079D01*
X218823557Y-39105227D01*
X218846166Y-39099563D01*
X218869221Y-39096144D01*
X218892500Y-39095000D01*
X219467500Y-39095000D01*
X219490779Y-39096144D01*
G37*
G36*
X217740779Y-39096144D02*
G01*
X217763834Y-39099563D01*
X217786443Y-39105227D01*
X217808387Y-39113079D01*
X217829457Y-39123044D01*
X217849448Y-39135026D01*
X217868168Y-39148910D01*
X217885438Y-39164562D01*
X217901090Y-39181832D01*
X217914974Y-39200552D01*
X217926956Y-39220543D01*
X217936921Y-39241613D01*
X217944773Y-39263557D01*
X217950437Y-39286166D01*
X217953856Y-39309221D01*
X217955000Y-39332500D01*
X217955000Y-39807500D01*
X217953856Y-39830779D01*
X217950437Y-39853834D01*
X217944773Y-39876443D01*
X217936921Y-39898387D01*
X217926956Y-39919457D01*
X217914974Y-39939448D01*
X217901090Y-39958168D01*
X217885438Y-39975438D01*
X217868168Y-39991090D01*
X217849448Y-40004974D01*
X217829457Y-40016956D01*
X217808387Y-40026921D01*
X217786443Y-40034773D01*
X217763834Y-40040437D01*
X217740779Y-40043856D01*
X217717500Y-40045000D01*
X217142500Y-40045000D01*
X217119221Y-40043856D01*
X217096166Y-40040437D01*
X217073557Y-40034773D01*
X217051613Y-40026921D01*
X217030543Y-40016956D01*
X217010552Y-40004974D01*
X216991832Y-39991090D01*
X216974562Y-39975438D01*
X216958910Y-39958168D01*
X216945026Y-39939448D01*
X216933044Y-39919457D01*
X216923079Y-39898387D01*
X216915227Y-39876443D01*
X216909563Y-39853834D01*
X216906144Y-39830779D01*
X216905000Y-39807500D01*
X216905000Y-39332500D01*
X216906144Y-39309221D01*
X216909563Y-39286166D01*
X216915227Y-39263557D01*
X216923079Y-39241613D01*
X216933044Y-39220543D01*
X216945026Y-39200552D01*
X216958910Y-39181832D01*
X216974562Y-39164562D01*
X216991832Y-39148910D01*
X217010552Y-39135026D01*
X217030543Y-39123044D01*
X217051613Y-39113079D01*
X217073557Y-39105227D01*
X217096166Y-39099563D01*
X217119221Y-39096144D01*
X217142500Y-39095000D01*
X217717500Y-39095000D01*
X217740779Y-39096144D01*
G37*
G04 #@! TD*
D12*
G04 #@! TO.C,Q2*
X212610000Y-38630000D03*
X214610000Y-37680000D03*
X214610000Y-39580000D03*
G04 #@! TD*
G04 #@! TO.C,Q1*
X219270000Y-36730000D03*
X217270000Y-37680000D03*
X217270000Y-35780000D03*
G04 #@! TD*
D11*
G04 #@! TO.C,R28*
G36*
X207865779Y-31326144D02*
G01*
X207888834Y-31329563D01*
X207911443Y-31335227D01*
X207933387Y-31343079D01*
X207954457Y-31353044D01*
X207974448Y-31365026D01*
X207993168Y-31378910D01*
X208010438Y-31394562D01*
X208026090Y-31411832D01*
X208039974Y-31430552D01*
X208051956Y-31450543D01*
X208061921Y-31471613D01*
X208069773Y-31493557D01*
X208075437Y-31516166D01*
X208078856Y-31539221D01*
X208080000Y-31562500D01*
X208080000Y-32037500D01*
X208078856Y-32060779D01*
X208075437Y-32083834D01*
X208069773Y-32106443D01*
X208061921Y-32128387D01*
X208051956Y-32149457D01*
X208039974Y-32169448D01*
X208026090Y-32188168D01*
X208010438Y-32205438D01*
X207993168Y-32221090D01*
X207974448Y-32234974D01*
X207954457Y-32246956D01*
X207933387Y-32256921D01*
X207911443Y-32264773D01*
X207888834Y-32270437D01*
X207865779Y-32273856D01*
X207842500Y-32275000D01*
X207267500Y-32275000D01*
X207244221Y-32273856D01*
X207221166Y-32270437D01*
X207198557Y-32264773D01*
X207176613Y-32256921D01*
X207155543Y-32246956D01*
X207135552Y-32234974D01*
X207116832Y-32221090D01*
X207099562Y-32205438D01*
X207083910Y-32188168D01*
X207070026Y-32169448D01*
X207058044Y-32149457D01*
X207048079Y-32128387D01*
X207040227Y-32106443D01*
X207034563Y-32083834D01*
X207031144Y-32060779D01*
X207030000Y-32037500D01*
X207030000Y-31562500D01*
X207031144Y-31539221D01*
X207034563Y-31516166D01*
X207040227Y-31493557D01*
X207048079Y-31471613D01*
X207058044Y-31450543D01*
X207070026Y-31430552D01*
X207083910Y-31411832D01*
X207099562Y-31394562D01*
X207116832Y-31378910D01*
X207135552Y-31365026D01*
X207155543Y-31353044D01*
X207176613Y-31343079D01*
X207198557Y-31335227D01*
X207221166Y-31329563D01*
X207244221Y-31326144D01*
X207267500Y-31325000D01*
X207842500Y-31325000D01*
X207865779Y-31326144D01*
G37*
G36*
X209615779Y-31326144D02*
G01*
X209638834Y-31329563D01*
X209661443Y-31335227D01*
X209683387Y-31343079D01*
X209704457Y-31353044D01*
X209724448Y-31365026D01*
X209743168Y-31378910D01*
X209760438Y-31394562D01*
X209776090Y-31411832D01*
X209789974Y-31430552D01*
X209801956Y-31450543D01*
X209811921Y-31471613D01*
X209819773Y-31493557D01*
X209825437Y-31516166D01*
X209828856Y-31539221D01*
X209830000Y-31562500D01*
X209830000Y-32037500D01*
X209828856Y-32060779D01*
X209825437Y-32083834D01*
X209819773Y-32106443D01*
X209811921Y-32128387D01*
X209801956Y-32149457D01*
X209789974Y-32169448D01*
X209776090Y-32188168D01*
X209760438Y-32205438D01*
X209743168Y-32221090D01*
X209724448Y-32234974D01*
X209704457Y-32246956D01*
X209683387Y-32256921D01*
X209661443Y-32264773D01*
X209638834Y-32270437D01*
X209615779Y-32273856D01*
X209592500Y-32275000D01*
X209017500Y-32275000D01*
X208994221Y-32273856D01*
X208971166Y-32270437D01*
X208948557Y-32264773D01*
X208926613Y-32256921D01*
X208905543Y-32246956D01*
X208885552Y-32234974D01*
X208866832Y-32221090D01*
X208849562Y-32205438D01*
X208833910Y-32188168D01*
X208820026Y-32169448D01*
X208808044Y-32149457D01*
X208798079Y-32128387D01*
X208790227Y-32106443D01*
X208784563Y-32083834D01*
X208781144Y-32060779D01*
X208780000Y-32037500D01*
X208780000Y-31562500D01*
X208781144Y-31539221D01*
X208784563Y-31516166D01*
X208790227Y-31493557D01*
X208798079Y-31471613D01*
X208808044Y-31450543D01*
X208820026Y-31430552D01*
X208833910Y-31411832D01*
X208849562Y-31394562D01*
X208866832Y-31378910D01*
X208885552Y-31365026D01*
X208905543Y-31353044D01*
X208926613Y-31343079D01*
X208948557Y-31335227D01*
X208971166Y-31329563D01*
X208994221Y-31326144D01*
X209017500Y-31325000D01*
X209592500Y-31325000D01*
X209615779Y-31326144D01*
G37*
G04 #@! TD*
G04 #@! TO.C,R27*
G36*
X213015779Y-35206144D02*
G01*
X213038834Y-35209563D01*
X213061443Y-35215227D01*
X213083387Y-35223079D01*
X213104457Y-35233044D01*
X213124448Y-35245026D01*
X213143168Y-35258910D01*
X213160438Y-35274562D01*
X213176090Y-35291832D01*
X213189974Y-35310552D01*
X213201956Y-35330543D01*
X213211921Y-35351613D01*
X213219773Y-35373557D01*
X213225437Y-35396166D01*
X213228856Y-35419221D01*
X213230000Y-35442500D01*
X213230000Y-35917500D01*
X213228856Y-35940779D01*
X213225437Y-35963834D01*
X213219773Y-35986443D01*
X213211921Y-36008387D01*
X213201956Y-36029457D01*
X213189974Y-36049448D01*
X213176090Y-36068168D01*
X213160438Y-36085438D01*
X213143168Y-36101090D01*
X213124448Y-36114974D01*
X213104457Y-36126956D01*
X213083387Y-36136921D01*
X213061443Y-36144773D01*
X213038834Y-36150437D01*
X213015779Y-36153856D01*
X212992500Y-36155000D01*
X212417500Y-36155000D01*
X212394221Y-36153856D01*
X212371166Y-36150437D01*
X212348557Y-36144773D01*
X212326613Y-36136921D01*
X212305543Y-36126956D01*
X212285552Y-36114974D01*
X212266832Y-36101090D01*
X212249562Y-36085438D01*
X212233910Y-36068168D01*
X212220026Y-36049448D01*
X212208044Y-36029457D01*
X212198079Y-36008387D01*
X212190227Y-35986443D01*
X212184563Y-35963834D01*
X212181144Y-35940779D01*
X212180000Y-35917500D01*
X212180000Y-35442500D01*
X212181144Y-35419221D01*
X212184563Y-35396166D01*
X212190227Y-35373557D01*
X212198079Y-35351613D01*
X212208044Y-35330543D01*
X212220026Y-35310552D01*
X212233910Y-35291832D01*
X212249562Y-35274562D01*
X212266832Y-35258910D01*
X212285552Y-35245026D01*
X212305543Y-35233044D01*
X212326613Y-35223079D01*
X212348557Y-35215227D01*
X212371166Y-35209563D01*
X212394221Y-35206144D01*
X212417500Y-35205000D01*
X212992500Y-35205000D01*
X213015779Y-35206144D01*
G37*
G36*
X214765779Y-35206144D02*
G01*
X214788834Y-35209563D01*
X214811443Y-35215227D01*
X214833387Y-35223079D01*
X214854457Y-35233044D01*
X214874448Y-35245026D01*
X214893168Y-35258910D01*
X214910438Y-35274562D01*
X214926090Y-35291832D01*
X214939974Y-35310552D01*
X214951956Y-35330543D01*
X214961921Y-35351613D01*
X214969773Y-35373557D01*
X214975437Y-35396166D01*
X214978856Y-35419221D01*
X214980000Y-35442500D01*
X214980000Y-35917500D01*
X214978856Y-35940779D01*
X214975437Y-35963834D01*
X214969773Y-35986443D01*
X214961921Y-36008387D01*
X214951956Y-36029457D01*
X214939974Y-36049448D01*
X214926090Y-36068168D01*
X214910438Y-36085438D01*
X214893168Y-36101090D01*
X214874448Y-36114974D01*
X214854457Y-36126956D01*
X214833387Y-36136921D01*
X214811443Y-36144773D01*
X214788834Y-36150437D01*
X214765779Y-36153856D01*
X214742500Y-36155000D01*
X214167500Y-36155000D01*
X214144221Y-36153856D01*
X214121166Y-36150437D01*
X214098557Y-36144773D01*
X214076613Y-36136921D01*
X214055543Y-36126956D01*
X214035552Y-36114974D01*
X214016832Y-36101090D01*
X213999562Y-36085438D01*
X213983910Y-36068168D01*
X213970026Y-36049448D01*
X213958044Y-36029457D01*
X213948079Y-36008387D01*
X213940227Y-35986443D01*
X213934563Y-35963834D01*
X213931144Y-35940779D01*
X213930000Y-35917500D01*
X213930000Y-35442500D01*
X213931144Y-35419221D01*
X213934563Y-35396166D01*
X213940227Y-35373557D01*
X213948079Y-35351613D01*
X213958044Y-35330543D01*
X213970026Y-35310552D01*
X213983910Y-35291832D01*
X213999562Y-35274562D01*
X214016832Y-35258910D01*
X214035552Y-35245026D01*
X214055543Y-35233044D01*
X214076613Y-35223079D01*
X214098557Y-35215227D01*
X214121166Y-35209563D01*
X214144221Y-35206144D01*
X214167500Y-35205000D01*
X214742500Y-35205000D01*
X214765779Y-35206144D01*
G37*
G04 #@! TD*
G04 #@! TO.C,C3*
G36*
X185504504Y-30871204D02*
G01*
X185528773Y-30874804D01*
X185552571Y-30880765D01*
X185575671Y-30889030D01*
X185597849Y-30899520D01*
X185618893Y-30912133D01*
X185638598Y-30926747D01*
X185656777Y-30943223D01*
X185673253Y-30961402D01*
X185687867Y-30981107D01*
X185700480Y-31002151D01*
X185710970Y-31024329D01*
X185719235Y-31047429D01*
X185725196Y-31071227D01*
X185728796Y-31095496D01*
X185730000Y-31120000D01*
X185730000Y-32220000D01*
X185728796Y-32244504D01*
X185725196Y-32268773D01*
X185719235Y-32292571D01*
X185710970Y-32315671D01*
X185700480Y-32337849D01*
X185687867Y-32358893D01*
X185673253Y-32378598D01*
X185656777Y-32396777D01*
X185638598Y-32413253D01*
X185618893Y-32427867D01*
X185597849Y-32440480D01*
X185575671Y-32450970D01*
X185552571Y-32459235D01*
X185528773Y-32465196D01*
X185504504Y-32468796D01*
X185480000Y-32470000D01*
X182480000Y-32470000D01*
X182455496Y-32468796D01*
X182431227Y-32465196D01*
X182407429Y-32459235D01*
X182384329Y-32450970D01*
X182362151Y-32440480D01*
X182341107Y-32427867D01*
X182321402Y-32413253D01*
X182303223Y-32396777D01*
X182286747Y-32378598D01*
X182272133Y-32358893D01*
X182259520Y-32337849D01*
X182249030Y-32315671D01*
X182240765Y-32292571D01*
X182234804Y-32268773D01*
X182231204Y-32244504D01*
X182230000Y-32220000D01*
X182230000Y-31120000D01*
X182231204Y-31095496D01*
X182234804Y-31071227D01*
X182240765Y-31047429D01*
X182249030Y-31024329D01*
X182259520Y-31002151D01*
X182272133Y-30981107D01*
X182286747Y-30961402D01*
X182303223Y-30943223D01*
X182321402Y-30926747D01*
X182341107Y-30912133D01*
X182362151Y-30899520D01*
X182384329Y-30889030D01*
X182407429Y-30880765D01*
X182431227Y-30874804D01*
X182455496Y-30871204D01*
X182480000Y-30870000D01*
X185480000Y-30870000D01*
X185504504Y-30871204D01*
G37*
G36*
X179904504Y-30871204D02*
G01*
X179928773Y-30874804D01*
X179952571Y-30880765D01*
X179975671Y-30889030D01*
X179997849Y-30899520D01*
X180018893Y-30912133D01*
X180038598Y-30926747D01*
X180056777Y-30943223D01*
X180073253Y-30961402D01*
X180087867Y-30981107D01*
X180100480Y-31002151D01*
X180110970Y-31024329D01*
X180119235Y-31047429D01*
X180125196Y-31071227D01*
X180128796Y-31095496D01*
X180130000Y-31120000D01*
X180130000Y-32220000D01*
X180128796Y-32244504D01*
X180125196Y-32268773D01*
X180119235Y-32292571D01*
X180110970Y-32315671D01*
X180100480Y-32337849D01*
X180087867Y-32358893D01*
X180073253Y-32378598D01*
X180056777Y-32396777D01*
X180038598Y-32413253D01*
X180018893Y-32427867D01*
X179997849Y-32440480D01*
X179975671Y-32450970D01*
X179952571Y-32459235D01*
X179928773Y-32465196D01*
X179904504Y-32468796D01*
X179880000Y-32470000D01*
X176880000Y-32470000D01*
X176855496Y-32468796D01*
X176831227Y-32465196D01*
X176807429Y-32459235D01*
X176784329Y-32450970D01*
X176762151Y-32440480D01*
X176741107Y-32427867D01*
X176721402Y-32413253D01*
X176703223Y-32396777D01*
X176686747Y-32378598D01*
X176672133Y-32358893D01*
X176659520Y-32337849D01*
X176649030Y-32315671D01*
X176640765Y-32292571D01*
X176634804Y-32268773D01*
X176631204Y-32244504D01*
X176630000Y-32220000D01*
X176630000Y-31120000D01*
X176631204Y-31095496D01*
X176634804Y-31071227D01*
X176640765Y-31047429D01*
X176649030Y-31024329D01*
X176659520Y-31002151D01*
X176672133Y-30981107D01*
X176686747Y-30961402D01*
X176703223Y-30943223D01*
X176721402Y-30926747D01*
X176741107Y-30912133D01*
X176762151Y-30899520D01*
X176784329Y-30889030D01*
X176807429Y-30880765D01*
X176831227Y-30874804D01*
X176855496Y-30871204D01*
X176880000Y-30870000D01*
X179880000Y-30870000D01*
X179904504Y-30871204D01*
G37*
G04 #@! TD*
G04 #@! TO.C,C1*
G36*
X155504504Y-28961204D02*
G01*
X155528773Y-28964804D01*
X155552571Y-28970765D01*
X155575671Y-28979030D01*
X155597849Y-28989520D01*
X155618893Y-29002133D01*
X155638598Y-29016747D01*
X155656777Y-29033223D01*
X155673253Y-29051402D01*
X155687867Y-29071107D01*
X155700480Y-29092151D01*
X155710970Y-29114329D01*
X155719235Y-29137429D01*
X155725196Y-29161227D01*
X155728796Y-29185496D01*
X155730000Y-29210000D01*
X155730000Y-30310000D01*
X155728796Y-30334504D01*
X155725196Y-30358773D01*
X155719235Y-30382571D01*
X155710970Y-30405671D01*
X155700480Y-30427849D01*
X155687867Y-30448893D01*
X155673253Y-30468598D01*
X155656777Y-30486777D01*
X155638598Y-30503253D01*
X155618893Y-30517867D01*
X155597849Y-30530480D01*
X155575671Y-30540970D01*
X155552571Y-30549235D01*
X155528773Y-30555196D01*
X155504504Y-30558796D01*
X155480000Y-30560000D01*
X152480000Y-30560000D01*
X152455496Y-30558796D01*
X152431227Y-30555196D01*
X152407429Y-30549235D01*
X152384329Y-30540970D01*
X152362151Y-30530480D01*
X152341107Y-30517867D01*
X152321402Y-30503253D01*
X152303223Y-30486777D01*
X152286747Y-30468598D01*
X152272133Y-30448893D01*
X152259520Y-30427849D01*
X152249030Y-30405671D01*
X152240765Y-30382571D01*
X152234804Y-30358773D01*
X152231204Y-30334504D01*
X152230000Y-30310000D01*
X152230000Y-29210000D01*
X152231204Y-29185496D01*
X152234804Y-29161227D01*
X152240765Y-29137429D01*
X152249030Y-29114329D01*
X152259520Y-29092151D01*
X152272133Y-29071107D01*
X152286747Y-29051402D01*
X152303223Y-29033223D01*
X152321402Y-29016747D01*
X152341107Y-29002133D01*
X152362151Y-28989520D01*
X152384329Y-28979030D01*
X152407429Y-28970765D01*
X152431227Y-28964804D01*
X152455496Y-28961204D01*
X152480000Y-28960000D01*
X155480000Y-28960000D01*
X155504504Y-28961204D01*
G37*
G36*
X161104504Y-28961204D02*
G01*
X161128773Y-28964804D01*
X161152571Y-28970765D01*
X161175671Y-28979030D01*
X161197849Y-28989520D01*
X161218893Y-29002133D01*
X161238598Y-29016747D01*
X161256777Y-29033223D01*
X161273253Y-29051402D01*
X161287867Y-29071107D01*
X161300480Y-29092151D01*
X161310970Y-29114329D01*
X161319235Y-29137429D01*
X161325196Y-29161227D01*
X161328796Y-29185496D01*
X161330000Y-29210000D01*
X161330000Y-30310000D01*
X161328796Y-30334504D01*
X161325196Y-30358773D01*
X161319235Y-30382571D01*
X161310970Y-30405671D01*
X161300480Y-30427849D01*
X161287867Y-30448893D01*
X161273253Y-30468598D01*
X161256777Y-30486777D01*
X161238598Y-30503253D01*
X161218893Y-30517867D01*
X161197849Y-30530480D01*
X161175671Y-30540970D01*
X161152571Y-30549235D01*
X161128773Y-30555196D01*
X161104504Y-30558796D01*
X161080000Y-30560000D01*
X158080000Y-30560000D01*
X158055496Y-30558796D01*
X158031227Y-30555196D01*
X158007429Y-30549235D01*
X157984329Y-30540970D01*
X157962151Y-30530480D01*
X157941107Y-30517867D01*
X157921402Y-30503253D01*
X157903223Y-30486777D01*
X157886747Y-30468598D01*
X157872133Y-30448893D01*
X157859520Y-30427849D01*
X157849030Y-30405671D01*
X157840765Y-30382571D01*
X157834804Y-30358773D01*
X157831204Y-30334504D01*
X157830000Y-30310000D01*
X157830000Y-29210000D01*
X157831204Y-29185496D01*
X157834804Y-29161227D01*
X157840765Y-29137429D01*
X157849030Y-29114329D01*
X157859520Y-29092151D01*
X157872133Y-29071107D01*
X157886747Y-29051402D01*
X157903223Y-29033223D01*
X157921402Y-29016747D01*
X157941107Y-29002133D01*
X157962151Y-28989520D01*
X157984329Y-28979030D01*
X158007429Y-28970765D01*
X158031227Y-28964804D01*
X158055496Y-28961204D01*
X158080000Y-28960000D01*
X161080000Y-28960000D01*
X161104504Y-28961204D01*
G37*
G04 #@! TD*
G04 #@! TO.C,U1*
G36*
X139259703Y-38085722D02*
G01*
X139274264Y-38087882D01*
X139288543Y-38091459D01*
X139302403Y-38096418D01*
X139315710Y-38102712D01*
X139328336Y-38110280D01*
X139340159Y-38119048D01*
X139351066Y-38128934D01*
X139360952Y-38139841D01*
X139369720Y-38151664D01*
X139377288Y-38164290D01*
X139383582Y-38177597D01*
X139388541Y-38191457D01*
X139392118Y-38205736D01*
X139394278Y-38220297D01*
X139395000Y-38235000D01*
X139395000Y-38535000D01*
X139394278Y-38549703D01*
X139392118Y-38564264D01*
X139388541Y-38578543D01*
X139383582Y-38592403D01*
X139377288Y-38605710D01*
X139369720Y-38618336D01*
X139360952Y-38630159D01*
X139351066Y-38641066D01*
X139340159Y-38650952D01*
X139328336Y-38659720D01*
X139315710Y-38667288D01*
X139302403Y-38673582D01*
X139288543Y-38678541D01*
X139274264Y-38682118D01*
X139259703Y-38684278D01*
X139245000Y-38685000D01*
X137495000Y-38685000D01*
X137480297Y-38684278D01*
X137465736Y-38682118D01*
X137451457Y-38678541D01*
X137437597Y-38673582D01*
X137424290Y-38667288D01*
X137411664Y-38659720D01*
X137399841Y-38650952D01*
X137388934Y-38641066D01*
X137379048Y-38630159D01*
X137370280Y-38618336D01*
X137362712Y-38605710D01*
X137356418Y-38592403D01*
X137351459Y-38578543D01*
X137347882Y-38564264D01*
X137345722Y-38549703D01*
X137345000Y-38535000D01*
X137345000Y-38235000D01*
X137345722Y-38220297D01*
X137347882Y-38205736D01*
X137351459Y-38191457D01*
X137356418Y-38177597D01*
X137362712Y-38164290D01*
X137370280Y-38151664D01*
X137379048Y-38139841D01*
X137388934Y-38128934D01*
X137399841Y-38119048D01*
X137411664Y-38110280D01*
X137424290Y-38102712D01*
X137437597Y-38096418D01*
X137451457Y-38091459D01*
X137465736Y-38087882D01*
X137480297Y-38085722D01*
X137495000Y-38085000D01*
X139245000Y-38085000D01*
X139259703Y-38085722D01*
G37*
G36*
X139259703Y-36815722D02*
G01*
X139274264Y-36817882D01*
X139288543Y-36821459D01*
X139302403Y-36826418D01*
X139315710Y-36832712D01*
X139328336Y-36840280D01*
X139340159Y-36849048D01*
X139351066Y-36858934D01*
X139360952Y-36869841D01*
X139369720Y-36881664D01*
X139377288Y-36894290D01*
X139383582Y-36907597D01*
X139388541Y-36921457D01*
X139392118Y-36935736D01*
X139394278Y-36950297D01*
X139395000Y-36965000D01*
X139395000Y-37265000D01*
X139394278Y-37279703D01*
X139392118Y-37294264D01*
X139388541Y-37308543D01*
X139383582Y-37322403D01*
X139377288Y-37335710D01*
X139369720Y-37348336D01*
X139360952Y-37360159D01*
X139351066Y-37371066D01*
X139340159Y-37380952D01*
X139328336Y-37389720D01*
X139315710Y-37397288D01*
X139302403Y-37403582D01*
X139288543Y-37408541D01*
X139274264Y-37412118D01*
X139259703Y-37414278D01*
X139245000Y-37415000D01*
X137495000Y-37415000D01*
X137480297Y-37414278D01*
X137465736Y-37412118D01*
X137451457Y-37408541D01*
X137437597Y-37403582D01*
X137424290Y-37397288D01*
X137411664Y-37389720D01*
X137399841Y-37380952D01*
X137388934Y-37371066D01*
X137379048Y-37360159D01*
X137370280Y-37348336D01*
X137362712Y-37335710D01*
X137356418Y-37322403D01*
X137351459Y-37308543D01*
X137347882Y-37294264D01*
X137345722Y-37279703D01*
X137345000Y-37265000D01*
X137345000Y-36965000D01*
X137345722Y-36950297D01*
X137347882Y-36935736D01*
X137351459Y-36921457D01*
X137356418Y-36907597D01*
X137362712Y-36894290D01*
X137370280Y-36881664D01*
X137379048Y-36869841D01*
X137388934Y-36858934D01*
X137399841Y-36849048D01*
X137411664Y-36840280D01*
X137424290Y-36832712D01*
X137437597Y-36826418D01*
X137451457Y-36821459D01*
X137465736Y-36817882D01*
X137480297Y-36815722D01*
X137495000Y-36815000D01*
X139245000Y-36815000D01*
X139259703Y-36815722D01*
G37*
G36*
X139259703Y-35545722D02*
G01*
X139274264Y-35547882D01*
X139288543Y-35551459D01*
X139302403Y-35556418D01*
X139315710Y-35562712D01*
X139328336Y-35570280D01*
X139340159Y-35579048D01*
X139351066Y-35588934D01*
X139360952Y-35599841D01*
X139369720Y-35611664D01*
X139377288Y-35624290D01*
X139383582Y-35637597D01*
X139388541Y-35651457D01*
X139392118Y-35665736D01*
X139394278Y-35680297D01*
X139395000Y-35695000D01*
X139395000Y-35995000D01*
X139394278Y-36009703D01*
X139392118Y-36024264D01*
X139388541Y-36038543D01*
X139383582Y-36052403D01*
X139377288Y-36065710D01*
X139369720Y-36078336D01*
X139360952Y-36090159D01*
X139351066Y-36101066D01*
X139340159Y-36110952D01*
X139328336Y-36119720D01*
X139315710Y-36127288D01*
X139302403Y-36133582D01*
X139288543Y-36138541D01*
X139274264Y-36142118D01*
X139259703Y-36144278D01*
X139245000Y-36145000D01*
X137495000Y-36145000D01*
X137480297Y-36144278D01*
X137465736Y-36142118D01*
X137451457Y-36138541D01*
X137437597Y-36133582D01*
X137424290Y-36127288D01*
X137411664Y-36119720D01*
X137399841Y-36110952D01*
X137388934Y-36101066D01*
X137379048Y-36090159D01*
X137370280Y-36078336D01*
X137362712Y-36065710D01*
X137356418Y-36052403D01*
X137351459Y-36038543D01*
X137347882Y-36024264D01*
X137345722Y-36009703D01*
X137345000Y-35995000D01*
X137345000Y-35695000D01*
X137345722Y-35680297D01*
X137347882Y-35665736D01*
X137351459Y-35651457D01*
X137356418Y-35637597D01*
X137362712Y-35624290D01*
X137370280Y-35611664D01*
X137379048Y-35599841D01*
X137388934Y-35588934D01*
X137399841Y-35579048D01*
X137411664Y-35570280D01*
X137424290Y-35562712D01*
X137437597Y-35556418D01*
X137451457Y-35551459D01*
X137465736Y-35547882D01*
X137480297Y-35545722D01*
X137495000Y-35545000D01*
X139245000Y-35545000D01*
X139259703Y-35545722D01*
G37*
G36*
X139259703Y-34275722D02*
G01*
X139274264Y-34277882D01*
X139288543Y-34281459D01*
X139302403Y-34286418D01*
X139315710Y-34292712D01*
X139328336Y-34300280D01*
X139340159Y-34309048D01*
X139351066Y-34318934D01*
X139360952Y-34329841D01*
X139369720Y-34341664D01*
X139377288Y-34354290D01*
X139383582Y-34367597D01*
X139388541Y-34381457D01*
X139392118Y-34395736D01*
X139394278Y-34410297D01*
X139395000Y-34425000D01*
X139395000Y-34725000D01*
X139394278Y-34739703D01*
X139392118Y-34754264D01*
X139388541Y-34768543D01*
X139383582Y-34782403D01*
X139377288Y-34795710D01*
X139369720Y-34808336D01*
X139360952Y-34820159D01*
X139351066Y-34831066D01*
X139340159Y-34840952D01*
X139328336Y-34849720D01*
X139315710Y-34857288D01*
X139302403Y-34863582D01*
X139288543Y-34868541D01*
X139274264Y-34872118D01*
X139259703Y-34874278D01*
X139245000Y-34875000D01*
X137495000Y-34875000D01*
X137480297Y-34874278D01*
X137465736Y-34872118D01*
X137451457Y-34868541D01*
X137437597Y-34863582D01*
X137424290Y-34857288D01*
X137411664Y-34849720D01*
X137399841Y-34840952D01*
X137388934Y-34831066D01*
X137379048Y-34820159D01*
X137370280Y-34808336D01*
X137362712Y-34795710D01*
X137356418Y-34782403D01*
X137351459Y-34768543D01*
X137347882Y-34754264D01*
X137345722Y-34739703D01*
X137345000Y-34725000D01*
X137345000Y-34425000D01*
X137345722Y-34410297D01*
X137347882Y-34395736D01*
X137351459Y-34381457D01*
X137356418Y-34367597D01*
X137362712Y-34354290D01*
X137370280Y-34341664D01*
X137379048Y-34329841D01*
X137388934Y-34318934D01*
X137399841Y-34309048D01*
X137411664Y-34300280D01*
X137424290Y-34292712D01*
X137437597Y-34286418D01*
X137451457Y-34281459D01*
X137465736Y-34277882D01*
X137480297Y-34275722D01*
X137495000Y-34275000D01*
X139245000Y-34275000D01*
X139259703Y-34275722D01*
G37*
G36*
X139259703Y-33005722D02*
G01*
X139274264Y-33007882D01*
X139288543Y-33011459D01*
X139302403Y-33016418D01*
X139315710Y-33022712D01*
X139328336Y-33030280D01*
X139340159Y-33039048D01*
X139351066Y-33048934D01*
X139360952Y-33059841D01*
X139369720Y-33071664D01*
X139377288Y-33084290D01*
X139383582Y-33097597D01*
X139388541Y-33111457D01*
X139392118Y-33125736D01*
X139394278Y-33140297D01*
X139395000Y-33155000D01*
X139395000Y-33455000D01*
X139394278Y-33469703D01*
X139392118Y-33484264D01*
X139388541Y-33498543D01*
X139383582Y-33512403D01*
X139377288Y-33525710D01*
X139369720Y-33538336D01*
X139360952Y-33550159D01*
X139351066Y-33561066D01*
X139340159Y-33570952D01*
X139328336Y-33579720D01*
X139315710Y-33587288D01*
X139302403Y-33593582D01*
X139288543Y-33598541D01*
X139274264Y-33602118D01*
X139259703Y-33604278D01*
X139245000Y-33605000D01*
X137495000Y-33605000D01*
X137480297Y-33604278D01*
X137465736Y-33602118D01*
X137451457Y-33598541D01*
X137437597Y-33593582D01*
X137424290Y-33587288D01*
X137411664Y-33579720D01*
X137399841Y-33570952D01*
X137388934Y-33561066D01*
X137379048Y-33550159D01*
X137370280Y-33538336D01*
X137362712Y-33525710D01*
X137356418Y-33512403D01*
X137351459Y-33498543D01*
X137347882Y-33484264D01*
X137345722Y-33469703D01*
X137345000Y-33455000D01*
X137345000Y-33155000D01*
X137345722Y-33140297D01*
X137347882Y-33125736D01*
X137351459Y-33111457D01*
X137356418Y-33097597D01*
X137362712Y-33084290D01*
X137370280Y-33071664D01*
X137379048Y-33059841D01*
X137388934Y-33048934D01*
X137399841Y-33039048D01*
X137411664Y-33030280D01*
X137424290Y-33022712D01*
X137437597Y-33016418D01*
X137451457Y-33011459D01*
X137465736Y-33007882D01*
X137480297Y-33005722D01*
X137495000Y-33005000D01*
X139245000Y-33005000D01*
X139259703Y-33005722D01*
G37*
G36*
X139259703Y-31735722D02*
G01*
X139274264Y-31737882D01*
X139288543Y-31741459D01*
X139302403Y-31746418D01*
X139315710Y-31752712D01*
X139328336Y-31760280D01*
X139340159Y-31769048D01*
X139351066Y-31778934D01*
X139360952Y-31789841D01*
X139369720Y-31801664D01*
X139377288Y-31814290D01*
X139383582Y-31827597D01*
X139388541Y-31841457D01*
X139392118Y-31855736D01*
X139394278Y-31870297D01*
X139395000Y-31885000D01*
X139395000Y-32185000D01*
X139394278Y-32199703D01*
X139392118Y-32214264D01*
X139388541Y-32228543D01*
X139383582Y-32242403D01*
X139377288Y-32255710D01*
X139369720Y-32268336D01*
X139360952Y-32280159D01*
X139351066Y-32291066D01*
X139340159Y-32300952D01*
X139328336Y-32309720D01*
X139315710Y-32317288D01*
X139302403Y-32323582D01*
X139288543Y-32328541D01*
X139274264Y-32332118D01*
X139259703Y-32334278D01*
X139245000Y-32335000D01*
X137495000Y-32335000D01*
X137480297Y-32334278D01*
X137465736Y-32332118D01*
X137451457Y-32328541D01*
X137437597Y-32323582D01*
X137424290Y-32317288D01*
X137411664Y-32309720D01*
X137399841Y-32300952D01*
X137388934Y-32291066D01*
X137379048Y-32280159D01*
X137370280Y-32268336D01*
X137362712Y-32255710D01*
X137356418Y-32242403D01*
X137351459Y-32228543D01*
X137347882Y-32214264D01*
X137345722Y-32199703D01*
X137345000Y-32185000D01*
X137345000Y-31885000D01*
X137345722Y-31870297D01*
X137347882Y-31855736D01*
X137351459Y-31841457D01*
X137356418Y-31827597D01*
X137362712Y-31814290D01*
X137370280Y-31801664D01*
X137379048Y-31789841D01*
X137388934Y-31778934D01*
X137399841Y-31769048D01*
X137411664Y-31760280D01*
X137424290Y-31752712D01*
X137437597Y-31746418D01*
X137451457Y-31741459D01*
X137465736Y-31737882D01*
X137480297Y-31735722D01*
X137495000Y-31735000D01*
X139245000Y-31735000D01*
X139259703Y-31735722D01*
G37*
G36*
X139259703Y-30465722D02*
G01*
X139274264Y-30467882D01*
X139288543Y-30471459D01*
X139302403Y-30476418D01*
X139315710Y-30482712D01*
X139328336Y-30490280D01*
X139340159Y-30499048D01*
X139351066Y-30508934D01*
X139360952Y-30519841D01*
X139369720Y-30531664D01*
X139377288Y-30544290D01*
X139383582Y-30557597D01*
X139388541Y-30571457D01*
X139392118Y-30585736D01*
X139394278Y-30600297D01*
X139395000Y-30615000D01*
X139395000Y-30915000D01*
X139394278Y-30929703D01*
X139392118Y-30944264D01*
X139388541Y-30958543D01*
X139383582Y-30972403D01*
X139377288Y-30985710D01*
X139369720Y-30998336D01*
X139360952Y-31010159D01*
X139351066Y-31021066D01*
X139340159Y-31030952D01*
X139328336Y-31039720D01*
X139315710Y-31047288D01*
X139302403Y-31053582D01*
X139288543Y-31058541D01*
X139274264Y-31062118D01*
X139259703Y-31064278D01*
X139245000Y-31065000D01*
X137495000Y-31065000D01*
X137480297Y-31064278D01*
X137465736Y-31062118D01*
X137451457Y-31058541D01*
X137437597Y-31053582D01*
X137424290Y-31047288D01*
X137411664Y-31039720D01*
X137399841Y-31030952D01*
X137388934Y-31021066D01*
X137379048Y-31010159D01*
X137370280Y-30998336D01*
X137362712Y-30985710D01*
X137356418Y-30972403D01*
X137351459Y-30958543D01*
X137347882Y-30944264D01*
X137345722Y-30929703D01*
X137345000Y-30915000D01*
X137345000Y-30615000D01*
X137345722Y-30600297D01*
X137347882Y-30585736D01*
X137351459Y-30571457D01*
X137356418Y-30557597D01*
X137362712Y-30544290D01*
X137370280Y-30531664D01*
X137379048Y-30519841D01*
X137388934Y-30508934D01*
X137399841Y-30499048D01*
X137411664Y-30490280D01*
X137424290Y-30482712D01*
X137437597Y-30476418D01*
X137451457Y-30471459D01*
X137465736Y-30467882D01*
X137480297Y-30465722D01*
X137495000Y-30465000D01*
X139245000Y-30465000D01*
X139259703Y-30465722D01*
G37*
G36*
X139259703Y-29195722D02*
G01*
X139274264Y-29197882D01*
X139288543Y-29201459D01*
X139302403Y-29206418D01*
X139315710Y-29212712D01*
X139328336Y-29220280D01*
X139340159Y-29229048D01*
X139351066Y-29238934D01*
X139360952Y-29249841D01*
X139369720Y-29261664D01*
X139377288Y-29274290D01*
X139383582Y-29287597D01*
X139388541Y-29301457D01*
X139392118Y-29315736D01*
X139394278Y-29330297D01*
X139395000Y-29345000D01*
X139395000Y-29645000D01*
X139394278Y-29659703D01*
X139392118Y-29674264D01*
X139388541Y-29688543D01*
X139383582Y-29702403D01*
X139377288Y-29715710D01*
X139369720Y-29728336D01*
X139360952Y-29740159D01*
X139351066Y-29751066D01*
X139340159Y-29760952D01*
X139328336Y-29769720D01*
X139315710Y-29777288D01*
X139302403Y-29783582D01*
X139288543Y-29788541D01*
X139274264Y-29792118D01*
X139259703Y-29794278D01*
X139245000Y-29795000D01*
X137495000Y-29795000D01*
X137480297Y-29794278D01*
X137465736Y-29792118D01*
X137451457Y-29788541D01*
X137437597Y-29783582D01*
X137424290Y-29777288D01*
X137411664Y-29769720D01*
X137399841Y-29760952D01*
X137388934Y-29751066D01*
X137379048Y-29740159D01*
X137370280Y-29728336D01*
X137362712Y-29715710D01*
X137356418Y-29702403D01*
X137351459Y-29688543D01*
X137347882Y-29674264D01*
X137345722Y-29659703D01*
X137345000Y-29645000D01*
X137345000Y-29345000D01*
X137345722Y-29330297D01*
X137347882Y-29315736D01*
X137351459Y-29301457D01*
X137356418Y-29287597D01*
X137362712Y-29274290D01*
X137370280Y-29261664D01*
X137379048Y-29249841D01*
X137388934Y-29238934D01*
X137399841Y-29229048D01*
X137411664Y-29220280D01*
X137424290Y-29212712D01*
X137437597Y-29206418D01*
X137451457Y-29201459D01*
X137465736Y-29197882D01*
X137480297Y-29195722D01*
X137495000Y-29195000D01*
X139245000Y-29195000D01*
X139259703Y-29195722D01*
G37*
G36*
X139259703Y-27925722D02*
G01*
X139274264Y-27927882D01*
X139288543Y-27931459D01*
X139302403Y-27936418D01*
X139315710Y-27942712D01*
X139328336Y-27950280D01*
X139340159Y-27959048D01*
X139351066Y-27968934D01*
X139360952Y-27979841D01*
X139369720Y-27991664D01*
X139377288Y-28004290D01*
X139383582Y-28017597D01*
X139388541Y-28031457D01*
X139392118Y-28045736D01*
X139394278Y-28060297D01*
X139395000Y-28075000D01*
X139395000Y-28375000D01*
X139394278Y-28389703D01*
X139392118Y-28404264D01*
X139388541Y-28418543D01*
X139383582Y-28432403D01*
X139377288Y-28445710D01*
X139369720Y-28458336D01*
X139360952Y-28470159D01*
X139351066Y-28481066D01*
X139340159Y-28490952D01*
X139328336Y-28499720D01*
X139315710Y-28507288D01*
X139302403Y-28513582D01*
X139288543Y-28518541D01*
X139274264Y-28522118D01*
X139259703Y-28524278D01*
X139245000Y-28525000D01*
X137495000Y-28525000D01*
X137480297Y-28524278D01*
X137465736Y-28522118D01*
X137451457Y-28518541D01*
X137437597Y-28513582D01*
X137424290Y-28507288D01*
X137411664Y-28499720D01*
X137399841Y-28490952D01*
X137388934Y-28481066D01*
X137379048Y-28470159D01*
X137370280Y-28458336D01*
X137362712Y-28445710D01*
X137356418Y-28432403D01*
X137351459Y-28418543D01*
X137347882Y-28404264D01*
X137345722Y-28389703D01*
X137345000Y-28375000D01*
X137345000Y-28075000D01*
X137345722Y-28060297D01*
X137347882Y-28045736D01*
X137351459Y-28031457D01*
X137356418Y-28017597D01*
X137362712Y-28004290D01*
X137370280Y-27991664D01*
X137379048Y-27979841D01*
X137388934Y-27968934D01*
X137399841Y-27959048D01*
X137411664Y-27950280D01*
X137424290Y-27942712D01*
X137437597Y-27936418D01*
X137451457Y-27931459D01*
X137465736Y-27927882D01*
X137480297Y-27925722D01*
X137495000Y-27925000D01*
X139245000Y-27925000D01*
X139259703Y-27925722D01*
G37*
G36*
X139259703Y-26655722D02*
G01*
X139274264Y-26657882D01*
X139288543Y-26661459D01*
X139302403Y-26666418D01*
X139315710Y-26672712D01*
X139328336Y-26680280D01*
X139340159Y-26689048D01*
X139351066Y-26698934D01*
X139360952Y-26709841D01*
X139369720Y-26721664D01*
X139377288Y-26734290D01*
X139383582Y-26747597D01*
X139388541Y-26761457D01*
X139392118Y-26775736D01*
X139394278Y-26790297D01*
X139395000Y-26805000D01*
X139395000Y-27105000D01*
X139394278Y-27119703D01*
X139392118Y-27134264D01*
X139388541Y-27148543D01*
X139383582Y-27162403D01*
X139377288Y-27175710D01*
X139369720Y-27188336D01*
X139360952Y-27200159D01*
X139351066Y-27211066D01*
X139340159Y-27220952D01*
X139328336Y-27229720D01*
X139315710Y-27237288D01*
X139302403Y-27243582D01*
X139288543Y-27248541D01*
X139274264Y-27252118D01*
X139259703Y-27254278D01*
X139245000Y-27255000D01*
X137495000Y-27255000D01*
X137480297Y-27254278D01*
X137465736Y-27252118D01*
X137451457Y-27248541D01*
X137437597Y-27243582D01*
X137424290Y-27237288D01*
X137411664Y-27229720D01*
X137399841Y-27220952D01*
X137388934Y-27211066D01*
X137379048Y-27200159D01*
X137370280Y-27188336D01*
X137362712Y-27175710D01*
X137356418Y-27162403D01*
X137351459Y-27148543D01*
X137347882Y-27134264D01*
X137345722Y-27119703D01*
X137345000Y-27105000D01*
X137345000Y-26805000D01*
X137345722Y-26790297D01*
X137347882Y-26775736D01*
X137351459Y-26761457D01*
X137356418Y-26747597D01*
X137362712Y-26734290D01*
X137370280Y-26721664D01*
X137379048Y-26709841D01*
X137388934Y-26698934D01*
X137399841Y-26689048D01*
X137411664Y-26680280D01*
X137424290Y-26672712D01*
X137437597Y-26666418D01*
X137451457Y-26661459D01*
X137465736Y-26657882D01*
X137480297Y-26655722D01*
X137495000Y-26655000D01*
X139245000Y-26655000D01*
X139259703Y-26655722D01*
G37*
G36*
X139259703Y-25385722D02*
G01*
X139274264Y-25387882D01*
X139288543Y-25391459D01*
X139302403Y-25396418D01*
X139315710Y-25402712D01*
X139328336Y-25410280D01*
X139340159Y-25419048D01*
X139351066Y-25428934D01*
X139360952Y-25439841D01*
X139369720Y-25451664D01*
X139377288Y-25464290D01*
X139383582Y-25477597D01*
X139388541Y-25491457D01*
X139392118Y-25505736D01*
X139394278Y-25520297D01*
X139395000Y-25535000D01*
X139395000Y-25835000D01*
X139394278Y-25849703D01*
X139392118Y-25864264D01*
X139388541Y-25878543D01*
X139383582Y-25892403D01*
X139377288Y-25905710D01*
X139369720Y-25918336D01*
X139360952Y-25930159D01*
X139351066Y-25941066D01*
X139340159Y-25950952D01*
X139328336Y-25959720D01*
X139315710Y-25967288D01*
X139302403Y-25973582D01*
X139288543Y-25978541D01*
X139274264Y-25982118D01*
X139259703Y-25984278D01*
X139245000Y-25985000D01*
X137495000Y-25985000D01*
X137480297Y-25984278D01*
X137465736Y-25982118D01*
X137451457Y-25978541D01*
X137437597Y-25973582D01*
X137424290Y-25967288D01*
X137411664Y-25959720D01*
X137399841Y-25950952D01*
X137388934Y-25941066D01*
X137379048Y-25930159D01*
X137370280Y-25918336D01*
X137362712Y-25905710D01*
X137356418Y-25892403D01*
X137351459Y-25878543D01*
X137347882Y-25864264D01*
X137345722Y-25849703D01*
X137345000Y-25835000D01*
X137345000Y-25535000D01*
X137345722Y-25520297D01*
X137347882Y-25505736D01*
X137351459Y-25491457D01*
X137356418Y-25477597D01*
X137362712Y-25464290D01*
X137370280Y-25451664D01*
X137379048Y-25439841D01*
X137388934Y-25428934D01*
X137399841Y-25419048D01*
X137411664Y-25410280D01*
X137424290Y-25402712D01*
X137437597Y-25396418D01*
X137451457Y-25391459D01*
X137465736Y-25387882D01*
X137480297Y-25385722D01*
X137495000Y-25385000D01*
X139245000Y-25385000D01*
X139259703Y-25385722D01*
G37*
G36*
X139259703Y-24115722D02*
G01*
X139274264Y-24117882D01*
X139288543Y-24121459D01*
X139302403Y-24126418D01*
X139315710Y-24132712D01*
X139328336Y-24140280D01*
X139340159Y-24149048D01*
X139351066Y-24158934D01*
X139360952Y-24169841D01*
X139369720Y-24181664D01*
X139377288Y-24194290D01*
X139383582Y-24207597D01*
X139388541Y-24221457D01*
X139392118Y-24235736D01*
X139394278Y-24250297D01*
X139395000Y-24265000D01*
X139395000Y-24565000D01*
X139394278Y-24579703D01*
X139392118Y-24594264D01*
X139388541Y-24608543D01*
X139383582Y-24622403D01*
X139377288Y-24635710D01*
X139369720Y-24648336D01*
X139360952Y-24660159D01*
X139351066Y-24671066D01*
X139340159Y-24680952D01*
X139328336Y-24689720D01*
X139315710Y-24697288D01*
X139302403Y-24703582D01*
X139288543Y-24708541D01*
X139274264Y-24712118D01*
X139259703Y-24714278D01*
X139245000Y-24715000D01*
X137495000Y-24715000D01*
X137480297Y-24714278D01*
X137465736Y-24712118D01*
X137451457Y-24708541D01*
X137437597Y-24703582D01*
X137424290Y-24697288D01*
X137411664Y-24689720D01*
X137399841Y-24680952D01*
X137388934Y-24671066D01*
X137379048Y-24660159D01*
X137370280Y-24648336D01*
X137362712Y-24635710D01*
X137356418Y-24622403D01*
X137351459Y-24608543D01*
X137347882Y-24594264D01*
X137345722Y-24579703D01*
X137345000Y-24565000D01*
X137345000Y-24265000D01*
X137345722Y-24250297D01*
X137347882Y-24235736D01*
X137351459Y-24221457D01*
X137356418Y-24207597D01*
X137362712Y-24194290D01*
X137370280Y-24181664D01*
X137379048Y-24169841D01*
X137388934Y-24158934D01*
X137399841Y-24149048D01*
X137411664Y-24140280D01*
X137424290Y-24132712D01*
X137437597Y-24126418D01*
X137451457Y-24121459D01*
X137465736Y-24117882D01*
X137480297Y-24115722D01*
X137495000Y-24115000D01*
X139245000Y-24115000D01*
X139259703Y-24115722D01*
G37*
G36*
X148559703Y-24115722D02*
G01*
X148574264Y-24117882D01*
X148588543Y-24121459D01*
X148602403Y-24126418D01*
X148615710Y-24132712D01*
X148628336Y-24140280D01*
X148640159Y-24149048D01*
X148651066Y-24158934D01*
X148660952Y-24169841D01*
X148669720Y-24181664D01*
X148677288Y-24194290D01*
X148683582Y-24207597D01*
X148688541Y-24221457D01*
X148692118Y-24235736D01*
X148694278Y-24250297D01*
X148695000Y-24265000D01*
X148695000Y-24565000D01*
X148694278Y-24579703D01*
X148692118Y-24594264D01*
X148688541Y-24608543D01*
X148683582Y-24622403D01*
X148677288Y-24635710D01*
X148669720Y-24648336D01*
X148660952Y-24660159D01*
X148651066Y-24671066D01*
X148640159Y-24680952D01*
X148628336Y-24689720D01*
X148615710Y-24697288D01*
X148602403Y-24703582D01*
X148588543Y-24708541D01*
X148574264Y-24712118D01*
X148559703Y-24714278D01*
X148545000Y-24715000D01*
X146795000Y-24715000D01*
X146780297Y-24714278D01*
X146765736Y-24712118D01*
X146751457Y-24708541D01*
X146737597Y-24703582D01*
X146724290Y-24697288D01*
X146711664Y-24689720D01*
X146699841Y-24680952D01*
X146688934Y-24671066D01*
X146679048Y-24660159D01*
X146670280Y-24648336D01*
X146662712Y-24635710D01*
X146656418Y-24622403D01*
X146651459Y-24608543D01*
X146647882Y-24594264D01*
X146645722Y-24579703D01*
X146645000Y-24565000D01*
X146645000Y-24265000D01*
X146645722Y-24250297D01*
X146647882Y-24235736D01*
X146651459Y-24221457D01*
X146656418Y-24207597D01*
X146662712Y-24194290D01*
X146670280Y-24181664D01*
X146679048Y-24169841D01*
X146688934Y-24158934D01*
X146699841Y-24149048D01*
X146711664Y-24140280D01*
X146724290Y-24132712D01*
X146737597Y-24126418D01*
X146751457Y-24121459D01*
X146765736Y-24117882D01*
X146780297Y-24115722D01*
X146795000Y-24115000D01*
X148545000Y-24115000D01*
X148559703Y-24115722D01*
G37*
G36*
X148559703Y-25385722D02*
G01*
X148574264Y-25387882D01*
X148588543Y-25391459D01*
X148602403Y-25396418D01*
X148615710Y-25402712D01*
X148628336Y-25410280D01*
X148640159Y-25419048D01*
X148651066Y-25428934D01*
X148660952Y-25439841D01*
X148669720Y-25451664D01*
X148677288Y-25464290D01*
X148683582Y-25477597D01*
X148688541Y-25491457D01*
X148692118Y-25505736D01*
X148694278Y-25520297D01*
X148695000Y-25535000D01*
X148695000Y-25835000D01*
X148694278Y-25849703D01*
X148692118Y-25864264D01*
X148688541Y-25878543D01*
X148683582Y-25892403D01*
X148677288Y-25905710D01*
X148669720Y-25918336D01*
X148660952Y-25930159D01*
X148651066Y-25941066D01*
X148640159Y-25950952D01*
X148628336Y-25959720D01*
X148615710Y-25967288D01*
X148602403Y-25973582D01*
X148588543Y-25978541D01*
X148574264Y-25982118D01*
X148559703Y-25984278D01*
X148545000Y-25985000D01*
X146795000Y-25985000D01*
X146780297Y-25984278D01*
X146765736Y-25982118D01*
X146751457Y-25978541D01*
X146737597Y-25973582D01*
X146724290Y-25967288D01*
X146711664Y-25959720D01*
X146699841Y-25950952D01*
X146688934Y-25941066D01*
X146679048Y-25930159D01*
X146670280Y-25918336D01*
X146662712Y-25905710D01*
X146656418Y-25892403D01*
X146651459Y-25878543D01*
X146647882Y-25864264D01*
X146645722Y-25849703D01*
X146645000Y-25835000D01*
X146645000Y-25535000D01*
X146645722Y-25520297D01*
X146647882Y-25505736D01*
X146651459Y-25491457D01*
X146656418Y-25477597D01*
X146662712Y-25464290D01*
X146670280Y-25451664D01*
X146679048Y-25439841D01*
X146688934Y-25428934D01*
X146699841Y-25419048D01*
X146711664Y-25410280D01*
X146724290Y-25402712D01*
X146737597Y-25396418D01*
X146751457Y-25391459D01*
X146765736Y-25387882D01*
X146780297Y-25385722D01*
X146795000Y-25385000D01*
X148545000Y-25385000D01*
X148559703Y-25385722D01*
G37*
G36*
X148559703Y-26655722D02*
G01*
X148574264Y-26657882D01*
X148588543Y-26661459D01*
X148602403Y-26666418D01*
X148615710Y-26672712D01*
X148628336Y-26680280D01*
X148640159Y-26689048D01*
X148651066Y-26698934D01*
X148660952Y-26709841D01*
X148669720Y-26721664D01*
X148677288Y-26734290D01*
X148683582Y-26747597D01*
X148688541Y-26761457D01*
X148692118Y-26775736D01*
X148694278Y-26790297D01*
X148695000Y-26805000D01*
X148695000Y-27105000D01*
X148694278Y-27119703D01*
X148692118Y-27134264D01*
X148688541Y-27148543D01*
X148683582Y-27162403D01*
X148677288Y-27175710D01*
X148669720Y-27188336D01*
X148660952Y-27200159D01*
X148651066Y-27211066D01*
X148640159Y-27220952D01*
X148628336Y-27229720D01*
X148615710Y-27237288D01*
X148602403Y-27243582D01*
X148588543Y-27248541D01*
X148574264Y-27252118D01*
X148559703Y-27254278D01*
X148545000Y-27255000D01*
X146795000Y-27255000D01*
X146780297Y-27254278D01*
X146765736Y-27252118D01*
X146751457Y-27248541D01*
X146737597Y-27243582D01*
X146724290Y-27237288D01*
X146711664Y-27229720D01*
X146699841Y-27220952D01*
X146688934Y-27211066D01*
X146679048Y-27200159D01*
X146670280Y-27188336D01*
X146662712Y-27175710D01*
X146656418Y-27162403D01*
X146651459Y-27148543D01*
X146647882Y-27134264D01*
X146645722Y-27119703D01*
X146645000Y-27105000D01*
X146645000Y-26805000D01*
X146645722Y-26790297D01*
X146647882Y-26775736D01*
X146651459Y-26761457D01*
X146656418Y-26747597D01*
X146662712Y-26734290D01*
X146670280Y-26721664D01*
X146679048Y-26709841D01*
X146688934Y-26698934D01*
X146699841Y-26689048D01*
X146711664Y-26680280D01*
X146724290Y-26672712D01*
X146737597Y-26666418D01*
X146751457Y-26661459D01*
X146765736Y-26657882D01*
X146780297Y-26655722D01*
X146795000Y-26655000D01*
X148545000Y-26655000D01*
X148559703Y-26655722D01*
G37*
G36*
X148559703Y-27925722D02*
G01*
X148574264Y-27927882D01*
X148588543Y-27931459D01*
X148602403Y-27936418D01*
X148615710Y-27942712D01*
X148628336Y-27950280D01*
X148640159Y-27959048D01*
X148651066Y-27968934D01*
X148660952Y-27979841D01*
X148669720Y-27991664D01*
X148677288Y-28004290D01*
X148683582Y-28017597D01*
X148688541Y-28031457D01*
X148692118Y-28045736D01*
X148694278Y-28060297D01*
X148695000Y-28075000D01*
X148695000Y-28375000D01*
X148694278Y-28389703D01*
X148692118Y-28404264D01*
X148688541Y-28418543D01*
X148683582Y-28432403D01*
X148677288Y-28445710D01*
X148669720Y-28458336D01*
X148660952Y-28470159D01*
X148651066Y-28481066D01*
X148640159Y-28490952D01*
X148628336Y-28499720D01*
X148615710Y-28507288D01*
X148602403Y-28513582D01*
X148588543Y-28518541D01*
X148574264Y-28522118D01*
X148559703Y-28524278D01*
X148545000Y-28525000D01*
X146795000Y-28525000D01*
X146780297Y-28524278D01*
X146765736Y-28522118D01*
X146751457Y-28518541D01*
X146737597Y-28513582D01*
X146724290Y-28507288D01*
X146711664Y-28499720D01*
X146699841Y-28490952D01*
X146688934Y-28481066D01*
X146679048Y-28470159D01*
X146670280Y-28458336D01*
X146662712Y-28445710D01*
X146656418Y-28432403D01*
X146651459Y-28418543D01*
X146647882Y-28404264D01*
X146645722Y-28389703D01*
X146645000Y-28375000D01*
X146645000Y-28075000D01*
X146645722Y-28060297D01*
X146647882Y-28045736D01*
X146651459Y-28031457D01*
X146656418Y-28017597D01*
X146662712Y-28004290D01*
X146670280Y-27991664D01*
X146679048Y-27979841D01*
X146688934Y-27968934D01*
X146699841Y-27959048D01*
X146711664Y-27950280D01*
X146724290Y-27942712D01*
X146737597Y-27936418D01*
X146751457Y-27931459D01*
X146765736Y-27927882D01*
X146780297Y-27925722D01*
X146795000Y-27925000D01*
X148545000Y-27925000D01*
X148559703Y-27925722D01*
G37*
G36*
X148559703Y-29195722D02*
G01*
X148574264Y-29197882D01*
X148588543Y-29201459D01*
X148602403Y-29206418D01*
X148615710Y-29212712D01*
X148628336Y-29220280D01*
X148640159Y-29229048D01*
X148651066Y-29238934D01*
X148660952Y-29249841D01*
X148669720Y-29261664D01*
X148677288Y-29274290D01*
X148683582Y-29287597D01*
X148688541Y-29301457D01*
X148692118Y-29315736D01*
X148694278Y-29330297D01*
X148695000Y-29345000D01*
X148695000Y-29645000D01*
X148694278Y-29659703D01*
X148692118Y-29674264D01*
X148688541Y-29688543D01*
X148683582Y-29702403D01*
X148677288Y-29715710D01*
X148669720Y-29728336D01*
X148660952Y-29740159D01*
X148651066Y-29751066D01*
X148640159Y-29760952D01*
X148628336Y-29769720D01*
X148615710Y-29777288D01*
X148602403Y-29783582D01*
X148588543Y-29788541D01*
X148574264Y-29792118D01*
X148559703Y-29794278D01*
X148545000Y-29795000D01*
X146795000Y-29795000D01*
X146780297Y-29794278D01*
X146765736Y-29792118D01*
X146751457Y-29788541D01*
X146737597Y-29783582D01*
X146724290Y-29777288D01*
X146711664Y-29769720D01*
X146699841Y-29760952D01*
X146688934Y-29751066D01*
X146679048Y-29740159D01*
X146670280Y-29728336D01*
X146662712Y-29715710D01*
X146656418Y-29702403D01*
X146651459Y-29688543D01*
X146647882Y-29674264D01*
X146645722Y-29659703D01*
X146645000Y-29645000D01*
X146645000Y-29345000D01*
X146645722Y-29330297D01*
X146647882Y-29315736D01*
X146651459Y-29301457D01*
X146656418Y-29287597D01*
X146662712Y-29274290D01*
X146670280Y-29261664D01*
X146679048Y-29249841D01*
X146688934Y-29238934D01*
X146699841Y-29229048D01*
X146711664Y-29220280D01*
X146724290Y-29212712D01*
X146737597Y-29206418D01*
X146751457Y-29201459D01*
X146765736Y-29197882D01*
X146780297Y-29195722D01*
X146795000Y-29195000D01*
X148545000Y-29195000D01*
X148559703Y-29195722D01*
G37*
G36*
X148559703Y-30465722D02*
G01*
X148574264Y-30467882D01*
X148588543Y-30471459D01*
X148602403Y-30476418D01*
X148615710Y-30482712D01*
X148628336Y-30490280D01*
X148640159Y-30499048D01*
X148651066Y-30508934D01*
X148660952Y-30519841D01*
X148669720Y-30531664D01*
X148677288Y-30544290D01*
X148683582Y-30557597D01*
X148688541Y-30571457D01*
X148692118Y-30585736D01*
X148694278Y-30600297D01*
X148695000Y-30615000D01*
X148695000Y-30915000D01*
X148694278Y-30929703D01*
X148692118Y-30944264D01*
X148688541Y-30958543D01*
X148683582Y-30972403D01*
X148677288Y-30985710D01*
X148669720Y-30998336D01*
X148660952Y-31010159D01*
X148651066Y-31021066D01*
X148640159Y-31030952D01*
X148628336Y-31039720D01*
X148615710Y-31047288D01*
X148602403Y-31053582D01*
X148588543Y-31058541D01*
X148574264Y-31062118D01*
X148559703Y-31064278D01*
X148545000Y-31065000D01*
X146795000Y-31065000D01*
X146780297Y-31064278D01*
X146765736Y-31062118D01*
X146751457Y-31058541D01*
X146737597Y-31053582D01*
X146724290Y-31047288D01*
X146711664Y-31039720D01*
X146699841Y-31030952D01*
X146688934Y-31021066D01*
X146679048Y-31010159D01*
X146670280Y-30998336D01*
X146662712Y-30985710D01*
X146656418Y-30972403D01*
X146651459Y-30958543D01*
X146647882Y-30944264D01*
X146645722Y-30929703D01*
X146645000Y-30915000D01*
X146645000Y-30615000D01*
X146645722Y-30600297D01*
X146647882Y-30585736D01*
X146651459Y-30571457D01*
X146656418Y-30557597D01*
X146662712Y-30544290D01*
X146670280Y-30531664D01*
X146679048Y-30519841D01*
X146688934Y-30508934D01*
X146699841Y-30499048D01*
X146711664Y-30490280D01*
X146724290Y-30482712D01*
X146737597Y-30476418D01*
X146751457Y-30471459D01*
X146765736Y-30467882D01*
X146780297Y-30465722D01*
X146795000Y-30465000D01*
X148545000Y-30465000D01*
X148559703Y-30465722D01*
G37*
G36*
X148559703Y-31735722D02*
G01*
X148574264Y-31737882D01*
X148588543Y-31741459D01*
X148602403Y-31746418D01*
X148615710Y-31752712D01*
X148628336Y-31760280D01*
X148640159Y-31769048D01*
X148651066Y-31778934D01*
X148660952Y-31789841D01*
X148669720Y-31801664D01*
X148677288Y-31814290D01*
X148683582Y-31827597D01*
X148688541Y-31841457D01*
X148692118Y-31855736D01*
X148694278Y-31870297D01*
X148695000Y-31885000D01*
X148695000Y-32185000D01*
X148694278Y-32199703D01*
X148692118Y-32214264D01*
X148688541Y-32228543D01*
X148683582Y-32242403D01*
X148677288Y-32255710D01*
X148669720Y-32268336D01*
X148660952Y-32280159D01*
X148651066Y-32291066D01*
X148640159Y-32300952D01*
X148628336Y-32309720D01*
X148615710Y-32317288D01*
X148602403Y-32323582D01*
X148588543Y-32328541D01*
X148574264Y-32332118D01*
X148559703Y-32334278D01*
X148545000Y-32335000D01*
X146795000Y-32335000D01*
X146780297Y-32334278D01*
X146765736Y-32332118D01*
X146751457Y-32328541D01*
X146737597Y-32323582D01*
X146724290Y-32317288D01*
X146711664Y-32309720D01*
X146699841Y-32300952D01*
X146688934Y-32291066D01*
X146679048Y-32280159D01*
X146670280Y-32268336D01*
X146662712Y-32255710D01*
X146656418Y-32242403D01*
X146651459Y-32228543D01*
X146647882Y-32214264D01*
X146645722Y-32199703D01*
X146645000Y-32185000D01*
X146645000Y-31885000D01*
X146645722Y-31870297D01*
X146647882Y-31855736D01*
X146651459Y-31841457D01*
X146656418Y-31827597D01*
X146662712Y-31814290D01*
X146670280Y-31801664D01*
X146679048Y-31789841D01*
X146688934Y-31778934D01*
X146699841Y-31769048D01*
X146711664Y-31760280D01*
X146724290Y-31752712D01*
X146737597Y-31746418D01*
X146751457Y-31741459D01*
X146765736Y-31737882D01*
X146780297Y-31735722D01*
X146795000Y-31735000D01*
X148545000Y-31735000D01*
X148559703Y-31735722D01*
G37*
G36*
X148559703Y-33005722D02*
G01*
X148574264Y-33007882D01*
X148588543Y-33011459D01*
X148602403Y-33016418D01*
X148615710Y-33022712D01*
X148628336Y-33030280D01*
X148640159Y-33039048D01*
X148651066Y-33048934D01*
X148660952Y-33059841D01*
X148669720Y-33071664D01*
X148677288Y-33084290D01*
X148683582Y-33097597D01*
X148688541Y-33111457D01*
X148692118Y-33125736D01*
X148694278Y-33140297D01*
X148695000Y-33155000D01*
X148695000Y-33455000D01*
X148694278Y-33469703D01*
X148692118Y-33484264D01*
X148688541Y-33498543D01*
X148683582Y-33512403D01*
X148677288Y-33525710D01*
X148669720Y-33538336D01*
X148660952Y-33550159D01*
X148651066Y-33561066D01*
X148640159Y-33570952D01*
X148628336Y-33579720D01*
X148615710Y-33587288D01*
X148602403Y-33593582D01*
X148588543Y-33598541D01*
X148574264Y-33602118D01*
X148559703Y-33604278D01*
X148545000Y-33605000D01*
X146795000Y-33605000D01*
X146780297Y-33604278D01*
X146765736Y-33602118D01*
X146751457Y-33598541D01*
X146737597Y-33593582D01*
X146724290Y-33587288D01*
X146711664Y-33579720D01*
X146699841Y-33570952D01*
X146688934Y-33561066D01*
X146679048Y-33550159D01*
X146670280Y-33538336D01*
X146662712Y-33525710D01*
X146656418Y-33512403D01*
X146651459Y-33498543D01*
X146647882Y-33484264D01*
X146645722Y-33469703D01*
X146645000Y-33455000D01*
X146645000Y-33155000D01*
X146645722Y-33140297D01*
X146647882Y-33125736D01*
X146651459Y-33111457D01*
X146656418Y-33097597D01*
X146662712Y-33084290D01*
X146670280Y-33071664D01*
X146679048Y-33059841D01*
X146688934Y-33048934D01*
X146699841Y-33039048D01*
X146711664Y-33030280D01*
X146724290Y-33022712D01*
X146737597Y-33016418D01*
X146751457Y-33011459D01*
X146765736Y-33007882D01*
X146780297Y-33005722D01*
X146795000Y-33005000D01*
X148545000Y-33005000D01*
X148559703Y-33005722D01*
G37*
G36*
X148559703Y-34275722D02*
G01*
X148574264Y-34277882D01*
X148588543Y-34281459D01*
X148602403Y-34286418D01*
X148615710Y-34292712D01*
X148628336Y-34300280D01*
X148640159Y-34309048D01*
X148651066Y-34318934D01*
X148660952Y-34329841D01*
X148669720Y-34341664D01*
X148677288Y-34354290D01*
X148683582Y-34367597D01*
X148688541Y-34381457D01*
X148692118Y-34395736D01*
X148694278Y-34410297D01*
X148695000Y-34425000D01*
X148695000Y-34725000D01*
X148694278Y-34739703D01*
X148692118Y-34754264D01*
X148688541Y-34768543D01*
X148683582Y-34782403D01*
X148677288Y-34795710D01*
X148669720Y-34808336D01*
X148660952Y-34820159D01*
X148651066Y-34831066D01*
X148640159Y-34840952D01*
X148628336Y-34849720D01*
X148615710Y-34857288D01*
X148602403Y-34863582D01*
X148588543Y-34868541D01*
X148574264Y-34872118D01*
X148559703Y-34874278D01*
X148545000Y-34875000D01*
X146795000Y-34875000D01*
X146780297Y-34874278D01*
X146765736Y-34872118D01*
X146751457Y-34868541D01*
X146737597Y-34863582D01*
X146724290Y-34857288D01*
X146711664Y-34849720D01*
X146699841Y-34840952D01*
X146688934Y-34831066D01*
X146679048Y-34820159D01*
X146670280Y-34808336D01*
X146662712Y-34795710D01*
X146656418Y-34782403D01*
X146651459Y-34768543D01*
X146647882Y-34754264D01*
X146645722Y-34739703D01*
X146645000Y-34725000D01*
X146645000Y-34425000D01*
X146645722Y-34410297D01*
X146647882Y-34395736D01*
X146651459Y-34381457D01*
X146656418Y-34367597D01*
X146662712Y-34354290D01*
X146670280Y-34341664D01*
X146679048Y-34329841D01*
X146688934Y-34318934D01*
X146699841Y-34309048D01*
X146711664Y-34300280D01*
X146724290Y-34292712D01*
X146737597Y-34286418D01*
X146751457Y-34281459D01*
X146765736Y-34277882D01*
X146780297Y-34275722D01*
X146795000Y-34275000D01*
X148545000Y-34275000D01*
X148559703Y-34275722D01*
G37*
G36*
X148559703Y-35545722D02*
G01*
X148574264Y-35547882D01*
X148588543Y-35551459D01*
X148602403Y-35556418D01*
X148615710Y-35562712D01*
X148628336Y-35570280D01*
X148640159Y-35579048D01*
X148651066Y-35588934D01*
X148660952Y-35599841D01*
X148669720Y-35611664D01*
X148677288Y-35624290D01*
X148683582Y-35637597D01*
X148688541Y-35651457D01*
X148692118Y-35665736D01*
X148694278Y-35680297D01*
X148695000Y-35695000D01*
X148695000Y-35995000D01*
X148694278Y-36009703D01*
X148692118Y-36024264D01*
X148688541Y-36038543D01*
X148683582Y-36052403D01*
X148677288Y-36065710D01*
X148669720Y-36078336D01*
X148660952Y-36090159D01*
X148651066Y-36101066D01*
X148640159Y-36110952D01*
X148628336Y-36119720D01*
X148615710Y-36127288D01*
X148602403Y-36133582D01*
X148588543Y-36138541D01*
X148574264Y-36142118D01*
X148559703Y-36144278D01*
X148545000Y-36145000D01*
X146795000Y-36145000D01*
X146780297Y-36144278D01*
X146765736Y-36142118D01*
X146751457Y-36138541D01*
X146737597Y-36133582D01*
X146724290Y-36127288D01*
X146711664Y-36119720D01*
X146699841Y-36110952D01*
X146688934Y-36101066D01*
X146679048Y-36090159D01*
X146670280Y-36078336D01*
X146662712Y-36065710D01*
X146656418Y-36052403D01*
X146651459Y-36038543D01*
X146647882Y-36024264D01*
X146645722Y-36009703D01*
X146645000Y-35995000D01*
X146645000Y-35695000D01*
X146645722Y-35680297D01*
X146647882Y-35665736D01*
X146651459Y-35651457D01*
X146656418Y-35637597D01*
X146662712Y-35624290D01*
X146670280Y-35611664D01*
X146679048Y-35599841D01*
X146688934Y-35588934D01*
X146699841Y-35579048D01*
X146711664Y-35570280D01*
X146724290Y-35562712D01*
X146737597Y-35556418D01*
X146751457Y-35551459D01*
X146765736Y-35547882D01*
X146780297Y-35545722D01*
X146795000Y-35545000D01*
X148545000Y-35545000D01*
X148559703Y-35545722D01*
G37*
G36*
X148559703Y-36815722D02*
G01*
X148574264Y-36817882D01*
X148588543Y-36821459D01*
X148602403Y-36826418D01*
X148615710Y-36832712D01*
X148628336Y-36840280D01*
X148640159Y-36849048D01*
X148651066Y-36858934D01*
X148660952Y-36869841D01*
X148669720Y-36881664D01*
X148677288Y-36894290D01*
X148683582Y-36907597D01*
X148688541Y-36921457D01*
X148692118Y-36935736D01*
X148694278Y-36950297D01*
X148695000Y-36965000D01*
X148695000Y-37265000D01*
X148694278Y-37279703D01*
X148692118Y-37294264D01*
X148688541Y-37308543D01*
X148683582Y-37322403D01*
X148677288Y-37335710D01*
X148669720Y-37348336D01*
X148660952Y-37360159D01*
X148651066Y-37371066D01*
X148640159Y-37380952D01*
X148628336Y-37389720D01*
X148615710Y-37397288D01*
X148602403Y-37403582D01*
X148588543Y-37408541D01*
X148574264Y-37412118D01*
X148559703Y-37414278D01*
X148545000Y-37415000D01*
X146795000Y-37415000D01*
X146780297Y-37414278D01*
X146765736Y-37412118D01*
X146751457Y-37408541D01*
X146737597Y-37403582D01*
X146724290Y-37397288D01*
X146711664Y-37389720D01*
X146699841Y-37380952D01*
X146688934Y-37371066D01*
X146679048Y-37360159D01*
X146670280Y-37348336D01*
X146662712Y-37335710D01*
X146656418Y-37322403D01*
X146651459Y-37308543D01*
X146647882Y-37294264D01*
X146645722Y-37279703D01*
X146645000Y-37265000D01*
X146645000Y-36965000D01*
X146645722Y-36950297D01*
X146647882Y-36935736D01*
X146651459Y-36921457D01*
X146656418Y-36907597D01*
X146662712Y-36894290D01*
X146670280Y-36881664D01*
X146679048Y-36869841D01*
X146688934Y-36858934D01*
X146699841Y-36849048D01*
X146711664Y-36840280D01*
X146724290Y-36832712D01*
X146737597Y-36826418D01*
X146751457Y-36821459D01*
X146765736Y-36817882D01*
X146780297Y-36815722D01*
X146795000Y-36815000D01*
X148545000Y-36815000D01*
X148559703Y-36815722D01*
G37*
G36*
X148559703Y-38085722D02*
G01*
X148574264Y-38087882D01*
X148588543Y-38091459D01*
X148602403Y-38096418D01*
X148615710Y-38102712D01*
X148628336Y-38110280D01*
X148640159Y-38119048D01*
X148651066Y-38128934D01*
X148660952Y-38139841D01*
X148669720Y-38151664D01*
X148677288Y-38164290D01*
X148683582Y-38177597D01*
X148688541Y-38191457D01*
X148692118Y-38205736D01*
X148694278Y-38220297D01*
X148695000Y-38235000D01*
X148695000Y-38535000D01*
X148694278Y-38549703D01*
X148692118Y-38564264D01*
X148688541Y-38578543D01*
X148683582Y-38592403D01*
X148677288Y-38605710D01*
X148669720Y-38618336D01*
X148660952Y-38630159D01*
X148651066Y-38641066D01*
X148640159Y-38650952D01*
X148628336Y-38659720D01*
X148615710Y-38667288D01*
X148602403Y-38673582D01*
X148588543Y-38678541D01*
X148574264Y-38682118D01*
X148559703Y-38684278D01*
X148545000Y-38685000D01*
X146795000Y-38685000D01*
X146780297Y-38684278D01*
X146765736Y-38682118D01*
X146751457Y-38678541D01*
X146737597Y-38673582D01*
X146724290Y-38667288D01*
X146711664Y-38659720D01*
X146699841Y-38650952D01*
X146688934Y-38641066D01*
X146679048Y-38630159D01*
X146670280Y-38618336D01*
X146662712Y-38605710D01*
X146656418Y-38592403D01*
X146651459Y-38578543D01*
X146647882Y-38564264D01*
X146645722Y-38549703D01*
X146645000Y-38535000D01*
X146645000Y-38235000D01*
X146645722Y-38220297D01*
X146647882Y-38205736D01*
X146651459Y-38191457D01*
X146656418Y-38177597D01*
X146662712Y-38164290D01*
X146670280Y-38151664D01*
X146679048Y-38139841D01*
X146688934Y-38128934D01*
X146699841Y-38119048D01*
X146711664Y-38110280D01*
X146724290Y-38102712D01*
X146737597Y-38096418D01*
X146751457Y-38091459D01*
X146765736Y-38087882D01*
X146780297Y-38085722D01*
X146795000Y-38085000D01*
X148545000Y-38085000D01*
X148559703Y-38085722D01*
G37*
G04 #@! TD*
G04 #@! TO.C,R26*
G36*
X183945779Y-26436144D02*
G01*
X183968834Y-26439563D01*
X183991443Y-26445227D01*
X184013387Y-26453079D01*
X184034457Y-26463044D01*
X184054448Y-26475026D01*
X184073168Y-26488910D01*
X184090438Y-26504562D01*
X184106090Y-26521832D01*
X184119974Y-26540552D01*
X184131956Y-26560543D01*
X184141921Y-26581613D01*
X184149773Y-26603557D01*
X184155437Y-26626166D01*
X184158856Y-26649221D01*
X184160000Y-26672500D01*
X184160000Y-27147500D01*
X184158856Y-27170779D01*
X184155437Y-27193834D01*
X184149773Y-27216443D01*
X184141921Y-27238387D01*
X184131956Y-27259457D01*
X184119974Y-27279448D01*
X184106090Y-27298168D01*
X184090438Y-27315438D01*
X184073168Y-27331090D01*
X184054448Y-27344974D01*
X184034457Y-27356956D01*
X184013387Y-27366921D01*
X183991443Y-27374773D01*
X183968834Y-27380437D01*
X183945779Y-27383856D01*
X183922500Y-27385000D01*
X183347500Y-27385000D01*
X183324221Y-27383856D01*
X183301166Y-27380437D01*
X183278557Y-27374773D01*
X183256613Y-27366921D01*
X183235543Y-27356956D01*
X183215552Y-27344974D01*
X183196832Y-27331090D01*
X183179562Y-27315438D01*
X183163910Y-27298168D01*
X183150026Y-27279448D01*
X183138044Y-27259457D01*
X183128079Y-27238387D01*
X183120227Y-27216443D01*
X183114563Y-27193834D01*
X183111144Y-27170779D01*
X183110000Y-27147500D01*
X183110000Y-26672500D01*
X183111144Y-26649221D01*
X183114563Y-26626166D01*
X183120227Y-26603557D01*
X183128079Y-26581613D01*
X183138044Y-26560543D01*
X183150026Y-26540552D01*
X183163910Y-26521832D01*
X183179562Y-26504562D01*
X183196832Y-26488910D01*
X183215552Y-26475026D01*
X183235543Y-26463044D01*
X183256613Y-26453079D01*
X183278557Y-26445227D01*
X183301166Y-26439563D01*
X183324221Y-26436144D01*
X183347500Y-26435000D01*
X183922500Y-26435000D01*
X183945779Y-26436144D01*
G37*
G36*
X182195779Y-26436144D02*
G01*
X182218834Y-26439563D01*
X182241443Y-26445227D01*
X182263387Y-26453079D01*
X182284457Y-26463044D01*
X182304448Y-26475026D01*
X182323168Y-26488910D01*
X182340438Y-26504562D01*
X182356090Y-26521832D01*
X182369974Y-26540552D01*
X182381956Y-26560543D01*
X182391921Y-26581613D01*
X182399773Y-26603557D01*
X182405437Y-26626166D01*
X182408856Y-26649221D01*
X182410000Y-26672500D01*
X182410000Y-27147500D01*
X182408856Y-27170779D01*
X182405437Y-27193834D01*
X182399773Y-27216443D01*
X182391921Y-27238387D01*
X182381956Y-27259457D01*
X182369974Y-27279448D01*
X182356090Y-27298168D01*
X182340438Y-27315438D01*
X182323168Y-27331090D01*
X182304448Y-27344974D01*
X182284457Y-27356956D01*
X182263387Y-27366921D01*
X182241443Y-27374773D01*
X182218834Y-27380437D01*
X182195779Y-27383856D01*
X182172500Y-27385000D01*
X181597500Y-27385000D01*
X181574221Y-27383856D01*
X181551166Y-27380437D01*
X181528557Y-27374773D01*
X181506613Y-27366921D01*
X181485543Y-27356956D01*
X181465552Y-27344974D01*
X181446832Y-27331090D01*
X181429562Y-27315438D01*
X181413910Y-27298168D01*
X181400026Y-27279448D01*
X181388044Y-27259457D01*
X181378079Y-27238387D01*
X181370227Y-27216443D01*
X181364563Y-27193834D01*
X181361144Y-27170779D01*
X181360000Y-27147500D01*
X181360000Y-26672500D01*
X181361144Y-26649221D01*
X181364563Y-26626166D01*
X181370227Y-26603557D01*
X181378079Y-26581613D01*
X181388044Y-26560543D01*
X181400026Y-26540552D01*
X181413910Y-26521832D01*
X181429562Y-26504562D01*
X181446832Y-26488910D01*
X181465552Y-26475026D01*
X181485543Y-26463044D01*
X181506613Y-26453079D01*
X181528557Y-26445227D01*
X181551166Y-26439563D01*
X181574221Y-26436144D01*
X181597500Y-26435000D01*
X182172500Y-26435000D01*
X182195779Y-26436144D01*
G37*
G04 #@! TD*
G04 #@! TO.C,R25*
G36*
X132560779Y-47606144D02*
G01*
X132583834Y-47609563D01*
X132606443Y-47615227D01*
X132628387Y-47623079D01*
X132649457Y-47633044D01*
X132669448Y-47645026D01*
X132688168Y-47658910D01*
X132705438Y-47674562D01*
X132721090Y-47691832D01*
X132734974Y-47710552D01*
X132746956Y-47730543D01*
X132756921Y-47751613D01*
X132764773Y-47773557D01*
X132770437Y-47796166D01*
X132773856Y-47819221D01*
X132775000Y-47842500D01*
X132775000Y-48417500D01*
X132773856Y-48440779D01*
X132770437Y-48463834D01*
X132764773Y-48486443D01*
X132756921Y-48508387D01*
X132746956Y-48529457D01*
X132734974Y-48549448D01*
X132721090Y-48568168D01*
X132705438Y-48585438D01*
X132688168Y-48601090D01*
X132669448Y-48614974D01*
X132649457Y-48626956D01*
X132628387Y-48636921D01*
X132606443Y-48644773D01*
X132583834Y-48650437D01*
X132560779Y-48653856D01*
X132537500Y-48655000D01*
X132062500Y-48655000D01*
X132039221Y-48653856D01*
X132016166Y-48650437D01*
X131993557Y-48644773D01*
X131971613Y-48636921D01*
X131950543Y-48626956D01*
X131930552Y-48614974D01*
X131911832Y-48601090D01*
X131894562Y-48585438D01*
X131878910Y-48568168D01*
X131865026Y-48549448D01*
X131853044Y-48529457D01*
X131843079Y-48508387D01*
X131835227Y-48486443D01*
X131829563Y-48463834D01*
X131826144Y-48440779D01*
X131825000Y-48417500D01*
X131825000Y-47842500D01*
X131826144Y-47819221D01*
X131829563Y-47796166D01*
X131835227Y-47773557D01*
X131843079Y-47751613D01*
X131853044Y-47730543D01*
X131865026Y-47710552D01*
X131878910Y-47691832D01*
X131894562Y-47674562D01*
X131911832Y-47658910D01*
X131930552Y-47645026D01*
X131950543Y-47633044D01*
X131971613Y-47623079D01*
X131993557Y-47615227D01*
X132016166Y-47609563D01*
X132039221Y-47606144D01*
X132062500Y-47605000D01*
X132537500Y-47605000D01*
X132560779Y-47606144D01*
G37*
G36*
X132560779Y-49356144D02*
G01*
X132583834Y-49359563D01*
X132606443Y-49365227D01*
X132628387Y-49373079D01*
X132649457Y-49383044D01*
X132669448Y-49395026D01*
X132688168Y-49408910D01*
X132705438Y-49424562D01*
X132721090Y-49441832D01*
X132734974Y-49460552D01*
X132746956Y-49480543D01*
X132756921Y-49501613D01*
X132764773Y-49523557D01*
X132770437Y-49546166D01*
X132773856Y-49569221D01*
X132775000Y-49592500D01*
X132775000Y-50167500D01*
X132773856Y-50190779D01*
X132770437Y-50213834D01*
X132764773Y-50236443D01*
X132756921Y-50258387D01*
X132746956Y-50279457D01*
X132734974Y-50299448D01*
X132721090Y-50318168D01*
X132705438Y-50335438D01*
X132688168Y-50351090D01*
X132669448Y-50364974D01*
X132649457Y-50376956D01*
X132628387Y-50386921D01*
X132606443Y-50394773D01*
X132583834Y-50400437D01*
X132560779Y-50403856D01*
X132537500Y-50405000D01*
X132062500Y-50405000D01*
X132039221Y-50403856D01*
X132016166Y-50400437D01*
X131993557Y-50394773D01*
X131971613Y-50386921D01*
X131950543Y-50376956D01*
X131930552Y-50364974D01*
X131911832Y-50351090D01*
X131894562Y-50335438D01*
X131878910Y-50318168D01*
X131865026Y-50299448D01*
X131853044Y-50279457D01*
X131843079Y-50258387D01*
X131835227Y-50236443D01*
X131829563Y-50213834D01*
X131826144Y-50190779D01*
X131825000Y-50167500D01*
X131825000Y-49592500D01*
X131826144Y-49569221D01*
X131829563Y-49546166D01*
X131835227Y-49523557D01*
X131843079Y-49501613D01*
X131853044Y-49480543D01*
X131865026Y-49460552D01*
X131878910Y-49441832D01*
X131894562Y-49424562D01*
X131911832Y-49408910D01*
X131930552Y-49395026D01*
X131950543Y-49383044D01*
X131971613Y-49373079D01*
X131993557Y-49365227D01*
X132016166Y-49359563D01*
X132039221Y-49356144D01*
X132062500Y-49355000D01*
X132537500Y-49355000D01*
X132560779Y-49356144D01*
G37*
G04 #@! TD*
G04 #@! TO.C,R24*
G36*
X135290779Y-47646144D02*
G01*
X135313834Y-47649563D01*
X135336443Y-47655227D01*
X135358387Y-47663079D01*
X135379457Y-47673044D01*
X135399448Y-47685026D01*
X135418168Y-47698910D01*
X135435438Y-47714562D01*
X135451090Y-47731832D01*
X135464974Y-47750552D01*
X135476956Y-47770543D01*
X135486921Y-47791613D01*
X135494773Y-47813557D01*
X135500437Y-47836166D01*
X135503856Y-47859221D01*
X135505000Y-47882500D01*
X135505000Y-48457500D01*
X135503856Y-48480779D01*
X135500437Y-48503834D01*
X135494773Y-48526443D01*
X135486921Y-48548387D01*
X135476956Y-48569457D01*
X135464974Y-48589448D01*
X135451090Y-48608168D01*
X135435438Y-48625438D01*
X135418168Y-48641090D01*
X135399448Y-48654974D01*
X135379457Y-48666956D01*
X135358387Y-48676921D01*
X135336443Y-48684773D01*
X135313834Y-48690437D01*
X135290779Y-48693856D01*
X135267500Y-48695000D01*
X134792500Y-48695000D01*
X134769221Y-48693856D01*
X134746166Y-48690437D01*
X134723557Y-48684773D01*
X134701613Y-48676921D01*
X134680543Y-48666956D01*
X134660552Y-48654974D01*
X134641832Y-48641090D01*
X134624562Y-48625438D01*
X134608910Y-48608168D01*
X134595026Y-48589448D01*
X134583044Y-48569457D01*
X134573079Y-48548387D01*
X134565227Y-48526443D01*
X134559563Y-48503834D01*
X134556144Y-48480779D01*
X134555000Y-48457500D01*
X134555000Y-47882500D01*
X134556144Y-47859221D01*
X134559563Y-47836166D01*
X134565227Y-47813557D01*
X134573079Y-47791613D01*
X134583044Y-47770543D01*
X134595026Y-47750552D01*
X134608910Y-47731832D01*
X134624562Y-47714562D01*
X134641832Y-47698910D01*
X134660552Y-47685026D01*
X134680543Y-47673044D01*
X134701613Y-47663079D01*
X134723557Y-47655227D01*
X134746166Y-47649563D01*
X134769221Y-47646144D01*
X134792500Y-47645000D01*
X135267500Y-47645000D01*
X135290779Y-47646144D01*
G37*
G36*
X135290779Y-49396144D02*
G01*
X135313834Y-49399563D01*
X135336443Y-49405227D01*
X135358387Y-49413079D01*
X135379457Y-49423044D01*
X135399448Y-49435026D01*
X135418168Y-49448910D01*
X135435438Y-49464562D01*
X135451090Y-49481832D01*
X135464974Y-49500552D01*
X135476956Y-49520543D01*
X135486921Y-49541613D01*
X135494773Y-49563557D01*
X135500437Y-49586166D01*
X135503856Y-49609221D01*
X135505000Y-49632500D01*
X135505000Y-50207500D01*
X135503856Y-50230779D01*
X135500437Y-50253834D01*
X135494773Y-50276443D01*
X135486921Y-50298387D01*
X135476956Y-50319457D01*
X135464974Y-50339448D01*
X135451090Y-50358168D01*
X135435438Y-50375438D01*
X135418168Y-50391090D01*
X135399448Y-50404974D01*
X135379457Y-50416956D01*
X135358387Y-50426921D01*
X135336443Y-50434773D01*
X135313834Y-50440437D01*
X135290779Y-50443856D01*
X135267500Y-50445000D01*
X134792500Y-50445000D01*
X134769221Y-50443856D01*
X134746166Y-50440437D01*
X134723557Y-50434773D01*
X134701613Y-50426921D01*
X134680543Y-50416956D01*
X134660552Y-50404974D01*
X134641832Y-50391090D01*
X134624562Y-50375438D01*
X134608910Y-50358168D01*
X134595026Y-50339448D01*
X134583044Y-50319457D01*
X134573079Y-50298387D01*
X134565227Y-50276443D01*
X134559563Y-50253834D01*
X134556144Y-50230779D01*
X134555000Y-50207500D01*
X134555000Y-49632500D01*
X134556144Y-49609221D01*
X134559563Y-49586166D01*
X134565227Y-49563557D01*
X134573079Y-49541613D01*
X134583044Y-49520543D01*
X134595026Y-49500552D01*
X134608910Y-49481832D01*
X134624562Y-49464562D01*
X134641832Y-49448910D01*
X134660552Y-49435026D01*
X134680543Y-49423044D01*
X134701613Y-49413079D01*
X134723557Y-49405227D01*
X134746166Y-49399563D01*
X134769221Y-49396144D01*
X134792500Y-49395000D01*
X135267500Y-49395000D01*
X135290779Y-49396144D01*
G37*
G04 #@! TD*
G04 #@! TO.C,R23*
G36*
X137960779Y-47671144D02*
G01*
X137983834Y-47674563D01*
X138006443Y-47680227D01*
X138028387Y-47688079D01*
X138049457Y-47698044D01*
X138069448Y-47710026D01*
X138088168Y-47723910D01*
X138105438Y-47739562D01*
X138121090Y-47756832D01*
X138134974Y-47775552D01*
X138146956Y-47795543D01*
X138156921Y-47816613D01*
X138164773Y-47838557D01*
X138170437Y-47861166D01*
X138173856Y-47884221D01*
X138175000Y-47907500D01*
X138175000Y-48482500D01*
X138173856Y-48505779D01*
X138170437Y-48528834D01*
X138164773Y-48551443D01*
X138156921Y-48573387D01*
X138146956Y-48594457D01*
X138134974Y-48614448D01*
X138121090Y-48633168D01*
X138105438Y-48650438D01*
X138088168Y-48666090D01*
X138069448Y-48679974D01*
X138049457Y-48691956D01*
X138028387Y-48701921D01*
X138006443Y-48709773D01*
X137983834Y-48715437D01*
X137960779Y-48718856D01*
X137937500Y-48720000D01*
X137462500Y-48720000D01*
X137439221Y-48718856D01*
X137416166Y-48715437D01*
X137393557Y-48709773D01*
X137371613Y-48701921D01*
X137350543Y-48691956D01*
X137330552Y-48679974D01*
X137311832Y-48666090D01*
X137294562Y-48650438D01*
X137278910Y-48633168D01*
X137265026Y-48614448D01*
X137253044Y-48594457D01*
X137243079Y-48573387D01*
X137235227Y-48551443D01*
X137229563Y-48528834D01*
X137226144Y-48505779D01*
X137225000Y-48482500D01*
X137225000Y-47907500D01*
X137226144Y-47884221D01*
X137229563Y-47861166D01*
X137235227Y-47838557D01*
X137243079Y-47816613D01*
X137253044Y-47795543D01*
X137265026Y-47775552D01*
X137278910Y-47756832D01*
X137294562Y-47739562D01*
X137311832Y-47723910D01*
X137330552Y-47710026D01*
X137350543Y-47698044D01*
X137371613Y-47688079D01*
X137393557Y-47680227D01*
X137416166Y-47674563D01*
X137439221Y-47671144D01*
X137462500Y-47670000D01*
X137937500Y-47670000D01*
X137960779Y-47671144D01*
G37*
G36*
X137960779Y-49421144D02*
G01*
X137983834Y-49424563D01*
X138006443Y-49430227D01*
X138028387Y-49438079D01*
X138049457Y-49448044D01*
X138069448Y-49460026D01*
X138088168Y-49473910D01*
X138105438Y-49489562D01*
X138121090Y-49506832D01*
X138134974Y-49525552D01*
X138146956Y-49545543D01*
X138156921Y-49566613D01*
X138164773Y-49588557D01*
X138170437Y-49611166D01*
X138173856Y-49634221D01*
X138175000Y-49657500D01*
X138175000Y-50232500D01*
X138173856Y-50255779D01*
X138170437Y-50278834D01*
X138164773Y-50301443D01*
X138156921Y-50323387D01*
X138146956Y-50344457D01*
X138134974Y-50364448D01*
X138121090Y-50383168D01*
X138105438Y-50400438D01*
X138088168Y-50416090D01*
X138069448Y-50429974D01*
X138049457Y-50441956D01*
X138028387Y-50451921D01*
X138006443Y-50459773D01*
X137983834Y-50465437D01*
X137960779Y-50468856D01*
X137937500Y-50470000D01*
X137462500Y-50470000D01*
X137439221Y-50468856D01*
X137416166Y-50465437D01*
X137393557Y-50459773D01*
X137371613Y-50451921D01*
X137350543Y-50441956D01*
X137330552Y-50429974D01*
X137311832Y-50416090D01*
X137294562Y-50400438D01*
X137278910Y-50383168D01*
X137265026Y-50364448D01*
X137253044Y-50344457D01*
X137243079Y-50323387D01*
X137235227Y-50301443D01*
X137229563Y-50278834D01*
X137226144Y-50255779D01*
X137225000Y-50232500D01*
X137225000Y-49657500D01*
X137226144Y-49634221D01*
X137229563Y-49611166D01*
X137235227Y-49588557D01*
X137243079Y-49566613D01*
X137253044Y-49545543D01*
X137265026Y-49525552D01*
X137278910Y-49506832D01*
X137294562Y-49489562D01*
X137311832Y-49473910D01*
X137330552Y-49460026D01*
X137350543Y-49448044D01*
X137371613Y-49438079D01*
X137393557Y-49430227D01*
X137416166Y-49424563D01*
X137439221Y-49421144D01*
X137462500Y-49420000D01*
X137937500Y-49420000D01*
X137960779Y-49421144D01*
G37*
G04 #@! TD*
G04 #@! TO.C,R22*
G36*
X140820779Y-47736144D02*
G01*
X140843834Y-47739563D01*
X140866443Y-47745227D01*
X140888387Y-47753079D01*
X140909457Y-47763044D01*
X140929448Y-47775026D01*
X140948168Y-47788910D01*
X140965438Y-47804562D01*
X140981090Y-47821832D01*
X140994974Y-47840552D01*
X141006956Y-47860543D01*
X141016921Y-47881613D01*
X141024773Y-47903557D01*
X141030437Y-47926166D01*
X141033856Y-47949221D01*
X141035000Y-47972500D01*
X141035000Y-48547500D01*
X141033856Y-48570779D01*
X141030437Y-48593834D01*
X141024773Y-48616443D01*
X141016921Y-48638387D01*
X141006956Y-48659457D01*
X140994974Y-48679448D01*
X140981090Y-48698168D01*
X140965438Y-48715438D01*
X140948168Y-48731090D01*
X140929448Y-48744974D01*
X140909457Y-48756956D01*
X140888387Y-48766921D01*
X140866443Y-48774773D01*
X140843834Y-48780437D01*
X140820779Y-48783856D01*
X140797500Y-48785000D01*
X140322500Y-48785000D01*
X140299221Y-48783856D01*
X140276166Y-48780437D01*
X140253557Y-48774773D01*
X140231613Y-48766921D01*
X140210543Y-48756956D01*
X140190552Y-48744974D01*
X140171832Y-48731090D01*
X140154562Y-48715438D01*
X140138910Y-48698168D01*
X140125026Y-48679448D01*
X140113044Y-48659457D01*
X140103079Y-48638387D01*
X140095227Y-48616443D01*
X140089563Y-48593834D01*
X140086144Y-48570779D01*
X140085000Y-48547500D01*
X140085000Y-47972500D01*
X140086144Y-47949221D01*
X140089563Y-47926166D01*
X140095227Y-47903557D01*
X140103079Y-47881613D01*
X140113044Y-47860543D01*
X140125026Y-47840552D01*
X140138910Y-47821832D01*
X140154562Y-47804562D01*
X140171832Y-47788910D01*
X140190552Y-47775026D01*
X140210543Y-47763044D01*
X140231613Y-47753079D01*
X140253557Y-47745227D01*
X140276166Y-47739563D01*
X140299221Y-47736144D01*
X140322500Y-47735000D01*
X140797500Y-47735000D01*
X140820779Y-47736144D01*
G37*
G36*
X140820779Y-49486144D02*
G01*
X140843834Y-49489563D01*
X140866443Y-49495227D01*
X140888387Y-49503079D01*
X140909457Y-49513044D01*
X140929448Y-49525026D01*
X140948168Y-49538910D01*
X140965438Y-49554562D01*
X140981090Y-49571832D01*
X140994974Y-49590552D01*
X141006956Y-49610543D01*
X141016921Y-49631613D01*
X141024773Y-49653557D01*
X141030437Y-49676166D01*
X141033856Y-49699221D01*
X141035000Y-49722500D01*
X141035000Y-50297500D01*
X141033856Y-50320779D01*
X141030437Y-50343834D01*
X141024773Y-50366443D01*
X141016921Y-50388387D01*
X141006956Y-50409457D01*
X140994974Y-50429448D01*
X140981090Y-50448168D01*
X140965438Y-50465438D01*
X140948168Y-50481090D01*
X140929448Y-50494974D01*
X140909457Y-50506956D01*
X140888387Y-50516921D01*
X140866443Y-50524773D01*
X140843834Y-50530437D01*
X140820779Y-50533856D01*
X140797500Y-50535000D01*
X140322500Y-50535000D01*
X140299221Y-50533856D01*
X140276166Y-50530437D01*
X140253557Y-50524773D01*
X140231613Y-50516921D01*
X140210543Y-50506956D01*
X140190552Y-50494974D01*
X140171832Y-50481090D01*
X140154562Y-50465438D01*
X140138910Y-50448168D01*
X140125026Y-50429448D01*
X140113044Y-50409457D01*
X140103079Y-50388387D01*
X140095227Y-50366443D01*
X140089563Y-50343834D01*
X140086144Y-50320779D01*
X140085000Y-50297500D01*
X140085000Y-49722500D01*
X140086144Y-49699221D01*
X140089563Y-49676166D01*
X140095227Y-49653557D01*
X140103079Y-49631613D01*
X140113044Y-49610543D01*
X140125026Y-49590552D01*
X140138910Y-49571832D01*
X140154562Y-49554562D01*
X140171832Y-49538910D01*
X140190552Y-49525026D01*
X140210543Y-49513044D01*
X140231613Y-49503079D01*
X140253557Y-49495227D01*
X140276166Y-49489563D01*
X140299221Y-49486144D01*
X140322500Y-49485000D01*
X140797500Y-49485000D01*
X140820779Y-49486144D01*
G37*
G04 #@! TD*
G04 #@! TO.C,R21*
G36*
X143550779Y-47766144D02*
G01*
X143573834Y-47769563D01*
X143596443Y-47775227D01*
X143618387Y-47783079D01*
X143639457Y-47793044D01*
X143659448Y-47805026D01*
X143678168Y-47818910D01*
X143695438Y-47834562D01*
X143711090Y-47851832D01*
X143724974Y-47870552D01*
X143736956Y-47890543D01*
X143746921Y-47911613D01*
X143754773Y-47933557D01*
X143760437Y-47956166D01*
X143763856Y-47979221D01*
X143765000Y-48002500D01*
X143765000Y-48577500D01*
X143763856Y-48600779D01*
X143760437Y-48623834D01*
X143754773Y-48646443D01*
X143746921Y-48668387D01*
X143736956Y-48689457D01*
X143724974Y-48709448D01*
X143711090Y-48728168D01*
X143695438Y-48745438D01*
X143678168Y-48761090D01*
X143659448Y-48774974D01*
X143639457Y-48786956D01*
X143618387Y-48796921D01*
X143596443Y-48804773D01*
X143573834Y-48810437D01*
X143550779Y-48813856D01*
X143527500Y-48815000D01*
X143052500Y-48815000D01*
X143029221Y-48813856D01*
X143006166Y-48810437D01*
X142983557Y-48804773D01*
X142961613Y-48796921D01*
X142940543Y-48786956D01*
X142920552Y-48774974D01*
X142901832Y-48761090D01*
X142884562Y-48745438D01*
X142868910Y-48728168D01*
X142855026Y-48709448D01*
X142843044Y-48689457D01*
X142833079Y-48668387D01*
X142825227Y-48646443D01*
X142819563Y-48623834D01*
X142816144Y-48600779D01*
X142815000Y-48577500D01*
X142815000Y-48002500D01*
X142816144Y-47979221D01*
X142819563Y-47956166D01*
X142825227Y-47933557D01*
X142833079Y-47911613D01*
X142843044Y-47890543D01*
X142855026Y-47870552D01*
X142868910Y-47851832D01*
X142884562Y-47834562D01*
X142901832Y-47818910D01*
X142920552Y-47805026D01*
X142940543Y-47793044D01*
X142961613Y-47783079D01*
X142983557Y-47775227D01*
X143006166Y-47769563D01*
X143029221Y-47766144D01*
X143052500Y-47765000D01*
X143527500Y-47765000D01*
X143550779Y-47766144D01*
G37*
G36*
X143550779Y-49516144D02*
G01*
X143573834Y-49519563D01*
X143596443Y-49525227D01*
X143618387Y-49533079D01*
X143639457Y-49543044D01*
X143659448Y-49555026D01*
X143678168Y-49568910D01*
X143695438Y-49584562D01*
X143711090Y-49601832D01*
X143724974Y-49620552D01*
X143736956Y-49640543D01*
X143746921Y-49661613D01*
X143754773Y-49683557D01*
X143760437Y-49706166D01*
X143763856Y-49729221D01*
X143765000Y-49752500D01*
X143765000Y-50327500D01*
X143763856Y-50350779D01*
X143760437Y-50373834D01*
X143754773Y-50396443D01*
X143746921Y-50418387D01*
X143736956Y-50439457D01*
X143724974Y-50459448D01*
X143711090Y-50478168D01*
X143695438Y-50495438D01*
X143678168Y-50511090D01*
X143659448Y-50524974D01*
X143639457Y-50536956D01*
X143618387Y-50546921D01*
X143596443Y-50554773D01*
X143573834Y-50560437D01*
X143550779Y-50563856D01*
X143527500Y-50565000D01*
X143052500Y-50565000D01*
X143029221Y-50563856D01*
X143006166Y-50560437D01*
X142983557Y-50554773D01*
X142961613Y-50546921D01*
X142940543Y-50536956D01*
X142920552Y-50524974D01*
X142901832Y-50511090D01*
X142884562Y-50495438D01*
X142868910Y-50478168D01*
X142855026Y-50459448D01*
X142843044Y-50439457D01*
X142833079Y-50418387D01*
X142825227Y-50396443D01*
X142819563Y-50373834D01*
X142816144Y-50350779D01*
X142815000Y-50327500D01*
X142815000Y-49752500D01*
X142816144Y-49729221D01*
X142819563Y-49706166D01*
X142825227Y-49683557D01*
X142833079Y-49661613D01*
X142843044Y-49640543D01*
X142855026Y-49620552D01*
X142868910Y-49601832D01*
X142884562Y-49584562D01*
X142901832Y-49568910D01*
X142920552Y-49555026D01*
X142940543Y-49543044D01*
X142961613Y-49533079D01*
X142983557Y-49525227D01*
X143006166Y-49519563D01*
X143029221Y-49516144D01*
X143052500Y-49515000D01*
X143527500Y-49515000D01*
X143550779Y-49516144D01*
G37*
G04 #@! TD*
G04 #@! TO.C,R20*
G36*
X146340779Y-47856144D02*
G01*
X146363834Y-47859563D01*
X146386443Y-47865227D01*
X146408387Y-47873079D01*
X146429457Y-47883044D01*
X146449448Y-47895026D01*
X146468168Y-47908910D01*
X146485438Y-47924562D01*
X146501090Y-47941832D01*
X146514974Y-47960552D01*
X146526956Y-47980543D01*
X146536921Y-48001613D01*
X146544773Y-48023557D01*
X146550437Y-48046166D01*
X146553856Y-48069221D01*
X146555000Y-48092500D01*
X146555000Y-48667500D01*
X146553856Y-48690779D01*
X146550437Y-48713834D01*
X146544773Y-48736443D01*
X146536921Y-48758387D01*
X146526956Y-48779457D01*
X146514974Y-48799448D01*
X146501090Y-48818168D01*
X146485438Y-48835438D01*
X146468168Y-48851090D01*
X146449448Y-48864974D01*
X146429457Y-48876956D01*
X146408387Y-48886921D01*
X146386443Y-48894773D01*
X146363834Y-48900437D01*
X146340779Y-48903856D01*
X146317500Y-48905000D01*
X145842500Y-48905000D01*
X145819221Y-48903856D01*
X145796166Y-48900437D01*
X145773557Y-48894773D01*
X145751613Y-48886921D01*
X145730543Y-48876956D01*
X145710552Y-48864974D01*
X145691832Y-48851090D01*
X145674562Y-48835438D01*
X145658910Y-48818168D01*
X145645026Y-48799448D01*
X145633044Y-48779457D01*
X145623079Y-48758387D01*
X145615227Y-48736443D01*
X145609563Y-48713834D01*
X145606144Y-48690779D01*
X145605000Y-48667500D01*
X145605000Y-48092500D01*
X145606144Y-48069221D01*
X145609563Y-48046166D01*
X145615227Y-48023557D01*
X145623079Y-48001613D01*
X145633044Y-47980543D01*
X145645026Y-47960552D01*
X145658910Y-47941832D01*
X145674562Y-47924562D01*
X145691832Y-47908910D01*
X145710552Y-47895026D01*
X145730543Y-47883044D01*
X145751613Y-47873079D01*
X145773557Y-47865227D01*
X145796166Y-47859563D01*
X145819221Y-47856144D01*
X145842500Y-47855000D01*
X146317500Y-47855000D01*
X146340779Y-47856144D01*
G37*
G36*
X146340779Y-49606144D02*
G01*
X146363834Y-49609563D01*
X146386443Y-49615227D01*
X146408387Y-49623079D01*
X146429457Y-49633044D01*
X146449448Y-49645026D01*
X146468168Y-49658910D01*
X146485438Y-49674562D01*
X146501090Y-49691832D01*
X146514974Y-49710552D01*
X146526956Y-49730543D01*
X146536921Y-49751613D01*
X146544773Y-49773557D01*
X146550437Y-49796166D01*
X146553856Y-49819221D01*
X146555000Y-49842500D01*
X146555000Y-50417500D01*
X146553856Y-50440779D01*
X146550437Y-50463834D01*
X146544773Y-50486443D01*
X146536921Y-50508387D01*
X146526956Y-50529457D01*
X146514974Y-50549448D01*
X146501090Y-50568168D01*
X146485438Y-50585438D01*
X146468168Y-50601090D01*
X146449448Y-50614974D01*
X146429457Y-50626956D01*
X146408387Y-50636921D01*
X146386443Y-50644773D01*
X146363834Y-50650437D01*
X146340779Y-50653856D01*
X146317500Y-50655000D01*
X145842500Y-50655000D01*
X145819221Y-50653856D01*
X145796166Y-50650437D01*
X145773557Y-50644773D01*
X145751613Y-50636921D01*
X145730543Y-50626956D01*
X145710552Y-50614974D01*
X145691832Y-50601090D01*
X145674562Y-50585438D01*
X145658910Y-50568168D01*
X145645026Y-50549448D01*
X145633044Y-50529457D01*
X145623079Y-50508387D01*
X145615227Y-50486443D01*
X145609563Y-50463834D01*
X145606144Y-50440779D01*
X145605000Y-50417500D01*
X145605000Y-49842500D01*
X145606144Y-49819221D01*
X145609563Y-49796166D01*
X145615227Y-49773557D01*
X145623079Y-49751613D01*
X145633044Y-49730543D01*
X145645026Y-49710552D01*
X145658910Y-49691832D01*
X145674562Y-49674562D01*
X145691832Y-49658910D01*
X145710552Y-49645026D01*
X145730543Y-49633044D01*
X145751613Y-49623079D01*
X145773557Y-49615227D01*
X145796166Y-49609563D01*
X145819221Y-49606144D01*
X145842500Y-49605000D01*
X146317500Y-49605000D01*
X146340779Y-49606144D01*
G37*
G04 #@! TD*
G04 #@! TO.C,R19*
G36*
X149210779Y-47846144D02*
G01*
X149233834Y-47849563D01*
X149256443Y-47855227D01*
X149278387Y-47863079D01*
X149299457Y-47873044D01*
X149319448Y-47885026D01*
X149338168Y-47898910D01*
X149355438Y-47914562D01*
X149371090Y-47931832D01*
X149384974Y-47950552D01*
X149396956Y-47970543D01*
X149406921Y-47991613D01*
X149414773Y-48013557D01*
X149420437Y-48036166D01*
X149423856Y-48059221D01*
X149425000Y-48082500D01*
X149425000Y-48657500D01*
X149423856Y-48680779D01*
X149420437Y-48703834D01*
X149414773Y-48726443D01*
X149406921Y-48748387D01*
X149396956Y-48769457D01*
X149384974Y-48789448D01*
X149371090Y-48808168D01*
X149355438Y-48825438D01*
X149338168Y-48841090D01*
X149319448Y-48854974D01*
X149299457Y-48866956D01*
X149278387Y-48876921D01*
X149256443Y-48884773D01*
X149233834Y-48890437D01*
X149210779Y-48893856D01*
X149187500Y-48895000D01*
X148712500Y-48895000D01*
X148689221Y-48893856D01*
X148666166Y-48890437D01*
X148643557Y-48884773D01*
X148621613Y-48876921D01*
X148600543Y-48866956D01*
X148580552Y-48854974D01*
X148561832Y-48841090D01*
X148544562Y-48825438D01*
X148528910Y-48808168D01*
X148515026Y-48789448D01*
X148503044Y-48769457D01*
X148493079Y-48748387D01*
X148485227Y-48726443D01*
X148479563Y-48703834D01*
X148476144Y-48680779D01*
X148475000Y-48657500D01*
X148475000Y-48082500D01*
X148476144Y-48059221D01*
X148479563Y-48036166D01*
X148485227Y-48013557D01*
X148493079Y-47991613D01*
X148503044Y-47970543D01*
X148515026Y-47950552D01*
X148528910Y-47931832D01*
X148544562Y-47914562D01*
X148561832Y-47898910D01*
X148580552Y-47885026D01*
X148600543Y-47873044D01*
X148621613Y-47863079D01*
X148643557Y-47855227D01*
X148666166Y-47849563D01*
X148689221Y-47846144D01*
X148712500Y-47845000D01*
X149187500Y-47845000D01*
X149210779Y-47846144D01*
G37*
G36*
X149210779Y-49596144D02*
G01*
X149233834Y-49599563D01*
X149256443Y-49605227D01*
X149278387Y-49613079D01*
X149299457Y-49623044D01*
X149319448Y-49635026D01*
X149338168Y-49648910D01*
X149355438Y-49664562D01*
X149371090Y-49681832D01*
X149384974Y-49700552D01*
X149396956Y-49720543D01*
X149406921Y-49741613D01*
X149414773Y-49763557D01*
X149420437Y-49786166D01*
X149423856Y-49809221D01*
X149425000Y-49832500D01*
X149425000Y-50407500D01*
X149423856Y-50430779D01*
X149420437Y-50453834D01*
X149414773Y-50476443D01*
X149406921Y-50498387D01*
X149396956Y-50519457D01*
X149384974Y-50539448D01*
X149371090Y-50558168D01*
X149355438Y-50575438D01*
X149338168Y-50591090D01*
X149319448Y-50604974D01*
X149299457Y-50616956D01*
X149278387Y-50626921D01*
X149256443Y-50634773D01*
X149233834Y-50640437D01*
X149210779Y-50643856D01*
X149187500Y-50645000D01*
X148712500Y-50645000D01*
X148689221Y-50643856D01*
X148666166Y-50640437D01*
X148643557Y-50634773D01*
X148621613Y-50626921D01*
X148600543Y-50616956D01*
X148580552Y-50604974D01*
X148561832Y-50591090D01*
X148544562Y-50575438D01*
X148528910Y-50558168D01*
X148515026Y-50539448D01*
X148503044Y-50519457D01*
X148493079Y-50498387D01*
X148485227Y-50476443D01*
X148479563Y-50453834D01*
X148476144Y-50430779D01*
X148475000Y-50407500D01*
X148475000Y-49832500D01*
X148476144Y-49809221D01*
X148479563Y-49786166D01*
X148485227Y-49763557D01*
X148493079Y-49741613D01*
X148503044Y-49720543D01*
X148515026Y-49700552D01*
X148528910Y-49681832D01*
X148544562Y-49664562D01*
X148561832Y-49648910D01*
X148580552Y-49635026D01*
X148600543Y-49623044D01*
X148621613Y-49613079D01*
X148643557Y-49605227D01*
X148666166Y-49599563D01*
X148689221Y-49596144D01*
X148712500Y-49595000D01*
X149187500Y-49595000D01*
X149210779Y-49596144D01*
G37*
G04 #@! TD*
G04 #@! TO.C,R18*
G36*
X152000779Y-47796144D02*
G01*
X152023834Y-47799563D01*
X152046443Y-47805227D01*
X152068387Y-47813079D01*
X152089457Y-47823044D01*
X152109448Y-47835026D01*
X152128168Y-47848910D01*
X152145438Y-47864562D01*
X152161090Y-47881832D01*
X152174974Y-47900552D01*
X152186956Y-47920543D01*
X152196921Y-47941613D01*
X152204773Y-47963557D01*
X152210437Y-47986166D01*
X152213856Y-48009221D01*
X152215000Y-48032500D01*
X152215000Y-48607500D01*
X152213856Y-48630779D01*
X152210437Y-48653834D01*
X152204773Y-48676443D01*
X152196921Y-48698387D01*
X152186956Y-48719457D01*
X152174974Y-48739448D01*
X152161090Y-48758168D01*
X152145438Y-48775438D01*
X152128168Y-48791090D01*
X152109448Y-48804974D01*
X152089457Y-48816956D01*
X152068387Y-48826921D01*
X152046443Y-48834773D01*
X152023834Y-48840437D01*
X152000779Y-48843856D01*
X151977500Y-48845000D01*
X151502500Y-48845000D01*
X151479221Y-48843856D01*
X151456166Y-48840437D01*
X151433557Y-48834773D01*
X151411613Y-48826921D01*
X151390543Y-48816956D01*
X151370552Y-48804974D01*
X151351832Y-48791090D01*
X151334562Y-48775438D01*
X151318910Y-48758168D01*
X151305026Y-48739448D01*
X151293044Y-48719457D01*
X151283079Y-48698387D01*
X151275227Y-48676443D01*
X151269563Y-48653834D01*
X151266144Y-48630779D01*
X151265000Y-48607500D01*
X151265000Y-48032500D01*
X151266144Y-48009221D01*
X151269563Y-47986166D01*
X151275227Y-47963557D01*
X151283079Y-47941613D01*
X151293044Y-47920543D01*
X151305026Y-47900552D01*
X151318910Y-47881832D01*
X151334562Y-47864562D01*
X151351832Y-47848910D01*
X151370552Y-47835026D01*
X151390543Y-47823044D01*
X151411613Y-47813079D01*
X151433557Y-47805227D01*
X151456166Y-47799563D01*
X151479221Y-47796144D01*
X151502500Y-47795000D01*
X151977500Y-47795000D01*
X152000779Y-47796144D01*
G37*
G36*
X152000779Y-49546144D02*
G01*
X152023834Y-49549563D01*
X152046443Y-49555227D01*
X152068387Y-49563079D01*
X152089457Y-49573044D01*
X152109448Y-49585026D01*
X152128168Y-49598910D01*
X152145438Y-49614562D01*
X152161090Y-49631832D01*
X152174974Y-49650552D01*
X152186956Y-49670543D01*
X152196921Y-49691613D01*
X152204773Y-49713557D01*
X152210437Y-49736166D01*
X152213856Y-49759221D01*
X152215000Y-49782500D01*
X152215000Y-50357500D01*
X152213856Y-50380779D01*
X152210437Y-50403834D01*
X152204773Y-50426443D01*
X152196921Y-50448387D01*
X152186956Y-50469457D01*
X152174974Y-50489448D01*
X152161090Y-50508168D01*
X152145438Y-50525438D01*
X152128168Y-50541090D01*
X152109448Y-50554974D01*
X152089457Y-50566956D01*
X152068387Y-50576921D01*
X152046443Y-50584773D01*
X152023834Y-50590437D01*
X152000779Y-50593856D01*
X151977500Y-50595000D01*
X151502500Y-50595000D01*
X151479221Y-50593856D01*
X151456166Y-50590437D01*
X151433557Y-50584773D01*
X151411613Y-50576921D01*
X151390543Y-50566956D01*
X151370552Y-50554974D01*
X151351832Y-50541090D01*
X151334562Y-50525438D01*
X151318910Y-50508168D01*
X151305026Y-50489448D01*
X151293044Y-50469457D01*
X151283079Y-50448387D01*
X151275227Y-50426443D01*
X151269563Y-50403834D01*
X151266144Y-50380779D01*
X151265000Y-50357500D01*
X151265000Y-49782500D01*
X151266144Y-49759221D01*
X151269563Y-49736166D01*
X151275227Y-49713557D01*
X151283079Y-49691613D01*
X151293044Y-49670543D01*
X151305026Y-49650552D01*
X151318910Y-49631832D01*
X151334562Y-49614562D01*
X151351832Y-49598910D01*
X151370552Y-49585026D01*
X151390543Y-49573044D01*
X151411613Y-49563079D01*
X151433557Y-49555227D01*
X151456166Y-49549563D01*
X151479221Y-49546144D01*
X151502500Y-49545000D01*
X151977500Y-49545000D01*
X152000779Y-49546144D01*
G37*
G04 #@! TD*
G04 #@! TO.C,R17*
G36*
X154780779Y-47781144D02*
G01*
X154803834Y-47784563D01*
X154826443Y-47790227D01*
X154848387Y-47798079D01*
X154869457Y-47808044D01*
X154889448Y-47820026D01*
X154908168Y-47833910D01*
X154925438Y-47849562D01*
X154941090Y-47866832D01*
X154954974Y-47885552D01*
X154966956Y-47905543D01*
X154976921Y-47926613D01*
X154984773Y-47948557D01*
X154990437Y-47971166D01*
X154993856Y-47994221D01*
X154995000Y-48017500D01*
X154995000Y-48592500D01*
X154993856Y-48615779D01*
X154990437Y-48638834D01*
X154984773Y-48661443D01*
X154976921Y-48683387D01*
X154966956Y-48704457D01*
X154954974Y-48724448D01*
X154941090Y-48743168D01*
X154925438Y-48760438D01*
X154908168Y-48776090D01*
X154889448Y-48789974D01*
X154869457Y-48801956D01*
X154848387Y-48811921D01*
X154826443Y-48819773D01*
X154803834Y-48825437D01*
X154780779Y-48828856D01*
X154757500Y-48830000D01*
X154282500Y-48830000D01*
X154259221Y-48828856D01*
X154236166Y-48825437D01*
X154213557Y-48819773D01*
X154191613Y-48811921D01*
X154170543Y-48801956D01*
X154150552Y-48789974D01*
X154131832Y-48776090D01*
X154114562Y-48760438D01*
X154098910Y-48743168D01*
X154085026Y-48724448D01*
X154073044Y-48704457D01*
X154063079Y-48683387D01*
X154055227Y-48661443D01*
X154049563Y-48638834D01*
X154046144Y-48615779D01*
X154045000Y-48592500D01*
X154045000Y-48017500D01*
X154046144Y-47994221D01*
X154049563Y-47971166D01*
X154055227Y-47948557D01*
X154063079Y-47926613D01*
X154073044Y-47905543D01*
X154085026Y-47885552D01*
X154098910Y-47866832D01*
X154114562Y-47849562D01*
X154131832Y-47833910D01*
X154150552Y-47820026D01*
X154170543Y-47808044D01*
X154191613Y-47798079D01*
X154213557Y-47790227D01*
X154236166Y-47784563D01*
X154259221Y-47781144D01*
X154282500Y-47780000D01*
X154757500Y-47780000D01*
X154780779Y-47781144D01*
G37*
G36*
X154780779Y-49531144D02*
G01*
X154803834Y-49534563D01*
X154826443Y-49540227D01*
X154848387Y-49548079D01*
X154869457Y-49558044D01*
X154889448Y-49570026D01*
X154908168Y-49583910D01*
X154925438Y-49599562D01*
X154941090Y-49616832D01*
X154954974Y-49635552D01*
X154966956Y-49655543D01*
X154976921Y-49676613D01*
X154984773Y-49698557D01*
X154990437Y-49721166D01*
X154993856Y-49744221D01*
X154995000Y-49767500D01*
X154995000Y-50342500D01*
X154993856Y-50365779D01*
X154990437Y-50388834D01*
X154984773Y-50411443D01*
X154976921Y-50433387D01*
X154966956Y-50454457D01*
X154954974Y-50474448D01*
X154941090Y-50493168D01*
X154925438Y-50510438D01*
X154908168Y-50526090D01*
X154889448Y-50539974D01*
X154869457Y-50551956D01*
X154848387Y-50561921D01*
X154826443Y-50569773D01*
X154803834Y-50575437D01*
X154780779Y-50578856D01*
X154757500Y-50580000D01*
X154282500Y-50580000D01*
X154259221Y-50578856D01*
X154236166Y-50575437D01*
X154213557Y-50569773D01*
X154191613Y-50561921D01*
X154170543Y-50551956D01*
X154150552Y-50539974D01*
X154131832Y-50526090D01*
X154114562Y-50510438D01*
X154098910Y-50493168D01*
X154085026Y-50474448D01*
X154073044Y-50454457D01*
X154063079Y-50433387D01*
X154055227Y-50411443D01*
X154049563Y-50388834D01*
X154046144Y-50365779D01*
X154045000Y-50342500D01*
X154045000Y-49767500D01*
X154046144Y-49744221D01*
X154049563Y-49721166D01*
X154055227Y-49698557D01*
X154063079Y-49676613D01*
X154073044Y-49655543D01*
X154085026Y-49635552D01*
X154098910Y-49616832D01*
X154114562Y-49599562D01*
X154131832Y-49583910D01*
X154150552Y-49570026D01*
X154170543Y-49558044D01*
X154191613Y-49548079D01*
X154213557Y-49540227D01*
X154236166Y-49534563D01*
X154259221Y-49531144D01*
X154282500Y-49530000D01*
X154757500Y-49530000D01*
X154780779Y-49531144D01*
G37*
G04 #@! TD*
G04 #@! TO.C,R16*
G36*
X157460779Y-47771144D02*
G01*
X157483834Y-47774563D01*
X157506443Y-47780227D01*
X157528387Y-47788079D01*
X157549457Y-47798044D01*
X157569448Y-47810026D01*
X157588168Y-47823910D01*
X157605438Y-47839562D01*
X157621090Y-47856832D01*
X157634974Y-47875552D01*
X157646956Y-47895543D01*
X157656921Y-47916613D01*
X157664773Y-47938557D01*
X157670437Y-47961166D01*
X157673856Y-47984221D01*
X157675000Y-48007500D01*
X157675000Y-48582500D01*
X157673856Y-48605779D01*
X157670437Y-48628834D01*
X157664773Y-48651443D01*
X157656921Y-48673387D01*
X157646956Y-48694457D01*
X157634974Y-48714448D01*
X157621090Y-48733168D01*
X157605438Y-48750438D01*
X157588168Y-48766090D01*
X157569448Y-48779974D01*
X157549457Y-48791956D01*
X157528387Y-48801921D01*
X157506443Y-48809773D01*
X157483834Y-48815437D01*
X157460779Y-48818856D01*
X157437500Y-48820000D01*
X156962500Y-48820000D01*
X156939221Y-48818856D01*
X156916166Y-48815437D01*
X156893557Y-48809773D01*
X156871613Y-48801921D01*
X156850543Y-48791956D01*
X156830552Y-48779974D01*
X156811832Y-48766090D01*
X156794562Y-48750438D01*
X156778910Y-48733168D01*
X156765026Y-48714448D01*
X156753044Y-48694457D01*
X156743079Y-48673387D01*
X156735227Y-48651443D01*
X156729563Y-48628834D01*
X156726144Y-48605779D01*
X156725000Y-48582500D01*
X156725000Y-48007500D01*
X156726144Y-47984221D01*
X156729563Y-47961166D01*
X156735227Y-47938557D01*
X156743079Y-47916613D01*
X156753044Y-47895543D01*
X156765026Y-47875552D01*
X156778910Y-47856832D01*
X156794562Y-47839562D01*
X156811832Y-47823910D01*
X156830552Y-47810026D01*
X156850543Y-47798044D01*
X156871613Y-47788079D01*
X156893557Y-47780227D01*
X156916166Y-47774563D01*
X156939221Y-47771144D01*
X156962500Y-47770000D01*
X157437500Y-47770000D01*
X157460779Y-47771144D01*
G37*
G36*
X157460779Y-49521144D02*
G01*
X157483834Y-49524563D01*
X157506443Y-49530227D01*
X157528387Y-49538079D01*
X157549457Y-49548044D01*
X157569448Y-49560026D01*
X157588168Y-49573910D01*
X157605438Y-49589562D01*
X157621090Y-49606832D01*
X157634974Y-49625552D01*
X157646956Y-49645543D01*
X157656921Y-49666613D01*
X157664773Y-49688557D01*
X157670437Y-49711166D01*
X157673856Y-49734221D01*
X157675000Y-49757500D01*
X157675000Y-50332500D01*
X157673856Y-50355779D01*
X157670437Y-50378834D01*
X157664773Y-50401443D01*
X157656921Y-50423387D01*
X157646956Y-50444457D01*
X157634974Y-50464448D01*
X157621090Y-50483168D01*
X157605438Y-50500438D01*
X157588168Y-50516090D01*
X157569448Y-50529974D01*
X157549457Y-50541956D01*
X157528387Y-50551921D01*
X157506443Y-50559773D01*
X157483834Y-50565437D01*
X157460779Y-50568856D01*
X157437500Y-50570000D01*
X156962500Y-50570000D01*
X156939221Y-50568856D01*
X156916166Y-50565437D01*
X156893557Y-50559773D01*
X156871613Y-50551921D01*
X156850543Y-50541956D01*
X156830552Y-50529974D01*
X156811832Y-50516090D01*
X156794562Y-50500438D01*
X156778910Y-50483168D01*
X156765026Y-50464448D01*
X156753044Y-50444457D01*
X156743079Y-50423387D01*
X156735227Y-50401443D01*
X156729563Y-50378834D01*
X156726144Y-50355779D01*
X156725000Y-50332500D01*
X156725000Y-49757500D01*
X156726144Y-49734221D01*
X156729563Y-49711166D01*
X156735227Y-49688557D01*
X156743079Y-49666613D01*
X156753044Y-49645543D01*
X156765026Y-49625552D01*
X156778910Y-49606832D01*
X156794562Y-49589562D01*
X156811832Y-49573910D01*
X156830552Y-49560026D01*
X156850543Y-49548044D01*
X156871613Y-49538079D01*
X156893557Y-49530227D01*
X156916166Y-49524563D01*
X156939221Y-49521144D01*
X156962500Y-49520000D01*
X157437500Y-49520000D01*
X157460779Y-49521144D01*
G37*
G04 #@! TD*
G04 #@! TO.C,R15*
G36*
X160370779Y-45621144D02*
G01*
X160393834Y-45624563D01*
X160416443Y-45630227D01*
X160438387Y-45638079D01*
X160459457Y-45648044D01*
X160479448Y-45660026D01*
X160498168Y-45673910D01*
X160515438Y-45689562D01*
X160531090Y-45706832D01*
X160544974Y-45725552D01*
X160556956Y-45745543D01*
X160566921Y-45766613D01*
X160574773Y-45788557D01*
X160580437Y-45811166D01*
X160583856Y-45834221D01*
X160585000Y-45857500D01*
X160585000Y-46432500D01*
X160583856Y-46455779D01*
X160580437Y-46478834D01*
X160574773Y-46501443D01*
X160566921Y-46523387D01*
X160556956Y-46544457D01*
X160544974Y-46564448D01*
X160531090Y-46583168D01*
X160515438Y-46600438D01*
X160498168Y-46616090D01*
X160479448Y-46629974D01*
X160459457Y-46641956D01*
X160438387Y-46651921D01*
X160416443Y-46659773D01*
X160393834Y-46665437D01*
X160370779Y-46668856D01*
X160347500Y-46670000D01*
X159872500Y-46670000D01*
X159849221Y-46668856D01*
X159826166Y-46665437D01*
X159803557Y-46659773D01*
X159781613Y-46651921D01*
X159760543Y-46641956D01*
X159740552Y-46629974D01*
X159721832Y-46616090D01*
X159704562Y-46600438D01*
X159688910Y-46583168D01*
X159675026Y-46564448D01*
X159663044Y-46544457D01*
X159653079Y-46523387D01*
X159645227Y-46501443D01*
X159639563Y-46478834D01*
X159636144Y-46455779D01*
X159635000Y-46432500D01*
X159635000Y-45857500D01*
X159636144Y-45834221D01*
X159639563Y-45811166D01*
X159645227Y-45788557D01*
X159653079Y-45766613D01*
X159663044Y-45745543D01*
X159675026Y-45725552D01*
X159688910Y-45706832D01*
X159704562Y-45689562D01*
X159721832Y-45673910D01*
X159740552Y-45660026D01*
X159760543Y-45648044D01*
X159781613Y-45638079D01*
X159803557Y-45630227D01*
X159826166Y-45624563D01*
X159849221Y-45621144D01*
X159872500Y-45620000D01*
X160347500Y-45620000D01*
X160370779Y-45621144D01*
G37*
G36*
X160370779Y-47371144D02*
G01*
X160393834Y-47374563D01*
X160416443Y-47380227D01*
X160438387Y-47388079D01*
X160459457Y-47398044D01*
X160479448Y-47410026D01*
X160498168Y-47423910D01*
X160515438Y-47439562D01*
X160531090Y-47456832D01*
X160544974Y-47475552D01*
X160556956Y-47495543D01*
X160566921Y-47516613D01*
X160574773Y-47538557D01*
X160580437Y-47561166D01*
X160583856Y-47584221D01*
X160585000Y-47607500D01*
X160585000Y-48182500D01*
X160583856Y-48205779D01*
X160580437Y-48228834D01*
X160574773Y-48251443D01*
X160566921Y-48273387D01*
X160556956Y-48294457D01*
X160544974Y-48314448D01*
X160531090Y-48333168D01*
X160515438Y-48350438D01*
X160498168Y-48366090D01*
X160479448Y-48379974D01*
X160459457Y-48391956D01*
X160438387Y-48401921D01*
X160416443Y-48409773D01*
X160393834Y-48415437D01*
X160370779Y-48418856D01*
X160347500Y-48420000D01*
X159872500Y-48420000D01*
X159849221Y-48418856D01*
X159826166Y-48415437D01*
X159803557Y-48409773D01*
X159781613Y-48401921D01*
X159760543Y-48391956D01*
X159740552Y-48379974D01*
X159721832Y-48366090D01*
X159704562Y-48350438D01*
X159688910Y-48333168D01*
X159675026Y-48314448D01*
X159663044Y-48294457D01*
X159653079Y-48273387D01*
X159645227Y-48251443D01*
X159639563Y-48228834D01*
X159636144Y-48205779D01*
X159635000Y-48182500D01*
X159635000Y-47607500D01*
X159636144Y-47584221D01*
X159639563Y-47561166D01*
X159645227Y-47538557D01*
X159653079Y-47516613D01*
X159663044Y-47495543D01*
X159675026Y-47475552D01*
X159688910Y-47456832D01*
X159704562Y-47439562D01*
X159721832Y-47423910D01*
X159740552Y-47410026D01*
X159760543Y-47398044D01*
X159781613Y-47388079D01*
X159803557Y-47380227D01*
X159826166Y-47374563D01*
X159849221Y-47371144D01*
X159872500Y-47370000D01*
X160347500Y-47370000D01*
X160370779Y-47371144D01*
G37*
G04 #@! TD*
G04 #@! TO.C,R14*
G36*
X163100779Y-47736144D02*
G01*
X163123834Y-47739563D01*
X163146443Y-47745227D01*
X163168387Y-47753079D01*
X163189457Y-47763044D01*
X163209448Y-47775026D01*
X163228168Y-47788910D01*
X163245438Y-47804562D01*
X163261090Y-47821832D01*
X163274974Y-47840552D01*
X163286956Y-47860543D01*
X163296921Y-47881613D01*
X163304773Y-47903557D01*
X163310437Y-47926166D01*
X163313856Y-47949221D01*
X163315000Y-47972500D01*
X163315000Y-48547500D01*
X163313856Y-48570779D01*
X163310437Y-48593834D01*
X163304773Y-48616443D01*
X163296921Y-48638387D01*
X163286956Y-48659457D01*
X163274974Y-48679448D01*
X163261090Y-48698168D01*
X163245438Y-48715438D01*
X163228168Y-48731090D01*
X163209448Y-48744974D01*
X163189457Y-48756956D01*
X163168387Y-48766921D01*
X163146443Y-48774773D01*
X163123834Y-48780437D01*
X163100779Y-48783856D01*
X163077500Y-48785000D01*
X162602500Y-48785000D01*
X162579221Y-48783856D01*
X162556166Y-48780437D01*
X162533557Y-48774773D01*
X162511613Y-48766921D01*
X162490543Y-48756956D01*
X162470552Y-48744974D01*
X162451832Y-48731090D01*
X162434562Y-48715438D01*
X162418910Y-48698168D01*
X162405026Y-48679448D01*
X162393044Y-48659457D01*
X162383079Y-48638387D01*
X162375227Y-48616443D01*
X162369563Y-48593834D01*
X162366144Y-48570779D01*
X162365000Y-48547500D01*
X162365000Y-47972500D01*
X162366144Y-47949221D01*
X162369563Y-47926166D01*
X162375227Y-47903557D01*
X162383079Y-47881613D01*
X162393044Y-47860543D01*
X162405026Y-47840552D01*
X162418910Y-47821832D01*
X162434562Y-47804562D01*
X162451832Y-47788910D01*
X162470552Y-47775026D01*
X162490543Y-47763044D01*
X162511613Y-47753079D01*
X162533557Y-47745227D01*
X162556166Y-47739563D01*
X162579221Y-47736144D01*
X162602500Y-47735000D01*
X163077500Y-47735000D01*
X163100779Y-47736144D01*
G37*
G36*
X163100779Y-49486144D02*
G01*
X163123834Y-49489563D01*
X163146443Y-49495227D01*
X163168387Y-49503079D01*
X163189457Y-49513044D01*
X163209448Y-49525026D01*
X163228168Y-49538910D01*
X163245438Y-49554562D01*
X163261090Y-49571832D01*
X163274974Y-49590552D01*
X163286956Y-49610543D01*
X163296921Y-49631613D01*
X163304773Y-49653557D01*
X163310437Y-49676166D01*
X163313856Y-49699221D01*
X163315000Y-49722500D01*
X163315000Y-50297500D01*
X163313856Y-50320779D01*
X163310437Y-50343834D01*
X163304773Y-50366443D01*
X163296921Y-50388387D01*
X163286956Y-50409457D01*
X163274974Y-50429448D01*
X163261090Y-50448168D01*
X163245438Y-50465438D01*
X163228168Y-50481090D01*
X163209448Y-50494974D01*
X163189457Y-50506956D01*
X163168387Y-50516921D01*
X163146443Y-50524773D01*
X163123834Y-50530437D01*
X163100779Y-50533856D01*
X163077500Y-50535000D01*
X162602500Y-50535000D01*
X162579221Y-50533856D01*
X162556166Y-50530437D01*
X162533557Y-50524773D01*
X162511613Y-50516921D01*
X162490543Y-50506956D01*
X162470552Y-50494974D01*
X162451832Y-50481090D01*
X162434562Y-50465438D01*
X162418910Y-50448168D01*
X162405026Y-50429448D01*
X162393044Y-50409457D01*
X162383079Y-50388387D01*
X162375227Y-50366443D01*
X162369563Y-50343834D01*
X162366144Y-50320779D01*
X162365000Y-50297500D01*
X162365000Y-49722500D01*
X162366144Y-49699221D01*
X162369563Y-49676166D01*
X162375227Y-49653557D01*
X162383079Y-49631613D01*
X162393044Y-49610543D01*
X162405026Y-49590552D01*
X162418910Y-49571832D01*
X162434562Y-49554562D01*
X162451832Y-49538910D01*
X162470552Y-49525026D01*
X162490543Y-49513044D01*
X162511613Y-49503079D01*
X162533557Y-49495227D01*
X162556166Y-49489563D01*
X162579221Y-49486144D01*
X162602500Y-49485000D01*
X163077500Y-49485000D01*
X163100779Y-49486144D01*
G37*
G04 #@! TD*
G04 #@! TO.C,R13*
G36*
X132620779Y-40851144D02*
G01*
X132643834Y-40854563D01*
X132666443Y-40860227D01*
X132688387Y-40868079D01*
X132709457Y-40878044D01*
X132729448Y-40890026D01*
X132748168Y-40903910D01*
X132765438Y-40919562D01*
X132781090Y-40936832D01*
X132794974Y-40955552D01*
X132806956Y-40975543D01*
X132816921Y-40996613D01*
X132824773Y-41018557D01*
X132830437Y-41041166D01*
X132833856Y-41064221D01*
X132835000Y-41087500D01*
X132835000Y-41662500D01*
X132833856Y-41685779D01*
X132830437Y-41708834D01*
X132824773Y-41731443D01*
X132816921Y-41753387D01*
X132806956Y-41774457D01*
X132794974Y-41794448D01*
X132781090Y-41813168D01*
X132765438Y-41830438D01*
X132748168Y-41846090D01*
X132729448Y-41859974D01*
X132709457Y-41871956D01*
X132688387Y-41881921D01*
X132666443Y-41889773D01*
X132643834Y-41895437D01*
X132620779Y-41898856D01*
X132597500Y-41900000D01*
X132122500Y-41900000D01*
X132099221Y-41898856D01*
X132076166Y-41895437D01*
X132053557Y-41889773D01*
X132031613Y-41881921D01*
X132010543Y-41871956D01*
X131990552Y-41859974D01*
X131971832Y-41846090D01*
X131954562Y-41830438D01*
X131938910Y-41813168D01*
X131925026Y-41794448D01*
X131913044Y-41774457D01*
X131903079Y-41753387D01*
X131895227Y-41731443D01*
X131889563Y-41708834D01*
X131886144Y-41685779D01*
X131885000Y-41662500D01*
X131885000Y-41087500D01*
X131886144Y-41064221D01*
X131889563Y-41041166D01*
X131895227Y-41018557D01*
X131903079Y-40996613D01*
X131913044Y-40975543D01*
X131925026Y-40955552D01*
X131938910Y-40936832D01*
X131954562Y-40919562D01*
X131971832Y-40903910D01*
X131990552Y-40890026D01*
X132010543Y-40878044D01*
X132031613Y-40868079D01*
X132053557Y-40860227D01*
X132076166Y-40854563D01*
X132099221Y-40851144D01*
X132122500Y-40850000D01*
X132597500Y-40850000D01*
X132620779Y-40851144D01*
G37*
G36*
X132620779Y-42601144D02*
G01*
X132643834Y-42604563D01*
X132666443Y-42610227D01*
X132688387Y-42618079D01*
X132709457Y-42628044D01*
X132729448Y-42640026D01*
X132748168Y-42653910D01*
X132765438Y-42669562D01*
X132781090Y-42686832D01*
X132794974Y-42705552D01*
X132806956Y-42725543D01*
X132816921Y-42746613D01*
X132824773Y-42768557D01*
X132830437Y-42791166D01*
X132833856Y-42814221D01*
X132835000Y-42837500D01*
X132835000Y-43412500D01*
X132833856Y-43435779D01*
X132830437Y-43458834D01*
X132824773Y-43481443D01*
X132816921Y-43503387D01*
X132806956Y-43524457D01*
X132794974Y-43544448D01*
X132781090Y-43563168D01*
X132765438Y-43580438D01*
X132748168Y-43596090D01*
X132729448Y-43609974D01*
X132709457Y-43621956D01*
X132688387Y-43631921D01*
X132666443Y-43639773D01*
X132643834Y-43645437D01*
X132620779Y-43648856D01*
X132597500Y-43650000D01*
X132122500Y-43650000D01*
X132099221Y-43648856D01*
X132076166Y-43645437D01*
X132053557Y-43639773D01*
X132031613Y-43631921D01*
X132010543Y-43621956D01*
X131990552Y-43609974D01*
X131971832Y-43596090D01*
X131954562Y-43580438D01*
X131938910Y-43563168D01*
X131925026Y-43544448D01*
X131913044Y-43524457D01*
X131903079Y-43503387D01*
X131895227Y-43481443D01*
X131889563Y-43458834D01*
X131886144Y-43435779D01*
X131885000Y-43412500D01*
X131885000Y-42837500D01*
X131886144Y-42814221D01*
X131889563Y-42791166D01*
X131895227Y-42768557D01*
X131903079Y-42746613D01*
X131913044Y-42725543D01*
X131925026Y-42705552D01*
X131938910Y-42686832D01*
X131954562Y-42669562D01*
X131971832Y-42653910D01*
X131990552Y-42640026D01*
X132010543Y-42628044D01*
X132031613Y-42618079D01*
X132053557Y-42610227D01*
X132076166Y-42604563D01*
X132099221Y-42601144D01*
X132122500Y-42600000D01*
X132597500Y-42600000D01*
X132620779Y-42601144D01*
G37*
G04 #@! TD*
G04 #@! TO.C,R12*
G36*
X135350779Y-40831144D02*
G01*
X135373834Y-40834563D01*
X135396443Y-40840227D01*
X135418387Y-40848079D01*
X135439457Y-40858044D01*
X135459448Y-40870026D01*
X135478168Y-40883910D01*
X135495438Y-40899562D01*
X135511090Y-40916832D01*
X135524974Y-40935552D01*
X135536956Y-40955543D01*
X135546921Y-40976613D01*
X135554773Y-40998557D01*
X135560437Y-41021166D01*
X135563856Y-41044221D01*
X135565000Y-41067500D01*
X135565000Y-41642500D01*
X135563856Y-41665779D01*
X135560437Y-41688834D01*
X135554773Y-41711443D01*
X135546921Y-41733387D01*
X135536956Y-41754457D01*
X135524974Y-41774448D01*
X135511090Y-41793168D01*
X135495438Y-41810438D01*
X135478168Y-41826090D01*
X135459448Y-41839974D01*
X135439457Y-41851956D01*
X135418387Y-41861921D01*
X135396443Y-41869773D01*
X135373834Y-41875437D01*
X135350779Y-41878856D01*
X135327500Y-41880000D01*
X134852500Y-41880000D01*
X134829221Y-41878856D01*
X134806166Y-41875437D01*
X134783557Y-41869773D01*
X134761613Y-41861921D01*
X134740543Y-41851956D01*
X134720552Y-41839974D01*
X134701832Y-41826090D01*
X134684562Y-41810438D01*
X134668910Y-41793168D01*
X134655026Y-41774448D01*
X134643044Y-41754457D01*
X134633079Y-41733387D01*
X134625227Y-41711443D01*
X134619563Y-41688834D01*
X134616144Y-41665779D01*
X134615000Y-41642500D01*
X134615000Y-41067500D01*
X134616144Y-41044221D01*
X134619563Y-41021166D01*
X134625227Y-40998557D01*
X134633079Y-40976613D01*
X134643044Y-40955543D01*
X134655026Y-40935552D01*
X134668910Y-40916832D01*
X134684562Y-40899562D01*
X134701832Y-40883910D01*
X134720552Y-40870026D01*
X134740543Y-40858044D01*
X134761613Y-40848079D01*
X134783557Y-40840227D01*
X134806166Y-40834563D01*
X134829221Y-40831144D01*
X134852500Y-40830000D01*
X135327500Y-40830000D01*
X135350779Y-40831144D01*
G37*
G36*
X135350779Y-42581144D02*
G01*
X135373834Y-42584563D01*
X135396443Y-42590227D01*
X135418387Y-42598079D01*
X135439457Y-42608044D01*
X135459448Y-42620026D01*
X135478168Y-42633910D01*
X135495438Y-42649562D01*
X135511090Y-42666832D01*
X135524974Y-42685552D01*
X135536956Y-42705543D01*
X135546921Y-42726613D01*
X135554773Y-42748557D01*
X135560437Y-42771166D01*
X135563856Y-42794221D01*
X135565000Y-42817500D01*
X135565000Y-43392500D01*
X135563856Y-43415779D01*
X135560437Y-43438834D01*
X135554773Y-43461443D01*
X135546921Y-43483387D01*
X135536956Y-43504457D01*
X135524974Y-43524448D01*
X135511090Y-43543168D01*
X135495438Y-43560438D01*
X135478168Y-43576090D01*
X135459448Y-43589974D01*
X135439457Y-43601956D01*
X135418387Y-43611921D01*
X135396443Y-43619773D01*
X135373834Y-43625437D01*
X135350779Y-43628856D01*
X135327500Y-43630000D01*
X134852500Y-43630000D01*
X134829221Y-43628856D01*
X134806166Y-43625437D01*
X134783557Y-43619773D01*
X134761613Y-43611921D01*
X134740543Y-43601956D01*
X134720552Y-43589974D01*
X134701832Y-43576090D01*
X134684562Y-43560438D01*
X134668910Y-43543168D01*
X134655026Y-43524448D01*
X134643044Y-43504457D01*
X134633079Y-43483387D01*
X134625227Y-43461443D01*
X134619563Y-43438834D01*
X134616144Y-43415779D01*
X134615000Y-43392500D01*
X134615000Y-42817500D01*
X134616144Y-42794221D01*
X134619563Y-42771166D01*
X134625227Y-42748557D01*
X134633079Y-42726613D01*
X134643044Y-42705543D01*
X134655026Y-42685552D01*
X134668910Y-42666832D01*
X134684562Y-42649562D01*
X134701832Y-42633910D01*
X134720552Y-42620026D01*
X134740543Y-42608044D01*
X134761613Y-42598079D01*
X134783557Y-42590227D01*
X134806166Y-42584563D01*
X134829221Y-42581144D01*
X134852500Y-42580000D01*
X135327500Y-42580000D01*
X135350779Y-42581144D01*
G37*
G04 #@! TD*
G04 #@! TO.C,R11*
G36*
X138120779Y-40811144D02*
G01*
X138143834Y-40814563D01*
X138166443Y-40820227D01*
X138188387Y-40828079D01*
X138209457Y-40838044D01*
X138229448Y-40850026D01*
X138248168Y-40863910D01*
X138265438Y-40879562D01*
X138281090Y-40896832D01*
X138294974Y-40915552D01*
X138306956Y-40935543D01*
X138316921Y-40956613D01*
X138324773Y-40978557D01*
X138330437Y-41001166D01*
X138333856Y-41024221D01*
X138335000Y-41047500D01*
X138335000Y-41622500D01*
X138333856Y-41645779D01*
X138330437Y-41668834D01*
X138324773Y-41691443D01*
X138316921Y-41713387D01*
X138306956Y-41734457D01*
X138294974Y-41754448D01*
X138281090Y-41773168D01*
X138265438Y-41790438D01*
X138248168Y-41806090D01*
X138229448Y-41819974D01*
X138209457Y-41831956D01*
X138188387Y-41841921D01*
X138166443Y-41849773D01*
X138143834Y-41855437D01*
X138120779Y-41858856D01*
X138097500Y-41860000D01*
X137622500Y-41860000D01*
X137599221Y-41858856D01*
X137576166Y-41855437D01*
X137553557Y-41849773D01*
X137531613Y-41841921D01*
X137510543Y-41831956D01*
X137490552Y-41819974D01*
X137471832Y-41806090D01*
X137454562Y-41790438D01*
X137438910Y-41773168D01*
X137425026Y-41754448D01*
X137413044Y-41734457D01*
X137403079Y-41713387D01*
X137395227Y-41691443D01*
X137389563Y-41668834D01*
X137386144Y-41645779D01*
X137385000Y-41622500D01*
X137385000Y-41047500D01*
X137386144Y-41024221D01*
X137389563Y-41001166D01*
X137395227Y-40978557D01*
X137403079Y-40956613D01*
X137413044Y-40935543D01*
X137425026Y-40915552D01*
X137438910Y-40896832D01*
X137454562Y-40879562D01*
X137471832Y-40863910D01*
X137490552Y-40850026D01*
X137510543Y-40838044D01*
X137531613Y-40828079D01*
X137553557Y-40820227D01*
X137576166Y-40814563D01*
X137599221Y-40811144D01*
X137622500Y-40810000D01*
X138097500Y-40810000D01*
X138120779Y-40811144D01*
G37*
G36*
X138120779Y-42561144D02*
G01*
X138143834Y-42564563D01*
X138166443Y-42570227D01*
X138188387Y-42578079D01*
X138209457Y-42588044D01*
X138229448Y-42600026D01*
X138248168Y-42613910D01*
X138265438Y-42629562D01*
X138281090Y-42646832D01*
X138294974Y-42665552D01*
X138306956Y-42685543D01*
X138316921Y-42706613D01*
X138324773Y-42728557D01*
X138330437Y-42751166D01*
X138333856Y-42774221D01*
X138335000Y-42797500D01*
X138335000Y-43372500D01*
X138333856Y-43395779D01*
X138330437Y-43418834D01*
X138324773Y-43441443D01*
X138316921Y-43463387D01*
X138306956Y-43484457D01*
X138294974Y-43504448D01*
X138281090Y-43523168D01*
X138265438Y-43540438D01*
X138248168Y-43556090D01*
X138229448Y-43569974D01*
X138209457Y-43581956D01*
X138188387Y-43591921D01*
X138166443Y-43599773D01*
X138143834Y-43605437D01*
X138120779Y-43608856D01*
X138097500Y-43610000D01*
X137622500Y-43610000D01*
X137599221Y-43608856D01*
X137576166Y-43605437D01*
X137553557Y-43599773D01*
X137531613Y-43591921D01*
X137510543Y-43581956D01*
X137490552Y-43569974D01*
X137471832Y-43556090D01*
X137454562Y-43540438D01*
X137438910Y-43523168D01*
X137425026Y-43504448D01*
X137413044Y-43484457D01*
X137403079Y-43463387D01*
X137395227Y-43441443D01*
X137389563Y-43418834D01*
X137386144Y-43395779D01*
X137385000Y-43372500D01*
X137385000Y-42797500D01*
X137386144Y-42774221D01*
X137389563Y-42751166D01*
X137395227Y-42728557D01*
X137403079Y-42706613D01*
X137413044Y-42685543D01*
X137425026Y-42665552D01*
X137438910Y-42646832D01*
X137454562Y-42629562D01*
X137471832Y-42613910D01*
X137490552Y-42600026D01*
X137510543Y-42588044D01*
X137531613Y-42578079D01*
X137553557Y-42570227D01*
X137576166Y-42564563D01*
X137599221Y-42561144D01*
X137622500Y-42560000D01*
X138097500Y-42560000D01*
X138120779Y-42561144D01*
G37*
G04 #@! TD*
G04 #@! TO.C,R10*
G36*
X140910779Y-40791144D02*
G01*
X140933834Y-40794563D01*
X140956443Y-40800227D01*
X140978387Y-40808079D01*
X140999457Y-40818044D01*
X141019448Y-40830026D01*
X141038168Y-40843910D01*
X141055438Y-40859562D01*
X141071090Y-40876832D01*
X141084974Y-40895552D01*
X141096956Y-40915543D01*
X141106921Y-40936613D01*
X141114773Y-40958557D01*
X141120437Y-40981166D01*
X141123856Y-41004221D01*
X141125000Y-41027500D01*
X141125000Y-41602500D01*
X141123856Y-41625779D01*
X141120437Y-41648834D01*
X141114773Y-41671443D01*
X141106921Y-41693387D01*
X141096956Y-41714457D01*
X141084974Y-41734448D01*
X141071090Y-41753168D01*
X141055438Y-41770438D01*
X141038168Y-41786090D01*
X141019448Y-41799974D01*
X140999457Y-41811956D01*
X140978387Y-41821921D01*
X140956443Y-41829773D01*
X140933834Y-41835437D01*
X140910779Y-41838856D01*
X140887500Y-41840000D01*
X140412500Y-41840000D01*
X140389221Y-41838856D01*
X140366166Y-41835437D01*
X140343557Y-41829773D01*
X140321613Y-41821921D01*
X140300543Y-41811956D01*
X140280552Y-41799974D01*
X140261832Y-41786090D01*
X140244562Y-41770438D01*
X140228910Y-41753168D01*
X140215026Y-41734448D01*
X140203044Y-41714457D01*
X140193079Y-41693387D01*
X140185227Y-41671443D01*
X140179563Y-41648834D01*
X140176144Y-41625779D01*
X140175000Y-41602500D01*
X140175000Y-41027500D01*
X140176144Y-41004221D01*
X140179563Y-40981166D01*
X140185227Y-40958557D01*
X140193079Y-40936613D01*
X140203044Y-40915543D01*
X140215026Y-40895552D01*
X140228910Y-40876832D01*
X140244562Y-40859562D01*
X140261832Y-40843910D01*
X140280552Y-40830026D01*
X140300543Y-40818044D01*
X140321613Y-40808079D01*
X140343557Y-40800227D01*
X140366166Y-40794563D01*
X140389221Y-40791144D01*
X140412500Y-40790000D01*
X140887500Y-40790000D01*
X140910779Y-40791144D01*
G37*
G36*
X140910779Y-42541144D02*
G01*
X140933834Y-42544563D01*
X140956443Y-42550227D01*
X140978387Y-42558079D01*
X140999457Y-42568044D01*
X141019448Y-42580026D01*
X141038168Y-42593910D01*
X141055438Y-42609562D01*
X141071090Y-42626832D01*
X141084974Y-42645552D01*
X141096956Y-42665543D01*
X141106921Y-42686613D01*
X141114773Y-42708557D01*
X141120437Y-42731166D01*
X141123856Y-42754221D01*
X141125000Y-42777500D01*
X141125000Y-43352500D01*
X141123856Y-43375779D01*
X141120437Y-43398834D01*
X141114773Y-43421443D01*
X141106921Y-43443387D01*
X141096956Y-43464457D01*
X141084974Y-43484448D01*
X141071090Y-43503168D01*
X141055438Y-43520438D01*
X141038168Y-43536090D01*
X141019448Y-43549974D01*
X140999457Y-43561956D01*
X140978387Y-43571921D01*
X140956443Y-43579773D01*
X140933834Y-43585437D01*
X140910779Y-43588856D01*
X140887500Y-43590000D01*
X140412500Y-43590000D01*
X140389221Y-43588856D01*
X140366166Y-43585437D01*
X140343557Y-43579773D01*
X140321613Y-43571921D01*
X140300543Y-43561956D01*
X140280552Y-43549974D01*
X140261832Y-43536090D01*
X140244562Y-43520438D01*
X140228910Y-43503168D01*
X140215026Y-43484448D01*
X140203044Y-43464457D01*
X140193079Y-43443387D01*
X140185227Y-43421443D01*
X140179563Y-43398834D01*
X140176144Y-43375779D01*
X140175000Y-43352500D01*
X140175000Y-42777500D01*
X140176144Y-42754221D01*
X140179563Y-42731166D01*
X140185227Y-42708557D01*
X140193079Y-42686613D01*
X140203044Y-42665543D01*
X140215026Y-42645552D01*
X140228910Y-42626832D01*
X140244562Y-42609562D01*
X140261832Y-42593910D01*
X140280552Y-42580026D01*
X140300543Y-42568044D01*
X140321613Y-42558079D01*
X140343557Y-42550227D01*
X140366166Y-42544563D01*
X140389221Y-42541144D01*
X140412500Y-42540000D01*
X140887500Y-42540000D01*
X140910779Y-42541144D01*
G37*
G04 #@! TD*
G04 #@! TO.C,R9*
G36*
X143640779Y-40791144D02*
G01*
X143663834Y-40794563D01*
X143686443Y-40800227D01*
X143708387Y-40808079D01*
X143729457Y-40818044D01*
X143749448Y-40830026D01*
X143768168Y-40843910D01*
X143785438Y-40859562D01*
X143801090Y-40876832D01*
X143814974Y-40895552D01*
X143826956Y-40915543D01*
X143836921Y-40936613D01*
X143844773Y-40958557D01*
X143850437Y-40981166D01*
X143853856Y-41004221D01*
X143855000Y-41027500D01*
X143855000Y-41602500D01*
X143853856Y-41625779D01*
X143850437Y-41648834D01*
X143844773Y-41671443D01*
X143836921Y-41693387D01*
X143826956Y-41714457D01*
X143814974Y-41734448D01*
X143801090Y-41753168D01*
X143785438Y-41770438D01*
X143768168Y-41786090D01*
X143749448Y-41799974D01*
X143729457Y-41811956D01*
X143708387Y-41821921D01*
X143686443Y-41829773D01*
X143663834Y-41835437D01*
X143640779Y-41838856D01*
X143617500Y-41840000D01*
X143142500Y-41840000D01*
X143119221Y-41838856D01*
X143096166Y-41835437D01*
X143073557Y-41829773D01*
X143051613Y-41821921D01*
X143030543Y-41811956D01*
X143010552Y-41799974D01*
X142991832Y-41786090D01*
X142974562Y-41770438D01*
X142958910Y-41753168D01*
X142945026Y-41734448D01*
X142933044Y-41714457D01*
X142923079Y-41693387D01*
X142915227Y-41671443D01*
X142909563Y-41648834D01*
X142906144Y-41625779D01*
X142905000Y-41602500D01*
X142905000Y-41027500D01*
X142906144Y-41004221D01*
X142909563Y-40981166D01*
X142915227Y-40958557D01*
X142923079Y-40936613D01*
X142933044Y-40915543D01*
X142945026Y-40895552D01*
X142958910Y-40876832D01*
X142974562Y-40859562D01*
X142991832Y-40843910D01*
X143010552Y-40830026D01*
X143030543Y-40818044D01*
X143051613Y-40808079D01*
X143073557Y-40800227D01*
X143096166Y-40794563D01*
X143119221Y-40791144D01*
X143142500Y-40790000D01*
X143617500Y-40790000D01*
X143640779Y-40791144D01*
G37*
G36*
X143640779Y-42541144D02*
G01*
X143663834Y-42544563D01*
X143686443Y-42550227D01*
X143708387Y-42558079D01*
X143729457Y-42568044D01*
X143749448Y-42580026D01*
X143768168Y-42593910D01*
X143785438Y-42609562D01*
X143801090Y-42626832D01*
X143814974Y-42645552D01*
X143826956Y-42665543D01*
X143836921Y-42686613D01*
X143844773Y-42708557D01*
X143850437Y-42731166D01*
X143853856Y-42754221D01*
X143855000Y-42777500D01*
X143855000Y-43352500D01*
X143853856Y-43375779D01*
X143850437Y-43398834D01*
X143844773Y-43421443D01*
X143836921Y-43443387D01*
X143826956Y-43464457D01*
X143814974Y-43484448D01*
X143801090Y-43503168D01*
X143785438Y-43520438D01*
X143768168Y-43536090D01*
X143749448Y-43549974D01*
X143729457Y-43561956D01*
X143708387Y-43571921D01*
X143686443Y-43579773D01*
X143663834Y-43585437D01*
X143640779Y-43588856D01*
X143617500Y-43590000D01*
X143142500Y-43590000D01*
X143119221Y-43588856D01*
X143096166Y-43585437D01*
X143073557Y-43579773D01*
X143051613Y-43571921D01*
X143030543Y-43561956D01*
X143010552Y-43549974D01*
X142991832Y-43536090D01*
X142974562Y-43520438D01*
X142958910Y-43503168D01*
X142945026Y-43484448D01*
X142933044Y-43464457D01*
X142923079Y-43443387D01*
X142915227Y-43421443D01*
X142909563Y-43398834D01*
X142906144Y-43375779D01*
X142905000Y-43352500D01*
X142905000Y-42777500D01*
X142906144Y-42754221D01*
X142909563Y-42731166D01*
X142915227Y-42708557D01*
X142923079Y-42686613D01*
X142933044Y-42665543D01*
X142945026Y-42645552D01*
X142958910Y-42626832D01*
X142974562Y-42609562D01*
X142991832Y-42593910D01*
X143010552Y-42580026D01*
X143030543Y-42568044D01*
X143051613Y-42558079D01*
X143073557Y-42550227D01*
X143096166Y-42544563D01*
X143119221Y-42541144D01*
X143142500Y-42540000D01*
X143617500Y-42540000D01*
X143640779Y-42541144D01*
G37*
G04 #@! TD*
G04 #@! TO.C,R8*
G36*
X146370779Y-40761144D02*
G01*
X146393834Y-40764563D01*
X146416443Y-40770227D01*
X146438387Y-40778079D01*
X146459457Y-40788044D01*
X146479448Y-40800026D01*
X146498168Y-40813910D01*
X146515438Y-40829562D01*
X146531090Y-40846832D01*
X146544974Y-40865552D01*
X146556956Y-40885543D01*
X146566921Y-40906613D01*
X146574773Y-40928557D01*
X146580437Y-40951166D01*
X146583856Y-40974221D01*
X146585000Y-40997500D01*
X146585000Y-41572500D01*
X146583856Y-41595779D01*
X146580437Y-41618834D01*
X146574773Y-41641443D01*
X146566921Y-41663387D01*
X146556956Y-41684457D01*
X146544974Y-41704448D01*
X146531090Y-41723168D01*
X146515438Y-41740438D01*
X146498168Y-41756090D01*
X146479448Y-41769974D01*
X146459457Y-41781956D01*
X146438387Y-41791921D01*
X146416443Y-41799773D01*
X146393834Y-41805437D01*
X146370779Y-41808856D01*
X146347500Y-41810000D01*
X145872500Y-41810000D01*
X145849221Y-41808856D01*
X145826166Y-41805437D01*
X145803557Y-41799773D01*
X145781613Y-41791921D01*
X145760543Y-41781956D01*
X145740552Y-41769974D01*
X145721832Y-41756090D01*
X145704562Y-41740438D01*
X145688910Y-41723168D01*
X145675026Y-41704448D01*
X145663044Y-41684457D01*
X145653079Y-41663387D01*
X145645227Y-41641443D01*
X145639563Y-41618834D01*
X145636144Y-41595779D01*
X145635000Y-41572500D01*
X145635000Y-40997500D01*
X145636144Y-40974221D01*
X145639563Y-40951166D01*
X145645227Y-40928557D01*
X145653079Y-40906613D01*
X145663044Y-40885543D01*
X145675026Y-40865552D01*
X145688910Y-40846832D01*
X145704562Y-40829562D01*
X145721832Y-40813910D01*
X145740552Y-40800026D01*
X145760543Y-40788044D01*
X145781613Y-40778079D01*
X145803557Y-40770227D01*
X145826166Y-40764563D01*
X145849221Y-40761144D01*
X145872500Y-40760000D01*
X146347500Y-40760000D01*
X146370779Y-40761144D01*
G37*
G36*
X146370779Y-42511144D02*
G01*
X146393834Y-42514563D01*
X146416443Y-42520227D01*
X146438387Y-42528079D01*
X146459457Y-42538044D01*
X146479448Y-42550026D01*
X146498168Y-42563910D01*
X146515438Y-42579562D01*
X146531090Y-42596832D01*
X146544974Y-42615552D01*
X146556956Y-42635543D01*
X146566921Y-42656613D01*
X146574773Y-42678557D01*
X146580437Y-42701166D01*
X146583856Y-42724221D01*
X146585000Y-42747500D01*
X146585000Y-43322500D01*
X146583856Y-43345779D01*
X146580437Y-43368834D01*
X146574773Y-43391443D01*
X146566921Y-43413387D01*
X146556956Y-43434457D01*
X146544974Y-43454448D01*
X146531090Y-43473168D01*
X146515438Y-43490438D01*
X146498168Y-43506090D01*
X146479448Y-43519974D01*
X146459457Y-43531956D01*
X146438387Y-43541921D01*
X146416443Y-43549773D01*
X146393834Y-43555437D01*
X146370779Y-43558856D01*
X146347500Y-43560000D01*
X145872500Y-43560000D01*
X145849221Y-43558856D01*
X145826166Y-43555437D01*
X145803557Y-43549773D01*
X145781613Y-43541921D01*
X145760543Y-43531956D01*
X145740552Y-43519974D01*
X145721832Y-43506090D01*
X145704562Y-43490438D01*
X145688910Y-43473168D01*
X145675026Y-43454448D01*
X145663044Y-43434457D01*
X145653079Y-43413387D01*
X145645227Y-43391443D01*
X145639563Y-43368834D01*
X145636144Y-43345779D01*
X145635000Y-43322500D01*
X145635000Y-42747500D01*
X145636144Y-42724221D01*
X145639563Y-42701166D01*
X145645227Y-42678557D01*
X145653079Y-42656613D01*
X145663044Y-42635543D01*
X145675026Y-42615552D01*
X145688910Y-42596832D01*
X145704562Y-42579562D01*
X145721832Y-42563910D01*
X145740552Y-42550026D01*
X145760543Y-42538044D01*
X145781613Y-42528079D01*
X145803557Y-42520227D01*
X145826166Y-42514563D01*
X145849221Y-42511144D01*
X145872500Y-42510000D01*
X146347500Y-42510000D01*
X146370779Y-42511144D01*
G37*
G04 #@! TD*
G04 #@! TO.C,R7*
G36*
X149280779Y-40721144D02*
G01*
X149303834Y-40724563D01*
X149326443Y-40730227D01*
X149348387Y-40738079D01*
X149369457Y-40748044D01*
X149389448Y-40760026D01*
X149408168Y-40773910D01*
X149425438Y-40789562D01*
X149441090Y-40806832D01*
X149454974Y-40825552D01*
X149466956Y-40845543D01*
X149476921Y-40866613D01*
X149484773Y-40888557D01*
X149490437Y-40911166D01*
X149493856Y-40934221D01*
X149495000Y-40957500D01*
X149495000Y-41532500D01*
X149493856Y-41555779D01*
X149490437Y-41578834D01*
X149484773Y-41601443D01*
X149476921Y-41623387D01*
X149466956Y-41644457D01*
X149454974Y-41664448D01*
X149441090Y-41683168D01*
X149425438Y-41700438D01*
X149408168Y-41716090D01*
X149389448Y-41729974D01*
X149369457Y-41741956D01*
X149348387Y-41751921D01*
X149326443Y-41759773D01*
X149303834Y-41765437D01*
X149280779Y-41768856D01*
X149257500Y-41770000D01*
X148782500Y-41770000D01*
X148759221Y-41768856D01*
X148736166Y-41765437D01*
X148713557Y-41759773D01*
X148691613Y-41751921D01*
X148670543Y-41741956D01*
X148650552Y-41729974D01*
X148631832Y-41716090D01*
X148614562Y-41700438D01*
X148598910Y-41683168D01*
X148585026Y-41664448D01*
X148573044Y-41644457D01*
X148563079Y-41623387D01*
X148555227Y-41601443D01*
X148549563Y-41578834D01*
X148546144Y-41555779D01*
X148545000Y-41532500D01*
X148545000Y-40957500D01*
X148546144Y-40934221D01*
X148549563Y-40911166D01*
X148555227Y-40888557D01*
X148563079Y-40866613D01*
X148573044Y-40845543D01*
X148585026Y-40825552D01*
X148598910Y-40806832D01*
X148614562Y-40789562D01*
X148631832Y-40773910D01*
X148650552Y-40760026D01*
X148670543Y-40748044D01*
X148691613Y-40738079D01*
X148713557Y-40730227D01*
X148736166Y-40724563D01*
X148759221Y-40721144D01*
X148782500Y-40720000D01*
X149257500Y-40720000D01*
X149280779Y-40721144D01*
G37*
G36*
X149280779Y-42471144D02*
G01*
X149303834Y-42474563D01*
X149326443Y-42480227D01*
X149348387Y-42488079D01*
X149369457Y-42498044D01*
X149389448Y-42510026D01*
X149408168Y-42523910D01*
X149425438Y-42539562D01*
X149441090Y-42556832D01*
X149454974Y-42575552D01*
X149466956Y-42595543D01*
X149476921Y-42616613D01*
X149484773Y-42638557D01*
X149490437Y-42661166D01*
X149493856Y-42684221D01*
X149495000Y-42707500D01*
X149495000Y-43282500D01*
X149493856Y-43305779D01*
X149490437Y-43328834D01*
X149484773Y-43351443D01*
X149476921Y-43373387D01*
X149466956Y-43394457D01*
X149454974Y-43414448D01*
X149441090Y-43433168D01*
X149425438Y-43450438D01*
X149408168Y-43466090D01*
X149389448Y-43479974D01*
X149369457Y-43491956D01*
X149348387Y-43501921D01*
X149326443Y-43509773D01*
X149303834Y-43515437D01*
X149280779Y-43518856D01*
X149257500Y-43520000D01*
X148782500Y-43520000D01*
X148759221Y-43518856D01*
X148736166Y-43515437D01*
X148713557Y-43509773D01*
X148691613Y-43501921D01*
X148670543Y-43491956D01*
X148650552Y-43479974D01*
X148631832Y-43466090D01*
X148614562Y-43450438D01*
X148598910Y-43433168D01*
X148585026Y-43414448D01*
X148573044Y-43394457D01*
X148563079Y-43373387D01*
X148555227Y-43351443D01*
X148549563Y-43328834D01*
X148546144Y-43305779D01*
X148545000Y-43282500D01*
X148545000Y-42707500D01*
X148546144Y-42684221D01*
X148549563Y-42661166D01*
X148555227Y-42638557D01*
X148563079Y-42616613D01*
X148573044Y-42595543D01*
X148585026Y-42575552D01*
X148598910Y-42556832D01*
X148614562Y-42539562D01*
X148631832Y-42523910D01*
X148650552Y-42510026D01*
X148670543Y-42498044D01*
X148691613Y-42488079D01*
X148713557Y-42480227D01*
X148736166Y-42474563D01*
X148759221Y-42471144D01*
X148782500Y-42470000D01*
X149257500Y-42470000D01*
X149280779Y-42471144D01*
G37*
G04 #@! TD*
G04 #@! TO.C,R6*
G36*
X152150779Y-40801144D02*
G01*
X152173834Y-40804563D01*
X152196443Y-40810227D01*
X152218387Y-40818079D01*
X152239457Y-40828044D01*
X152259448Y-40840026D01*
X152278168Y-40853910D01*
X152295438Y-40869562D01*
X152311090Y-40886832D01*
X152324974Y-40905552D01*
X152336956Y-40925543D01*
X152346921Y-40946613D01*
X152354773Y-40968557D01*
X152360437Y-40991166D01*
X152363856Y-41014221D01*
X152365000Y-41037500D01*
X152365000Y-41612500D01*
X152363856Y-41635779D01*
X152360437Y-41658834D01*
X152354773Y-41681443D01*
X152346921Y-41703387D01*
X152336956Y-41724457D01*
X152324974Y-41744448D01*
X152311090Y-41763168D01*
X152295438Y-41780438D01*
X152278168Y-41796090D01*
X152259448Y-41809974D01*
X152239457Y-41821956D01*
X152218387Y-41831921D01*
X152196443Y-41839773D01*
X152173834Y-41845437D01*
X152150779Y-41848856D01*
X152127500Y-41850000D01*
X151652500Y-41850000D01*
X151629221Y-41848856D01*
X151606166Y-41845437D01*
X151583557Y-41839773D01*
X151561613Y-41831921D01*
X151540543Y-41821956D01*
X151520552Y-41809974D01*
X151501832Y-41796090D01*
X151484562Y-41780438D01*
X151468910Y-41763168D01*
X151455026Y-41744448D01*
X151443044Y-41724457D01*
X151433079Y-41703387D01*
X151425227Y-41681443D01*
X151419563Y-41658834D01*
X151416144Y-41635779D01*
X151415000Y-41612500D01*
X151415000Y-41037500D01*
X151416144Y-41014221D01*
X151419563Y-40991166D01*
X151425227Y-40968557D01*
X151433079Y-40946613D01*
X151443044Y-40925543D01*
X151455026Y-40905552D01*
X151468910Y-40886832D01*
X151484562Y-40869562D01*
X151501832Y-40853910D01*
X151520552Y-40840026D01*
X151540543Y-40828044D01*
X151561613Y-40818079D01*
X151583557Y-40810227D01*
X151606166Y-40804563D01*
X151629221Y-40801144D01*
X151652500Y-40800000D01*
X152127500Y-40800000D01*
X152150779Y-40801144D01*
G37*
G36*
X152150779Y-42551144D02*
G01*
X152173834Y-42554563D01*
X152196443Y-42560227D01*
X152218387Y-42568079D01*
X152239457Y-42578044D01*
X152259448Y-42590026D01*
X152278168Y-42603910D01*
X152295438Y-42619562D01*
X152311090Y-42636832D01*
X152324974Y-42655552D01*
X152336956Y-42675543D01*
X152346921Y-42696613D01*
X152354773Y-42718557D01*
X152360437Y-42741166D01*
X152363856Y-42764221D01*
X152365000Y-42787500D01*
X152365000Y-43362500D01*
X152363856Y-43385779D01*
X152360437Y-43408834D01*
X152354773Y-43431443D01*
X152346921Y-43453387D01*
X152336956Y-43474457D01*
X152324974Y-43494448D01*
X152311090Y-43513168D01*
X152295438Y-43530438D01*
X152278168Y-43546090D01*
X152259448Y-43559974D01*
X152239457Y-43571956D01*
X152218387Y-43581921D01*
X152196443Y-43589773D01*
X152173834Y-43595437D01*
X152150779Y-43598856D01*
X152127500Y-43600000D01*
X151652500Y-43600000D01*
X151629221Y-43598856D01*
X151606166Y-43595437D01*
X151583557Y-43589773D01*
X151561613Y-43581921D01*
X151540543Y-43571956D01*
X151520552Y-43559974D01*
X151501832Y-43546090D01*
X151484562Y-43530438D01*
X151468910Y-43513168D01*
X151455026Y-43494448D01*
X151443044Y-43474457D01*
X151433079Y-43453387D01*
X151425227Y-43431443D01*
X151419563Y-43408834D01*
X151416144Y-43385779D01*
X151415000Y-43362500D01*
X151415000Y-42787500D01*
X151416144Y-42764221D01*
X151419563Y-42741166D01*
X151425227Y-42718557D01*
X151433079Y-42696613D01*
X151443044Y-42675543D01*
X151455026Y-42655552D01*
X151468910Y-42636832D01*
X151484562Y-42619562D01*
X151501832Y-42603910D01*
X151520552Y-42590026D01*
X151540543Y-42578044D01*
X151561613Y-42568079D01*
X151583557Y-42560227D01*
X151606166Y-42554563D01*
X151629221Y-42551144D01*
X151652500Y-42550000D01*
X152127500Y-42550000D01*
X152150779Y-42551144D01*
G37*
G04 #@! TD*
G04 #@! TO.C,R5*
G36*
X154880779Y-40801144D02*
G01*
X154903834Y-40804563D01*
X154926443Y-40810227D01*
X154948387Y-40818079D01*
X154969457Y-40828044D01*
X154989448Y-40840026D01*
X155008168Y-40853910D01*
X155025438Y-40869562D01*
X155041090Y-40886832D01*
X155054974Y-40905552D01*
X155066956Y-40925543D01*
X155076921Y-40946613D01*
X155084773Y-40968557D01*
X155090437Y-40991166D01*
X155093856Y-41014221D01*
X155095000Y-41037500D01*
X155095000Y-41612500D01*
X155093856Y-41635779D01*
X155090437Y-41658834D01*
X155084773Y-41681443D01*
X155076921Y-41703387D01*
X155066956Y-41724457D01*
X155054974Y-41744448D01*
X155041090Y-41763168D01*
X155025438Y-41780438D01*
X155008168Y-41796090D01*
X154989448Y-41809974D01*
X154969457Y-41821956D01*
X154948387Y-41831921D01*
X154926443Y-41839773D01*
X154903834Y-41845437D01*
X154880779Y-41848856D01*
X154857500Y-41850000D01*
X154382500Y-41850000D01*
X154359221Y-41848856D01*
X154336166Y-41845437D01*
X154313557Y-41839773D01*
X154291613Y-41831921D01*
X154270543Y-41821956D01*
X154250552Y-41809974D01*
X154231832Y-41796090D01*
X154214562Y-41780438D01*
X154198910Y-41763168D01*
X154185026Y-41744448D01*
X154173044Y-41724457D01*
X154163079Y-41703387D01*
X154155227Y-41681443D01*
X154149563Y-41658834D01*
X154146144Y-41635779D01*
X154145000Y-41612500D01*
X154145000Y-41037500D01*
X154146144Y-41014221D01*
X154149563Y-40991166D01*
X154155227Y-40968557D01*
X154163079Y-40946613D01*
X154173044Y-40925543D01*
X154185026Y-40905552D01*
X154198910Y-40886832D01*
X154214562Y-40869562D01*
X154231832Y-40853910D01*
X154250552Y-40840026D01*
X154270543Y-40828044D01*
X154291613Y-40818079D01*
X154313557Y-40810227D01*
X154336166Y-40804563D01*
X154359221Y-40801144D01*
X154382500Y-40800000D01*
X154857500Y-40800000D01*
X154880779Y-40801144D01*
G37*
G36*
X154880779Y-42551144D02*
G01*
X154903834Y-42554563D01*
X154926443Y-42560227D01*
X154948387Y-42568079D01*
X154969457Y-42578044D01*
X154989448Y-42590026D01*
X155008168Y-42603910D01*
X155025438Y-42619562D01*
X155041090Y-42636832D01*
X155054974Y-42655552D01*
X155066956Y-42675543D01*
X155076921Y-42696613D01*
X155084773Y-42718557D01*
X155090437Y-42741166D01*
X155093856Y-42764221D01*
X155095000Y-42787500D01*
X155095000Y-43362500D01*
X155093856Y-43385779D01*
X155090437Y-43408834D01*
X155084773Y-43431443D01*
X155076921Y-43453387D01*
X155066956Y-43474457D01*
X155054974Y-43494448D01*
X155041090Y-43513168D01*
X155025438Y-43530438D01*
X155008168Y-43546090D01*
X154989448Y-43559974D01*
X154969457Y-43571956D01*
X154948387Y-43581921D01*
X154926443Y-43589773D01*
X154903834Y-43595437D01*
X154880779Y-43598856D01*
X154857500Y-43600000D01*
X154382500Y-43600000D01*
X154359221Y-43598856D01*
X154336166Y-43595437D01*
X154313557Y-43589773D01*
X154291613Y-43581921D01*
X154270543Y-43571956D01*
X154250552Y-43559974D01*
X154231832Y-43546090D01*
X154214562Y-43530438D01*
X154198910Y-43513168D01*
X154185026Y-43494448D01*
X154173044Y-43474457D01*
X154163079Y-43453387D01*
X154155227Y-43431443D01*
X154149563Y-43408834D01*
X154146144Y-43385779D01*
X154145000Y-43362500D01*
X154145000Y-42787500D01*
X154146144Y-42764221D01*
X154149563Y-42741166D01*
X154155227Y-42718557D01*
X154163079Y-42696613D01*
X154173044Y-42675543D01*
X154185026Y-42655552D01*
X154198910Y-42636832D01*
X154214562Y-42619562D01*
X154231832Y-42603910D01*
X154250552Y-42590026D01*
X154270543Y-42578044D01*
X154291613Y-42568079D01*
X154313557Y-42560227D01*
X154336166Y-42554563D01*
X154359221Y-42551144D01*
X154382500Y-42550000D01*
X154857500Y-42550000D01*
X154880779Y-42551144D01*
G37*
G04 #@! TD*
G04 #@! TO.C,R4*
G36*
X157520779Y-40831144D02*
G01*
X157543834Y-40834563D01*
X157566443Y-40840227D01*
X157588387Y-40848079D01*
X157609457Y-40858044D01*
X157629448Y-40870026D01*
X157648168Y-40883910D01*
X157665438Y-40899562D01*
X157681090Y-40916832D01*
X157694974Y-40935552D01*
X157706956Y-40955543D01*
X157716921Y-40976613D01*
X157724773Y-40998557D01*
X157730437Y-41021166D01*
X157733856Y-41044221D01*
X157735000Y-41067500D01*
X157735000Y-41642500D01*
X157733856Y-41665779D01*
X157730437Y-41688834D01*
X157724773Y-41711443D01*
X157716921Y-41733387D01*
X157706956Y-41754457D01*
X157694974Y-41774448D01*
X157681090Y-41793168D01*
X157665438Y-41810438D01*
X157648168Y-41826090D01*
X157629448Y-41839974D01*
X157609457Y-41851956D01*
X157588387Y-41861921D01*
X157566443Y-41869773D01*
X157543834Y-41875437D01*
X157520779Y-41878856D01*
X157497500Y-41880000D01*
X157022500Y-41880000D01*
X156999221Y-41878856D01*
X156976166Y-41875437D01*
X156953557Y-41869773D01*
X156931613Y-41861921D01*
X156910543Y-41851956D01*
X156890552Y-41839974D01*
X156871832Y-41826090D01*
X156854562Y-41810438D01*
X156838910Y-41793168D01*
X156825026Y-41774448D01*
X156813044Y-41754457D01*
X156803079Y-41733387D01*
X156795227Y-41711443D01*
X156789563Y-41688834D01*
X156786144Y-41665779D01*
X156785000Y-41642500D01*
X156785000Y-41067500D01*
X156786144Y-41044221D01*
X156789563Y-41021166D01*
X156795227Y-40998557D01*
X156803079Y-40976613D01*
X156813044Y-40955543D01*
X156825026Y-40935552D01*
X156838910Y-40916832D01*
X156854562Y-40899562D01*
X156871832Y-40883910D01*
X156890552Y-40870026D01*
X156910543Y-40858044D01*
X156931613Y-40848079D01*
X156953557Y-40840227D01*
X156976166Y-40834563D01*
X156999221Y-40831144D01*
X157022500Y-40830000D01*
X157497500Y-40830000D01*
X157520779Y-40831144D01*
G37*
G36*
X157520779Y-42581144D02*
G01*
X157543834Y-42584563D01*
X157566443Y-42590227D01*
X157588387Y-42598079D01*
X157609457Y-42608044D01*
X157629448Y-42620026D01*
X157648168Y-42633910D01*
X157665438Y-42649562D01*
X157681090Y-42666832D01*
X157694974Y-42685552D01*
X157706956Y-42705543D01*
X157716921Y-42726613D01*
X157724773Y-42748557D01*
X157730437Y-42771166D01*
X157733856Y-42794221D01*
X157735000Y-42817500D01*
X157735000Y-43392500D01*
X157733856Y-43415779D01*
X157730437Y-43438834D01*
X157724773Y-43461443D01*
X157716921Y-43483387D01*
X157706956Y-43504457D01*
X157694974Y-43524448D01*
X157681090Y-43543168D01*
X157665438Y-43560438D01*
X157648168Y-43576090D01*
X157629448Y-43589974D01*
X157609457Y-43601956D01*
X157588387Y-43611921D01*
X157566443Y-43619773D01*
X157543834Y-43625437D01*
X157520779Y-43628856D01*
X157497500Y-43630000D01*
X157022500Y-43630000D01*
X156999221Y-43628856D01*
X156976166Y-43625437D01*
X156953557Y-43619773D01*
X156931613Y-43611921D01*
X156910543Y-43601956D01*
X156890552Y-43589974D01*
X156871832Y-43576090D01*
X156854562Y-43560438D01*
X156838910Y-43543168D01*
X156825026Y-43524448D01*
X156813044Y-43504457D01*
X156803079Y-43483387D01*
X156795227Y-43461443D01*
X156789563Y-43438834D01*
X156786144Y-43415779D01*
X156785000Y-43392500D01*
X156785000Y-42817500D01*
X156786144Y-42794221D01*
X156789563Y-42771166D01*
X156795227Y-42748557D01*
X156803079Y-42726613D01*
X156813044Y-42705543D01*
X156825026Y-42685552D01*
X156838910Y-42666832D01*
X156854562Y-42649562D01*
X156871832Y-42633910D01*
X156890552Y-42620026D01*
X156910543Y-42608044D01*
X156931613Y-42598079D01*
X156953557Y-42590227D01*
X156976166Y-42584563D01*
X156999221Y-42581144D01*
X157022500Y-42580000D01*
X157497500Y-42580000D01*
X157520779Y-42581144D01*
G37*
G04 #@! TD*
G04 #@! TO.C,R3*
G36*
X160360779Y-40741144D02*
G01*
X160383834Y-40744563D01*
X160406443Y-40750227D01*
X160428387Y-40758079D01*
X160449457Y-40768044D01*
X160469448Y-40780026D01*
X160488168Y-40793910D01*
X160505438Y-40809562D01*
X160521090Y-40826832D01*
X160534974Y-40845552D01*
X160546956Y-40865543D01*
X160556921Y-40886613D01*
X160564773Y-40908557D01*
X160570437Y-40931166D01*
X160573856Y-40954221D01*
X160575000Y-40977500D01*
X160575000Y-41552500D01*
X160573856Y-41575779D01*
X160570437Y-41598834D01*
X160564773Y-41621443D01*
X160556921Y-41643387D01*
X160546956Y-41664457D01*
X160534974Y-41684448D01*
X160521090Y-41703168D01*
X160505438Y-41720438D01*
X160488168Y-41736090D01*
X160469448Y-41749974D01*
X160449457Y-41761956D01*
X160428387Y-41771921D01*
X160406443Y-41779773D01*
X160383834Y-41785437D01*
X160360779Y-41788856D01*
X160337500Y-41790000D01*
X159862500Y-41790000D01*
X159839221Y-41788856D01*
X159816166Y-41785437D01*
X159793557Y-41779773D01*
X159771613Y-41771921D01*
X159750543Y-41761956D01*
X159730552Y-41749974D01*
X159711832Y-41736090D01*
X159694562Y-41720438D01*
X159678910Y-41703168D01*
X159665026Y-41684448D01*
X159653044Y-41664457D01*
X159643079Y-41643387D01*
X159635227Y-41621443D01*
X159629563Y-41598834D01*
X159626144Y-41575779D01*
X159625000Y-41552500D01*
X159625000Y-40977500D01*
X159626144Y-40954221D01*
X159629563Y-40931166D01*
X159635227Y-40908557D01*
X159643079Y-40886613D01*
X159653044Y-40865543D01*
X159665026Y-40845552D01*
X159678910Y-40826832D01*
X159694562Y-40809562D01*
X159711832Y-40793910D01*
X159730552Y-40780026D01*
X159750543Y-40768044D01*
X159771613Y-40758079D01*
X159793557Y-40750227D01*
X159816166Y-40744563D01*
X159839221Y-40741144D01*
X159862500Y-40740000D01*
X160337500Y-40740000D01*
X160360779Y-40741144D01*
G37*
G36*
X160360779Y-42491144D02*
G01*
X160383834Y-42494563D01*
X160406443Y-42500227D01*
X160428387Y-42508079D01*
X160449457Y-42518044D01*
X160469448Y-42530026D01*
X160488168Y-42543910D01*
X160505438Y-42559562D01*
X160521090Y-42576832D01*
X160534974Y-42595552D01*
X160546956Y-42615543D01*
X160556921Y-42636613D01*
X160564773Y-42658557D01*
X160570437Y-42681166D01*
X160573856Y-42704221D01*
X160575000Y-42727500D01*
X160575000Y-43302500D01*
X160573856Y-43325779D01*
X160570437Y-43348834D01*
X160564773Y-43371443D01*
X160556921Y-43393387D01*
X160546956Y-43414457D01*
X160534974Y-43434448D01*
X160521090Y-43453168D01*
X160505438Y-43470438D01*
X160488168Y-43486090D01*
X160469448Y-43499974D01*
X160449457Y-43511956D01*
X160428387Y-43521921D01*
X160406443Y-43529773D01*
X160383834Y-43535437D01*
X160360779Y-43538856D01*
X160337500Y-43540000D01*
X159862500Y-43540000D01*
X159839221Y-43538856D01*
X159816166Y-43535437D01*
X159793557Y-43529773D01*
X159771613Y-43521921D01*
X159750543Y-43511956D01*
X159730552Y-43499974D01*
X159711832Y-43486090D01*
X159694562Y-43470438D01*
X159678910Y-43453168D01*
X159665026Y-43434448D01*
X159653044Y-43414457D01*
X159643079Y-43393387D01*
X159635227Y-43371443D01*
X159629563Y-43348834D01*
X159626144Y-43325779D01*
X159625000Y-43302500D01*
X159625000Y-42727500D01*
X159626144Y-42704221D01*
X159629563Y-42681166D01*
X159635227Y-42658557D01*
X159643079Y-42636613D01*
X159653044Y-42615543D01*
X159665026Y-42595552D01*
X159678910Y-42576832D01*
X159694562Y-42559562D01*
X159711832Y-42543910D01*
X159730552Y-42530026D01*
X159750543Y-42518044D01*
X159771613Y-42508079D01*
X159793557Y-42500227D01*
X159816166Y-42494563D01*
X159839221Y-42491144D01*
X159862500Y-42490000D01*
X160337500Y-42490000D01*
X160360779Y-42491144D01*
G37*
G04 #@! TD*
G04 #@! TO.C,R2*
G36*
X163150779Y-40791144D02*
G01*
X163173834Y-40794563D01*
X163196443Y-40800227D01*
X163218387Y-40808079D01*
X163239457Y-40818044D01*
X163259448Y-40830026D01*
X163278168Y-40843910D01*
X163295438Y-40859562D01*
X163311090Y-40876832D01*
X163324974Y-40895552D01*
X163336956Y-40915543D01*
X163346921Y-40936613D01*
X163354773Y-40958557D01*
X163360437Y-40981166D01*
X163363856Y-41004221D01*
X163365000Y-41027500D01*
X163365000Y-41602500D01*
X163363856Y-41625779D01*
X163360437Y-41648834D01*
X163354773Y-41671443D01*
X163346921Y-41693387D01*
X163336956Y-41714457D01*
X163324974Y-41734448D01*
X163311090Y-41753168D01*
X163295438Y-41770438D01*
X163278168Y-41786090D01*
X163259448Y-41799974D01*
X163239457Y-41811956D01*
X163218387Y-41821921D01*
X163196443Y-41829773D01*
X163173834Y-41835437D01*
X163150779Y-41838856D01*
X163127500Y-41840000D01*
X162652500Y-41840000D01*
X162629221Y-41838856D01*
X162606166Y-41835437D01*
X162583557Y-41829773D01*
X162561613Y-41821921D01*
X162540543Y-41811956D01*
X162520552Y-41799974D01*
X162501832Y-41786090D01*
X162484562Y-41770438D01*
X162468910Y-41753168D01*
X162455026Y-41734448D01*
X162443044Y-41714457D01*
X162433079Y-41693387D01*
X162425227Y-41671443D01*
X162419563Y-41648834D01*
X162416144Y-41625779D01*
X162415000Y-41602500D01*
X162415000Y-41027500D01*
X162416144Y-41004221D01*
X162419563Y-40981166D01*
X162425227Y-40958557D01*
X162433079Y-40936613D01*
X162443044Y-40915543D01*
X162455026Y-40895552D01*
X162468910Y-40876832D01*
X162484562Y-40859562D01*
X162501832Y-40843910D01*
X162520552Y-40830026D01*
X162540543Y-40818044D01*
X162561613Y-40808079D01*
X162583557Y-40800227D01*
X162606166Y-40794563D01*
X162629221Y-40791144D01*
X162652500Y-40790000D01*
X163127500Y-40790000D01*
X163150779Y-40791144D01*
G37*
G36*
X163150779Y-42541144D02*
G01*
X163173834Y-42544563D01*
X163196443Y-42550227D01*
X163218387Y-42558079D01*
X163239457Y-42568044D01*
X163259448Y-42580026D01*
X163278168Y-42593910D01*
X163295438Y-42609562D01*
X163311090Y-42626832D01*
X163324974Y-42645552D01*
X163336956Y-42665543D01*
X163346921Y-42686613D01*
X163354773Y-42708557D01*
X163360437Y-42731166D01*
X163363856Y-42754221D01*
X163365000Y-42777500D01*
X163365000Y-43352500D01*
X163363856Y-43375779D01*
X163360437Y-43398834D01*
X163354773Y-43421443D01*
X163346921Y-43443387D01*
X163336956Y-43464457D01*
X163324974Y-43484448D01*
X163311090Y-43503168D01*
X163295438Y-43520438D01*
X163278168Y-43536090D01*
X163259448Y-43549974D01*
X163239457Y-43561956D01*
X163218387Y-43571921D01*
X163196443Y-43579773D01*
X163173834Y-43585437D01*
X163150779Y-43588856D01*
X163127500Y-43590000D01*
X162652500Y-43590000D01*
X162629221Y-43588856D01*
X162606166Y-43585437D01*
X162583557Y-43579773D01*
X162561613Y-43571921D01*
X162540543Y-43561956D01*
X162520552Y-43549974D01*
X162501832Y-43536090D01*
X162484562Y-43520438D01*
X162468910Y-43503168D01*
X162455026Y-43484448D01*
X162443044Y-43464457D01*
X162433079Y-43443387D01*
X162425227Y-43421443D01*
X162419563Y-43398834D01*
X162416144Y-43375779D01*
X162415000Y-43352500D01*
X162415000Y-42777500D01*
X162416144Y-42754221D01*
X162419563Y-42731166D01*
X162425227Y-42708557D01*
X162433079Y-42686613D01*
X162443044Y-42665543D01*
X162455026Y-42645552D01*
X162468910Y-42626832D01*
X162484562Y-42609562D01*
X162501832Y-42593910D01*
X162520552Y-42580026D01*
X162540543Y-42568044D01*
X162561613Y-42558079D01*
X162583557Y-42550227D01*
X162606166Y-42544563D01*
X162629221Y-42541144D01*
X162652500Y-42540000D01*
X163127500Y-42540000D01*
X163150779Y-42541144D01*
G37*
G04 #@! TD*
G04 #@! TO.C,R1*
G36*
X128600779Y-47711144D02*
G01*
X128623834Y-47714563D01*
X128646443Y-47720227D01*
X128668387Y-47728079D01*
X128689457Y-47738044D01*
X128709448Y-47750026D01*
X128728168Y-47763910D01*
X128745438Y-47779562D01*
X128761090Y-47796832D01*
X128774974Y-47815552D01*
X128786956Y-47835543D01*
X128796921Y-47856613D01*
X128804773Y-47878557D01*
X128810437Y-47901166D01*
X128813856Y-47924221D01*
X128815000Y-47947500D01*
X128815000Y-48522500D01*
X128813856Y-48545779D01*
X128810437Y-48568834D01*
X128804773Y-48591443D01*
X128796921Y-48613387D01*
X128786956Y-48634457D01*
X128774974Y-48654448D01*
X128761090Y-48673168D01*
X128745438Y-48690438D01*
X128728168Y-48706090D01*
X128709448Y-48719974D01*
X128689457Y-48731956D01*
X128668387Y-48741921D01*
X128646443Y-48749773D01*
X128623834Y-48755437D01*
X128600779Y-48758856D01*
X128577500Y-48760000D01*
X128102500Y-48760000D01*
X128079221Y-48758856D01*
X128056166Y-48755437D01*
X128033557Y-48749773D01*
X128011613Y-48741921D01*
X127990543Y-48731956D01*
X127970552Y-48719974D01*
X127951832Y-48706090D01*
X127934562Y-48690438D01*
X127918910Y-48673168D01*
X127905026Y-48654448D01*
X127893044Y-48634457D01*
X127883079Y-48613387D01*
X127875227Y-48591443D01*
X127869563Y-48568834D01*
X127866144Y-48545779D01*
X127865000Y-48522500D01*
X127865000Y-47947500D01*
X127866144Y-47924221D01*
X127869563Y-47901166D01*
X127875227Y-47878557D01*
X127883079Y-47856613D01*
X127893044Y-47835543D01*
X127905026Y-47815552D01*
X127918910Y-47796832D01*
X127934562Y-47779562D01*
X127951832Y-47763910D01*
X127970552Y-47750026D01*
X127990543Y-47738044D01*
X128011613Y-47728079D01*
X128033557Y-47720227D01*
X128056166Y-47714563D01*
X128079221Y-47711144D01*
X128102500Y-47710000D01*
X128577500Y-47710000D01*
X128600779Y-47711144D01*
G37*
G36*
X128600779Y-45961144D02*
G01*
X128623834Y-45964563D01*
X128646443Y-45970227D01*
X128668387Y-45978079D01*
X128689457Y-45988044D01*
X128709448Y-46000026D01*
X128728168Y-46013910D01*
X128745438Y-46029562D01*
X128761090Y-46046832D01*
X128774974Y-46065552D01*
X128786956Y-46085543D01*
X128796921Y-46106613D01*
X128804773Y-46128557D01*
X128810437Y-46151166D01*
X128813856Y-46174221D01*
X128815000Y-46197500D01*
X128815000Y-46772500D01*
X128813856Y-46795779D01*
X128810437Y-46818834D01*
X128804773Y-46841443D01*
X128796921Y-46863387D01*
X128786956Y-46884457D01*
X128774974Y-46904448D01*
X128761090Y-46923168D01*
X128745438Y-46940438D01*
X128728168Y-46956090D01*
X128709448Y-46969974D01*
X128689457Y-46981956D01*
X128668387Y-46991921D01*
X128646443Y-46999773D01*
X128623834Y-47005437D01*
X128600779Y-47008856D01*
X128577500Y-47010000D01*
X128102500Y-47010000D01*
X128079221Y-47008856D01*
X128056166Y-47005437D01*
X128033557Y-46999773D01*
X128011613Y-46991921D01*
X127990543Y-46981956D01*
X127970552Y-46969974D01*
X127951832Y-46956090D01*
X127934562Y-46940438D01*
X127918910Y-46923168D01*
X127905026Y-46904448D01*
X127893044Y-46884457D01*
X127883079Y-46863387D01*
X127875227Y-46841443D01*
X127869563Y-46818834D01*
X127866144Y-46795779D01*
X127865000Y-46772500D01*
X127865000Y-46197500D01*
X127866144Y-46174221D01*
X127869563Y-46151166D01*
X127875227Y-46128557D01*
X127883079Y-46106613D01*
X127893044Y-46085543D01*
X127905026Y-46065552D01*
X127918910Y-46046832D01*
X127934562Y-46029562D01*
X127951832Y-46013910D01*
X127970552Y-46000026D01*
X127990543Y-45988044D01*
X128011613Y-45978079D01*
X128033557Y-45970227D01*
X128056166Y-45964563D01*
X128079221Y-45961144D01*
X128102500Y-45960000D01*
X128577500Y-45960000D01*
X128600779Y-45961144D01*
G37*
G04 #@! TD*
G04 #@! TO.C,C2*
G36*
X168485779Y-32556144D02*
G01*
X168508834Y-32559563D01*
X168531443Y-32565227D01*
X168553387Y-32573079D01*
X168574457Y-32583044D01*
X168594448Y-32595026D01*
X168613168Y-32608910D01*
X168630438Y-32624562D01*
X168646090Y-32641832D01*
X168659974Y-32660552D01*
X168671956Y-32680543D01*
X168681921Y-32701613D01*
X168689773Y-32723557D01*
X168695437Y-32746166D01*
X168698856Y-32769221D01*
X168700000Y-32792500D01*
X168700000Y-33267500D01*
X168698856Y-33290779D01*
X168695437Y-33313834D01*
X168689773Y-33336443D01*
X168681921Y-33358387D01*
X168671956Y-33379457D01*
X168659974Y-33399448D01*
X168646090Y-33418168D01*
X168630438Y-33435438D01*
X168613168Y-33451090D01*
X168594448Y-33464974D01*
X168574457Y-33476956D01*
X168553387Y-33486921D01*
X168531443Y-33494773D01*
X168508834Y-33500437D01*
X168485779Y-33503856D01*
X168462500Y-33505000D01*
X167887500Y-33505000D01*
X167864221Y-33503856D01*
X167841166Y-33500437D01*
X167818557Y-33494773D01*
X167796613Y-33486921D01*
X167775543Y-33476956D01*
X167755552Y-33464974D01*
X167736832Y-33451090D01*
X167719562Y-33435438D01*
X167703910Y-33418168D01*
X167690026Y-33399448D01*
X167678044Y-33379457D01*
X167668079Y-33358387D01*
X167660227Y-33336443D01*
X167654563Y-33313834D01*
X167651144Y-33290779D01*
X167650000Y-33267500D01*
X167650000Y-32792500D01*
X167651144Y-32769221D01*
X167654563Y-32746166D01*
X167660227Y-32723557D01*
X167668079Y-32701613D01*
X167678044Y-32680543D01*
X167690026Y-32660552D01*
X167703910Y-32641832D01*
X167719562Y-32624562D01*
X167736832Y-32608910D01*
X167755552Y-32595026D01*
X167775543Y-32583044D01*
X167796613Y-32573079D01*
X167818557Y-32565227D01*
X167841166Y-32559563D01*
X167864221Y-32556144D01*
X167887500Y-32555000D01*
X168462500Y-32555000D01*
X168485779Y-32556144D01*
G37*
G36*
X170235779Y-32556144D02*
G01*
X170258834Y-32559563D01*
X170281443Y-32565227D01*
X170303387Y-32573079D01*
X170324457Y-32583044D01*
X170344448Y-32595026D01*
X170363168Y-32608910D01*
X170380438Y-32624562D01*
X170396090Y-32641832D01*
X170409974Y-32660552D01*
X170421956Y-32680543D01*
X170431921Y-32701613D01*
X170439773Y-32723557D01*
X170445437Y-32746166D01*
X170448856Y-32769221D01*
X170450000Y-32792500D01*
X170450000Y-33267500D01*
X170448856Y-33290779D01*
X170445437Y-33313834D01*
X170439773Y-33336443D01*
X170431921Y-33358387D01*
X170421956Y-33379457D01*
X170409974Y-33399448D01*
X170396090Y-33418168D01*
X170380438Y-33435438D01*
X170363168Y-33451090D01*
X170344448Y-33464974D01*
X170324457Y-33476956D01*
X170303387Y-33486921D01*
X170281443Y-33494773D01*
X170258834Y-33500437D01*
X170235779Y-33503856D01*
X170212500Y-33505000D01*
X169637500Y-33505000D01*
X169614221Y-33503856D01*
X169591166Y-33500437D01*
X169568557Y-33494773D01*
X169546613Y-33486921D01*
X169525543Y-33476956D01*
X169505552Y-33464974D01*
X169486832Y-33451090D01*
X169469562Y-33435438D01*
X169453910Y-33418168D01*
X169440026Y-33399448D01*
X169428044Y-33379457D01*
X169418079Y-33358387D01*
X169410227Y-33336443D01*
X169404563Y-33313834D01*
X169401144Y-33290779D01*
X169400000Y-33267500D01*
X169400000Y-32792500D01*
X169401144Y-32769221D01*
X169404563Y-32746166D01*
X169410227Y-32723557D01*
X169418079Y-32701613D01*
X169428044Y-32680543D01*
X169440026Y-32660552D01*
X169453910Y-32641832D01*
X169469562Y-32624562D01*
X169486832Y-32608910D01*
X169505552Y-32595026D01*
X169525543Y-32583044D01*
X169546613Y-32573079D01*
X169568557Y-32565227D01*
X169591166Y-32559563D01*
X169614221Y-32556144D01*
X169637500Y-32555000D01*
X170212500Y-32555000D01*
X170235779Y-32556144D01*
G37*
G04 #@! TD*
M02*
