G04 #@! TF.GenerationSoftware,KiCad,Pcbnew,(5.1.5)-3*
G04 #@! TF.CreationDate,2020-04-03T10:30:42+02:00*
G04 #@! TF.ProjectId,carecasetester,63617265-6361-4736-9574-65737465722e,rev?*
G04 #@! TF.SameCoordinates,Original*
G04 #@! TF.FileFunction,Legend,Top*
G04 #@! TF.FilePolarity,Positive*
%FSLAX46Y46*%
G04 Gerber Fmt 4.6, Leading zero omitted, Abs format (unit mm)*
G04 Created by KiCad (PCBNEW (5.1.5)-3) date 2020-04-03 10:30:42*
%MOMM*%
%LPD*%
G04 APERTURE LIST*
%ADD10C,0.300000*%
%ADD11C,0.250000*%
%ADD12C,0.187500*%
%ADD13C,0.200000*%
%ADD14C,0.100000*%
%ADD15C,0.120000*%
%ADD16C,0.150000*%
G04 APERTURE END LIST*
D10*
X137583571Y-14795714D02*
X137583571Y-15510000D01*
X138297857Y-15581428D01*
X138226428Y-15510000D01*
X138155000Y-15367142D01*
X138155000Y-15010000D01*
X138226428Y-14867142D01*
X138297857Y-14795714D01*
X138440714Y-14724285D01*
X138797857Y-14724285D01*
X138940714Y-14795714D01*
X139012142Y-14867142D01*
X139083571Y-15010000D01*
X139083571Y-15367142D01*
X139012142Y-15510000D01*
X138940714Y-15581428D01*
X137583571Y-14295714D02*
X139083571Y-13795714D01*
X137583571Y-13295714D01*
X140133571Y-18117142D02*
X141205000Y-18117142D01*
X141419285Y-18188571D01*
X141562142Y-18331428D01*
X141633571Y-18545714D01*
X141633571Y-18688571D01*
X140133571Y-17402857D02*
X141347857Y-17402857D01*
X141490714Y-17331428D01*
X141562142Y-17260000D01*
X141633571Y-17117142D01*
X141633571Y-16831428D01*
X141562142Y-16688571D01*
X141490714Y-16617142D01*
X141347857Y-16545714D01*
X140133571Y-16545714D01*
X141633571Y-15831428D02*
X140133571Y-15831428D01*
X141205000Y-15331428D01*
X140133571Y-14831428D01*
X141633571Y-14831428D01*
X141633571Y-14117142D02*
X140133571Y-14117142D01*
X140133571Y-13545714D01*
X140205000Y-13402857D01*
X140276428Y-13331428D01*
X140419285Y-13260000D01*
X140633571Y-13260000D01*
X140776428Y-13331428D01*
X140847857Y-13402857D01*
X140919285Y-13545714D01*
X140919285Y-14117142D01*
X140847857Y-12617142D02*
X140847857Y-12117142D01*
X141633571Y-11902857D02*
X141633571Y-12617142D01*
X140133571Y-12617142D01*
X140133571Y-11902857D01*
X141633571Y-10402857D02*
X140919285Y-10902857D01*
X141633571Y-11260000D02*
X140133571Y-11260000D01*
X140133571Y-10688571D01*
X140205000Y-10545714D01*
X140276428Y-10474285D01*
X140419285Y-10402857D01*
X140633571Y-10402857D01*
X140776428Y-10474285D01*
X140847857Y-10545714D01*
X140919285Y-10688571D01*
X140919285Y-11260000D01*
D11*
X129565000Y-14810000D02*
X129565000Y-13452857D01*
X130862857Y-14452857D02*
X130862857Y-13952857D01*
X131648571Y-13738571D02*
X131648571Y-14452857D01*
X130148571Y-14452857D01*
X130148571Y-13738571D01*
X129565000Y-13452857D02*
X129565000Y-12310000D01*
X130148571Y-13310000D02*
X130148571Y-12452857D01*
X131648571Y-12881428D02*
X130148571Y-12881428D01*
X132720000Y-14702857D02*
X132648571Y-14845714D01*
X132648571Y-15060000D01*
X132720000Y-15274285D01*
X132862857Y-15417142D01*
X133005714Y-15488571D01*
X133291428Y-15560000D01*
X133505714Y-15560000D01*
X133791428Y-15488571D01*
X133934285Y-15417142D01*
X134077142Y-15274285D01*
X134148571Y-15060000D01*
X134148571Y-14917142D01*
X134077142Y-14702857D01*
X134005714Y-14631428D01*
X133505714Y-14631428D01*
X133505714Y-14917142D01*
X134148571Y-13988571D02*
X132648571Y-13988571D01*
X134148571Y-13131428D01*
X132648571Y-13131428D01*
X134148571Y-12417142D02*
X132648571Y-12417142D01*
X132648571Y-12060000D01*
X132720000Y-11845714D01*
X132862857Y-11702857D01*
X133005714Y-11631428D01*
X133291428Y-11560000D01*
X133505714Y-11560000D01*
X133791428Y-11631428D01*
X133934285Y-11702857D01*
X134077142Y-11845714D01*
X134148571Y-12060000D01*
X134148571Y-12417142D01*
X142860000Y-14642857D02*
X142788571Y-14785714D01*
X142788571Y-15000000D01*
X142860000Y-15214285D01*
X143002857Y-15357142D01*
X143145714Y-15428571D01*
X143431428Y-15500000D01*
X143645714Y-15500000D01*
X143931428Y-15428571D01*
X144074285Y-15357142D01*
X144217142Y-15214285D01*
X144288571Y-15000000D01*
X144288571Y-14857142D01*
X144217142Y-14642857D01*
X144145714Y-14571428D01*
X143645714Y-14571428D01*
X143645714Y-14857142D01*
X144288571Y-13928571D02*
X142788571Y-13928571D01*
X144288571Y-13071428D01*
X142788571Y-13071428D01*
X144288571Y-12357142D02*
X142788571Y-12357142D01*
X142788571Y-12000000D01*
X142860000Y-11785714D01*
X143002857Y-11642857D01*
X143145714Y-11571428D01*
X143431428Y-11500000D01*
X143645714Y-11500000D01*
X143931428Y-11571428D01*
X144074285Y-11642857D01*
X144217142Y-11785714D01*
X144288571Y-12000000D01*
X144288571Y-12357142D01*
X146645714Y-15071428D02*
X146717142Y-15142857D01*
X146788571Y-15357142D01*
X146788571Y-15500000D01*
X146717142Y-15714285D01*
X146574285Y-15857142D01*
X146431428Y-15928571D01*
X146145714Y-16000000D01*
X145931428Y-16000000D01*
X145645714Y-15928571D01*
X145502857Y-15857142D01*
X145360000Y-15714285D01*
X145288571Y-15500000D01*
X145288571Y-15357142D01*
X145360000Y-15142857D01*
X145431428Y-15071428D01*
X145288571Y-14642857D02*
X145288571Y-13785714D01*
X146788571Y-14214285D02*
X145288571Y-14214285D01*
X146717142Y-13357142D02*
X146788571Y-13142857D01*
X146788571Y-12785714D01*
X146717142Y-12642857D01*
X146645714Y-12571428D01*
X146502857Y-12500000D01*
X146360000Y-12500000D01*
X146217142Y-12571428D01*
X146145714Y-12642857D01*
X146074285Y-12785714D01*
X146002857Y-13071428D01*
X145931428Y-13214285D01*
X145860000Y-13285714D01*
X145717142Y-13357142D01*
X145574285Y-13357142D01*
X145431428Y-13285714D01*
X145360000Y-13214285D01*
X145288571Y-13071428D01*
X145288571Y-12714285D01*
X145360000Y-12500000D01*
X145788571Y-11928571D02*
X145788571Y-10857142D01*
X145145714Y-11500000D02*
X147074285Y-11928571D01*
X146431428Y-11000000D02*
X146431428Y-12071428D01*
X147074285Y-11428571D02*
X145145714Y-11000000D01*
X148717142Y-15428571D02*
X148717142Y-14285714D01*
X149288571Y-14857142D02*
X148145714Y-14857142D01*
X147788571Y-12857142D02*
X147788571Y-13571428D01*
X148502857Y-13642857D01*
X148431428Y-13571428D01*
X148360000Y-13428571D01*
X148360000Y-13071428D01*
X148431428Y-12928571D01*
X148502857Y-12857142D01*
X148645714Y-12785714D01*
X149002857Y-12785714D01*
X149145714Y-12857142D01*
X149217142Y-12928571D01*
X149288571Y-13071428D01*
X149288571Y-13428571D01*
X149217142Y-13571428D01*
X149145714Y-13642857D01*
X147788571Y-12357142D02*
X149288571Y-11857142D01*
X147788571Y-11357142D01*
X150288571Y-15392857D02*
X150288571Y-14535714D01*
X151788571Y-14964285D02*
X150288571Y-14964285D01*
X150288571Y-14178571D02*
X151788571Y-13178571D01*
X150288571Y-13178571D02*
X151788571Y-14178571D01*
X151788571Y-12607142D02*
X150288571Y-12607142D01*
X150288571Y-12250000D01*
X150360000Y-12035714D01*
X150502857Y-11892857D01*
X150645714Y-11821428D01*
X150931428Y-11750000D01*
X151145714Y-11750000D01*
X151431428Y-11821428D01*
X151574285Y-11892857D01*
X151717142Y-12035714D01*
X151788571Y-12250000D01*
X151788571Y-12607142D01*
X154288571Y-14500000D02*
X153574285Y-15000000D01*
X154288571Y-15357142D02*
X152788571Y-15357142D01*
X152788571Y-14785714D01*
X152860000Y-14642857D01*
X152931428Y-14571428D01*
X153074285Y-14500000D01*
X153288571Y-14500000D01*
X153431428Y-14571428D01*
X153502857Y-14642857D01*
X153574285Y-14785714D01*
X153574285Y-15357142D01*
X152788571Y-14000000D02*
X154288571Y-13000000D01*
X152788571Y-13000000D02*
X154288571Y-14000000D01*
X154288571Y-12428571D02*
X152788571Y-12428571D01*
X152788571Y-12071428D01*
X152860000Y-11857142D01*
X153002857Y-11714285D01*
X153145714Y-11642857D01*
X153431428Y-11571428D01*
X153645714Y-11571428D01*
X153931428Y-11642857D01*
X154074285Y-11714285D01*
X154217142Y-11857142D01*
X154288571Y-12071428D01*
X154288571Y-12428571D01*
X156788571Y-15071428D02*
X156074285Y-15571428D01*
X156788571Y-15928571D02*
X155288571Y-15928571D01*
X155288571Y-15357142D01*
X155360000Y-15214285D01*
X155431428Y-15142857D01*
X155574285Y-15071428D01*
X155788571Y-15071428D01*
X155931428Y-15142857D01*
X156002857Y-15214285D01*
X156074285Y-15357142D01*
X156074285Y-15928571D01*
X155288571Y-14642857D02*
X155288571Y-13785714D01*
X156788571Y-14214285D02*
X155288571Y-14214285D01*
X156717142Y-13357142D02*
X156788571Y-13142857D01*
X156788571Y-12785714D01*
X156717142Y-12642857D01*
X156645714Y-12571428D01*
X156502857Y-12500000D01*
X156360000Y-12500000D01*
X156217142Y-12571428D01*
X156145714Y-12642857D01*
X156074285Y-12785714D01*
X156002857Y-13071428D01*
X155931428Y-13214285D01*
X155860000Y-13285714D01*
X155717142Y-13357142D01*
X155574285Y-13357142D01*
X155431428Y-13285714D01*
X155360000Y-13214285D01*
X155288571Y-13071428D01*
X155288571Y-12714285D01*
X155360000Y-12500000D01*
X155788571Y-11928571D02*
X155788571Y-10857142D01*
X155145714Y-11500000D02*
X157074285Y-11928571D01*
X156431428Y-11000000D02*
X156431428Y-12071428D01*
X157074285Y-11428571D02*
X155145714Y-11000000D01*
D10*
X88135000Y-14482857D02*
X88063571Y-14625714D01*
X88063571Y-14840000D01*
X88135000Y-15054285D01*
X88277857Y-15197142D01*
X88420714Y-15268571D01*
X88706428Y-15340000D01*
X88920714Y-15340000D01*
X89206428Y-15268571D01*
X89349285Y-15197142D01*
X89492142Y-15054285D01*
X89563571Y-14840000D01*
X89563571Y-14697142D01*
X89492142Y-14482857D01*
X89420714Y-14411428D01*
X88920714Y-14411428D01*
X88920714Y-14697142D01*
X89563571Y-13768571D02*
X88063571Y-13768571D01*
X89563571Y-12911428D01*
X88063571Y-12911428D01*
X89563571Y-12197142D02*
X88063571Y-12197142D01*
X88063571Y-11840000D01*
X88135000Y-11625714D01*
X88277857Y-11482857D01*
X88420714Y-11411428D01*
X88706428Y-11340000D01*
X88920714Y-11340000D01*
X89206428Y-11411428D01*
X89349285Y-11482857D01*
X89492142Y-11625714D01*
X89563571Y-11840000D01*
X89563571Y-12197142D01*
X90613571Y-15232857D02*
X90613571Y-14375714D01*
X92113571Y-14804285D02*
X90613571Y-14804285D01*
X92113571Y-13875714D02*
X90613571Y-13875714D01*
X90613571Y-13304285D01*
X90685000Y-13161428D01*
X90756428Y-13090000D01*
X90899285Y-13018571D01*
X91113571Y-13018571D01*
X91256428Y-13090000D01*
X91327857Y-13161428D01*
X91399285Y-13304285D01*
X91399285Y-13875714D01*
X92113571Y-11590000D02*
X92113571Y-12447142D01*
X92113571Y-12018571D02*
X90613571Y-12018571D01*
X90827857Y-12161428D01*
X90970714Y-12304285D01*
X91042142Y-12447142D01*
X93163571Y-15232857D02*
X93163571Y-14375714D01*
X94663571Y-14804285D02*
X93163571Y-14804285D01*
X94663571Y-13875714D02*
X93163571Y-13875714D01*
X93163571Y-13304285D01*
X93235000Y-13161428D01*
X93306428Y-13090000D01*
X93449285Y-13018571D01*
X93663571Y-13018571D01*
X93806428Y-13090000D01*
X93877857Y-13161428D01*
X93949285Y-13304285D01*
X93949285Y-13875714D01*
X93306428Y-12447142D02*
X93235000Y-12375714D01*
X93163571Y-12232857D01*
X93163571Y-11875714D01*
X93235000Y-11732857D01*
X93306428Y-11661428D01*
X93449285Y-11590000D01*
X93592142Y-11590000D01*
X93806428Y-11661428D01*
X94663571Y-12518571D01*
X94663571Y-11590000D01*
X95713571Y-15232857D02*
X95713571Y-14375714D01*
X97213571Y-14804285D02*
X95713571Y-14804285D01*
X97213571Y-13875714D02*
X95713571Y-13875714D01*
X95713571Y-13304285D01*
X95785000Y-13161428D01*
X95856428Y-13090000D01*
X95999285Y-13018571D01*
X96213571Y-13018571D01*
X96356428Y-13090000D01*
X96427857Y-13161428D01*
X96499285Y-13304285D01*
X96499285Y-13875714D01*
X95713571Y-12518571D02*
X95713571Y-11590000D01*
X96285000Y-12090000D01*
X96285000Y-11875714D01*
X96356428Y-11732857D01*
X96427857Y-11661428D01*
X96570714Y-11590000D01*
X96927857Y-11590000D01*
X97070714Y-11661428D01*
X97142142Y-11732857D01*
X97213571Y-11875714D01*
X97213571Y-12304285D01*
X97142142Y-12447142D01*
X97070714Y-12518571D01*
X98263571Y-15232857D02*
X98263571Y-14375714D01*
X99763571Y-14804285D02*
X98263571Y-14804285D01*
X99763571Y-13875714D02*
X98263571Y-13875714D01*
X98263571Y-13304285D01*
X98335000Y-13161428D01*
X98406428Y-13090000D01*
X98549285Y-13018571D01*
X98763571Y-13018571D01*
X98906428Y-13090000D01*
X98977857Y-13161428D01*
X99049285Y-13304285D01*
X99049285Y-13875714D01*
X98763571Y-11732857D02*
X99763571Y-11732857D01*
X98192142Y-12090000D02*
X99263571Y-12447142D01*
X99263571Y-11518571D01*
X100813571Y-15232857D02*
X100813571Y-14375714D01*
X102313571Y-14804285D02*
X100813571Y-14804285D01*
X102313571Y-13875714D02*
X100813571Y-13875714D01*
X100813571Y-13304285D01*
X100885000Y-13161428D01*
X100956428Y-13090000D01*
X101099285Y-13018571D01*
X101313571Y-13018571D01*
X101456428Y-13090000D01*
X101527857Y-13161428D01*
X101599285Y-13304285D01*
X101599285Y-13875714D01*
X100813571Y-11732857D02*
X100813571Y-12018571D01*
X100885000Y-12161428D01*
X100956428Y-12232857D01*
X101170714Y-12375714D01*
X101456428Y-12447142D01*
X102027857Y-12447142D01*
X102170714Y-12375714D01*
X102242142Y-12304285D01*
X102313571Y-12161428D01*
X102313571Y-11875714D01*
X102242142Y-11732857D01*
X102170714Y-11661428D01*
X102027857Y-11590000D01*
X101670714Y-11590000D01*
X101527857Y-11661428D01*
X101456428Y-11732857D01*
X101385000Y-11875714D01*
X101385000Y-12161428D01*
X101456428Y-12304285D01*
X101527857Y-12375714D01*
X101670714Y-12447142D01*
X103363571Y-15232857D02*
X103363571Y-14375714D01*
X104863571Y-14804285D02*
X103363571Y-14804285D01*
X104863571Y-13875714D02*
X103363571Y-13875714D01*
X103363571Y-13304285D01*
X103435000Y-13161428D01*
X103506428Y-13090000D01*
X103649285Y-13018571D01*
X103863571Y-13018571D01*
X104006428Y-13090000D01*
X104077857Y-13161428D01*
X104149285Y-13304285D01*
X104149285Y-13875714D01*
X104863571Y-12304285D02*
X104863571Y-12018571D01*
X104792142Y-11875714D01*
X104720714Y-11804285D01*
X104506428Y-11661428D01*
X104220714Y-11590000D01*
X103649285Y-11590000D01*
X103506428Y-11661428D01*
X103435000Y-11732857D01*
X103363571Y-11875714D01*
X103363571Y-12161428D01*
X103435000Y-12304285D01*
X103506428Y-12375714D01*
X103649285Y-12447142D01*
X104006428Y-12447142D01*
X104149285Y-12375714D01*
X104220714Y-12304285D01*
X104292142Y-12161428D01*
X104292142Y-11875714D01*
X104220714Y-11732857D01*
X104149285Y-11661428D01*
X104006428Y-11590000D01*
X105913571Y-15947142D02*
X105913571Y-15090000D01*
X107413571Y-15518571D02*
X105913571Y-15518571D01*
X107413571Y-14590000D02*
X105913571Y-14590000D01*
X105913571Y-14018571D01*
X105985000Y-13875714D01*
X106056428Y-13804285D01*
X106199285Y-13732857D01*
X106413571Y-13732857D01*
X106556428Y-13804285D01*
X106627857Y-13875714D01*
X106699285Y-14018571D01*
X106699285Y-14590000D01*
X107413571Y-12304285D02*
X107413571Y-13161428D01*
X107413571Y-12732857D02*
X105913571Y-12732857D01*
X106127857Y-12875714D01*
X106270714Y-13018571D01*
X106342142Y-13161428D01*
X105913571Y-11375714D02*
X105913571Y-11232857D01*
X105985000Y-11090000D01*
X106056428Y-11018571D01*
X106199285Y-10947142D01*
X106485000Y-10875714D01*
X106842142Y-10875714D01*
X107127857Y-10947142D01*
X107270714Y-11018571D01*
X107342142Y-11090000D01*
X107413571Y-11232857D01*
X107413571Y-11375714D01*
X107342142Y-11518571D01*
X107270714Y-11590000D01*
X107127857Y-11661428D01*
X106842142Y-11732857D01*
X106485000Y-11732857D01*
X106199285Y-11661428D01*
X106056428Y-11590000D01*
X105985000Y-11518571D01*
X105913571Y-11375714D01*
X108463571Y-15947142D02*
X108463571Y-15090000D01*
X109963571Y-15518571D02*
X108463571Y-15518571D01*
X109963571Y-14590000D02*
X108463571Y-14590000D01*
X108463571Y-14018571D01*
X108535000Y-13875714D01*
X108606428Y-13804285D01*
X108749285Y-13732857D01*
X108963571Y-13732857D01*
X109106428Y-13804285D01*
X109177857Y-13875714D01*
X109249285Y-14018571D01*
X109249285Y-14590000D01*
X109963571Y-12304285D02*
X109963571Y-13161428D01*
X109963571Y-12732857D02*
X108463571Y-12732857D01*
X108677857Y-12875714D01*
X108820714Y-13018571D01*
X108892142Y-13161428D01*
X109963571Y-10875714D02*
X109963571Y-11732857D01*
X109963571Y-11304285D02*
X108463571Y-11304285D01*
X108677857Y-11447142D01*
X108820714Y-11590000D01*
X108892142Y-11732857D01*
X111013571Y-15947142D02*
X111013571Y-15090000D01*
X112513571Y-15518571D02*
X111013571Y-15518571D01*
X112513571Y-14590000D02*
X111013571Y-14590000D01*
X111013571Y-14018571D01*
X111085000Y-13875714D01*
X111156428Y-13804285D01*
X111299285Y-13732857D01*
X111513571Y-13732857D01*
X111656428Y-13804285D01*
X111727857Y-13875714D01*
X111799285Y-14018571D01*
X111799285Y-14590000D01*
X112513571Y-12304285D02*
X112513571Y-13161428D01*
X112513571Y-12732857D02*
X111013571Y-12732857D01*
X111227857Y-12875714D01*
X111370714Y-13018571D01*
X111442142Y-13161428D01*
X111156428Y-11732857D02*
X111085000Y-11661428D01*
X111013571Y-11518571D01*
X111013571Y-11161428D01*
X111085000Y-11018571D01*
X111156428Y-10947142D01*
X111299285Y-10875714D01*
X111442142Y-10875714D01*
X111656428Y-10947142D01*
X112513571Y-11804285D01*
X112513571Y-10875714D01*
X113563571Y-15947142D02*
X113563571Y-15090000D01*
X115063571Y-15518571D02*
X113563571Y-15518571D01*
X115063571Y-14590000D02*
X113563571Y-14590000D01*
X113563571Y-14018571D01*
X113635000Y-13875714D01*
X113706428Y-13804285D01*
X113849285Y-13732857D01*
X114063571Y-13732857D01*
X114206428Y-13804285D01*
X114277857Y-13875714D01*
X114349285Y-14018571D01*
X114349285Y-14590000D01*
X115063571Y-12304285D02*
X115063571Y-13161428D01*
X115063571Y-12732857D02*
X113563571Y-12732857D01*
X113777857Y-12875714D01*
X113920714Y-13018571D01*
X113992142Y-13161428D01*
X113563571Y-10947142D02*
X113563571Y-11661428D01*
X114277857Y-11732857D01*
X114206428Y-11661428D01*
X114135000Y-11518571D01*
X114135000Y-11161428D01*
X114206428Y-11018571D01*
X114277857Y-10947142D01*
X114420714Y-10875714D01*
X114777857Y-10875714D01*
X114920714Y-10947142D01*
X114992142Y-11018571D01*
X115063571Y-11161428D01*
X115063571Y-11518571D01*
X114992142Y-11661428D01*
X114920714Y-11732857D01*
X116113571Y-15947142D02*
X116113571Y-15090000D01*
X117613571Y-15518571D02*
X116113571Y-15518571D01*
X117613571Y-14590000D02*
X116113571Y-14590000D01*
X116113571Y-14018571D01*
X116185000Y-13875714D01*
X116256428Y-13804285D01*
X116399285Y-13732857D01*
X116613571Y-13732857D01*
X116756428Y-13804285D01*
X116827857Y-13875714D01*
X116899285Y-14018571D01*
X116899285Y-14590000D01*
X117613571Y-12304285D02*
X117613571Y-13161428D01*
X117613571Y-12732857D02*
X116113571Y-12732857D01*
X116327857Y-12875714D01*
X116470714Y-13018571D01*
X116542142Y-13161428D01*
X116756428Y-11447142D02*
X116685000Y-11590000D01*
X116613571Y-11661428D01*
X116470714Y-11732857D01*
X116399285Y-11732857D01*
X116256428Y-11661428D01*
X116185000Y-11590000D01*
X116113571Y-11447142D01*
X116113571Y-11161428D01*
X116185000Y-11018571D01*
X116256428Y-10947142D01*
X116399285Y-10875714D01*
X116470714Y-10875714D01*
X116613571Y-10947142D01*
X116685000Y-11018571D01*
X116756428Y-11161428D01*
X116756428Y-11447142D01*
X116827857Y-11590000D01*
X116899285Y-11661428D01*
X117042142Y-11732857D01*
X117327857Y-11732857D01*
X117470714Y-11661428D01*
X117542142Y-11590000D01*
X117613571Y-11447142D01*
X117613571Y-11161428D01*
X117542142Y-11018571D01*
X117470714Y-10947142D01*
X117327857Y-10875714D01*
X117042142Y-10875714D01*
X116899285Y-10947142D01*
X116827857Y-11018571D01*
X116756428Y-11161428D01*
X118663571Y-15232857D02*
X118663571Y-14375714D01*
X120163571Y-14804285D02*
X118663571Y-14804285D01*
X120163571Y-13875714D02*
X118663571Y-13875714D01*
X118663571Y-13304285D01*
X118735000Y-13161428D01*
X118806428Y-13090000D01*
X118949285Y-13018571D01*
X119163571Y-13018571D01*
X119306428Y-13090000D01*
X119377857Y-13161428D01*
X119449285Y-13304285D01*
X119449285Y-13875714D01*
X118663571Y-11661428D02*
X118663571Y-12375714D01*
X119377857Y-12447142D01*
X119306428Y-12375714D01*
X119235000Y-12232857D01*
X119235000Y-11875714D01*
X119306428Y-11732857D01*
X119377857Y-11661428D01*
X119520714Y-11590000D01*
X119877857Y-11590000D01*
X120020714Y-11661428D01*
X120092142Y-11732857D01*
X120163571Y-11875714D01*
X120163571Y-12232857D01*
X120092142Y-12375714D01*
X120020714Y-12447142D01*
X121213571Y-15947142D02*
X121213571Y-15090000D01*
X122713571Y-15518571D02*
X121213571Y-15518571D01*
X122713571Y-14590000D02*
X121213571Y-14590000D01*
X121213571Y-14018571D01*
X121285000Y-13875714D01*
X121356428Y-13804285D01*
X121499285Y-13732857D01*
X121713571Y-13732857D01*
X121856428Y-13804285D01*
X121927857Y-13875714D01*
X121999285Y-14018571D01*
X121999285Y-14590000D01*
X121356428Y-13161428D02*
X121285000Y-13090000D01*
X121213571Y-12947142D01*
X121213571Y-12590000D01*
X121285000Y-12447142D01*
X121356428Y-12375714D01*
X121499285Y-12304285D01*
X121642142Y-12304285D01*
X121856428Y-12375714D01*
X122713571Y-13232857D01*
X122713571Y-12304285D01*
X121213571Y-11018571D02*
X121213571Y-11304285D01*
X121285000Y-11447142D01*
X121356428Y-11518571D01*
X121570714Y-11661428D01*
X121856428Y-11732857D01*
X122427857Y-11732857D01*
X122570714Y-11661428D01*
X122642142Y-11590000D01*
X122713571Y-11447142D01*
X122713571Y-11161428D01*
X122642142Y-11018571D01*
X122570714Y-10947142D01*
X122427857Y-10875714D01*
X122070714Y-10875714D01*
X121927857Y-10947142D01*
X121856428Y-11018571D01*
X121785000Y-11161428D01*
X121785000Y-11447142D01*
X121856428Y-11590000D01*
X121927857Y-11661428D01*
X122070714Y-11732857D01*
X123835000Y-14482857D02*
X123763571Y-14625714D01*
X123763571Y-14840000D01*
X123835000Y-15054285D01*
X123977857Y-15197142D01*
X124120714Y-15268571D01*
X124406428Y-15340000D01*
X124620714Y-15340000D01*
X124906428Y-15268571D01*
X125049285Y-15197142D01*
X125192142Y-15054285D01*
X125263571Y-14840000D01*
X125263571Y-14697142D01*
X125192142Y-14482857D01*
X125120714Y-14411428D01*
X124620714Y-14411428D01*
X124620714Y-14697142D01*
X125263571Y-13768571D02*
X123763571Y-13768571D01*
X125263571Y-12911428D01*
X123763571Y-12911428D01*
X125263571Y-12197142D02*
X123763571Y-12197142D01*
X123763571Y-11840000D01*
X123835000Y-11625714D01*
X123977857Y-11482857D01*
X124120714Y-11411428D01*
X124406428Y-11340000D01*
X124620714Y-11340000D01*
X124906428Y-11411428D01*
X125049285Y-11482857D01*
X125192142Y-11625714D01*
X125263571Y-11840000D01*
X125263571Y-12197142D01*
X126385000Y-14482857D02*
X126313571Y-14625714D01*
X126313571Y-14840000D01*
X126385000Y-15054285D01*
X126527857Y-15197142D01*
X126670714Y-15268571D01*
X126956428Y-15340000D01*
X127170714Y-15340000D01*
X127456428Y-15268571D01*
X127599285Y-15197142D01*
X127742142Y-15054285D01*
X127813571Y-14840000D01*
X127813571Y-14697142D01*
X127742142Y-14482857D01*
X127670714Y-14411428D01*
X127170714Y-14411428D01*
X127170714Y-14697142D01*
X127813571Y-13768571D02*
X126313571Y-13768571D01*
X127813571Y-12911428D01*
X126313571Y-12911428D01*
X127813571Y-12197142D02*
X126313571Y-12197142D01*
X126313571Y-11840000D01*
X126385000Y-11625714D01*
X126527857Y-11482857D01*
X126670714Y-11411428D01*
X126956428Y-11340000D01*
X127170714Y-11340000D01*
X127456428Y-11411428D01*
X127599285Y-11482857D01*
X127742142Y-11625714D01*
X127813571Y-11840000D01*
X127813571Y-12197142D01*
D12*
X163997142Y-39816071D02*
X164104285Y-39851785D01*
X164282857Y-39851785D01*
X164354285Y-39816071D01*
X164390000Y-39780357D01*
X164425714Y-39708928D01*
X164425714Y-39637500D01*
X164390000Y-39566071D01*
X164354285Y-39530357D01*
X164282857Y-39494642D01*
X164140000Y-39458928D01*
X164068571Y-39423214D01*
X164032857Y-39387500D01*
X163997142Y-39316071D01*
X163997142Y-39244642D01*
X164032857Y-39173214D01*
X164068571Y-39137500D01*
X164140000Y-39101785D01*
X164318571Y-39101785D01*
X164425714Y-39137500D01*
X165175714Y-39780357D02*
X165140000Y-39816071D01*
X165032857Y-39851785D01*
X164961428Y-39851785D01*
X164854285Y-39816071D01*
X164782857Y-39744642D01*
X164747142Y-39673214D01*
X164711428Y-39530357D01*
X164711428Y-39423214D01*
X164747142Y-39280357D01*
X164782857Y-39208928D01*
X164854285Y-39137500D01*
X164961428Y-39101785D01*
X165032857Y-39101785D01*
X165140000Y-39137500D01*
X165175714Y-39173214D01*
X165854285Y-39851785D02*
X165497142Y-39851785D01*
X165497142Y-39101785D01*
X163979285Y-42441071D02*
X164086428Y-42476785D01*
X164265000Y-42476785D01*
X164336428Y-42441071D01*
X164372142Y-42405357D01*
X164407857Y-42333928D01*
X164407857Y-42262500D01*
X164372142Y-42191071D01*
X164336428Y-42155357D01*
X164265000Y-42119642D01*
X164122142Y-42083928D01*
X164050714Y-42048214D01*
X164015000Y-42012500D01*
X163979285Y-41941071D01*
X163979285Y-41869642D01*
X164015000Y-41798214D01*
X164050714Y-41762500D01*
X164122142Y-41726785D01*
X164300714Y-41726785D01*
X164407857Y-41762500D01*
X164729285Y-42476785D02*
X164729285Y-41726785D01*
X164907857Y-41726785D01*
X165015000Y-41762500D01*
X165086428Y-41833928D01*
X165122142Y-41905357D01*
X165157857Y-42048214D01*
X165157857Y-42155357D01*
X165122142Y-42298214D01*
X165086428Y-42369642D01*
X165015000Y-42441071D01*
X164907857Y-42476785D01*
X164729285Y-42476785D01*
X165443571Y-42262500D02*
X165800714Y-42262500D01*
X165372142Y-42476785D02*
X165622142Y-41726785D01*
X165872142Y-42476785D01*
X163925714Y-44816071D02*
X164497142Y-44816071D01*
X164211428Y-45101785D02*
X164211428Y-44530357D01*
X165211428Y-44351785D02*
X164854285Y-44351785D01*
X164818571Y-44708928D01*
X164854285Y-44673214D01*
X164925714Y-44637500D01*
X165104285Y-44637500D01*
X165175714Y-44673214D01*
X165211428Y-44708928D01*
X165247142Y-44780357D01*
X165247142Y-44958928D01*
X165211428Y-45030357D01*
X165175714Y-45066071D01*
X165104285Y-45101785D01*
X164925714Y-45101785D01*
X164854285Y-45066071D01*
X164818571Y-45030357D01*
X165461428Y-44351785D02*
X165711428Y-45101785D01*
X165961428Y-44351785D01*
X164318571Y-47012500D02*
X164247142Y-46976785D01*
X164140000Y-46976785D01*
X164032857Y-47012500D01*
X163961428Y-47083928D01*
X163925714Y-47155357D01*
X163890000Y-47298214D01*
X163890000Y-47405357D01*
X163925714Y-47548214D01*
X163961428Y-47619642D01*
X164032857Y-47691071D01*
X164140000Y-47726785D01*
X164211428Y-47726785D01*
X164318571Y-47691071D01*
X164354285Y-47655357D01*
X164354285Y-47405357D01*
X164211428Y-47405357D01*
X164675714Y-47726785D02*
X164675714Y-46976785D01*
X165104285Y-47726785D01*
X165104285Y-46976785D01*
X165461428Y-47726785D02*
X165461428Y-46976785D01*
X165640000Y-46976785D01*
X165747142Y-47012500D01*
X165818571Y-47083928D01*
X165854285Y-47155357D01*
X165890000Y-47298214D01*
X165890000Y-47405357D01*
X165854285Y-47548214D01*
X165818571Y-47619642D01*
X165747142Y-47691071D01*
X165640000Y-47726785D01*
X165461428Y-47726785D01*
D11*
X90026666Y-55122380D02*
X89455238Y-55122380D01*
X89740952Y-55122380D02*
X89740952Y-54122380D01*
X89645714Y-54265238D01*
X89550476Y-54360476D01*
X89455238Y-54408095D01*
X90883809Y-54455714D02*
X90883809Y-55122380D01*
X90645714Y-54074761D02*
X90407619Y-54789047D01*
X91026666Y-54789047D01*
X92693333Y-55122380D02*
X92121904Y-55122380D01*
X92407619Y-55122380D02*
X92407619Y-54122380D01*
X92312380Y-54265238D01*
X92217142Y-54360476D01*
X92121904Y-54408095D01*
X93026666Y-54122380D02*
X93645714Y-54122380D01*
X93312380Y-54503333D01*
X93455238Y-54503333D01*
X93550476Y-54550952D01*
X93598095Y-54598571D01*
X93645714Y-54693809D01*
X93645714Y-54931904D01*
X93598095Y-55027142D01*
X93550476Y-55074761D01*
X93455238Y-55122380D01*
X93169523Y-55122380D01*
X93074285Y-55074761D01*
X93026666Y-55027142D01*
X95360000Y-55122380D02*
X94788571Y-55122380D01*
X95074285Y-55122380D02*
X95074285Y-54122380D01*
X94979047Y-54265238D01*
X94883809Y-54360476D01*
X94788571Y-54408095D01*
X95740952Y-54217619D02*
X95788571Y-54170000D01*
X95883809Y-54122380D01*
X96121904Y-54122380D01*
X96217142Y-54170000D01*
X96264761Y-54217619D01*
X96312380Y-54312857D01*
X96312380Y-54408095D01*
X96264761Y-54550952D01*
X95693333Y-55122380D01*
X96312380Y-55122380D01*
X98026666Y-55122380D02*
X97455238Y-55122380D01*
X97740952Y-55122380D02*
X97740952Y-54122380D01*
X97645714Y-54265238D01*
X97550476Y-54360476D01*
X97455238Y-54408095D01*
X98979047Y-55122380D02*
X98407619Y-55122380D01*
X98693333Y-55122380D02*
X98693333Y-54122380D01*
X98598095Y-54265238D01*
X98502857Y-54360476D01*
X98407619Y-54408095D01*
X100693333Y-55122380D02*
X100121904Y-55122380D01*
X100407619Y-55122380D02*
X100407619Y-54122380D01*
X100312380Y-54265238D01*
X100217142Y-54360476D01*
X100121904Y-54408095D01*
X101312380Y-54122380D02*
X101407619Y-54122380D01*
X101502857Y-54170000D01*
X101550476Y-54217619D01*
X101598095Y-54312857D01*
X101645714Y-54503333D01*
X101645714Y-54741428D01*
X101598095Y-54931904D01*
X101550476Y-55027142D01*
X101502857Y-55074761D01*
X101407619Y-55122380D01*
X101312380Y-55122380D01*
X101217142Y-55074761D01*
X101169523Y-55027142D01*
X101121904Y-54931904D01*
X101074285Y-54741428D01*
X101074285Y-54503333D01*
X101121904Y-54312857D01*
X101169523Y-54217619D01*
X101217142Y-54170000D01*
X101312380Y-54122380D01*
X102883809Y-55122380D02*
X103074285Y-55122380D01*
X103169523Y-55074761D01*
X103217142Y-55027142D01*
X103312380Y-54884285D01*
X103360000Y-54693809D01*
X103360000Y-54312857D01*
X103312380Y-54217619D01*
X103264761Y-54170000D01*
X103169523Y-54122380D01*
X102979047Y-54122380D01*
X102883809Y-54170000D01*
X102836190Y-54217619D01*
X102788571Y-54312857D01*
X102788571Y-54550952D01*
X102836190Y-54646190D01*
X102883809Y-54693809D01*
X102979047Y-54741428D01*
X103169523Y-54741428D01*
X103264761Y-54693809D01*
X103312380Y-54646190D01*
X103360000Y-54550952D01*
X105455238Y-54550952D02*
X105360000Y-54503333D01*
X105312380Y-54455714D01*
X105264761Y-54360476D01*
X105264761Y-54312857D01*
X105312380Y-54217619D01*
X105360000Y-54170000D01*
X105455238Y-54122380D01*
X105645714Y-54122380D01*
X105740952Y-54170000D01*
X105788571Y-54217619D01*
X105836190Y-54312857D01*
X105836190Y-54360476D01*
X105788571Y-54455714D01*
X105740952Y-54503333D01*
X105645714Y-54550952D01*
X105455238Y-54550952D01*
X105360000Y-54598571D01*
X105312380Y-54646190D01*
X105264761Y-54741428D01*
X105264761Y-54931904D01*
X105312380Y-55027142D01*
X105360000Y-55074761D01*
X105455238Y-55122380D01*
X105645714Y-55122380D01*
X105740952Y-55074761D01*
X105788571Y-55027142D01*
X105836190Y-54931904D01*
X105836190Y-54741428D01*
X105788571Y-54646190D01*
X105740952Y-54598571D01*
X105645714Y-54550952D01*
X107693333Y-54122380D02*
X108360000Y-54122380D01*
X107931428Y-55122380D01*
X110693333Y-54122380D02*
X110502857Y-54122380D01*
X110407619Y-54170000D01*
X110360000Y-54217619D01*
X110264761Y-54360476D01*
X110217142Y-54550952D01*
X110217142Y-54931904D01*
X110264761Y-55027142D01*
X110312380Y-55074761D01*
X110407619Y-55122380D01*
X110598095Y-55122380D01*
X110693333Y-55074761D01*
X110740952Y-55027142D01*
X110788571Y-54931904D01*
X110788571Y-54693809D01*
X110740952Y-54598571D01*
X110693333Y-54550952D01*
X110598095Y-54503333D01*
X110407619Y-54503333D01*
X110312380Y-54550952D01*
X110264761Y-54598571D01*
X110217142Y-54693809D01*
X113217142Y-54122380D02*
X112740952Y-54122380D01*
X112693333Y-54598571D01*
X112740952Y-54550952D01*
X112836190Y-54503333D01*
X113074285Y-54503333D01*
X113169523Y-54550952D01*
X113217142Y-54598571D01*
X113264761Y-54693809D01*
X113264761Y-54931904D01*
X113217142Y-55027142D01*
X113169523Y-55074761D01*
X113074285Y-55122380D01*
X112836190Y-55122380D01*
X112740952Y-55074761D01*
X112693333Y-55027142D01*
X115645714Y-54455714D02*
X115645714Y-55122380D01*
X115407619Y-54074761D02*
X115169523Y-54789047D01*
X115788571Y-54789047D01*
X117598095Y-54122380D02*
X118217142Y-54122380D01*
X117883809Y-54503333D01*
X118026666Y-54503333D01*
X118121904Y-54550952D01*
X118169523Y-54598571D01*
X118217142Y-54693809D01*
X118217142Y-54931904D01*
X118169523Y-55027142D01*
X118121904Y-55074761D01*
X118026666Y-55122380D01*
X117740952Y-55122380D01*
X117645714Y-55074761D01*
X117598095Y-55027142D01*
X120121904Y-54217619D02*
X120169523Y-54170000D01*
X120264761Y-54122380D01*
X120502857Y-54122380D01*
X120598095Y-54170000D01*
X120645714Y-54217619D01*
X120693333Y-54312857D01*
X120693333Y-54408095D01*
X120645714Y-54550952D01*
X120074285Y-55122380D01*
X120693333Y-55122380D01*
X123169523Y-55122380D02*
X122598095Y-55122380D01*
X122883809Y-55122380D02*
X122883809Y-54122380D01*
X122788571Y-54265238D01*
X122693333Y-54360476D01*
X122598095Y-54408095D01*
X125645714Y-55122380D02*
X125074285Y-55122380D01*
X125359999Y-55122380D02*
X125359999Y-54122380D01*
X125264761Y-54265238D01*
X125169523Y-54360476D01*
X125074285Y-54408095D01*
X126550476Y-54122380D02*
X126074285Y-54122380D01*
X126026666Y-54598571D01*
X126074285Y-54550952D01*
X126169523Y-54503333D01*
X126407619Y-54503333D01*
X126502857Y-54550952D01*
X126550476Y-54598571D01*
X126598095Y-54693809D01*
X126598095Y-54931904D01*
X126550476Y-55027142D01*
X126502857Y-55074761D01*
X126407619Y-55122380D01*
X126169523Y-55122380D01*
X126074285Y-55074761D01*
X126026666Y-55027142D01*
X128312380Y-55122380D02*
X127740952Y-55122380D01*
X128026666Y-55122380D02*
X128026666Y-54122380D01*
X127931428Y-54265238D01*
X127836190Y-54360476D01*
X127740952Y-54408095D01*
X129169523Y-54122380D02*
X128979047Y-54122380D01*
X128883809Y-54170000D01*
X128836190Y-54217619D01*
X128740952Y-54360476D01*
X128693333Y-54550952D01*
X128693333Y-54931904D01*
X128740952Y-55027142D01*
X128788571Y-55074761D01*
X128883809Y-55122380D01*
X129074285Y-55122380D01*
X129169523Y-55074761D01*
X129217142Y-55027142D01*
X129264761Y-54931904D01*
X129264761Y-54693809D01*
X129217142Y-54598571D01*
X129169523Y-54550952D01*
X129074285Y-54503333D01*
X128883809Y-54503333D01*
X128788571Y-54550952D01*
X128740952Y-54598571D01*
X128693333Y-54693809D01*
X167647619Y-54982380D02*
X167076190Y-54982380D01*
X167361904Y-54982380D02*
X167361904Y-53982380D01*
X167266666Y-54125238D01*
X167171428Y-54220476D01*
X167076190Y-54268095D01*
X169552380Y-54077619D02*
X169600000Y-54030000D01*
X169695238Y-53982380D01*
X169933333Y-53982380D01*
X170028571Y-54030000D01*
X170076190Y-54077619D01*
X170123809Y-54172857D01*
X170123809Y-54268095D01*
X170076190Y-54410952D01*
X169504761Y-54982380D01*
X170123809Y-54982380D01*
X171980952Y-53982380D02*
X172600000Y-53982380D01*
X172266666Y-54363333D01*
X172409523Y-54363333D01*
X172504761Y-54410952D01*
X172552380Y-54458571D01*
X172600000Y-54553809D01*
X172600000Y-54791904D01*
X172552380Y-54887142D01*
X172504761Y-54934761D01*
X172409523Y-54982380D01*
X172123809Y-54982380D01*
X172028571Y-54934761D01*
X171980952Y-54887142D01*
X174980952Y-54315714D02*
X174980952Y-54982380D01*
X174742857Y-53934761D02*
X174504761Y-54649047D01*
X175123809Y-54649047D01*
X177504761Y-53982380D02*
X177028571Y-53982380D01*
X176980952Y-54458571D01*
X177028571Y-54410952D01*
X177123809Y-54363333D01*
X177361904Y-54363333D01*
X177457142Y-54410952D01*
X177504761Y-54458571D01*
X177552380Y-54553809D01*
X177552380Y-54791904D01*
X177504761Y-54887142D01*
X177457142Y-54934761D01*
X177361904Y-54982380D01*
X177123809Y-54982380D01*
X177028571Y-54934761D01*
X176980952Y-54887142D01*
X179933333Y-53982380D02*
X179742857Y-53982380D01*
X179647619Y-54030000D01*
X179600000Y-54077619D01*
X179504761Y-54220476D01*
X179457142Y-54410952D01*
X179457142Y-54791904D01*
X179504761Y-54887142D01*
X179552380Y-54934761D01*
X179647619Y-54982380D01*
X179838095Y-54982380D01*
X179933333Y-54934761D01*
X179980952Y-54887142D01*
X180028571Y-54791904D01*
X180028571Y-54553809D01*
X179980952Y-54458571D01*
X179933333Y-54410952D01*
X179838095Y-54363333D01*
X179647619Y-54363333D01*
X179552380Y-54410952D01*
X179504761Y-54458571D01*
X179457142Y-54553809D01*
X181885714Y-53982380D02*
X182552380Y-53982380D01*
X182123809Y-54982380D01*
X184600000Y-54410952D02*
X184504761Y-54363333D01*
X184457142Y-54315714D01*
X184409523Y-54220476D01*
X184409523Y-54172857D01*
X184457142Y-54077619D01*
X184504761Y-54030000D01*
X184600000Y-53982380D01*
X184790476Y-53982380D01*
X184885714Y-54030000D01*
X184933333Y-54077619D01*
X184980952Y-54172857D01*
X184980952Y-54220476D01*
X184933333Y-54315714D01*
X184885714Y-54363333D01*
X184790476Y-54410952D01*
X184600000Y-54410952D01*
X184504761Y-54458571D01*
X184457142Y-54506190D01*
X184409523Y-54601428D01*
X184409523Y-54791904D01*
X184457142Y-54887142D01*
X184504761Y-54934761D01*
X184600000Y-54982380D01*
X184790476Y-54982380D01*
X184885714Y-54934761D01*
X184933333Y-54887142D01*
X184980952Y-54791904D01*
X184980952Y-54601428D01*
X184933333Y-54506190D01*
X184885714Y-54458571D01*
X184790476Y-54410952D01*
X186980952Y-54982380D02*
X187171428Y-54982380D01*
X187266666Y-54934761D01*
X187314285Y-54887142D01*
X187409523Y-54744285D01*
X187457142Y-54553809D01*
X187457142Y-54172857D01*
X187409523Y-54077619D01*
X187361904Y-54030000D01*
X187266666Y-53982380D01*
X187076190Y-53982380D01*
X186980952Y-54030000D01*
X186933333Y-54077619D01*
X186885714Y-54172857D01*
X186885714Y-54410952D01*
X186933333Y-54506190D01*
X186980952Y-54553809D01*
X187076190Y-54601428D01*
X187266666Y-54601428D01*
X187361904Y-54553809D01*
X187409523Y-54506190D01*
X187457142Y-54410952D01*
X189171428Y-54982380D02*
X188600000Y-54982380D01*
X188885714Y-54982380D02*
X188885714Y-53982380D01*
X188790476Y-54125238D01*
X188695238Y-54220476D01*
X188600000Y-54268095D01*
X189790476Y-53982380D02*
X189885714Y-53982380D01*
X189980952Y-54030000D01*
X190028571Y-54077619D01*
X190076190Y-54172857D01*
X190123809Y-54363333D01*
X190123809Y-54601428D01*
X190076190Y-54791904D01*
X190028571Y-54887142D01*
X189980952Y-54934761D01*
X189885714Y-54982380D01*
X189790476Y-54982380D01*
X189695238Y-54934761D01*
X189647619Y-54887142D01*
X189600000Y-54791904D01*
X189552380Y-54601428D01*
X189552380Y-54363333D01*
X189600000Y-54172857D01*
X189647619Y-54077619D01*
X189695238Y-54030000D01*
X189790476Y-53982380D01*
X191838095Y-54982380D02*
X191266666Y-54982380D01*
X191552380Y-54982380D02*
X191552380Y-53982380D01*
X191457142Y-54125238D01*
X191361904Y-54220476D01*
X191266666Y-54268095D01*
X192790476Y-54982380D02*
X192219047Y-54982380D01*
X192504761Y-54982380D02*
X192504761Y-53982380D01*
X192409523Y-54125238D01*
X192314285Y-54220476D01*
X192219047Y-54268095D01*
X194504761Y-54982380D02*
X193933333Y-54982380D01*
X194219047Y-54982380D02*
X194219047Y-53982380D01*
X194123809Y-54125238D01*
X194028571Y-54220476D01*
X193933333Y-54268095D01*
X194885714Y-54077619D02*
X194933333Y-54030000D01*
X195028571Y-53982380D01*
X195266666Y-53982380D01*
X195361904Y-54030000D01*
X195409523Y-54077619D01*
X195457142Y-54172857D01*
X195457142Y-54268095D01*
X195409523Y-54410952D01*
X194838095Y-54982380D01*
X195457142Y-54982380D01*
X197171428Y-54982380D02*
X196600000Y-54982380D01*
X196885714Y-54982380D02*
X196885714Y-53982380D01*
X196790476Y-54125238D01*
X196695238Y-54220476D01*
X196600000Y-54268095D01*
X197504761Y-53982380D02*
X198123809Y-53982380D01*
X197790476Y-54363333D01*
X197933333Y-54363333D01*
X198028571Y-54410952D01*
X198076190Y-54458571D01*
X198123809Y-54553809D01*
X198123809Y-54791904D01*
X198076190Y-54887142D01*
X198028571Y-54934761D01*
X197933333Y-54982380D01*
X197647619Y-54982380D01*
X197552380Y-54934761D01*
X197504761Y-54887142D01*
X199838095Y-54982380D02*
X199266666Y-54982380D01*
X199552380Y-54982380D02*
X199552380Y-53982380D01*
X199457142Y-54125238D01*
X199361904Y-54220476D01*
X199266666Y-54268095D01*
X200695238Y-54315714D02*
X200695238Y-54982380D01*
X200457142Y-53934761D02*
X200219047Y-54649047D01*
X200838095Y-54649047D01*
X202504761Y-54982380D02*
X201933333Y-54982380D01*
X202219047Y-54982380D02*
X202219047Y-53982380D01*
X202123809Y-54125238D01*
X202028571Y-54220476D01*
X201933333Y-54268095D01*
X203409523Y-53982380D02*
X202933333Y-53982380D01*
X202885714Y-54458571D01*
X202933333Y-54410952D01*
X203028571Y-54363333D01*
X203266666Y-54363333D01*
X203361904Y-54410952D01*
X203409523Y-54458571D01*
X203457142Y-54553809D01*
X203457142Y-54791904D01*
X203409523Y-54887142D01*
X203361904Y-54934761D01*
X203266666Y-54982380D01*
X203028571Y-54982380D01*
X202933333Y-54934761D01*
X202885714Y-54887142D01*
X205171428Y-54982380D02*
X204600000Y-54982380D01*
X204885714Y-54982380D02*
X204885714Y-53982380D01*
X204790476Y-54125238D01*
X204695238Y-54220476D01*
X204600000Y-54268095D01*
X206028571Y-53982380D02*
X205838095Y-53982380D01*
X205742857Y-54030000D01*
X205695238Y-54077619D01*
X205600000Y-54220476D01*
X205552380Y-54410952D01*
X205552380Y-54791904D01*
X205600000Y-54887142D01*
X205647619Y-54934761D01*
X205742857Y-54982380D01*
X205933333Y-54982380D01*
X206028571Y-54934761D01*
X206076190Y-54887142D01*
X206123809Y-54791904D01*
X206123809Y-54553809D01*
X206076190Y-54458571D01*
X206028571Y-54410952D01*
X205933333Y-54363333D01*
X205742857Y-54363333D01*
X205647619Y-54410952D01*
X205600000Y-54458571D01*
X205552380Y-54553809D01*
D13*
X195640000Y-65020000D02*
X94180000Y-65020000D01*
X77000000Y-20080000D02*
X77000000Y-9350000D01*
X235330000Y-9300000D02*
X235330000Y-20030000D01*
X83280000Y-14450000D02*
G75*
G03X83280000Y-14450000I-1591897J0D01*
G01*
X163220000Y-14600000D02*
G75*
G03X163220000Y-14600000I-1590000J0D01*
G01*
X161280283Y-50710000D02*
G75*
G03X161280283Y-50710000I-1592180J0D01*
G01*
X85310123Y-50710000D02*
G75*
G03X85310123Y-50710000I-1622020J0D01*
G01*
X77000000Y-20080000D02*
X77150000Y-170400000D01*
X235330000Y-9300000D02*
X77000000Y-9350000D01*
X235290000Y-170410000D02*
X235330000Y-20030000D01*
X77150000Y-170400000D02*
X235290000Y-170410000D01*
X152660000Y-78311679D02*
G75*
G03X152660000Y-78311679I-1550000J0D01*
G01*
X87240094Y-71860256D02*
G75*
G02X94160000Y-65020000I6850364J-9762D01*
G01*
X104671152Y-147109678D02*
G75*
G02X102010000Y-144490000I-41152J2619677D01*
G01*
X102010000Y-137780000D02*
X102010000Y-144490000D01*
X102010018Y-137781153D02*
G75*
G02X104629695Y-135120000I2619677J41153D01*
G01*
X100610000Y-141520000D02*
G75*
G03X100610000Y-141520000I-3400000J0D01*
G01*
X210410000Y-144460000D02*
X210410000Y-137740000D01*
X210409982Y-144458847D02*
G75*
G02X207790305Y-147120000I-2619677J-41153D01*
G01*
X207748843Y-135120018D02*
G75*
G02X210409996Y-137739695I41153J-2619677D01*
G01*
X218610000Y-141520000D02*
G75*
G03X218610000Y-141520000I-3400000J0D01*
G01*
X104630000Y-135120000D02*
X207750000Y-135120000D01*
D14*
X198160000Y-125820000D02*
X198810000Y-125820000D01*
X198160000Y-124270000D02*
X198160000Y-125820000D01*
X184710000Y-124270000D02*
X198160000Y-124270000D01*
X184710000Y-133220000D02*
X184710000Y-124270000D01*
X198160000Y-133220000D02*
X184710000Y-133220000D01*
X198160000Y-131720000D02*
X198160000Y-133220000D01*
X198810000Y-131720000D02*
X198160000Y-131720000D01*
X198810000Y-125820000D02*
X198810000Y-131720000D01*
D13*
X224399641Y-92710631D02*
G75*
G02X225140000Y-94599045I-1859641J-1818415D01*
G01*
X224400000Y-92710000D02*
X197510000Y-65800000D01*
X195670000Y-65019946D02*
G75*
G02X197511695Y-65795663I-10923J-2600052D01*
G01*
X218410000Y-97450000D02*
G75*
G03X218410000Y-97450000I-3200000J0D01*
G01*
X100410000Y-97450000D02*
G75*
G03X100410000Y-97450000I-3200000J0D01*
G01*
X104670000Y-147110000D02*
X207790000Y-147120000D01*
X87240000Y-150020000D02*
X87240000Y-71860000D01*
X225130000Y-150020000D02*
X225140000Y-94600000D01*
X97240000Y-160020000D02*
X215130000Y-160020000D01*
X225130000Y-150020000D02*
G75*
G02X215130000Y-160020000I-10000000J0D01*
G01*
X97240000Y-160020000D02*
G75*
G02X87240000Y-150020000I0J10000000D01*
G01*
D15*
X221088000Y-30180000D02*
X221088000Y-12400000D01*
X221088000Y-12400000D02*
X187814000Y-12400000D01*
X187814000Y-12400000D02*
X187814000Y-30180000D01*
X187814000Y-30180000D02*
X221088000Y-30180000D01*
X137090000Y-19610000D02*
G75*
G02X142189735Y-19573225I2549735J36775D01*
G01*
X142200000Y-19560000D02*
X142200000Y-20820000D01*
X137070000Y-19570000D02*
X137070000Y-20820000D01*
X142209200Y-20810000D02*
G75*
G03X142209200Y-20810000I-1249200J0D01*
G01*
X139610001Y-20780000D02*
G75*
G03X139610001Y-20780000I-1238588J0D01*
G01*
X138410000Y-22150000D02*
X137080000Y-22150000D01*
X137080000Y-22150000D02*
X137080000Y-20820000D01*
X170740000Y-26620000D02*
X170740000Y-29160000D01*
X168200000Y-26620000D02*
X168200000Y-29160000D01*
X165660000Y-26620000D02*
X165660000Y-29160000D01*
X173320000Y-10730000D02*
X173320000Y-26620000D01*
X163080000Y-10730000D02*
X163080000Y-26620000D01*
X163080000Y-10730000D02*
X173320000Y-10730000D01*
X163080000Y-26620000D02*
X173320000Y-26620000D01*
X219030000Y-38310000D02*
X217570000Y-38310000D01*
X219030000Y-35150000D02*
X216870000Y-35150000D01*
X219030000Y-35150000D02*
X219030000Y-36080000D01*
X219030000Y-38310000D02*
X219030000Y-37380000D01*
X208601267Y-31290000D02*
X208258733Y-31290000D01*
X208601267Y-32310000D02*
X208258733Y-32310000D01*
X213751267Y-35170000D02*
X213408733Y-35170000D01*
X213751267Y-36190000D02*
X213408733Y-36190000D01*
D16*
X223200000Y-11990000D02*
X233900000Y-11990000D01*
X223200000Y-27790000D02*
X223200000Y-11990000D01*
X233900000Y-27790000D02*
X223200000Y-27790000D01*
X233900000Y-11990000D02*
X233900000Y-27790000D01*
D15*
X229440000Y-32150000D02*
X229440000Y-29910000D01*
X229200000Y-32150000D02*
X229200000Y-29910000D01*
X229320000Y-32150000D02*
X229320000Y-29910000D01*
X223880000Y-31030000D02*
X225800000Y-31030000D01*
X231960000Y-31030000D02*
X230040000Y-31030000D01*
X225800000Y-32150000D02*
X230040000Y-32150000D01*
X225800000Y-29910000D02*
X225800000Y-32150000D01*
X230040000Y-29910000D02*
X225800000Y-29910000D01*
X230040000Y-32150000D02*
X230040000Y-29910000D01*
X177136250Y-29428750D02*
X177136250Y-30216250D01*
X176742500Y-29822500D02*
X177530000Y-29822500D01*
X177770000Y-34015563D02*
X178834437Y-35080000D01*
X177770000Y-29324437D02*
X178834437Y-28260000D01*
X177770000Y-29324437D02*
X177770000Y-30610000D01*
X177770000Y-34015563D02*
X177770000Y-32730000D01*
X178834437Y-35080000D02*
X184590000Y-35080000D01*
X178834437Y-28260000D02*
X184590000Y-28260000D01*
X184590000Y-28260000D02*
X184590000Y-30610000D01*
X184590000Y-35080000D02*
X184590000Y-32730000D01*
X160823750Y-32001250D02*
X160823750Y-31213750D01*
X161217500Y-31607500D02*
X160430000Y-31607500D01*
X160190000Y-27414437D02*
X159125563Y-26350000D01*
X160190000Y-32105563D02*
X159125563Y-33170000D01*
X160190000Y-32105563D02*
X160190000Y-30820000D01*
X160190000Y-27414437D02*
X160190000Y-28700000D01*
X159125563Y-26350000D02*
X153370000Y-26350000D01*
X159125563Y-33170000D02*
X153370000Y-33170000D01*
X153370000Y-33170000D02*
X153370000Y-30820000D01*
X153370000Y-26350000D02*
X153370000Y-28700000D01*
X212340000Y-50840000D02*
X215280000Y-50840000D01*
X212340000Y-50600000D02*
X215280000Y-50600000D01*
X212340000Y-50720000D02*
X215280000Y-50720000D01*
X213810000Y-45160000D02*
X213810000Y-46180000D01*
X213810000Y-52640000D02*
X213810000Y-51620000D01*
X212340000Y-46180000D02*
X212340000Y-51620000D01*
X215280000Y-46180000D02*
X212340000Y-46180000D01*
X215280000Y-51620000D02*
X215280000Y-46180000D01*
X212340000Y-51620000D02*
X215280000Y-51620000D01*
X222260000Y-43050000D02*
X224940000Y-43050000D01*
X224940000Y-49290000D02*
X222260000Y-49290000D01*
X220480000Y-49140000D02*
X220480000Y-43200000D01*
X226720000Y-49140000D02*
X226720000Y-43200000D01*
X225014214Y-46170000D02*
G75*
G03X225014214Y-46170000I-1414214J0D01*
G01*
X88950000Y-22100000D02*
X88950000Y-20830000D01*
X90220000Y-22100000D02*
X88950000Y-22100000D01*
X128700000Y-19787071D02*
X128700000Y-19390000D01*
X127940000Y-19787071D02*
X127940000Y-19390000D01*
X128700000Y-10730000D02*
X128700000Y-16730000D01*
X127940000Y-10730000D02*
X128700000Y-10730000D01*
X127940000Y-16730000D02*
X127940000Y-10730000D01*
X127050000Y-19390000D02*
X127050000Y-16730000D01*
X126160000Y-19787071D02*
X126160000Y-19390000D01*
X125400000Y-19787071D02*
X125400000Y-19390000D01*
X126160000Y-10730000D02*
X126160000Y-16730000D01*
X125400000Y-10730000D02*
X126160000Y-10730000D01*
X125400000Y-16730000D02*
X125400000Y-10730000D01*
X124510000Y-19390000D02*
X124510000Y-16730000D01*
X123620000Y-19787071D02*
X123620000Y-19390000D01*
X122860000Y-19787071D02*
X122860000Y-19390000D01*
X123620000Y-10730000D02*
X123620000Y-16730000D01*
X122860000Y-10730000D02*
X123620000Y-10730000D01*
X122860000Y-16730000D02*
X122860000Y-10730000D01*
X121970000Y-19390000D02*
X121970000Y-16730000D01*
X121080000Y-19787071D02*
X121080000Y-19390000D01*
X120320000Y-19787071D02*
X120320000Y-19390000D01*
X121080000Y-10730000D02*
X121080000Y-16730000D01*
X120320000Y-10730000D02*
X121080000Y-10730000D01*
X120320000Y-16730000D02*
X120320000Y-10730000D01*
X119430000Y-19390000D02*
X119430000Y-16730000D01*
X118540000Y-19787071D02*
X118540000Y-19390000D01*
X117780000Y-19787071D02*
X117780000Y-19390000D01*
X118540000Y-10730000D02*
X118540000Y-16730000D01*
X117780000Y-10730000D02*
X118540000Y-10730000D01*
X117780000Y-16730000D02*
X117780000Y-10730000D01*
X116890000Y-19390000D02*
X116890000Y-16730000D01*
X116000000Y-19787071D02*
X116000000Y-19390000D01*
X115240000Y-19787071D02*
X115240000Y-19390000D01*
X116000000Y-10730000D02*
X116000000Y-16730000D01*
X115240000Y-10730000D02*
X116000000Y-10730000D01*
X115240000Y-16730000D02*
X115240000Y-10730000D01*
X114350000Y-19390000D02*
X114350000Y-16730000D01*
X113460000Y-19787071D02*
X113460000Y-19390000D01*
X112700000Y-19787071D02*
X112700000Y-19390000D01*
X113460000Y-10730000D02*
X113460000Y-16730000D01*
X112700000Y-10730000D02*
X113460000Y-10730000D01*
X112700000Y-16730000D02*
X112700000Y-10730000D01*
X111810000Y-19390000D02*
X111810000Y-16730000D01*
X110920000Y-19787071D02*
X110920000Y-19390000D01*
X110160000Y-19787071D02*
X110160000Y-19390000D01*
X110920000Y-10730000D02*
X110920000Y-16730000D01*
X110160000Y-10730000D02*
X110920000Y-10730000D01*
X110160000Y-16730000D02*
X110160000Y-10730000D01*
X109270000Y-19390000D02*
X109270000Y-16730000D01*
X108380000Y-19787071D02*
X108380000Y-19390000D01*
X107620000Y-19787071D02*
X107620000Y-19390000D01*
X108380000Y-10730000D02*
X108380000Y-16730000D01*
X107620000Y-10730000D02*
X108380000Y-10730000D01*
X107620000Y-16730000D02*
X107620000Y-10730000D01*
X106730000Y-19390000D02*
X106730000Y-16730000D01*
X105840000Y-19787071D02*
X105840000Y-19390000D01*
X105080000Y-19787071D02*
X105080000Y-19390000D01*
X105840000Y-10730000D02*
X105840000Y-16730000D01*
X105080000Y-10730000D02*
X105840000Y-10730000D01*
X105080000Y-16730000D02*
X105080000Y-10730000D01*
X104190000Y-19390000D02*
X104190000Y-16730000D01*
X103300000Y-19787071D02*
X103300000Y-19390000D01*
X102540000Y-19787071D02*
X102540000Y-19390000D01*
X103300000Y-10730000D02*
X103300000Y-16730000D01*
X102540000Y-10730000D02*
X103300000Y-10730000D01*
X102540000Y-16730000D02*
X102540000Y-10730000D01*
X101650000Y-19390000D02*
X101650000Y-16730000D01*
X100760000Y-19787071D02*
X100760000Y-19390000D01*
X100000000Y-19787071D02*
X100000000Y-19390000D01*
X100760000Y-10730000D02*
X100760000Y-16730000D01*
X100000000Y-10730000D02*
X100760000Y-10730000D01*
X100000000Y-16730000D02*
X100000000Y-10730000D01*
X99110000Y-19390000D02*
X99110000Y-16730000D01*
X98220000Y-19787071D02*
X98220000Y-19390000D01*
X97460000Y-19787071D02*
X97460000Y-19390000D01*
X98220000Y-10730000D02*
X98220000Y-16730000D01*
X97460000Y-10730000D02*
X98220000Y-10730000D01*
X97460000Y-16730000D02*
X97460000Y-10730000D01*
X96570000Y-19390000D02*
X96570000Y-16730000D01*
X95680000Y-19787071D02*
X95680000Y-19390000D01*
X94920000Y-19787071D02*
X94920000Y-19390000D01*
X95680000Y-10730000D02*
X95680000Y-16730000D01*
X94920000Y-10730000D02*
X95680000Y-10730000D01*
X94920000Y-16730000D02*
X94920000Y-10730000D01*
X94030000Y-19390000D02*
X94030000Y-16730000D01*
X93140000Y-19787071D02*
X93140000Y-19390000D01*
X92380000Y-19787071D02*
X92380000Y-19390000D01*
X93140000Y-10730000D02*
X93140000Y-16730000D01*
X92380000Y-10730000D02*
X93140000Y-10730000D01*
X92380000Y-16730000D02*
X92380000Y-10730000D01*
X91490000Y-19390000D02*
X91490000Y-16730000D01*
X90600000Y-19720000D02*
X90600000Y-19390000D01*
X89840000Y-19720000D02*
X89840000Y-19390000D01*
X90500000Y-16730000D02*
X90500000Y-10730000D01*
X90380000Y-16730000D02*
X90380000Y-10730000D01*
X90260000Y-16730000D02*
X90260000Y-10730000D01*
X90140000Y-16730000D02*
X90140000Y-10730000D01*
X90020000Y-16730000D02*
X90020000Y-10730000D01*
X89900000Y-16730000D02*
X89900000Y-10730000D01*
X90600000Y-10730000D02*
X90600000Y-16730000D01*
X89840000Y-10730000D02*
X90600000Y-10730000D01*
X89840000Y-16730000D02*
X89840000Y-10730000D01*
X88890000Y-16730000D02*
X88890000Y-19390000D01*
X129650000Y-16730000D02*
X88890000Y-16730000D01*
X129650000Y-19390000D02*
X129650000Y-16730000D01*
X88890000Y-19390000D02*
X129650000Y-19390000D01*
X146880000Y-38945000D02*
X148695000Y-38945000D01*
X146880000Y-39210000D02*
X146880000Y-38945000D01*
X143020000Y-39210000D02*
X146880000Y-39210000D01*
X139160000Y-39210000D02*
X139160000Y-38945000D01*
X143020000Y-39210000D02*
X139160000Y-39210000D01*
X146880000Y-23590000D02*
X146880000Y-23855000D01*
X143020000Y-23590000D02*
X146880000Y-23590000D01*
X139160000Y-23590000D02*
X139160000Y-23855000D01*
X143020000Y-23590000D02*
X139160000Y-23590000D01*
X182588733Y-27420000D02*
X182931267Y-27420000D01*
X182588733Y-26400000D02*
X182931267Y-26400000D01*
X132810000Y-49176267D02*
X132810000Y-48833733D01*
X131790000Y-49176267D02*
X131790000Y-48833733D01*
X135540000Y-49216267D02*
X135540000Y-48873733D01*
X134520000Y-49216267D02*
X134520000Y-48873733D01*
X138210000Y-49241267D02*
X138210000Y-48898733D01*
X137190000Y-49241267D02*
X137190000Y-48898733D01*
X141070000Y-49306267D02*
X141070000Y-48963733D01*
X140050000Y-49306267D02*
X140050000Y-48963733D01*
X143800000Y-49336267D02*
X143800000Y-48993733D01*
X142780000Y-49336267D02*
X142780000Y-48993733D01*
X146590000Y-49426267D02*
X146590000Y-49083733D01*
X145570000Y-49426267D02*
X145570000Y-49083733D01*
X149460000Y-49416267D02*
X149460000Y-49073733D01*
X148440000Y-49416267D02*
X148440000Y-49073733D01*
X152250000Y-49366267D02*
X152250000Y-49023733D01*
X151230000Y-49366267D02*
X151230000Y-49023733D01*
X155030000Y-49351267D02*
X155030000Y-49008733D01*
X154010000Y-49351267D02*
X154010000Y-49008733D01*
X157710000Y-49341267D02*
X157710000Y-48998733D01*
X156690000Y-49341267D02*
X156690000Y-48998733D01*
X160620000Y-47191267D02*
X160620000Y-46848733D01*
X159600000Y-47191267D02*
X159600000Y-46848733D01*
X163350000Y-49306267D02*
X163350000Y-48963733D01*
X162330000Y-49306267D02*
X162330000Y-48963733D01*
X132870000Y-42421267D02*
X132870000Y-42078733D01*
X131850000Y-42421267D02*
X131850000Y-42078733D01*
X135600000Y-42401267D02*
X135600000Y-42058733D01*
X134580000Y-42401267D02*
X134580000Y-42058733D01*
X138370000Y-42381267D02*
X138370000Y-42038733D01*
X137350000Y-42381267D02*
X137350000Y-42038733D01*
X141160000Y-42361267D02*
X141160000Y-42018733D01*
X140140000Y-42361267D02*
X140140000Y-42018733D01*
X143890000Y-42361267D02*
X143890000Y-42018733D01*
X142870000Y-42361267D02*
X142870000Y-42018733D01*
X146620000Y-42331267D02*
X146620000Y-41988733D01*
X145600000Y-42331267D02*
X145600000Y-41988733D01*
X149530000Y-42291267D02*
X149530000Y-41948733D01*
X148510000Y-42291267D02*
X148510000Y-41948733D01*
X152400000Y-42371267D02*
X152400000Y-42028733D01*
X151380000Y-42371267D02*
X151380000Y-42028733D01*
X155130000Y-42371267D02*
X155130000Y-42028733D01*
X154110000Y-42371267D02*
X154110000Y-42028733D01*
X157770000Y-42401267D02*
X157770000Y-42058733D01*
X156750000Y-42401267D02*
X156750000Y-42058733D01*
X160610000Y-42311267D02*
X160610000Y-41968733D01*
X159590000Y-42311267D02*
X159590000Y-41968733D01*
X163400000Y-42361267D02*
X163400000Y-42018733D01*
X162380000Y-42361267D02*
X162380000Y-42018733D01*
X127830000Y-47188733D02*
X127830000Y-47531267D01*
X128850000Y-47188733D02*
X128850000Y-47531267D01*
D16*
X182360000Y-20190000D02*
X178060000Y-20190000D01*
X184210000Y-12190000D02*
X176210000Y-12190000D01*
X176210000Y-20190000D02*
X178060000Y-20190000D01*
X184210000Y-20190000D02*
X182360000Y-20190000D01*
X176210000Y-8690000D02*
X176210000Y-10690000D01*
X184210000Y-8690000D02*
X176210000Y-8690000D01*
X184210000Y-10690000D02*
X184210000Y-8690000D01*
X186110000Y-12190000D02*
X186110000Y-10690000D01*
X184210000Y-12190000D02*
X186110000Y-12190000D01*
X184210000Y-20190000D02*
X184210000Y-12190000D01*
X174310000Y-10690000D02*
X186110000Y-10690000D01*
X174310000Y-12190000D02*
X174310000Y-10690000D01*
X176210000Y-12190000D02*
X174310000Y-12190000D01*
X176210000Y-20190000D02*
X176210000Y-12190000D01*
D15*
X169221267Y-32520000D02*
X168878733Y-32520000D01*
X169221267Y-33540000D02*
X168878733Y-33540000D01*
X130830000Y-22090000D02*
X130830000Y-20820000D01*
X132100000Y-22090000D02*
X130830000Y-22090000D01*
X135020000Y-19777071D02*
X135020000Y-19380000D01*
X134260000Y-19777071D02*
X134260000Y-19380000D01*
X135020000Y-10720000D02*
X135020000Y-16720000D01*
X134260000Y-10720000D02*
X135020000Y-10720000D01*
X134260000Y-16720000D02*
X134260000Y-10720000D01*
X133370000Y-19380000D02*
X133370000Y-16720000D01*
X132480000Y-19710000D02*
X132480000Y-19380000D01*
X131720000Y-19710000D02*
X131720000Y-19380000D01*
X132380000Y-16720000D02*
X132380000Y-10720000D01*
X132260000Y-16720000D02*
X132260000Y-10720000D01*
X132140000Y-16720000D02*
X132140000Y-10720000D01*
X132020000Y-16720000D02*
X132020000Y-10720000D01*
X131900000Y-16720000D02*
X131900000Y-10720000D01*
X131780000Y-16720000D02*
X131780000Y-10720000D01*
X132480000Y-10720000D02*
X132480000Y-16720000D01*
X131720000Y-10720000D02*
X132480000Y-10720000D01*
X131720000Y-16720000D02*
X131720000Y-10720000D01*
X130770000Y-16720000D02*
X130770000Y-19380000D01*
X135970000Y-16720000D02*
X130770000Y-16720000D01*
X135970000Y-19380000D02*
X135970000Y-16720000D01*
X130770000Y-19380000D02*
X135970000Y-19380000D01*
X143420000Y-22090000D02*
X143420000Y-20820000D01*
X144690000Y-22090000D02*
X143420000Y-22090000D01*
X157770000Y-19777071D02*
X157770000Y-19380000D01*
X157010000Y-19777071D02*
X157010000Y-19380000D01*
X157770000Y-10720000D02*
X157770000Y-16720000D01*
X157010000Y-10720000D02*
X157770000Y-10720000D01*
X157010000Y-16720000D02*
X157010000Y-10720000D01*
X156120000Y-19380000D02*
X156120000Y-16720000D01*
X155230000Y-19777071D02*
X155230000Y-19380000D01*
X154470000Y-19777071D02*
X154470000Y-19380000D01*
X155230000Y-10720000D02*
X155230000Y-16720000D01*
X154470000Y-10720000D02*
X155230000Y-10720000D01*
X154470000Y-16720000D02*
X154470000Y-10720000D01*
X153580000Y-19380000D02*
X153580000Y-16720000D01*
X152690000Y-19777071D02*
X152690000Y-19380000D01*
X151930000Y-19777071D02*
X151930000Y-19380000D01*
X152690000Y-10720000D02*
X152690000Y-16720000D01*
X151930000Y-10720000D02*
X152690000Y-10720000D01*
X151930000Y-16720000D02*
X151930000Y-10720000D01*
X151040000Y-19380000D02*
X151040000Y-16720000D01*
X150150000Y-19777071D02*
X150150000Y-19380000D01*
X149390000Y-19777071D02*
X149390000Y-19380000D01*
X150150000Y-10720000D02*
X150150000Y-16720000D01*
X149390000Y-10720000D02*
X150150000Y-10720000D01*
X149390000Y-16720000D02*
X149390000Y-10720000D01*
X148500000Y-19380000D02*
X148500000Y-16720000D01*
X147610000Y-19777071D02*
X147610000Y-19380000D01*
X146850000Y-19777071D02*
X146850000Y-19380000D01*
X147610000Y-10720000D02*
X147610000Y-16720000D01*
X146850000Y-10720000D02*
X147610000Y-10720000D01*
X146850000Y-16720000D02*
X146850000Y-10720000D01*
X145960000Y-19380000D02*
X145960000Y-16720000D01*
X145070000Y-19710000D02*
X145070000Y-19380000D01*
X144310000Y-19710000D02*
X144310000Y-19380000D01*
X144970000Y-16720000D02*
X144970000Y-10720000D01*
X144850000Y-16720000D02*
X144850000Y-10720000D01*
X144730000Y-16720000D02*
X144730000Y-10720000D01*
X144610000Y-16720000D02*
X144610000Y-10720000D01*
X144490000Y-16720000D02*
X144490000Y-10720000D01*
X144370000Y-16720000D02*
X144370000Y-10720000D01*
X145070000Y-10720000D02*
X145070000Y-16720000D01*
X144310000Y-10720000D02*
X145070000Y-10720000D01*
X144310000Y-16720000D02*
X144310000Y-10720000D01*
X143360000Y-16720000D02*
X143360000Y-19380000D01*
X158720000Y-16720000D02*
X143360000Y-16720000D01*
X158720000Y-19380000D02*
X158720000Y-16720000D01*
X143360000Y-19380000D02*
X158720000Y-19380000D01*
X167320000Y-38240000D02*
X168650000Y-38240000D01*
X168650000Y-38240000D02*
X168650000Y-39570000D01*
X168650000Y-40840000D02*
X168650000Y-48520000D01*
X165990000Y-48520000D02*
X168650000Y-48520000D01*
X165990000Y-40840000D02*
X165990000Y-48520000D01*
X165990000Y-40840000D02*
X168650000Y-40840000D01*
X165980000Y-52300000D02*
X165980000Y-50970000D01*
X165980000Y-50970000D02*
X167310000Y-50970000D01*
X168580000Y-50970000D02*
X206740000Y-50970000D01*
X206740000Y-53630000D02*
X206740000Y-50970000D01*
X168580000Y-53630000D02*
X206740000Y-53630000D01*
X168580000Y-53630000D02*
X168580000Y-50970000D01*
X129670000Y-52310000D02*
X129670000Y-53640000D01*
X129670000Y-53640000D02*
X128340000Y-53640000D01*
X127070000Y-53640000D02*
X88910000Y-53640000D01*
X88910000Y-50980000D02*
X88910000Y-53640000D01*
X127070000Y-50980000D02*
X88910000Y-50980000D01*
X127070000Y-50980000D02*
X127070000Y-53640000D01*
D16*
X187005714Y-31676666D02*
X187481904Y-31676666D01*
X186910476Y-31962380D02*
X187243809Y-30962380D01*
X187577142Y-31962380D01*
X188434285Y-31962380D02*
X187862857Y-31962380D01*
X188148571Y-31962380D02*
X188148571Y-30962380D01*
X188053333Y-31105238D01*
X187958095Y-31200476D01*
X187862857Y-31248095D01*
X186607523Y-19218380D02*
X186131333Y-19218380D01*
X186083714Y-19694571D01*
X186131333Y-19646952D01*
X186226571Y-19599333D01*
X186464666Y-19599333D01*
X186559904Y-19646952D01*
X186607523Y-19694571D01*
X186655142Y-19789809D01*
X186655142Y-20027904D01*
X186607523Y-20123142D01*
X186559904Y-20170761D01*
X186464666Y-20218380D01*
X186226571Y-20218380D01*
X186131333Y-20170761D01*
X186083714Y-20123142D01*
X186940857Y-19218380D02*
X187274190Y-20218380D01*
X187607523Y-19218380D01*
X186631333Y-22758380D02*
X186298000Y-22282190D01*
X186059904Y-22758380D02*
X186059904Y-21758380D01*
X186440857Y-21758380D01*
X186536095Y-21806000D01*
X186583714Y-21853619D01*
X186631333Y-21948857D01*
X186631333Y-22091714D01*
X186583714Y-22186952D01*
X186536095Y-22234571D01*
X186440857Y-22282190D01*
X186059904Y-22282190D01*
X186964666Y-21758380D02*
X187631333Y-22758380D01*
X187631333Y-21758380D02*
X186964666Y-22758380D01*
X186036095Y-24298380D02*
X186607523Y-24298380D01*
X186321809Y-25298380D02*
X186321809Y-24298380D01*
X186845619Y-24298380D02*
X187512285Y-25298380D01*
X187512285Y-24298380D02*
X186845619Y-25298380D01*
X185544000Y-27838380D02*
X185544000Y-26838380D01*
X185782095Y-26838380D01*
X185924952Y-26886000D01*
X186020190Y-26981238D01*
X186067809Y-27076476D01*
X186115428Y-27266952D01*
X186115428Y-27409809D01*
X186067809Y-27600285D01*
X186020190Y-27695523D01*
X185924952Y-27790761D01*
X185782095Y-27838380D01*
X185544000Y-27838380D01*
X186544000Y-27838380D02*
X186544000Y-26838380D01*
X187591619Y-27838380D02*
X187258285Y-27362190D01*
X187020190Y-27838380D02*
X187020190Y-26838380D01*
X187401142Y-26838380D01*
X187496380Y-26886000D01*
X187544000Y-26933619D01*
X187591619Y-27028857D01*
X187591619Y-27171714D01*
X187544000Y-27266952D01*
X187496380Y-27314571D01*
X187401142Y-27362190D01*
X187020190Y-27362190D01*
X185528095Y-16726000D02*
X185432857Y-16678380D01*
X185290000Y-16678380D01*
X185147142Y-16726000D01*
X185051904Y-16821238D01*
X185004285Y-16916476D01*
X184956666Y-17106952D01*
X184956666Y-17249809D01*
X185004285Y-17440285D01*
X185051904Y-17535523D01*
X185147142Y-17630761D01*
X185290000Y-17678380D01*
X185385238Y-17678380D01*
X185528095Y-17630761D01*
X185575714Y-17583142D01*
X185575714Y-17249809D01*
X185385238Y-17249809D01*
X186004285Y-17678380D02*
X186004285Y-16678380D01*
X186575714Y-17678380D01*
X186575714Y-16678380D01*
X187051904Y-17678380D02*
X187051904Y-16678380D01*
X187290000Y-16678380D01*
X187432857Y-16726000D01*
X187528095Y-16821238D01*
X187575714Y-16916476D01*
X187623333Y-17106952D01*
X187623333Y-17249809D01*
X187575714Y-17440285D01*
X187528095Y-17535523D01*
X187432857Y-17630761D01*
X187290000Y-17678380D01*
X187051904Y-17678380D01*
X194392380Y-32246666D02*
X193916190Y-32580000D01*
X194392380Y-32818095D02*
X193392380Y-32818095D01*
X193392380Y-32437142D01*
X193440000Y-32341904D01*
X193487619Y-32294285D01*
X193582857Y-32246666D01*
X193725714Y-32246666D01*
X193820952Y-32294285D01*
X193868571Y-32341904D01*
X193916190Y-32437142D01*
X193916190Y-32818095D01*
X193392380Y-31913333D02*
X194392380Y-31246666D01*
X193392380Y-31246666D02*
X194392380Y-31913333D01*
X194392380Y-30865714D02*
X193392380Y-30865714D01*
X193392380Y-30627619D01*
X193440000Y-30484761D01*
X193535238Y-30389523D01*
X193630476Y-30341904D01*
X193820952Y-30294285D01*
X193963809Y-30294285D01*
X194154285Y-30341904D01*
X194249523Y-30389523D01*
X194344761Y-30484761D01*
X194392380Y-30627619D01*
X194392380Y-30865714D01*
X198500000Y-32371904D02*
X198452380Y-32467142D01*
X198452380Y-32610000D01*
X198500000Y-32752857D01*
X198595238Y-32848095D01*
X198690476Y-32895714D01*
X198880952Y-32943333D01*
X199023809Y-32943333D01*
X199214285Y-32895714D01*
X199309523Y-32848095D01*
X199404761Y-32752857D01*
X199452380Y-32610000D01*
X199452380Y-32514761D01*
X199404761Y-32371904D01*
X199357142Y-32324285D01*
X199023809Y-32324285D01*
X199023809Y-32514761D01*
X199452380Y-31895714D02*
X198452380Y-31895714D01*
X199452380Y-31324285D01*
X198452380Y-31324285D01*
X199452380Y-30848095D02*
X198452380Y-30848095D01*
X198452380Y-30610000D01*
X198500000Y-30467142D01*
X198595238Y-30371904D01*
X198690476Y-30324285D01*
X198880952Y-30276666D01*
X199023809Y-30276666D01*
X199214285Y-30324285D01*
X199309523Y-30371904D01*
X199404761Y-30467142D01*
X199452380Y-30610000D01*
X199452380Y-30848095D01*
X201047619Y-30895714D02*
X201000000Y-30848095D01*
X200952380Y-30752857D01*
X200952380Y-30514761D01*
X201000000Y-30419523D01*
X201047619Y-30371904D01*
X201142857Y-30324285D01*
X201238095Y-30324285D01*
X201380952Y-30371904D01*
X201952380Y-30943333D01*
X201952380Y-30324285D01*
X203562380Y-30963333D02*
X203562380Y-30344285D01*
X203943333Y-30677619D01*
X203943333Y-30534761D01*
X203990952Y-30439523D01*
X204038571Y-30391904D01*
X204133809Y-30344285D01*
X204371904Y-30344285D01*
X204467142Y-30391904D01*
X204514761Y-30439523D01*
X204562380Y-30534761D01*
X204562380Y-30820476D01*
X204514761Y-30915714D01*
X204467142Y-30963333D01*
X206435714Y-30449523D02*
X207102380Y-30449523D01*
X206054761Y-30687619D02*
X206769047Y-30925714D01*
X206769047Y-30306666D01*
X208672380Y-30351904D02*
X208672380Y-30828095D01*
X209148571Y-30875714D01*
X209100952Y-30828095D01*
X209053333Y-30732857D01*
X209053333Y-30494761D01*
X209100952Y-30399523D01*
X209148571Y-30351904D01*
X209243809Y-30304285D01*
X209481904Y-30304285D01*
X209577142Y-30351904D01*
X209624761Y-30399523D01*
X209672380Y-30494761D01*
X209672380Y-30732857D01*
X209624761Y-30828095D01*
X209577142Y-30875714D01*
X211202380Y-30419523D02*
X211202380Y-30610000D01*
X211250000Y-30705238D01*
X211297619Y-30752857D01*
X211440476Y-30848095D01*
X211630952Y-30895714D01*
X212011904Y-30895714D01*
X212107142Y-30848095D01*
X212154761Y-30800476D01*
X212202380Y-30705238D01*
X212202380Y-30514761D01*
X212154761Y-30419523D01*
X212107142Y-30371904D01*
X212011904Y-30324285D01*
X211773809Y-30324285D01*
X211678571Y-30371904D01*
X211630952Y-30419523D01*
X211583333Y-30514761D01*
X211583333Y-30705238D01*
X211630952Y-30800476D01*
X211678571Y-30848095D01*
X211773809Y-30895714D01*
X213752380Y-30943333D02*
X213752380Y-30276666D01*
X214752380Y-30705238D01*
X216680952Y-30685238D02*
X216633333Y-30780476D01*
X216585714Y-30828095D01*
X216490476Y-30875714D01*
X216442857Y-30875714D01*
X216347619Y-30828095D01*
X216300000Y-30780476D01*
X216252380Y-30685238D01*
X216252380Y-30494761D01*
X216300000Y-30399523D01*
X216347619Y-30351904D01*
X216442857Y-30304285D01*
X216490476Y-30304285D01*
X216585714Y-30351904D01*
X216633333Y-30399523D01*
X216680952Y-30494761D01*
X216680952Y-30685238D01*
X216728571Y-30780476D01*
X216776190Y-30828095D01*
X216871428Y-30875714D01*
X217061904Y-30875714D01*
X217157142Y-30828095D01*
X217204761Y-30780476D01*
X217252380Y-30685238D01*
X217252380Y-30494761D01*
X217204761Y-30399523D01*
X217157142Y-30351904D01*
X217061904Y-30304285D01*
X216871428Y-30304285D01*
X216776190Y-30351904D01*
X216728571Y-30399523D01*
X216680952Y-30494761D01*
X219852380Y-30780476D02*
X219852380Y-30590000D01*
X219804761Y-30494761D01*
X219757142Y-30447142D01*
X219614285Y-30351904D01*
X219423809Y-30304285D01*
X219042857Y-30304285D01*
X218947619Y-30351904D01*
X218900000Y-30399523D01*
X218852380Y-30494761D01*
X218852380Y-30685238D01*
X218900000Y-30780476D01*
X218947619Y-30828095D01*
X219042857Y-30875714D01*
X219280952Y-30875714D01*
X219376190Y-30828095D01*
X219423809Y-30780476D01*
X219471428Y-30685238D01*
X219471428Y-30494761D01*
X219423809Y-30399523D01*
X219376190Y-30351904D01*
X219280952Y-30304285D01*
X219742380Y-11720476D02*
X219742380Y-12291904D01*
X219742380Y-12006190D02*
X218742380Y-12006190D01*
X218885238Y-12101428D01*
X218980476Y-12196666D01*
X219028095Y-12291904D01*
X218742380Y-11101428D02*
X218742380Y-11006190D01*
X218790000Y-10910952D01*
X218837619Y-10863333D01*
X218932857Y-10815714D01*
X219123333Y-10768095D01*
X219361428Y-10768095D01*
X219551904Y-10815714D01*
X219647142Y-10863333D01*
X219694761Y-10910952D01*
X219742380Y-11006190D01*
X219742380Y-11101428D01*
X219694761Y-11196666D01*
X219647142Y-11244285D01*
X219551904Y-11291904D01*
X219361428Y-11339523D01*
X219123333Y-11339523D01*
X218932857Y-11291904D01*
X218837619Y-11244285D01*
X218790000Y-11196666D01*
X218742380Y-11101428D01*
X217252380Y-11730476D02*
X217252380Y-12301904D01*
X217252380Y-12016190D02*
X216252380Y-12016190D01*
X216395238Y-12111428D01*
X216490476Y-12206666D01*
X216538095Y-12301904D01*
X217252380Y-10778095D02*
X217252380Y-11349523D01*
X217252380Y-11063809D02*
X216252380Y-11063809D01*
X216395238Y-11159047D01*
X216490476Y-11254285D01*
X216538095Y-11349523D01*
X214652380Y-11700476D02*
X214652380Y-12271904D01*
X214652380Y-11986190D02*
X213652380Y-11986190D01*
X213795238Y-12081428D01*
X213890476Y-12176666D01*
X213938095Y-12271904D01*
X213747619Y-11319523D02*
X213700000Y-11271904D01*
X213652380Y-11176666D01*
X213652380Y-10938571D01*
X213700000Y-10843333D01*
X213747619Y-10795714D01*
X213842857Y-10748095D01*
X213938095Y-10748095D01*
X214080952Y-10795714D01*
X214652380Y-11367142D01*
X214652380Y-10748095D01*
X212122380Y-11710476D02*
X212122380Y-12281904D01*
X212122380Y-11996190D02*
X211122380Y-11996190D01*
X211265238Y-12091428D01*
X211360476Y-12186666D01*
X211408095Y-12281904D01*
X211122380Y-11377142D02*
X211122380Y-10758095D01*
X211503333Y-11091428D01*
X211503333Y-10948571D01*
X211550952Y-10853333D01*
X211598571Y-10805714D01*
X211693809Y-10758095D01*
X211931904Y-10758095D01*
X212027142Y-10805714D01*
X212074761Y-10853333D01*
X212122380Y-10948571D01*
X212122380Y-11234285D01*
X212074761Y-11329523D01*
X212027142Y-11377142D01*
X209396666Y-12184285D02*
X209396666Y-11708095D01*
X209682380Y-12279523D02*
X208682380Y-11946190D01*
X209682380Y-11612857D01*
X208682380Y-11089047D02*
X208682380Y-10993809D01*
X208730000Y-10898571D01*
X208777619Y-10850952D01*
X208872857Y-10803333D01*
X209063333Y-10755714D01*
X209301428Y-10755714D01*
X209491904Y-10803333D01*
X209587142Y-10850952D01*
X209634761Y-10898571D01*
X209682380Y-10993809D01*
X209682380Y-11089047D01*
X209634761Y-11184285D01*
X209587142Y-11231904D01*
X209491904Y-11279523D01*
X209301428Y-11327142D01*
X209063333Y-11327142D01*
X208872857Y-11279523D01*
X208777619Y-11231904D01*
X208730000Y-11184285D01*
X208682380Y-11089047D01*
X206826666Y-12174285D02*
X206826666Y-11698095D01*
X207112380Y-12269523D02*
X206112380Y-11936190D01*
X207112380Y-11602857D01*
X207112380Y-10745714D02*
X207112380Y-11317142D01*
X207112380Y-11031428D02*
X206112380Y-11031428D01*
X206255238Y-11126666D01*
X206350476Y-11221904D01*
X206398095Y-11317142D01*
X204406666Y-12204285D02*
X204406666Y-11728095D01*
X204692380Y-12299523D02*
X203692380Y-11966190D01*
X204692380Y-11632857D01*
X203787619Y-11347142D02*
X203740000Y-11299523D01*
X203692380Y-11204285D01*
X203692380Y-10966190D01*
X203740000Y-10870952D01*
X203787619Y-10823333D01*
X203882857Y-10775714D01*
X203978095Y-10775714D01*
X204120952Y-10823333D01*
X204692380Y-11394761D01*
X204692380Y-10775714D01*
X201786666Y-12194285D02*
X201786666Y-11718095D01*
X202072380Y-12289523D02*
X201072380Y-11956190D01*
X202072380Y-11622857D01*
X201072380Y-11384761D02*
X201072380Y-10765714D01*
X201453333Y-11099047D01*
X201453333Y-10956190D01*
X201500952Y-10860952D01*
X201548571Y-10813333D01*
X201643809Y-10765714D01*
X201881904Y-10765714D01*
X201977142Y-10813333D01*
X202024761Y-10860952D01*
X202072380Y-10956190D01*
X202072380Y-11241904D01*
X202024761Y-11337142D01*
X201977142Y-11384761D01*
X196992380Y-11679047D02*
X196516190Y-12012380D01*
X196992380Y-12250476D02*
X195992380Y-12250476D01*
X195992380Y-11869523D01*
X196040000Y-11774285D01*
X196087619Y-11726666D01*
X196182857Y-11679047D01*
X196325714Y-11679047D01*
X196420952Y-11726666D01*
X196468571Y-11774285D01*
X196516190Y-11869523D01*
X196516190Y-12250476D01*
X196468571Y-11250476D02*
X196468571Y-10917142D01*
X196992380Y-10774285D02*
X196992380Y-11250476D01*
X195992380Y-11250476D01*
X195992380Y-10774285D01*
X196944761Y-10393333D02*
X196992380Y-10250476D01*
X196992380Y-10012380D01*
X196944761Y-9917142D01*
X196897142Y-9869523D01*
X196801904Y-9821904D01*
X196706666Y-9821904D01*
X196611428Y-9869523D01*
X196563809Y-9917142D01*
X196516190Y-10012380D01*
X196468571Y-10202857D01*
X196420952Y-10298095D01*
X196373333Y-10345714D01*
X196278095Y-10393333D01*
X196182857Y-10393333D01*
X196087619Y-10345714D01*
X196040000Y-10298095D01*
X195992380Y-10202857D01*
X195992380Y-9964761D01*
X196040000Y-9821904D01*
X193370000Y-11721904D02*
X193322380Y-11817142D01*
X193322380Y-11960000D01*
X193370000Y-12102857D01*
X193465238Y-12198095D01*
X193560476Y-12245714D01*
X193750952Y-12293333D01*
X193893809Y-12293333D01*
X194084285Y-12245714D01*
X194179523Y-12198095D01*
X194274761Y-12102857D01*
X194322380Y-11960000D01*
X194322380Y-11864761D01*
X194274761Y-11721904D01*
X194227142Y-11674285D01*
X193893809Y-11674285D01*
X193893809Y-11864761D01*
X194322380Y-11245714D02*
X193322380Y-11245714D01*
X194322380Y-10674285D01*
X193322380Y-10674285D01*
X194322380Y-10198095D02*
X193322380Y-10198095D01*
X193322380Y-9960000D01*
X193370000Y-9817142D01*
X193465238Y-9721904D01*
X193560476Y-9674285D01*
X193750952Y-9626666D01*
X193893809Y-9626666D01*
X194084285Y-9674285D01*
X194179523Y-9721904D01*
X194274761Y-9817142D01*
X194322380Y-9960000D01*
X194322380Y-10198095D01*
X191912380Y-11700476D02*
X191436190Y-12033809D01*
X191912380Y-12271904D02*
X190912380Y-12271904D01*
X190912380Y-11890952D01*
X190960000Y-11795714D01*
X191007619Y-11748095D01*
X191102857Y-11700476D01*
X191245714Y-11700476D01*
X191340952Y-11748095D01*
X191388571Y-11795714D01*
X191436190Y-11890952D01*
X191436190Y-12271904D01*
X191626666Y-11319523D02*
X191626666Y-10843333D01*
X191912380Y-11414761D02*
X190912380Y-11081428D01*
X191912380Y-10748095D01*
X190912380Y-10510000D02*
X191912380Y-10271904D01*
X191198095Y-10081428D01*
X191912380Y-9890952D01*
X190912380Y-9652857D01*
X190862380Y-32701904D02*
X190862380Y-32130476D01*
X191862380Y-32416190D02*
X190862380Y-32416190D01*
X190862380Y-31892380D02*
X191862380Y-31225714D01*
X190862380Y-31225714D02*
X191862380Y-31892380D01*
X191862380Y-30844761D02*
X190862380Y-30844761D01*
X190862380Y-30606666D01*
X190910000Y-30463809D01*
X191005238Y-30368571D01*
X191100476Y-30320952D01*
X191290952Y-30273333D01*
X191433809Y-30273333D01*
X191624285Y-30320952D01*
X191719523Y-30368571D01*
X191814761Y-30463809D01*
X191862380Y-30606666D01*
X191862380Y-30844761D01*
X135532380Y-21653333D02*
X136246666Y-21653333D01*
X136389523Y-21700952D01*
X136484761Y-21796190D01*
X136532380Y-21939047D01*
X136532380Y-22034285D01*
X136532380Y-21177142D02*
X135532380Y-21177142D01*
X135532380Y-20796190D01*
X135580000Y-20700952D01*
X135627619Y-20653333D01*
X135722857Y-20605714D01*
X135865714Y-20605714D01*
X135960952Y-20653333D01*
X136008571Y-20700952D01*
X136056190Y-20796190D01*
X136056190Y-21177142D01*
X136532380Y-19653333D02*
X136532380Y-20224761D01*
X136532380Y-19939047D02*
X135532380Y-19939047D01*
X135675238Y-20034285D01*
X135770476Y-20129523D01*
X135818095Y-20224761D01*
X114738095Y-108602380D02*
X114738095Y-107602380D01*
X114738095Y-108078571D02*
X115309523Y-108078571D01*
X115309523Y-108602380D02*
X115309523Y-107602380D01*
X116214285Y-107602380D02*
X116023809Y-107602380D01*
X115928571Y-107650000D01*
X115880952Y-107697619D01*
X115785714Y-107840476D01*
X115738095Y-108030952D01*
X115738095Y-108411904D01*
X115785714Y-108507142D01*
X115833333Y-108554761D01*
X115928571Y-108602380D01*
X116119047Y-108602380D01*
X116214285Y-108554761D01*
X116261904Y-108507142D01*
X116309523Y-108411904D01*
X116309523Y-108173809D01*
X116261904Y-108078571D01*
X116214285Y-108030952D01*
X116119047Y-107983333D01*
X115928571Y-107983333D01*
X115833333Y-108030952D01*
X115785714Y-108078571D01*
X115738095Y-108173809D01*
X193538095Y-108602380D02*
X193538095Y-107602380D01*
X193538095Y-108078571D02*
X194109523Y-108078571D01*
X194109523Y-108602380D02*
X194109523Y-107602380D01*
X195061904Y-107602380D02*
X194585714Y-107602380D01*
X194538095Y-108078571D01*
X194585714Y-108030952D01*
X194680952Y-107983333D01*
X194919047Y-107983333D01*
X195014285Y-108030952D01*
X195061904Y-108078571D01*
X195109523Y-108173809D01*
X195109523Y-108411904D01*
X195061904Y-108507142D01*
X195014285Y-108554761D01*
X194919047Y-108602380D01*
X194680952Y-108602380D01*
X194585714Y-108554761D01*
X194538095Y-108507142D01*
X85238095Y-158002380D02*
X85238095Y-157002380D01*
X85238095Y-157478571D02*
X85809523Y-157478571D01*
X85809523Y-158002380D02*
X85809523Y-157002380D01*
X86714285Y-157335714D02*
X86714285Y-158002380D01*
X86476190Y-156954761D02*
X86238095Y-157669047D01*
X86857142Y-157669047D01*
X225438095Y-158002380D02*
X225438095Y-157002380D01*
X225438095Y-157478571D02*
X226009523Y-157478571D01*
X226009523Y-158002380D02*
X226009523Y-157002380D01*
X226390476Y-157002380D02*
X227009523Y-157002380D01*
X226676190Y-157383333D01*
X226819047Y-157383333D01*
X226914285Y-157430952D01*
X226961904Y-157478571D01*
X227009523Y-157573809D01*
X227009523Y-157811904D01*
X226961904Y-157907142D01*
X226914285Y-157954761D01*
X226819047Y-158002380D01*
X226533333Y-158002380D01*
X226438095Y-157954761D01*
X226390476Y-157907142D01*
X225538095Y-34102380D02*
X225538095Y-33102380D01*
X225538095Y-33578571D02*
X226109523Y-33578571D01*
X226109523Y-34102380D02*
X226109523Y-33102380D01*
X226538095Y-33197619D02*
X226585714Y-33150000D01*
X226680952Y-33102380D01*
X226919047Y-33102380D01*
X227014285Y-33150000D01*
X227061904Y-33197619D01*
X227109523Y-33292857D01*
X227109523Y-33388095D01*
X227061904Y-33530952D01*
X226490476Y-34102380D01*
X227109523Y-34102380D01*
X85138095Y-34102380D02*
X85138095Y-33102380D01*
X85138095Y-33578571D02*
X85709523Y-33578571D01*
X85709523Y-34102380D02*
X85709523Y-33102380D01*
X86709523Y-34102380D02*
X86138095Y-34102380D01*
X86423809Y-34102380D02*
X86423809Y-33102380D01*
X86328571Y-33245238D01*
X86233333Y-33340476D01*
X86138095Y-33388095D01*
X163508095Y-27132380D02*
X163508095Y-27941904D01*
X163555714Y-28037142D01*
X163603333Y-28084761D01*
X163698571Y-28132380D01*
X163889047Y-28132380D01*
X163984285Y-28084761D01*
X164031904Y-28037142D01*
X164079523Y-27941904D01*
X164079523Y-27132380D01*
X164508095Y-27227619D02*
X164555714Y-27180000D01*
X164650952Y-27132380D01*
X164889047Y-27132380D01*
X164984285Y-27180000D01*
X165031904Y-27227619D01*
X165079523Y-27322857D01*
X165079523Y-27418095D01*
X165031904Y-27560952D01*
X164460476Y-28132380D01*
X165079523Y-28132380D01*
X218464761Y-34717619D02*
X218369523Y-34670000D01*
X218274285Y-34574761D01*
X218131428Y-34431904D01*
X218036190Y-34384285D01*
X217940952Y-34384285D01*
X217988571Y-34622380D02*
X217893333Y-34574761D01*
X217798095Y-34479523D01*
X217750476Y-34289047D01*
X217750476Y-33955714D01*
X217798095Y-33765238D01*
X217893333Y-33670000D01*
X217988571Y-33622380D01*
X218179047Y-33622380D01*
X218274285Y-33670000D01*
X218369523Y-33765238D01*
X218417142Y-33955714D01*
X218417142Y-34289047D01*
X218369523Y-34479523D01*
X218274285Y-34574761D01*
X218179047Y-34622380D01*
X217988571Y-34622380D01*
X219369523Y-34622380D02*
X218798095Y-34622380D01*
X219083809Y-34622380D02*
X219083809Y-33622380D01*
X218988571Y-33765238D01*
X218893333Y-33860476D01*
X218798095Y-33908095D01*
X207777142Y-33662380D02*
X207443809Y-33186190D01*
X207205714Y-33662380D02*
X207205714Y-32662380D01*
X207586666Y-32662380D01*
X207681904Y-32710000D01*
X207729523Y-32757619D01*
X207777142Y-32852857D01*
X207777142Y-32995714D01*
X207729523Y-33090952D01*
X207681904Y-33138571D01*
X207586666Y-33186190D01*
X207205714Y-33186190D01*
X208158095Y-32757619D02*
X208205714Y-32710000D01*
X208300952Y-32662380D01*
X208539047Y-32662380D01*
X208634285Y-32710000D01*
X208681904Y-32757619D01*
X208729523Y-32852857D01*
X208729523Y-32948095D01*
X208681904Y-33090952D01*
X208110476Y-33662380D01*
X208729523Y-33662380D01*
X209300952Y-33090952D02*
X209205714Y-33043333D01*
X209158095Y-32995714D01*
X209110476Y-32900476D01*
X209110476Y-32852857D01*
X209158095Y-32757619D01*
X209205714Y-32710000D01*
X209300952Y-32662380D01*
X209491428Y-32662380D01*
X209586666Y-32710000D01*
X209634285Y-32757619D01*
X209681904Y-32852857D01*
X209681904Y-32900476D01*
X209634285Y-32995714D01*
X209586666Y-33043333D01*
X209491428Y-33090952D01*
X209300952Y-33090952D01*
X209205714Y-33138571D01*
X209158095Y-33186190D01*
X209110476Y-33281428D01*
X209110476Y-33471904D01*
X209158095Y-33567142D01*
X209205714Y-33614761D01*
X209300952Y-33662380D01*
X209491428Y-33662380D01*
X209586666Y-33614761D01*
X209634285Y-33567142D01*
X209681904Y-33471904D01*
X209681904Y-33281428D01*
X209634285Y-33186190D01*
X209586666Y-33138571D01*
X209491428Y-33090952D01*
X212937142Y-37562380D02*
X212603809Y-37086190D01*
X212365714Y-37562380D02*
X212365714Y-36562380D01*
X212746666Y-36562380D01*
X212841904Y-36610000D01*
X212889523Y-36657619D01*
X212937142Y-36752857D01*
X212937142Y-36895714D01*
X212889523Y-36990952D01*
X212841904Y-37038571D01*
X212746666Y-37086190D01*
X212365714Y-37086190D01*
X213318095Y-36657619D02*
X213365714Y-36610000D01*
X213460952Y-36562380D01*
X213699047Y-36562380D01*
X213794285Y-36610000D01*
X213841904Y-36657619D01*
X213889523Y-36752857D01*
X213889523Y-36848095D01*
X213841904Y-36990952D01*
X213270476Y-37562380D01*
X213889523Y-37562380D01*
X214222857Y-36562380D02*
X214889523Y-36562380D01*
X214460952Y-37562380D01*
X234892380Y-13908095D02*
X233892380Y-13908095D01*
X234892380Y-13336666D02*
X234320952Y-13765238D01*
X233892380Y-13336666D02*
X234463809Y-13908095D01*
X234892380Y-12384285D02*
X234892380Y-12955714D01*
X234892380Y-12670000D02*
X233892380Y-12670000D01*
X234035238Y-12765238D01*
X234130476Y-12860476D01*
X234178095Y-12955714D01*
X227181904Y-33602380D02*
X227181904Y-32602380D01*
X227420000Y-32602380D01*
X227562857Y-32650000D01*
X227658095Y-32745238D01*
X227705714Y-32840476D01*
X227753333Y-33030952D01*
X227753333Y-33173809D01*
X227705714Y-33364285D01*
X227658095Y-33459523D01*
X227562857Y-33554761D01*
X227420000Y-33602380D01*
X227181904Y-33602380D01*
X228134285Y-32697619D02*
X228181904Y-32650000D01*
X228277142Y-32602380D01*
X228515238Y-32602380D01*
X228610476Y-32650000D01*
X228658095Y-32697619D01*
X228705714Y-32792857D01*
X228705714Y-32888095D01*
X228658095Y-33030952D01*
X228086666Y-33602380D01*
X228705714Y-33602380D01*
X232738095Y-33282380D02*
X232738095Y-32282380D01*
X233309523Y-33282380D02*
X232880952Y-32710952D01*
X233309523Y-32282380D02*
X232738095Y-32853809D01*
X181013333Y-27677142D02*
X180965714Y-27724761D01*
X180822857Y-27772380D01*
X180727619Y-27772380D01*
X180584761Y-27724761D01*
X180489523Y-27629523D01*
X180441904Y-27534285D01*
X180394285Y-27343809D01*
X180394285Y-27200952D01*
X180441904Y-27010476D01*
X180489523Y-26915238D01*
X180584761Y-26820000D01*
X180727619Y-26772380D01*
X180822857Y-26772380D01*
X180965714Y-26820000D01*
X181013333Y-26867619D01*
X181346666Y-26772380D02*
X181965714Y-26772380D01*
X181632380Y-27153333D01*
X181775238Y-27153333D01*
X181870476Y-27200952D01*
X181918095Y-27248571D01*
X181965714Y-27343809D01*
X181965714Y-27581904D01*
X181918095Y-27677142D01*
X181870476Y-27724761D01*
X181775238Y-27772380D01*
X181489523Y-27772380D01*
X181394285Y-27724761D01*
X181346666Y-27677142D01*
X156613333Y-34467142D02*
X156565714Y-34514761D01*
X156422857Y-34562380D01*
X156327619Y-34562380D01*
X156184761Y-34514761D01*
X156089523Y-34419523D01*
X156041904Y-34324285D01*
X155994285Y-34133809D01*
X155994285Y-33990952D01*
X156041904Y-33800476D01*
X156089523Y-33705238D01*
X156184761Y-33610000D01*
X156327619Y-33562380D01*
X156422857Y-33562380D01*
X156565714Y-33610000D01*
X156613333Y-33657619D01*
X157565714Y-34562380D02*
X156994285Y-34562380D01*
X157280000Y-34562380D02*
X157280000Y-33562380D01*
X157184761Y-33705238D01*
X157089523Y-33800476D01*
X156994285Y-33848095D01*
X211792380Y-49638095D02*
X210792380Y-49638095D01*
X210792380Y-49400000D01*
X210840000Y-49257142D01*
X210935238Y-49161904D01*
X211030476Y-49114285D01*
X211220952Y-49066666D01*
X211363809Y-49066666D01*
X211554285Y-49114285D01*
X211649523Y-49161904D01*
X211744761Y-49257142D01*
X211792380Y-49400000D01*
X211792380Y-49638095D01*
X211792380Y-48114285D02*
X211792380Y-48685714D01*
X211792380Y-48400000D02*
X210792380Y-48400000D01*
X210935238Y-48495238D01*
X211030476Y-48590476D01*
X211078095Y-48685714D01*
X212162380Y-54241904D02*
X211162380Y-54241904D01*
X212162380Y-53670476D02*
X211590952Y-54099047D01*
X211162380Y-53670476D02*
X211733809Y-54241904D01*
X219704761Y-47503333D02*
X219752380Y-47360476D01*
X219752380Y-47122380D01*
X219704761Y-47027142D01*
X219657142Y-46979523D01*
X219561904Y-46931904D01*
X219466666Y-46931904D01*
X219371428Y-46979523D01*
X219323809Y-47027142D01*
X219276190Y-47122380D01*
X219228571Y-47312857D01*
X219180952Y-47408095D01*
X219133333Y-47455714D01*
X219038095Y-47503333D01*
X218942857Y-47503333D01*
X218847619Y-47455714D01*
X218800000Y-47408095D01*
X218752380Y-47312857D01*
X218752380Y-47074761D01*
X218800000Y-46931904D01*
X218752380Y-46598571D02*
X219752380Y-46360476D01*
X219038095Y-46170000D01*
X219752380Y-45979523D01*
X218752380Y-45741428D01*
X219752380Y-44836666D02*
X219752380Y-45408095D01*
X219752380Y-45122380D02*
X218752380Y-45122380D01*
X218895238Y-45217619D01*
X218990476Y-45312857D01*
X219038095Y-45408095D01*
X86310476Y-20462380D02*
X86310476Y-21176666D01*
X86262857Y-21319523D01*
X86167619Y-21414761D01*
X86024761Y-21462380D01*
X85929523Y-21462380D01*
X87310476Y-21462380D02*
X86739047Y-21462380D01*
X87024761Y-21462380D02*
X87024761Y-20462380D01*
X86929523Y-20605238D01*
X86834285Y-20700476D01*
X86739047Y-20748095D01*
X88215238Y-20462380D02*
X87739047Y-20462380D01*
X87691428Y-20938571D01*
X87739047Y-20890952D01*
X87834285Y-20843333D01*
X88072380Y-20843333D01*
X88167619Y-20890952D01*
X88215238Y-20938571D01*
X88262857Y-21033809D01*
X88262857Y-21271904D01*
X88215238Y-21367142D01*
X88167619Y-21414761D01*
X88072380Y-21462380D01*
X87834285Y-21462380D01*
X87739047Y-21414761D01*
X87691428Y-21367142D01*
X142258095Y-39502380D02*
X142258095Y-40311904D01*
X142305714Y-40407142D01*
X142353333Y-40454761D01*
X142448571Y-40502380D01*
X142639047Y-40502380D01*
X142734285Y-40454761D01*
X142781904Y-40407142D01*
X142829523Y-40311904D01*
X142829523Y-39502380D01*
X143829523Y-40502380D02*
X143258095Y-40502380D01*
X143543809Y-40502380D02*
X143543809Y-39502380D01*
X143448571Y-39645238D01*
X143353333Y-39740476D01*
X143258095Y-39788095D01*
X182117142Y-25932380D02*
X181783809Y-25456190D01*
X181545714Y-25932380D02*
X181545714Y-24932380D01*
X181926666Y-24932380D01*
X182021904Y-24980000D01*
X182069523Y-25027619D01*
X182117142Y-25122857D01*
X182117142Y-25265714D01*
X182069523Y-25360952D01*
X182021904Y-25408571D01*
X181926666Y-25456190D01*
X181545714Y-25456190D01*
X182498095Y-25027619D02*
X182545714Y-24980000D01*
X182640952Y-24932380D01*
X182879047Y-24932380D01*
X182974285Y-24980000D01*
X183021904Y-25027619D01*
X183069523Y-25122857D01*
X183069523Y-25218095D01*
X183021904Y-25360952D01*
X182450476Y-25932380D01*
X183069523Y-25932380D01*
X183926666Y-24932380D02*
X183736190Y-24932380D01*
X183640952Y-24980000D01*
X183593333Y-25027619D01*
X183498095Y-25170476D01*
X183450476Y-25360952D01*
X183450476Y-25741904D01*
X183498095Y-25837142D01*
X183545714Y-25884761D01*
X183640952Y-25932380D01*
X183831428Y-25932380D01*
X183926666Y-25884761D01*
X183974285Y-25837142D01*
X184021904Y-25741904D01*
X184021904Y-25503809D01*
X183974285Y-25408571D01*
X183926666Y-25360952D01*
X183831428Y-25313333D01*
X183640952Y-25313333D01*
X183545714Y-25360952D01*
X183498095Y-25408571D01*
X183450476Y-25503809D01*
X131322380Y-49647857D02*
X130846190Y-49981190D01*
X131322380Y-50219285D02*
X130322380Y-50219285D01*
X130322380Y-49838333D01*
X130370000Y-49743095D01*
X130417619Y-49695476D01*
X130512857Y-49647857D01*
X130655714Y-49647857D01*
X130750952Y-49695476D01*
X130798571Y-49743095D01*
X130846190Y-49838333D01*
X130846190Y-50219285D01*
X130417619Y-49266904D02*
X130370000Y-49219285D01*
X130322380Y-49124047D01*
X130322380Y-48885952D01*
X130370000Y-48790714D01*
X130417619Y-48743095D01*
X130512857Y-48695476D01*
X130608095Y-48695476D01*
X130750952Y-48743095D01*
X131322380Y-49314523D01*
X131322380Y-48695476D01*
X130322380Y-47790714D02*
X130322380Y-48266904D01*
X130798571Y-48314523D01*
X130750952Y-48266904D01*
X130703333Y-48171666D01*
X130703333Y-47933571D01*
X130750952Y-47838333D01*
X130798571Y-47790714D01*
X130893809Y-47743095D01*
X131131904Y-47743095D01*
X131227142Y-47790714D01*
X131274761Y-47838333D01*
X131322380Y-47933571D01*
X131322380Y-48171666D01*
X131274761Y-48266904D01*
X131227142Y-48314523D01*
X134052380Y-49687857D02*
X133576190Y-50021190D01*
X134052380Y-50259285D02*
X133052380Y-50259285D01*
X133052380Y-49878333D01*
X133100000Y-49783095D01*
X133147619Y-49735476D01*
X133242857Y-49687857D01*
X133385714Y-49687857D01*
X133480952Y-49735476D01*
X133528571Y-49783095D01*
X133576190Y-49878333D01*
X133576190Y-50259285D01*
X133147619Y-49306904D02*
X133100000Y-49259285D01*
X133052380Y-49164047D01*
X133052380Y-48925952D01*
X133100000Y-48830714D01*
X133147619Y-48783095D01*
X133242857Y-48735476D01*
X133338095Y-48735476D01*
X133480952Y-48783095D01*
X134052380Y-49354523D01*
X134052380Y-48735476D01*
X133385714Y-47878333D02*
X134052380Y-47878333D01*
X133004761Y-48116428D02*
X133719047Y-48354523D01*
X133719047Y-47735476D01*
X136722380Y-49712857D02*
X136246190Y-50046190D01*
X136722380Y-50284285D02*
X135722380Y-50284285D01*
X135722380Y-49903333D01*
X135770000Y-49808095D01*
X135817619Y-49760476D01*
X135912857Y-49712857D01*
X136055714Y-49712857D01*
X136150952Y-49760476D01*
X136198571Y-49808095D01*
X136246190Y-49903333D01*
X136246190Y-50284285D01*
X135817619Y-49331904D02*
X135770000Y-49284285D01*
X135722380Y-49189047D01*
X135722380Y-48950952D01*
X135770000Y-48855714D01*
X135817619Y-48808095D01*
X135912857Y-48760476D01*
X136008095Y-48760476D01*
X136150952Y-48808095D01*
X136722380Y-49379523D01*
X136722380Y-48760476D01*
X135722380Y-48427142D02*
X135722380Y-47808095D01*
X136103333Y-48141428D01*
X136103333Y-47998571D01*
X136150952Y-47903333D01*
X136198571Y-47855714D01*
X136293809Y-47808095D01*
X136531904Y-47808095D01*
X136627142Y-47855714D01*
X136674761Y-47903333D01*
X136722380Y-47998571D01*
X136722380Y-48284285D01*
X136674761Y-48379523D01*
X136627142Y-48427142D01*
X139582380Y-49777857D02*
X139106190Y-50111190D01*
X139582380Y-50349285D02*
X138582380Y-50349285D01*
X138582380Y-49968333D01*
X138630000Y-49873095D01*
X138677619Y-49825476D01*
X138772857Y-49777857D01*
X138915714Y-49777857D01*
X139010952Y-49825476D01*
X139058571Y-49873095D01*
X139106190Y-49968333D01*
X139106190Y-50349285D01*
X138677619Y-49396904D02*
X138630000Y-49349285D01*
X138582380Y-49254047D01*
X138582380Y-49015952D01*
X138630000Y-48920714D01*
X138677619Y-48873095D01*
X138772857Y-48825476D01*
X138868095Y-48825476D01*
X139010952Y-48873095D01*
X139582380Y-49444523D01*
X139582380Y-48825476D01*
X138677619Y-48444523D02*
X138630000Y-48396904D01*
X138582380Y-48301666D01*
X138582380Y-48063571D01*
X138630000Y-47968333D01*
X138677619Y-47920714D01*
X138772857Y-47873095D01*
X138868095Y-47873095D01*
X139010952Y-47920714D01*
X139582380Y-48492142D01*
X139582380Y-47873095D01*
X142312380Y-49807857D02*
X141836190Y-50141190D01*
X142312380Y-50379285D02*
X141312380Y-50379285D01*
X141312380Y-49998333D01*
X141360000Y-49903095D01*
X141407619Y-49855476D01*
X141502857Y-49807857D01*
X141645714Y-49807857D01*
X141740952Y-49855476D01*
X141788571Y-49903095D01*
X141836190Y-49998333D01*
X141836190Y-50379285D01*
X141407619Y-49426904D02*
X141360000Y-49379285D01*
X141312380Y-49284047D01*
X141312380Y-49045952D01*
X141360000Y-48950714D01*
X141407619Y-48903095D01*
X141502857Y-48855476D01*
X141598095Y-48855476D01*
X141740952Y-48903095D01*
X142312380Y-49474523D01*
X142312380Y-48855476D01*
X142312380Y-47903095D02*
X142312380Y-48474523D01*
X142312380Y-48188809D02*
X141312380Y-48188809D01*
X141455238Y-48284047D01*
X141550476Y-48379285D01*
X141598095Y-48474523D01*
X145102380Y-49897857D02*
X144626190Y-50231190D01*
X145102380Y-50469285D02*
X144102380Y-50469285D01*
X144102380Y-50088333D01*
X144150000Y-49993095D01*
X144197619Y-49945476D01*
X144292857Y-49897857D01*
X144435714Y-49897857D01*
X144530952Y-49945476D01*
X144578571Y-49993095D01*
X144626190Y-50088333D01*
X144626190Y-50469285D01*
X144197619Y-49516904D02*
X144150000Y-49469285D01*
X144102380Y-49374047D01*
X144102380Y-49135952D01*
X144150000Y-49040714D01*
X144197619Y-48993095D01*
X144292857Y-48945476D01*
X144388095Y-48945476D01*
X144530952Y-48993095D01*
X145102380Y-49564523D01*
X145102380Y-48945476D01*
X144102380Y-48326428D02*
X144102380Y-48231190D01*
X144150000Y-48135952D01*
X144197619Y-48088333D01*
X144292857Y-48040714D01*
X144483333Y-47993095D01*
X144721428Y-47993095D01*
X144911904Y-48040714D01*
X145007142Y-48088333D01*
X145054761Y-48135952D01*
X145102380Y-48231190D01*
X145102380Y-48326428D01*
X145054761Y-48421666D01*
X145007142Y-48469285D01*
X144911904Y-48516904D01*
X144721428Y-48564523D01*
X144483333Y-48564523D01*
X144292857Y-48516904D01*
X144197619Y-48469285D01*
X144150000Y-48421666D01*
X144102380Y-48326428D01*
X147972380Y-49887857D02*
X147496190Y-50221190D01*
X147972380Y-50459285D02*
X146972380Y-50459285D01*
X146972380Y-50078333D01*
X147020000Y-49983095D01*
X147067619Y-49935476D01*
X147162857Y-49887857D01*
X147305714Y-49887857D01*
X147400952Y-49935476D01*
X147448571Y-49983095D01*
X147496190Y-50078333D01*
X147496190Y-50459285D01*
X147972380Y-48935476D02*
X147972380Y-49506904D01*
X147972380Y-49221190D02*
X146972380Y-49221190D01*
X147115238Y-49316428D01*
X147210476Y-49411666D01*
X147258095Y-49506904D01*
X147972380Y-48459285D02*
X147972380Y-48268809D01*
X147924761Y-48173571D01*
X147877142Y-48125952D01*
X147734285Y-48030714D01*
X147543809Y-47983095D01*
X147162857Y-47983095D01*
X147067619Y-48030714D01*
X147020000Y-48078333D01*
X146972380Y-48173571D01*
X146972380Y-48364047D01*
X147020000Y-48459285D01*
X147067619Y-48506904D01*
X147162857Y-48554523D01*
X147400952Y-48554523D01*
X147496190Y-48506904D01*
X147543809Y-48459285D01*
X147591428Y-48364047D01*
X147591428Y-48173571D01*
X147543809Y-48078333D01*
X147496190Y-48030714D01*
X147400952Y-47983095D01*
X150762380Y-49837857D02*
X150286190Y-50171190D01*
X150762380Y-50409285D02*
X149762380Y-50409285D01*
X149762380Y-50028333D01*
X149810000Y-49933095D01*
X149857619Y-49885476D01*
X149952857Y-49837857D01*
X150095714Y-49837857D01*
X150190952Y-49885476D01*
X150238571Y-49933095D01*
X150286190Y-50028333D01*
X150286190Y-50409285D01*
X150762380Y-48885476D02*
X150762380Y-49456904D01*
X150762380Y-49171190D02*
X149762380Y-49171190D01*
X149905238Y-49266428D01*
X150000476Y-49361666D01*
X150048095Y-49456904D01*
X150190952Y-48314047D02*
X150143333Y-48409285D01*
X150095714Y-48456904D01*
X150000476Y-48504523D01*
X149952857Y-48504523D01*
X149857619Y-48456904D01*
X149810000Y-48409285D01*
X149762380Y-48314047D01*
X149762380Y-48123571D01*
X149810000Y-48028333D01*
X149857619Y-47980714D01*
X149952857Y-47933095D01*
X150000476Y-47933095D01*
X150095714Y-47980714D01*
X150143333Y-48028333D01*
X150190952Y-48123571D01*
X150190952Y-48314047D01*
X150238571Y-48409285D01*
X150286190Y-48456904D01*
X150381428Y-48504523D01*
X150571904Y-48504523D01*
X150667142Y-48456904D01*
X150714761Y-48409285D01*
X150762380Y-48314047D01*
X150762380Y-48123571D01*
X150714761Y-48028333D01*
X150667142Y-47980714D01*
X150571904Y-47933095D01*
X150381428Y-47933095D01*
X150286190Y-47980714D01*
X150238571Y-48028333D01*
X150190952Y-48123571D01*
X153542380Y-49822857D02*
X153066190Y-50156190D01*
X153542380Y-50394285D02*
X152542380Y-50394285D01*
X152542380Y-50013333D01*
X152590000Y-49918095D01*
X152637619Y-49870476D01*
X152732857Y-49822857D01*
X152875714Y-49822857D01*
X152970952Y-49870476D01*
X153018571Y-49918095D01*
X153066190Y-50013333D01*
X153066190Y-50394285D01*
X153542380Y-48870476D02*
X153542380Y-49441904D01*
X153542380Y-49156190D02*
X152542380Y-49156190D01*
X152685238Y-49251428D01*
X152780476Y-49346666D01*
X152828095Y-49441904D01*
X152542380Y-48537142D02*
X152542380Y-47870476D01*
X153542380Y-48299047D01*
X156222380Y-49812857D02*
X155746190Y-50146190D01*
X156222380Y-50384285D02*
X155222380Y-50384285D01*
X155222380Y-50003333D01*
X155270000Y-49908095D01*
X155317619Y-49860476D01*
X155412857Y-49812857D01*
X155555714Y-49812857D01*
X155650952Y-49860476D01*
X155698571Y-49908095D01*
X155746190Y-50003333D01*
X155746190Y-50384285D01*
X156222380Y-48860476D02*
X156222380Y-49431904D01*
X156222380Y-49146190D02*
X155222380Y-49146190D01*
X155365238Y-49241428D01*
X155460476Y-49336666D01*
X155508095Y-49431904D01*
X155222380Y-48003333D02*
X155222380Y-48193809D01*
X155270000Y-48289047D01*
X155317619Y-48336666D01*
X155460476Y-48431904D01*
X155650952Y-48479523D01*
X156031904Y-48479523D01*
X156127142Y-48431904D01*
X156174761Y-48384285D01*
X156222380Y-48289047D01*
X156222380Y-48098571D01*
X156174761Y-48003333D01*
X156127142Y-47955714D01*
X156031904Y-47908095D01*
X155793809Y-47908095D01*
X155698571Y-47955714D01*
X155650952Y-48003333D01*
X155603333Y-48098571D01*
X155603333Y-48289047D01*
X155650952Y-48384285D01*
X155698571Y-48431904D01*
X155793809Y-48479523D01*
X159132380Y-47662857D02*
X158656190Y-47996190D01*
X159132380Y-48234285D02*
X158132380Y-48234285D01*
X158132380Y-47853333D01*
X158180000Y-47758095D01*
X158227619Y-47710476D01*
X158322857Y-47662857D01*
X158465714Y-47662857D01*
X158560952Y-47710476D01*
X158608571Y-47758095D01*
X158656190Y-47853333D01*
X158656190Y-48234285D01*
X159132380Y-46710476D02*
X159132380Y-47281904D01*
X159132380Y-46996190D02*
X158132380Y-46996190D01*
X158275238Y-47091428D01*
X158370476Y-47186666D01*
X158418095Y-47281904D01*
X158132380Y-45805714D02*
X158132380Y-46281904D01*
X158608571Y-46329523D01*
X158560952Y-46281904D01*
X158513333Y-46186666D01*
X158513333Y-45948571D01*
X158560952Y-45853333D01*
X158608571Y-45805714D01*
X158703809Y-45758095D01*
X158941904Y-45758095D01*
X159037142Y-45805714D01*
X159084761Y-45853333D01*
X159132380Y-45948571D01*
X159132380Y-46186666D01*
X159084761Y-46281904D01*
X159037142Y-46329523D01*
X162002380Y-48762857D02*
X161526190Y-49096190D01*
X162002380Y-49334285D02*
X161002380Y-49334285D01*
X161002380Y-48953333D01*
X161050000Y-48858095D01*
X161097619Y-48810476D01*
X161192857Y-48762857D01*
X161335714Y-48762857D01*
X161430952Y-48810476D01*
X161478571Y-48858095D01*
X161526190Y-48953333D01*
X161526190Y-49334285D01*
X162002380Y-47810476D02*
X162002380Y-48381904D01*
X162002380Y-48096190D02*
X161002380Y-48096190D01*
X161145238Y-48191428D01*
X161240476Y-48286666D01*
X161288095Y-48381904D01*
X161335714Y-46953333D02*
X162002380Y-46953333D01*
X160954761Y-47191428D02*
X161669047Y-47429523D01*
X161669047Y-46810476D01*
X131382380Y-42892857D02*
X130906190Y-43226190D01*
X131382380Y-43464285D02*
X130382380Y-43464285D01*
X130382380Y-43083333D01*
X130430000Y-42988095D01*
X130477619Y-42940476D01*
X130572857Y-42892857D01*
X130715714Y-42892857D01*
X130810952Y-42940476D01*
X130858571Y-42988095D01*
X130906190Y-43083333D01*
X130906190Y-43464285D01*
X131382380Y-41940476D02*
X131382380Y-42511904D01*
X131382380Y-42226190D02*
X130382380Y-42226190D01*
X130525238Y-42321428D01*
X130620476Y-42416666D01*
X130668095Y-42511904D01*
X130382380Y-41607142D02*
X130382380Y-40988095D01*
X130763333Y-41321428D01*
X130763333Y-41178571D01*
X130810952Y-41083333D01*
X130858571Y-41035714D01*
X130953809Y-40988095D01*
X131191904Y-40988095D01*
X131287142Y-41035714D01*
X131334761Y-41083333D01*
X131382380Y-41178571D01*
X131382380Y-41464285D01*
X131334761Y-41559523D01*
X131287142Y-41607142D01*
X134112380Y-42872857D02*
X133636190Y-43206190D01*
X134112380Y-43444285D02*
X133112380Y-43444285D01*
X133112380Y-43063333D01*
X133160000Y-42968095D01*
X133207619Y-42920476D01*
X133302857Y-42872857D01*
X133445714Y-42872857D01*
X133540952Y-42920476D01*
X133588571Y-42968095D01*
X133636190Y-43063333D01*
X133636190Y-43444285D01*
X134112380Y-41920476D02*
X134112380Y-42491904D01*
X134112380Y-42206190D02*
X133112380Y-42206190D01*
X133255238Y-42301428D01*
X133350476Y-42396666D01*
X133398095Y-42491904D01*
X133207619Y-41539523D02*
X133160000Y-41491904D01*
X133112380Y-41396666D01*
X133112380Y-41158571D01*
X133160000Y-41063333D01*
X133207619Y-41015714D01*
X133302857Y-40968095D01*
X133398095Y-40968095D01*
X133540952Y-41015714D01*
X134112380Y-41587142D01*
X134112380Y-40968095D01*
X136882380Y-42852857D02*
X136406190Y-43186190D01*
X136882380Y-43424285D02*
X135882380Y-43424285D01*
X135882380Y-43043333D01*
X135930000Y-42948095D01*
X135977619Y-42900476D01*
X136072857Y-42852857D01*
X136215714Y-42852857D01*
X136310952Y-42900476D01*
X136358571Y-42948095D01*
X136406190Y-43043333D01*
X136406190Y-43424285D01*
X136882380Y-41900476D02*
X136882380Y-42471904D01*
X136882380Y-42186190D02*
X135882380Y-42186190D01*
X136025238Y-42281428D01*
X136120476Y-42376666D01*
X136168095Y-42471904D01*
X136882380Y-40948095D02*
X136882380Y-41519523D01*
X136882380Y-41233809D02*
X135882380Y-41233809D01*
X136025238Y-41329047D01*
X136120476Y-41424285D01*
X136168095Y-41519523D01*
X139672380Y-42832857D02*
X139196190Y-43166190D01*
X139672380Y-43404285D02*
X138672380Y-43404285D01*
X138672380Y-43023333D01*
X138720000Y-42928095D01*
X138767619Y-42880476D01*
X138862857Y-42832857D01*
X139005714Y-42832857D01*
X139100952Y-42880476D01*
X139148571Y-42928095D01*
X139196190Y-43023333D01*
X139196190Y-43404285D01*
X139672380Y-41880476D02*
X139672380Y-42451904D01*
X139672380Y-42166190D02*
X138672380Y-42166190D01*
X138815238Y-42261428D01*
X138910476Y-42356666D01*
X138958095Y-42451904D01*
X138672380Y-41261428D02*
X138672380Y-41166190D01*
X138720000Y-41070952D01*
X138767619Y-41023333D01*
X138862857Y-40975714D01*
X139053333Y-40928095D01*
X139291428Y-40928095D01*
X139481904Y-40975714D01*
X139577142Y-41023333D01*
X139624761Y-41070952D01*
X139672380Y-41166190D01*
X139672380Y-41261428D01*
X139624761Y-41356666D01*
X139577142Y-41404285D01*
X139481904Y-41451904D01*
X139291428Y-41499523D01*
X139053333Y-41499523D01*
X138862857Y-41451904D01*
X138767619Y-41404285D01*
X138720000Y-41356666D01*
X138672380Y-41261428D01*
X142402380Y-42356666D02*
X141926190Y-42690000D01*
X142402380Y-42928095D02*
X141402380Y-42928095D01*
X141402380Y-42547142D01*
X141450000Y-42451904D01*
X141497619Y-42404285D01*
X141592857Y-42356666D01*
X141735714Y-42356666D01*
X141830952Y-42404285D01*
X141878571Y-42451904D01*
X141926190Y-42547142D01*
X141926190Y-42928095D01*
X142402380Y-41880476D02*
X142402380Y-41690000D01*
X142354761Y-41594761D01*
X142307142Y-41547142D01*
X142164285Y-41451904D01*
X141973809Y-41404285D01*
X141592857Y-41404285D01*
X141497619Y-41451904D01*
X141450000Y-41499523D01*
X141402380Y-41594761D01*
X141402380Y-41785238D01*
X141450000Y-41880476D01*
X141497619Y-41928095D01*
X141592857Y-41975714D01*
X141830952Y-41975714D01*
X141926190Y-41928095D01*
X141973809Y-41880476D01*
X142021428Y-41785238D01*
X142021428Y-41594761D01*
X141973809Y-41499523D01*
X141926190Y-41451904D01*
X141830952Y-41404285D01*
X145132380Y-42326666D02*
X144656190Y-42660000D01*
X145132380Y-42898095D02*
X144132380Y-42898095D01*
X144132380Y-42517142D01*
X144180000Y-42421904D01*
X144227619Y-42374285D01*
X144322857Y-42326666D01*
X144465714Y-42326666D01*
X144560952Y-42374285D01*
X144608571Y-42421904D01*
X144656190Y-42517142D01*
X144656190Y-42898095D01*
X144560952Y-41755238D02*
X144513333Y-41850476D01*
X144465714Y-41898095D01*
X144370476Y-41945714D01*
X144322857Y-41945714D01*
X144227619Y-41898095D01*
X144180000Y-41850476D01*
X144132380Y-41755238D01*
X144132380Y-41564761D01*
X144180000Y-41469523D01*
X144227619Y-41421904D01*
X144322857Y-41374285D01*
X144370476Y-41374285D01*
X144465714Y-41421904D01*
X144513333Y-41469523D01*
X144560952Y-41564761D01*
X144560952Y-41755238D01*
X144608571Y-41850476D01*
X144656190Y-41898095D01*
X144751428Y-41945714D01*
X144941904Y-41945714D01*
X145037142Y-41898095D01*
X145084761Y-41850476D01*
X145132380Y-41755238D01*
X145132380Y-41564761D01*
X145084761Y-41469523D01*
X145037142Y-41421904D01*
X144941904Y-41374285D01*
X144751428Y-41374285D01*
X144656190Y-41421904D01*
X144608571Y-41469523D01*
X144560952Y-41564761D01*
X148042380Y-42286666D02*
X147566190Y-42620000D01*
X148042380Y-42858095D02*
X147042380Y-42858095D01*
X147042380Y-42477142D01*
X147090000Y-42381904D01*
X147137619Y-42334285D01*
X147232857Y-42286666D01*
X147375714Y-42286666D01*
X147470952Y-42334285D01*
X147518571Y-42381904D01*
X147566190Y-42477142D01*
X147566190Y-42858095D01*
X147042380Y-41953333D02*
X147042380Y-41286666D01*
X148042380Y-41715238D01*
X150912380Y-42366666D02*
X150436190Y-42700000D01*
X150912380Y-42938095D02*
X149912380Y-42938095D01*
X149912380Y-42557142D01*
X149960000Y-42461904D01*
X150007619Y-42414285D01*
X150102857Y-42366666D01*
X150245714Y-42366666D01*
X150340952Y-42414285D01*
X150388571Y-42461904D01*
X150436190Y-42557142D01*
X150436190Y-42938095D01*
X149912380Y-41509523D02*
X149912380Y-41700000D01*
X149960000Y-41795238D01*
X150007619Y-41842857D01*
X150150476Y-41938095D01*
X150340952Y-41985714D01*
X150721904Y-41985714D01*
X150817142Y-41938095D01*
X150864761Y-41890476D01*
X150912380Y-41795238D01*
X150912380Y-41604761D01*
X150864761Y-41509523D01*
X150817142Y-41461904D01*
X150721904Y-41414285D01*
X150483809Y-41414285D01*
X150388571Y-41461904D01*
X150340952Y-41509523D01*
X150293333Y-41604761D01*
X150293333Y-41795238D01*
X150340952Y-41890476D01*
X150388571Y-41938095D01*
X150483809Y-41985714D01*
X153642380Y-42366666D02*
X153166190Y-42700000D01*
X153642380Y-42938095D02*
X152642380Y-42938095D01*
X152642380Y-42557142D01*
X152690000Y-42461904D01*
X152737619Y-42414285D01*
X152832857Y-42366666D01*
X152975714Y-42366666D01*
X153070952Y-42414285D01*
X153118571Y-42461904D01*
X153166190Y-42557142D01*
X153166190Y-42938095D01*
X152642380Y-41461904D02*
X152642380Y-41938095D01*
X153118571Y-41985714D01*
X153070952Y-41938095D01*
X153023333Y-41842857D01*
X153023333Y-41604761D01*
X153070952Y-41509523D01*
X153118571Y-41461904D01*
X153213809Y-41414285D01*
X153451904Y-41414285D01*
X153547142Y-41461904D01*
X153594761Y-41509523D01*
X153642380Y-41604761D01*
X153642380Y-41842857D01*
X153594761Y-41938095D01*
X153547142Y-41985714D01*
X156282380Y-42396666D02*
X155806190Y-42730000D01*
X156282380Y-42968095D02*
X155282380Y-42968095D01*
X155282380Y-42587142D01*
X155330000Y-42491904D01*
X155377619Y-42444285D01*
X155472857Y-42396666D01*
X155615714Y-42396666D01*
X155710952Y-42444285D01*
X155758571Y-42491904D01*
X155806190Y-42587142D01*
X155806190Y-42968095D01*
X155615714Y-41539523D02*
X156282380Y-41539523D01*
X155234761Y-41777619D02*
X155949047Y-42015714D01*
X155949047Y-41396666D01*
X159122380Y-42306666D02*
X158646190Y-42640000D01*
X159122380Y-42878095D02*
X158122380Y-42878095D01*
X158122380Y-42497142D01*
X158170000Y-42401904D01*
X158217619Y-42354285D01*
X158312857Y-42306666D01*
X158455714Y-42306666D01*
X158550952Y-42354285D01*
X158598571Y-42401904D01*
X158646190Y-42497142D01*
X158646190Y-42878095D01*
X158122380Y-41973333D02*
X158122380Y-41354285D01*
X158503333Y-41687619D01*
X158503333Y-41544761D01*
X158550952Y-41449523D01*
X158598571Y-41401904D01*
X158693809Y-41354285D01*
X158931904Y-41354285D01*
X159027142Y-41401904D01*
X159074761Y-41449523D01*
X159122380Y-41544761D01*
X159122380Y-41830476D01*
X159074761Y-41925714D01*
X159027142Y-41973333D01*
X161912380Y-42356666D02*
X161436190Y-42690000D01*
X161912380Y-42928095D02*
X160912380Y-42928095D01*
X160912380Y-42547142D01*
X160960000Y-42451904D01*
X161007619Y-42404285D01*
X161102857Y-42356666D01*
X161245714Y-42356666D01*
X161340952Y-42404285D01*
X161388571Y-42451904D01*
X161436190Y-42547142D01*
X161436190Y-42928095D01*
X161007619Y-41975714D02*
X160960000Y-41928095D01*
X160912380Y-41832857D01*
X160912380Y-41594761D01*
X160960000Y-41499523D01*
X161007619Y-41451904D01*
X161102857Y-41404285D01*
X161198095Y-41404285D01*
X161340952Y-41451904D01*
X161912380Y-42023333D01*
X161912380Y-41404285D01*
X127482380Y-47306666D02*
X127006190Y-47640000D01*
X127482380Y-47878095D02*
X126482380Y-47878095D01*
X126482380Y-47497142D01*
X126530000Y-47401904D01*
X126577619Y-47354285D01*
X126672857Y-47306666D01*
X126815714Y-47306666D01*
X126910952Y-47354285D01*
X126958571Y-47401904D01*
X127006190Y-47497142D01*
X127006190Y-47878095D01*
X127482380Y-46354285D02*
X127482380Y-46925714D01*
X127482380Y-46640000D02*
X126482380Y-46640000D01*
X126625238Y-46735238D01*
X126720476Y-46830476D01*
X126768095Y-46925714D01*
X206174285Y-125162380D02*
X206174285Y-125876666D01*
X206126666Y-126019523D01*
X206031428Y-126114761D01*
X205888571Y-126162380D01*
X205793333Y-126162380D01*
X206602857Y-125257619D02*
X206650476Y-125210000D01*
X206745714Y-125162380D01*
X206983809Y-125162380D01*
X207079047Y-125210000D01*
X207126666Y-125257619D01*
X207174285Y-125352857D01*
X207174285Y-125448095D01*
X207126666Y-125590952D01*
X206555238Y-126162380D01*
X207174285Y-126162380D01*
X208031428Y-125162380D02*
X207840952Y-125162380D01*
X207745714Y-125210000D01*
X207698095Y-125257619D01*
X207602857Y-125400476D01*
X207555238Y-125590952D01*
X207555238Y-125971904D01*
X207602857Y-126067142D01*
X207650476Y-126114761D01*
X207745714Y-126162380D01*
X207936190Y-126162380D01*
X208031428Y-126114761D01*
X208079047Y-126067142D01*
X208126666Y-125971904D01*
X208126666Y-125733809D01*
X208079047Y-125638571D01*
X208031428Y-125590952D01*
X207936190Y-125543333D01*
X207745714Y-125543333D01*
X207650476Y-125590952D01*
X207602857Y-125638571D01*
X207555238Y-125733809D01*
X208555238Y-125781428D02*
X209317142Y-125781428D01*
X209650476Y-125162380D02*
X210221904Y-125162380D01*
X209936190Y-126162380D02*
X209936190Y-125162380D01*
X210555238Y-126162380D02*
X210555238Y-125162380D01*
X210936190Y-125162380D01*
X211031428Y-125210000D01*
X211079047Y-125257619D01*
X211126666Y-125352857D01*
X211126666Y-125495714D01*
X211079047Y-125590952D01*
X211031428Y-125638571D01*
X210936190Y-125686190D01*
X210555238Y-125686190D01*
X212031428Y-125162380D02*
X211555238Y-125162380D01*
X211507619Y-125638571D01*
X211555238Y-125590952D01*
X211650476Y-125543333D01*
X211888571Y-125543333D01*
X211983809Y-125590952D01*
X212031428Y-125638571D01*
X212079047Y-125733809D01*
X212079047Y-125971904D01*
X212031428Y-126067142D01*
X211983809Y-126114761D01*
X211888571Y-126162380D01*
X211650476Y-126162380D01*
X211555238Y-126114761D01*
X211507619Y-126067142D01*
X174866666Y-13202380D02*
X174866666Y-13916666D01*
X174819047Y-14059523D01*
X174723809Y-14154761D01*
X174580952Y-14202380D01*
X174485714Y-14202380D01*
X175819047Y-13202380D02*
X175342857Y-13202380D01*
X175295238Y-13678571D01*
X175342857Y-13630952D01*
X175438095Y-13583333D01*
X175676190Y-13583333D01*
X175771428Y-13630952D01*
X175819047Y-13678571D01*
X175866666Y-13773809D01*
X175866666Y-14011904D01*
X175819047Y-14107142D01*
X175771428Y-14154761D01*
X175676190Y-14202380D01*
X175438095Y-14202380D01*
X175342857Y-14154761D01*
X175295238Y-14107142D01*
X166283333Y-33427142D02*
X166235714Y-33474761D01*
X166092857Y-33522380D01*
X165997619Y-33522380D01*
X165854761Y-33474761D01*
X165759523Y-33379523D01*
X165711904Y-33284285D01*
X165664285Y-33093809D01*
X165664285Y-32950952D01*
X165711904Y-32760476D01*
X165759523Y-32665238D01*
X165854761Y-32570000D01*
X165997619Y-32522380D01*
X166092857Y-32522380D01*
X166235714Y-32570000D01*
X166283333Y-32617619D01*
X166664285Y-32617619D02*
X166711904Y-32570000D01*
X166807142Y-32522380D01*
X167045238Y-32522380D01*
X167140476Y-32570000D01*
X167188095Y-32617619D01*
X167235714Y-32712857D01*
X167235714Y-32808095D01*
X167188095Y-32950952D01*
X166616666Y-33522380D01*
X167235714Y-33522380D01*
X155974285Y-115922380D02*
X155974285Y-116636666D01*
X155926666Y-116779523D01*
X155831428Y-116874761D01*
X155688571Y-116922380D01*
X155593333Y-116922380D01*
X156498095Y-116922380D02*
X156688571Y-116922380D01*
X156783809Y-116874761D01*
X156831428Y-116827142D01*
X156926666Y-116684285D01*
X156974285Y-116493809D01*
X156974285Y-116112857D01*
X156926666Y-116017619D01*
X156879047Y-115970000D01*
X156783809Y-115922380D01*
X156593333Y-115922380D01*
X156498095Y-115970000D01*
X156450476Y-116017619D01*
X156402857Y-116112857D01*
X156402857Y-116350952D01*
X156450476Y-116446190D01*
X156498095Y-116493809D01*
X156593333Y-116541428D01*
X156783809Y-116541428D01*
X156879047Y-116493809D01*
X156926666Y-116446190D01*
X156974285Y-116350952D01*
X157402857Y-116541428D02*
X158164761Y-116541428D01*
X158498095Y-115922380D02*
X159069523Y-115922380D01*
X158783809Y-116922380D02*
X158783809Y-115922380D01*
X159402857Y-116922380D02*
X159402857Y-115922380D01*
X159783809Y-115922380D01*
X159879047Y-115970000D01*
X159926666Y-116017619D01*
X159974285Y-116112857D01*
X159974285Y-116255714D01*
X159926666Y-116350952D01*
X159879047Y-116398571D01*
X159783809Y-116446190D01*
X159402857Y-116446190D01*
X160926666Y-116922380D02*
X160355238Y-116922380D01*
X160640952Y-116922380D02*
X160640952Y-115922380D01*
X160545714Y-116065238D01*
X160450476Y-116160476D01*
X160355238Y-116208095D01*
X161402857Y-116922380D02*
X161593333Y-116922380D01*
X161688571Y-116874761D01*
X161736190Y-116827142D01*
X161831428Y-116684285D01*
X161879047Y-116493809D01*
X161879047Y-116112857D01*
X161831428Y-116017619D01*
X161783809Y-115970000D01*
X161688571Y-115922380D01*
X161498095Y-115922380D01*
X161402857Y-115970000D01*
X161355238Y-116017619D01*
X161307619Y-116112857D01*
X161307619Y-116350952D01*
X161355238Y-116446190D01*
X161402857Y-116493809D01*
X161498095Y-116541428D01*
X161688571Y-116541428D01*
X161783809Y-116493809D01*
X161831428Y-116446190D01*
X161879047Y-116350952D01*
X139544285Y-102352380D02*
X139544285Y-103066666D01*
X139496666Y-103209523D01*
X139401428Y-103304761D01*
X139258571Y-103352380D01*
X139163333Y-103352380D01*
X140163333Y-102780952D02*
X140068095Y-102733333D01*
X140020476Y-102685714D01*
X139972857Y-102590476D01*
X139972857Y-102542857D01*
X140020476Y-102447619D01*
X140068095Y-102400000D01*
X140163333Y-102352380D01*
X140353809Y-102352380D01*
X140449047Y-102400000D01*
X140496666Y-102447619D01*
X140544285Y-102542857D01*
X140544285Y-102590476D01*
X140496666Y-102685714D01*
X140449047Y-102733333D01*
X140353809Y-102780952D01*
X140163333Y-102780952D01*
X140068095Y-102828571D01*
X140020476Y-102876190D01*
X139972857Y-102971428D01*
X139972857Y-103161904D01*
X140020476Y-103257142D01*
X140068095Y-103304761D01*
X140163333Y-103352380D01*
X140353809Y-103352380D01*
X140449047Y-103304761D01*
X140496666Y-103257142D01*
X140544285Y-103161904D01*
X140544285Y-102971428D01*
X140496666Y-102876190D01*
X140449047Y-102828571D01*
X140353809Y-102780952D01*
X140972857Y-102971428D02*
X141734761Y-102971428D01*
X142068095Y-102352380D02*
X142639523Y-102352380D01*
X142353809Y-103352380D02*
X142353809Y-102352380D01*
X142972857Y-103352380D02*
X142972857Y-102352380D01*
X143353809Y-102352380D01*
X143449047Y-102400000D01*
X143496666Y-102447619D01*
X143544285Y-102542857D01*
X143544285Y-102685714D01*
X143496666Y-102780952D01*
X143449047Y-102828571D01*
X143353809Y-102876190D01*
X142972857Y-102876190D01*
X144496666Y-103352380D02*
X143925238Y-103352380D01*
X144210952Y-103352380D02*
X144210952Y-102352380D01*
X144115714Y-102495238D01*
X144020476Y-102590476D01*
X143925238Y-102638095D01*
X144830000Y-102352380D02*
X145449047Y-102352380D01*
X145115714Y-102733333D01*
X145258571Y-102733333D01*
X145353809Y-102780952D01*
X145401428Y-102828571D01*
X145449047Y-102923809D01*
X145449047Y-103161904D01*
X145401428Y-103257142D01*
X145353809Y-103304761D01*
X145258571Y-103352380D01*
X144972857Y-103352380D01*
X144877619Y-103304761D01*
X144830000Y-103257142D01*
X178534285Y-146942380D02*
X178534285Y-147656666D01*
X178486666Y-147799523D01*
X178391428Y-147894761D01*
X178248571Y-147942380D01*
X178153333Y-147942380D01*
X178915238Y-146942380D02*
X179581904Y-146942380D01*
X179153333Y-147942380D01*
X179962857Y-147561428D02*
X180724761Y-147561428D01*
X181058095Y-146942380D02*
X181629523Y-146942380D01*
X181343809Y-147942380D02*
X181343809Y-146942380D01*
X181962857Y-147942380D02*
X181962857Y-146942380D01*
X182343809Y-146942380D01*
X182439047Y-146990000D01*
X182486666Y-147037619D01*
X182534285Y-147132857D01*
X182534285Y-147275714D01*
X182486666Y-147370952D01*
X182439047Y-147418571D01*
X182343809Y-147466190D01*
X181962857Y-147466190D01*
X182915238Y-147037619D02*
X182962857Y-146990000D01*
X183058095Y-146942380D01*
X183296190Y-146942380D01*
X183391428Y-146990000D01*
X183439047Y-147037619D01*
X183486666Y-147132857D01*
X183486666Y-147228095D01*
X183439047Y-147370952D01*
X182867619Y-147942380D01*
X183486666Y-147942380D01*
X183820000Y-146942380D02*
X184486666Y-146942380D01*
X184058095Y-147942380D01*
X191964285Y-116712380D02*
X191964285Y-117426666D01*
X191916666Y-117569523D01*
X191821428Y-117664761D01*
X191678571Y-117712380D01*
X191583333Y-117712380D01*
X192869047Y-116712380D02*
X192678571Y-116712380D01*
X192583333Y-116760000D01*
X192535714Y-116807619D01*
X192440476Y-116950476D01*
X192392857Y-117140952D01*
X192392857Y-117521904D01*
X192440476Y-117617142D01*
X192488095Y-117664761D01*
X192583333Y-117712380D01*
X192773809Y-117712380D01*
X192869047Y-117664761D01*
X192916666Y-117617142D01*
X192964285Y-117521904D01*
X192964285Y-117283809D01*
X192916666Y-117188571D01*
X192869047Y-117140952D01*
X192773809Y-117093333D01*
X192583333Y-117093333D01*
X192488095Y-117140952D01*
X192440476Y-117188571D01*
X192392857Y-117283809D01*
X193392857Y-117331428D02*
X194154761Y-117331428D01*
X194488095Y-116712380D02*
X195059523Y-116712380D01*
X194773809Y-117712380D02*
X194773809Y-116712380D01*
X195392857Y-117712380D02*
X195392857Y-116712380D01*
X195773809Y-116712380D01*
X195869047Y-116760000D01*
X195916666Y-116807619D01*
X195964285Y-116902857D01*
X195964285Y-117045714D01*
X195916666Y-117140952D01*
X195869047Y-117188571D01*
X195773809Y-117236190D01*
X195392857Y-117236190D01*
X196345238Y-116807619D02*
X196392857Y-116760000D01*
X196488095Y-116712380D01*
X196726190Y-116712380D01*
X196821428Y-116760000D01*
X196869047Y-116807619D01*
X196916666Y-116902857D01*
X196916666Y-116998095D01*
X196869047Y-117140952D01*
X196297619Y-117712380D01*
X196916666Y-117712380D01*
X197869047Y-117712380D02*
X197297619Y-117712380D01*
X197583333Y-117712380D02*
X197583333Y-116712380D01*
X197488095Y-116855238D01*
X197392857Y-116950476D01*
X197297619Y-116998095D01*
X128729047Y-20482380D02*
X128729047Y-21196666D01*
X128681428Y-21339523D01*
X128586190Y-21434761D01*
X128443333Y-21482380D01*
X128348095Y-21482380D01*
X129681428Y-20482380D02*
X129205238Y-20482380D01*
X129157619Y-20958571D01*
X129205238Y-20910952D01*
X129300476Y-20863333D01*
X129538571Y-20863333D01*
X129633809Y-20910952D01*
X129681428Y-20958571D01*
X129729047Y-21053809D01*
X129729047Y-21291904D01*
X129681428Y-21387142D01*
X129633809Y-21434761D01*
X129538571Y-21482380D01*
X129300476Y-21482380D01*
X129205238Y-21434761D01*
X129157619Y-21387142D01*
X130157619Y-21101428D02*
X130919523Y-21101428D01*
X131157619Y-20115000D02*
X132062380Y-20115000D01*
X131395714Y-20958571D02*
X131729047Y-20958571D01*
X131871904Y-21482380D02*
X131395714Y-21482380D01*
X131395714Y-20482380D01*
X131871904Y-20482380D01*
X132062380Y-20115000D02*
X133014761Y-20115000D01*
X132824285Y-21482380D02*
X132252857Y-21482380D01*
X132538571Y-21482380D02*
X132538571Y-20482380D01*
X132443333Y-20625238D01*
X132348095Y-20720476D01*
X132252857Y-20768095D01*
X120780476Y-121182380D02*
X120780476Y-121896666D01*
X120732857Y-122039523D01*
X120637619Y-122134761D01*
X120494761Y-122182380D01*
X120399523Y-122182380D01*
X121732857Y-121182380D02*
X121256666Y-121182380D01*
X121209047Y-121658571D01*
X121256666Y-121610952D01*
X121351904Y-121563333D01*
X121590000Y-121563333D01*
X121685238Y-121610952D01*
X121732857Y-121658571D01*
X121780476Y-121753809D01*
X121780476Y-121991904D01*
X121732857Y-122087142D01*
X121685238Y-122134761D01*
X121590000Y-122182380D01*
X121351904Y-122182380D01*
X121256666Y-122134761D01*
X121209047Y-122087142D01*
X122209047Y-121801428D02*
X122970952Y-121801428D01*
X123304285Y-121182380D02*
X123875714Y-121182380D01*
X123590000Y-122182380D02*
X123590000Y-121182380D01*
X124209047Y-122182380D02*
X124209047Y-121182380D01*
X124590000Y-121182380D01*
X124685238Y-121230000D01*
X124732857Y-121277619D01*
X124780476Y-121372857D01*
X124780476Y-121515714D01*
X124732857Y-121610952D01*
X124685238Y-121658571D01*
X124590000Y-121706190D01*
X124209047Y-121706190D01*
X125351904Y-121610952D02*
X125256666Y-121563333D01*
X125209047Y-121515714D01*
X125161428Y-121420476D01*
X125161428Y-121372857D01*
X125209047Y-121277619D01*
X125256666Y-121230000D01*
X125351904Y-121182380D01*
X125542380Y-121182380D01*
X125637619Y-121230000D01*
X125685238Y-121277619D01*
X125732857Y-121372857D01*
X125732857Y-121420476D01*
X125685238Y-121515714D01*
X125637619Y-121563333D01*
X125542380Y-121610952D01*
X125351904Y-121610952D01*
X125256666Y-121658571D01*
X125209047Y-121706190D01*
X125161428Y-121801428D01*
X125161428Y-121991904D01*
X125209047Y-122087142D01*
X125256666Y-122134761D01*
X125351904Y-122182380D01*
X125542380Y-122182380D01*
X125637619Y-122134761D01*
X125685238Y-122087142D01*
X125732857Y-121991904D01*
X125732857Y-121801428D01*
X125685238Y-121706190D01*
X125637619Y-121658571D01*
X125542380Y-121610952D01*
X137254285Y-76512380D02*
X137254285Y-77226666D01*
X137206666Y-77369523D01*
X137111428Y-77464761D01*
X136968571Y-77512380D01*
X136873333Y-77512380D01*
X138159047Y-76845714D02*
X138159047Y-77512380D01*
X137920952Y-76464761D02*
X137682857Y-77179047D01*
X138301904Y-77179047D01*
X138682857Y-77131428D02*
X139444761Y-77131428D01*
X139778095Y-76512380D02*
X140349523Y-76512380D01*
X140063809Y-77512380D02*
X140063809Y-76512380D01*
X140682857Y-77512380D02*
X140682857Y-76512380D01*
X141063809Y-76512380D01*
X141159047Y-76560000D01*
X141206666Y-76607619D01*
X141254285Y-76702857D01*
X141254285Y-76845714D01*
X141206666Y-76940952D01*
X141159047Y-76988571D01*
X141063809Y-77036190D01*
X140682857Y-77036190D01*
X142206666Y-77512380D02*
X141635238Y-77512380D01*
X141920952Y-77512380D02*
X141920952Y-76512380D01*
X141825714Y-76655238D01*
X141730476Y-76750476D01*
X141635238Y-76798095D01*
X143063809Y-76512380D02*
X142873333Y-76512380D01*
X142778095Y-76560000D01*
X142730476Y-76607619D01*
X142635238Y-76750476D01*
X142587619Y-76940952D01*
X142587619Y-77321904D01*
X142635238Y-77417142D01*
X142682857Y-77464761D01*
X142778095Y-77512380D01*
X142968571Y-77512380D01*
X143063809Y-77464761D01*
X143111428Y-77417142D01*
X143159047Y-77321904D01*
X143159047Y-77083809D01*
X143111428Y-76988571D01*
X143063809Y-76940952D01*
X142968571Y-76893333D01*
X142778095Y-76893333D01*
X142682857Y-76940952D01*
X142635238Y-76988571D01*
X142587619Y-77083809D01*
X204118095Y-99372380D02*
X204118095Y-100086666D01*
X204070476Y-100229523D01*
X203975238Y-100324761D01*
X203832380Y-100372380D01*
X203737142Y-100372380D01*
X204546666Y-99467619D02*
X204594285Y-99420000D01*
X204689523Y-99372380D01*
X204927619Y-99372380D01*
X205022857Y-99420000D01*
X205070476Y-99467619D01*
X205118095Y-99562857D01*
X205118095Y-99658095D01*
X205070476Y-99800952D01*
X204499047Y-100372380D01*
X205118095Y-100372380D01*
X205451428Y-99372380D02*
X206118095Y-99372380D01*
X205689523Y-100372380D01*
X206499047Y-99991428D02*
X207260952Y-99991428D01*
X207594285Y-99372380D02*
X208165714Y-99372380D01*
X207880000Y-100372380D02*
X207880000Y-99372380D01*
X208499047Y-100372380D02*
X208499047Y-99372380D01*
X208880000Y-99372380D01*
X208975238Y-99420000D01*
X209022857Y-99467619D01*
X209070476Y-99562857D01*
X209070476Y-99705714D01*
X209022857Y-99800952D01*
X208975238Y-99848571D01*
X208880000Y-99896190D01*
X208499047Y-99896190D01*
X209451428Y-99467619D02*
X209499047Y-99420000D01*
X209594285Y-99372380D01*
X209832380Y-99372380D01*
X209927619Y-99420000D01*
X209975238Y-99467619D01*
X210022857Y-99562857D01*
X210022857Y-99658095D01*
X209975238Y-99800952D01*
X209403809Y-100372380D01*
X210022857Y-100372380D01*
X210880000Y-99372380D02*
X210689523Y-99372380D01*
X210594285Y-99420000D01*
X210546666Y-99467619D01*
X210451428Y-99610476D01*
X210403809Y-99800952D01*
X210403809Y-100181904D01*
X210451428Y-100277142D01*
X210499047Y-100324761D01*
X210594285Y-100372380D01*
X210784761Y-100372380D01*
X210880000Y-100324761D01*
X210927619Y-100277142D01*
X210975238Y-100181904D01*
X210975238Y-99943809D01*
X210927619Y-99848571D01*
X210880000Y-99800952D01*
X210784761Y-99753333D01*
X210594285Y-99753333D01*
X210499047Y-99800952D01*
X210451428Y-99848571D01*
X210403809Y-99943809D01*
X183568095Y-106562380D02*
X183568095Y-107276666D01*
X183520476Y-107419523D01*
X183425238Y-107514761D01*
X183282380Y-107562380D01*
X183187142Y-107562380D01*
X183996666Y-106657619D02*
X184044285Y-106610000D01*
X184139523Y-106562380D01*
X184377619Y-106562380D01*
X184472857Y-106610000D01*
X184520476Y-106657619D01*
X184568095Y-106752857D01*
X184568095Y-106848095D01*
X184520476Y-106990952D01*
X183949047Y-107562380D01*
X184568095Y-107562380D01*
X185472857Y-106562380D02*
X184996666Y-106562380D01*
X184949047Y-107038571D01*
X184996666Y-106990952D01*
X185091904Y-106943333D01*
X185330000Y-106943333D01*
X185425238Y-106990952D01*
X185472857Y-107038571D01*
X185520476Y-107133809D01*
X185520476Y-107371904D01*
X185472857Y-107467142D01*
X185425238Y-107514761D01*
X185330000Y-107562380D01*
X185091904Y-107562380D01*
X184996666Y-107514761D01*
X184949047Y-107467142D01*
X185949047Y-107181428D02*
X186710952Y-107181428D01*
X187044285Y-106562380D02*
X187615714Y-106562380D01*
X187330000Y-107562380D02*
X187330000Y-106562380D01*
X187949047Y-107562380D02*
X187949047Y-106562380D01*
X188330000Y-106562380D01*
X188425238Y-106610000D01*
X188472857Y-106657619D01*
X188520476Y-106752857D01*
X188520476Y-106895714D01*
X188472857Y-106990952D01*
X188425238Y-107038571D01*
X188330000Y-107086190D01*
X187949047Y-107086190D01*
X189472857Y-107562380D02*
X188901428Y-107562380D01*
X189187142Y-107562380D02*
X189187142Y-106562380D01*
X189091904Y-106705238D01*
X188996666Y-106800476D01*
X188901428Y-106848095D01*
X190044285Y-106990952D02*
X189949047Y-106943333D01*
X189901428Y-106895714D01*
X189853809Y-106800476D01*
X189853809Y-106752857D01*
X189901428Y-106657619D01*
X189949047Y-106610000D01*
X190044285Y-106562380D01*
X190234761Y-106562380D01*
X190330000Y-106610000D01*
X190377619Y-106657619D01*
X190425238Y-106752857D01*
X190425238Y-106800476D01*
X190377619Y-106895714D01*
X190330000Y-106943333D01*
X190234761Y-106990952D01*
X190044285Y-106990952D01*
X189949047Y-107038571D01*
X189901428Y-107086190D01*
X189853809Y-107181428D01*
X189853809Y-107371904D01*
X189901428Y-107467142D01*
X189949047Y-107514761D01*
X190044285Y-107562380D01*
X190234761Y-107562380D01*
X190330000Y-107514761D01*
X190377619Y-107467142D01*
X190425238Y-107371904D01*
X190425238Y-107181428D01*
X190377619Y-107086190D01*
X190330000Y-107038571D01*
X190234761Y-106990952D01*
X139198095Y-91522380D02*
X139198095Y-92236666D01*
X139150476Y-92379523D01*
X139055238Y-92474761D01*
X138912380Y-92522380D01*
X138817142Y-92522380D01*
X139626666Y-91617619D02*
X139674285Y-91570000D01*
X139769523Y-91522380D01*
X140007619Y-91522380D01*
X140102857Y-91570000D01*
X140150476Y-91617619D01*
X140198095Y-91712857D01*
X140198095Y-91808095D01*
X140150476Y-91950952D01*
X139579047Y-92522380D01*
X140198095Y-92522380D01*
X141055238Y-91855714D02*
X141055238Y-92522380D01*
X140817142Y-91474761D02*
X140579047Y-92189047D01*
X141198095Y-92189047D01*
X141579047Y-92141428D02*
X142340952Y-92141428D01*
X142674285Y-91522380D02*
X143245714Y-91522380D01*
X142960000Y-92522380D02*
X142960000Y-91522380D01*
X143579047Y-92522380D02*
X143579047Y-91522380D01*
X143960000Y-91522380D01*
X144055238Y-91570000D01*
X144102857Y-91617619D01*
X144150476Y-91712857D01*
X144150476Y-91855714D01*
X144102857Y-91950952D01*
X144055238Y-91998571D01*
X143960000Y-92046190D01*
X143579047Y-92046190D01*
X145102857Y-92522380D02*
X144531428Y-92522380D01*
X144817142Y-92522380D02*
X144817142Y-91522380D01*
X144721904Y-91665238D01*
X144626666Y-91760476D01*
X144531428Y-91808095D01*
X146007619Y-91522380D02*
X145531428Y-91522380D01*
X145483809Y-91998571D01*
X145531428Y-91950952D01*
X145626666Y-91903333D01*
X145864761Y-91903333D01*
X145960000Y-91950952D01*
X146007619Y-91998571D01*
X146055238Y-92093809D01*
X146055238Y-92331904D01*
X146007619Y-92427142D01*
X145960000Y-92474761D01*
X145864761Y-92522380D01*
X145626666Y-92522380D01*
X145531428Y-92474761D01*
X145483809Y-92427142D01*
X172228095Y-97762380D02*
X172228095Y-98476666D01*
X172180476Y-98619523D01*
X172085238Y-98714761D01*
X171942380Y-98762380D01*
X171847142Y-98762380D01*
X172656666Y-97857619D02*
X172704285Y-97810000D01*
X172799523Y-97762380D01*
X173037619Y-97762380D01*
X173132857Y-97810000D01*
X173180476Y-97857619D01*
X173228095Y-97952857D01*
X173228095Y-98048095D01*
X173180476Y-98190952D01*
X172609047Y-98762380D01*
X173228095Y-98762380D01*
X173561428Y-97762380D02*
X174180476Y-97762380D01*
X173847142Y-98143333D01*
X173990000Y-98143333D01*
X174085238Y-98190952D01*
X174132857Y-98238571D01*
X174180476Y-98333809D01*
X174180476Y-98571904D01*
X174132857Y-98667142D01*
X174085238Y-98714761D01*
X173990000Y-98762380D01*
X173704285Y-98762380D01*
X173609047Y-98714761D01*
X173561428Y-98667142D01*
X174609047Y-98381428D02*
X175370952Y-98381428D01*
X175704285Y-97762380D02*
X176275714Y-97762380D01*
X175990000Y-98762380D02*
X175990000Y-97762380D01*
X176609047Y-98762380D02*
X176609047Y-97762380D01*
X176990000Y-97762380D01*
X177085238Y-97810000D01*
X177132857Y-97857619D01*
X177180476Y-97952857D01*
X177180476Y-98095714D01*
X177132857Y-98190952D01*
X177085238Y-98238571D01*
X176990000Y-98286190D01*
X176609047Y-98286190D01*
X178132857Y-98762380D02*
X177561428Y-98762380D01*
X177847142Y-98762380D02*
X177847142Y-97762380D01*
X177751904Y-97905238D01*
X177656666Y-98000476D01*
X177561428Y-98048095D01*
X178513809Y-97857619D02*
X178561428Y-97810000D01*
X178656666Y-97762380D01*
X178894761Y-97762380D01*
X178990000Y-97810000D01*
X179037619Y-97857619D01*
X179085238Y-97952857D01*
X179085238Y-98048095D01*
X179037619Y-98190952D01*
X178466190Y-98762380D01*
X179085238Y-98762380D01*
X179998095Y-69402380D02*
X179998095Y-70116666D01*
X179950476Y-70259523D01*
X179855238Y-70354761D01*
X179712380Y-70402380D01*
X179617142Y-70402380D01*
X180426666Y-69497619D02*
X180474285Y-69450000D01*
X180569523Y-69402380D01*
X180807619Y-69402380D01*
X180902857Y-69450000D01*
X180950476Y-69497619D01*
X180998095Y-69592857D01*
X180998095Y-69688095D01*
X180950476Y-69830952D01*
X180379047Y-70402380D01*
X180998095Y-70402380D01*
X181379047Y-69497619D02*
X181426666Y-69450000D01*
X181521904Y-69402380D01*
X181760000Y-69402380D01*
X181855238Y-69450000D01*
X181902857Y-69497619D01*
X181950476Y-69592857D01*
X181950476Y-69688095D01*
X181902857Y-69830952D01*
X181331428Y-70402380D01*
X181950476Y-70402380D01*
X182379047Y-70021428D02*
X183140952Y-70021428D01*
X183474285Y-69402380D02*
X184045714Y-69402380D01*
X183760000Y-70402380D02*
X183760000Y-69402380D01*
X184379047Y-70402380D02*
X184379047Y-69402380D01*
X184760000Y-69402380D01*
X184855238Y-69450000D01*
X184902857Y-69497619D01*
X184950476Y-69592857D01*
X184950476Y-69735714D01*
X184902857Y-69830952D01*
X184855238Y-69878571D01*
X184760000Y-69926190D01*
X184379047Y-69926190D01*
X185902857Y-70402380D02*
X185331428Y-70402380D01*
X185617142Y-70402380D02*
X185617142Y-69402380D01*
X185521904Y-69545238D01*
X185426666Y-69640476D01*
X185331428Y-69688095D01*
X186855238Y-70402380D02*
X186283809Y-70402380D01*
X186569523Y-70402380D02*
X186569523Y-69402380D01*
X186474285Y-69545238D01*
X186379047Y-69640476D01*
X186283809Y-69688095D01*
X194458095Y-103122380D02*
X194458095Y-103836666D01*
X194410476Y-103979523D01*
X194315238Y-104074761D01*
X194172380Y-104122380D01*
X194077142Y-104122380D01*
X194886666Y-103217619D02*
X194934285Y-103170000D01*
X195029523Y-103122380D01*
X195267619Y-103122380D01*
X195362857Y-103170000D01*
X195410476Y-103217619D01*
X195458095Y-103312857D01*
X195458095Y-103408095D01*
X195410476Y-103550952D01*
X194839047Y-104122380D01*
X195458095Y-104122380D01*
X196410476Y-104122380D02*
X195839047Y-104122380D01*
X196124761Y-104122380D02*
X196124761Y-103122380D01*
X196029523Y-103265238D01*
X195934285Y-103360476D01*
X195839047Y-103408095D01*
X196839047Y-103741428D02*
X197600952Y-103741428D01*
X197934285Y-103122380D02*
X198505714Y-103122380D01*
X198220000Y-104122380D02*
X198220000Y-103122380D01*
X198839047Y-104122380D02*
X198839047Y-103122380D01*
X199220000Y-103122380D01*
X199315238Y-103170000D01*
X199362857Y-103217619D01*
X199410476Y-103312857D01*
X199410476Y-103455714D01*
X199362857Y-103550952D01*
X199315238Y-103598571D01*
X199220000Y-103646190D01*
X198839047Y-103646190D01*
X200362857Y-104122380D02*
X199791428Y-104122380D01*
X200077142Y-104122380D02*
X200077142Y-103122380D01*
X199981904Y-103265238D01*
X199886666Y-103360476D01*
X199791428Y-103408095D01*
X200981904Y-103122380D02*
X201077142Y-103122380D01*
X201172380Y-103170000D01*
X201220000Y-103217619D01*
X201267619Y-103312857D01*
X201315238Y-103503333D01*
X201315238Y-103741428D01*
X201267619Y-103931904D01*
X201220000Y-104027142D01*
X201172380Y-104074761D01*
X201077142Y-104122380D01*
X200981904Y-104122380D01*
X200886666Y-104074761D01*
X200839047Y-104027142D01*
X200791428Y-103931904D01*
X200743809Y-103741428D01*
X200743809Y-103503333D01*
X200791428Y-103312857D01*
X200839047Y-103217619D01*
X200886666Y-103170000D01*
X200981904Y-103122380D01*
X170354285Y-103932380D02*
X170354285Y-104646666D01*
X170306666Y-104789523D01*
X170211428Y-104884761D01*
X170068571Y-104932380D01*
X169973333Y-104932380D01*
X170782857Y-104027619D02*
X170830476Y-103980000D01*
X170925714Y-103932380D01*
X171163809Y-103932380D01*
X171259047Y-103980000D01*
X171306666Y-104027619D01*
X171354285Y-104122857D01*
X171354285Y-104218095D01*
X171306666Y-104360952D01*
X170735238Y-104932380D01*
X171354285Y-104932380D01*
X171973333Y-103932380D02*
X172068571Y-103932380D01*
X172163809Y-103980000D01*
X172211428Y-104027619D01*
X172259047Y-104122857D01*
X172306666Y-104313333D01*
X172306666Y-104551428D01*
X172259047Y-104741904D01*
X172211428Y-104837142D01*
X172163809Y-104884761D01*
X172068571Y-104932380D01*
X171973333Y-104932380D01*
X171878095Y-104884761D01*
X171830476Y-104837142D01*
X171782857Y-104741904D01*
X171735238Y-104551428D01*
X171735238Y-104313333D01*
X171782857Y-104122857D01*
X171830476Y-104027619D01*
X171878095Y-103980000D01*
X171973333Y-103932380D01*
X172735238Y-104551428D02*
X173497142Y-104551428D01*
X173830476Y-103932380D02*
X174401904Y-103932380D01*
X174116190Y-104932380D02*
X174116190Y-103932380D01*
X174735238Y-104932380D02*
X174735238Y-103932380D01*
X175116190Y-103932380D01*
X175211428Y-103980000D01*
X175259047Y-104027619D01*
X175306666Y-104122857D01*
X175306666Y-104265714D01*
X175259047Y-104360952D01*
X175211428Y-104408571D01*
X175116190Y-104456190D01*
X174735238Y-104456190D01*
X175782857Y-104932380D02*
X175973333Y-104932380D01*
X176068571Y-104884761D01*
X176116190Y-104837142D01*
X176211428Y-104694285D01*
X176259047Y-104503809D01*
X176259047Y-104122857D01*
X176211428Y-104027619D01*
X176163809Y-103980000D01*
X176068571Y-103932380D01*
X175878095Y-103932380D01*
X175782857Y-103980000D01*
X175735238Y-104027619D01*
X175687619Y-104122857D01*
X175687619Y-104360952D01*
X175735238Y-104456190D01*
X175782857Y-104503809D01*
X175878095Y-104551428D01*
X176068571Y-104551428D01*
X176163809Y-104503809D01*
X176211428Y-104456190D01*
X176259047Y-104360952D01*
X123074285Y-114462380D02*
X123074285Y-115176666D01*
X123026666Y-115319523D01*
X122931428Y-115414761D01*
X122788571Y-115462380D01*
X122693333Y-115462380D01*
X124074285Y-115462380D02*
X123502857Y-115462380D01*
X123788571Y-115462380D02*
X123788571Y-114462380D01*
X123693333Y-114605238D01*
X123598095Y-114700476D01*
X123502857Y-114748095D01*
X124550476Y-115462380D02*
X124740952Y-115462380D01*
X124836190Y-115414761D01*
X124883809Y-115367142D01*
X124979047Y-115224285D01*
X125026666Y-115033809D01*
X125026666Y-114652857D01*
X124979047Y-114557619D01*
X124931428Y-114510000D01*
X124836190Y-114462380D01*
X124645714Y-114462380D01*
X124550476Y-114510000D01*
X124502857Y-114557619D01*
X124455238Y-114652857D01*
X124455238Y-114890952D01*
X124502857Y-114986190D01*
X124550476Y-115033809D01*
X124645714Y-115081428D01*
X124836190Y-115081428D01*
X124931428Y-115033809D01*
X124979047Y-114986190D01*
X125026666Y-114890952D01*
X125455238Y-115081428D02*
X126217142Y-115081428D01*
X126550476Y-114462380D02*
X127121904Y-114462380D01*
X126836190Y-115462380D02*
X126836190Y-114462380D01*
X127455238Y-115462380D02*
X127455238Y-114462380D01*
X127836190Y-114462380D01*
X127931428Y-114510000D01*
X127979047Y-114557619D01*
X128026666Y-114652857D01*
X128026666Y-114795714D01*
X127979047Y-114890952D01*
X127931428Y-114938571D01*
X127836190Y-114986190D01*
X127455238Y-114986190D01*
X128883809Y-114462380D02*
X128693333Y-114462380D01*
X128598095Y-114510000D01*
X128550476Y-114557619D01*
X128455238Y-114700476D01*
X128407619Y-114890952D01*
X128407619Y-115271904D01*
X128455238Y-115367142D01*
X128502857Y-115414761D01*
X128598095Y-115462380D01*
X128788571Y-115462380D01*
X128883809Y-115414761D01*
X128931428Y-115367142D01*
X128979047Y-115271904D01*
X128979047Y-115033809D01*
X128931428Y-114938571D01*
X128883809Y-114890952D01*
X128788571Y-114843333D01*
X128598095Y-114843333D01*
X128502857Y-114890952D01*
X128455238Y-114938571D01*
X128407619Y-115033809D01*
X196924285Y-113882380D02*
X196924285Y-114596666D01*
X196876666Y-114739523D01*
X196781428Y-114834761D01*
X196638571Y-114882380D01*
X196543333Y-114882380D01*
X197924285Y-114882380D02*
X197352857Y-114882380D01*
X197638571Y-114882380D02*
X197638571Y-113882380D01*
X197543333Y-114025238D01*
X197448095Y-114120476D01*
X197352857Y-114168095D01*
X198495714Y-114310952D02*
X198400476Y-114263333D01*
X198352857Y-114215714D01*
X198305238Y-114120476D01*
X198305238Y-114072857D01*
X198352857Y-113977619D01*
X198400476Y-113930000D01*
X198495714Y-113882380D01*
X198686190Y-113882380D01*
X198781428Y-113930000D01*
X198829047Y-113977619D01*
X198876666Y-114072857D01*
X198876666Y-114120476D01*
X198829047Y-114215714D01*
X198781428Y-114263333D01*
X198686190Y-114310952D01*
X198495714Y-114310952D01*
X198400476Y-114358571D01*
X198352857Y-114406190D01*
X198305238Y-114501428D01*
X198305238Y-114691904D01*
X198352857Y-114787142D01*
X198400476Y-114834761D01*
X198495714Y-114882380D01*
X198686190Y-114882380D01*
X198781428Y-114834761D01*
X198829047Y-114787142D01*
X198876666Y-114691904D01*
X198876666Y-114501428D01*
X198829047Y-114406190D01*
X198781428Y-114358571D01*
X198686190Y-114310952D01*
X199305238Y-114501428D02*
X200067142Y-114501428D01*
X200400476Y-113882380D02*
X200971904Y-113882380D01*
X200686190Y-114882380D02*
X200686190Y-113882380D01*
X201305238Y-114882380D02*
X201305238Y-113882380D01*
X201686190Y-113882380D01*
X201781428Y-113930000D01*
X201829047Y-113977619D01*
X201876666Y-114072857D01*
X201876666Y-114215714D01*
X201829047Y-114310952D01*
X201781428Y-114358571D01*
X201686190Y-114406190D01*
X201305238Y-114406190D01*
X202733809Y-114215714D02*
X202733809Y-114882380D01*
X202495714Y-113834761D02*
X202257619Y-114549047D01*
X202876666Y-114549047D01*
X190514285Y-100642380D02*
X190514285Y-101356666D01*
X190466666Y-101499523D01*
X190371428Y-101594761D01*
X190228571Y-101642380D01*
X190133333Y-101642380D01*
X191514285Y-101642380D02*
X190942857Y-101642380D01*
X191228571Y-101642380D02*
X191228571Y-100642380D01*
X191133333Y-100785238D01*
X191038095Y-100880476D01*
X190942857Y-100928095D01*
X191847619Y-100642380D02*
X192514285Y-100642380D01*
X192085714Y-101642380D01*
X192895238Y-101261428D02*
X193657142Y-101261428D01*
X193990476Y-100642380D02*
X194561904Y-100642380D01*
X194276190Y-101642380D02*
X194276190Y-100642380D01*
X194895238Y-101642380D02*
X194895238Y-100642380D01*
X195276190Y-100642380D01*
X195371428Y-100690000D01*
X195419047Y-100737619D01*
X195466666Y-100832857D01*
X195466666Y-100975714D01*
X195419047Y-101070952D01*
X195371428Y-101118571D01*
X195276190Y-101166190D01*
X194895238Y-101166190D01*
X195800000Y-100642380D02*
X196419047Y-100642380D01*
X196085714Y-101023333D01*
X196228571Y-101023333D01*
X196323809Y-101070952D01*
X196371428Y-101118571D01*
X196419047Y-101213809D01*
X196419047Y-101451904D01*
X196371428Y-101547142D01*
X196323809Y-101594761D01*
X196228571Y-101642380D01*
X195942857Y-101642380D01*
X195847619Y-101594761D01*
X195800000Y-101547142D01*
X149458095Y-108792380D02*
X149458095Y-109506666D01*
X149410476Y-109649523D01*
X149315238Y-109744761D01*
X149172380Y-109792380D01*
X149077142Y-109792380D01*
X150458095Y-109792380D02*
X149886666Y-109792380D01*
X150172380Y-109792380D02*
X150172380Y-108792380D01*
X150077142Y-108935238D01*
X149981904Y-109030476D01*
X149886666Y-109078095D01*
X151315238Y-108792380D02*
X151124761Y-108792380D01*
X151029523Y-108840000D01*
X150981904Y-108887619D01*
X150886666Y-109030476D01*
X150839047Y-109220952D01*
X150839047Y-109601904D01*
X150886666Y-109697142D01*
X150934285Y-109744761D01*
X151029523Y-109792380D01*
X151220000Y-109792380D01*
X151315238Y-109744761D01*
X151362857Y-109697142D01*
X151410476Y-109601904D01*
X151410476Y-109363809D01*
X151362857Y-109268571D01*
X151315238Y-109220952D01*
X151220000Y-109173333D01*
X151029523Y-109173333D01*
X150934285Y-109220952D01*
X150886666Y-109268571D01*
X150839047Y-109363809D01*
X151839047Y-109411428D02*
X152600952Y-109411428D01*
X152934285Y-108792380D02*
X153505714Y-108792380D01*
X153220000Y-109792380D02*
X153220000Y-108792380D01*
X153839047Y-109792380D02*
X153839047Y-108792380D01*
X154220000Y-108792380D01*
X154315238Y-108840000D01*
X154362857Y-108887619D01*
X154410476Y-108982857D01*
X154410476Y-109125714D01*
X154362857Y-109220952D01*
X154315238Y-109268571D01*
X154220000Y-109316190D01*
X153839047Y-109316190D01*
X154791428Y-108887619D02*
X154839047Y-108840000D01*
X154934285Y-108792380D01*
X155172380Y-108792380D01*
X155267619Y-108840000D01*
X155315238Y-108887619D01*
X155362857Y-108982857D01*
X155362857Y-109078095D01*
X155315238Y-109220952D01*
X154743809Y-109792380D01*
X155362857Y-109792380D01*
X156220000Y-109125714D02*
X156220000Y-109792380D01*
X155981904Y-108744761D02*
X155743809Y-109459047D01*
X156362857Y-109459047D01*
X190894285Y-98212380D02*
X190894285Y-98926666D01*
X190846666Y-99069523D01*
X190751428Y-99164761D01*
X190608571Y-99212380D01*
X190513333Y-99212380D01*
X191894285Y-99212380D02*
X191322857Y-99212380D01*
X191608571Y-99212380D02*
X191608571Y-98212380D01*
X191513333Y-98355238D01*
X191418095Y-98450476D01*
X191322857Y-98498095D01*
X192751428Y-98212380D02*
X192560952Y-98212380D01*
X192465714Y-98260000D01*
X192418095Y-98307619D01*
X192322857Y-98450476D01*
X192275238Y-98640952D01*
X192275238Y-99021904D01*
X192322857Y-99117142D01*
X192370476Y-99164761D01*
X192465714Y-99212380D01*
X192656190Y-99212380D01*
X192751428Y-99164761D01*
X192799047Y-99117142D01*
X192846666Y-99021904D01*
X192846666Y-98783809D01*
X192799047Y-98688571D01*
X192751428Y-98640952D01*
X192656190Y-98593333D01*
X192465714Y-98593333D01*
X192370476Y-98640952D01*
X192322857Y-98688571D01*
X192275238Y-98783809D01*
X193275238Y-98831428D02*
X194037142Y-98831428D01*
X194370476Y-98212380D02*
X194941904Y-98212380D01*
X194656190Y-99212380D02*
X194656190Y-98212380D01*
X195275238Y-99212380D02*
X195275238Y-98212380D01*
X195656190Y-98212380D01*
X195751428Y-98260000D01*
X195799047Y-98307619D01*
X195846666Y-98402857D01*
X195846666Y-98545714D01*
X195799047Y-98640952D01*
X195751428Y-98688571D01*
X195656190Y-98736190D01*
X195275238Y-98736190D01*
X196227619Y-98307619D02*
X196275238Y-98260000D01*
X196370476Y-98212380D01*
X196608571Y-98212380D01*
X196703809Y-98260000D01*
X196751428Y-98307619D01*
X196799047Y-98402857D01*
X196799047Y-98498095D01*
X196751428Y-98640952D01*
X196180000Y-99212380D01*
X196799047Y-99212380D01*
X215898095Y-140172380D02*
X215898095Y-140886666D01*
X215850476Y-141029523D01*
X215755238Y-141124761D01*
X215612380Y-141172380D01*
X215517142Y-141172380D01*
X216898095Y-141172380D02*
X216326666Y-141172380D01*
X216612380Y-141172380D02*
X216612380Y-140172380D01*
X216517142Y-140315238D01*
X216421904Y-140410476D01*
X216326666Y-140458095D01*
X217802857Y-140172380D02*
X217326666Y-140172380D01*
X217279047Y-140648571D01*
X217326666Y-140600952D01*
X217421904Y-140553333D01*
X217660000Y-140553333D01*
X217755238Y-140600952D01*
X217802857Y-140648571D01*
X217850476Y-140743809D01*
X217850476Y-140981904D01*
X217802857Y-141077142D01*
X217755238Y-141124761D01*
X217660000Y-141172380D01*
X217421904Y-141172380D01*
X217326666Y-141124761D01*
X217279047Y-141077142D01*
X218279047Y-140791428D02*
X219040952Y-140791428D01*
X219374285Y-140172380D02*
X219945714Y-140172380D01*
X219660000Y-141172380D02*
X219660000Y-140172380D01*
X220279047Y-141172380D02*
X220279047Y-140172380D01*
X220660000Y-140172380D01*
X220755238Y-140220000D01*
X220802857Y-140267619D01*
X220850476Y-140362857D01*
X220850476Y-140505714D01*
X220802857Y-140600952D01*
X220755238Y-140648571D01*
X220660000Y-140696190D01*
X220279047Y-140696190D01*
X221231428Y-140267619D02*
X221279047Y-140220000D01*
X221374285Y-140172380D01*
X221612380Y-140172380D01*
X221707619Y-140220000D01*
X221755238Y-140267619D01*
X221802857Y-140362857D01*
X221802857Y-140458095D01*
X221755238Y-140600952D01*
X221183809Y-141172380D01*
X221802857Y-141172380D01*
X222421904Y-140172380D02*
X222517142Y-140172380D01*
X222612380Y-140220000D01*
X222660000Y-140267619D01*
X222707619Y-140362857D01*
X222755238Y-140553333D01*
X222755238Y-140791428D01*
X222707619Y-140981904D01*
X222660000Y-141077142D01*
X222612380Y-141124761D01*
X222517142Y-141172380D01*
X222421904Y-141172380D01*
X222326666Y-141124761D01*
X222279047Y-141077142D01*
X222231428Y-140981904D01*
X222183809Y-140791428D01*
X222183809Y-140553333D01*
X222231428Y-140362857D01*
X222279047Y-140267619D01*
X222326666Y-140220000D01*
X222421904Y-140172380D01*
X189934285Y-95672380D02*
X189934285Y-96386666D01*
X189886666Y-96529523D01*
X189791428Y-96624761D01*
X189648571Y-96672380D01*
X189553333Y-96672380D01*
X190934285Y-96672380D02*
X190362857Y-96672380D01*
X190648571Y-96672380D02*
X190648571Y-95672380D01*
X190553333Y-95815238D01*
X190458095Y-95910476D01*
X190362857Y-95958095D01*
X191839047Y-95672380D02*
X191362857Y-95672380D01*
X191315238Y-96148571D01*
X191362857Y-96100952D01*
X191458095Y-96053333D01*
X191696190Y-96053333D01*
X191791428Y-96100952D01*
X191839047Y-96148571D01*
X191886666Y-96243809D01*
X191886666Y-96481904D01*
X191839047Y-96577142D01*
X191791428Y-96624761D01*
X191696190Y-96672380D01*
X191458095Y-96672380D01*
X191362857Y-96624761D01*
X191315238Y-96577142D01*
X192315238Y-96291428D02*
X193077142Y-96291428D01*
X193410476Y-95672380D02*
X193981904Y-95672380D01*
X193696190Y-96672380D02*
X193696190Y-95672380D01*
X194315238Y-96672380D02*
X194315238Y-95672380D01*
X194696190Y-95672380D01*
X194791428Y-95720000D01*
X194839047Y-95767619D01*
X194886666Y-95862857D01*
X194886666Y-96005714D01*
X194839047Y-96100952D01*
X194791428Y-96148571D01*
X194696190Y-96196190D01*
X194315238Y-96196190D01*
X195839047Y-96672380D02*
X195267619Y-96672380D01*
X195553333Y-96672380D02*
X195553333Y-95672380D01*
X195458095Y-95815238D01*
X195362857Y-95910476D01*
X195267619Y-95958095D01*
X91798095Y-114152380D02*
X91798095Y-114866666D01*
X91750476Y-115009523D01*
X91655238Y-115104761D01*
X91512380Y-115152380D01*
X91417142Y-115152380D01*
X92798095Y-115152380D02*
X92226666Y-115152380D01*
X92512380Y-115152380D02*
X92512380Y-114152380D01*
X92417142Y-114295238D01*
X92321904Y-114390476D01*
X92226666Y-114438095D01*
X93655238Y-114485714D02*
X93655238Y-115152380D01*
X93417142Y-114104761D02*
X93179047Y-114819047D01*
X93798095Y-114819047D01*
X94179047Y-114771428D02*
X94940952Y-114771428D01*
X95274285Y-114152380D02*
X95845714Y-114152380D01*
X95560000Y-115152380D02*
X95560000Y-114152380D01*
X96179047Y-115152380D02*
X96179047Y-114152380D01*
X96560000Y-114152380D01*
X96655238Y-114200000D01*
X96702857Y-114247619D01*
X96750476Y-114342857D01*
X96750476Y-114485714D01*
X96702857Y-114580952D01*
X96655238Y-114628571D01*
X96560000Y-114676190D01*
X96179047Y-114676190D01*
X97702857Y-115152380D02*
X97131428Y-115152380D01*
X97417142Y-115152380D02*
X97417142Y-114152380D01*
X97321904Y-114295238D01*
X97226666Y-114390476D01*
X97131428Y-114438095D01*
X98036190Y-114152380D02*
X98702857Y-114152380D01*
X98274285Y-115152380D01*
X152178095Y-74392380D02*
X152178095Y-75106666D01*
X152130476Y-75249523D01*
X152035238Y-75344761D01*
X151892380Y-75392380D01*
X151797142Y-75392380D01*
X153178095Y-75392380D02*
X152606666Y-75392380D01*
X152892380Y-75392380D02*
X152892380Y-74392380D01*
X152797142Y-74535238D01*
X152701904Y-74630476D01*
X152606666Y-74678095D01*
X153511428Y-74392380D02*
X154130476Y-74392380D01*
X153797142Y-74773333D01*
X153940000Y-74773333D01*
X154035238Y-74820952D01*
X154082857Y-74868571D01*
X154130476Y-74963809D01*
X154130476Y-75201904D01*
X154082857Y-75297142D01*
X154035238Y-75344761D01*
X153940000Y-75392380D01*
X153654285Y-75392380D01*
X153559047Y-75344761D01*
X153511428Y-75297142D01*
X154559047Y-75011428D02*
X155320952Y-75011428D01*
X155654285Y-74392380D02*
X156225714Y-74392380D01*
X155940000Y-75392380D02*
X155940000Y-74392380D01*
X156559047Y-75392380D02*
X156559047Y-74392380D01*
X156940000Y-74392380D01*
X157035238Y-74440000D01*
X157082857Y-74487619D01*
X157130476Y-74582857D01*
X157130476Y-74725714D01*
X157082857Y-74820952D01*
X157035238Y-74868571D01*
X156940000Y-74916190D01*
X156559047Y-74916190D01*
X157511428Y-74487619D02*
X157559047Y-74440000D01*
X157654285Y-74392380D01*
X157892380Y-74392380D01*
X157987619Y-74440000D01*
X158035238Y-74487619D01*
X158082857Y-74582857D01*
X158082857Y-74678095D01*
X158035238Y-74820952D01*
X157463809Y-75392380D01*
X158082857Y-75392380D01*
X158416190Y-74392380D02*
X159035238Y-74392380D01*
X158701904Y-74773333D01*
X158844761Y-74773333D01*
X158940000Y-74820952D01*
X158987619Y-74868571D01*
X159035238Y-74963809D01*
X159035238Y-75201904D01*
X158987619Y-75297142D01*
X158940000Y-75344761D01*
X158844761Y-75392380D01*
X158559047Y-75392380D01*
X158463809Y-75344761D01*
X158416190Y-75297142D01*
X165858095Y-111932380D02*
X165858095Y-112646666D01*
X165810476Y-112789523D01*
X165715238Y-112884761D01*
X165572380Y-112932380D01*
X165477142Y-112932380D01*
X166858095Y-112932380D02*
X166286666Y-112932380D01*
X166572380Y-112932380D02*
X166572380Y-111932380D01*
X166477142Y-112075238D01*
X166381904Y-112170476D01*
X166286666Y-112218095D01*
X167239047Y-112027619D02*
X167286666Y-111980000D01*
X167381904Y-111932380D01*
X167620000Y-111932380D01*
X167715238Y-111980000D01*
X167762857Y-112027619D01*
X167810476Y-112122857D01*
X167810476Y-112218095D01*
X167762857Y-112360952D01*
X167191428Y-112932380D01*
X167810476Y-112932380D01*
X168239047Y-112551428D02*
X169000952Y-112551428D01*
X169334285Y-111932380D02*
X169905714Y-111932380D01*
X169620000Y-112932380D02*
X169620000Y-111932380D01*
X170239047Y-112932380D02*
X170239047Y-111932380D01*
X170620000Y-111932380D01*
X170715238Y-111980000D01*
X170762857Y-112027619D01*
X170810476Y-112122857D01*
X170810476Y-112265714D01*
X170762857Y-112360952D01*
X170715238Y-112408571D01*
X170620000Y-112456190D01*
X170239047Y-112456190D01*
X171762857Y-112932380D02*
X171191428Y-112932380D01*
X171477142Y-112932380D02*
X171477142Y-111932380D01*
X171381904Y-112075238D01*
X171286666Y-112170476D01*
X171191428Y-112218095D01*
X172620000Y-112265714D02*
X172620000Y-112932380D01*
X172381904Y-111884761D02*
X172143809Y-112599047D01*
X172762857Y-112599047D01*
X160724285Y-127682380D02*
X160724285Y-128396666D01*
X160676666Y-128539523D01*
X160581428Y-128634761D01*
X160438571Y-128682380D01*
X160343333Y-128682380D01*
X161724285Y-128682380D02*
X161152857Y-128682380D01*
X161438571Y-128682380D02*
X161438571Y-127682380D01*
X161343333Y-127825238D01*
X161248095Y-127920476D01*
X161152857Y-127968095D01*
X162676666Y-128682380D02*
X162105238Y-128682380D01*
X162390952Y-128682380D02*
X162390952Y-127682380D01*
X162295714Y-127825238D01*
X162200476Y-127920476D01*
X162105238Y-127968095D01*
X163105238Y-128301428D02*
X163867142Y-128301428D01*
X164200476Y-127682380D02*
X164771904Y-127682380D01*
X164486190Y-128682380D02*
X164486190Y-127682380D01*
X165105238Y-128682380D02*
X165105238Y-127682380D01*
X165486190Y-127682380D01*
X165581428Y-127730000D01*
X165629047Y-127777619D01*
X165676666Y-127872857D01*
X165676666Y-128015714D01*
X165629047Y-128110952D01*
X165581428Y-128158571D01*
X165486190Y-128206190D01*
X165105238Y-128206190D01*
X166010000Y-127682380D02*
X166676666Y-127682380D01*
X166248095Y-128682380D01*
X175968095Y-104242380D02*
X175968095Y-104956666D01*
X175920476Y-105099523D01*
X175825238Y-105194761D01*
X175682380Y-105242380D01*
X175587142Y-105242380D01*
X176968095Y-105242380D02*
X176396666Y-105242380D01*
X176682380Y-105242380D02*
X176682380Y-104242380D01*
X176587142Y-104385238D01*
X176491904Y-104480476D01*
X176396666Y-104528095D01*
X177587142Y-104242380D02*
X177682380Y-104242380D01*
X177777619Y-104290000D01*
X177825238Y-104337619D01*
X177872857Y-104432857D01*
X177920476Y-104623333D01*
X177920476Y-104861428D01*
X177872857Y-105051904D01*
X177825238Y-105147142D01*
X177777619Y-105194761D01*
X177682380Y-105242380D01*
X177587142Y-105242380D01*
X177491904Y-105194761D01*
X177444285Y-105147142D01*
X177396666Y-105051904D01*
X177349047Y-104861428D01*
X177349047Y-104623333D01*
X177396666Y-104432857D01*
X177444285Y-104337619D01*
X177491904Y-104290000D01*
X177587142Y-104242380D01*
X178349047Y-104861428D02*
X179110952Y-104861428D01*
X179444285Y-104242380D02*
X180015714Y-104242380D01*
X179730000Y-105242380D02*
X179730000Y-104242380D01*
X180349047Y-105242380D02*
X180349047Y-104242380D01*
X180730000Y-104242380D01*
X180825238Y-104290000D01*
X180872857Y-104337619D01*
X180920476Y-104432857D01*
X180920476Y-104575714D01*
X180872857Y-104670952D01*
X180825238Y-104718571D01*
X180730000Y-104766190D01*
X180349047Y-104766190D01*
X181301428Y-104337619D02*
X181349047Y-104290000D01*
X181444285Y-104242380D01*
X181682380Y-104242380D01*
X181777619Y-104290000D01*
X181825238Y-104337619D01*
X181872857Y-104432857D01*
X181872857Y-104528095D01*
X181825238Y-104670952D01*
X181253809Y-105242380D01*
X181872857Y-105242380D01*
X182253809Y-104337619D02*
X182301428Y-104290000D01*
X182396666Y-104242380D01*
X182634761Y-104242380D01*
X182730000Y-104290000D01*
X182777619Y-104337619D01*
X182825238Y-104432857D01*
X182825238Y-104528095D01*
X182777619Y-104670952D01*
X182206190Y-105242380D01*
X182825238Y-105242380D01*
X141896666Y-20442380D02*
X141896666Y-21156666D01*
X141849047Y-21299523D01*
X141753809Y-21394761D01*
X141610952Y-21442380D01*
X141515714Y-21442380D01*
X142801428Y-20775714D02*
X142801428Y-21442380D01*
X142563333Y-20394761D02*
X142325238Y-21109047D01*
X142944285Y-21109047D01*
X166986666Y-36252380D02*
X166986666Y-36966666D01*
X166939047Y-37109523D01*
X166843809Y-37204761D01*
X166700952Y-37252380D01*
X166605714Y-37252380D01*
X167367619Y-36252380D02*
X167986666Y-36252380D01*
X167653333Y-36633333D01*
X167796190Y-36633333D01*
X167891428Y-36680952D01*
X167939047Y-36728571D01*
X167986666Y-36823809D01*
X167986666Y-37061904D01*
X167939047Y-37157142D01*
X167891428Y-37204761D01*
X167796190Y-37252380D01*
X167510476Y-37252380D01*
X167415238Y-37204761D01*
X167367619Y-37157142D01*
X164206666Y-51752380D02*
X164206666Y-52466666D01*
X164159047Y-52609523D01*
X164063809Y-52704761D01*
X163920952Y-52752380D01*
X163825714Y-52752380D01*
X164635238Y-51847619D02*
X164682857Y-51800000D01*
X164778095Y-51752380D01*
X165016190Y-51752380D01*
X165111428Y-51800000D01*
X165159047Y-51847619D01*
X165206666Y-51942857D01*
X165206666Y-52038095D01*
X165159047Y-52180952D01*
X164587619Y-52752380D01*
X165206666Y-52752380D01*
X87416666Y-51832380D02*
X87416666Y-52546666D01*
X87369047Y-52689523D01*
X87273809Y-52784761D01*
X87130952Y-52832380D01*
X87035714Y-52832380D01*
X88416666Y-52832380D02*
X87845238Y-52832380D01*
X88130952Y-52832380D02*
X88130952Y-51832380D01*
X88035714Y-51975238D01*
X87940476Y-52070476D01*
X87845238Y-52118095D01*
M02*
