G04 #@! TF.GenerationSoftware,KiCad,Pcbnew,(5.1.5)-3*
G04 #@! TF.CreationDate,2020-04-28T11:43:09+02:00*
G04 #@! TF.ProjectId,carecasetesterpogo,63617265-6361-4736-9574-657374657270,rev?*
G04 #@! TF.SameCoordinates,Original*
G04 #@! TF.FileFunction,Soldermask,Top*
G04 #@! TF.FilePolarity,Negative*
%FSLAX46Y46*%
G04 Gerber Fmt 4.6, Leading zero omitted, Abs format (unit mm)*
G04 Created by KiCad (PCBNEW (5.1.5)-3) date 2020-04-28 11:43:09*
%MOMM*%
%LPD*%
G04 APERTURE LIST*
%ADD10C,0.200000*%
%ADD11C,0.150000*%
G04 APERTURE END LIST*
D10*
X235310000Y-63480000D02*
X235290000Y-170410000D01*
X77070000Y-63480000D02*
X235310000Y-63480000D01*
X77150000Y-170400000D02*
X77070000Y-63480000D01*
X77150000Y-170400000D02*
X235290000Y-170410000D01*
X152660000Y-78311679D02*
G75*
G03X152660000Y-78311679I-1550000J0D01*
G01*
X100610000Y-141520000D02*
G75*
G03X100610000Y-141520000I-3400000J0D01*
G01*
X218610000Y-141520000D02*
G75*
G03X218610000Y-141520000I-3400000J0D01*
G01*
X218410000Y-97450000D02*
G75*
G03X218410000Y-97450000I-3200000J0D01*
G01*
X100410000Y-97450000D02*
G75*
G03X100410000Y-97450000I-3200000J0D01*
G01*
D11*
G36*
X227017021Y-158606640D02*
G01*
X227526769Y-158817785D01*
X227526771Y-158817786D01*
X227985534Y-159124321D01*
X228375679Y-159514466D01*
X228682214Y-159973229D01*
X228682215Y-159973231D01*
X228893360Y-160482979D01*
X229001000Y-161024124D01*
X229001000Y-161575876D01*
X228893360Y-162117021D01*
X228682215Y-162626769D01*
X228682214Y-162626771D01*
X228375679Y-163085534D01*
X227985534Y-163475679D01*
X227526771Y-163782214D01*
X227526770Y-163782215D01*
X227526769Y-163782215D01*
X227017021Y-163993360D01*
X226475876Y-164101000D01*
X225924124Y-164101000D01*
X225382979Y-163993360D01*
X224873231Y-163782215D01*
X224873230Y-163782215D01*
X224873229Y-163782214D01*
X224414466Y-163475679D01*
X224024321Y-163085534D01*
X223717786Y-162626771D01*
X223717785Y-162626769D01*
X223506640Y-162117021D01*
X223399000Y-161575876D01*
X223399000Y-161024124D01*
X223506640Y-160482979D01*
X223717785Y-159973231D01*
X223717786Y-159973229D01*
X224024321Y-159514466D01*
X224414466Y-159124321D01*
X224873229Y-158817786D01*
X224873231Y-158817785D01*
X225382979Y-158606640D01*
X225924124Y-158499000D01*
X226475876Y-158499000D01*
X227017021Y-158606640D01*
G37*
G36*
X86817021Y-158606640D02*
G01*
X87326769Y-158817785D01*
X87326771Y-158817786D01*
X87785534Y-159124321D01*
X88175679Y-159514466D01*
X88482214Y-159973229D01*
X88482215Y-159973231D01*
X88693360Y-160482979D01*
X88801000Y-161024124D01*
X88801000Y-161575876D01*
X88693360Y-162117021D01*
X88482215Y-162626769D01*
X88482214Y-162626771D01*
X88175679Y-163085534D01*
X87785534Y-163475679D01*
X87326771Y-163782214D01*
X87326770Y-163782215D01*
X87326769Y-163782215D01*
X86817021Y-163993360D01*
X86275876Y-164101000D01*
X85724124Y-164101000D01*
X85182979Y-163993360D01*
X84673231Y-163782215D01*
X84673230Y-163782215D01*
X84673229Y-163782214D01*
X84214466Y-163475679D01*
X83824321Y-163085534D01*
X83517786Y-162626771D01*
X83517785Y-162626769D01*
X83306640Y-162117021D01*
X83199000Y-161575876D01*
X83199000Y-161024124D01*
X83306640Y-160482979D01*
X83517785Y-159973231D01*
X83517786Y-159973229D01*
X83824321Y-159514466D01*
X84214466Y-159124321D01*
X84673229Y-158817786D01*
X84673231Y-158817785D01*
X85182979Y-158606640D01*
X85724124Y-158499000D01*
X86275876Y-158499000D01*
X86817021Y-158606640D01*
G37*
G36*
X181734610Y-149288036D02*
G01*
X181962095Y-149382264D01*
X181962097Y-149382265D01*
X182166828Y-149519062D01*
X182340938Y-149693172D01*
X182477736Y-149897905D01*
X182571964Y-150125390D01*
X182620000Y-150366884D01*
X182620000Y-150613116D01*
X182571964Y-150854610D01*
X182477736Y-151082095D01*
X182477735Y-151082097D01*
X182340938Y-151286828D01*
X182166828Y-151460938D01*
X181962097Y-151597735D01*
X181962096Y-151597736D01*
X181962095Y-151597736D01*
X181734610Y-151691964D01*
X181493116Y-151740000D01*
X181246884Y-151740000D01*
X181005390Y-151691964D01*
X180777905Y-151597736D01*
X180777904Y-151597736D01*
X180777903Y-151597735D01*
X180573172Y-151460938D01*
X180399062Y-151286828D01*
X180262265Y-151082097D01*
X180262264Y-151082095D01*
X180168036Y-150854610D01*
X180120000Y-150613116D01*
X180120000Y-150366884D01*
X180168036Y-150125390D01*
X180262264Y-149897905D01*
X180399062Y-149693172D01*
X180573172Y-149519062D01*
X180777903Y-149382265D01*
X180777905Y-149382264D01*
X181005390Y-149288036D01*
X181246884Y-149240000D01*
X181493116Y-149240000D01*
X181734610Y-149288036D01*
G37*
G36*
X219574610Y-142518036D02*
G01*
X219802095Y-142612264D01*
X219802097Y-142612265D01*
X220006828Y-142749062D01*
X220180938Y-142923172D01*
X220317736Y-143127905D01*
X220411964Y-143355390D01*
X220460000Y-143596884D01*
X220460000Y-143843116D01*
X220411964Y-144084610D01*
X220317736Y-144312095D01*
X220317735Y-144312097D01*
X220180938Y-144516828D01*
X220006828Y-144690938D01*
X219802097Y-144827735D01*
X219802096Y-144827736D01*
X219802095Y-144827736D01*
X219574610Y-144921964D01*
X219333116Y-144970000D01*
X219086884Y-144970000D01*
X218845390Y-144921964D01*
X218617905Y-144827736D01*
X218617904Y-144827736D01*
X218617903Y-144827735D01*
X218413172Y-144690938D01*
X218239062Y-144516828D01*
X218102265Y-144312097D01*
X218102264Y-144312095D01*
X218008036Y-144084610D01*
X217960000Y-143843116D01*
X217960000Y-143596884D01*
X218008036Y-143355390D01*
X218102264Y-143127905D01*
X218239062Y-142923172D01*
X218413172Y-142749062D01*
X218617903Y-142612265D01*
X218617905Y-142612264D01*
X218845390Y-142518036D01*
X219086884Y-142470000D01*
X219333116Y-142470000D01*
X219574610Y-142518036D01*
G37*
G36*
X163924610Y-130028036D02*
G01*
X164152095Y-130122264D01*
X164152097Y-130122265D01*
X164356828Y-130259062D01*
X164530938Y-130433172D01*
X164667736Y-130637905D01*
X164761964Y-130865390D01*
X164810000Y-131106884D01*
X164810000Y-131353116D01*
X164761964Y-131594610D01*
X164667736Y-131822095D01*
X164667735Y-131822097D01*
X164530938Y-132026828D01*
X164356828Y-132200938D01*
X164152097Y-132337735D01*
X164152096Y-132337736D01*
X164152095Y-132337736D01*
X163924610Y-132431964D01*
X163683116Y-132480000D01*
X163436884Y-132480000D01*
X163195390Y-132431964D01*
X162967905Y-132337736D01*
X162967904Y-132337736D01*
X162967903Y-132337735D01*
X162763172Y-132200938D01*
X162589062Y-132026828D01*
X162452265Y-131822097D01*
X162452264Y-131822095D01*
X162358036Y-131594610D01*
X162310000Y-131353116D01*
X162310000Y-131106884D01*
X162358036Y-130865390D01*
X162452264Y-130637905D01*
X162589062Y-130433172D01*
X162763172Y-130259062D01*
X162967903Y-130122265D01*
X162967905Y-130122264D01*
X163195390Y-130028036D01*
X163436884Y-129980000D01*
X163683116Y-129980000D01*
X163924610Y-130028036D01*
G37*
G36*
X209374610Y-127508036D02*
G01*
X209602095Y-127602264D01*
X209602097Y-127602265D01*
X209806828Y-127739062D01*
X209980938Y-127913172D01*
X210117736Y-128117905D01*
X210211964Y-128345390D01*
X210260000Y-128586884D01*
X210260000Y-128833116D01*
X210211964Y-129074610D01*
X210117736Y-129302095D01*
X210117735Y-129302097D01*
X209980938Y-129506828D01*
X209806828Y-129680938D01*
X209602097Y-129817735D01*
X209602096Y-129817736D01*
X209602095Y-129817736D01*
X209374610Y-129911964D01*
X209133116Y-129960000D01*
X208886884Y-129960000D01*
X208645390Y-129911964D01*
X208417905Y-129817736D01*
X208417904Y-129817736D01*
X208417903Y-129817735D01*
X208213172Y-129680938D01*
X208039062Y-129506828D01*
X207902265Y-129302097D01*
X207902264Y-129302095D01*
X207808036Y-129074610D01*
X207760000Y-128833116D01*
X207760000Y-128586884D01*
X207808036Y-128345390D01*
X207902264Y-128117905D01*
X208039062Y-127913172D01*
X208213172Y-127739062D01*
X208417903Y-127602265D01*
X208417905Y-127602264D01*
X208645390Y-127508036D01*
X208886884Y-127460000D01*
X209133116Y-127460000D01*
X209374610Y-127508036D01*
G37*
G36*
X123504610Y-123528036D02*
G01*
X123732095Y-123622264D01*
X123732097Y-123622265D01*
X123936828Y-123759062D01*
X124110938Y-123933172D01*
X124247736Y-124137905D01*
X124341964Y-124365390D01*
X124390000Y-124606884D01*
X124390000Y-124853116D01*
X124341964Y-125094610D01*
X124247736Y-125322095D01*
X124247735Y-125322097D01*
X124110938Y-125526828D01*
X123936828Y-125700938D01*
X123732097Y-125837735D01*
X123732096Y-125837736D01*
X123732095Y-125837736D01*
X123504610Y-125931964D01*
X123263116Y-125980000D01*
X123016884Y-125980000D01*
X122775390Y-125931964D01*
X122547905Y-125837736D01*
X122547904Y-125837736D01*
X122547903Y-125837735D01*
X122343172Y-125700938D01*
X122169062Y-125526828D01*
X122032265Y-125322097D01*
X122032264Y-125322095D01*
X121938036Y-125094610D01*
X121890000Y-124853116D01*
X121890000Y-124606884D01*
X121938036Y-124365390D01*
X122032264Y-124137905D01*
X122169062Y-123933172D01*
X122343172Y-123759062D01*
X122547903Y-123622265D01*
X122547905Y-123622264D01*
X122775390Y-123528036D01*
X123016884Y-123480000D01*
X123263116Y-123480000D01*
X123504610Y-123528036D01*
G37*
G36*
X197814610Y-118528036D02*
G01*
X198042095Y-118622264D01*
X198042097Y-118622265D01*
X198128503Y-118680000D01*
X198246828Y-118759062D01*
X198420938Y-118933172D01*
X198557736Y-119137905D01*
X198651964Y-119365390D01*
X198700000Y-119606884D01*
X198700000Y-119853116D01*
X198651964Y-120094610D01*
X198580628Y-120266828D01*
X198557735Y-120322097D01*
X198420938Y-120526828D01*
X198246828Y-120700938D01*
X198042097Y-120837735D01*
X198042096Y-120837736D01*
X198042095Y-120837736D01*
X197814610Y-120931964D01*
X197573116Y-120980000D01*
X197326884Y-120980000D01*
X197085390Y-120931964D01*
X196857905Y-120837736D01*
X196857904Y-120837736D01*
X196857903Y-120837735D01*
X196653172Y-120700938D01*
X196479062Y-120526828D01*
X196342265Y-120322097D01*
X196319372Y-120266828D01*
X196248036Y-120094610D01*
X196200000Y-119853116D01*
X196200000Y-119606884D01*
X196248036Y-119365390D01*
X196342264Y-119137905D01*
X196479062Y-118933172D01*
X196653172Y-118759062D01*
X196771497Y-118680000D01*
X196857903Y-118622265D01*
X196857905Y-118622264D01*
X197085390Y-118528036D01*
X197326884Y-118480000D01*
X197573116Y-118480000D01*
X197814610Y-118528036D01*
G37*
G36*
X159174610Y-118268036D02*
G01*
X159402095Y-118362264D01*
X159402097Y-118362265D01*
X159420574Y-118374611D01*
X159606828Y-118499062D01*
X159780938Y-118673172D01*
X159917736Y-118877905D01*
X160011964Y-119105390D01*
X160060000Y-119346884D01*
X160060000Y-119593116D01*
X160011964Y-119834610D01*
X159917736Y-120062095D01*
X159917735Y-120062097D01*
X159780938Y-120266828D01*
X159606828Y-120440938D01*
X159402097Y-120577735D01*
X159402096Y-120577736D01*
X159402095Y-120577736D01*
X159174610Y-120671964D01*
X158933116Y-120720000D01*
X158686884Y-120720000D01*
X158445390Y-120671964D01*
X158217905Y-120577736D01*
X158217904Y-120577736D01*
X158217903Y-120577735D01*
X158013172Y-120440938D01*
X157839062Y-120266828D01*
X157702265Y-120062097D01*
X157702264Y-120062095D01*
X157608036Y-119834610D01*
X157560000Y-119593116D01*
X157560000Y-119346884D01*
X157608036Y-119105390D01*
X157702264Y-118877905D01*
X157839062Y-118673172D01*
X158013172Y-118499062D01*
X158199426Y-118374611D01*
X158217903Y-118362265D01*
X158217905Y-118362264D01*
X158445390Y-118268036D01*
X158686884Y-118220000D01*
X158933116Y-118220000D01*
X159174610Y-118268036D01*
G37*
G36*
X126274610Y-116808036D02*
G01*
X126502095Y-116902264D01*
X126502097Y-116902265D01*
X126706828Y-117039062D01*
X126880938Y-117213172D01*
X126962602Y-117335390D01*
X127017736Y-117417905D01*
X127111964Y-117645390D01*
X127160000Y-117886884D01*
X127160000Y-118133116D01*
X127111964Y-118374610D01*
X127017736Y-118602095D01*
X127017735Y-118602097D01*
X126880938Y-118806828D01*
X126706828Y-118980938D01*
X126502097Y-119117735D01*
X126502096Y-119117736D01*
X126502095Y-119117736D01*
X126274610Y-119211964D01*
X126033116Y-119260000D01*
X125786884Y-119260000D01*
X125545390Y-119211964D01*
X125317905Y-119117736D01*
X125317904Y-119117736D01*
X125317903Y-119117735D01*
X125113172Y-118980938D01*
X124939062Y-118806828D01*
X124802265Y-118602097D01*
X124802264Y-118602095D01*
X124708036Y-118374610D01*
X124660000Y-118133116D01*
X124660000Y-117886884D01*
X124708036Y-117645390D01*
X124802264Y-117417905D01*
X124857399Y-117335390D01*
X124939062Y-117213172D01*
X125113172Y-117039062D01*
X125317903Y-116902265D01*
X125317905Y-116902264D01*
X125545390Y-116808036D01*
X125786884Y-116760000D01*
X126033116Y-116760000D01*
X126274610Y-116808036D01*
G37*
G36*
X95474610Y-116498036D02*
G01*
X95702095Y-116592264D01*
X95702097Y-116592265D01*
X95906828Y-116729062D01*
X96080938Y-116903172D01*
X96189329Y-117065390D01*
X96217736Y-117107905D01*
X96311964Y-117335390D01*
X96360000Y-117576884D01*
X96360000Y-117823116D01*
X96311964Y-118064610D01*
X96227701Y-118268037D01*
X96217735Y-118292097D01*
X96080938Y-118496828D01*
X95906828Y-118670938D01*
X95702097Y-118807735D01*
X95702096Y-118807736D01*
X95702095Y-118807736D01*
X95474610Y-118901964D01*
X95233116Y-118950000D01*
X94986884Y-118950000D01*
X94745390Y-118901964D01*
X94517905Y-118807736D01*
X94517904Y-118807736D01*
X94517903Y-118807735D01*
X94313172Y-118670938D01*
X94139062Y-118496828D01*
X94002265Y-118292097D01*
X93992299Y-118268037D01*
X93908036Y-118064610D01*
X93860000Y-117823116D01*
X93860000Y-117576884D01*
X93908036Y-117335390D01*
X94002264Y-117107905D01*
X94030672Y-117065390D01*
X94139062Y-116903172D01*
X94313172Y-116729062D01*
X94517903Y-116592265D01*
X94517905Y-116592264D01*
X94745390Y-116498036D01*
X94986884Y-116450000D01*
X95233116Y-116450000D01*
X95474610Y-116498036D01*
G37*
G36*
X200124610Y-116228036D02*
G01*
X200352095Y-116322264D01*
X200352097Y-116322265D01*
X200543266Y-116450000D01*
X200556828Y-116459062D01*
X200730938Y-116633172D01*
X200867736Y-116837905D01*
X200961964Y-117065390D01*
X201010000Y-117306884D01*
X201010000Y-117553116D01*
X200961964Y-117794610D01*
X200867736Y-118022095D01*
X200867735Y-118022097D01*
X200730938Y-118226828D01*
X200556828Y-118400938D01*
X200352097Y-118537735D01*
X200352096Y-118537736D01*
X200352095Y-118537736D01*
X200124610Y-118631964D01*
X199883116Y-118680000D01*
X199636884Y-118680000D01*
X199395390Y-118631964D01*
X199167905Y-118537736D01*
X199167904Y-118537736D01*
X199167903Y-118537735D01*
X198963172Y-118400938D01*
X198789062Y-118226828D01*
X198652265Y-118022097D01*
X198652264Y-118022095D01*
X198558036Y-117794610D01*
X198510000Y-117553116D01*
X198510000Y-117306884D01*
X198558036Y-117065390D01*
X198652264Y-116837905D01*
X198789062Y-116633172D01*
X198963172Y-116459062D01*
X198976734Y-116450000D01*
X199167903Y-116322265D01*
X199167905Y-116322264D01*
X199395390Y-116228036D01*
X199636884Y-116180000D01*
X199883116Y-116180000D01*
X200124610Y-116228036D01*
G37*
G36*
X169534610Y-114278036D02*
G01*
X169762095Y-114372264D01*
X169762097Y-114372265D01*
X169776988Y-114382215D01*
X169966828Y-114509062D01*
X170140938Y-114683172D01*
X170277736Y-114887905D01*
X170371964Y-115115390D01*
X170420000Y-115356884D01*
X170420000Y-115603116D01*
X170371964Y-115844610D01*
X170277736Y-116072095D01*
X170277735Y-116072097D01*
X170140938Y-116276828D01*
X169966828Y-116450938D01*
X169762097Y-116587735D01*
X169762096Y-116587736D01*
X169762095Y-116587736D01*
X169534610Y-116681964D01*
X169293116Y-116730000D01*
X169046884Y-116730000D01*
X168805390Y-116681964D01*
X168577905Y-116587736D01*
X168577904Y-116587736D01*
X168577903Y-116587735D01*
X168373172Y-116450938D01*
X168199062Y-116276828D01*
X168062265Y-116072097D01*
X168062264Y-116072095D01*
X167968036Y-115844610D01*
X167920000Y-115603116D01*
X167920000Y-115356884D01*
X167968036Y-115115390D01*
X168062264Y-114887905D01*
X168199062Y-114683172D01*
X168373172Y-114509062D01*
X168563012Y-114382215D01*
X168577903Y-114372265D01*
X168577905Y-114372264D01*
X168805390Y-114278036D01*
X169046884Y-114230000D01*
X169293116Y-114230000D01*
X169534610Y-114278036D01*
G37*
G36*
X116317021Y-109206640D02*
G01*
X116574211Y-109313172D01*
X116826771Y-109417786D01*
X117285534Y-109724321D01*
X117675679Y-110114466D01*
X117982214Y-110573229D01*
X117982215Y-110573231D01*
X118193360Y-111082979D01*
X118301000Y-111624124D01*
X118301000Y-112175876D01*
X118193360Y-112717021D01*
X118104273Y-112932095D01*
X117982214Y-113226771D01*
X117675679Y-113685534D01*
X117285534Y-114075679D01*
X116826771Y-114382214D01*
X116826770Y-114382215D01*
X116826769Y-114382215D01*
X116317021Y-114593360D01*
X115775876Y-114701000D01*
X115224124Y-114701000D01*
X114682979Y-114593360D01*
X114173231Y-114382215D01*
X114173230Y-114382215D01*
X114173229Y-114382214D01*
X113714466Y-114075679D01*
X113324321Y-113685534D01*
X113017786Y-113226771D01*
X112895727Y-112932095D01*
X112806640Y-112717021D01*
X112699000Y-112175876D01*
X112699000Y-111624124D01*
X112806640Y-111082979D01*
X113017785Y-110573231D01*
X113017786Y-110573229D01*
X113324321Y-110114466D01*
X113714466Y-109724321D01*
X114173229Y-109417786D01*
X114425789Y-109313172D01*
X114682979Y-109206640D01*
X115224124Y-109099000D01*
X115775876Y-109099000D01*
X116317021Y-109206640D01*
G37*
G36*
X195117021Y-109206640D02*
G01*
X195374211Y-109313172D01*
X195626771Y-109417786D01*
X196085534Y-109724321D01*
X196475679Y-110114466D01*
X196782214Y-110573229D01*
X196782215Y-110573231D01*
X196993360Y-111082979D01*
X197101000Y-111624124D01*
X197101000Y-112175876D01*
X196993360Y-112717021D01*
X196904273Y-112932095D01*
X196782214Y-113226771D01*
X196475679Y-113685534D01*
X196085534Y-114075679D01*
X195626771Y-114382214D01*
X195626770Y-114382215D01*
X195626769Y-114382215D01*
X195117021Y-114593360D01*
X194575876Y-114701000D01*
X194024124Y-114701000D01*
X193482979Y-114593360D01*
X192973231Y-114382215D01*
X192973230Y-114382215D01*
X192973229Y-114382214D01*
X192514466Y-114075679D01*
X192124321Y-113685534D01*
X191817786Y-113226771D01*
X191695727Y-112932095D01*
X191606640Y-112717021D01*
X191499000Y-112175876D01*
X191499000Y-111624124D01*
X191606640Y-111082979D01*
X191817785Y-110573231D01*
X191817786Y-110573229D01*
X192124321Y-110114466D01*
X192514466Y-109724321D01*
X192973229Y-109417786D01*
X193225789Y-109313172D01*
X193482979Y-109206640D01*
X194024124Y-109099000D01*
X194575876Y-109099000D01*
X195117021Y-109206640D01*
G37*
G36*
X153134610Y-111138036D02*
G01*
X153362095Y-111232264D01*
X153362097Y-111232265D01*
X153481373Y-111311963D01*
X153566828Y-111369062D01*
X153740938Y-111543172D01*
X153877736Y-111747905D01*
X153971964Y-111975390D01*
X154020000Y-112216884D01*
X154020000Y-112463116D01*
X153971964Y-112704610D01*
X153877736Y-112932095D01*
X153877735Y-112932097D01*
X153740938Y-113136828D01*
X153566828Y-113310938D01*
X153362097Y-113447735D01*
X153362096Y-113447736D01*
X153362095Y-113447736D01*
X153134610Y-113541964D01*
X152893116Y-113590000D01*
X152646884Y-113590000D01*
X152405390Y-113541964D01*
X152177905Y-113447736D01*
X152177904Y-113447736D01*
X152177903Y-113447735D01*
X151973172Y-113310938D01*
X151799062Y-113136828D01*
X151662265Y-112932097D01*
X151662264Y-112932095D01*
X151568036Y-112704610D01*
X151520000Y-112463116D01*
X151520000Y-112216884D01*
X151568036Y-111975390D01*
X151662264Y-111747905D01*
X151799062Y-111543172D01*
X151973172Y-111369062D01*
X152058627Y-111311963D01*
X152177903Y-111232265D01*
X152177905Y-111232264D01*
X152405390Y-111138036D01*
X152646884Y-111090000D01*
X152893116Y-111090000D01*
X153134610Y-111138036D01*
G37*
G36*
X187244610Y-108908036D02*
G01*
X187472095Y-109002264D01*
X187472097Y-109002265D01*
X187528571Y-109040000D01*
X187676828Y-109139062D01*
X187850938Y-109313172D01*
X187987736Y-109517905D01*
X188081964Y-109745390D01*
X188130000Y-109986884D01*
X188130000Y-110233116D01*
X188081964Y-110474610D01*
X187987736Y-110702095D01*
X187987735Y-110702097D01*
X187850938Y-110906828D01*
X187676828Y-111080938D01*
X187472097Y-111217735D01*
X187472096Y-111217736D01*
X187472095Y-111217736D01*
X187244610Y-111311964D01*
X187003116Y-111360000D01*
X186756884Y-111360000D01*
X186515390Y-111311964D01*
X186287905Y-111217736D01*
X186287904Y-111217736D01*
X186287903Y-111217735D01*
X186083172Y-111080938D01*
X185909062Y-110906828D01*
X185772265Y-110702097D01*
X185772264Y-110702095D01*
X185678036Y-110474610D01*
X185630000Y-110233116D01*
X185630000Y-109986884D01*
X185678036Y-109745390D01*
X185772264Y-109517905D01*
X185909062Y-109313172D01*
X186083172Y-109139062D01*
X186231429Y-109040000D01*
X186287903Y-109002265D01*
X186287905Y-109002264D01*
X186515390Y-108908036D01*
X186756884Y-108860000D01*
X187003116Y-108860000D01*
X187244610Y-108908036D01*
G37*
G36*
X179644610Y-106588036D02*
G01*
X179872095Y-106682264D01*
X179872097Y-106682265D01*
X180076828Y-106819062D01*
X180250938Y-106993172D01*
X180332602Y-107115390D01*
X180387736Y-107197905D01*
X180481964Y-107425390D01*
X180530000Y-107666884D01*
X180530000Y-107913116D01*
X180481964Y-108154610D01*
X180431339Y-108276828D01*
X180387735Y-108382097D01*
X180250938Y-108586828D01*
X180076828Y-108760938D01*
X179872097Y-108897735D01*
X179872096Y-108897736D01*
X179872095Y-108897736D01*
X179644610Y-108991964D01*
X179403116Y-109040000D01*
X179156884Y-109040000D01*
X178915390Y-108991964D01*
X178687905Y-108897736D01*
X178687904Y-108897736D01*
X178687903Y-108897735D01*
X178483172Y-108760938D01*
X178309062Y-108586828D01*
X178172265Y-108382097D01*
X178128661Y-108276828D01*
X178078036Y-108154610D01*
X178030000Y-107913116D01*
X178030000Y-107666884D01*
X178078036Y-107425390D01*
X178172264Y-107197905D01*
X178227399Y-107115390D01*
X178309062Y-106993172D01*
X178483172Y-106819062D01*
X178687903Y-106682265D01*
X178687905Y-106682264D01*
X178915390Y-106588036D01*
X179156884Y-106540000D01*
X179403116Y-106540000D01*
X179644610Y-106588036D01*
G37*
G36*
X173554610Y-106278036D02*
G01*
X173782095Y-106372264D01*
X173782097Y-106372265D01*
X173961435Y-106492095D01*
X173986828Y-106509062D01*
X174160938Y-106683172D01*
X174297736Y-106887905D01*
X174391964Y-107115390D01*
X174440000Y-107356884D01*
X174440000Y-107603116D01*
X174391964Y-107844610D01*
X174360736Y-107920000D01*
X174297735Y-108072097D01*
X174160938Y-108276828D01*
X173986828Y-108450938D01*
X173782097Y-108587735D01*
X173782096Y-108587736D01*
X173782095Y-108587736D01*
X173554610Y-108681964D01*
X173313116Y-108730000D01*
X173066884Y-108730000D01*
X172825390Y-108681964D01*
X172597905Y-108587736D01*
X172597904Y-108587736D01*
X172597903Y-108587735D01*
X172393172Y-108450938D01*
X172219062Y-108276828D01*
X172082265Y-108072097D01*
X172019264Y-107920000D01*
X171988036Y-107844610D01*
X171940000Y-107603116D01*
X171940000Y-107356884D01*
X171988036Y-107115390D01*
X172082264Y-106887905D01*
X172219062Y-106683172D01*
X172393172Y-106509062D01*
X172418565Y-106492095D01*
X172597903Y-106372265D01*
X172597905Y-106372264D01*
X172825390Y-106278036D01*
X173066884Y-106230000D01*
X173313116Y-106230000D01*
X173554610Y-106278036D01*
G37*
G36*
X198134610Y-105468036D02*
G01*
X198362095Y-105562264D01*
X198362097Y-105562265D01*
X198566828Y-105699062D01*
X198740938Y-105873172D01*
X198877736Y-106077905D01*
X198971964Y-106305390D01*
X199020000Y-106546884D01*
X199020000Y-106793116D01*
X198971964Y-107034610D01*
X198877736Y-107262095D01*
X198877735Y-107262097D01*
X198740938Y-107466828D01*
X198566828Y-107640938D01*
X198362097Y-107777735D01*
X198362096Y-107777736D01*
X198362095Y-107777736D01*
X198134610Y-107871964D01*
X197893116Y-107920000D01*
X197646884Y-107920000D01*
X197405390Y-107871964D01*
X197177905Y-107777736D01*
X197177904Y-107777736D01*
X197177903Y-107777735D01*
X196973172Y-107640938D01*
X196799062Y-107466828D01*
X196662265Y-107262097D01*
X196662264Y-107262095D01*
X196568036Y-107034610D01*
X196520000Y-106793116D01*
X196520000Y-106546884D01*
X196568036Y-106305390D01*
X196662264Y-106077905D01*
X196799062Y-105873172D01*
X196973172Y-105699062D01*
X197177903Y-105562265D01*
X197177905Y-105562264D01*
X197405390Y-105468036D01*
X197646884Y-105420000D01*
X197893116Y-105420000D01*
X198134610Y-105468036D01*
G37*
G36*
X142744610Y-104698036D02*
G01*
X142972095Y-104792264D01*
X142972097Y-104792265D01*
X143176828Y-104929062D01*
X143350938Y-105103172D01*
X143487736Y-105307905D01*
X143581964Y-105535390D01*
X143630000Y-105776884D01*
X143630000Y-106023116D01*
X143581964Y-106264610D01*
X143487736Y-106492095D01*
X143487735Y-106492097D01*
X143350938Y-106696828D01*
X143176828Y-106870938D01*
X142972097Y-107007735D01*
X142972096Y-107007736D01*
X142972095Y-107007736D01*
X142744610Y-107101964D01*
X142503116Y-107150000D01*
X142256884Y-107150000D01*
X142015390Y-107101964D01*
X141787905Y-107007736D01*
X141787904Y-107007736D01*
X141787903Y-107007735D01*
X141583172Y-106870938D01*
X141409062Y-106696828D01*
X141272265Y-106492097D01*
X141272264Y-106492095D01*
X141178036Y-106264610D01*
X141130000Y-106023116D01*
X141130000Y-105776884D01*
X141178036Y-105535390D01*
X141272264Y-105307905D01*
X141409062Y-105103172D01*
X141583172Y-104929062D01*
X141787903Y-104792265D01*
X141787905Y-104792264D01*
X142015390Y-104698036D01*
X142256884Y-104650000D01*
X142503116Y-104650000D01*
X142744610Y-104698036D01*
G37*
G36*
X175904610Y-100108036D02*
G01*
X176099117Y-100188604D01*
X176132097Y-100202265D01*
X176150574Y-100214611D01*
X176336828Y-100339062D01*
X176510938Y-100513172D01*
X176647736Y-100717905D01*
X176741964Y-100945390D01*
X176790000Y-101186884D01*
X176790000Y-101433116D01*
X176741964Y-101674610D01*
X176722294Y-101722097D01*
X176647735Y-101902097D01*
X176510938Y-102106828D01*
X176336828Y-102280938D01*
X176132097Y-102417735D01*
X176132096Y-102417736D01*
X176132095Y-102417736D01*
X175904610Y-102511964D01*
X175663116Y-102560000D01*
X175416884Y-102560000D01*
X175175390Y-102511964D01*
X174947905Y-102417736D01*
X174947904Y-102417736D01*
X174947903Y-102417735D01*
X174743172Y-102280938D01*
X174569062Y-102106828D01*
X174432265Y-101902097D01*
X174357706Y-101722097D01*
X174338036Y-101674610D01*
X174290000Y-101433116D01*
X174290000Y-101186884D01*
X174338036Y-100945390D01*
X174432264Y-100717905D01*
X174569062Y-100513172D01*
X174743172Y-100339062D01*
X174929426Y-100214611D01*
X174947903Y-100202265D01*
X174980883Y-100188604D01*
X175175390Y-100108036D01*
X175416884Y-100060000D01*
X175663116Y-100060000D01*
X175904610Y-100108036D01*
G37*
G36*
X198664610Y-97648036D02*
G01*
X198892095Y-97742264D01*
X198892097Y-97742265D01*
X199096828Y-97879062D01*
X199270938Y-98053172D01*
X199407736Y-98257905D01*
X199501964Y-98485390D01*
X199550000Y-98726884D01*
X199550000Y-98973116D01*
X199501964Y-99214610D01*
X199407736Y-99442095D01*
X199407735Y-99442097D01*
X199270938Y-99646828D01*
X199096828Y-99820938D01*
X198892097Y-99957735D01*
X198826922Y-99984732D01*
X198805311Y-99996284D01*
X198786370Y-100011829D01*
X198770825Y-100030771D01*
X198759274Y-100052382D01*
X198752161Y-100075831D01*
X198749759Y-100100217D01*
X198752161Y-100124603D01*
X198759274Y-100148052D01*
X198770826Y-100169663D01*
X198786370Y-100188604D01*
X198930938Y-100333172D01*
X199067736Y-100537905D01*
X199161964Y-100765390D01*
X199210000Y-101006884D01*
X199210000Y-101253116D01*
X199161964Y-101494610D01*
X199067736Y-101722095D01*
X199067735Y-101722097D01*
X198930938Y-101926828D01*
X198756828Y-102100938D01*
X198552097Y-102237735D01*
X198552096Y-102237736D01*
X198552095Y-102237736D01*
X198324610Y-102331964D01*
X198083116Y-102380000D01*
X197836884Y-102380000D01*
X197595390Y-102331964D01*
X197367905Y-102237736D01*
X197367904Y-102237736D01*
X197367903Y-102237735D01*
X197163172Y-102100938D01*
X196989062Y-101926828D01*
X196852265Y-101722097D01*
X196852264Y-101722095D01*
X196758036Y-101494610D01*
X196710000Y-101253116D01*
X196710000Y-101006884D01*
X196758036Y-100765390D01*
X196852264Y-100537905D01*
X196989062Y-100333172D01*
X197163172Y-100159062D01*
X197367903Y-100022265D01*
X197433078Y-99995268D01*
X197454689Y-99983716D01*
X197473630Y-99968171D01*
X197489175Y-99949229D01*
X197500726Y-99927618D01*
X197507839Y-99904169D01*
X197510241Y-99879783D01*
X197507839Y-99855397D01*
X197500726Y-99831948D01*
X197489174Y-99810337D01*
X197473630Y-99791396D01*
X197329062Y-99646828D01*
X197192265Y-99442097D01*
X197192264Y-99442095D01*
X197098036Y-99214610D01*
X197050000Y-98973116D01*
X197050000Y-98726884D01*
X197098036Y-98485390D01*
X197192264Y-98257905D01*
X197329062Y-98053172D01*
X197503172Y-97879062D01*
X197707903Y-97742265D01*
X197707905Y-97742264D01*
X197935390Y-97648036D01*
X198176884Y-97600000D01*
X198423116Y-97600000D01*
X198664610Y-97648036D01*
G37*
G36*
X202704610Y-98648036D02*
G01*
X202894969Y-98726886D01*
X202932097Y-98742265D01*
X203136828Y-98879062D01*
X203310938Y-99053172D01*
X203418808Y-99214610D01*
X203447736Y-99257905D01*
X203541964Y-99485390D01*
X203590000Y-99726884D01*
X203590000Y-99973116D01*
X203541964Y-100214610D01*
X203490414Y-100339062D01*
X203447735Y-100442097D01*
X203310938Y-100646828D01*
X203136828Y-100820938D01*
X202932097Y-100957735D01*
X202932096Y-100957736D01*
X202932095Y-100957736D01*
X202704610Y-101051964D01*
X202463116Y-101100000D01*
X202216884Y-101100000D01*
X201975390Y-101051964D01*
X201747905Y-100957736D01*
X201747904Y-100957736D01*
X201747903Y-100957735D01*
X201543172Y-100820938D01*
X201369062Y-100646828D01*
X201232265Y-100442097D01*
X201189586Y-100339062D01*
X201138036Y-100214610D01*
X201090000Y-99973116D01*
X201090000Y-99726884D01*
X201138036Y-99485390D01*
X201232264Y-99257905D01*
X201261193Y-99214610D01*
X201369062Y-99053172D01*
X201543172Y-98879062D01*
X201747903Y-98742265D01*
X201785031Y-98726886D01*
X201975390Y-98648036D01*
X202216884Y-98600000D01*
X202463116Y-98600000D01*
X202704610Y-98648036D01*
G37*
G36*
X197744610Y-95028036D02*
G01*
X197972095Y-95122264D01*
X197972097Y-95122265D01*
X198078130Y-95193114D01*
X198176828Y-95259062D01*
X198350938Y-95433172D01*
X198487736Y-95637905D01*
X198581964Y-95865390D01*
X198630000Y-96106884D01*
X198630000Y-96353116D01*
X198581964Y-96594610D01*
X198487736Y-96822095D01*
X198487735Y-96822097D01*
X198350938Y-97026828D01*
X198176828Y-97200938D01*
X197972097Y-97337735D01*
X197972096Y-97337736D01*
X197972095Y-97337736D01*
X197744610Y-97431964D01*
X197503116Y-97480000D01*
X197256884Y-97480000D01*
X197015390Y-97431964D01*
X196787905Y-97337736D01*
X196787904Y-97337736D01*
X196787903Y-97337735D01*
X196583172Y-97200938D01*
X196409062Y-97026828D01*
X196272265Y-96822097D01*
X196272264Y-96822095D01*
X196178036Y-96594610D01*
X196130000Y-96353116D01*
X196130000Y-96106884D01*
X196178036Y-95865390D01*
X196272264Y-95637905D01*
X196409062Y-95433172D01*
X196583172Y-95259062D01*
X196681870Y-95193114D01*
X196787903Y-95122265D01*
X196787905Y-95122264D01*
X197015390Y-95028036D01*
X197256884Y-94980000D01*
X197503116Y-94980000D01*
X197744610Y-95028036D01*
G37*
G36*
X142874610Y-93868036D02*
G01*
X143102095Y-93962264D01*
X143102097Y-93962265D01*
X143306828Y-94099062D01*
X143480938Y-94273172D01*
X143617736Y-94477905D01*
X143711964Y-94705390D01*
X143760000Y-94946884D01*
X143760000Y-95193116D01*
X143711964Y-95434610D01*
X143627757Y-95637903D01*
X143617735Y-95662097D01*
X143480938Y-95866828D01*
X143306828Y-96040938D01*
X143102097Y-96177735D01*
X143102096Y-96177736D01*
X143102095Y-96177736D01*
X142874610Y-96271964D01*
X142633116Y-96320000D01*
X142386884Y-96320000D01*
X142145390Y-96271964D01*
X141917905Y-96177736D01*
X141917904Y-96177736D01*
X141917903Y-96177735D01*
X141713172Y-96040938D01*
X141539062Y-95866828D01*
X141402265Y-95662097D01*
X141392243Y-95637903D01*
X141308036Y-95434610D01*
X141260000Y-95193116D01*
X141260000Y-94946884D01*
X141308036Y-94705390D01*
X141402264Y-94477905D01*
X141539062Y-94273172D01*
X141713172Y-94099062D01*
X141917903Y-93962265D01*
X141917905Y-93962264D01*
X142145390Y-93868036D01*
X142386884Y-93820000D01*
X142633116Y-93820000D01*
X142874610Y-93868036D01*
G37*
G36*
X140454610Y-78858036D02*
G01*
X140682095Y-78952264D01*
X140682097Y-78952265D01*
X140824978Y-79047735D01*
X140886828Y-79089062D01*
X141060938Y-79263172D01*
X141197736Y-79467905D01*
X141291964Y-79695390D01*
X141340000Y-79936884D01*
X141340000Y-80183116D01*
X141291964Y-80424610D01*
X141197736Y-80652095D01*
X141197735Y-80652097D01*
X141060938Y-80856828D01*
X140886828Y-81030938D01*
X140682097Y-81167735D01*
X140682096Y-81167736D01*
X140682095Y-81167736D01*
X140454610Y-81261964D01*
X140213116Y-81310000D01*
X139966884Y-81310000D01*
X139725390Y-81261964D01*
X139497905Y-81167736D01*
X139497904Y-81167736D01*
X139497903Y-81167735D01*
X139293172Y-81030938D01*
X139119062Y-80856828D01*
X138982265Y-80652097D01*
X138982264Y-80652095D01*
X138888036Y-80424610D01*
X138840000Y-80183116D01*
X138840000Y-79936884D01*
X138888036Y-79695390D01*
X138982264Y-79467905D01*
X139119062Y-79263172D01*
X139293172Y-79089062D01*
X139355022Y-79047735D01*
X139497903Y-78952265D01*
X139497905Y-78952264D01*
X139725390Y-78858036D01*
X139966884Y-78810000D01*
X140213116Y-78810000D01*
X140454610Y-78858036D01*
G37*
G36*
X155854610Y-76738036D02*
G01*
X156082095Y-76832264D01*
X156082097Y-76832265D01*
X156286828Y-76969062D01*
X156460938Y-77143172D01*
X156597736Y-77347905D01*
X156691964Y-77575390D01*
X156740000Y-77816884D01*
X156740000Y-78063116D01*
X156691964Y-78304610D01*
X156597736Y-78532095D01*
X156597735Y-78532097D01*
X156460938Y-78736828D01*
X156286828Y-78910938D01*
X156082097Y-79047735D01*
X156082096Y-79047736D01*
X156082095Y-79047736D01*
X155854610Y-79141964D01*
X155613116Y-79190000D01*
X155366884Y-79190000D01*
X155125390Y-79141964D01*
X154897905Y-79047736D01*
X154897904Y-79047736D01*
X154897903Y-79047735D01*
X154693172Y-78910938D01*
X154519062Y-78736828D01*
X154382265Y-78532097D01*
X154382264Y-78532095D01*
X154288036Y-78304610D01*
X154240000Y-78063116D01*
X154240000Y-77816884D01*
X154288036Y-77575390D01*
X154382264Y-77347905D01*
X154519062Y-77143172D01*
X154693172Y-76969062D01*
X154897903Y-76832265D01*
X154897905Y-76832264D01*
X155125390Y-76738036D01*
X155366884Y-76690000D01*
X155613116Y-76690000D01*
X155854610Y-76738036D01*
G37*
G36*
X183674610Y-71748036D02*
G01*
X183902095Y-71842264D01*
X183902097Y-71842265D01*
X184106828Y-71979062D01*
X184280938Y-72153172D01*
X184417736Y-72357905D01*
X184511964Y-72585390D01*
X184560000Y-72826884D01*
X184560000Y-73073116D01*
X184511964Y-73314610D01*
X184417736Y-73542095D01*
X184417735Y-73542097D01*
X184280938Y-73746828D01*
X184106828Y-73920938D01*
X183902097Y-74057735D01*
X183902096Y-74057736D01*
X183902095Y-74057736D01*
X183674610Y-74151964D01*
X183433116Y-74200000D01*
X183186884Y-74200000D01*
X182945390Y-74151964D01*
X182717905Y-74057736D01*
X182717904Y-74057736D01*
X182717903Y-74057735D01*
X182513172Y-73920938D01*
X182339062Y-73746828D01*
X182202265Y-73542097D01*
X182202264Y-73542095D01*
X182108036Y-73314610D01*
X182060000Y-73073116D01*
X182060000Y-72826884D01*
X182108036Y-72585390D01*
X182202264Y-72357905D01*
X182339062Y-72153172D01*
X182513172Y-71979062D01*
X182717903Y-71842265D01*
X182717905Y-71842264D01*
X182945390Y-71748036D01*
X183186884Y-71700000D01*
X183433116Y-71700000D01*
X183674610Y-71748036D01*
G37*
M02*
