M48
; DRILL file {KiCad (5.1.5)-3} date 04/28/20 11:42:57
; FORMAT={-:-/ absolute / inch / decimal}
; #@! TF.CreationDate,2020-04-28T11:42:57+02:00
; #@! TF.GenerationSoftware,Kicad,Pcbnew,(5.1.5)-3
; #@! TF.FileFunction,Plated,1,2,PTH
FMAT,2
INCH
T1C0.0276
T2C0.1260
%
G90
G05
T1
X8.6303Y-5.6583
X7.7709Y-3.7886
X7.3575Y-4.335
X3.7445Y-4.6339
X5.6055Y-4.1693
X7.0583Y-4.2437
X5.5154Y-3.152
X7.9661Y-3.9311
X7.8646Y-4.6232
X6.1217Y-3.0685
X7.7736Y-4.7138
X6.4394Y-5.1665
X4.9571Y-4.6461
X7.2169Y-2.872
X7.7862Y-4.1996
X5.6106Y-3.7429
X7.8071Y-3.8917
X7.1406Y-5.9248
X6.911Y-3.9886
X7.7937Y-3.9815
X8.2287Y-5.0673
X6.2524Y-4.7035
X6.8185Y-4.2315
X6.0146Y-4.4228
X6.6602Y-4.5465
X4.848Y-4.9106
T2
X8.9055Y-6.3504
X3.3858Y-6.3504
X7.6496Y-4.4055
X4.5472Y-4.4055
T0
M30
