G04 #@! TF.GenerationSoftware,KiCad,Pcbnew,(5.1.5)-3*
G04 #@! TF.CreationDate,2020-04-28T11:43:09+02:00*
G04 #@! TF.ProjectId,carecasetesterpogo,63617265-6361-4736-9574-657374657270,rev?*
G04 #@! TF.SameCoordinates,Original*
G04 #@! TF.FileFunction,Legend,Top*
G04 #@! TF.FilePolarity,Positive*
%FSLAX46Y46*%
G04 Gerber Fmt 4.6, Leading zero omitted, Abs format (unit mm)*
G04 Created by KiCad (PCBNEW (5.1.5)-3) date 2020-04-28 11:43:09*
%MOMM*%
%LPD*%
G04 APERTURE LIST*
%ADD10C,0.150000*%
%ADD11C,0.200000*%
%ADD12C,0.100000*%
G04 APERTURE END LIST*
D10*
X157402630Y-77940000D02*
G75*
G03X157402630Y-77940000I-1902630J0D01*
G01*
X141992630Y-80070000D02*
G75*
G03X141992630Y-80070000I-1902630J0D01*
G01*
X97022630Y-117700000D02*
G75*
G03X97022630Y-117700000I-1902630J0D01*
G01*
X125052630Y-124730000D02*
G75*
G03X125052630Y-124730000I-1902630J0D01*
G01*
X144292630Y-105910000D02*
G75*
G03X144292630Y-105910000I-1902630J0D01*
G01*
X154306522Y-112340000D02*
G75*
G03X154306522Y-112340000I-1536522J0D01*
G01*
X154672630Y-112340000D02*
G75*
G03X154672630Y-112340000I-1902630J0D01*
G01*
X171082630Y-115480000D02*
G75*
G03X171082630Y-115480000I-1902630J0D01*
G01*
X181182630Y-107800000D02*
G75*
G03X181182630Y-107800000I-1902630J0D01*
G01*
X221112630Y-143720000D02*
G75*
G03X221112630Y-143720000I-1902630J0D01*
G01*
X183282630Y-150500000D02*
G75*
G03X183282630Y-150500000I-1902630J0D01*
G01*
X160722630Y-119480000D02*
G75*
G03X160722630Y-119480000I-1902630J0D01*
G01*
X165472630Y-131230000D02*
G75*
G03X165472630Y-131230000I-1902630J0D01*
G01*
X199362630Y-119740000D02*
G75*
G03X199362630Y-119740000I-1902630J0D01*
G01*
D11*
X235310000Y-63480000D02*
X235290000Y-170410000D01*
X77070000Y-63480000D02*
X235310000Y-63480000D01*
X77150000Y-170400000D02*
X77070000Y-63480000D01*
X104630000Y-135120000D02*
X207750000Y-135120000D01*
X195640000Y-65020000D02*
X94180000Y-65020000D01*
X77150000Y-170400000D02*
X235290000Y-170410000D01*
X152660000Y-78311679D02*
G75*
G03X152660000Y-78311679I-1550000J0D01*
G01*
X87240094Y-71860256D02*
G75*
G02X94160000Y-65020000I6850364J-9762D01*
G01*
X104671152Y-147109678D02*
G75*
G02X102010000Y-144490000I-41152J2619677D01*
G01*
X102010000Y-137780000D02*
X102010000Y-144490000D01*
X102010018Y-137781153D02*
G75*
G02X104629695Y-135120000I2619677J41153D01*
G01*
X100610000Y-141520000D02*
G75*
G03X100610000Y-141520000I-3400000J0D01*
G01*
X210410000Y-144460000D02*
X210410000Y-137740000D01*
X210409982Y-144458847D02*
G75*
G02X207790305Y-147120000I-2619677J-41153D01*
G01*
X207748843Y-135120018D02*
G75*
G02X210409996Y-137739695I41153J-2619677D01*
G01*
X218610000Y-141520000D02*
G75*
G03X218610000Y-141520000I-3400000J0D01*
G01*
D12*
X198160000Y-125820000D02*
X198810000Y-125820000D01*
X198160000Y-124270000D02*
X198160000Y-125820000D01*
X184710000Y-124270000D02*
X198160000Y-124270000D01*
X184710000Y-133220000D02*
X184710000Y-124270000D01*
X198160000Y-133220000D02*
X184710000Y-133220000D01*
X198160000Y-131720000D02*
X198160000Y-133220000D01*
X198810000Y-131720000D02*
X198160000Y-131720000D01*
X198810000Y-125820000D02*
X198810000Y-131720000D01*
D11*
X224399641Y-92710631D02*
G75*
G02X225140000Y-94599045I-1859641J-1818415D01*
G01*
X224400000Y-92710000D02*
X197510000Y-65800000D01*
X195670000Y-65019946D02*
G75*
G02X197511695Y-65795663I-10923J-2600052D01*
G01*
X218410000Y-97450000D02*
G75*
G03X218410000Y-97450000I-3200000J0D01*
G01*
X100410000Y-97450000D02*
G75*
G03X100410000Y-97450000I-3200000J0D01*
G01*
X104670000Y-147110000D02*
X207790000Y-147120000D01*
X87240000Y-150020000D02*
X87240000Y-71860000D01*
X225130000Y-150020000D02*
X225140000Y-94600000D01*
X97240000Y-160020000D02*
X215130000Y-160020000D01*
X225130000Y-150020000D02*
G75*
G02X215130000Y-160020000I-10000000J0D01*
G01*
X97240000Y-160020000D02*
G75*
G02X87240000Y-150020000I0J10000000D01*
G01*
D10*
X114738095Y-108602380D02*
X114738095Y-107602380D01*
X114738095Y-108078571D02*
X115309523Y-108078571D01*
X115309523Y-108602380D02*
X115309523Y-107602380D01*
X116214285Y-107602380D02*
X116023809Y-107602380D01*
X115928571Y-107650000D01*
X115880952Y-107697619D01*
X115785714Y-107840476D01*
X115738095Y-108030952D01*
X115738095Y-108411904D01*
X115785714Y-108507142D01*
X115833333Y-108554761D01*
X115928571Y-108602380D01*
X116119047Y-108602380D01*
X116214285Y-108554761D01*
X116261904Y-108507142D01*
X116309523Y-108411904D01*
X116309523Y-108173809D01*
X116261904Y-108078571D01*
X116214285Y-108030952D01*
X116119047Y-107983333D01*
X115928571Y-107983333D01*
X115833333Y-108030952D01*
X115785714Y-108078571D01*
X115738095Y-108173809D01*
X193538095Y-108602380D02*
X193538095Y-107602380D01*
X193538095Y-108078571D02*
X194109523Y-108078571D01*
X194109523Y-108602380D02*
X194109523Y-107602380D01*
X195061904Y-107602380D02*
X194585714Y-107602380D01*
X194538095Y-108078571D01*
X194585714Y-108030952D01*
X194680952Y-107983333D01*
X194919047Y-107983333D01*
X195014285Y-108030952D01*
X195061904Y-108078571D01*
X195109523Y-108173809D01*
X195109523Y-108411904D01*
X195061904Y-108507142D01*
X195014285Y-108554761D01*
X194919047Y-108602380D01*
X194680952Y-108602380D01*
X194585714Y-108554761D01*
X194538095Y-108507142D01*
X85238095Y-158002380D02*
X85238095Y-157002380D01*
X85238095Y-157478571D02*
X85809523Y-157478571D01*
X85809523Y-158002380D02*
X85809523Y-157002380D01*
X86714285Y-157335714D02*
X86714285Y-158002380D01*
X86476190Y-156954761D02*
X86238095Y-157669047D01*
X86857142Y-157669047D01*
X225438095Y-158002380D02*
X225438095Y-157002380D01*
X225438095Y-157478571D02*
X226009523Y-157478571D01*
X226009523Y-158002380D02*
X226009523Y-157002380D01*
X226390476Y-157002380D02*
X227009523Y-157002380D01*
X226676190Y-157383333D01*
X226819047Y-157383333D01*
X226914285Y-157430952D01*
X226961904Y-157478571D01*
X227009523Y-157573809D01*
X227009523Y-157811904D01*
X226961904Y-157907142D01*
X226914285Y-157954761D01*
X226819047Y-158002380D01*
X226533333Y-158002380D01*
X226438095Y-157954761D01*
X226390476Y-157907142D01*
X206174285Y-125162380D02*
X206174285Y-125876666D01*
X206126666Y-126019523D01*
X206031428Y-126114761D01*
X205888571Y-126162380D01*
X205793333Y-126162380D01*
X206602857Y-125257619D02*
X206650476Y-125210000D01*
X206745714Y-125162380D01*
X206983809Y-125162380D01*
X207079047Y-125210000D01*
X207126666Y-125257619D01*
X207174285Y-125352857D01*
X207174285Y-125448095D01*
X207126666Y-125590952D01*
X206555238Y-126162380D01*
X207174285Y-126162380D01*
X208031428Y-125162380D02*
X207840952Y-125162380D01*
X207745714Y-125210000D01*
X207698095Y-125257619D01*
X207602857Y-125400476D01*
X207555238Y-125590952D01*
X207555238Y-125971904D01*
X207602857Y-126067142D01*
X207650476Y-126114761D01*
X207745714Y-126162380D01*
X207936190Y-126162380D01*
X208031428Y-126114761D01*
X208079047Y-126067142D01*
X208126666Y-125971904D01*
X208126666Y-125733809D01*
X208079047Y-125638571D01*
X208031428Y-125590952D01*
X207936190Y-125543333D01*
X207745714Y-125543333D01*
X207650476Y-125590952D01*
X207602857Y-125638571D01*
X207555238Y-125733809D01*
X208555238Y-125781428D02*
X209317142Y-125781428D01*
X209650476Y-125162380D02*
X210221904Y-125162380D01*
X209936190Y-126162380D02*
X209936190Y-125162380D01*
X210555238Y-126162380D02*
X210555238Y-125162380D01*
X210936190Y-125162380D01*
X211031428Y-125210000D01*
X211079047Y-125257619D01*
X211126666Y-125352857D01*
X211126666Y-125495714D01*
X211079047Y-125590952D01*
X211031428Y-125638571D01*
X210936190Y-125686190D01*
X210555238Y-125686190D01*
X212031428Y-125162380D02*
X211555238Y-125162380D01*
X211507619Y-125638571D01*
X211555238Y-125590952D01*
X211650476Y-125543333D01*
X211888571Y-125543333D01*
X211983809Y-125590952D01*
X212031428Y-125638571D01*
X212079047Y-125733809D01*
X212079047Y-125971904D01*
X212031428Y-126067142D01*
X211983809Y-126114761D01*
X211888571Y-126162380D01*
X211650476Y-126162380D01*
X211555238Y-126114761D01*
X211507619Y-126067142D01*
X155974285Y-115922380D02*
X155974285Y-116636666D01*
X155926666Y-116779523D01*
X155831428Y-116874761D01*
X155688571Y-116922380D01*
X155593333Y-116922380D01*
X156498095Y-116922380D02*
X156688571Y-116922380D01*
X156783809Y-116874761D01*
X156831428Y-116827142D01*
X156926666Y-116684285D01*
X156974285Y-116493809D01*
X156974285Y-116112857D01*
X156926666Y-116017619D01*
X156879047Y-115970000D01*
X156783809Y-115922380D01*
X156593333Y-115922380D01*
X156498095Y-115970000D01*
X156450476Y-116017619D01*
X156402857Y-116112857D01*
X156402857Y-116350952D01*
X156450476Y-116446190D01*
X156498095Y-116493809D01*
X156593333Y-116541428D01*
X156783809Y-116541428D01*
X156879047Y-116493809D01*
X156926666Y-116446190D01*
X156974285Y-116350952D01*
X157402857Y-116541428D02*
X158164761Y-116541428D01*
X158498095Y-115922380D02*
X159069523Y-115922380D01*
X158783809Y-116922380D02*
X158783809Y-115922380D01*
X159402857Y-116922380D02*
X159402857Y-115922380D01*
X159783809Y-115922380D01*
X159879047Y-115970000D01*
X159926666Y-116017619D01*
X159974285Y-116112857D01*
X159974285Y-116255714D01*
X159926666Y-116350952D01*
X159879047Y-116398571D01*
X159783809Y-116446190D01*
X159402857Y-116446190D01*
X160926666Y-116922380D02*
X160355238Y-116922380D01*
X160640952Y-116922380D02*
X160640952Y-115922380D01*
X160545714Y-116065238D01*
X160450476Y-116160476D01*
X160355238Y-116208095D01*
X161402857Y-116922380D02*
X161593333Y-116922380D01*
X161688571Y-116874761D01*
X161736190Y-116827142D01*
X161831428Y-116684285D01*
X161879047Y-116493809D01*
X161879047Y-116112857D01*
X161831428Y-116017619D01*
X161783809Y-115970000D01*
X161688571Y-115922380D01*
X161498095Y-115922380D01*
X161402857Y-115970000D01*
X161355238Y-116017619D01*
X161307619Y-116112857D01*
X161307619Y-116350952D01*
X161355238Y-116446190D01*
X161402857Y-116493809D01*
X161498095Y-116541428D01*
X161688571Y-116541428D01*
X161783809Y-116493809D01*
X161831428Y-116446190D01*
X161879047Y-116350952D01*
X139544285Y-102352380D02*
X139544285Y-103066666D01*
X139496666Y-103209523D01*
X139401428Y-103304761D01*
X139258571Y-103352380D01*
X139163333Y-103352380D01*
X140163333Y-102780952D02*
X140068095Y-102733333D01*
X140020476Y-102685714D01*
X139972857Y-102590476D01*
X139972857Y-102542857D01*
X140020476Y-102447619D01*
X140068095Y-102400000D01*
X140163333Y-102352380D01*
X140353809Y-102352380D01*
X140449047Y-102400000D01*
X140496666Y-102447619D01*
X140544285Y-102542857D01*
X140544285Y-102590476D01*
X140496666Y-102685714D01*
X140449047Y-102733333D01*
X140353809Y-102780952D01*
X140163333Y-102780952D01*
X140068095Y-102828571D01*
X140020476Y-102876190D01*
X139972857Y-102971428D01*
X139972857Y-103161904D01*
X140020476Y-103257142D01*
X140068095Y-103304761D01*
X140163333Y-103352380D01*
X140353809Y-103352380D01*
X140449047Y-103304761D01*
X140496666Y-103257142D01*
X140544285Y-103161904D01*
X140544285Y-102971428D01*
X140496666Y-102876190D01*
X140449047Y-102828571D01*
X140353809Y-102780952D01*
X140972857Y-102971428D02*
X141734761Y-102971428D01*
X142068095Y-102352380D02*
X142639523Y-102352380D01*
X142353809Y-103352380D02*
X142353809Y-102352380D01*
X142972857Y-103352380D02*
X142972857Y-102352380D01*
X143353809Y-102352380D01*
X143449047Y-102400000D01*
X143496666Y-102447619D01*
X143544285Y-102542857D01*
X143544285Y-102685714D01*
X143496666Y-102780952D01*
X143449047Y-102828571D01*
X143353809Y-102876190D01*
X142972857Y-102876190D01*
X144496666Y-103352380D02*
X143925238Y-103352380D01*
X144210952Y-103352380D02*
X144210952Y-102352380D01*
X144115714Y-102495238D01*
X144020476Y-102590476D01*
X143925238Y-102638095D01*
X144830000Y-102352380D02*
X145449047Y-102352380D01*
X145115714Y-102733333D01*
X145258571Y-102733333D01*
X145353809Y-102780952D01*
X145401428Y-102828571D01*
X145449047Y-102923809D01*
X145449047Y-103161904D01*
X145401428Y-103257142D01*
X145353809Y-103304761D01*
X145258571Y-103352380D01*
X144972857Y-103352380D01*
X144877619Y-103304761D01*
X144830000Y-103257142D01*
X178534285Y-146942380D02*
X178534285Y-147656666D01*
X178486666Y-147799523D01*
X178391428Y-147894761D01*
X178248571Y-147942380D01*
X178153333Y-147942380D01*
X178915238Y-146942380D02*
X179581904Y-146942380D01*
X179153333Y-147942380D01*
X179962857Y-147561428D02*
X180724761Y-147561428D01*
X181058095Y-146942380D02*
X181629523Y-146942380D01*
X181343809Y-147942380D02*
X181343809Y-146942380D01*
X181962857Y-147942380D02*
X181962857Y-146942380D01*
X182343809Y-146942380D01*
X182439047Y-146990000D01*
X182486666Y-147037619D01*
X182534285Y-147132857D01*
X182534285Y-147275714D01*
X182486666Y-147370952D01*
X182439047Y-147418571D01*
X182343809Y-147466190D01*
X181962857Y-147466190D01*
X182915238Y-147037619D02*
X182962857Y-146990000D01*
X183058095Y-146942380D01*
X183296190Y-146942380D01*
X183391428Y-146990000D01*
X183439047Y-147037619D01*
X183486666Y-147132857D01*
X183486666Y-147228095D01*
X183439047Y-147370952D01*
X182867619Y-147942380D01*
X183486666Y-147942380D01*
X183820000Y-146942380D02*
X184486666Y-146942380D01*
X184058095Y-147942380D01*
X191964285Y-116712380D02*
X191964285Y-117426666D01*
X191916666Y-117569523D01*
X191821428Y-117664761D01*
X191678571Y-117712380D01*
X191583333Y-117712380D01*
X192869047Y-116712380D02*
X192678571Y-116712380D01*
X192583333Y-116760000D01*
X192535714Y-116807619D01*
X192440476Y-116950476D01*
X192392857Y-117140952D01*
X192392857Y-117521904D01*
X192440476Y-117617142D01*
X192488095Y-117664761D01*
X192583333Y-117712380D01*
X192773809Y-117712380D01*
X192869047Y-117664761D01*
X192916666Y-117617142D01*
X192964285Y-117521904D01*
X192964285Y-117283809D01*
X192916666Y-117188571D01*
X192869047Y-117140952D01*
X192773809Y-117093333D01*
X192583333Y-117093333D01*
X192488095Y-117140952D01*
X192440476Y-117188571D01*
X192392857Y-117283809D01*
X193392857Y-117331428D02*
X194154761Y-117331428D01*
X194488095Y-116712380D02*
X195059523Y-116712380D01*
X194773809Y-117712380D02*
X194773809Y-116712380D01*
X195392857Y-117712380D02*
X195392857Y-116712380D01*
X195773809Y-116712380D01*
X195869047Y-116760000D01*
X195916666Y-116807619D01*
X195964285Y-116902857D01*
X195964285Y-117045714D01*
X195916666Y-117140952D01*
X195869047Y-117188571D01*
X195773809Y-117236190D01*
X195392857Y-117236190D01*
X196345238Y-116807619D02*
X196392857Y-116760000D01*
X196488095Y-116712380D01*
X196726190Y-116712380D01*
X196821428Y-116760000D01*
X196869047Y-116807619D01*
X196916666Y-116902857D01*
X196916666Y-116998095D01*
X196869047Y-117140952D01*
X196297619Y-117712380D01*
X196916666Y-117712380D01*
X197869047Y-117712380D02*
X197297619Y-117712380D01*
X197583333Y-117712380D02*
X197583333Y-116712380D01*
X197488095Y-116855238D01*
X197392857Y-116950476D01*
X197297619Y-116998095D01*
X120780476Y-121182380D02*
X120780476Y-121896666D01*
X120732857Y-122039523D01*
X120637619Y-122134761D01*
X120494761Y-122182380D01*
X120399523Y-122182380D01*
X121732857Y-121182380D02*
X121256666Y-121182380D01*
X121209047Y-121658571D01*
X121256666Y-121610952D01*
X121351904Y-121563333D01*
X121590000Y-121563333D01*
X121685238Y-121610952D01*
X121732857Y-121658571D01*
X121780476Y-121753809D01*
X121780476Y-121991904D01*
X121732857Y-122087142D01*
X121685238Y-122134761D01*
X121590000Y-122182380D01*
X121351904Y-122182380D01*
X121256666Y-122134761D01*
X121209047Y-122087142D01*
X122209047Y-121801428D02*
X122970952Y-121801428D01*
X123304285Y-121182380D02*
X123875714Y-121182380D01*
X123590000Y-122182380D02*
X123590000Y-121182380D01*
X124209047Y-122182380D02*
X124209047Y-121182380D01*
X124590000Y-121182380D01*
X124685238Y-121230000D01*
X124732857Y-121277619D01*
X124780476Y-121372857D01*
X124780476Y-121515714D01*
X124732857Y-121610952D01*
X124685238Y-121658571D01*
X124590000Y-121706190D01*
X124209047Y-121706190D01*
X125351904Y-121610952D02*
X125256666Y-121563333D01*
X125209047Y-121515714D01*
X125161428Y-121420476D01*
X125161428Y-121372857D01*
X125209047Y-121277619D01*
X125256666Y-121230000D01*
X125351904Y-121182380D01*
X125542380Y-121182380D01*
X125637619Y-121230000D01*
X125685238Y-121277619D01*
X125732857Y-121372857D01*
X125732857Y-121420476D01*
X125685238Y-121515714D01*
X125637619Y-121563333D01*
X125542380Y-121610952D01*
X125351904Y-121610952D01*
X125256666Y-121658571D01*
X125209047Y-121706190D01*
X125161428Y-121801428D01*
X125161428Y-121991904D01*
X125209047Y-122087142D01*
X125256666Y-122134761D01*
X125351904Y-122182380D01*
X125542380Y-122182380D01*
X125637619Y-122134761D01*
X125685238Y-122087142D01*
X125732857Y-121991904D01*
X125732857Y-121801428D01*
X125685238Y-121706190D01*
X125637619Y-121658571D01*
X125542380Y-121610952D01*
X137254285Y-76512380D02*
X137254285Y-77226666D01*
X137206666Y-77369523D01*
X137111428Y-77464761D01*
X136968571Y-77512380D01*
X136873333Y-77512380D01*
X138159047Y-76845714D02*
X138159047Y-77512380D01*
X137920952Y-76464761D02*
X137682857Y-77179047D01*
X138301904Y-77179047D01*
X138682857Y-77131428D02*
X139444761Y-77131428D01*
X139778095Y-76512380D02*
X140349523Y-76512380D01*
X140063809Y-77512380D02*
X140063809Y-76512380D01*
X140682857Y-77512380D02*
X140682857Y-76512380D01*
X141063809Y-76512380D01*
X141159047Y-76560000D01*
X141206666Y-76607619D01*
X141254285Y-76702857D01*
X141254285Y-76845714D01*
X141206666Y-76940952D01*
X141159047Y-76988571D01*
X141063809Y-77036190D01*
X140682857Y-77036190D01*
X142206666Y-77512380D02*
X141635238Y-77512380D01*
X141920952Y-77512380D02*
X141920952Y-76512380D01*
X141825714Y-76655238D01*
X141730476Y-76750476D01*
X141635238Y-76798095D01*
X143063809Y-76512380D02*
X142873333Y-76512380D01*
X142778095Y-76560000D01*
X142730476Y-76607619D01*
X142635238Y-76750476D01*
X142587619Y-76940952D01*
X142587619Y-77321904D01*
X142635238Y-77417142D01*
X142682857Y-77464761D01*
X142778095Y-77512380D01*
X142968571Y-77512380D01*
X143063809Y-77464761D01*
X143111428Y-77417142D01*
X143159047Y-77321904D01*
X143159047Y-77083809D01*
X143111428Y-76988571D01*
X143063809Y-76940952D01*
X142968571Y-76893333D01*
X142778095Y-76893333D01*
X142682857Y-76940952D01*
X142635238Y-76988571D01*
X142587619Y-77083809D01*
X204118095Y-99372380D02*
X204118095Y-100086666D01*
X204070476Y-100229523D01*
X203975238Y-100324761D01*
X203832380Y-100372380D01*
X203737142Y-100372380D01*
X204546666Y-99467619D02*
X204594285Y-99420000D01*
X204689523Y-99372380D01*
X204927619Y-99372380D01*
X205022857Y-99420000D01*
X205070476Y-99467619D01*
X205118095Y-99562857D01*
X205118095Y-99658095D01*
X205070476Y-99800952D01*
X204499047Y-100372380D01*
X205118095Y-100372380D01*
X205451428Y-99372380D02*
X206118095Y-99372380D01*
X205689523Y-100372380D01*
X206499047Y-99991428D02*
X207260952Y-99991428D01*
X207594285Y-99372380D02*
X208165714Y-99372380D01*
X207880000Y-100372380D02*
X207880000Y-99372380D01*
X208499047Y-100372380D02*
X208499047Y-99372380D01*
X208880000Y-99372380D01*
X208975238Y-99420000D01*
X209022857Y-99467619D01*
X209070476Y-99562857D01*
X209070476Y-99705714D01*
X209022857Y-99800952D01*
X208975238Y-99848571D01*
X208880000Y-99896190D01*
X208499047Y-99896190D01*
X209451428Y-99467619D02*
X209499047Y-99420000D01*
X209594285Y-99372380D01*
X209832380Y-99372380D01*
X209927619Y-99420000D01*
X209975238Y-99467619D01*
X210022857Y-99562857D01*
X210022857Y-99658095D01*
X209975238Y-99800952D01*
X209403809Y-100372380D01*
X210022857Y-100372380D01*
X210880000Y-99372380D02*
X210689523Y-99372380D01*
X210594285Y-99420000D01*
X210546666Y-99467619D01*
X210451428Y-99610476D01*
X210403809Y-99800952D01*
X210403809Y-100181904D01*
X210451428Y-100277142D01*
X210499047Y-100324761D01*
X210594285Y-100372380D01*
X210784761Y-100372380D01*
X210880000Y-100324761D01*
X210927619Y-100277142D01*
X210975238Y-100181904D01*
X210975238Y-99943809D01*
X210927619Y-99848571D01*
X210880000Y-99800952D01*
X210784761Y-99753333D01*
X210594285Y-99753333D01*
X210499047Y-99800952D01*
X210451428Y-99848571D01*
X210403809Y-99943809D01*
X183568095Y-106562380D02*
X183568095Y-107276666D01*
X183520476Y-107419523D01*
X183425238Y-107514761D01*
X183282380Y-107562380D01*
X183187142Y-107562380D01*
X183996666Y-106657619D02*
X184044285Y-106610000D01*
X184139523Y-106562380D01*
X184377619Y-106562380D01*
X184472857Y-106610000D01*
X184520476Y-106657619D01*
X184568095Y-106752857D01*
X184568095Y-106848095D01*
X184520476Y-106990952D01*
X183949047Y-107562380D01*
X184568095Y-107562380D01*
X185472857Y-106562380D02*
X184996666Y-106562380D01*
X184949047Y-107038571D01*
X184996666Y-106990952D01*
X185091904Y-106943333D01*
X185330000Y-106943333D01*
X185425238Y-106990952D01*
X185472857Y-107038571D01*
X185520476Y-107133809D01*
X185520476Y-107371904D01*
X185472857Y-107467142D01*
X185425238Y-107514761D01*
X185330000Y-107562380D01*
X185091904Y-107562380D01*
X184996666Y-107514761D01*
X184949047Y-107467142D01*
X185949047Y-107181428D02*
X186710952Y-107181428D01*
X187044285Y-106562380D02*
X187615714Y-106562380D01*
X187330000Y-107562380D02*
X187330000Y-106562380D01*
X187949047Y-107562380D02*
X187949047Y-106562380D01*
X188330000Y-106562380D01*
X188425238Y-106610000D01*
X188472857Y-106657619D01*
X188520476Y-106752857D01*
X188520476Y-106895714D01*
X188472857Y-106990952D01*
X188425238Y-107038571D01*
X188330000Y-107086190D01*
X187949047Y-107086190D01*
X189472857Y-107562380D02*
X188901428Y-107562380D01*
X189187142Y-107562380D02*
X189187142Y-106562380D01*
X189091904Y-106705238D01*
X188996666Y-106800476D01*
X188901428Y-106848095D01*
X190044285Y-106990952D02*
X189949047Y-106943333D01*
X189901428Y-106895714D01*
X189853809Y-106800476D01*
X189853809Y-106752857D01*
X189901428Y-106657619D01*
X189949047Y-106610000D01*
X190044285Y-106562380D01*
X190234761Y-106562380D01*
X190330000Y-106610000D01*
X190377619Y-106657619D01*
X190425238Y-106752857D01*
X190425238Y-106800476D01*
X190377619Y-106895714D01*
X190330000Y-106943333D01*
X190234761Y-106990952D01*
X190044285Y-106990952D01*
X189949047Y-107038571D01*
X189901428Y-107086190D01*
X189853809Y-107181428D01*
X189853809Y-107371904D01*
X189901428Y-107467142D01*
X189949047Y-107514761D01*
X190044285Y-107562380D01*
X190234761Y-107562380D01*
X190330000Y-107514761D01*
X190377619Y-107467142D01*
X190425238Y-107371904D01*
X190425238Y-107181428D01*
X190377619Y-107086190D01*
X190330000Y-107038571D01*
X190234761Y-106990952D01*
X139198095Y-91522380D02*
X139198095Y-92236666D01*
X139150476Y-92379523D01*
X139055238Y-92474761D01*
X138912380Y-92522380D01*
X138817142Y-92522380D01*
X139626666Y-91617619D02*
X139674285Y-91570000D01*
X139769523Y-91522380D01*
X140007619Y-91522380D01*
X140102857Y-91570000D01*
X140150476Y-91617619D01*
X140198095Y-91712857D01*
X140198095Y-91808095D01*
X140150476Y-91950952D01*
X139579047Y-92522380D01*
X140198095Y-92522380D01*
X141055238Y-91855714D02*
X141055238Y-92522380D01*
X140817142Y-91474761D02*
X140579047Y-92189047D01*
X141198095Y-92189047D01*
X141579047Y-92141428D02*
X142340952Y-92141428D01*
X142674285Y-91522380D02*
X143245714Y-91522380D01*
X142960000Y-92522380D02*
X142960000Y-91522380D01*
X143579047Y-92522380D02*
X143579047Y-91522380D01*
X143960000Y-91522380D01*
X144055238Y-91570000D01*
X144102857Y-91617619D01*
X144150476Y-91712857D01*
X144150476Y-91855714D01*
X144102857Y-91950952D01*
X144055238Y-91998571D01*
X143960000Y-92046190D01*
X143579047Y-92046190D01*
X145102857Y-92522380D02*
X144531428Y-92522380D01*
X144817142Y-92522380D02*
X144817142Y-91522380D01*
X144721904Y-91665238D01*
X144626666Y-91760476D01*
X144531428Y-91808095D01*
X146007619Y-91522380D02*
X145531428Y-91522380D01*
X145483809Y-91998571D01*
X145531428Y-91950952D01*
X145626666Y-91903333D01*
X145864761Y-91903333D01*
X145960000Y-91950952D01*
X146007619Y-91998571D01*
X146055238Y-92093809D01*
X146055238Y-92331904D01*
X146007619Y-92427142D01*
X145960000Y-92474761D01*
X145864761Y-92522380D01*
X145626666Y-92522380D01*
X145531428Y-92474761D01*
X145483809Y-92427142D01*
X172228095Y-97762380D02*
X172228095Y-98476666D01*
X172180476Y-98619523D01*
X172085238Y-98714761D01*
X171942380Y-98762380D01*
X171847142Y-98762380D01*
X172656666Y-97857619D02*
X172704285Y-97810000D01*
X172799523Y-97762380D01*
X173037619Y-97762380D01*
X173132857Y-97810000D01*
X173180476Y-97857619D01*
X173228095Y-97952857D01*
X173228095Y-98048095D01*
X173180476Y-98190952D01*
X172609047Y-98762380D01*
X173228095Y-98762380D01*
X173561428Y-97762380D02*
X174180476Y-97762380D01*
X173847142Y-98143333D01*
X173990000Y-98143333D01*
X174085238Y-98190952D01*
X174132857Y-98238571D01*
X174180476Y-98333809D01*
X174180476Y-98571904D01*
X174132857Y-98667142D01*
X174085238Y-98714761D01*
X173990000Y-98762380D01*
X173704285Y-98762380D01*
X173609047Y-98714761D01*
X173561428Y-98667142D01*
X174609047Y-98381428D02*
X175370952Y-98381428D01*
X175704285Y-97762380D02*
X176275714Y-97762380D01*
X175990000Y-98762380D02*
X175990000Y-97762380D01*
X176609047Y-98762380D02*
X176609047Y-97762380D01*
X176990000Y-97762380D01*
X177085238Y-97810000D01*
X177132857Y-97857619D01*
X177180476Y-97952857D01*
X177180476Y-98095714D01*
X177132857Y-98190952D01*
X177085238Y-98238571D01*
X176990000Y-98286190D01*
X176609047Y-98286190D01*
X178132857Y-98762380D02*
X177561428Y-98762380D01*
X177847142Y-98762380D02*
X177847142Y-97762380D01*
X177751904Y-97905238D01*
X177656666Y-98000476D01*
X177561428Y-98048095D01*
X178513809Y-97857619D02*
X178561428Y-97810000D01*
X178656666Y-97762380D01*
X178894761Y-97762380D01*
X178990000Y-97810000D01*
X179037619Y-97857619D01*
X179085238Y-97952857D01*
X179085238Y-98048095D01*
X179037619Y-98190952D01*
X178466190Y-98762380D01*
X179085238Y-98762380D01*
X179998095Y-69402380D02*
X179998095Y-70116666D01*
X179950476Y-70259523D01*
X179855238Y-70354761D01*
X179712380Y-70402380D01*
X179617142Y-70402380D01*
X180426666Y-69497619D02*
X180474285Y-69450000D01*
X180569523Y-69402380D01*
X180807619Y-69402380D01*
X180902857Y-69450000D01*
X180950476Y-69497619D01*
X180998095Y-69592857D01*
X180998095Y-69688095D01*
X180950476Y-69830952D01*
X180379047Y-70402380D01*
X180998095Y-70402380D01*
X181379047Y-69497619D02*
X181426666Y-69450000D01*
X181521904Y-69402380D01*
X181760000Y-69402380D01*
X181855238Y-69450000D01*
X181902857Y-69497619D01*
X181950476Y-69592857D01*
X181950476Y-69688095D01*
X181902857Y-69830952D01*
X181331428Y-70402380D01*
X181950476Y-70402380D01*
X182379047Y-70021428D02*
X183140952Y-70021428D01*
X183474285Y-69402380D02*
X184045714Y-69402380D01*
X183760000Y-70402380D02*
X183760000Y-69402380D01*
X184379047Y-70402380D02*
X184379047Y-69402380D01*
X184760000Y-69402380D01*
X184855238Y-69450000D01*
X184902857Y-69497619D01*
X184950476Y-69592857D01*
X184950476Y-69735714D01*
X184902857Y-69830952D01*
X184855238Y-69878571D01*
X184760000Y-69926190D01*
X184379047Y-69926190D01*
X185902857Y-70402380D02*
X185331428Y-70402380D01*
X185617142Y-70402380D02*
X185617142Y-69402380D01*
X185521904Y-69545238D01*
X185426666Y-69640476D01*
X185331428Y-69688095D01*
X186855238Y-70402380D02*
X186283809Y-70402380D01*
X186569523Y-70402380D02*
X186569523Y-69402380D01*
X186474285Y-69545238D01*
X186379047Y-69640476D01*
X186283809Y-69688095D01*
X194458095Y-103122380D02*
X194458095Y-103836666D01*
X194410476Y-103979523D01*
X194315238Y-104074761D01*
X194172380Y-104122380D01*
X194077142Y-104122380D01*
X194886666Y-103217619D02*
X194934285Y-103170000D01*
X195029523Y-103122380D01*
X195267619Y-103122380D01*
X195362857Y-103170000D01*
X195410476Y-103217619D01*
X195458095Y-103312857D01*
X195458095Y-103408095D01*
X195410476Y-103550952D01*
X194839047Y-104122380D01*
X195458095Y-104122380D01*
X196410476Y-104122380D02*
X195839047Y-104122380D01*
X196124761Y-104122380D02*
X196124761Y-103122380D01*
X196029523Y-103265238D01*
X195934285Y-103360476D01*
X195839047Y-103408095D01*
X196839047Y-103741428D02*
X197600952Y-103741428D01*
X197934285Y-103122380D02*
X198505714Y-103122380D01*
X198220000Y-104122380D02*
X198220000Y-103122380D01*
X198839047Y-104122380D02*
X198839047Y-103122380D01*
X199220000Y-103122380D01*
X199315238Y-103170000D01*
X199362857Y-103217619D01*
X199410476Y-103312857D01*
X199410476Y-103455714D01*
X199362857Y-103550952D01*
X199315238Y-103598571D01*
X199220000Y-103646190D01*
X198839047Y-103646190D01*
X200362857Y-104122380D02*
X199791428Y-104122380D01*
X200077142Y-104122380D02*
X200077142Y-103122380D01*
X199981904Y-103265238D01*
X199886666Y-103360476D01*
X199791428Y-103408095D01*
X200981904Y-103122380D02*
X201077142Y-103122380D01*
X201172380Y-103170000D01*
X201220000Y-103217619D01*
X201267619Y-103312857D01*
X201315238Y-103503333D01*
X201315238Y-103741428D01*
X201267619Y-103931904D01*
X201220000Y-104027142D01*
X201172380Y-104074761D01*
X201077142Y-104122380D01*
X200981904Y-104122380D01*
X200886666Y-104074761D01*
X200839047Y-104027142D01*
X200791428Y-103931904D01*
X200743809Y-103741428D01*
X200743809Y-103503333D01*
X200791428Y-103312857D01*
X200839047Y-103217619D01*
X200886666Y-103170000D01*
X200981904Y-103122380D01*
X170354285Y-103932380D02*
X170354285Y-104646666D01*
X170306666Y-104789523D01*
X170211428Y-104884761D01*
X170068571Y-104932380D01*
X169973333Y-104932380D01*
X170782857Y-104027619D02*
X170830476Y-103980000D01*
X170925714Y-103932380D01*
X171163809Y-103932380D01*
X171259047Y-103980000D01*
X171306666Y-104027619D01*
X171354285Y-104122857D01*
X171354285Y-104218095D01*
X171306666Y-104360952D01*
X170735238Y-104932380D01*
X171354285Y-104932380D01*
X171973333Y-103932380D02*
X172068571Y-103932380D01*
X172163809Y-103980000D01*
X172211428Y-104027619D01*
X172259047Y-104122857D01*
X172306666Y-104313333D01*
X172306666Y-104551428D01*
X172259047Y-104741904D01*
X172211428Y-104837142D01*
X172163809Y-104884761D01*
X172068571Y-104932380D01*
X171973333Y-104932380D01*
X171878095Y-104884761D01*
X171830476Y-104837142D01*
X171782857Y-104741904D01*
X171735238Y-104551428D01*
X171735238Y-104313333D01*
X171782857Y-104122857D01*
X171830476Y-104027619D01*
X171878095Y-103980000D01*
X171973333Y-103932380D01*
X172735238Y-104551428D02*
X173497142Y-104551428D01*
X173830476Y-103932380D02*
X174401904Y-103932380D01*
X174116190Y-104932380D02*
X174116190Y-103932380D01*
X174735238Y-104932380D02*
X174735238Y-103932380D01*
X175116190Y-103932380D01*
X175211428Y-103980000D01*
X175259047Y-104027619D01*
X175306666Y-104122857D01*
X175306666Y-104265714D01*
X175259047Y-104360952D01*
X175211428Y-104408571D01*
X175116190Y-104456190D01*
X174735238Y-104456190D01*
X175782857Y-104932380D02*
X175973333Y-104932380D01*
X176068571Y-104884761D01*
X176116190Y-104837142D01*
X176211428Y-104694285D01*
X176259047Y-104503809D01*
X176259047Y-104122857D01*
X176211428Y-104027619D01*
X176163809Y-103980000D01*
X176068571Y-103932380D01*
X175878095Y-103932380D01*
X175782857Y-103980000D01*
X175735238Y-104027619D01*
X175687619Y-104122857D01*
X175687619Y-104360952D01*
X175735238Y-104456190D01*
X175782857Y-104503809D01*
X175878095Y-104551428D01*
X176068571Y-104551428D01*
X176163809Y-104503809D01*
X176211428Y-104456190D01*
X176259047Y-104360952D01*
X123074285Y-114462380D02*
X123074285Y-115176666D01*
X123026666Y-115319523D01*
X122931428Y-115414761D01*
X122788571Y-115462380D01*
X122693333Y-115462380D01*
X124074285Y-115462380D02*
X123502857Y-115462380D01*
X123788571Y-115462380D02*
X123788571Y-114462380D01*
X123693333Y-114605238D01*
X123598095Y-114700476D01*
X123502857Y-114748095D01*
X124550476Y-115462380D02*
X124740952Y-115462380D01*
X124836190Y-115414761D01*
X124883809Y-115367142D01*
X124979047Y-115224285D01*
X125026666Y-115033809D01*
X125026666Y-114652857D01*
X124979047Y-114557619D01*
X124931428Y-114510000D01*
X124836190Y-114462380D01*
X124645714Y-114462380D01*
X124550476Y-114510000D01*
X124502857Y-114557619D01*
X124455238Y-114652857D01*
X124455238Y-114890952D01*
X124502857Y-114986190D01*
X124550476Y-115033809D01*
X124645714Y-115081428D01*
X124836190Y-115081428D01*
X124931428Y-115033809D01*
X124979047Y-114986190D01*
X125026666Y-114890952D01*
X125455238Y-115081428D02*
X126217142Y-115081428D01*
X126550476Y-114462380D02*
X127121904Y-114462380D01*
X126836190Y-115462380D02*
X126836190Y-114462380D01*
X127455238Y-115462380D02*
X127455238Y-114462380D01*
X127836190Y-114462380D01*
X127931428Y-114510000D01*
X127979047Y-114557619D01*
X128026666Y-114652857D01*
X128026666Y-114795714D01*
X127979047Y-114890952D01*
X127931428Y-114938571D01*
X127836190Y-114986190D01*
X127455238Y-114986190D01*
X128883809Y-114462380D02*
X128693333Y-114462380D01*
X128598095Y-114510000D01*
X128550476Y-114557619D01*
X128455238Y-114700476D01*
X128407619Y-114890952D01*
X128407619Y-115271904D01*
X128455238Y-115367142D01*
X128502857Y-115414761D01*
X128598095Y-115462380D01*
X128788571Y-115462380D01*
X128883809Y-115414761D01*
X128931428Y-115367142D01*
X128979047Y-115271904D01*
X128979047Y-115033809D01*
X128931428Y-114938571D01*
X128883809Y-114890952D01*
X128788571Y-114843333D01*
X128598095Y-114843333D01*
X128502857Y-114890952D01*
X128455238Y-114938571D01*
X128407619Y-115033809D01*
X196924285Y-113882380D02*
X196924285Y-114596666D01*
X196876666Y-114739523D01*
X196781428Y-114834761D01*
X196638571Y-114882380D01*
X196543333Y-114882380D01*
X197924285Y-114882380D02*
X197352857Y-114882380D01*
X197638571Y-114882380D02*
X197638571Y-113882380D01*
X197543333Y-114025238D01*
X197448095Y-114120476D01*
X197352857Y-114168095D01*
X198495714Y-114310952D02*
X198400476Y-114263333D01*
X198352857Y-114215714D01*
X198305238Y-114120476D01*
X198305238Y-114072857D01*
X198352857Y-113977619D01*
X198400476Y-113930000D01*
X198495714Y-113882380D01*
X198686190Y-113882380D01*
X198781428Y-113930000D01*
X198829047Y-113977619D01*
X198876666Y-114072857D01*
X198876666Y-114120476D01*
X198829047Y-114215714D01*
X198781428Y-114263333D01*
X198686190Y-114310952D01*
X198495714Y-114310952D01*
X198400476Y-114358571D01*
X198352857Y-114406190D01*
X198305238Y-114501428D01*
X198305238Y-114691904D01*
X198352857Y-114787142D01*
X198400476Y-114834761D01*
X198495714Y-114882380D01*
X198686190Y-114882380D01*
X198781428Y-114834761D01*
X198829047Y-114787142D01*
X198876666Y-114691904D01*
X198876666Y-114501428D01*
X198829047Y-114406190D01*
X198781428Y-114358571D01*
X198686190Y-114310952D01*
X199305238Y-114501428D02*
X200067142Y-114501428D01*
X200400476Y-113882380D02*
X200971904Y-113882380D01*
X200686190Y-114882380D02*
X200686190Y-113882380D01*
X201305238Y-114882380D02*
X201305238Y-113882380D01*
X201686190Y-113882380D01*
X201781428Y-113930000D01*
X201829047Y-113977619D01*
X201876666Y-114072857D01*
X201876666Y-114215714D01*
X201829047Y-114310952D01*
X201781428Y-114358571D01*
X201686190Y-114406190D01*
X201305238Y-114406190D01*
X202733809Y-114215714D02*
X202733809Y-114882380D01*
X202495714Y-113834761D02*
X202257619Y-114549047D01*
X202876666Y-114549047D01*
X190514285Y-100642380D02*
X190514285Y-101356666D01*
X190466666Y-101499523D01*
X190371428Y-101594761D01*
X190228571Y-101642380D01*
X190133333Y-101642380D01*
X191514285Y-101642380D02*
X190942857Y-101642380D01*
X191228571Y-101642380D02*
X191228571Y-100642380D01*
X191133333Y-100785238D01*
X191038095Y-100880476D01*
X190942857Y-100928095D01*
X191847619Y-100642380D02*
X192514285Y-100642380D01*
X192085714Y-101642380D01*
X192895238Y-101261428D02*
X193657142Y-101261428D01*
X193990476Y-100642380D02*
X194561904Y-100642380D01*
X194276190Y-101642380D02*
X194276190Y-100642380D01*
X194895238Y-101642380D02*
X194895238Y-100642380D01*
X195276190Y-100642380D01*
X195371428Y-100690000D01*
X195419047Y-100737619D01*
X195466666Y-100832857D01*
X195466666Y-100975714D01*
X195419047Y-101070952D01*
X195371428Y-101118571D01*
X195276190Y-101166190D01*
X194895238Y-101166190D01*
X195800000Y-100642380D02*
X196419047Y-100642380D01*
X196085714Y-101023333D01*
X196228571Y-101023333D01*
X196323809Y-101070952D01*
X196371428Y-101118571D01*
X196419047Y-101213809D01*
X196419047Y-101451904D01*
X196371428Y-101547142D01*
X196323809Y-101594761D01*
X196228571Y-101642380D01*
X195942857Y-101642380D01*
X195847619Y-101594761D01*
X195800000Y-101547142D01*
X149458095Y-108792380D02*
X149458095Y-109506666D01*
X149410476Y-109649523D01*
X149315238Y-109744761D01*
X149172380Y-109792380D01*
X149077142Y-109792380D01*
X150458095Y-109792380D02*
X149886666Y-109792380D01*
X150172380Y-109792380D02*
X150172380Y-108792380D01*
X150077142Y-108935238D01*
X149981904Y-109030476D01*
X149886666Y-109078095D01*
X151315238Y-108792380D02*
X151124761Y-108792380D01*
X151029523Y-108840000D01*
X150981904Y-108887619D01*
X150886666Y-109030476D01*
X150839047Y-109220952D01*
X150839047Y-109601904D01*
X150886666Y-109697142D01*
X150934285Y-109744761D01*
X151029523Y-109792380D01*
X151220000Y-109792380D01*
X151315238Y-109744761D01*
X151362857Y-109697142D01*
X151410476Y-109601904D01*
X151410476Y-109363809D01*
X151362857Y-109268571D01*
X151315238Y-109220952D01*
X151220000Y-109173333D01*
X151029523Y-109173333D01*
X150934285Y-109220952D01*
X150886666Y-109268571D01*
X150839047Y-109363809D01*
X151839047Y-109411428D02*
X152600952Y-109411428D01*
X152934285Y-108792380D02*
X153505714Y-108792380D01*
X153220000Y-109792380D02*
X153220000Y-108792380D01*
X153839047Y-109792380D02*
X153839047Y-108792380D01*
X154220000Y-108792380D01*
X154315238Y-108840000D01*
X154362857Y-108887619D01*
X154410476Y-108982857D01*
X154410476Y-109125714D01*
X154362857Y-109220952D01*
X154315238Y-109268571D01*
X154220000Y-109316190D01*
X153839047Y-109316190D01*
X154791428Y-108887619D02*
X154839047Y-108840000D01*
X154934285Y-108792380D01*
X155172380Y-108792380D01*
X155267619Y-108840000D01*
X155315238Y-108887619D01*
X155362857Y-108982857D01*
X155362857Y-109078095D01*
X155315238Y-109220952D01*
X154743809Y-109792380D01*
X155362857Y-109792380D01*
X156220000Y-109125714D02*
X156220000Y-109792380D01*
X155981904Y-108744761D02*
X155743809Y-109459047D01*
X156362857Y-109459047D01*
X190894285Y-98212380D02*
X190894285Y-98926666D01*
X190846666Y-99069523D01*
X190751428Y-99164761D01*
X190608571Y-99212380D01*
X190513333Y-99212380D01*
X191894285Y-99212380D02*
X191322857Y-99212380D01*
X191608571Y-99212380D02*
X191608571Y-98212380D01*
X191513333Y-98355238D01*
X191418095Y-98450476D01*
X191322857Y-98498095D01*
X192751428Y-98212380D02*
X192560952Y-98212380D01*
X192465714Y-98260000D01*
X192418095Y-98307619D01*
X192322857Y-98450476D01*
X192275238Y-98640952D01*
X192275238Y-99021904D01*
X192322857Y-99117142D01*
X192370476Y-99164761D01*
X192465714Y-99212380D01*
X192656190Y-99212380D01*
X192751428Y-99164761D01*
X192799047Y-99117142D01*
X192846666Y-99021904D01*
X192846666Y-98783809D01*
X192799047Y-98688571D01*
X192751428Y-98640952D01*
X192656190Y-98593333D01*
X192465714Y-98593333D01*
X192370476Y-98640952D01*
X192322857Y-98688571D01*
X192275238Y-98783809D01*
X193275238Y-98831428D02*
X194037142Y-98831428D01*
X194370476Y-98212380D02*
X194941904Y-98212380D01*
X194656190Y-99212380D02*
X194656190Y-98212380D01*
X195275238Y-99212380D02*
X195275238Y-98212380D01*
X195656190Y-98212380D01*
X195751428Y-98260000D01*
X195799047Y-98307619D01*
X195846666Y-98402857D01*
X195846666Y-98545714D01*
X195799047Y-98640952D01*
X195751428Y-98688571D01*
X195656190Y-98736190D01*
X195275238Y-98736190D01*
X196227619Y-98307619D02*
X196275238Y-98260000D01*
X196370476Y-98212380D01*
X196608571Y-98212380D01*
X196703809Y-98260000D01*
X196751428Y-98307619D01*
X196799047Y-98402857D01*
X196799047Y-98498095D01*
X196751428Y-98640952D01*
X196180000Y-99212380D01*
X196799047Y-99212380D01*
X215898095Y-140172380D02*
X215898095Y-140886666D01*
X215850476Y-141029523D01*
X215755238Y-141124761D01*
X215612380Y-141172380D01*
X215517142Y-141172380D01*
X216898095Y-141172380D02*
X216326666Y-141172380D01*
X216612380Y-141172380D02*
X216612380Y-140172380D01*
X216517142Y-140315238D01*
X216421904Y-140410476D01*
X216326666Y-140458095D01*
X217802857Y-140172380D02*
X217326666Y-140172380D01*
X217279047Y-140648571D01*
X217326666Y-140600952D01*
X217421904Y-140553333D01*
X217660000Y-140553333D01*
X217755238Y-140600952D01*
X217802857Y-140648571D01*
X217850476Y-140743809D01*
X217850476Y-140981904D01*
X217802857Y-141077142D01*
X217755238Y-141124761D01*
X217660000Y-141172380D01*
X217421904Y-141172380D01*
X217326666Y-141124761D01*
X217279047Y-141077142D01*
X218279047Y-140791428D02*
X219040952Y-140791428D01*
X219374285Y-140172380D02*
X219945714Y-140172380D01*
X219660000Y-141172380D02*
X219660000Y-140172380D01*
X220279047Y-141172380D02*
X220279047Y-140172380D01*
X220660000Y-140172380D01*
X220755238Y-140220000D01*
X220802857Y-140267619D01*
X220850476Y-140362857D01*
X220850476Y-140505714D01*
X220802857Y-140600952D01*
X220755238Y-140648571D01*
X220660000Y-140696190D01*
X220279047Y-140696190D01*
X221231428Y-140267619D02*
X221279047Y-140220000D01*
X221374285Y-140172380D01*
X221612380Y-140172380D01*
X221707619Y-140220000D01*
X221755238Y-140267619D01*
X221802857Y-140362857D01*
X221802857Y-140458095D01*
X221755238Y-140600952D01*
X221183809Y-141172380D01*
X221802857Y-141172380D01*
X222421904Y-140172380D02*
X222517142Y-140172380D01*
X222612380Y-140220000D01*
X222660000Y-140267619D01*
X222707619Y-140362857D01*
X222755238Y-140553333D01*
X222755238Y-140791428D01*
X222707619Y-140981904D01*
X222660000Y-141077142D01*
X222612380Y-141124761D01*
X222517142Y-141172380D01*
X222421904Y-141172380D01*
X222326666Y-141124761D01*
X222279047Y-141077142D01*
X222231428Y-140981904D01*
X222183809Y-140791428D01*
X222183809Y-140553333D01*
X222231428Y-140362857D01*
X222279047Y-140267619D01*
X222326666Y-140220000D01*
X222421904Y-140172380D01*
X189934285Y-95672380D02*
X189934285Y-96386666D01*
X189886666Y-96529523D01*
X189791428Y-96624761D01*
X189648571Y-96672380D01*
X189553333Y-96672380D01*
X190934285Y-96672380D02*
X190362857Y-96672380D01*
X190648571Y-96672380D02*
X190648571Y-95672380D01*
X190553333Y-95815238D01*
X190458095Y-95910476D01*
X190362857Y-95958095D01*
X191839047Y-95672380D02*
X191362857Y-95672380D01*
X191315238Y-96148571D01*
X191362857Y-96100952D01*
X191458095Y-96053333D01*
X191696190Y-96053333D01*
X191791428Y-96100952D01*
X191839047Y-96148571D01*
X191886666Y-96243809D01*
X191886666Y-96481904D01*
X191839047Y-96577142D01*
X191791428Y-96624761D01*
X191696190Y-96672380D01*
X191458095Y-96672380D01*
X191362857Y-96624761D01*
X191315238Y-96577142D01*
X192315238Y-96291428D02*
X193077142Y-96291428D01*
X193410476Y-95672380D02*
X193981904Y-95672380D01*
X193696190Y-96672380D02*
X193696190Y-95672380D01*
X194315238Y-96672380D02*
X194315238Y-95672380D01*
X194696190Y-95672380D01*
X194791428Y-95720000D01*
X194839047Y-95767619D01*
X194886666Y-95862857D01*
X194886666Y-96005714D01*
X194839047Y-96100952D01*
X194791428Y-96148571D01*
X194696190Y-96196190D01*
X194315238Y-96196190D01*
X195839047Y-96672380D02*
X195267619Y-96672380D01*
X195553333Y-96672380D02*
X195553333Y-95672380D01*
X195458095Y-95815238D01*
X195362857Y-95910476D01*
X195267619Y-95958095D01*
X91798095Y-114152380D02*
X91798095Y-114866666D01*
X91750476Y-115009523D01*
X91655238Y-115104761D01*
X91512380Y-115152380D01*
X91417142Y-115152380D01*
X92798095Y-115152380D02*
X92226666Y-115152380D01*
X92512380Y-115152380D02*
X92512380Y-114152380D01*
X92417142Y-114295238D01*
X92321904Y-114390476D01*
X92226666Y-114438095D01*
X93655238Y-114485714D02*
X93655238Y-115152380D01*
X93417142Y-114104761D02*
X93179047Y-114819047D01*
X93798095Y-114819047D01*
X94179047Y-114771428D02*
X94940952Y-114771428D01*
X95274285Y-114152380D02*
X95845714Y-114152380D01*
X95560000Y-115152380D02*
X95560000Y-114152380D01*
X96179047Y-115152380D02*
X96179047Y-114152380D01*
X96560000Y-114152380D01*
X96655238Y-114200000D01*
X96702857Y-114247619D01*
X96750476Y-114342857D01*
X96750476Y-114485714D01*
X96702857Y-114580952D01*
X96655238Y-114628571D01*
X96560000Y-114676190D01*
X96179047Y-114676190D01*
X97702857Y-115152380D02*
X97131428Y-115152380D01*
X97417142Y-115152380D02*
X97417142Y-114152380D01*
X97321904Y-114295238D01*
X97226666Y-114390476D01*
X97131428Y-114438095D01*
X98036190Y-114152380D02*
X98702857Y-114152380D01*
X98274285Y-115152380D01*
X152178095Y-74392380D02*
X152178095Y-75106666D01*
X152130476Y-75249523D01*
X152035238Y-75344761D01*
X151892380Y-75392380D01*
X151797142Y-75392380D01*
X153178095Y-75392380D02*
X152606666Y-75392380D01*
X152892380Y-75392380D02*
X152892380Y-74392380D01*
X152797142Y-74535238D01*
X152701904Y-74630476D01*
X152606666Y-74678095D01*
X153511428Y-74392380D02*
X154130476Y-74392380D01*
X153797142Y-74773333D01*
X153940000Y-74773333D01*
X154035238Y-74820952D01*
X154082857Y-74868571D01*
X154130476Y-74963809D01*
X154130476Y-75201904D01*
X154082857Y-75297142D01*
X154035238Y-75344761D01*
X153940000Y-75392380D01*
X153654285Y-75392380D01*
X153559047Y-75344761D01*
X153511428Y-75297142D01*
X154559047Y-75011428D02*
X155320952Y-75011428D01*
X155654285Y-74392380D02*
X156225714Y-74392380D01*
X155940000Y-75392380D02*
X155940000Y-74392380D01*
X156559047Y-75392380D02*
X156559047Y-74392380D01*
X156940000Y-74392380D01*
X157035238Y-74440000D01*
X157082857Y-74487619D01*
X157130476Y-74582857D01*
X157130476Y-74725714D01*
X157082857Y-74820952D01*
X157035238Y-74868571D01*
X156940000Y-74916190D01*
X156559047Y-74916190D01*
X157511428Y-74487619D02*
X157559047Y-74440000D01*
X157654285Y-74392380D01*
X157892380Y-74392380D01*
X157987619Y-74440000D01*
X158035238Y-74487619D01*
X158082857Y-74582857D01*
X158082857Y-74678095D01*
X158035238Y-74820952D01*
X157463809Y-75392380D01*
X158082857Y-75392380D01*
X158416190Y-74392380D02*
X159035238Y-74392380D01*
X158701904Y-74773333D01*
X158844761Y-74773333D01*
X158940000Y-74820952D01*
X158987619Y-74868571D01*
X159035238Y-74963809D01*
X159035238Y-75201904D01*
X158987619Y-75297142D01*
X158940000Y-75344761D01*
X158844761Y-75392380D01*
X158559047Y-75392380D01*
X158463809Y-75344761D01*
X158416190Y-75297142D01*
X165858095Y-111932380D02*
X165858095Y-112646666D01*
X165810476Y-112789523D01*
X165715238Y-112884761D01*
X165572380Y-112932380D01*
X165477142Y-112932380D01*
X166858095Y-112932380D02*
X166286666Y-112932380D01*
X166572380Y-112932380D02*
X166572380Y-111932380D01*
X166477142Y-112075238D01*
X166381904Y-112170476D01*
X166286666Y-112218095D01*
X167239047Y-112027619D02*
X167286666Y-111980000D01*
X167381904Y-111932380D01*
X167620000Y-111932380D01*
X167715238Y-111980000D01*
X167762857Y-112027619D01*
X167810476Y-112122857D01*
X167810476Y-112218095D01*
X167762857Y-112360952D01*
X167191428Y-112932380D01*
X167810476Y-112932380D01*
X168239047Y-112551428D02*
X169000952Y-112551428D01*
X169334285Y-111932380D02*
X169905714Y-111932380D01*
X169620000Y-112932380D02*
X169620000Y-111932380D01*
X170239047Y-112932380D02*
X170239047Y-111932380D01*
X170620000Y-111932380D01*
X170715238Y-111980000D01*
X170762857Y-112027619D01*
X170810476Y-112122857D01*
X170810476Y-112265714D01*
X170762857Y-112360952D01*
X170715238Y-112408571D01*
X170620000Y-112456190D01*
X170239047Y-112456190D01*
X171762857Y-112932380D02*
X171191428Y-112932380D01*
X171477142Y-112932380D02*
X171477142Y-111932380D01*
X171381904Y-112075238D01*
X171286666Y-112170476D01*
X171191428Y-112218095D01*
X172620000Y-112265714D02*
X172620000Y-112932380D01*
X172381904Y-111884761D02*
X172143809Y-112599047D01*
X172762857Y-112599047D01*
X160724285Y-127682380D02*
X160724285Y-128396666D01*
X160676666Y-128539523D01*
X160581428Y-128634761D01*
X160438571Y-128682380D01*
X160343333Y-128682380D01*
X161724285Y-128682380D02*
X161152857Y-128682380D01*
X161438571Y-128682380D02*
X161438571Y-127682380D01*
X161343333Y-127825238D01*
X161248095Y-127920476D01*
X161152857Y-127968095D01*
X162676666Y-128682380D02*
X162105238Y-128682380D01*
X162390952Y-128682380D02*
X162390952Y-127682380D01*
X162295714Y-127825238D01*
X162200476Y-127920476D01*
X162105238Y-127968095D01*
X163105238Y-128301428D02*
X163867142Y-128301428D01*
X164200476Y-127682380D02*
X164771904Y-127682380D01*
X164486190Y-128682380D02*
X164486190Y-127682380D01*
X165105238Y-128682380D02*
X165105238Y-127682380D01*
X165486190Y-127682380D01*
X165581428Y-127730000D01*
X165629047Y-127777619D01*
X165676666Y-127872857D01*
X165676666Y-128015714D01*
X165629047Y-128110952D01*
X165581428Y-128158571D01*
X165486190Y-128206190D01*
X165105238Y-128206190D01*
X166010000Y-127682380D02*
X166676666Y-127682380D01*
X166248095Y-128682380D01*
X175968095Y-104242380D02*
X175968095Y-104956666D01*
X175920476Y-105099523D01*
X175825238Y-105194761D01*
X175682380Y-105242380D01*
X175587142Y-105242380D01*
X176968095Y-105242380D02*
X176396666Y-105242380D01*
X176682380Y-105242380D02*
X176682380Y-104242380D01*
X176587142Y-104385238D01*
X176491904Y-104480476D01*
X176396666Y-104528095D01*
X177587142Y-104242380D02*
X177682380Y-104242380D01*
X177777619Y-104290000D01*
X177825238Y-104337619D01*
X177872857Y-104432857D01*
X177920476Y-104623333D01*
X177920476Y-104861428D01*
X177872857Y-105051904D01*
X177825238Y-105147142D01*
X177777619Y-105194761D01*
X177682380Y-105242380D01*
X177587142Y-105242380D01*
X177491904Y-105194761D01*
X177444285Y-105147142D01*
X177396666Y-105051904D01*
X177349047Y-104861428D01*
X177349047Y-104623333D01*
X177396666Y-104432857D01*
X177444285Y-104337619D01*
X177491904Y-104290000D01*
X177587142Y-104242380D01*
X178349047Y-104861428D02*
X179110952Y-104861428D01*
X179444285Y-104242380D02*
X180015714Y-104242380D01*
X179730000Y-105242380D02*
X179730000Y-104242380D01*
X180349047Y-105242380D02*
X180349047Y-104242380D01*
X180730000Y-104242380D01*
X180825238Y-104290000D01*
X180872857Y-104337619D01*
X180920476Y-104432857D01*
X180920476Y-104575714D01*
X180872857Y-104670952D01*
X180825238Y-104718571D01*
X180730000Y-104766190D01*
X180349047Y-104766190D01*
X181301428Y-104337619D02*
X181349047Y-104290000D01*
X181444285Y-104242380D01*
X181682380Y-104242380D01*
X181777619Y-104290000D01*
X181825238Y-104337619D01*
X181872857Y-104432857D01*
X181872857Y-104528095D01*
X181825238Y-104670952D01*
X181253809Y-105242380D01*
X181872857Y-105242380D01*
X182253809Y-104337619D02*
X182301428Y-104290000D01*
X182396666Y-104242380D01*
X182634761Y-104242380D01*
X182730000Y-104290000D01*
X182777619Y-104337619D01*
X182825238Y-104432857D01*
X182825238Y-104528095D01*
X182777619Y-104670952D01*
X182206190Y-105242380D01*
X182825238Y-105242380D01*
M02*
